<?xml version="1.0" encoding="UTF-8" standalone="no"?>
<svg
   xmlns:dc="http://purl.org/dc/elements/1.1/"
   xmlns:cc="http://creativecommons.org/ns#"
   xmlns:rdf="http://www.w3.org/1999/02/22-rdf-syntax-ns#"
   xmlns:svg="http://www.w3.org/2000/svg"
   xmlns="http://www.w3.org/2000/svg"
   id="svg70"
   viewbox="0 0 119.99999999952 379.42913385675"
   height="379.42913385675"
   width="119.99999999952"
   version="1.1">
  <metadata
     id="metadata76">
    <rdf:RDF>
      <cc:Work
         rdf:about="">
        <dc:format>image/svg+xml</dc:format>
        <dc:type
           rdf:resource="http://purl.org/dc/dcmitype/StillImage" />
      </cc:Work>
    </rdf:RDF>
  </metadata>
  <defs
     id="defs74" />
  <rect
     id="rect2"
     stroke-width="1"
     fill="#fff0f0"
     stroke="#990000"
     height="380.01968503784997"
     width="120.0"
     y="0"
     x="0" />
  <g
     id="text4"
     style="font-weight:bold;font-size:12px;font-family:'Proxima Nova';text-anchor:middle;fill:#990000"
     aria-label="BOOSTER STAGE">
    <path
       id="path78"
       style="font-weight:bold;font-size:12px;font-family:'Proxima Nova';text-anchor:middle;fill:#990000"
       d="m 13.307625,26.574802 h 4.344 c 1.524,0 2.328,-0.96 2.328,-2.16 0,-1.008 -0.684,-1.836 -1.536,-1.968 0.756,-0.156 1.38,-0.828 1.38,-1.836 0,-1.068 -0.78,-2.04 -2.304,-2.04 h -4.212 z m 1.704,-4.8 v -1.74 h 2.136 c 0.576,0 0.936,0.372 0.936,0.876 0,0.504 -0.36,0.864 -0.936,0.864 z m 0,3.324 v -1.86 h 2.196 c 0.672,0 1.032,0.432 1.032,0.936 0,0.576 -0.384,0.924 -1.032,0.924 z" />
    <path
       id="path80"
       style="font-weight:bold;font-size:12px;font-family:'Proxima Nova';text-anchor:middle;fill:#990000"
       d="m 20.868937,22.578802 c 0,2.412 1.764,4.14 4.176,4.14 2.424,0 4.188,-1.728 4.188,-4.14 0,-2.412 -1.764,-4.14 -4.188,-4.14 -2.412,0 -4.176,1.728 -4.176,4.14 z m 6.612,0 c 0,1.488 -0.959999,2.628 -2.436,2.628 -1.476,0 -2.424,-1.14 -2.424,-2.628 0,-1.5 0.948,-2.628 2.424,-2.628 1.476001,0 2.436,1.128 2.436,2.628 z" />
    <path
       id="path82"
       style="font-weight:bold;font-size:12px;font-family:'Proxima Nova';text-anchor:middle;fill:#990000"
       d="m 30.056437,22.578802 c 0,2.412 1.764,4.14 4.176001,4.14 2.423999,0 4.187999,-1.728 4.187999,-4.14 0,-2.412 -1.764,-4.14 -4.187999,-4.14 -2.412001,0 -4.176001,1.728 -4.176001,4.14 z m 6.612,0 c 0,1.488 -0.959999,2.628 -2.435999,2.628 -1.476001,0 -2.424001,-1.14 -2.424001,-2.628 0,-1.5 0.948,-2.628 2.424001,-2.628 1.476,0 2.435999,1.128 2.435999,2.628 z" />
    <path
       id="path84"
       style="font-weight:bold;font-size:12px;font-family:'Proxima Nova';text-anchor:middle;fill:#990000"
       d="m 39.087938,25.446802 c 0.744,0.756 1.848,1.272 3.384,1.272 2.159999,0 3.204,-1.104 3.204,-2.568 0,-1.812 -1.680001,-2.208 -3,-2.52 -0.864001,-0.204 -1.596001,-0.372 -1.596001,-0.888 0,-0.48 0.408,-0.804 1.14,-0.804 0.816001,0 1.68,0.276 2.328001,0.876 l 0.947999,-1.248 c -0.791999,-0.732 -1.848,-1.116 -3.12,-1.116 -1.884,0 -3.036,1.104 -3.036,2.436 0,1.824 1.68,2.184 2.988,2.484 0.876001,0.216 1.620001,0.384 1.620001,0.972 0,0.456 -0.456001,0.888 -1.392001,0.888 -1.104,0 -1.979999,-0.492 -2.543999,-1.08 z" />
    <path
       id="path86"
       style="font-weight:bold;font-size:12px;font-family:'Proxima Nova';text-anchor:middle;fill:#990000"
       d="m 48.5775,26.574802 h 1.716 v -6.504 h 2.328 v -1.5 h -6.384 v 1.5 h 2.34 z" />
    <path
       id="path88"
       style="font-weight:bold;font-size:12px;font-family:'Proxima Nova';text-anchor:middle;fill:#990000"
       d="m 53.713875,26.574802 h 5.664 v -1.5 h -3.96 v -1.812 h 3.876 v -1.5 h -3.876 v -1.692 h 3.96 v -1.5 h -5.664 z" />
    <path
       id="path90"
       style="font-weight:bold;font-size:12px;font-family:'Proxima Nova';text-anchor:middle;fill:#990000"
       d="m 65.245688,26.574802 h 1.956 l -1.800001,-3.048 c 0.864,-0.204 1.752001,-0.96 1.752001,-2.376 0,-1.488 -1.02,-2.58 -2.688,-2.58 h -3.744 v 8.004 h 1.704 v -2.844 h 1.247999 z m 0.167999,-5.424 c 0,0.672 -0.515999,1.08 -1.199999,1.08 h -1.788 v -2.16 h 1.788 c 0.684,0 1.199999,0.408 1.199999,1.08 z" />
    <path
       id="path92"
       style="font-weight:bold;font-size:12px;font-family:'Proxima Nova';text-anchor:middle;fill:#990000"
       d="m 70.962937,25.446802 c 0.744,0.756 1.848,1.272 3.384,1.272 2.16,0 3.204001,-1.104 3.204001,-2.568 0,-1.812 -1.680001,-2.208 -3,-2.52 -0.864001,-0.204 -1.596001,-0.372 -1.596001,-0.888 0,-0.48 0.408,-0.804 1.14,-0.804 0.816001,0 1.68,0.276 2.328001,0.876 l 0.947999,-1.248 c -0.792,-0.732 -1.848,-1.116 -3.119999,-1.116 -1.884,0 -3.036,1.104 -3.036,2.436 0,1.824 1.679999,2.184 2.988,2.484 0.875999,0.216 1.619999,0.384 1.619999,0.972 0,0.456 -0.455999,0.888 -1.392,0.888 -1.104,0 -1.98,-0.492 -2.543999,-1.08 z" />
    <path
       id="path94"
       style="font-weight:bold;font-size:12px;font-family:'Proxima Nova';text-anchor:middle;fill:#990000"
       d="m 80.4525,26.574802 h 1.716 v -6.504 h 2.328 v -1.5 h -6.384 v 1.5 h 2.34 z" />
    <path
       id="path96"
       style="font-weight:bold;font-size:12px;font-family:'Proxima Nova';text-anchor:middle;fill:#990000"
       d="m 90.335437,26.574802 h 1.944 l -3.084,-8.004 h -2.135999 l -3.096001,8.004 h 1.944 l 0.504001,-1.356 h 3.431999 z m -2.208,-6.3 1.248001,3.444 h -2.496001 z" />
    <path
       id="path98"
       style="font-weight:bold;font-size:12px;font-family:'Proxima Nova';text-anchor:middle;fill:#990000"
       d="m 92.236125,22.578802 c 0,2.52 1.92,4.152 4.26,4.152 1.452,0 2.592,-0.6 3.408,-1.512 v -3.072 h -3.816 v 1.488 h 2.112 v 0.96 c -0.324,0.3 -0.996,0.612 -1.704,0.612 -1.452,0 -2.508,-1.116 -2.508,-2.628 0,-1.512 1.056,-2.628 2.508,-2.628 0.852,0 1.536,0.48 1.896,1.044 l 1.416,-0.768 c -0.6,-0.948 -1.644,-1.788 -3.312,-1.788 -2.34,0 -4.26,1.608 -4.26,4.14 z" />
    <path
       id="path100"
       style="font-weight:bold;font-size:12px;font-family:'Proxima Nova';text-anchor:middle;fill:#990000"
       d="m 101.26856,26.574802 h 5.664 v -1.5 h -3.96 v -1.812 h 3.876 v -1.5 h -3.876 v -1.692 h 3.96 v -1.5 h -5.664 z" />
  </g>
  <g
     id="text6"
     style="font-weight:bold;font-size:12px;font-family:'Proxima Nova';dominant-baseline:hanging;text-anchor:middle;fill:#990000"
     aria-label="DHE">
    <path
       id="path103"
       style="font-weight:bold;font-size:12px;font-family:'Proxima Nova';dominant-baseline:hanging;text-anchor:middle;fill:#990000"
       d="m 48.592781,361.02889 h 3.156 c 2.508,0 4.248,-1.584 4.248,-3.996 0,-2.412 -1.74,-4.008 -4.248,-4.008 h -3.156 z m 1.704,-1.5 v -5.004 h 1.452 c 1.644,0 2.508,1.092 2.508,2.508 0,1.356 -0.924,2.496 -2.508,2.496 z" />
    <path
       id="path105"
       style="font-weight:bold;font-size:12px;font-family:'Proxima Nova';dominant-baseline:hanging;text-anchor:middle;fill:#990000"
       d="m 62.701781,361.02889 h 1.716 v -8.004 h -1.716 v 3.144 h -3.78 v -3.144 h -1.704 v 8.004 h 1.704 v -3.36 h 3.78 z" />
    <path
       id="path107"
       style="font-weight:bold;font-size:12px;font-family:'Proxima Nova';dominant-baseline:hanging;text-anchor:middle;fill:#990000"
       d="m 65.983406,361.02889 h 5.664 v -1.5 h -3.96 v -1.812 h 3.876 v -1.5 h -3.876 v -1.692 h 3.96 v -1.5 h -5.664 z" />
  </g>
  <line
     id="line8"
     stroke-width="1.033464566925"
     stroke="#990000"
     y2="73.8188976375"
     x2="99.01574901535196"
     y1="73.8188976375"
     x1="20.984250984168032" />
  <rect
     id="rect10"
     fill="none"
     stroke="none"
     ry="3.0"
     rx="3.0"
     stroke-width="1.033464566925"
     height="39.36154855624501"
     width="31.742125984125003"
     y="50.328412073317494"
     x="5.113187992105531" />
  <g
     id="text12"
     style="font-weight:bold;font-size:7px;font-family:'Proxima Nova';text-anchor:middle;fill:#990000"
     aria-label="CV">
    <path
       id="path110"
       style="font-weight:bold;font-size:7px;font-family:'Proxima Nova';text-anchor:middle;fill:#990000"
       d="m 18.922095,58.548565 c 1.029,0 1.617,-0.567 1.953,-1.148 l -0.854,-0.413 c -0.196,0.385 -0.616,0.679 -1.099,0.679 -0.847,0 -1.463,-0.651 -1.463,-1.533 0,-0.882 0.616,-1.533 1.463,-1.533 0.483,0 0.903,0.301 1.099,0.679 l 0.854,-0.42 c -0.329,-0.581 -0.924,-1.141 -1.953,-1.141 -1.4,0 -2.485,0.98 -2.485,2.415 0,1.435 1.085,2.415 2.485,2.415 z" />
    <path
       id="path112"
       style="font-weight:bold;font-size:7px;font-family:'Proxima Nova';text-anchor:middle;fill:#990000"
       d="m 22.755251,58.464565 h 1.246 l 1.799,-4.669 h -1.134 l -1.288,3.591 -1.295,-3.591 h -1.134 z" />
  </g>
  <g
     id="text14"
     style="font-weight:bold;font-size:9px;font-family:'Proxima Nova';text-anchor:middle;fill:#990000"
     aria-label="LEVEL">
    <path
       id="path115"
       style="font-weight:bold;font-size:9px;font-family:'Proxima Nova';text-anchor:middle;fill:#990000"
       d="m 47.551031,51.673229 h 3.816 v -1.125 h -2.538 v -4.878 h -1.278 z" />
    <path
       id="path117"
       style="font-weight:bold;font-size:9px;font-family:'Proxima Nova';text-anchor:middle;fill:#990000"
       d="m 52.261969,51.673229 h 4.248 v -1.125 h -2.97 v -1.359 h 2.907 v -1.125 h -2.907 v -1.269 h 2.97 v -1.125 h -4.248 z" />
    <path
       id="path119"
       style="font-weight:bold;font-size:9px;font-family:'Proxima Nova';text-anchor:middle;fill:#990000"
       d="m 59.200828,51.673229 h 1.602 l 2.313,-6.003 h -1.458 l -1.656,4.617 -1.665,-4.617 h -1.458 z" />
    <path
       id="path121"
       style="font-weight:bold;font-size:9px;font-family:'Proxima Nova';text-anchor:middle;fill:#990000"
       d="m 63.670172,51.673229 h 4.248 v -1.125 h -2.97 v -1.359 h 2.907 v -1.125 h -2.907 v -1.269 h 2.97 v -1.125 h -4.248 z" />
    <path
       id="path123"
       style="font-weight:bold;font-size:9px;font-family:'Proxima Nova';text-anchor:middle;fill:#990000"
       d="m 68.926031,51.673229 h 3.816 v -1.125 h -2.538 v -4.878 h -1.278 z" />
  </g>
  <g
     id="text16"
     style="font-weight:bold;font-size:7px;font-family:'Proxima Nova';text-anchor:middle;fill:#990000"
     aria-label="UNI">
    <path
       id="path126"
       style="font-weight:bold;font-size:7px;font-family:'Proxima Nova';text-anchor:middle;fill:#990000"
       d="m 93.407435,59.629142 c 0,1.148 0.686,1.946 2.107,1.946 1.421,0 2.107,-0.791 2.107,-1.953 v -2.8 h -1.015 v 2.772 c 0,0.651 -0.371,1.099 -1.092,1.099 -0.721,0 -1.099,-0.448 -1.099,-1.099 v -2.772 h -1.008 z" />
    <path
       id="path128"
       style="font-weight:bold;font-size:7px;font-family:'Proxima Nova';text-anchor:middle;fill:#990000"
       d="m 101.75439,61.491142 h 0.959 v -4.669 h -0.994 v 2.933 l -2.163002,-2.933 h -1.022 v 4.669 h 0.994 v -3.045 z" />
    <path
       id="path130"
       style="font-weight:bold;font-size:7px;font-family:'Proxima Nova';text-anchor:middle;fill:#990000"
       d="m 103.634,61.491142 h 0.994 v -4.669 h -0.994 z" />
  </g>
  <g
     id="text18"
     style="font-weight:bold;font-size:7px;font-family:'Proxima Nova';dominant-baseline:hanging;text-anchor:middle;fill:#990000"
     aria-label="BI">
    <path
       id="path133"
       style="font-weight:bold;font-size:7px;font-family:'Proxima Nova';dominant-baseline:hanging;text-anchor:middle;fill:#990000"
       d="m 96.203333,90.570652 h 2.534 c 0.889,0 1.357997,-0.56 1.357997,-1.26 0,-0.588 -0.398997,-1.071 -0.895997,-1.148 0.441,-0.091 0.804997,-0.483 0.804997,-1.071 0,-0.623 -0.454997,-1.19 -1.343997,-1.19 h -2.457 z m 0.994,-2.8 v -1.015 h 1.246 c 0.336,0 0.546,0.217 0.546,0.511 0,0.294 -0.21,0.504 -0.546,0.504 z m 0,1.939 v -1.085 h 1.281 c 0.392,0 0.602,0.252 0.602,0.546 0,0.336 -0.224,0.539 -0.602,0.539 z" />
    <path
       id="path135"
       style="font-weight:bold;font-size:7px;font-family:'Proxima Nova';dominant-baseline:hanging;text-anchor:middle;fill:#990000"
       d="m 100.8381,90.570652 h 0.994 v -4.669 h -0.994 z" />
  </g>
  <line
     id="line20"
     stroke-width="1.033464566925"
     stroke="#990000"
     y2="128.44488188925"
     x2="99.01574901535196"
     y1="128.44488188925"
     x1="20.984250984168032" />
  <rect
     id="rect22"
     fill="none"
     stroke="none"
     ry="3.0"
     rx="3.0"
     stroke-width="1.033464566925"
     height="39.361548556245"
     width="31.742125984125003"
     y="104.9543963250675"
     x="5.113187992105531" />
  <g
     id="text24"
     style="font-weight:bold;font-size:7px;font-family:'Proxima Nova';text-anchor:middle;fill:#990000"
     aria-label="CV">
    <path
       id="path138"
       style="font-weight:bold;font-size:7px;font-family:'Proxima Nova';text-anchor:middle;fill:#990000"
       d="m 18.922095,113.17455 c 1.029,0 1.617,-0.567 1.953,-1.148 l -0.854,-0.413 c -0.196,0.385 -0.616,0.679 -1.099,0.679 -0.847,0 -1.463,-0.651 -1.463,-1.533 0,-0.882 0.616,-1.533 1.463,-1.533 0.483,0 0.903,0.301 1.099,0.679 l 0.854,-0.42 c -0.329,-0.581 -0.924,-1.141 -1.953,-1.141 -1.4,0 -2.485,0.98 -2.485,2.415 0,1.435 1.085,2.415 2.485,2.415 z" />
    <path
       id="path140"
       style="font-weight:bold;font-size:7px;font-family:'Proxima Nova';text-anchor:middle;fill:#990000"
       d="m 22.755251,113.09055 h 1.246 l 1.799,-4.669 h -1.134 l -1.288,3.591 -1.295,-3.591 h -1.134 z" />
  </g>
  <g
     id="text26"
     style="font-weight:bold;font-size:9px;font-family:'Proxima Nova';text-anchor:middle;fill:#990000"
     aria-label="CURVE">
    <path
       id="path143"
       style="font-weight:bold;font-size:9px;font-family:'Proxima Nova';text-anchor:middle;fill:#990000"
       d="m 48.559594,106.40721 c 1.323,0 2.079,-0.729 2.511,-1.476 l -1.098,-0.531 c -0.252,0.495 -0.792,0.873 -1.413,0.873 -1.089,0 -1.881,-0.837 -1.881,-1.971 0,-1.134 0.792,-1.971 1.881,-1.971 0.621,0 1.161,0.387 1.413,0.873 l 1.098,-0.54 c -0.423,-0.747 -1.188,-1.467 -2.511,-1.467 -1.8,0 -3.195,1.26 -3.195,3.105 0,1.845 1.395,3.105 3.195,3.105 z" />
    <path
       id="path145"
       style="font-weight:bold;font-size:9px;font-family:'Proxima Nova';text-anchor:middle;fill:#990000"
       d="m 51.840094,103.90521 c 0,1.476 0.882,2.502 2.709,2.502 1.827,0 2.709,-1.017 2.709,-2.511 v -3.6 h -1.305 v 3.564 c 0,0.837 -0.477,1.413 -1.404,1.413 -0.927,0 -1.413,-0.576 -1.413,-1.413 v -3.564 h -1.296 z" />
    <path
       id="path147"
       style="font-weight:bold;font-size:9px;font-family:'Proxima Nova';text-anchor:middle;fill:#990000"
       d="m 61.824891,106.29921 h 1.467 l -1.35,-2.286 c 0.648,-0.153 1.314,-0.72 1.314,-1.782 0,-1.116 -0.765,-1.935 -2.016,-1.935 h -2.808 v 6.003 h 1.278 v -2.133 h 0.936 z m 0.126,-4.068 c 0,0.504 -0.387,0.81 -0.9,0.81 h -1.341 v -1.62 h 1.341 c 0.513,0 0.9,0.306 0.9,0.81 z" />
    <path
       id="path149"
       style="font-weight:bold;font-size:9px;font-family:'Proxima Nova';text-anchor:middle;fill:#990000"
       d="m 65.810203,106.29921 h 1.602 l 2.313,-6.003 h -1.458 l -1.656,4.617 -1.665,-4.617 h -1.458 z" />
    <path
       id="path151"
       style="font-weight:bold;font-size:9px;font-family:'Proxima Nova';text-anchor:middle;fill:#990000"
       d="m 70.279547,106.29921 h 4.248 v -1.125 h -2.97 v -1.359 h 2.907 v -1.125 h -2.907 v -1.269 h 2.97 v -1.125 h -4.248 z" />
  </g>
  <g
     id="text28"
     style="font-weight:bold;font-size:7px;font-family:'Proxima Nova';text-anchor:middle;fill:#990000"
     aria-label="S">
    <path
       id="path154"
       style="font-weight:bold;font-size:7px;font-family:'Proxima Nova';text-anchor:middle;fill:#990000"
       d="m 97.064114,115.45913 c 0.434,0.441 1.078,0.742 1.974,0.742 1.259996,0 1.868996,-0.644 1.868996,-1.498 0,-1.057 -0.979996,-1.288 -1.749996,-1.47 -0.504,-0.119 -0.931,-0.217 -0.931,-0.518 0,-0.28 0.238,-0.469 0.665,-0.469 0.476,0 0.98,0.161 1.357996,0.511 l 0.553,-0.728 c -0.462,-0.427 -1.077996,-0.651 -1.819996,-0.651 -1.099,0 -1.771,0.644 -1.771,1.421 0,1.064 0.98,1.274 1.743,1.449 0.511,0.126 0.945,0.224 0.945,0.567 0,0.266 -0.266,0.518 -0.812,0.518 -0.644,0 -1.155,-0.287 -1.484,-0.63 z" />
  </g>
  <g
     id="text30"
     style="font-weight:bold;font-size:7px;font-family:'Proxima Nova';dominant-baseline:hanging;text-anchor:middle;fill:#990000"
     aria-label="J">
    <path
       id="path157"
       style="font-weight:bold;font-size:7px;font-family:'Proxima Nova';dominant-baseline:hanging;text-anchor:middle;fill:#990000"
       d="m 97.355599,144.82564 c 0.336,0.329 0.784,0.455 1.253,0.455 0.959,0 1.645001,-0.511 1.645001,-1.617 v -3.136 h -0.994001 v 3.122 c 0,0.455 -0.287,0.749 -0.728,0.749 -0.322,0 -0.56,-0.161 -0.742,-0.336 z" />
  </g>
  <line
     id="line32"
     stroke-width="1.033464566925"
     stroke="#990000"
     y2="183.070866141"
     x2="99.01574901535196"
     y1="183.070866141"
     x1="20.984250984168032" />
  <rect
     id="rect34"
     fill="none"
     stroke="none"
     ry="3.0"
     rx="3.0"
     stroke-width="1.033464566925"
     height="39.36154855624497"
     width="31.742125984125003"
     y="159.58038057681753"
     x="5.113187992105531" />
  <g
     id="text36"
     style="font-weight:bold;font-size:7px;font-family:'Proxima Nova';text-anchor:middle;fill:#990000"
     aria-label="CV">
    <path
       id="path160"
       style="font-weight:bold;font-size:7px;font-family:'Proxima Nova';text-anchor:middle;fill:#990000"
       d="m 18.922095,167.80054 c 1.029,0 1.617,-0.567 1.953,-1.148 l -0.854,-0.413 c -0.196,0.385 -0.616,0.679 -1.099,0.679 -0.847,0 -1.463,-0.651 -1.463,-1.533 0,-0.882 0.616,-1.533 1.463,-1.533 0.483,0 0.903,0.301 1.099,0.679 l 0.854,-0.42 c -0.329,-0.581 -0.924,-1.141 -1.953,-1.141 -1.4,0 -2.485,0.98 -2.485,2.415 0,1.435 1.085,2.415 2.485,2.415 z" />
    <path
       id="path162"
       style="font-weight:bold;font-size:7px;font-family:'Proxima Nova';text-anchor:middle;fill:#990000"
       d="m 22.755251,167.71654 h 1.246 l 1.799,-4.669 h -1.134 l -1.288,3.591 -1.295,-3.591 h -1.134 z" />
  </g>
  <g
     id="text38"
     style="font-weight:bold;font-size:9px;font-family:'Proxima Nova';text-anchor:middle;fill:#990000"
     aria-label="DURATION">
    <path
       id="path165"
       style="font-weight:bold;font-size:9px;font-family:'Proxima Nova';text-anchor:middle;fill:#990000"
       d="m 37.81275,160.9252 h 2.367 c 1.881,0 3.186,-1.188 3.186,-2.997 0,-1.809 -1.305,-3.006 -3.186,-3.006 h -2.367 z m 1.278,-1.125 v -3.753 h 1.089 c 1.233,0 1.881,0.819 1.881,1.881 0,1.017 -0.693,1.872 -1.881,1.872 z" />
    <path
       id="path167"
       style="font-weight:bold;font-size:9px;font-family:'Proxima Nova';text-anchor:middle;fill:#990000"
       d="m 44.2815,158.5312 c 0,1.476 0.882,2.502 2.709,2.502 1.827,0 2.709,-1.017 2.709,-2.511 v -3.6 h -1.305 v 3.564 c 0,0.837 -0.477,1.413 -1.404,1.413 -0.927,0 -1.413,-0.576 -1.413,-1.413 v -3.564 h -1.296 z" />
    <path
       id="path169"
       style="font-weight:bold;font-size:9px;font-family:'Proxima Nova';text-anchor:middle;fill:#990000"
       d="m 54.266297,160.9252 h 1.467 l -1.35,-2.286 c 0.648,-0.153 1.314,-0.72 1.314,-1.782 0,-1.116 -0.765,-1.935 -2.016,-1.935 h -2.808 v 6.003 h 1.278 v -2.133 h 0.936 z m 0.126,-4.068 c 0,0.504 -0.387,0.81 -0.9,0.81 h -1.341 v -1.62 h 1.341 c 0.513,0 0.9,0.306 0.9,0.81 z" />
    <path
       id="path171"
       style="font-weight:bold;font-size:9px;font-family:'Proxima Nova';text-anchor:middle;fill:#990000"
       d="m 60.7965,160.9252 h 1.458 l -2.313,-6.003 h -1.602 l -2.322,6.003 h 1.458 l 0.378,-1.017 h 2.574 z m -1.656,-4.725 0.936,2.583 h -1.872 z" />
    <path
       id="path173"
       style="font-weight:bold;font-size:9px;font-family:'Proxima Nova';text-anchor:middle;fill:#990000"
       d="m 63.614766,160.9252 h 1.287 v -4.878 h 1.746 v -1.125 h -4.788 v 1.125 h 1.755 z" />
    <path
       id="path175"
       style="font-weight:bold;font-size:9px;font-family:'Proxima Nova';text-anchor:middle;fill:#990000"
       d="m 67.467047,160.9252 h 1.278 v -6.003 h -1.278 z" />
    <path
       id="path177"
       style="font-weight:bold;font-size:9px;font-family:'Proxima Nova';text-anchor:middle;fill:#990000"
       d="m 69.639984,157.9282 c 0,1.809 1.323,3.105 3.132,3.105 1.818,0 3.141,-1.296 3.141,-3.105 0,-1.809 -1.323,-3.105 -3.141,-3.105 -1.809,0 -3.132,1.296 -3.132,3.105 z m 4.959,0 c 0,1.116 -0.72,1.971 -1.827,1.971 -1.107,0 -1.818,-0.855 -1.818,-1.971 0,-1.125 0.711,-1.971 1.818,-1.971 1.107,0 1.827,0.846 1.827,1.971 z" />
    <path
       id="path179"
       style="font-weight:bold;font-size:9px;font-family:'Proxima Nova';text-anchor:middle;fill:#990000"
       d="m 80.958609,160.9252 h 1.233 v -6.003 h -1.278 v 3.771 l -2.781,-3.771 h -1.314 v 6.003 h 1.278 v -3.915 z" />
  </g>
  <g
     id="text40"
     style="font-weight:bold;font-size:7px;font-family:'Proxima Nova';text-anchor:middle;fill:#990000"
     aria-label="100">
    <path
       id="path182"
       style="font-weight:bold;font-size:7px;font-family:'Proxima Nova';text-anchor:middle;fill:#990000"
       d="m 94.667216,166.31398 h 0.994 v -4.669 h -0.868 l -1.47,1.477 0.567,0.595 0.777,-0.791 z" />
    <path
       id="path184"
       style="font-weight:bold;font-size:7px;font-family:'Proxima Nova';text-anchor:middle;fill:#990000"
       d="m 96.35531,163.98298 c 0,1.204 0.595,2.415 1.932,2.415 1.33,0 1.932,-1.211 1.932,-2.415 0,-1.204 -0.602,-2.408 -1.932,-2.408 -1.337,0 -1.932,1.204 -1.932,2.408 z m 2.849,0 c 0,0.861 -0.252,1.533 -0.917,1.533 -0.672,0 -0.924,-0.672 -0.924,-1.533 0,-0.861 0.252,-1.526 0.924,-1.526 0.665,0 0.917,0.665 0.917,1.526 z" />
    <path
       id="path186"
       style="font-weight:bold;font-size:7px;font-family:'Proxima Nova';text-anchor:middle;fill:#990000"
       d="m 100.68929,163.98298 c 0,1.204 0.595,2.415 1.932,2.415 1.33,0 1.932,-1.211 1.932,-2.415 0,-1.204 -0.602,-2.408 -1.932,-2.408 -1.337,0 -1.932,1.204 -1.932,2.408 z m 2.849,0 c 0,0.861 -0.252,1.533 -0.917,1.533 -0.672,0 -0.924,-0.672 -0.924,-1.533 0,-0.861 0.252,-1.526 0.924,-1.526 0.665,0 0.917,0.665 0.917,1.526 z" />
  </g>
  <g
     id="text42"
     style="font-weight:bold;font-size:7px;font-family:'Proxima Nova';dominant-baseline:hanging;text-anchor:middle;fill:#990000"
     aria-label="1">
    <path
       id="path189"
       style="font-weight:bold;font-size:7px;font-family:'Proxima Nova';dominant-baseline:hanging;text-anchor:middle;fill:#990000"
       d="m 99.0012,204.25176 h 0.994 v -4.669 h -0.868 l -1.47,1.477 0.567,0.595 0.777,-0.791 z" />
  </g>
  <g
     id="text44"
     style="font-weight:bold;font-size:7px;font-family:'Proxima Nova';dominant-baseline:middle;text-anchor:start;fill:#990000"
     aria-label="10">
    <path
       id="path192"
       style="font-weight:bold;font-size:7px;font-family:'Proxima Nova';dominant-baseline:middle;text-anchor:start;fill:#990000"
       d="m 106.859,184.76136 h 0.994 v -4.669 h -0.868 l -1.47,1.477 0.567,0.595 0.777,-0.791 z" />
    <path
       id="path194"
       style="font-weight:bold;font-size:7px;font-family:'Proxima Nova';dominant-baseline:middle;text-anchor:start;fill:#990000"
       d="m 108.5471,182.43036 c 0,1.204 0.595,2.415 1.932,2.415 1.33,0 1.932,-1.211 1.932,-2.415 0,-1.204 -0.602,-2.408 -1.932,-2.408 -1.337,0 -1.932,1.204 -1.932,2.408 z m 2.849,0 c 0,0.861 -0.252,1.533 -0.917,1.533 -0.672,0 -0.924,-0.672 -0.924,-1.533 0,-0.861 0.252,-1.526 0.924,-1.526 0.665,0 0.917,0.665 0.917,1.526 z" />
  </g>
  <rect
     id="rect46"
     fill="#fff0f0"
     stroke="#990000"
     ry="3.0"
     rx="3.0"
     stroke-width="1.033464566925"
     height="39.361548556245"
     width="52.411417322625006"
     y="218.63549868681753"
     x="5.113187992105531" />
  <g
     id="text48"
     style="font-weight:bold;font-size:7px;font-family:'Proxima Nova';text-anchor:middle;fill:#990000"
     aria-label="DEFER">
    <path
       id="path197"
       style="font-weight:bold;font-size:7px;font-family:'Proxima Nova';text-anchor:middle;fill:#990000"
       d="m 10.597618,226.77165 h 1.841 c 1.463,0 2.478,-0.924 2.478,-2.331 0,-1.407 -1.015,-2.338 -2.478,-2.338 h -1.841 z m 0.994,-0.875 v -2.919 h 0.847 c 0.959,0 1.463,0.637 1.463,1.463 0,0.791 -0.539,1.456 -1.463,1.456 z" />
    <path
       id="path199"
       style="font-weight:bold;font-size:7px;font-family:'Proxima Nova';text-anchor:middle;fill:#990000"
       d="m 15.628868,226.77165 h 3.304 v -0.875 h -2.31 v -1.057 h 2.261 v -0.875 h -2.261 v -0.987 h 2.31 v -0.875 h -3.304 z" />
    <path
       id="path201"
       style="font-weight:bold;font-size:7px;font-family:'Proxima Nova';text-anchor:middle;fill:#990000"
       d="m 19.716759,226.77165 h 0.994 v -1.932 h 2.261 v -0.875 h -2.261 v -0.987 h 2.31 v -0.875 h -3.304 z" />
    <path
       id="path203"
       style="font-weight:bold;font-size:7px;font-family:'Proxima Nova';text-anchor:middle;fill:#990000"
       d="m 23.708946,226.77165 h 3.304 v -0.875 h -2.31 v -1.057 h 2.261 v -0.875 h -2.261 v -0.987 h 2.31 v -0.875 h -3.304 z" />
    <path
       id="path205"
       style="font-weight:bold;font-size:7px;font-family:'Proxima Nova';text-anchor:middle;fill:#990000"
       d="m 30.435837,226.77165 h 1.141 l -1.05,-1.778 c 0.504,-0.119 1.022,-0.56 1.022,-1.386 0,-0.868 -0.595,-1.505 -1.568,-1.505 h -2.184 v 4.669 h 0.994 v -1.659 h 0.728 z m 0.098,-3.164 c 0,0.392 -0.301,0.63 -0.7,0.63 h -1.043 v -1.26 h 1.043 c 0.399,0 0.7,0.238 0.7,0.63 z" />
  </g>
  <rect
     id="rect50"
     fill="#990000"
     stroke="#990000"
     ry="3.0"
     rx="3.0"
     stroke-width="1.033464566925"
     height="39.361548556245"
     width="52.41141732262501"
     y="218.63549868681753"
     x="62.47539468478945" />
  <g
     id="text52"
     style="font-weight:bold;font-size:7px;font-family:'Proxima Nova';text-anchor:middle;fill:#fff0f0"
     aria-label="ACTIVE">
    <path
       id="path208"
       style="font-weight:bold;font-size:7px;font-family:'Proxima Nova';text-anchor:middle;fill:#fff0f0"
       d="m 90.584466,226.77165 h 1.134 l -1.799,-4.669 h -1.246 l -1.806,4.669 h 1.134 l 0.294,-0.791 h 2.002 z m -1.288,-3.675 0.728,2.009 h -1.456 z" />
    <path
       id="path210"
       style="font-weight:bold;font-size:7px;font-family:'Proxima Nova';text-anchor:middle;fill:#fff0f0"
       d="m 94.1782,226.85565 c 1.029,0 1.617,-0.567 1.953,-1.148 l -0.854,-0.413 c -0.196,0.385 -0.616,0.679 -1.099,0.679 -0.847,0 -1.463,-0.651 -1.463,-1.533 0,-0.882 0.616,-1.533 1.463,-1.533 0.483,0 0.903,0.301 1.099,0.679 l 0.854,-0.42 c -0.329,-0.581 -0.924,-1.141 -1.953,-1.141 -1.4,0 -2.485,0.98 -2.485,2.415 0,1.435 1.085,2.415 2.485,2.415 z" />
    <path
       id="path212"
       style="font-weight:bold;font-size:7px;font-family:'Proxima Nova';text-anchor:middle;fill:#fff0f0"
       d="m 97.8077,226.77165 h 1.001 v -3.794 h 1.358 v -0.875 h -3.724 v 0.875 h 1.365 z" />
    <path
       id="path214"
       style="font-weight:bold;font-size:7px;font-family:'Proxima Nova';text-anchor:middle;fill:#fff0f0"
       d="m 100.80392,226.77165 h 0.994 v -4.669 h -0.994 z" />
    <path
       id="path216"
       style="font-weight:bold;font-size:7px;font-family:'Proxima Nova';text-anchor:middle;fill:#fff0f0"
       d="m 104.02698,226.77165 h 1.246 l 1.799,-4.669 h -1.134 l -1.288,3.591 -1.295,-3.591 h -1.134 z" />
    <path
       id="path218"
       style="font-weight:bold;font-size:7px;font-family:'Proxima Nova';text-anchor:middle;fill:#fff0f0"
       d="m 107.50314,226.77165 h 3.304 v -0.875 h -2.31 v -1.057 h 2.261 v -0.875 h -2.261 v -0.987 h 2.31 v -0.875 h -3.304 z" />
  </g>
  <rect
     id="rect54"
     fill="#fff0f0"
     stroke="#990000"
     ry="3.0"
     rx="3.0"
     stroke-width="1.033464566925"
     height="39.361548556245"
     width="52.411417322625006"
     y="262.9268372693175"
     x="5.113187992105531" />
  <g
     id="text56"
     style="font-weight:bold;font-size:7px;font-family:'Proxima Nova';text-anchor:middle;fill:#990000"
     aria-label="TRIC">
    <path
       id="path221"
       style="font-weight:bold;font-size:7px;font-family:'Proxima Nova';text-anchor:middle;fill:#990000"
       d="m 14.874837,271.06299 h 1.001 v -3.794 h 1.358 v -0.875 h -3.724 v 0.875 h 1.365 z" />
    <path
       id="path223"
       style="font-weight:bold;font-size:7px;font-family:'Proxima Nova';text-anchor:middle;fill:#990000"
       d="m 20.510056,271.06299 h 1.141 l -1.05,-1.778 c 0.504,-0.119 1.022,-0.56 1.022,-1.386 0,-0.868 -0.595,-1.505 -1.568,-1.505 h -2.184 v 4.669 h 0.994 v -1.659 h 0.728 z m 0.098,-3.164 c 0,0.392 -0.301,0.63 -0.7,0.63 h -1.043 v -1.26 h 1.043 c 0.399,0 0.7,0.238 0.7,0.63 z" />
    <path
       id="path225"
       style="font-weight:bold;font-size:7px;font-family:'Proxima Nova';text-anchor:middle;fill:#990000"
       d="m 22.369103,271.06299 h 0.994 v -4.669 h -0.994 z" />
    <path
       id="path227"
       style="font-weight:bold;font-size:7px;font-family:'Proxima Nova';text-anchor:middle;fill:#990000"
       d="m 26.544165,271.14699 c 1.029,0 1.617,-0.567 1.953,-1.148 l -0.854,-0.413 c -0.196,0.385 -0.616,0.679 -1.099,0.679 -0.847,0 -1.463,-0.651 -1.463,-1.533 0,-0.882 0.616,-1.533 1.463,-1.533 0.483,0 0.903,0.301 1.099,0.679 l 0.854,-0.42 c -0.329,-0.581 -0.924,-1.141 -1.953,-1.141 -1.4,0 -2.485,0.98 -2.485,2.415 0,1.435 1.085,2.415 2.485,2.415 z" />
  </g>
  <rect
     id="rect58"
     fill="#990000"
     stroke="#990000"
     ry="3.0"
     rx="3.0"
     stroke-width="1.033464566925"
     height="39.361548556245"
     width="52.41141732262501"
     y="262.9268372693175"
     x="62.47539468478945" />
  <g
     id="text60"
     style="font-weight:bold;font-size:7px;font-family:'Proxima Nova';text-anchor:middle;fill:#fff0f0"
     aria-label="EOC">
    <path
       id="path230"
       style="font-weight:bold;font-size:7px;font-family:'Proxima Nova';text-anchor:middle;fill:#fff0f0"
       d="m 92.347864,271.06299 h 3.304 v -0.875 h -2.31 v -1.057 h 2.261 v -0.875 h -2.261 v -0.987 h 2.31 v -0.875 h -3.304 z" />
    <path
       id="path232"
       style="font-weight:bold;font-size:7px;font-family:'Proxima Nova';text-anchor:middle;fill:#fff0f0"
       d="m 96.211755,268.73199 c 0,1.407 1.029,2.415 2.436,2.415 1.413995,0 2.442995,-1.008 2.442995,-2.415 0,-1.407 -1.029,-2.415 -2.442995,-2.415 -1.407,0 -2.436,1.008 -2.436,2.415 z m 3.856995,0 c 0,0.868 -0.559995,1.533 -1.420995,1.533 -0.861,0 -1.414,-0.665 -1.414,-1.533 0,-0.875 0.553,-1.533 1.414,-1.533 0.861,0 1.420995,0.658 1.420995,1.533 z" />
    <path
       id="path234"
       style="font-weight:bold;font-size:7px;font-family:'Proxima Nova';text-anchor:middle;fill:#fff0f0"
       d="m 104.05613,271.14699 c 1.029,0 1.617,-0.567 1.953,-1.148 l -0.854,-0.413 c -0.196,0.385 -0.616,0.679 -1.099,0.679 -0.847,0 -1.463,-0.651 -1.463,-1.533 0,-0.882 0.616,-1.533 1.463,-1.533 0.483,0 0.903,0.301 1.099,0.679 l 0.854,-0.42 c -0.329,-0.581 -0.924,-1.141 -1.953,-1.141 -1.4,0 -2.485,0.98 -2.485,2.415 0,1.435 1.085,2.415 2.485,2.415 z" />
  </g>
  <rect
     id="rect62"
     fill="#fff0f0"
     stroke="#990000"
     ry="3.0"
     rx="3.0"
     stroke-width="1.033464566925"
     height="39.361548556245"
     width="31.742125984125003"
     y="307.21817585181753"
     x="5.113187992105531" />
  <g
     id="text64"
     style="font-weight:bold;font-size:7px;font-family:'Proxima Nova';text-anchor:middle;fill:#990000"
     aria-label="IN">
    <path
       id="path237"
       style="font-weight:bold;font-size:7px;font-family:'Proxima Nova';text-anchor:middle;fill:#990000"
       d="m 17.939415,315.35434 h 0.994 v -4.669 h -0.994 z" />
    <path
       id="path239"
       style="font-weight:bold;font-size:7px;font-family:'Proxima Nova';text-anchor:middle;fill:#990000"
       d="m 23.073478,315.35434 h 0.959 v -4.669 h -0.994 v 2.933 l -2.163,-2.933 h -1.022 v 4.669 h 0.994 v -3.045 z" />
  </g>
  <rect
     id="rect66"
     fill="#990000"
     stroke="#990000"
     ry="3.0"
     rx="3.0"
     stroke-width="1.033464566925"
     height="39.361548556245"
     width="31.74212598412501"
     y="307.21817585181753"
     x="83.14468602328945" />
  <g
     id="text68"
     style="font-weight:bold;font-size:7px;font-family:'Proxima Nova';text-anchor:middle;fill:#fff0f0"
     aria-label="OUT">
    <path
       id="path242"
       style="font-weight:bold;font-size:7px;font-family:'Proxima Nova';text-anchor:middle;fill:#fff0f0"
       d="m 91.973474,313.02334 c 0,1.407 1.029,2.415 2.436,2.415 1.414,0 2.443,-1.008 2.443,-2.415 0,-1.407 -1.029,-2.415 -2.443,-2.415 -1.407,0 -2.436,1.008 -2.436,2.415 z m 3.857,0 c 0,0.868 -0.56,1.533 -1.421,1.533 -0.861,0 -1.414,-0.665 -1.414,-1.533 0,-0.875 0.553,-1.533 1.414,-1.533 0.861,0 1.421,0.658 1.421,1.533 z" />
    <path
       id="path244"
       style="font-weight:bold;font-size:7px;font-family:'Proxima Nova';text-anchor:middle;fill:#fff0f0"
       d="m 97.556849,313.49234 c 0,1.148 0.686,1.946 2.107,1.946 1.421001,0 2.107001,-0.791 2.107001,-1.953 v -2.8 h -1.015 v 2.772 c 0,0.651 -0.371,1.099 -1.092001,1.099 -0.721,0 -1.099,-0.448 -1.099,-1.099 v -2.772 h -1.008 z" />
    <path
       id="path246"
       style="font-weight:bold;font-size:7px;font-family:'Proxima Nova';text-anchor:middle;fill:#fff0f0"
       d="m 103.7618,315.35434 h 1.001 v -3.794 h 1.358 v -0.875 h -3.724 v 0.875 h 1.365 z" />
  </g>
</svg>
