<?xml version="1.0" encoding="UTF-8" standalone="no"?>
<!-- Created with Inkscape (http://www.inkscape.org/) -->

<svg
   xmlns:dc="http://purl.org/dc/elements/1.1/"
   xmlns:cc="http://creativecommons.org/ns#"
   xmlns:rdf="http://www.w3.org/1999/02/22-rdf-syntax-ns#"
   xmlns:svg="http://www.w3.org/2000/svg"
   xmlns="http://www.w3.org/2000/svg"
   xmlns:sodipodi="http://sodipodi.sourceforge.net/DTD/sodipodi-0.dtd"
   xmlns:inkscape="http://www.inkscape.org/namespaces/inkscape"
   width="380"
   height="380"
   viewBox="0 0 100.54167 100.54167"
   version="1.1"
   id="svg8"
   inkscape:version="0.92.2 (5c3e80d, 2017-08-06)"
   sodipodi:docname="LuciControlINFfinesvg.svg">
  <defs
     id="defs2" />
  <sodipodi:namedview
     id="base"
     pagecolor="#ffffff"
     bordercolor="#666666"
     borderopacity="1.0"
     inkscape:pageopacity="0.0"
     inkscape:pageshadow="2"
     inkscape:zoom="1.51"
     inkscape:cx="21.265009"
     inkscape:cy="202.39087"
     inkscape:document-units="mm"
     inkscape:current-layer="layer1"
     showgrid="false"
     inkscape:window-width="1712"
     inkscape:window-height="980"
     inkscape:window-x="130"
     inkscape:window-y="61"
     inkscape:window-maximized="0"
     units="px" />
  <metadata
     id="metadata5">
    <rdf:RDF>
      <cc:Work
         rdf:about="">
        <dc:format>image/svg+xml</dc:format>
        <dc:type
           rdf:resource="http://purl.org/dc/dcmitype/StillImage" />
        <dc:title></dc:title>
      </cc:Work>
    </rdf:RDF>
  </metadata>
  <g
     inkscape:label="Capa 1"
     inkscape:groupmode="layer"
     id="layer1"
     transform="translate(0,-196.45833)">
    <path
       style="fill:#000023;fill-opacity:1;stroke-width:0.06989738"
       d="M 0.22678578,196.50872 H 100.49127 V 296.94956 H 0.22678578 Z"
       id="rect815"
       inkscape:connector-curvature="0" />
    <g
       aria-label="Influence"
       style="font-style:normal;font-weight:normal;font-size:10.58333302px;line-height:1.25;font-family:sans-serif;letter-spacing:0px;word-spacing:0px;fill:#000000;fill-opacity:1;stroke:none;stroke-width:0.26458332"
       id="text3647">
      <path
         d="m 25.452365,206.58609 h -4.806597 v -1.45521 h 1.344966 v -5.29718 h -1.344966 v -1.45521 h 4.806597 v 1.45521 H 24.1074 v 5.29718 h 1.344965 z"
         style="font-style:normal;font-variant:normal;font-weight:bold;font-stretch:normal;font-size:11.28888893px;font-family:sans-serif;-inkscape-font-specification:'sans-serif, Bold';font-variant-ligatures:normal;font-variant-caps:normal;font-variant-numeric:normal;font-feature-settings:normal;text-align:start;writing-mode:lr-tb;text-anchor:start;fill:#00ffff;fill-opacity:1;stroke-width:0.26458332"
         id="path3649" />
      <path
         d="M 33.296159,206.58609 H 31.30076 v -3.07027 q 0,-0.37483 -0.03859,-0.74414 -0.03859,-0.37483 -0.132292,-0.55121 -0.110243,-0.20395 -0.325217,-0.29766 -0.209462,-0.0937 -0.5898,-0.0937 -0.270096,0 -0.551216,0.0882 -0.275607,0.0882 -0.600824,0.28112 v 4.38767 h -1.984375 v -6.19015 h 1.984375 v 0.68351 q 0.529166,-0.41341 1.014236,-0.6339 0.490581,-0.22048 1.085894,-0.22048 1.003212,0 1.565451,0.58428 0.567752,0.58429 0.567752,1.74736 z"
         style="font-style:normal;font-variant:normal;font-weight:bold;font-stretch:normal;font-size:11.28888893px;font-family:sans-serif;-inkscape-font-specification:'sans-serif, Bold';font-variant-ligatures:normal;font-variant-caps:normal;font-variant-numeric:normal;font-feature-settings:normal;text-align:start;writing-mode:lr-tb;text-anchor:start;fill:#00ffff;fill-opacity:1;stroke-width:0.26458332"
         id="path3651" />
      <path
         d="m 39.13904,199.46439 h -0.148828 q -0.132292,-0.0386 -0.347266,-0.0882 -0.209461,-0.0496 -0.451996,-0.0496 -0.584288,0 -0.79375,0.20947 -0.20395,0.20946 -0.20395,0.81028 v 0.0496 h 1.532379 v 1.34497 h -1.466233 v 4.84518 h -1.984375 v -4.84518 H 34.42615 v -1.34497 h 0.848871 v -0.17087 q 0,-1.13551 0.600825,-1.70326 0.606337,-0.56775 1.830034,-0.56775 0.440973,0 0.799263,0.0331 0.35829,0.0276 0.633897,0.0772 z"
         style="font-style:normal;font-variant:normal;font-weight:bold;font-stretch:normal;font-size:11.28888893px;font-family:sans-serif;-inkscape-font-specification:'sans-serif, Bold';font-variant-ligatures:normal;font-variant-caps:normal;font-variant-numeric:normal;font-feature-settings:normal;text-align:start;writing-mode:lr-tb;text-anchor:start;fill:#00ffff;fill-opacity:1;stroke-width:0.26458332"
         id="path3653" />
      <path
         d="m 41.873069,206.58609 h -1.984375 v -8.57691 h 1.984375 z"
         style="font-style:normal;font-variant:normal;font-weight:bold;font-stretch:normal;font-size:11.28888893px;font-family:sans-serif;-inkscape-font-specification:'sans-serif, Bold';font-variant-ligatures:normal;font-variant-caps:normal;font-variant-numeric:normal;font-feature-settings:normal;text-align:start;writing-mode:lr-tb;text-anchor:start;fill:#00ffff;fill-opacity:1;stroke-width:0.26458332"
         id="path3655" />
      <path
         d="m 49.9153,206.58609 h -1.984375 v -0.68351 q -0.551215,0.41893 -1.008724,0.63941 -0.457509,0.21498 -1.091406,0.21498 -1.025261,0 -1.581988,-0.5898 -0.551216,-0.5898 -0.551216,-1.74184 v -4.02939 h 1.9954 v 3.07027 q 0,0.46853 0.02756,0.78273 0.03307,0.30868 0.143316,0.51263 0.10473,0.20395 0.314192,0.29765 0.214974,0.0937 0.595313,0.0937 0.253559,0 0.562239,-0.0937 0.308681,-0.0937 0.595313,-0.2756 v -4.38768 H 49.9153 Z"
         style="font-style:normal;font-variant:normal;font-weight:bold;font-stretch:normal;font-size:11.28888893px;font-family:sans-serif;-inkscape-font-specification:'sans-serif, Bold';font-variant-ligatures:normal;font-variant-caps:normal;font-variant-numeric:normal;font-feature-settings:normal;text-align:start;writing-mode:lr-tb;text-anchor:start;fill:#00ffff;fill-opacity:1;stroke-width:0.26458332"
         id="path3657" />
      <path
         d="m 57.891385,203.85757 h -4.542014 q 0.0441,0.72761 0.551215,1.11346 0.51263,0.38585 1.504818,0.38585 0.628385,0 1.218186,-0.226 0.5898,-0.226 0.931553,-0.48507 h 0.220486 v 1.59301 q -0.672482,0.2701 -1.267795,0.39137 -0.595312,0.12126 -1.317404,0.12126 -1.863108,0 -2.855295,-0.83784 -0.992188,-0.83785 -0.992188,-2.38676 0,-1.53238 0.937066,-2.42535 0.942578,-0.89848 2.579688,-0.89848 1.51033,0 2.271007,0.76619 0.760677,0.76067 0.760677,2.19383 z m -1.973351,-1.16306 q -0.01654,-0.62287 -0.308681,-0.93707 -0.292144,-0.31419 -0.909505,-0.31419 -0.573264,0 -0.942578,0.29766 -0.369314,0.29765 -0.413411,0.9536 z"
         style="font-style:normal;font-variant:normal;font-weight:bold;font-stretch:normal;font-size:11.28888893px;font-family:sans-serif;-inkscape-font-specification:'sans-serif, Bold';font-variant-ligatures:normal;font-variant-caps:normal;font-variant-numeric:normal;font-feature-settings:normal;text-align:start;writing-mode:lr-tb;text-anchor:start;fill:#00ffff;fill-opacity:1;stroke-width:0.26458332"
         id="path3659" />
      <path
         d="m 65.509179,206.58609 h -1.9954 v -3.07027 q 0,-0.37483 -0.03858,-0.74414 -0.03859,-0.37483 -0.132291,-0.55121 -0.110243,-0.20395 -0.325217,-0.29766 -0.209462,-0.0937 -0.589801,-0.0937 -0.270095,0 -0.551215,0.0882 -0.275608,0.0882 -0.600825,0.28112 v 4.38767 H 59.29147 v -6.19015 h 1.984375 v 0.68351 q 0.529167,-0.41341 1.014237,-0.6339 0.490581,-0.22048 1.085894,-0.22048 1.003211,0 1.565451,0.58428 0.567752,0.58429 0.567752,1.74736 z"
         style="font-style:normal;font-variant:normal;font-weight:bold;font-stretch:normal;font-size:11.28888893px;font-family:sans-serif;-inkscape-font-specification:'sans-serif, Bold';font-variant-ligatures:normal;font-variant-caps:normal;font-variant-numeric:normal;font-feature-settings:normal;text-align:start;writing-mode:lr-tb;text-anchor:start;fill:#00ffff;fill-opacity:1;stroke-width:0.26458332"
         id="path3661" />
      <path
         d="m 70.563825,206.75145 q -0.810287,0 -1.48277,-0.19292 -0.66697,-0.19293 -1.163064,-0.59531 -0.490581,-0.40239 -0.760677,-1.01424 -0.270095,-0.61185 -0.270095,-1.43316 0,-0.86541 0.286632,-1.49379 0.292144,-0.62839 0.810286,-1.0418 0.501606,-0.39136 1.157552,-0.57326 0.655946,-0.1819 1.361502,-0.1819 0.633897,0 1.168576,0.1378 0.534679,0.1378 0.9977,0.35829 v 1.69223 h -0.28112 q -0.115755,-0.0992 -0.28112,-0.23151 -0.159852,-0.13229 -0.396875,-0.25907 -0.225998,-0.12127 -0.496093,-0.19844 -0.270096,-0.0827 -0.628386,-0.0827 -0.79375,0 -1.223698,0.50712 -0.424436,0.5016 -0.424436,1.36701 0,0.89297 0.435461,1.35599 0.440972,0.46302 1.245746,0.46302 0.374826,0 0.672483,-0.0827 0.303168,-0.0882 0.501606,-0.20395 0.187413,-0.11024 0.330729,-0.23151 0.143316,-0.12127 0.264583,-0.23702 h 0.28112 v 1.69223 q -0.468533,0.22048 -0.981163,0.34726 -0.507118,0.13229 -1.124479,0.13229 z"
         style="font-style:normal;font-variant:normal;font-weight:bold;font-stretch:normal;font-size:11.28888893px;font-family:sans-serif;-inkscape-font-specification:'sans-serif, Bold';font-variant-ligatures:normal;font-variant-caps:normal;font-variant-numeric:normal;font-feature-settings:normal;text-align:start;writing-mode:lr-tb;text-anchor:start;fill:#00ffff;fill-opacity:1;stroke-width:0.26458332"
         id="path3663" />
      <path
         d="m 80.072287,203.85757 h -4.542014 q 0.0441,0.72761 0.551216,1.11346 0.51263,0.38585 1.504817,0.38585 0.628386,0 1.218186,-0.226 0.5898,-0.226 0.931554,-0.48507 h 0.220486 v 1.59301 q -0.672483,0.2701 -1.267795,0.39137 -0.595313,0.12126 -1.317405,0.12126 -1.863107,0 -2.855295,-0.83784 -0.992187,-0.83785 -0.992187,-2.38676 0,-1.53238 0.937066,-2.42535 0.942578,-0.89848 2.579687,-0.89848 1.51033,0 2.271007,0.76619 0.760677,0.76067 0.760677,2.19383 z m -1.973351,-1.16306 q -0.01654,-0.62287 -0.30868,-0.93707 -0.292144,-0.31419 -0.909505,-0.31419 -0.573264,0 -0.942578,0.29766 -0.369315,0.29765 -0.413412,0.9536 z"
         style="font-style:normal;font-variant:normal;font-weight:bold;font-stretch:normal;font-size:11.28888893px;font-family:sans-serif;-inkscape-font-specification:'sans-serif, Bold';font-variant-ligatures:normal;font-variant-caps:normal;font-variant-numeric:normal;font-feature-settings:normal;text-align:start;writing-mode:lr-tb;text-anchor:start;fill:#00ffff;fill-opacity:1;stroke-width:0.26458332"
         id="path3665" />
    </g>
    <g
       aria-label="fine"
       style="font-style:normal;font-weight:normal;font-size:10.58333302px;line-height:1.25;font-family:sans-serif;letter-spacing:0px;word-spacing:0px;fill:#000000;fill-opacity:1;stroke:none;stroke-width:0.26458332"
       id="text3706">
      <path
         d="m 7.5219671,208.10817 h -0.031006 q -0.096118,-0.0279 -0.2511474,-0.0558 -0.1550293,-0.031 -0.2728516,-0.031 -0.3751709,0 -0.5457031,0.16743 -0.1674316,0.16433 -0.1674316,0.59841 v 0.11782 h 1.0510986 v 0.4899 H 6.272431 v 2.97346 H 5.6895208 v -2.97346 H 5.2957464 v -0.4899 h 0.3937744 v -0.11472 q 0,-0.61702 0.306958,-0.94568 0.306958,-0.33176 0.8867676,-0.33176 0.1953369,0 0.3503662,0.0186 0.1581299,0.0186 0.2883545,0.0434 z"
         style="font-style:normal;font-variant:normal;font-weight:normal;font-stretch:normal;font-size:6.3499999px;font-family:sans-serif;-inkscape-font-specification:'sans-serif, Normal';font-variant-ligatures:normal;font-variant-caps:normal;font-variant-numeric:normal;font-feature-settings:normal;text-align:start;writing-mode:lr-tb;text-anchor:start;fill:#00ffff;fill-opacity:1;stroke-width:0.26458332"
         id="path3708" />
      <path
         d="M 8.5172552,208.32521 H 7.859931 v -0.60461 h 0.6573242 z m -0.037207,4.04317 H 7.897138 v -3.46336 h 0.5829102 z"
         style="font-style:normal;font-variant:normal;font-weight:normal;font-stretch:normal;font-size:6.3499999px;font-family:sans-serif;-inkscape-font-specification:'sans-serif, Normal';font-variant-ligatures:normal;font-variant-caps:normal;font-variant-numeric:normal;font-feature-settings:normal;text-align:start;writing-mode:lr-tb;text-anchor:start;fill:#00ffff;fill-opacity:1;stroke-width:0.26458332"
         id="path3710" />
      <path
         d="m 12.535614,212.36838 h -0.58291 v -1.97197 q 0,-0.23875 -0.02791,-0.44649 -0.02791,-0.21084 -0.102319,-0.32866 -0.07752,-0.13023 -0.223242,-0.19224 -0.145728,-0.0651 -0.378272,-0.0651 -0.238745,0 -0.499194,0.11782 -0.260449,0.11782 -0.499195,0.30076 v 2.58589 H 9.6396673 v -3.46336 h 0.5829097 v 0.38448 q 0.272852,-0.22635 0.564307,-0.35347 0.291455,-0.12712 0.598413,-0.12712 0.561206,0 0.855762,0.33796 0.294555,0.33796 0.294555,0.97358 z"
         style="font-style:normal;font-variant:normal;font-weight:normal;font-stretch:normal;font-size:6.3499999px;font-family:sans-serif;-inkscape-font-specification:'sans-serif, Normal';font-variant-ligatures:normal;font-variant-caps:normal;font-variant-numeric:normal;font-feature-settings:normal;text-align:start;writing-mode:lr-tb;text-anchor:start;fill:#00ffff;fill-opacity:1;stroke-width:0.26458332"
         id="path3712" />
      <path
         d="m 16.557074,210.69716 h -2.551782 q 0,0.31936 0.09612,0.55811 0.09612,0.23564 0.26355,0.38757 0.161231,0.14883 0.381372,0.22324 0.223243,0.0744 0.489893,0.0744 0.353467,0 0.710034,-0.13953 0.359668,-0.14263 0.511597,-0.27905 h 0.03101 v 0.63562 q -0.294556,0.12402 -0.601514,0.20774 -0.306958,0.0837 -0.644922,0.0837 -0.861963,0 -1.345654,-0.46508 -0.483692,-0.46819 -0.483692,-1.32706 0,-0.84956 0.461988,-1.34875 0.465088,-0.49919 1.221631,-0.49919 0.700732,0 1.079003,0.40927 0.381372,0.40928 0.381372,1.16272 z m -0.567407,-0.44648 q -0.0031,-0.45889 -0.232544,-0.71004 -0.226342,-0.25114 -0.69143,-0.25114 -0.468189,0 -0.747242,0.27595 -0.275952,0.27595 -0.313159,0.68523 z"
         style="font-style:normal;font-variant:normal;font-weight:normal;font-stretch:normal;font-size:6.3499999px;font-family:sans-serif;-inkscape-font-specification:'sans-serif, Normal';font-variant-ligatures:normal;font-variant-caps:normal;font-variant-numeric:normal;font-feature-settings:normal;text-align:start;writing-mode:lr-tb;text-anchor:start;fill:#00ffff;fill-opacity:1;stroke-width:0.26458332"
         id="path3714" />
    </g>
  </g>
</svg>
