<?xml version="1.0" encoding="UTF-8" standalone="no"?>
<!-- Created with Inkscape (http://www.inkscape.org/) -->

<svg
   xmlns:dc="http://purl.org/dc/elements/1.1/"
   xmlns:cc="http://creativecommons.org/ns#"
   xmlns:rdf="http://www.w3.org/1999/02/22-rdf-syntax-ns#"
   xmlns:svg="http://www.w3.org/2000/svg"
   xmlns="http://www.w3.org/2000/svg"
   xmlns:sodipodi="http://sodipodi.sourceforge.net/DTD/sodipodi-0.dtd"
   xmlns:inkscape="http://www.inkscape.org/namespaces/inkscape"
   width="30"
   height="380"
   viewBox="0 0 7.9374995 100.54167"
   version="1.1"
   id="svg8"
   inkscape:version="0.92.2 (5c3e80d, 2017-08-06)"
   sodipodi:docname="Luci4ParamDistr.svg">
  <defs
     id="defs2" />
  <sodipodi:namedview
     id="base"
     pagecolor="#ffffff"
     bordercolor="#666666"
     borderopacity="1.0"
     inkscape:pageopacity="0.0"
     inkscape:pageshadow="2"
     inkscape:zoom="2.32"
     inkscape:cx="-150.59113"
     inkscape:cy="255.33714"
     inkscape:document-units="mm"
     inkscape:current-layer="layer1"
     showgrid="false"
     inkscape:window-width="1440"
     inkscape:window-height="900"
     inkscape:window-x="66"
     inkscape:window-y="189"
     inkscape:window-maximized="0"
     units="px" />
  <metadata
     id="metadata5">
    <rdf:RDF>
      <cc:Work
         rdf:about="">
        <dc:format>image/svg+xml</dc:format>
        <dc:type
           rdf:resource="http://purl.org/dc/dcmitype/StillImage" />
        <dc:title />
      </cc:Work>
    </rdf:RDF>
  </metadata>
  <g
     inkscape:label="Capa 1"
     inkscape:groupmode="layer"
     id="layer1"
     transform="translate(0,-196.45833)">
    <rect
       id="rect1489"
       width="8.2151203"
       height="100.57488"
       x="-0.0013034504"
       y="196.49677"
       style="fill:#000023;fill-opacity:1;stroke-width:0.06607324" />
    <g
       aria-label="4Distr"
       style="font-style:normal;font-weight:normal;font-size:10.58333301999999954px;line-height:1.25;font-family:sans-serif;letter-spacing:0px;word-spacing:0px;fill:#0046ff;fill-opacity:1;stroke:none;stroke-width:0.26458332"
       id="text5236">
      <path
         d="M 2.1027615,198.14651 H 1.8743517 v 0.43305 H 1.6759142 v -0.43305 H 0.93900832 v -0.23771 l 0.74517408,-0.86816 h 0.1901693 v 0.94051 h 0.2284098 z m -0.4268473,-0.16536 v -0.69453 l -0.596346,0.69453 z"
         style="font-style:normal;font-variant:normal;font-weight:normal;font-stretch:normal;font-size:2.11666656000000009px;font-family:sans-serif;-inkscape-font-specification:'sans-serif, Normal';font-variant-ligatures:normal;font-variant-caps:normal;font-variant-numeric:normal;font-feature-settings:normal;text-align:start;writing-mode:lr-tb;text-anchor:start;stroke-width:0.26458332;fill:#0046ff;fill-opacity:1"
         id="path5238" />
      <path
         d="m 3.7140326,197.81165 q 0,0.2098 -0.091984,0.38034 -0.09095,0.17053 -0.2428792,0.26458 -0.1054199,0.0651 -0.2356445,0.0941 -0.1291911,0.0289 -0.3410645,0.0289 H 2.4138537 v -1.53892 h 0.3844726 q 0.2253092,0 0.3576009,0.0331 0.1333252,0.032 0.2253092,0.0889 0.1570964,0.0982 0.2449463,0.26148 0.08785,0.1633 0.08785,0.38758 z m -0.2139404,-0.003 q 0,-0.18087 -0.063045,-0.30489 -0.063045,-0.12403 -0.1881022,-0.19534 -0.09095,-0.0517 -0.1932699,-0.0713 -0.1023193,-0.0207 -0.2449462,-0.0207 H 2.6184923 v 1.18752 h 0.1922364 q 0.1477945,0 0.2573486,-0.0217 0.1105875,-0.0217 0.2025716,-0.0806 0.1147217,-0.0734 0.1715657,-0.19327 0.057878,-0.11989 0.057878,-0.29972 z"
         style="font-style:normal;font-variant:normal;font-weight:normal;font-stretch:normal;font-size:2.11666656000000009px;font-family:sans-serif;-inkscape-font-specification:'sans-serif, Normal';font-variant-ligatures:normal;font-variant-caps:normal;font-variant-numeric:normal;font-feature-settings:normal;text-align:start;writing-mode:lr-tb;text-anchor:start;stroke-width:0.26458332;fill:#0046ff;fill-opacity:1"
         id="path5240" />
      <path
         d="M 4.2400989,197.23184 H 4.0209908 v -0.20154 h 0.2191081 z m -0.012402,1.34772 H 4.0333931 v -1.15445 h 0.1943034 z"
         style="font-style:normal;font-variant:normal;font-weight:normal;font-stretch:normal;font-size:2.11666656000000009px;font-family:sans-serif;-inkscape-font-specification:'sans-serif, Normal';font-variant-ligatures:normal;font-variant-caps:normal;font-variant-numeric:normal;font-feature-settings:normal;text-align:start;writing-mode:lr-tb;text-anchor:start;stroke-width:0.26458332;fill:#0046ff;fill-opacity:1"
         id="path5242" />
      <path
         d="m 5.438992,198.24676 q 0,0.15813 -0.1312582,0.25942 -0.1302246,0.10128 -0.3565673,0.10128 -0.1281576,0 -0.2356446,-0.03 -0.1064534,-0.031 -0.1788004,-0.0672 v -0.21807 h 0.010335 q 0.091984,0.0692 0.2046386,0.11059 0.1126547,0.0403 0.2160075,0.0403 0.1281576,0 0.2005046,-0.0413 0.072347,-0.0413 0.072347,-0.13022 0,-0.0682 -0.039274,-0.10336 -0.039274,-0.0351 -0.1508952,-0.0599 -0.041341,-0.009 -0.1085205,-0.0217 -0.066146,-0.0124 -0.1209228,-0.0269 -0.1519287,-0.0403 -0.2160075,-0.11782 -0.063045,-0.0786 -0.063045,-0.19223 0,-0.0713 0.028939,-0.13436 0.029972,-0.0631 0.089917,-0.11266 0.057878,-0.0486 0.1467611,-0.0765 0.089917,-0.0289 0.2005045,-0.0289 0.1033529,0 0.2087728,0.0258 0.1064535,0.0248 0.1767334,0.061 v 0.20774 h -0.010335 q -0.074414,-0.0548 -0.1808675,-0.092 -0.1064534,-0.0382 -0.2087728,-0.0382 -0.1064534,0 -0.1798339,0.0413 -0.073381,0.0403 -0.073381,0.12093 0,0.0713 0.044442,0.10748 0.043408,0.0362 0.1405599,0.0589 0.053743,0.0124 0.1198893,0.0248 0.067179,0.0124 0.1116211,0.0227 0.1353922,0.031 0.2087727,0.10645 0.073381,0.0765 0.073381,0.20257 z"
         style="font-style:normal;font-variant:normal;font-weight:normal;font-stretch:normal;font-size:2.11666656000000009px;font-family:sans-serif;-inkscape-font-specification:'sans-serif, Normal';font-variant-ligatures:normal;font-variant-caps:normal;font-variant-numeric:normal;font-feature-settings:normal;text-align:start;writing-mode:lr-tb;text-anchor:start;stroke-width:0.26458332;fill:#0046ff;fill-opacity:1"
         id="path5244" />
      <path
         d="m 6.3174911,198.56922 q -0.054777,0.0145 -0.1198893,0.0238 -0.064079,0.009 -0.1147217,0.009 -0.1767333,0 -0.2687174,-0.0951 -0.091984,-0.0951 -0.091984,-0.30489 v -0.61391 H 5.5909205 v -0.1633 h 0.1312582 v -0.33176 H 5.916482 v 0.33176 h 0.4010091 v 0.1633 H 5.916482 v 0.52606 q 0,0.0909 0.00413,0.14263 0.00413,0.0506 0.028939,0.0951 0.022738,0.0413 0.062012,0.061 0.040308,0.0186 0.1219563,0.0186 0.047542,0 0.099219,-0.0134 0.051676,-0.0145 0.074414,-0.0238 h 0.010335 z"
         style="font-style:normal;font-variant:normal;font-weight:normal;font-stretch:normal;font-size:2.11666656000000009px;font-family:sans-serif;-inkscape-font-specification:'sans-serif, Normal';font-variant-ligatures:normal;font-variant-caps:normal;font-variant-numeric:normal;font-feature-settings:normal;text-align:start;writing-mode:lr-tb;text-anchor:start;stroke-width:0.26458332;fill:#0046ff;fill-opacity:1"
         id="path5246" />
      <path
         d="m 7.2735051,197.63698 h -0.010335 q -0.043408,-0.0103 -0.084749,-0.0145 -0.040308,-0.005 -0.096118,-0.005 -0.089917,0 -0.1736328,0.0403 -0.083716,0.0393 -0.1612305,0.10232 v 0.81959 H 6.5531357 v -1.15445 H 6.747439 v 0.17053 q 0.1157552,-0.093 0.2036052,-0.13126 0.088883,-0.0393 0.1808675,-0.0393 0.050643,0 0.07338,0.003 0.022738,0.002 0.068213,0.009 z"
         style="font-style:normal;font-variant:normal;font-weight:normal;font-stretch:normal;font-size:2.11666656000000009px;font-family:sans-serif;-inkscape-font-specification:'sans-serif, Normal';font-variant-ligatures:normal;font-variant-caps:normal;font-variant-numeric:normal;font-feature-settings:normal;text-align:start;writing-mode:lr-tb;text-anchor:start;stroke-width:0.26458332;fill:#0046ff;fill-opacity:1"
         id="path5248" />
    </g>
  </g>
</svg>
