<?xml version="1.0" encoding="UTF-8" standalone="no"?>
<!-- Created with Inkscape (http://www.inkscape.org/) -->

<svg
   xmlns:dc="http://purl.org/dc/elements/1.1/"
   xmlns:cc="http://creativecommons.org/ns#"
   xmlns:rdf="http://www.w3.org/1999/02/22-rdf-syntax-ns#"
   xmlns:svg="http://www.w3.org/2000/svg"
   xmlns="http://www.w3.org/2000/svg"
   xmlns:sodipodi="http://sodipodi.sourceforge.net/DTD/sodipodi-0.dtd"
   xmlns:inkscape="http://www.inkscape.org/namespaces/inkscape"
   width="300"
   height="300"
   viewBox="0 0 300 300"
   version="1.1"
   id="svg1271"
   sodipodi:docname="LuciVeryLargeBlueKnob.svg"
   inkscape:version="0.92.2 (5c3e80d, 2017-08-06)">
  <defs
     id="defs1265" />
  <sodipodi:namedview
     id="base"
     pagecolor="#ffffff"
     bordercolor="#666666"
     borderopacity="1.0"
     inkscape:pageopacity="0.0"
     inkscape:pageshadow="2"
     inkscape:zoom="4"
     inkscape:cx="143.21563"
     inkscape:cy="203.72475"
     inkscape:document-units="px"
     inkscape:current-layer="g1649"
     showgrid="false"
     units="px"
     inkscape:window-width="1920"
     inkscape:window-height="1151"
     inkscape:window-x="1"
     inkscape:window-y="23"
     inkscape:window-maximized="0" />
  <metadata
     id="metadata1268">
    <rdf:RDF>
      <cc:Work
         rdf:about="">
        <dc:format>image/svg+xml</dc:format>
        <dc:type
           rdf:resource="http://purl.org/dc/dcmitype/StillImage" />
        <dc:title />
      </cc:Work>
    </rdf:RDF>
  </metadata>
  <g
     inkscape:label="Layer 1"
     inkscape:groupmode="layer"
     id="layer1"
     transform="translate(0,-217.62499)">
    <g
       id="g1649"
       transform="matrix(0.26458333,0,0,0.26458333,13.873954,236.44535)">
      <path
         inkscape:connector-curvature="0"
         style="fill:#161616;fill-opacity:1;stroke-width:20.99735641"
         d="M 1081.9641,492.89155 A 566.92864,566.92864 0 0 1 515.03546,1059.8202 566.92864,566.92864 0 0 1 -51.893182,492.89155 566.92864,566.92864 0 0 1 515.03546,-74.037094 566.92864,566.92864 0 0 1 1081.9641,492.89155"
         data-name="path6445"
         id="path1463" />
      <path
         id="path1465"
         data-name="path6445"
         d="M 939.81199,492.89155 A 419.94714,419.94714 0 0 1 519.86485,912.83869 419.94714,419.94714 0 0 1 99.917708,492.89155 419.94714,419.94714 0 0 1 519.86485,72.944406 419.94714,419.94714 0 0 1 939.81199,492.89155"
         style="fill:#ffffff;fill-opacity:1;stroke-width:15.55359745"
         inkscape:connector-curvature="0" />
      <path
         d="M 515.03546,89.322346 A 403.35923,403.35923 0 0 0 132.67359,365.01764 H 897.39733 A 403.35923,403.35923 0 0 0 515.03546,89.322346 Z"
         style="fill:#c0ffff;fill-opacity:1;stroke:none;stroke-width:20.99735641"
         id="path1467"
         inkscape:connector-curvature="0" />
      <path
         d="m 132.67359,365.01764 c -1.88976,5.87926 -3.9895,11.54855 -5.66929,17.42781 h 776.90221 c -1.67979,-5.87926 -3.77952,-11.54855 -5.66929,-17.42781 z"
         style="fill:#ffffff;fill-opacity:1;stroke:none;stroke-width:20.99735641"
         id="path1469"
         inkscape:connector-curvature="0" />
      <path
         d="m 127.0043,382.44545 a 403.35923,403.35923 0 0 0 -15.53804,110.4461 403.5692,403.5692 0 0 0 403.5692,403.5692 403.5692,403.5692 0 0 0 403.5692,-403.5692 403.35923,403.35923 0 0 0 -15.53804,-110.4461 z"
         style="fill:#01ffff;fill-opacity:1;stroke-width:20.99735641"
         id="path1471"
         inkscape:connector-curvature="0" />
      <g
         transform="matrix(20.997357,0,0,20.997357,-72.890542,-3730.7268)"
         id="g1475"
         data-name="g6451">
        <path
           id="path1473"
           data-name="path6453"
           d="m -123.86,152.5 a 5.91,5.91 0 0 0 -1,-0.09 5.88,5.88 0 0 0 -1,0.09 v 10.88 h 2 z"
           transform="translate(152.86,29.42)"
           style="fill:#202020"
           inkscape:connector-curvature="0" />
      </g>
      <path
         inkscape:connector-curvature="0"
         id="path1479"
         style="fill:#454545;fill-opacity:1;stroke-width:20.99735641"
         d="m 515.03546,89.322346 a 403.5692,403.5692 0 0 1 403.5692,403.569204 403.5692,403.5692 0 0 1 -403.5692,403.5692 403.5692,403.5692 0 0 1 -403.5692,-403.5692 403.5692,403.5692 0 0 1 403.5692,-403.569204 m 0,-34.64564 A 438.63479,438.63479 0 0 0 76.820618,492.89155 438.63479,438.63479 0 0 0 515.03546,931.10639 438.63479,438.63479 0 0 0 953.04032,492.89155 438.63479,438.63479 0 0 0 514.82548,54.676706 Z" />
      <g
         id="g1497"
         style="fill:#2d2d2d;fill-opacity:1;stroke:none;stroke-opacity:1"
         transform="matrix(20.997357,0,0,20.997357,-72.890542,-3730.7268)">
        <path
           d="m -133.75,153.41 -2.21,-2.27 a 23.49,23.49 0 0 0 -9.49,9.5 l 2.21,2.26 a 21.92,21.92 0 0 1 9.49,-9.49 z"
           transform="translate(152.86,29.42)"
           style="fill:#2d2d2d;fill-opacity:1;stroke:none;stroke-opacity:1"
           id="path1481"
           inkscape:connector-curvature="0" />
        <path
           d="m -116,190 2.2,2.28 a 23.49,23.49 0 0 0 9.5,-9.49 l -2.2,-2.29 a 21.92,21.92 0 0 1 -9.5,9.5 z"
           transform="translate(152.86,29.42)"
           style="fill:#2d2d2d;fill-opacity:1;stroke:none;stroke-opacity:1"
           id="path1483"
           inkscape:connector-curvature="0" />
        <path
           d="m -143.25,180.55 -2.19,2.29 a 23.49,23.49 0 0 0 9.5,9.49 l 2.2,-2.29 a 21.92,21.92 0 0 1 -9.51,-9.49 z"
           transform="translate(152.86,29.42)"
           style="fill:#2d2d2d;fill-opacity:1;stroke:none;stroke-opacity:1"
           id="path1485"
           inkscape:connector-curvature="0" />
        <path
           d="m -106.48,162.9 2.22,-2.26 a 23.49,23.49 0 0 0 -9.49,-9.5 l -2.25,2.26 a 21.92,21.92 0 0 1 9.52,9.5 z"
           transform="translate(152.86,29.42)"
           style="fill:#2d2d2d;fill-opacity:1;stroke:none;stroke-opacity:1"
           id="path1487"
           inkscape:connector-curvature="0" />
        <path
           d="m -124.87,192 a 21.81,21.81 0 0 1 -6.7,-1.05 v 3.21 a 23.38,23.38 0 0 0 6.71,1 23.38,23.38 0 0 0 6.71,-1 v -3.22 a 21.81,21.81 0 0 1 -6.72,1.06 z"
           transform="translate(152.86,29.42)"
           style="fill:#2d2d2d;fill-opacity:1;stroke:none;stroke-opacity:1"
           id="path1489"
           inkscape:connector-curvature="0" />
        <path
           d="m -124.87,151.48 a 21.81,21.81 0 0 1 6.73,1.06 v -3.22 a 23.38,23.38 0 0 0 -6.71,-1 23.38,23.38 0 0 0 -6.71,1 v 3.21 a 21.81,21.81 0 0 1 6.69,-1.05 z"
           transform="translate(152.86,29.42)"
           style="fill:#2d2d2d;fill-opacity:1;stroke:none;stroke-opacity:1"
           id="path1491"
           inkscape:connector-curvature="0" />
        <path
           d="m -104.63,171.73 a 21.81,21.81 0 0 1 -1.06,6.73 h 3.23 a 23.38,23.38 0 0 0 1,-6.73 23.38,23.38 0 0 0 -1,-6.7 h -3.22 a 21.81,21.81 0 0 1 1.05,6.7 z"
           transform="translate(152.86,29.42)"
           style="fill:#2d2d2d;fill-opacity:1;stroke:none;stroke-opacity:1"
           id="path1493"
           inkscape:connector-curvature="0" />
        <path
           d="m -145.12,171.72 a 21.81,21.81 0 0 1 1.05,-6.7 h -3.2 a 23.38,23.38 0 0 0 -1,6.7 23.38,23.38 0 0 0 1,6.73 h 3.2 a 21.81,21.81 0 0 1 -1.05,-6.73 z"
           transform="translate(152.86,29.42)"
           style="fill:#2d2d2d;fill-opacity:1;stroke:none;stroke-opacity:1"
           id="path1495"
           inkscape:connector-curvature="0" />
      </g>
    </g>
  </g>
</svg>
