<?xml version="1.0" encoding="UTF-8" standalone="no"?>
<!-- Created with Inkscape (http://www.inkscape.org/) -->

<svg
   xmlns:dc="http://purl.org/dc/elements/1.1/"
   xmlns:cc="http://creativecommons.org/ns#"
   xmlns:rdf="http://www.w3.org/1999/02/22-rdf-syntax-ns#"
   xmlns:svg="http://www.w3.org/2000/svg"
   xmlns="http://www.w3.org/2000/svg"
   xmlns:sodipodi="http://sodipodi.sourceforge.net/DTD/sodipodi-0.dtd"
   xmlns:inkscape="http://www.inkscape.org/namespaces/inkscape"
   width="60"
   height="380"
   viewBox="0 0 15.875001 100.54167"
   version="1.1"
   id="svg8"
   inkscape:version="0.92.2 5c3e80d, 2017-08-06"
   sodipodi:docname="CircleVCO.svg">
  <defs
     id="defs2" />
  <sodipodi:namedview
     id="base"
     pagecolor="#ffffff"
     bordercolor="#666666"
     borderopacity="1.0"
     inkscape:pageopacity="0.0"
     inkscape:pageshadow="2"
     inkscape:zoom="1.4"
     inkscape:cx="-79.818679"
     inkscape:cy="170.68689"
     inkscape:document-units="px"
     inkscape:current-layer="layer1"
     showgrid="false"
     units="px"
     inkscape:snap-bbox="true"
     inkscape:snap-page="true"
     inkscape:bbox-nodes="true"
     inkscape:snap-bbox-edge-midpoints="true"
     inkscape:window-width="1358"
     inkscape:window-height="730"
     inkscape:window-x="0"
     inkscape:window-y="34"
     inkscape:window-maximized="0"
     showguides="false" />
  <metadata
     id="metadata5">
    <rdf:RDF>
      <cc:Work
         rdf:about="">
        <dc:format>image/svg+xml</dc:format>
        <dc:type
           rdf:resource="http://purl.org/dc/dcmitype/StillImage" />
        <dc:title></dc:title>
      </cc:Work>
    </rdf:RDF>
  </metadata>
  <g
     inkscape:label="Layer 1"
     inkscape:groupmode="layer"
     id="layer1"
     transform="translate(0,-196.45832)"
     style="display:inline">
    <path
       style="opacity:1;vector-effect:none;fill:#f0f0f0;fill-opacity:1;fill-rule:evenodd;stroke:none;stroke-width:0.39687505;stroke-linecap:butt;stroke-linejoin:round;stroke-miterlimit:4;stroke-dasharray:none;stroke-dashoffset:0;stroke-opacity:1;paint-order:normal"
       d="M 0,196.45831 H 15.875001 V 296.99999 H 0 Z"
       id="rect817"
       inkscape:connector-curvature="0" />
    <g
       aria-label="Pitch"
       style="font-style:normal;font-variant:normal;font-weight:normal;font-stretch:normal;font-size:2.82222223px;line-height:6.61458302px;font-family:DINPro;-inkscape-font-specification:DINPro;font-variant-ligatures:normal;font-variant-caps:normal;font-variant-numeric:normal;font-feature-settings:normal;text-align:center;letter-spacing:0px;word-spacing:0px;writing-mode:lr-tb;text-anchor:middle;fill:#000000;fill-opacity:1;stroke:none;stroke-width:0.26458332px;stroke-linecap:butt;stroke-linejoin:miter;stroke-opacity:1"
       id="text946"
       transform="translate(-3.9625765,-8.4666666)">
      <path
         d="m 10.343313,234.08358 c 0,-0.36124 -0.254,-0.58984 -0.6208893,-0.58984 H 8.9745348 v 2.00942 h 0.2144889 v -0.82691 h 0.5334 c 0.3668893,0 0.6208893,-0.23142 0.6208893,-0.59267 z m -0.214489,0 c 0,0.26529 -0.174978,0.40076 -0.4261558,0.40076 H 9.1890237 v -0.79869 h 0.5136445 c 0.2511778,0 0.4261558,0.13264 0.4261558,0.39793 z"
         style="font-size:2.82222223px;text-align:center;text-anchor:middle;stroke-width:0.26458332px"
         id="path973"
         inkscape:connector-curvature="0" />
      <path
         d="m 10.921471,235.50316 v -1.38853 h -0.2032 v 1.38853 z m 0.01411,-1.78365 v -0.2286 h -0.2286 v 0.2286 z"
         style="font-size:2.82222223px;text-align:center;text-anchor:middle;stroke-width:0.26458332px"
         id="path975"
         inkscape:connector-curvature="0" />
      <path
         d="m 11.968251,235.50316 v -0.17498 h -0.107244 c -0.129822,0 -0.189089,-0.0762 -0.189089,-0.2032 v -0.84667 h 0.296333 v -0.15522 h -0.296333 v -0.43462 h -0.2032 v 0.43462 H 11.29374 v 0.15522 h 0.174978 v 0.85232 c 0,0.20602 0.118533,0.37253 0.3556,0.37253 z"
         style="font-size:2.82222223px;text-align:center;text-anchor:middle;stroke-width:0.26458332px"
         id="path977"
         inkscape:connector-curvature="0" />
      <path
         d="m 13.346113,235.31407 -0.138289,-0.13264 c -0.104422,0.11571 -0.186267,0.15804 -0.318911,0.15804 -0.135467,0 -0.248356,-0.0536 -0.321733,-0.15804 -0.06491,-0.0903 -0.09031,-0.19756 -0.09031,-0.37254 0,-0.17498 0.0254,-0.28222 0.09031,-0.37253 0.07338,-0.10442 0.186266,-0.15805 0.321733,-0.15805 0.132644,0 0.214489,0.0395 0.318911,0.15523 l 0.138289,-0.12983 c -0.143933,-0.15522 -0.265289,-0.20602 -0.4572,-0.20602 -0.349956,0 -0.615244,0.23707 -0.615244,0.7112 0,0.47414 0.265288,0.7112 0.615244,0.7112 0.191911,0 0.313267,-0.0508 0.4572,-0.20602 z"
         style="font-size:2.82222223px;text-align:center;text-anchor:middle;stroke-width:0.26458332px"
         id="path979"
         inkscape:connector-curvature="0" />
      <path
         d="m 14.825619,235.50316 v -0.89182 c 0,-0.31327 -0.186267,-0.51365 -0.499534,-0.51365 -0.155222,0 -0.287866,0.0536 -0.389466,0.16934 v -0.77329 h -0.2032 v 2.00942 h 0.2032 v -0.85796 c 0,-0.23989 0.138289,-0.36689 0.347133,-0.36689 0.208844,0 0.338667,0.12418 0.338667,0.36689 v 0.85796 z"
         style="font-size:2.82222223px;text-align:center;text-anchor:middle;stroke-width:0.26458332px"
         id="path981"
         inkscape:connector-curvature="0" />
    </g>
    <g
       aria-label="1V/oct"
       style="font-style:normal;font-variant:normal;font-weight:normal;font-stretch:normal;font-size:2.82222223px;line-height:6.61458302px;font-family:DINPro;-inkscape-font-specification:DINPro;font-variant-ligatures:normal;font-variant-caps:normal;font-variant-numeric:normal;font-feature-settings:normal;text-align:center;letter-spacing:0px;word-spacing:0px;writing-mode:lr-tb;text-anchor:middle;fill:#000000;fill-opacity:1;stroke:none;stroke-width:0.26458332px;stroke-linecap:butt;stroke-linejoin:miter;stroke-opacity:1"
       id="text950"
       transform="translate(-3.943361,-21.436551)">
      <path
         d="m 8.7942542,262.66519 v -2.00942 h -0.2032 l -0.3753555,0.32455 v 0.23143 l 0.3753555,-0.3302 v 1.78364 z"
         style="font-size:2.82222223px;text-align:center;text-anchor:middle;stroke-width:0.26458332px"
         id="path984"
         inkscape:connector-curvature="0" />
      <path
         d="m 10.853021,260.65577 h -0.225778 l -0.522111,1.6256 -0.5221108,-1.6256 H 9.3572434 l 0.6603996,2.00942 h 0.174978 z"
         style="font-size:2.82222223px;text-align:center;text-anchor:middle;stroke-width:0.26458332px"
         id="path986"
         inkscape:connector-curvature="0" />
      <path
         d="m 11.88278,260.44692 h -0.200378 l -0.804333,2.42712 h 0.200377 z"
         style="font-size:2.82222223px;text-align:center;text-anchor:middle;stroke-width:0.26458332px"
         id="path988"
         inkscape:connector-curvature="0" />
      <path
         d="m 13.196436,261.97092 c 0,-0.21448 -0.02822,-0.40922 -0.169334,-0.55315 -0.09596,-0.096 -0.2286,-0.15805 -0.397933,-0.15805 -0.169333,0 -0.301978,0.0621 -0.397933,0.15805 -0.141111,0.14393 -0.169334,0.33867 -0.169334,0.55315 0,0.21449 0.02822,0.40923 0.169334,0.55316 0.09595,0.096 0.2286,0.15804 0.397933,0.15804 0.169333,0 0.301978,-0.0621 0.397933,-0.15804 0.141111,-0.14393 0.169334,-0.33867 0.169334,-0.55316 z m -0.2032,0 c 0,0.15523 -0.0085,0.32738 -0.110067,0.42898 -0.06491,0.0649 -0.155222,0.1016 -0.254,0.1016 -0.09878,0 -0.186267,-0.0367 -0.251178,-0.1016 -0.1016,-0.1016 -0.112889,-0.27375 -0.112889,-0.42898 0,-0.15522 0.01129,-0.32737 0.112889,-0.42897 0.06491,-0.0649 0.1524,-0.1016 0.251178,-0.1016 0.09878,0 0.189089,0.0367 0.254,0.1016 0.1016,0.1016 0.110067,0.27375 0.110067,0.42897 z"
         style="font-size:2.82222223px;text-align:center;text-anchor:middle;stroke-width:0.26458332px"
         id="path990"
         inkscape:connector-curvature="0" />
      <path
         d="m 14.625318,262.4761 -0.138289,-0.13264 c -0.104422,0.11571 -0.186267,0.15804 -0.318911,0.15804 -0.135467,0 -0.248356,-0.0536 -0.321733,-0.15804 -0.06491,-0.0903 -0.09031,-0.19756 -0.09031,-0.37254 0,-0.17497 0.0254,-0.28222 0.09031,-0.37253 0.07338,-0.10442 0.186266,-0.15804 0.321733,-0.15804 0.132644,0 0.214489,0.0395 0.318911,0.15522 l 0.138289,-0.12982 c -0.143933,-0.15523 -0.265289,-0.20603 -0.4572,-0.20603 -0.349956,0 -0.615244,0.23707 -0.615244,0.7112 0,0.47414 0.265288,0.7112 0.615244,0.7112 0.191911,0 0.313267,-0.0508 0.4572,-0.20602 z"
         style="font-size:2.82222223px;text-align:center;text-anchor:middle;stroke-width:0.26458332px"
         id="path992"
         inkscape:connector-curvature="0" />
      <path
         d="m 15.546024,262.66519 v -0.17498 H 15.43878 c -0.129822,0 -0.189089,-0.0762 -0.189089,-0.2032 v -0.84666 h 0.296333 v -0.15523 h -0.296333 v -0.43462 h -0.2032 v 0.43462 h -0.174978 v 0.15523 h 0.174978 v 0.85231 c 0,0.20602 0.118533,0.37253 0.3556,0.37253 z"
         style="font-size:2.82222223px;text-align:center;text-anchor:middle;stroke-width:0.26458332px"
         id="path994"
         inkscape:connector-curvature="0" />
    </g>
    <g
       aria-label="Phase Ramp"
       style="font-style:normal;font-weight:normal;font-size:10.58333302px;line-height:2;font-family:sans-serif;text-align:center;letter-spacing:0px;word-spacing:0px;text-anchor:middle;fill:#000000;fill-opacity:1;stroke:none;stroke-width:0.26458332"
       id="text3831"
       transform="translate(-8.6347871,0.21693435)">
      <path
         d="m 13.67634,285.17722 q 0.08957,0.0303 0.173633,0.12953 0.08544,0.0992 0.170877,0.27286 l 0.282497,0.56224 h -0.299034 l -0.263205,-0.52779 q -0.101975,-0.20671 -0.198438,-0.27423 -0.09508,-0.0675 -0.260449,-0.0675 h -0.303168 v 0.86955 h -0.278364 v -2.05742 h 0.628385 q 0.352778,0 0.526411,0.14745 0.173633,0.14745 0.173633,0.44511 0,0.1943 -0.09095,0.32246 -0.08957,0.12816 -0.261827,0.17777 z m -0.697287,-0.86403 v 0.73036 h 0.350021 q 0.201194,0 0.303169,-0.0923 0.103353,-0.0937 0.103353,-0.27423 0,-0.18052 -0.103353,-0.27147 -0.101975,-0.0923 -0.303169,-0.0923 z"
         style="font-size:2.82222223px;line-height:2;text-align:center;text-anchor:middle;stroke-width:0.26458332"
         id="path7936"
         inkscape:connector-curvature="0" />
      <path
         d="m 15.292779,285.36601 q -0.307303,0 -0.425814,0.0703 -0.118512,0.0703 -0.118512,0.23978 0,0.13505 0.0882,0.21497 0.08957,0.0786 0.242535,0.0786 0.210839,0 0.337619,-0.14883 0.128158,-0.1502 0.128158,-0.39825 v -0.0565 z m 0.50574,-0.10473 v 0.88057 H 15.54496 v -0.23427 q -0.08682,0.14056 -0.216352,0.20808 -0.129536,0.0661 -0.316949,0.0661 -0.237023,0 -0.377583,-0.13229 -0.139182,-0.13367 -0.139182,-0.35691 0,-0.26045 0.173633,-0.39275 0.175011,-0.13229 0.520899,-0.13229 h 0.355534 v -0.0248 q 0,-0.17501 -0.115756,-0.2701 -0.114377,-0.0965 -0.322461,-0.0965 -0.132291,0 -0.257693,0.0317 -0.125401,0.0317 -0.241156,0.0951 v -0.23427 q 0.139181,-0.0537 0.270095,-0.0799 0.130914,-0.0276 0.254937,-0.0276 0.334863,0 0.500228,0.17363 0.165365,0.17363 0.165365,0.52641 z"
         style="font-size:2.82222223px;line-height:2;text-align:center;text-anchor:middle;stroke-width:0.26458332"
         id="path7938"
         inkscape:connector-curvature="0" />
      <path
         d="m 17.523822,284.89472 q 0.09509,-0.17088 0.227377,-0.25218 0.132291,-0.0813 0.311436,-0.0813 0.241157,0 0.372071,0.16949 0.130913,0.16813 0.130913,0.47956 v 0.93156 h -0.254937 v -0.92329 q 0,-0.22186 -0.07855,-0.32935 -0.07855,-0.10749 -0.239779,-0.10749 -0.197059,0 -0.311436,0.13092 -0.114378,0.13091 -0.114378,0.35691 v 0.8723 h -0.254937 v -0.92329 q 0,-0.22324 -0.07855,-0.32935 -0.07855,-0.10749 -0.242535,-0.10749 -0.194303,0 -0.30868,0.13229 -0.114377,0.13092 -0.114377,0.35554 v 0.8723 h -0.254937 v -1.54341 h 0.254937 v 0.23978 q 0.08682,-0.14194 0.208084,-0.20946 0.121267,-0.0675 0.28801,-0.0675 0.16812,0 0.285253,0.0854 0.118512,0.0854 0.175011,0.24805 z"
         style="font-size:2.82222223px;line-height:2;text-align:center;text-anchor:middle;stroke-width:0.26458332"
         id="path7940"
         inkscape:connector-curvature="0" />
      <path
         d="m 19.318028,285.91034 v 0.81855 h -0.254937 v -2.13045 h 0.254937 v 0.23427 q 0.07993,-0.1378 0.201194,-0.20395 0.122645,-0.0675 0.292144,-0.0675 0.28112,0 0.456131,0.22324 0.176389,0.22324 0.176389,0.58704 0,0.3638 -0.176389,0.58705 -0.175011,0.22324 -0.456131,0.22324 -0.169499,0 -0.292144,-0.0661 -0.121267,-0.0675 -0.201194,-0.20532 z m 0.862652,-0.53882 q 0,-0.27974 -0.115755,-0.43821 -0.114377,-0.15986 -0.315571,-0.15986 -0.201193,0 -0.316948,0.15986 -0.114378,0.15847 -0.114378,0.43821 0,0.27974 0.114378,0.4396 0.115755,0.15847 0.316948,0.15847 0.201194,0 0.315571,-0.15847 0.115755,-0.15986 0.115755,-0.4396 z"
         style="font-size:2.82222223px;line-height:2;text-align:center;text-anchor:middle;stroke-width:0.26458332"
         id="path7942"
         inkscape:connector-curvature="0" />
    </g>
    <g
       aria-label="Sin      Cos "
       style="font-style:normal;font-weight:normal;font-size:10.58333302px;line-height:2;font-family:sans-serif;text-align:center;letter-spacing:0px;word-spacing:0px;text-anchor:middle;fill:#000000;fill-opacity:1;stroke:none;stroke-width:0.26458332"
       id="text3831-3"
       transform="translate(1.4331605,-8.5950003)">
      <path
         d="m 5.8601074,267.05259 v 0.27148 q -0.1584744,-0.0758 -0.2990343,-0.113 -0.1405599,-0.0372 -0.2714735,-0.0372 -0.2273763,0 -0.3513998,0.0882 -0.1226454,0.0882 -0.1226454,0.2508 0,0.13642 0.081304,0.2067 0.082682,0.0689 0.3114366,0.11162 l 0.1681207,0.0345 q 0.3114366,0.0593 0.4588867,0.20946 0.1488281,0.14883 0.1488281,0.39963 0,0.29903 -0.2011935,0.45337 -0.1998156,0.15434 -0.5870443,0.15434 -0.1460721,0 -0.3114366,-0.0331 -0.1639866,-0.0331 -0.3403755,-0.0978 v -0.28663 q 0.1694987,0.0951 0.3321072,0.14331 0.1626085,0.0482 0.3197049,0.0482 0.2384006,0 0.3679362,-0.0937 0.1295356,-0.0937 0.1295356,-0.26734 0,-0.15158 -0.093707,-0.23702 -0.092329,-0.0854 -0.3045465,-0.12816 l -0.1694987,-0.0331 q -0.3114366,-0.062 -0.4506185,-0.19431 -0.1391818,-0.13229 -0.1391818,-0.36793 0,-0.27285 0.1915473,-0.42995 0.1929253,-0.1571 0.5305447,-0.1571 0.144694,0 0.2949002,0.0262 0.1502061,0.0262 0.3073025,0.0785 z"
         style="font-size:2.82222223px;line-height:2;text-align:center;text-anchor:middle;stroke-width:0.26458332"
         id="path7913"
         inkscape:connector-curvature="0" />
      <path
         d="m 6.4071886,267.49908 h 0.253559 v 1.5434 h -0.253559 z m 0,-0.60083 h 0.253559 v 0.32109 h -0.253559 z"
         style="font-size:2.82222223px;line-height:2;text-align:center;text-anchor:middle;stroke-width:0.26458332"
         id="path7915"
         inkscape:connector-curvature="0" />
      <path
         d="m 8.4728678,268.11093 v 0.93155 h -0.253559 v -0.92329 q 0,-0.2191 -0.085438,-0.32797 -0.085438,-0.10886 -0.2563151,-0.10886 -0.2053277,0 -0.323839,0.13091 -0.1185112,0.13091 -0.1185112,0.35691 v 0.8723 H 7.180268 v -1.5434 h 0.2549371 v 0.23978 q 0.09095,-0.13919 0.2135959,-0.20809 0.1240234,-0.0689 0.2852539,-0.0689 0.2659614,0 0.4023871,0.16537 0.1364258,0.16398 0.1364258,0.48369 z"
         style="font-size:2.82222223px;line-height:2;text-align:center;text-anchor:middle;stroke-width:0.26458332"
         id="path7917"
         inkscape:connector-curvature="0" />
    </g>
    <g
       aria-label="Circle
VCO"
       style="font-style:normal;font-weight:normal;font-size:2.82222247px;line-height:1.25;font-family:sans-serif;text-align:center;letter-spacing:0px;word-spacing:0px;text-anchor:middle;fill:#000000;fill-opacity:1;stroke:none;stroke-width:0.26458335"
       id="text5403">
      <path
         d="m 5.2468805,203.04859 v 0.3669 q -0.1756999,-0.16364 -0.3755154,-0.2446 -0.198093,-0.081 -0.4220243,-0.081 -0.4409722,0 -0.6752387,0.27044 -0.2342665,0.26871 -0.2342665,0.77859 0,0.50815 0.2342665,0.77859 0.2342665,0.26872 0.6752387,0.26872 0.2239313,0 0.4220243,-0.081 0.1998155,-0.081 0.3755154,-0.2446 v 0.36345 q -0.1825901,0.12403 -0.3875733,0.18604 -0.2032606,0.062 -0.4306369,0.062 -0.5839437,0 -0.9198406,-0.35657 -0.3358968,-0.35829 -0.3358968,-0.97668 0,-0.62012 0.3358968,-0.97669 0.3358969,-0.35829 0.9198406,-0.35829 0.2308214,0 0.434082,0.062 0.2049832,0.0603 0.3841282,0.18259 z"
         style="font-size:3.52777791px;line-height:1.25;stroke-width:0.26458335"
         id="path5407" />
      <path
         d="m 5.77398,203.493 h 0.3169488 v 1.92926 H 5.77398 Z m 0,-0.75103 h 0.3169488 v 0.40136 H 5.77398 Z"
         style="font-size:3.52777791px;line-height:1.25;stroke-width:0.26458335"
         id="path5409" />
      <path
         d="m 7.8703207,203.78928 q -0.053399,-0.031 -0.1171332,-0.0448 -0.062012,-0.0155 -0.1378039,-0.0155 -0.2687174,0 -0.4134114,0.1757 -0.1429715,0.17398 -0.1429715,0.50126 v 1.01631 H 6.7403294 V 203.493 h 0.3186713 v 0.29973 q 0.099908,-0.1757 0.2601047,-0.26011 0.160197,-0.0861 0.3892958,-0.0861 0.032728,0 0.072347,0.005 0.039619,0.003 0.08785,0.0121 z"
         style="font-size:3.52777791px;line-height:1.25;stroke-width:0.26458335"
         id="path5411" />
      <path
         d="m 9.5187991,203.56707 v 0.29628 q -0.1343587,-0.0741 -0.27044,-0.11024 -0.1343587,-0.0379 -0.2721625,-0.0379 -0.3083361,0 -0.4788683,0.19637 -0.1705323,0.19465 -0.1705323,0.54777 0,0.35312 0.1705323,0.54949 0.1705322,0.19465 0.4788683,0.19465 0.1378038,0 0.2721625,-0.0362 0.1360813,-0.0379 0.27044,-0.11197 v 0.29284 q -0.1326362,0.062 -0.2756076,0.093 -0.1412489,0.031 -0.3014459,0.031 -0.4358046,0 -0.6924642,-0.27388 -0.2566596,-0.27389 -0.2566596,-0.73898 0,-0.47198 0.2583821,-0.74242 0.2601048,-0.27044 0.7114123,-0.27044 0.1464166,0 0.2859429,0.031 0.1395264,0.0293 0.27044,0.0896 z"
         style="font-size:3.52777791px;line-height:1.25;stroke-width:0.26458335"
         id="path5413" />
      <path
         d="m 10.073459,202.74197 h 0.316949 v 2.68029 h -0.316949 z"
         style="font-size:3.52777791px;line-height:1.25;stroke-width:0.26458335"
         id="path5415" />
      <path
         d="m 12.702067,204.37839 v 0.15503 h -1.457275 q 0.02067,0.32729 0.19637,0.49954 0.177423,0.17053 0.492649,0.17053 0.18259,0 0.353122,-0.0448 0.172255,-0.0448 0.341065,-0.13436 v 0.29972 q -0.170532,0.0724 -0.349677,0.11024 -0.179145,0.0379 -0.363458,0.0379 -0.461643,0 -0.732083,-0.26872 -0.268717,-0.26871 -0.268717,-0.72691 0,-0.4737 0.254937,-0.75103 0.25666,-0.27906 0.690742,-0.27906 0.389295,0 0.614949,0.2515 0.227376,0.24977 0.227376,0.6804 z m -0.316948,-0.093 q -0.0034,-0.2601 -0.146417,-0.41513 -0.141249,-0.15503 -0.375515,-0.15503 -0.265273,0 -0.42547,0.14986 -0.158474,0.14986 -0.18259,0.42203 z"
         style="font-size:3.52777791px;line-height:1.25;stroke-width:0.26458335"
         id="path5417" />
      <path
         d="m 5.1142443,209.83198 -0.9818522,-2.57177 h 0.3634575 l 0.8147652,2.16525 0.8164876,-2.16525 h 0.3617351 l -0.9801297,2.57177 z"
         style="font-size:3.52777791px;line-height:1.25;stroke-width:0.26458335"
         id="path5419" />
      <path
         d="m 8.7884388,207.45831 v 0.3669 q -0.1756999,-0.16364 -0.3755154,-0.2446 -0.198093,-0.081 -0.4220242,-0.081 -0.4409723,0 -0.6752388,0.27044 -0.2342665,0.26872 -0.2342665,0.77859 0,0.50815 0.2342665,0.77859 0.2342665,0.26872 0.6752388,0.26872 0.2239312,0 0.4220242,-0.081 0.1998155,-0.081 0.3755154,-0.2446 v 0.36346 q -0.18259,0.12402 -0.3875732,0.18603 -0.2032607,0.062 -0.430637,0.062 -0.5839437,0 -0.9198405,-0.35656 -0.3358968,-0.35829 -0.3358968,-0.97669 0,-0.62012 0.3358968,-0.97668 0.3358968,-0.35829 0.9198405,-0.35829 0.2308214,0 0.4340821,0.062 0.2049831,0.0603 0.3841281,0.18259 z"
         style="font-size:3.52777791px;line-height:1.25;stroke-width:0.26458335"
         id="path5421" />
      <path
         d="m 10.373183,207.4962 q -0.3789608,0 -0.602892,0.2825 -0.2222087,0.2825 -0.2222087,0.76998 0,0.48576 0.2222087,0.76826 0.2239312,0.28249 0.602892,0.28249 0.37896,0 0.599446,-0.28249 0.222209,-0.2825 0.222209,-0.76826 0,-0.48748 -0.222209,-0.76998 -0.220486,-0.2825 -0.599446,-0.2825 z m 0,-0.28249 q 0.54088,0 0.864719,0.36345 0.323839,0.36174 0.323839,0.97152 0,0.60806 -0.323839,0.97152 -0.323839,0.36173 -0.864719,0.36173 -0.5426028,0 -0.8681644,-0.36173 -0.3238389,-0.36174 -0.3238389,-0.97152 0,-0.60978 0.3238389,-0.97152 0.3255616,-0.36345 0.8681644,-0.36345 z"
         style="font-size:3.52777791px;line-height:1.25;stroke-width:0.26458335"
         id="path5423" />
    </g>
    <g
       id="g5450"
       transform="translate(-21.166668,5.320467)">
      <path
         inkscape:connector-curvature="0"
         id="path7919"
         style="font-style:normal;font-weight:normal;font-size:2.82222223px;line-height:2;font-family:sans-serif;text-align:center;letter-spacing:0px;word-spacing:0px;text-anchor:middle;display:inline;fill:#000000;fill-opacity:1;stroke:none;stroke-width:0.26458332"
         d="m 28.326958,266.45729 v 0.29353 q -0.14056,-0.13092 -0.300413,-0.19569 -0.158474,-0.0648 -0.337619,-0.0648 -0.352778,0 -0.540191,0.21635 -0.187413,0.21497 -0.187413,0.62287 0,0.40652 0.187413,0.62288 0.187413,0.21497 0.540191,0.21497 0.179145,0 0.337619,-0.0648 0.159853,-0.0648 0.300413,-0.19568 v 0.29077 q -0.146072,0.0992 -0.310059,0.14882 -0.162608,0.0496 -0.344509,0.0496 -0.467155,0 -0.735873,-0.28525 -0.268717,-0.28663 -0.268717,-0.78135 0,-0.49609 0.268717,-0.78135 0.268718,-0.28663 0.735873,-0.28663 0.184657,0 0.347265,0.0496 0.163987,0.0482 0.307303,0.14607 z" />
      <path
         inkscape:connector-curvature="0"
         id="path7921"
         style="font-style:normal;font-weight:normal;font-size:2.82222223px;line-height:2;font-family:sans-serif;text-align:center;letter-spacing:0px;word-spacing:0px;text-anchor:middle;display:inline;fill:#000000;fill-opacity:1;stroke:none;stroke-width:0.26458332"
         d="m 29.346706,266.99059 q -0.20395,0 -0.322461,0.15986 -0.118511,0.15847 -0.118511,0.43546 0,0.27698 0.117133,0.43684 0.118511,0.15847 0.323839,0.15847 0.202571,0 0.321083,-0.15985 0.118511,-0.15986 0.118511,-0.43546 0,-0.27423 -0.118511,-0.43408 -0.118512,-0.16124 -0.321083,-0.16124 z m 0,-0.21497 q 0.330729,0 0.51952,0.21497 0.188791,0.21498 0.188791,0.59532 0,0.37896 -0.188791,0.59531 -0.188791,0.21497 -0.51952,0.21497 -0.332107,0 -0.520899,-0.21497 -0.187413,-0.21635 -0.187413,-0.59531 0,-0.38034 0.187413,-0.59532 0.188792,-0.21497 0.520899,-0.21497 z" />
      <path
         inkscape:connector-curvature="0"
         id="path7923"
         style="font-style:normal;font-weight:normal;font-size:2.82222223px;line-height:2;font-family:sans-serif;text-align:center;letter-spacing:0px;word-spacing:0px;text-anchor:middle;display:inline;fill:#000000;fill-opacity:1;stroke:none;stroke-width:0.26458332"
         d="m 31.45786,266.8583 v 0.23978 q -0.107487,-0.0551 -0.223242,-0.0827 -0.115755,-0.0276 -0.239779,-0.0276 -0.188791,0 -0.283876,0.0579 -0.09371,0.0579 -0.09371,0.17363 0,0.0882 0.06752,0.13918 0.06752,0.0496 0.271472,0.0951 l 0.08682,0.0193 q 0.270095,0.0579 0.383094,0.16398 0.114377,0.10474 0.114377,0.29353 0,0.21497 -0.170876,0.34037 -0.169499,0.1254 -0.467155,0.1254 -0.124024,0 -0.259071,-0.0248 -0.13367,-0.0234 -0.282498,-0.0717 v -0.26183 q 0.14056,0.073 0.276985,0.11025 0.136426,0.0358 0.270096,0.0358 0.179145,0 0.275607,-0.0606 0.09646,-0.062 0.09646,-0.17363 0,-0.10335 -0.07028,-0.15848 -0.0689,-0.0551 -0.304546,-0.1061 l -0.0882,-0.0207 q -0.235644,-0.0496 -0.340375,-0.15159 -0.104731,-0.10335 -0.104731,-0.2825 0,-0.21773 0.15434,-0.33624 0.154341,-0.11851 0.438216,-0.11851 0.14056,0 0.264584,0.0207 0.124023,0.0207 0.228754,0.062 z" />
    </g>
  </g>
</svg>
