<?xml version="1.0" encoding="UTF-8" standalone="no"?>
<!-- Created with Inkscape (http://www.inkscape.org/) -->

<svg
   xmlns:dc="http://purl.org/dc/elements/1.1/"
   xmlns:cc="http://creativecommons.org/ns#"
   xmlns:rdf="http://www.w3.org/1999/02/22-rdf-syntax-ns#"
   xmlns:svg="http://www.w3.org/2000/svg"
   xmlns="http://www.w3.org/2000/svg"
   xmlns:sodipodi="http://sodipodi.sourceforge.net/DTD/sodipodi-0.dtd"
   xmlns:inkscape="http://www.inkscape.org/namespaces/inkscape"
   width="60"
   height="380"
   viewBox="0 0 15.875001 100.54167"
   version="1.1"
   id="svg8"
   inkscape:version="0.92.2 5c3e80d, 2017-08-06"
   sodipodi:docname="Modulo.svg"
   enable-background="new">
  <defs
     id="defs2" />
  <sodipodi:namedview
     id="base"
     pagecolor="#ffffff"
     bordercolor="#666666"
     borderopacity="1.0"
     inkscape:pageopacity="0.0"
     inkscape:pageshadow="2"
     inkscape:zoom="1.979899"
     inkscape:cx="-52.229151"
     inkscape:cy="312.75684"
     inkscape:document-units="px"
     inkscape:current-layer="layer1"
     showgrid="false"
     units="px"
     inkscape:snap-bbox="true"
     inkscape:snap-page="true"
     inkscape:bbox-nodes="false"
     inkscape:snap-bbox-edge-midpoints="false"
     inkscape:window-width="1358"
     inkscape:window-height="730"
     inkscape:window-x="0"
     inkscape:window-y="34"
     inkscape:window-maximized="0"
     showguides="false"
     inkscape:snap-global="false"
     inkscape:bbox-paths="true"
     inkscape:snap-nodes="true" />
  <metadata
     id="metadata5">
    <rdf:RDF>
      <cc:Work
         rdf:about="">
        <dc:format>image/svg+xml</dc:format>
        <dc:type
           rdf:resource="http://purl.org/dc/dcmitype/StillImage" />
        <dc:title></dc:title>
      </cc:Work>
    </rdf:RDF>
  </metadata>
  <g
     inkscape:label="Layer 1"
     inkscape:groupmode="layer"
     id="layer1"
     transform="translate(0,-196.45832)"
     style="display:inline;">
    <path
       style="opacity:1;vector-effect:none;fill:#f0f0f0;fill-opacity:1;fill-rule:evenodd;stroke:none;stroke-width:0.39687505;stroke-linecap:butt;stroke-linejoin:round;stroke-miterlimit:4;stroke-dasharray:none;stroke-dashoffset:0;stroke-opacity:1;paint-order:normal"
       d="M 0,196.45832 H 15.875001 V 296.99999 H 0 Z"
       id="rect817"
       inkscape:connector-curvature="0" />
    <g
       aria-label="My Module"
       style="font-style:normal;font-variant:normal;font-weight:normal;font-stretch:normal;font-size:3.88055563px;line-height:6.61458302px;font-family:DINPro;-inkscape-font-specification:DINPro;font-variant-ligatures:normal;font-variant-caps:normal;font-variant-numeric:normal;font-feature-settings:normal;text-align:center;letter-spacing:0px;word-spacing:0px;writing-mode:lr-tb;text-anchor:middle;display:inline;fill:#000000;fill-opacity:1;stroke:none;stroke-width:0.26458332px;stroke-linecap:butt;stroke-linejoin:miter;stroke-opacity:1"
       id="text925-9"
       transform="translate(4.9988429,-5.5115638)">
      <g
         aria-label="Modulo"
         style="font-style:normal;font-weight:normal;font-size:3.88055563px;line-height:1.25;font-family:sans-serif;letter-spacing:0px;word-spacing:0px;fill:#000000;fill-opacity:1;stroke:none;stroke-width:0.07000434px"
         id="text7966">
        <path
           d="m -3.8144185,210.92532 h 0.5703355 l 0.7219198,1.92512 0.7257094,-1.92512 h 0.5703355 v 2.82894 h -0.3732761 v -2.48409 l -0.7294989,1.94028 h -0.384645 l -0.7294989,-1.94028 v 2.48409 h -0.3713813 z"
           style="font-size:3.88055563px;stroke-width:0.07000434px"
           id="path8159"
           inkscape:connector-curvature="0" />
        <path
           d="m 0.34277822,211.87651 q -0.28043078,0 -0.4433838,0.21979 -0.16295302,0.21791 -0.16295302,0.59876 0,0.38086 0.16105822,0.60065 0.16295302,0.21791 0.4452786,0.21791 0.27853598,0 0.441489,-0.2198 0.16295302,-0.2198 0.16295302,-0.59876 0,-0.37706 -0.16295302,-0.59686 -0.16295302,-0.22169 -0.441489,-0.22169 z m 0,-0.29559 q 0.45475261,0 0.71434058,0.29559 0.2595879,0.29559 0.2595879,0.81855 0,0.52107 -0.2595879,0.81856 -0.25958797,0.29559 -0.71434058,0.29559 -0.45664741,0 -0.71623536,-0.29559 -0.25769315,-0.29749 -0.25769315,-0.81856 0,-0.52296 0.25769315,-0.81855 0.25958795,-0.29559 0.71623536,-0.29559 z"
           style="font-size:3.88055563px;stroke-width:0.07000434px"
           id="path8161"
           inkscape:connector-curvature="0" />
        <path
           d="m 3.2891959,211.95419 v -1.14825 h 0.3486437 v 2.94832 H 3.2891959 v -0.31833 q -0.1098985,0.18948 -0.278536,0.28233 -0.1667426,0.091 -0.4016981,0.091 -0.3846449,0 -0.6271796,-0.30696 -0.24064,-0.30696 -0.24064,-0.80719 0,-0.50023 0.24064,-0.80718 0.2425347,-0.30696 0.6271796,-0.30696 0.2349555,0 0.4016981,0.0928 0.1686375,0.091 0.278536,0.28043 z m -1.1880412,0.74087 q 0,0.38465 0.1572686,0.60444 0.1591634,0.21791 0.4358046,0.21791 0.2766412,0 0.4358046,-0.21791 0.1591634,-0.21979 0.1591634,-0.60444 0,-0.38464 -0.1591634,-0.60254 -0.1591634,-0.2198 -0.4358046,-0.2198 -0.2766412,0 -0.4358046,0.2198 -0.1572686,0.2179 -0.1572686,0.60254 z"
           style="font-size:3.88055563px;stroke-width:0.07000434px"
           id="path8163"
           inkscape:connector-curvature="0" />
        <path
           d="m 4.3199687,212.91675 v -1.28467 h 0.3486436 v 1.27141 q 0,0.30127 0.1174778,0.45286 0.1174778,0.14969 0.3524333,0.14969 0.2823256,0 0.4452786,-0.18001 0.1648478,-0.18 0.1648478,-0.49075 v -1.2032 h 0.3486437 v 2.12218 H 5.7486498 v -0.32591 q -0.1269518,0.19327 -0.2955892,0.28801 -0.1667426,0.0928 -0.3884345,0.0928 -0.3656969,0 -0.5551772,-0.22738 -0.1894802,-0.22738 -0.1894802,-0.66508 z m 0.8772935,-1.33583 z"
           style="font-size:3.88055563px;stroke-width:0.07000434px"
           id="path8165"
           inkscape:connector-curvature="0" />
        <path
           d="m 6.8192134,210.80594 h 0.3486437 v 2.94832 H 6.8192134 Z"
           style="font-size:3.88055563px;stroke-width:0.07000434px"
           id="path8167"
           inkscape:connector-curvature="0" />
        <path
           d="m 8.7178049,211.87651 q -0.2804308,0 -0.4433838,0.21979 -0.162953,0.21791 -0.162953,0.59876 0,0.38086 0.1610582,0.60065 0.162953,0.21791 0.4452786,0.21791 0.278536,0 0.441489,-0.2198 0.162953,-0.2198 0.162953,-0.59876 0,-0.37706 -0.162953,-0.59686 -0.162953,-0.22169 -0.441489,-0.22169 z m 0,-0.29559 q 0.4547526,0 0.7143406,0.29559 0.2595879,0.29559 0.2595879,0.81855 0,0.52107 -0.2595879,0.81856 -0.259588,0.29559 -0.7143406,0.29559 -0.4566474,0 -0.7162353,-0.29559 -0.2576932,-0.29749 -0.2576932,-0.81856 0,-0.52296 0.2576932,-0.81855 0.2595879,-0.29559 0.7162353,-0.29559 z"
           style="font-size:3.88055563px;stroke-width:0.07000434px"
           id="path8169"
           inkscape:connector-curvature="0" />
      </g>
    </g>
    <g
       aria-label="Wrapped"
       style="font-style:normal;font-weight:normal;font-size:2.82222247px;line-height:1.25;font-family:sans-serif;letter-spacing:0px;word-spacing:0px;fill:#000000;fill-opacity:1;stroke:none;stroke-width:0.26458335"
       id="text8048">
      <path
         d="m 1.7790471,281.80874 h 0.2811198 l 0.432704,1.73908 0.431326,-1.73908 h 0.3128147 l 0.432704,1.73908 0.431326,-1.73908 h 0.2824979 l -0.5167644,2.05741 H 3.5167534 l -0.4340821,-1.78594 -0.4382162,1.78594 H 2.2944334 Z"
         style="font-size:2.82222247px;text-align:center;text-anchor:middle;stroke-width:0.26458335"
         id="path8105" />
      <path
         d="m 5.5080187,282.55977 q -0.042719,-0.0248 -0.093707,-0.0358 -0.049609,-0.0124 -0.1102431,-0.0124 -0.214974,0 -0.3307292,0.14056 -0.1143772,0.13918 -0.1143772,0.40101 v 0.81304 H 4.6040255 v -1.5434 h 0.2549371 v 0.23978 q 0.079926,-0.14056 0.2080838,-0.20809 0.1281576,-0.0689 0.3114367,-0.0689 0.026183,0 0.057878,0.004 0.031695,0.003 0.07028,0.01 z"
         style="font-size:2.82222247px;text-align:center;text-anchor:middle;stroke-width:0.26458335"
         id="path8107" />
      <path
         d="m 6.4781576,283.09031 q -0.3073026,0 -0.4258139,0.0703 -0.1185113,0.0703 -0.1185113,0.23978 0,0.13505 0.088195,0.21498 0.089573,0.0786 0.2425347,0.0786 0.2108399,0 0.3376194,-0.14883 0.1281576,-0.15021 0.1281576,-0.39826 v -0.0565 z m 0.50574,-0.10473 v 0.88057 h -0.253559 v -0.23427 q -0.086816,0.14056 -0.216352,0.20809 -0.1295357,0.0661 -0.3169489,0.0661 -0.2370226,0 -0.3775825,-0.13229 -0.1391818,-0.13367 -0.1391818,-0.35691 0,-0.26045 0.1736328,-0.39274 0.1750109,-0.13229 0.5208985,-0.13229 h 0.3555339 v -0.0248 q 0,-0.17501 -0.1157553,-0.27009 -0.1143771,-0.0965 -0.3224609,-0.0965 -0.1322917,0 -0.2576932,0.0317 -0.1254015,0.0317 -0.2411567,0.0951 v -0.23426 q 0.1391819,-0.0538 0.2700955,-0.0799 0.1309137,-0.0276 0.2549371,-0.0276 0.3348633,0 0.5002279,0.17363 0.1653646,0.17364 0.1653646,0.52641 z"
         style="font-size:2.82222247px;text-align:center;text-anchor:middle;stroke-width:0.26458335"
         id="path8109" />
      <path
         d="m 7.7528432,283.63464 v 0.81855 H 7.4979061 v -2.13044 h 0.2549371 v 0.23426 q 0.079926,-0.1378 0.2011936,-0.20395 0.1226454,-0.0675 0.2921442,-0.0675 0.2811198,0 0.4561306,0.22324 0.1763889,0.22324 0.1763889,0.58705 0,0.3638 -0.1763889,0.58704 -0.1750108,0.22324 -0.4561306,0.22324 -0.1694988,0 -0.2921442,-0.0661 -0.1212673,-0.0675 -0.2011936,-0.20533 z m 0.862652,-0.53881 q 0,-0.27975 -0.1157552,-0.43822 -0.1143772,-0.15985 -0.3155708,-0.15985 -0.2011936,0 -0.3169488,0.15985 -0.1143772,0.15847 -0.1143772,0.43822 0,0.27974 0.1143772,0.43959 0.1157552,0.15848 0.3169488,0.15848 0.2011936,0 0.3155708,-0.15848 0.1157552,-0.15985 0.1157552,-0.43959 z"
         style="font-size:2.82222247px;text-align:center;text-anchor:middle;stroke-width:0.26458335"
         id="path8111" />
      <path
         d="m 9.5442928,283.63464 v 0.81855 H 9.2893557 v -2.13044 h 0.2549371 v 0.23426 q 0.079926,-0.1378 0.2011936,-0.20395 0.1226454,-0.0675 0.2921446,-0.0675 0.281119,0 0.45613,0.22324 0.176389,0.22324 0.176389,0.58705 0,0.3638 -0.176389,0.58704 -0.175011,0.22324 -0.45613,0.22324 -0.1694992,0 -0.2921446,-0.0661 -0.1212674,-0.0675 -0.2011936,-0.20533 z m 0.8626522,-0.53881 q 0,-0.27975 -0.115755,-0.43822 -0.114378,-0.15985 -0.3155712,-0.15985 -0.2011936,0 -0.3169488,0.15985 -0.1143772,0.15847 -0.1143772,0.43822 0,0.27974 0.1143772,0.43959 0.1157552,0.15848 0.3169488,0.15848 0.2011932,0 0.3155712,-0.15848 0.115755,-0.15985 0.115755,-0.43959 z"
         style="font-size:2.82222247px;text-align:center;text-anchor:middle;stroke-width:0.26458335"
         id="path8113" />
      <path
         d="m 12.410612,283.03106 v 0.12402 h -1.16582 q 0.01654,0.26183 0.157096,0.39963 0.141938,0.13643 0.394119,0.13643 0.146072,0 0.282498,-0.0358 0.137804,-0.0358 0.272852,-0.10749 v 0.23978 q -0.136426,0.0579 -0.279742,0.0882 -0.143316,0.0303 -0.290766,0.0303 -0.369315,0 -0.585667,-0.21497 -0.214974,-0.21497 -0.214974,-0.58153 0,-0.37896 0.20395,-0.60083 0.205328,-0.22324 0.552593,-0.22324 0.311437,0 0.49196,0.20119 0.181901,0.19982 0.181901,0.54433 z m -0.253559,-0.0744 q -0.0028,-0.20808 -0.117133,-0.3321 -0.112999,-0.12403 -0.300412,-0.12403 -0.212218,0 -0.340376,0.11989 -0.126779,0.11989 -0.146072,0.33762 z"
         style="font-size:2.82222247px;text-align:center;text-anchor:middle;stroke-width:0.26458335"
         id="path8115" />
      <path
         d="m 13.842395,282.55701 v -0.83509 h 0.253559 v 2.14423 h -0.253559 v -0.23151 q -0.07993,0.1378 -0.202572,0.20533 -0.121267,0.0661 -0.292144,0.0661 -0.279742,0 -0.456131,-0.22324 -0.17501,-0.22324 -0.17501,-0.58704 0,-0.36381 0.17501,-0.58705 0.176389,-0.22324 0.456131,-0.22324 0.170877,0 0.292144,0.0675 0.122646,0.0661 0.202572,0.20395 z m -0.86403,0.53882 q 0,0.27974 0.114377,0.43959 0.115755,0.15848 0.316949,0.15848 0.201193,0 0.316949,-0.15848 0.115755,-0.15985 0.115755,-0.43959 0,-0.27975 -0.115755,-0.43822 -0.115756,-0.15985 -0.316949,-0.15985 -0.201194,0 -0.316949,0.15985 -0.114377,0.15847 -0.114377,0.43822 z"
         style="font-size:2.82222247px;text-align:center;text-anchor:middle;stroke-width:0.26458335"
         id="path8117" />
    </g>
    <path
       style="fill:none;stroke:#000000;stroke-width:0.26458335px;stroke-linecap:butt;stroke-linejoin:miter;stroke-opacity:1"
       d="m -0.26189716,278.76186 5.54584306,-5.54585 v 5.94675 l 2.706104,-2.7061 v 2.7061 l 6.0970861,-6.09708 v 5.96345 l 2.777055,-1.60334"
       id="path8101"
       inkscape:connector-curvature="0" />
    <g
       transform="translate(4.9988429,-5.5115638)"
       id="g3824"
       style="font-style:normal;font-variant:normal;font-weight:normal;font-stretch:normal;font-size:3.88055563px;line-height:6.61458302px;font-family:DINPro;-inkscape-font-specification:DINPro;font-variant-ligatures:normal;font-variant-caps:normal;font-variant-numeric:normal;font-feature-settings:normal;text-align:center;letter-spacing:0px;word-spacing:0px;writing-mode:lr-tb;text-anchor:middle;display:inline;fill:#000000;fill-opacity:1;stroke:none;stroke-width:0.26458332px;stroke-linecap:butt;stroke-linejoin:miter;stroke-opacity:1"
       aria-label="My Module">
      <g
         id="g3822"
         style="font-style:normal;font-weight:normal;font-size:3.88055563px;line-height:1.25;font-family:sans-serif;letter-spacing:0px;word-spacing:0px;fill:#000000;fill-opacity:1;stroke:none;stroke-width:0.07000434px"
         aria-label="Modulo">
        <path
           inkscape:connector-curvature="0"
           id="path3810"
           style="font-size:3.88055563px;stroke-width:0.07000434px"
           d="m -3.8144185,210.92532 h 0.5703355 l 0.7219198,1.92512 0.7257094,-1.92512 h 0.5703355 v 2.82894 h -0.3732761 v -2.48409 l -0.7294989,1.94028 h -0.384645 l -0.7294989,-1.94028 v 2.48409 h -0.3713813 z" />
        <path
           inkscape:connector-curvature="0"
           id="path3812"
           style="font-size:3.88055563px;stroke-width:0.07000434px"
           d="m 0.34277822,211.87651 q -0.28043078,0 -0.4433838,0.21979 -0.16295302,0.21791 -0.16295302,0.59876 0,0.38086 0.16105822,0.60065 0.16295302,0.21791 0.4452786,0.21791 0.27853598,0 0.441489,-0.2198 0.16295302,-0.2198 0.16295302,-0.59876 0,-0.37706 -0.16295302,-0.59686 -0.16295302,-0.22169 -0.441489,-0.22169 z m 0,-0.29559 q 0.45475261,0 0.71434058,0.29559 0.2595879,0.29559 0.2595879,0.81855 0,0.52107 -0.2595879,0.81856 -0.25958797,0.29559 -0.71434058,0.29559 -0.45664741,0 -0.71623536,-0.29559 -0.25769315,-0.29749 -0.25769315,-0.81856 0,-0.52296 0.25769315,-0.81855 0.25958795,-0.29559 0.71623536,-0.29559 z" />
        <path
           inkscape:connector-curvature="0"
           id="path3814"
           style="font-size:3.88055563px;stroke-width:0.07000434px"
           d="m 3.2891959,211.95419 v -1.14825 h 0.3486437 v 2.94832 H 3.2891959 v -0.31833 q -0.1098985,0.18948 -0.278536,0.28233 -0.1667426,0.091 -0.4016981,0.091 -0.3846449,0 -0.6271796,-0.30696 -0.24064,-0.30696 -0.24064,-0.80719 0,-0.50023 0.24064,-0.80718 0.2425347,-0.30696 0.6271796,-0.30696 0.2349555,0 0.4016981,0.0928 0.1686375,0.091 0.278536,0.28043 z m -1.1880412,0.74087 q 0,0.38465 0.1572686,0.60444 0.1591634,0.21791 0.4358046,0.21791 0.2766412,0 0.4358046,-0.21791 0.1591634,-0.21979 0.1591634,-0.60444 0,-0.38464 -0.1591634,-0.60254 -0.1591634,-0.2198 -0.4358046,-0.2198 -0.2766412,0 -0.4358046,0.2198 -0.1572686,0.2179 -0.1572686,0.60254 z" />
        <path
           inkscape:connector-curvature="0"
           id="path3816"
           style="font-size:3.88055563px;stroke-width:0.07000434px"
           d="m 4.3199687,212.91675 v -1.28467 h 0.3486436 v 1.27141 q 0,0.30127 0.1174778,0.45286 0.1174778,0.14969 0.3524333,0.14969 0.2823256,0 0.4452786,-0.18001 0.1648478,-0.18 0.1648478,-0.49075 v -1.2032 h 0.3486437 v 2.12218 H 5.7486498 v -0.32591 q -0.1269518,0.19327 -0.2955892,0.28801 -0.1667426,0.0928 -0.3884345,0.0928 -0.3656969,0 -0.5551772,-0.22738 -0.1894802,-0.22738 -0.1894802,-0.66508 z m 0.8772935,-1.33583 z" />
        <path
           inkscape:connector-curvature="0"
           id="path3818"
           style="font-size:3.88055563px;stroke-width:0.07000434px"
           d="m 6.8192134,210.80594 h 0.3486437 v 2.94832 H 6.8192134 Z" />
        <path
           inkscape:connector-curvature="0"
           id="path3820"
           style="font-size:3.88055563px;stroke-width:0.07000434px"
           d="m 8.7178049,211.87651 q -0.2804308,0 -0.4433838,0.21979 -0.162953,0.21791 -0.162953,0.59876 0,0.38086 0.1610582,0.60065 0.162953,0.21791 0.4452786,0.21791 0.278536,0 0.441489,-0.2198 0.162953,-0.2198 0.162953,-0.59876 0,-0.37706 -0.162953,-0.59686 -0.162953,-0.22169 -0.441489,-0.22169 z m 0,-0.29559 q 0.4547526,0 0.7143406,0.29559 0.2595879,0.29559 0.2595879,0.81855 0,0.52107 -0.2595879,0.81856 -0.259588,0.29559 -0.7143406,0.29559 -0.4566474,0 -0.7162353,-0.29559 -0.2576932,-0.29749 -0.2576932,-0.81856 0,-0.52296 0.2576932,-0.81855 0.2595879,-0.29559 0.7162353,-0.29559 z" />
      </g>
    </g>
    <g
       id="g3860"
       style="font-style:normal;font-weight:normal;font-size:2.82222247px;line-height:1.25;font-family:sans-serif;text-align:center;letter-spacing:0px;word-spacing:0px;text-anchor:middle;fill:#000000;fill-opacity:1;stroke:none;stroke-width:0.26458335"
       aria-label="Staircase"
       transform="translate(0,-3.1748906)">
      <path
         id="path3842"
         style="font-size:2.82222247px;text-align:center;text-anchor:middle;stroke-width:0.26458335"
         d="m 2.9255753,263.41395 v 0.27148 q -0.1584744,-0.0758 -0.2990343,-0.113 -0.1405599,-0.0372 -0.2714735,-0.0372 -0.2273764,0 -0.3513998,0.0882 -0.1226454,0.0882 -0.1226454,0.25081 0,0.13642 0.081304,0.2067 0.082682,0.0689 0.3114367,0.11162 l 0.1681207,0.0344 q 0.3114366,0.0593 0.4588867,0.20947 0.1488282,0.14882 0.1488282,0.39963 0,0.29903 -0.2011936,0.45337 -0.1998156,0.15434 -0.5870443,0.15434 -0.1460721,0 -0.3114367,-0.0331 -0.1639866,-0.0331 -0.3403755,-0.0978 v -0.28663 q 0.1694987,0.0951 0.3321073,0.14331 0.1626085,0.0482 0.3197049,0.0482 0.2384006,0 0.3679362,-0.0937 0.1295356,-0.0937 0.1295356,-0.26734 0,-0.15159 -0.093707,-0.23702 -0.092329,-0.0854 -0.3045465,-0.12816 l -0.1694987,-0.0331 q -0.3114367,-0.062 -0.4506185,-0.1943 -0.1391819,-0.13229 -0.1391819,-0.36793 0,-0.27286 0.1915473,-0.42995 0.1929254,-0.1571 0.5305448,-0.1571 0.144694,0 0.2949002,0.0262 0.1502062,0.0262 0.3073031,0.0786 z"
         inkscape:connector-curvature="0" />
      <path
         id="path3844"
         style="font-size:2.82222247px;text-align:center;text-anchor:middle;stroke-width:0.26458335"
         d="m 3.7234595,263.42222 v 0.43822 H 4.245736 v 0.19706 H 3.7234595 v 0.83784 q 0,0.18879 0.050987,0.24254 0.052366,0.0537 0.2108399,0.0537 H 4.245736 v 0.21222 H 3.9852868 q -0.2935222,0 -0.4051433,-0.10887 -0.1116211,-0.11024 -0.1116211,-0.39963 v -0.8378 H 3.2824872 v -0.19706 h 0.1860352 v -0.43822 z"
         inkscape:connector-curvature="0" />
      <path
         id="path3846"
         style="font-size:2.82222247px;text-align:center;text-anchor:middle;stroke-width:0.26458335"
         d="m 5.2820208,264.628 q -0.3073025,0 -0.4258138,0.0703 -0.1185113,0.0703 -0.1185113,0.23978 0,0.13505 0.088195,0.21498 0.089572,0.0785 0.2425347,0.0785 0.2108399,0 0.3376194,-0.14882 0.1281575,-0.15021 0.1281575,-0.39826 v -0.0565 z m 0.5057401,-0.10473 v 0.88057 H 5.5342018 v -0.23427 q -0.086816,0.14056 -0.216352,0.20809 -0.1295356,0.0661 -0.3169488,0.0661 -0.2370226,0 -0.3775825,-0.13229 -0.1391819,-0.13367 -0.1391819,-0.35691 0,-0.26045 0.1736329,-0.39274 0.1750108,-0.13229 0.5208985,-0.13229 h 0.3555338 v -0.0248 q 0,-0.17501 -0.1157552,-0.27009 -0.1143772,-0.0965 -0.3224609,-0.0965 -0.1322917,0 -0.2576932,0.0317 -0.1254015,0.0317 -0.2411567,0.0951 v -0.23426 q 0.1391819,-0.0538 0.2700955,-0.0799 0.1309136,-0.0276 0.2549371,-0.0276 0.3348633,0 0.5002279,0.17363 0.1653646,0.17363 0.1653646,0.52641 z"
         inkscape:connector-curvature="0" />
      <path
         id="path3848"
         style="font-size:2.82222247px;text-align:center;text-anchor:middle;stroke-width:0.26458335"
         d="m 6.3114157,263.86044 h 0.253559 v 1.5434 h -0.253559 z m 0,-0.60083 h 0.253559 v 0.32108 h -0.253559 z"
         inkscape:connector-curvature="0" />
      <path
         id="path3850"
         style="font-size:2.82222247px;text-align:center;text-anchor:middle;stroke-width:0.26458335"
         d="m 7.9884879,264.09746 q -0.042719,-0.0248 -0.093707,-0.0358 -0.049609,-0.0124 -0.1102431,-0.0124 -0.214974,0 -0.3307292,0.14056 -0.1143772,0.13918 -0.1143772,0.40101 v 0.81304 h -0.254937 v -1.5434 h 0.254937 v 0.23977 q 0.079926,-0.14056 0.2080838,-0.20808 0.1281576,-0.0689 0.3114367,-0.0689 0.026183,0 0.057878,0.004 0.031695,0.003 0.07028,0.01 z"
         inkscape:connector-curvature="0" />
      <path
         id="path3852"
         style="font-size:2.82222247px;text-align:center;text-anchor:middle;stroke-width:0.26458335"
         d="m 9.3072707,263.91969 v 0.23702 q -0.107487,-0.0592 -0.216352,-0.0882 -0.107487,-0.0303 -0.21773,-0.0303 -0.2466689,0 -0.3830947,0.1571 -0.1364258,0.15572 -0.1364258,0.43822 0,0.28249 0.1364258,0.43959 0.1364258,0.15572 0.3830947,0.15572 0.110243,0 0.21773,-0.0289 0.108865,-0.0303 0.216352,-0.0896 v 0.23426 q -0.1061089,0.0496 -0.2204861,0.0744 -0.1129991,0.0248 -0.2411567,0.0248 -0.3486437,0 -0.5539714,-0.21911 -0.2053277,-0.2191 -0.2053277,-0.59117 0,-0.37759 0.2067057,-0.59394 0.2080838,-0.21635 0.5691299,-0.21635 0.1171332,0 0.2287543,0.0248 0.1116211,0.0234 0.216352,0.0717 z"
         inkscape:connector-curvature="0" />
      <path
         id="path3854"
         style="font-size:2.82222247px;text-align:center;text-anchor:middle;stroke-width:0.26458335"
         d="m 10.452421,264.628 q -0.307303,0 -0.425814,0.0703 -0.1185112,0.0703 -0.1185112,0.23978 0,0.13505 0.088195,0.21498 0.089573,0.0785 0.2425342,0.0785 0.21084,0 0.337619,-0.14882 0.128159,-0.15021 0.128159,-0.39826 v -0.0565 z m 0.50574,-0.10473 v 0.88057 h -0.253559 v -0.23427 q -0.08682,0.14056 -0.216352,0.20809 -0.129536,0.0661 -0.316949,0.0661 -0.2370224,0 -0.3775823,-0.13229 -0.1391819,-0.13367 -0.1391819,-0.35691 0,-0.26045 0.1736328,-0.39274 0.1750104,-0.13229 0.5208984,-0.13229 h 0.355534 v -0.0248 q 0,-0.17501 -0.115755,-0.27009 -0.114377,-0.0965 -0.322461,-0.0965 -0.132292,0 -0.257693,0.0317 -0.1254018,0.0317 -0.2411571,0.0951 v -0.23426 q 0.1391819,-0.0538 0.2700951,-0.0799 0.130914,-0.0276 0.254938,-0.0276 0.334863,0 0.500227,0.17363 0.165365,0.17363 0.165365,0.52641 z"
         inkscape:connector-curvature="0" />
      <path
         id="path3856"
         style="font-size:2.82222247px;text-align:center;text-anchor:middle;stroke-width:0.26458335"
         d="m 12.465735,263.90591 v 0.23978 q -0.107487,-0.0551 -0.223242,-0.0827 -0.115756,-0.0276 -0.239779,-0.0276 -0.188791,0 -0.283876,0.0579 -0.09371,0.0579 -0.09371,0.17364 0,0.0882 0.06752,0.13918 0.06752,0.0496 0.271474,0.0951 l 0.08682,0.0193 q 0.270096,0.0579 0.383095,0.16398 0.114377,0.10473 0.114377,0.29353 0,0.21497 -0.170877,0.34037 -0.169498,0.1254 -0.467155,0.1254 -0.124023,0 -0.259071,-0.0248 -0.13367,-0.0234 -0.282498,-0.0717 v -0.26183 q 0.14056,0.073 0.276986,0.11025 0.136426,0.0358 0.270095,0.0358 0.179145,0 0.275608,-0.0606 0.09646,-0.062 0.09646,-0.17363 0,-0.10336 -0.07028,-0.15848 -0.0689,-0.0551 -0.304547,-0.10611 l -0.08819,-0.0207 q -0.235645,-0.0496 -0.340376,-0.15158 -0.10473,-0.10335 -0.10473,-0.2825 0,-0.21773 0.15434,-0.33624 0.15434,-0.11851 0.438216,-0.11851 0.14056,0 0.264583,0.0207 0.124024,0.0207 0.228755,0.062 z"
         inkscape:connector-curvature="0" />
      <path
         id="path3858"
         style="font-size:2.82222247px;text-align:center;text-anchor:middle;stroke-width:0.26458335"
         d="m 14.273721,264.56875 v 0.12402 H 13.1079 q 0.01654,0.26183 0.157097,0.39963 0.141938,0.13643 0.394119,0.13643 0.146072,0 0.282497,-0.0358 0.137804,-0.0358 0.272852,-0.10749 v 0.23978 q -0.136426,0.0579 -0.279742,0.0882 -0.143316,0.0303 -0.290766,0.0303 -0.369314,0 -0.585666,-0.21497 -0.214974,-0.21498 -0.214974,-0.58153 0,-0.37896 0.20395,-0.60083 0.205327,-0.22324 0.552593,-0.22324 0.311437,0 0.49196,0.20119 0.181901,0.19982 0.181901,0.54433 z m -0.253559,-0.0744 q -0.0028,-0.20808 -0.117134,-0.3321 -0.112999,-0.12403 -0.300412,-0.12403 -0.212218,0 -0.340376,0.11989 -0.126779,0.11989 -0.146072,0.33762 z"
         inkscape:connector-curvature="0" />
    </g>
    <g
       id="g3872"
       style="font-style:normal;font-weight:normal;font-size:2.82222247px;line-height:1.25;font-family:sans-serif;text-align:center;letter-spacing:0px;word-spacing:0px;text-anchor:middle;fill:#000000;fill-opacity:1;stroke:none;stroke-width:0.26458335"
       aria-label="Input"
       transform="translate(0,-16.933335)">
      <path
         id="path3862"
         style="font-size:2.82222247px;text-align:center;text-anchor:middle;stroke-width:0.26458335"
         d="m 4.4531304,238.72062 h 0.2783638 v 2.05741 H 4.4531304 Z"
         inkscape:connector-curvature="0" />
      <path
         id="path3864"
         style="font-size:2.82222247px;text-align:center;text-anchor:middle;stroke-width:0.26458335"
         d="m 6.5573949,239.84648 v 0.93155 h -0.253559 v -0.92329 q 0,-0.2191 -0.085438,-0.32797 -0.085438,-0.10886 -0.2563151,-0.10886 -0.2053277,0 -0.323839,0.13091 -0.1185113,0.13091 -0.1185113,0.35691 v 0.8723 H 5.264795 v -1.5434 h 0.2549371 v 0.23978 q 0.09095,-0.13919 0.2135959,-0.20809 0.1240235,-0.0689 0.2852539,-0.0689 0.2659614,0 0.4023872,0.16537 0.1364258,0.16398 0.1364258,0.48369 z"
         inkscape:connector-curvature="0" />
      <path
         id="path3866"
         style="font-size:2.82222247px;text-align:center;text-anchor:middle;stroke-width:0.26458335"
         d="m 7.311182,240.54652 v 0.81855 H 7.0562449 v -2.13044 H 7.311182 v 0.23426 q 0.079926,-0.1378 0.2011936,-0.20395 0.1226454,-0.0675 0.2921441,-0.0675 0.2811198,0 0.4561307,0.22324 0.1763889,0.22324 0.1763889,0.58705 0,0.3638 -0.1763889,0.58704 -0.1750109,0.22324 -0.4561307,0.22324 -0.1694987,0 -0.2921441,-0.0661 -0.1212674,-0.0675 -0.2011936,-0.20533 z m 0.862652,-0.53881 q 0,-0.27974 -0.1157553,-0.43822 -0.1143771,-0.15985 -0.3155707,-0.15985 -0.2011936,0 -0.3169489,0.15985 -0.1143771,0.15848 -0.1143771,0.43822 0,0.27974 0.1143771,0.43959 0.1157553,0.15848 0.3169489,0.15848 0.2011936,0 0.3155707,-0.15848 0.1157553,-0.15985 0.1157553,-0.43959 z"
         inkscape:connector-curvature="0" />
      <path
         id="path3868"
         style="font-size:2.82222247px;text-align:center;text-anchor:middle;stroke-width:0.26458335"
         d="m 8.831158,240.16894 v -0.93431 h 0.253559 v 0.92466 q 0,0.21911 0.085438,0.32935 0.085438,0.10887 0.2563151,0.10887 0.2053277,0 0.323839,-0.13092 0.1198894,-0.13091 0.1198894,-0.35691 v -0.87505 h 0.2535595 v 1.5434 H 9.8701989 v -0.23702 q -0.092329,0.14056 -0.214974,0.20946 -0.1212674,0.0675 -0.2824979,0.0675 -0.2659614,0 -0.4037652,-0.16536 -0.1378038,-0.16537 -0.1378038,-0.48369 z m 0.6380317,-0.97152 z"
         inkscape:connector-curvature="0" />
      <path
         id="path3870"
         style="font-size:2.82222247px;text-align:center;text-anchor:middle;stroke-width:0.26458335"
         d="m 10.899594,238.79641 v 0.43822 h 0.522276 v 0.19706 h -0.522276 v 0.83784 q 0,0.1888 0.05099,0.24254 0.05237,0.0537 0.21084,0.0537 h 0.260449 v 0.21222 h -0.260449 q -0.293522,0 -0.405143,-0.10886 -0.111621,-0.11025 -0.111621,-0.39964 v -0.83784 h -0.186036 v -0.19706 h 0.186036 v -0.43822 z"
         inkscape:connector-curvature="0" />
    </g>
    <g
       id="g3882"
       style="font-style:normal;font-weight:normal;font-size:2.82222247px;line-height:1.25;font-family:sans-serif;text-align:center;letter-spacing:0px;word-spacing:0px;text-anchor:middle;fill:#000000;fill-opacity:1;stroke:none;stroke-width:0.26458335"
       aria-label="Gain"
       transform="translate(0,10.054167)">
      <path
         id="path3874"
         style="font-size:2.82222247px;text-align:center;text-anchor:middle;stroke-width:0.26458335"
         d="m 6.4127012,229.06108 v -0.5526 H 5.9579486 v -0.22875 h 0.7303603 v 0.88332 q -0.1612305,0.11438 -0.3555339,0.17363 -0.1943034,0.0579 -0.4147895,0.0579 -0.4823134,0 -0.755165,-0.28112 -0.2714736,-0.2825 -0.2714736,-0.78548 0,-0.50436 0.2714736,-0.78548 0.2728516,-0.2825 0.755165,-0.2825 0.2011936,0 0.3817166,0.0496 0.1819011,0.0496 0.3348633,0.14607 v 0.29628 q -0.1543403,-0.13091 -0.3279731,-0.19706 -0.1736328,-0.0661 -0.3651802,-0.0661 -0.3775825,0 -0.5677517,0.21083 -0.1887913,0.21084 -0.1887913,0.62839 0,0.41617 0.1887913,0.62701 0.1901692,0.21084 0.5677517,0.21084 0.1474501,0 0.2632054,-0.0248 0.1157552,-0.0262 0.2080837,-0.0799 z"
         inkscape:connector-curvature="0" />
      <path
         id="path3876"
         style="font-size:2.82222247px;text-align:center;text-anchor:middle;stroke-width:0.26458335"
         d="m 7.8885804,228.57876 q -0.3073026,0 -0.4258139,0.0703 -0.1185113,0.0703 -0.1185113,0.23978 0,0.13505 0.088195,0.21498 0.089573,0.0785 0.2425347,0.0785 0.2108399,0 0.3376194,-0.14882 0.1281576,-0.15021 0.1281576,-0.39826 v -0.0565 z m 0.50574,-0.10473 v 0.88057 h -0.253559 v -0.23427 q -0.086816,0.14056 -0.216352,0.20809 -0.1295356,0.0661 -0.3169489,0.0661 -0.2370225,0 -0.3775825,-0.13229 -0.1391818,-0.13367 -0.1391818,-0.35691 0,-0.26045 0.1736328,-0.39274 0.1750109,-0.13229 0.5208985,-0.13229 h 0.3555339 v -0.0248 q 0,-0.17501 -0.1157552,-0.27009 -0.1143772,-0.0965 -0.322461,-0.0965 -0.1322917,0 -0.2576932,0.0317 -0.1254015,0.0317 -0.2411567,0.0951 v -0.23426 q 0.1391819,-0.0538 0.2700955,-0.0799 0.1309137,-0.0276 0.2549371,-0.0276 0.3348633,0 0.5002279,0.17363 0.1653646,0.17363 0.1653646,0.52641 z"
         inkscape:connector-curvature="0" />
      <path
         id="path3878"
         style="font-size:2.82222247px;text-align:center;text-anchor:middle;stroke-width:0.26458335"
         d="m 8.917975,227.8112 h 0.253559 v 1.5434 H 8.917975 Z m 0,-0.60083 h 0.253559 v 0.32108 H 8.917975 Z"
         inkscape:connector-curvature="0" />
      <path
         id="path3880"
         style="font-size:2.82222247px;text-align:center;text-anchor:middle;stroke-width:0.26458335"
         d="m 10.983654,228.42305 v 0.93155 h -0.253559 v -0.92329 q 0,-0.2191 -0.08544,-0.32797 -0.08544,-0.10886 -0.256315,-0.10886 -0.205328,0 -0.323839,0.13091 -0.1185116,0.13091 -0.1185116,0.35691 v 0.8723 H 9.6910543 v -1.5434 h 0.2549371 v 0.23977 q 0.090951,-0.13918 0.2135956,-0.20808 0.124024,-0.0689 0.285254,-0.0689 0.265962,0 0.402387,0.16536 0.136426,0.16399 0.136426,0.4837 z"
         inkscape:connector-curvature="0" />
    </g>
    <path
       inkscape:connector-curvature="0"
       id="path3884"
       d="m -0.52916667,220.08676 8.68626027,-6.01357 v 6.41447 l 9.8202274,-5.66971"
       style="fill:none;stroke:#000000;stroke-width:0.26458335px;stroke-linecap:butt;stroke-linejoin:miter;stroke-opacity:1" />
    <path
       inkscape:connector-curvature="0"
       id="path3888"
       d="M -0.46772171,258.0486 H 5.0113039 v -3.47451 h 3.0067823 v 3.34087 h 5.8799298 v -2.53906 h 2.539061"
       style="fill:none;stroke:#000000;stroke-width:0.26458335px;stroke-linecap:butt;stroke-linejoin:miter;stroke-opacity:1" />
    <path
       style="fill:none;stroke:#000000;stroke-width:0.52916669;stroke-linecap:butt;stroke-linejoin:miter;stroke-opacity:1;stroke-miterlimit:4;stroke-dasharray:none"
       d="M 4.6772171,244.08062 H 13.363477"
       id="path3894"
       inkscape:connector-curvature="0" />
  </g>
  <g
     inkscape:groupmode="layer"
     id="layer2"
     inkscape:label="widgets"
     style="display:none;opacity:0.98999999">
    <rect
       style="opacity:1;fill:#0000ff;fill-opacity:1;stroke:none;stroke-width:0.33033794"
       id="PHASE"
       width="8.3556299"
       height="8.3556299"
       x="7.728435"
       y="77.230392"
       inkscape:label="PHS" />
    <rect
       y="41.609173"
       x="7.728435"
       height="8.3556299"
       width="8.3556299"
       id="PITCH"
       style="opacity:1;fill:#ff0000;fill-opacity:1;stroke:none;stroke-width:0.33033794"
       inkscape:label="PITCH" />
    <rect
       style="display:inline;fill:#0000ff;fill-opacity:1;stroke:none;stroke-width:0.33033794"
       id="PHASE-5-4"
       width="8.3556299"
       height="8.3556299"
       x="2.4923"
       y="60.49678"
       inkscape:label="SIN" />
    <rect
       y="15.456871"
       x="3.7596855"
       height="8.3556299"
       width="8.3556299"
       id="PITCH_CTL"
       style="display:inline;opacity:1;fill:#00ff00;fill-opacity:1;stroke:none;stroke-width:0.33033794"
       inkscape:label="PITCH" />
    <path
       inkscape:connector-curvature="0"
       id="path7255"
       d="m 11.906255,49.839803 c -2.2351792,0 -4.0528102,-1.81762 -4.0528102,-4.05282 0,-2.23516 1.817631,-4.05281 4.0528102,-4.05281 2.235177,0 4.05281,1.81765 4.05281,4.05281 0,2.2352 -1.817633,4.05282 -4.05281,4.05282"
       style="fill:#e6e6e6;fill-opacity:1;fill-rule:nonzero;stroke:#636663;stroke-width:0.25000003;stroke-miterlimit:4;stroke-dasharray:none;stroke-opacity:1" />
  </g>
</svg>
