<?xml version="1.0" encoding="UTF-8" standalone="no"?>
<!-- Created with Inkscape (http://www.inkscape.org/) -->

<svg
   xmlns:dc="http://purl.org/dc/elements/1.1/"
   xmlns:cc="http://creativecommons.org/ns#"
   xmlns:rdf="http://www.w3.org/1999/02/22-rdf-syntax-ns#"
   xmlns:svg="http://www.w3.org/2000/svg"
   xmlns="http://www.w3.org/2000/svg"
   xmlns:sodipodi="http://sodipodi.sourceforge.net/DTD/sodipodi-0.dtd"
   xmlns:inkscape="http://www.inkscape.org/namespaces/inkscape"
   width="90"
   height="380"
   viewBox="0 0 23.812501 100.54167"
   version="1.1"
   id="svg8"
   inkscape:version="0.92.2 5c3e80d, 2017-08-06"
   sodipodi:docname="WrapComp.svg">
  <defs
     id="defs2" />
  <sodipodi:namedview
     id="base"
     pagecolor="#ffffff"
     bordercolor="#666666"
     borderopacity="1.0"
     inkscape:pageopacity="0.0"
     inkscape:pageshadow="2"
     inkscape:zoom="1.979899"
     inkscape:cx="-86.200896"
     inkscape:cy="202.49119"
     inkscape:document-units="px"
     inkscape:current-layer="layer1"
     showgrid="false"
     units="px"
     inkscape:snap-bbox="true"
     inkscape:snap-page="true"
     inkscape:bbox-nodes="true"
     inkscape:snap-bbox-edge-midpoints="true"
     inkscape:window-width="1358"
     inkscape:window-height="730"
     inkscape:window-x="0"
     inkscape:window-y="34"
     inkscape:window-maximized="0"
     showguides="false" />
  <metadata
     id="metadata5">
    <rdf:RDF>
      <cc:Work
         rdf:about="">
        <dc:format>image/svg+xml</dc:format>
        <dc:type
           rdf:resource="http://purl.org/dc/dcmitype/StillImage" />
        <dc:title />
      </cc:Work>
    </rdf:RDF>
  </metadata>
  <g
     inkscape:label="Layer 1"
     inkscape:groupmode="layer"
     id="layer1"
     transform="translate(0,-196.45832)"
     style="display:inline">
    <path
       style="opacity:1;vector-effect:none;fill:#f0f0f0;fill-opacity:1;fill-rule:evenodd;stroke:none;stroke-width:0.48607069;stroke-linecap:butt;stroke-linejoin:round;stroke-miterlimit:4;stroke-dasharray:none;stroke-dashoffset:0;stroke-opacity:1;paint-order:normal"
       d="M 0,196.45831 H 23.8125 V 296.99999 H 0 Z"
       id="rect817"
       inkscape:connector-curvature="0" />
    <g
       aria-label="Wrapping Comparator"
       style="font-style:normal;font-weight:normal;font-size:6.35000038px;line-height:1.25;font-family:sans-serif;text-align:center;letter-spacing:0px;word-spacing:0px;text-anchor:middle;fill:#000000;fill-opacity:1;stroke:none;stroke-width:0.26458335"
       id="text8343">
      <path
         d="m 2.6435084,202.7008 h 0.3865397 l 0.594968,2.39124 0.5930732,-2.39124 h 0.4301202 l 0.594968,2.39124 0.5930732,-2.39124 h 0.3884345 l -0.7105509,2.82894 H 5.0328544 l -0.5968628,-2.45566 -0.6025472,2.45566 H 3.3521646 Z"
         style="font-size:3.88055563px;text-align:center;text-anchor:middle;stroke-width:0.26458335"
         id="path8392" />
      <path
         d="m 7.7708441,203.73347 q -0.058739,-0.0341 -0.1288466,-0.0493 -0.068213,-0.0171 -0.1515842,-0.0171 -0.2955892,0 -0.4547526,0.19327 -0.1572686,0.19137 -0.1572686,0.55139 v 1.11793 H 6.5278536 v -2.12218 h 0.3505385 v 0.3297 q 0.1098985,-0.19327 0.2861152,-0.28612 0.1762166,-0.0947 0.4282253,-0.0947 0.036001,0 0.079582,0.006 0.043581,0.004 0.096635,0.0133 z"
         style="font-size:3.88055563px;text-align:center;text-anchor:middle;stroke-width:0.26458335"
         id="path8394" />
      <path
         d="m 9.1047848,204.46297 q -0.4225409,0 -0.585494,0.0966 -0.162953,0.0966 -0.162953,0.3297 0,0.18569 0.1212674,0.29559 0.1231622,0.108 0.3334852,0.108 0.2899048,0 0.4642267,-0.20464 0.1762166,-0.20653 0.1762166,-0.5476 v -0.0777 z m 0.6953926,-0.14401 v 1.21078 H 9.4515337 v -0.32212 q -0.1193726,0.19327 -0.297484,0.28612 -0.1781114,0.0909 -0.4358046,0.0909 -0.325906,0 -0.5191759,-0.1819 -0.191375,-0.1838 -0.191375,-0.49076 0,-0.35811 0.2387451,-0.54001 0.2406399,-0.18191 0.7162353,-0.18191 h 0.4888591 v -0.0341 q 0,-0.24064 -0.1591634,-0.37138 -0.1572686,-0.13264 -0.4433838,-0.13264 -0.1819011,0 -0.3543281,0.0436 -0.172427,0.0436 -0.3315904,0.13074 v -0.32211 q 0.191375,-0.0739 0.3713813,-0.1099 0.1800062,-0.0379 0.3505384,-0.0379 0.4604371,0 0.6878134,0.23875 0.2273763,0.23874 0.2273763,0.72381 z"
         style="font-size:3.88055563px;text-align:center;text-anchor:middle;stroke-width:0.26458335"
         id="path8396" />
      <path
         d="m 10.857478,205.21141 v 1.12552 h -0.350539 v -2.92937 h 0.350539 v 0.32212 q 0.109898,-0.18948 0.276641,-0.28043 0.168637,-0.0928 0.401698,-0.0928 0.38654,0 0.627179,0.30696 0.242535,0.30696 0.242535,0.80718 0,0.50023 -0.242535,0.80719 -0.240639,0.30696 -0.627179,0.30696 -0.233061,0 -0.401698,-0.0909 -0.166743,-0.0928 -0.276641,-0.28233 z m 1.186146,-0.74087 q 0,-0.38464 -0.159164,-0.60254 -0.157268,-0.2198 -0.433909,-0.2198 -0.276641,0 -0.435805,0.2198 -0.157268,0.2179 -0.157268,0.60254 0,0.38465 0.157268,0.60445 0.159164,0.2179 0.435805,0.2179 0.276641,0 0.433909,-0.2179 0.159164,-0.2198 0.159164,-0.60445 z"
         style="font-size:3.88055563px;text-align:center;text-anchor:middle;stroke-width:0.26458335"
         id="path8398" />
      <path
         d="m 13.320721,205.21141 v 1.12552 h -0.350538 v -2.92937 h 0.350538 v 0.32212 q 0.109899,-0.18948 0.276641,-0.28043 0.168638,-0.0928 0.401698,-0.0928 0.38654,0 0.62718,0.30696 0.242535,0.30696 0.242535,0.80718 0,0.50023 -0.242535,0.80719 -0.24064,0.30696 -0.62718,0.30696 -0.23306,0 -0.401698,-0.0909 -0.166742,-0.0928 -0.276641,-0.28233 z m 1.186146,-0.74087 q 0,-0.38464 -0.159163,-0.60254 -0.157269,-0.2198 -0.43391,-0.2198 -0.276641,0 -0.435804,0.2198 -0.157269,0.2179 -0.157269,0.60254 0,0.38465 0.157269,0.60445 0.159163,0.2179 0.435804,0.2179 0.276641,0 0.43391,-0.2179 0.159163,-0.2198 0.159163,-0.60445 z"
         style="font-size:3.88055563px;text-align:center;text-anchor:middle;stroke-width:0.26458335"
         id="path8400" />
      <path
         d="m 15.446689,203.40756 h 0.348643 v 2.12218 h -0.348643 z m 0,-0.82613 h 0.348643 v 0.44149 h -0.348643 z"
         style="font-size:3.88055563px;text-align:center;text-anchor:middle;stroke-width:0.26458335"
         id="path8402" />
      <path
         d="m 18.286998,204.24885 v 1.28089 h -0.348644 v -1.26952 q 0,-0.30127 -0.117477,-0.45096 -0.117478,-0.14969 -0.352434,-0.14969 -0.282325,0 -0.445278,0.18001 -0.162953,0.18 -0.162953,0.49075 v 1.19941 h -0.350539 v -2.12218 h 0.350539 v 0.3297 q 0.125057,-0.19138 0.293694,-0.28612 0.170532,-0.0947 0.392224,-0.0947 0.365697,0 0.553283,0.22738 0.187585,0.22548 0.187585,0.66507 z"
         style="font-size:3.88055563px;text-align:center;text-anchor:middle;stroke-width:0.26458335"
         id="path8404" />
      <path
         d="m 20.38265,204.44402 q 0,-0.37896 -0.157269,-0.58739 -0.155374,-0.20843 -0.437699,-0.20843 -0.280431,0 -0.4377,0.20843 -0.155373,0.20843 -0.155373,0.58739 0,0.37706 0.155373,0.58549 0.157269,0.20843 0.4377,0.20843 0.282325,0 0.437699,-0.20843 0.157269,-0.20843 0.157269,-0.58549 z m 0.348643,0.82234 q 0,0.54192 -0.240639,0.80529 -0.24064,0.26528 -0.737079,0.26528 -0.183795,0 -0.346749,-0.0284 -0.162953,-0.0265 -0.316432,-0.0834 v -0.33917 q 0.153479,0.0834 0.303169,0.12316 0.149689,0.0398 0.305063,0.0398 0.342959,0 0.513492,-0.18001 0.170532,-0.17811 0.170532,-0.54002 v -0.17243 q -0.108004,0.18759 -0.276641,0.28043 -0.168638,0.0928 -0.403593,0.0928 -0.39033,0 -0.629075,-0.29748 -0.238745,-0.29749 -0.238745,-0.78824 0,-0.49265 0.238745,-0.79014 0.238745,-0.29748 0.629075,-0.29748 0.234955,0 0.403593,0.0928 0.168637,0.0928 0.276641,0.28043 v -0.32212 h 0.348643 z"
         style="font-size:3.88055563px;text-align:center;text-anchor:middle;stroke-width:0.26458335"
         id="path8406" />
      <path
         d="m 2.7060369,206.6262 v 0.40359 q -0.1932699,-0.18 -0.413067,-0.26906 -0.2179023,-0.089 -0.4642266,-0.089 -0.4850695,0 -0.7427626,0.29748 -0.25769315,0.29559 -0.25769315,0.85645 0,0.55897 0.25769315,0.85645 0.2576931,0.29559 0.7427626,0.29559 0.2463243,0 0.4642266,-0.0891 0.2197971,-0.0891 0.413067,-0.26907 v 0.39981 q -0.2008491,0.13642 -0.4263306,0.20464 -0.2235867,0.0682 -0.4737006,0.0682 -0.6423381,0 -1.0118246,-0.39223 -0.36948649,-0.39411 -0.36948649,-1.07435 0,-0.68213 0.36948649,-1.07435 0.3694865,-0.39412 1.0118246,-0.39412 0.2539035,0 0.4774902,0.0682 0.2254815,0.0663 0.422541,0.20085 z"
         style="font-size:3.88055563px;text-align:center;text-anchor:middle;stroke-width:0.26458335"
         id="path8408" />
      <path
         d="m 4.1081907,207.35949 q -0.2804308,0 -0.4433838,0.2198 -0.162953,0.2179 -0.162953,0.59876 0,0.38085 0.1610582,0.60065 0.162953,0.2179 0.4452786,0.2179 0.278536,0 0.441489,-0.2198 0.162953,-0.21979 0.162953,-0.59875 0,-0.37707 -0.162953,-0.59687 -0.162953,-0.22169 -0.441489,-0.22169 z m 0,-0.29559 q 0.4547526,0 0.7143406,0.29559 0.2595879,0.29559 0.2595879,0.81856 0,0.52107 -0.2595879,0.81855 -0.259588,0.29559 -0.7143406,0.29559 -0.4566474,0 -0.7162353,-0.29559 -0.2576932,-0.29748 -0.2576932,-0.81855 0,-0.52297 0.2576932,-0.81856 0.2595879,-0.29559 0.7162353,-0.29559 z"
         style="font-size:3.88055563px;text-align:center;text-anchor:middle;stroke-width:0.26458335"
         id="path8410" />
      <path
         d="m 7.310407,207.52244 q 0.1307414,-0.23495 0.3126424,-0.34675 0.1819011,-0.11179 0.4282254,-0.11179 0.3315904,0 0.5115967,0.23306 0.1800062,0.23117 0.1800062,0.65939 v 1.28089 H 8.3923393 v -1.26952 q 0,-0.30506 -0.1080038,-0.45286 -0.1080037,-0.14779 -0.3296956,-0.14779 -0.2709568,0 -0.4282254,0.18001 -0.1572686,0.18 -0.1572686,0.49075 v 1.19941 H 7.0186074 v -1.26952 q 0,-0.30696 -0.1080037,-0.45286 -0.1080038,-0.14779 -0.3334853,-0.14779 -0.2671671,0 -0.4244358,0.1819 -0.1572686,0.18001 -0.1572686,0.48886 v 1.19941 H 5.6448756 v -2.12218 H 5.995414 v 0.3297 q 0.1193726,-0.19517 0.2861152,-0.28801 0.1667426,-0.0928 0.3960137,-0.0928 0.231166,0 0.3922242,0.11748 0.162953,0.11748 0.2406399,0.34106 z"
         style="font-size:3.88055563px;text-align:center;text-anchor:middle;stroke-width:0.26458335"
         id="path8412" />
      <path
         d="m 9.7774398,208.91891 v 1.12552 H 9.4269014 v -2.92937 h 0.3505384 v 0.32212 q 0.1098986,-0.18948 0.2766412,-0.28043 0.168637,-0.0928 0.401698,-0.0928 0.38654,0 0.62718,0.30696 0.242535,0.30696 0.242535,0.80719 0,0.50022 -0.242535,0.80718 -0.24064,0.30696 -0.62718,0.30696 -0.233061,0 -0.401698,-0.0909 -0.1667426,-0.0928 -0.2766412,-0.28233 z m 1.1861462,-0.74086 q 0,-0.38465 -0.159163,-0.60255 -0.157269,-0.2198 -0.43391,-0.2198 -0.276641,0 -0.4358045,0.2198 -0.1572687,0.2179 -0.1572687,0.60255 0,0.38464 0.1572687,0.60444 0.1591635,0.2179 0.4358045,0.2179 0.276641,0 0.43391,-0.2179 0.159163,-0.2198 0.159163,-0.60444 z"
         style="font-size:3.88055563px;text-align:center;text-anchor:middle;stroke-width:0.26458335"
         id="path8414" />
      <path
         d="m 12.867863,208.17047 q -0.422541,0 -0.585494,0.0966 -0.162953,0.0966 -0.162953,0.3297 0,0.18569 0.121267,0.29559 0.123162,0.108 0.333486,0.108 0.289904,0 0.464226,-0.20464 0.176217,-0.20653 0.176217,-0.5476 v -0.0777 z m 0.695393,-0.14401 v 1.21078 h -0.348644 v -0.32212 q -0.119373,0.19327 -0.297484,0.28612 -0.178112,0.0909 -0.435805,0.0909 -0.325906,0 -0.519176,-0.1819 -0.191375,-0.1838 -0.191375,-0.49076 0,-0.35811 0.238745,-0.54001 0.24064,-0.18191 0.716236,-0.18191 h 0.488859 v -0.0341 q 0,-0.24064 -0.159164,-0.37138 -0.157268,-0.13264 -0.443383,-0.13264 -0.181901,0 -0.354328,0.0436 -0.172427,0.0436 -0.331591,0.13074 v -0.32211 q 0.191375,-0.0739 0.371381,-0.1099 0.180007,-0.0379 0.350539,-0.0379 0.460437,0 0.687813,0.23875 0.227377,0.23874 0.227377,0.72381 z"
         style="font-size:3.88055563px;text-align:center;text-anchor:middle;stroke-width:0.26458335"
         id="path8416" />
      <path
         d="m 15.513007,207.44097 q -0.05874,-0.0341 -0.128847,-0.0493 -0.06821,-0.017 -0.151584,-0.017 -0.295589,0 -0.454753,0.19327 -0.157268,0.19137 -0.157268,0.55139 v 1.11793 h -0.350539 v -2.12218 h 0.350539 v 0.3297 q 0.109898,-0.19327 0.286115,-0.28612 0.176217,-0.0947 0.428225,-0.0947 0.036,0 0.07958,0.006 0.04358,0.004 0.09664,0.0133 z"
         style="font-size:3.88055563px;text-align:center;text-anchor:middle;stroke-width:0.26458335"
         id="path8418" />
      <path
         d="m 16.846948,208.17047 q -0.422541,0 -0.585494,0.0966 -0.162953,0.0966 -0.162953,0.3297 0,0.18569 0.121267,0.29559 0.123162,0.108 0.333486,0.108 0.289904,0 0.464226,-0.20464 0.176217,-0.20653 0.176217,-0.5476 v -0.0777 z m 0.695392,-0.14401 v 1.21078 h -0.348643 v -0.32212 q -0.119373,0.19327 -0.297484,0.28612 -0.178112,0.0909 -0.435805,0.0909 -0.325906,0 -0.519176,-0.1819 -0.191375,-0.1838 -0.191375,-0.49076 0,-0.35811 0.238745,-0.54001 0.24064,-0.18191 0.716236,-0.18191 h 0.488859 v -0.0341 q 0,-0.24064 -0.159164,-0.37138 -0.157268,-0.13264 -0.443383,-0.13264 -0.181901,0 -0.354328,0.0436 -0.172428,0.0436 -0.331591,0.13074 v -0.32211 q 0.191375,-0.0739 0.371381,-0.1099 0.180007,-0.0379 0.350539,-0.0379 0.460437,0 0.687813,0.23875 0.227376,0.23874 0.227376,0.72381 z"
         style="font-size:3.88055563px;text-align:center;text-anchor:middle;stroke-width:0.26458335"
         id="path8420" />
      <path
         d="m 18.60722,206.51251 v 0.60255 h 0.71813 v 0.27096 h -0.71813 v 1.15204 q 0,0.25959 0.07011,0.33348 0.072,0.0739 0.289904,0.0739 h 0.358118 v 0.2918 h -0.358118 q -0.403593,0 -0.557072,-0.14969 -0.153479,-0.15158 -0.153479,-0.54949 v -1.15204 h -0.255798 v -0.27096 h 0.255798 v -0.60255 z"
         style="font-size:3.88055563px;text-align:center;text-anchor:middle;stroke-width:0.26458335"
         id="path8422" />
      <path
         d="m 20.608132,207.35949 q -0.28043,0 -0.443383,0.2198 -0.162954,0.2179 -0.162954,0.59876 0,0.38085 0.161059,0.60065 0.162953,0.2179 0.445278,0.2179 0.278536,0 0.441489,-0.2198 0.162953,-0.21979 0.162953,-0.59875 0,-0.37707 -0.162953,-0.59687 -0.162953,-0.22169 -0.441489,-0.22169 z m 0,-0.29559 q 0.454753,0 0.714341,0.29559 0.259588,0.29559 0.259588,0.81856 0,0.52107 -0.259588,0.81855 -0.259588,0.29559 -0.714341,0.29559 -0.456647,0 -0.716235,-0.29559 -0.257693,-0.29748 -0.257693,-0.81855 0,-0.52297 0.257693,-0.81856 0.259588,-0.29559 0.716235,-0.29559 z"
         style="font-size:3.88055563px;text-align:center;text-anchor:middle;stroke-width:0.26458335"
         id="path8424" />
      <path
         d="m 23.387806,207.44097 q -0.05874,-0.0341 -0.128846,-0.0493 -0.06821,-0.017 -0.151584,-0.017 -0.29559,0 -0.454753,0.19327 -0.157269,0.19137 -0.157269,0.55139 v 1.11793 h -0.350538 v -2.12218 h 0.350538 v 0.3297 q 0.109899,-0.19327 0.286116,-0.28612 0.176216,-0.0947 0.428225,-0.0947 0.036,0 0.07958,0.006 0.04358,0.004 0.09664,0.0133 z"
         style="font-size:3.88055563px;text-align:center;text-anchor:middle;stroke-width:0.26458335"
         id="path8426" />
    </g>
    <g
       aria-label="Input"
       style="font-style:normal;font-weight:normal;font-size:2.82222247px;line-height:1.25;font-family:sans-serif;text-align:center;letter-spacing:0px;word-spacing:0px;text-anchor:middle;fill:#000000;fill-opacity:1;stroke:none;stroke-width:0.26458335"
       id="text8349">
      <path
         d="m 8.4218809,220.27219 h 0.2783638 v 2.05742 H 8.4218809 Z"
         style="text-align:center;text-anchor:middle;stroke-width:0.26458335"
         id="path8429" />
      <path
         d="m 10.526145,221.39805 v 0.93156 h -0.253559 v -0.92329 q 0,-0.21911 -0.08544,-0.32797 -0.08544,-0.10887 -0.2563152,-0.10887 -0.2053277,0 -0.323839,0.13091 -0.1185113,0.13092 -0.1185113,0.35692 v 0.8723 h -0.254937 v -1.54341 h 0.254937 v 0.23978 q 0.090951,-0.13918 0.213596,-0.20808 0.1240234,-0.0689 0.2852539,-0.0689 0.2659616,0 0.4023876,0.16536 0.136425,0.16399 0.136425,0.48369 z"
         style="text-align:center;text-anchor:middle;stroke-width:0.26458335"
         id="path8431" />
      <path
         d="m 11.279932,222.09809 v 0.81856 h -0.254937 v -2.13045 h 0.254937 v 0.23427 q 0.07993,-0.13781 0.201194,-0.20395 0.122645,-0.0675 0.292144,-0.0675 0.28112,0 0.456131,0.22324 0.176389,0.22324 0.176389,0.58704 0,0.3638 -0.176389,0.58705 -0.175011,0.22324 -0.456131,0.22324 -0.169499,0 -0.292144,-0.0662 -0.121267,-0.0675 -0.201194,-0.20533 z m 0.862652,-0.53881 q 0,-0.27974 -0.115755,-0.43821 -0.114377,-0.15986 -0.315571,-0.15986 -0.201193,0 -0.316948,0.15986 -0.114378,0.15847 -0.114378,0.43821 0,0.27974 0.114378,0.4396 0.115755,0.15847 0.316948,0.15847 0.201194,0 0.315571,-0.15847 0.115755,-0.15986 0.115755,-0.4396 z"
         style="text-align:center;text-anchor:middle;stroke-width:0.26458335"
         id="path8433" />
      <path
         d="m 12.799908,221.72051 v -0.93431 h 0.253559 v 0.92467 q 0,0.2191 0.08544,0.32935 0.08544,0.10886 0.256315,0.10886 0.205328,0 0.323839,-0.13091 0.119889,-0.13092 0.119889,-0.35691 v -0.87506 h 0.253559 v 1.54341 h -0.253559 v -0.23703 q -0.09233,0.14056 -0.214974,0.20946 -0.121267,0.0675 -0.282497,0.0675 -0.265962,0 -0.403766,-0.16537 -0.137804,-0.16536 -0.137804,-0.48369 z M 13.43794,220.749 Z"
         style="text-align:center;text-anchor:middle;stroke-width:0.26458335"
         id="path8435" />
      <path
         d="m 14.868344,220.34799 v 0.43821 h 0.522277 v 0.19706 h -0.522277 v 0.83785 q 0,0.18879 0.05099,0.24253 0.05236,0.0538 0.210839,0.0538 h 0.26045 v 0.21222 h -0.26045 q -0.293522,0 -0.405143,-0.10887 -0.111621,-0.11024 -0.111621,-0.39963 v -0.83785 h -0.186035 v -0.19706 h 0.186035 v -0.43821 z"
         style="text-align:center;text-anchor:middle;stroke-width:0.26458335"
         id="path8437" />
    </g>
    <g
       aria-label="Offset"
       style="font-style:normal;font-weight:normal;font-size:2.82222247px;line-height:1.25;font-family:sans-serif;text-align:center;letter-spacing:0px;word-spacing:0px;text-anchor:middle;fill:#000000;fill-opacity:1;stroke:none;stroke-width:0.26458335"
       id="text8353">
      <path
         d="m 8.7319404,238.206 q -0.3031684,0 -0.4823134,0.22599 -0.1777669,0.226 -0.1777669,0.61599 0,0.3886 0.1777669,0.6146 0.179145,0.226 0.4823134,0.226 0.3031685,0 0.4795574,-0.226 0.1777669,-0.226 0.1777669,-0.6146 0,-0.38999 -0.1777669,-0.61599 Q 9.0351089,238.206 8.7319404,238.206 Z m 0,-0.226 q 0.4327041,0 0.6917753,0.29076 0.2590712,0.28939 0.2590712,0.77722 0,0.48644 -0.2590712,0.77721 -0.2590712,0.28939 -0.6917753,0.28939 -0.434082,0 -0.6945313,-0.28939 -0.2590712,-0.28939 -0.2590712,-0.77721 0,-0.48783 0.2590712,-0.77722 Q 8.2978584,237.98 8.7319404,237.98 Z"
         style="text-align:center;text-anchor:middle;stroke-width:0.26458335"
         id="path8440" />
      <path
         d="m 11.839417,237.93039 v 0.21084 h -0.242535 q -0.136426,0 -0.190169,0.0551 -0.05237,0.0551 -0.05237,0.19844 v 0.13642 h 0.417546 v 0.19706 h -0.417546 v 1.34635 H 11.09941 v -1.34635 h -0.695909 v 1.34635 h -0.254937 v -1.34635 H 9.9060292 v -0.19706 h 0.2425348 v -0.10748 q 0,-0.2577 0.119889,-0.37483 0.11989,-0.11851 0.380339,-0.11851 h 0.239779 v 0.21084 h -0.242535 q -0.136426,0 -0.19017,0.0551 -0.05236,0.0551 -0.05236,0.19844 v 0.13642 h 0.695909 v -0.10748 q 0,-0.2577 0.11989,-0.37483 0.119889,-0.11851 0.380338,-0.11851 z"
         style="text-align:center;text-anchor:middle;stroke-width:0.26458335"
         id="path8442" />
      <path
         d="m 13.036932,238.57669 v 0.23978 q -0.107487,-0.0551 -0.223242,-0.0827 -0.115755,-0.0276 -0.239779,-0.0276 -0.188791,0 -0.283876,0.0579 -0.09371,0.0579 -0.09371,0.17363 0,0.0882 0.06752,0.13919 0.06752,0.0496 0.271474,0.0951 l 0.08682,0.0193 q 0.270096,0.0579 0.383095,0.16399 0.114377,0.10473 0.114377,0.29352 0,0.21498 -0.170876,0.34038 -0.169499,0.1254 -0.467155,0.1254 -0.124024,0 -0.259072,-0.0248 -0.133669,-0.0234 -0.282498,-0.0716 v -0.26183 q 0.14056,0.073 0.276986,0.11024 0.136426,0.0358 0.270096,0.0358 0.179145,0 0.275607,-0.0606 0.09646,-0.062 0.09646,-0.17364 0,-0.10335 -0.07028,-0.15847 -0.0689,-0.0551 -0.304546,-0.10611 l -0.0882,-0.0207 q -0.235644,-0.0496 -0.340375,-0.15158 -0.104731,-0.10336 -0.104731,-0.2825 0,-0.21773 0.15434,-0.33624 0.15434,-0.11851 0.438216,-0.11851 0.14056,0 0.264584,0.0207 0.124023,0.0207 0.228754,0.062 z"
         style="text-align:center;text-anchor:middle;stroke-width:0.26458335"
         id="path8444" />
      <path
         d="m 14.844918,239.23952 v 0.12403 h -1.16582 q 0.01654,0.26182 0.157096,0.39963 0.141938,0.13642 0.394119,0.13642 0.146072,0 0.282498,-0.0358 0.137804,-0.0358 0.272852,-0.10749 v 0.23978 q -0.136426,0.0579 -0.279742,0.0882 -0.143316,0.0303 -0.290766,0.0303 -0.369314,0 -0.585666,-0.21498 -0.214974,-0.21497 -0.214974,-0.58153 0,-0.37896 0.203949,-0.60082 0.205328,-0.22324 0.552594,-0.22324 0.311436,0 0.491959,0.20119 0.181901,0.19981 0.181901,0.54432 z m -0.253559,-0.0744 q -0.0028,-0.20808 -0.117133,-0.33211 -0.112999,-0.12402 -0.300412,-0.12402 -0.212218,0 -0.340376,0.11989 -0.126779,0.11989 -0.146072,0.33762 z"
         style="text-align:center;text-anchor:middle;stroke-width:0.26458335"
         id="path8446" />
      <path
         d="m 15.511889,238.093 v 0.43821 h 0.522277 v 0.19706 h -0.522277 v 0.83785 q 0,0.18879 0.05099,0.24253 0.05236,0.0538 0.210839,0.0538 h 0.26045 v 0.21222 h -0.26045 q -0.293522,0 -0.405143,-0.10887 -0.111621,-0.11024 -0.111621,-0.39963 v -0.83785 h -0.186035 v -0.19706 h 0.186035 V 238.093 Z"
         style="text-align:center;text-anchor:middle;stroke-width:0.26458335"
         id="path8448" />
    </g>
    <g
       aria-label="Range"
       style="font-style:normal;font-weight:normal;font-size:2.82222247px;line-height:1.25;font-family:sans-serif;text-align:center;letter-spacing:0px;word-spacing:0px;text-anchor:middle;fill:#000000;fill-opacity:1;stroke:none;stroke-width:0.26458335"
       id="text8357">
      <path
         d="m 8.6196296,258.40665 q 0.089572,0.0303 0.1736328,0.12954 0.085438,0.0992 0.1708767,0.27285 l 0.2824979,0.56224 H 8.9476027 l -0.2632053,-0.52779 q -0.1019749,-0.20671 -0.1984376,-0.27423 -0.095085,-0.0675 -0.2604492,-0.0675 H 7.9223422 v 0.86955 H 7.6439784 v -2.05741 h 0.6283855 q 0.3527778,0 0.5264106,0.14745 0.1736329,0.14745 0.1736329,0.4451 0,0.19431 -0.090951,0.32246 -0.089573,0.12816 -0.2618272,0.17777 z m -0.6972874,-0.86403 v 0.73036 h 0.3500217 q 0.2011936,0 0.3031684,-0.0923 0.1033529,-0.0937 0.1033529,-0.27423 0,-0.18052 -0.1033529,-0.27147 -0.1019748,-0.0923 -0.3031684,-0.0923 z"
         style="text-align:center;text-anchor:middle;stroke-width:0.26458335"
         id="path8464" />
      <path
         d="m 10.236068,258.59544 q -0.3073021,0 -0.4258133,0.0703 -0.1185113,0.0703 -0.1185113,0.23978 0,0.13505 0.088194,0.21497 0.089572,0.0786 0.2425352,0.0786 0.210839,0 0.337619,-0.14883 0.128158,-0.1502 0.128158,-0.39825 v -0.0565 z m 0.505741,-0.10473 v 0.88057 H 10.48825 v -0.23427 q -0.08682,0.14056 -0.216353,0.20808 -0.129535,0.0661 -0.3169483,0.0661 -0.2370226,0 -0.3775825,-0.13229 -0.1391819,-0.13367 -0.1391819,-0.35691 0,-0.26045 0.1736328,-0.39274 0.1750109,-0.1323 0.5208989,-0.1323 h 0.355534 v -0.0248 q 0,-0.17501 -0.115756,-0.2701 -0.114377,-0.0965 -0.322461,-0.0965 -0.1322914,0 -0.2576928,0.0317 -0.1254015,0.0317 -0.2411568,0.0951 v -0.23427 q 0.1391819,-0.0537 0.2700956,-0.0799 0.1309136,-0.0276 0.254937,-0.0276 0.334863,0 0.500228,0.17363 0.165365,0.17363 0.165365,0.52641 z"
         style="text-align:center;text-anchor:middle;stroke-width:0.26458335"
         id="path8466" />
      <path
         d="m 12.548417,258.43972 v 0.93156 h -0.253559 v -0.92329 q 0,-0.21911 -0.08544,-0.32797 -0.08544,-0.10887 -0.256315,-0.10887 -0.205327,0 -0.323839,0.13092 -0.118511,0.13091 -0.118511,0.35691 v 0.8723 h -0.254937 v -1.54341 h 0.254937 v 0.23978 q 0.09095,-0.13918 0.213596,-0.20808 0.124023,-0.0689 0.285254,-0.0689 0.265961,0 0.402387,0.16536 0.136426,0.16399 0.136426,0.48369 z"
         style="text-align:center;text-anchor:middle;stroke-width:0.26458335"
         id="path8468" />
      <path
         d="m 14.072527,258.58166 q 0,-0.27561 -0.114377,-0.42719 -0.112999,-0.15159 -0.318327,-0.15159 -0.20395,0 -0.318327,0.15159 -0.112999,0.15158 -0.112999,0.42719 0,0.27423 0.112999,0.42581 0.114377,0.15159 0.318327,0.15159 0.205328,0 0.318327,-0.15159 0.114377,-0.15158 0.114377,-0.42581 z m 0.253559,0.59807 q 0,0.39412 -0.175011,0.58567 -0.175011,0.19292 -0.536057,0.19292 -0.133669,0 -0.252181,-0.0207 -0.118511,-0.0193 -0.230132,-0.0606 v -0.24667 q 0.111621,0.0606 0.220486,0.0896 0.108865,0.0289 0.221864,0.0289 0.249425,0 0.373449,-0.13091 0.124023,-0.12954 0.124023,-0.39275 v -0.1254 q -0.07855,0.13643 -0.201193,0.20395 -0.122646,0.0675 -0.293523,0.0675 -0.283876,0 -0.457508,-0.21636 -0.173633,-0.21635 -0.173633,-0.57326 0,-0.35829 0.173633,-0.57464 0.173632,-0.21635 0.457508,-0.21635 0.170877,0 0.293523,0.0675 0.122645,0.0675 0.201193,0.20395 v -0.23427 h 0.253559 z"
         style="text-align:center;text-anchor:middle;stroke-width:0.26458335"
         id="path8470" />
      <path
         d="m 16.168523,258.53619 v 0.12402 h -1.16582 q 0.01654,0.26183 0.157096,0.39963 0.141938,0.13643 0.394119,0.13643 0.146072,0 0.282498,-0.0358 0.137804,-0.0358 0.272852,-0.10749 v 0.23978 q -0.136426,0.0579 -0.279742,0.0882 -0.143316,0.0303 -0.290766,0.0303 -0.369315,0 -0.585667,-0.21497 -0.214974,-0.21498 -0.214974,-0.58154 0,-0.37896 0.20395,-0.60082 0.205328,-0.22324 0.552593,-0.22324 0.311437,0 0.49196,0.20119 0.181901,0.19982 0.181901,0.54433 z m -0.253559,-0.0744 q -0.0028,-0.20808 -0.117133,-0.33211 -0.112999,-0.12402 -0.300413,-0.12402 -0.212217,0 -0.340375,0.11989 -0.126779,0.11989 -0.146072,0.33762 z"
         style="text-align:center;text-anchor:middle;stroke-width:0.26458335"
         id="path8472" />
    </g>
    <g
       aria-label="Output"
       style="font-style:normal;font-weight:normal;font-size:2.82222247px;line-height:1.25;font-family:sans-serif;text-align:center;letter-spacing:0px;word-spacing:0px;text-anchor:middle;fill:#000000;fill-opacity:1;stroke:none;stroke-width:0.26458335"
       id="text8361">
      <path
         d="m 8.067726,283.961 q -0.3031685,0 -0.4823134,0.226 -0.177767,0.226 -0.177767,0.61598 0,0.38861 0.177767,0.61461 0.1791449,0.226 0.4823134,0.226 0.3031684,0 0.4795573,-0.226 0.1777669,-0.226 0.1777669,-0.61461 0,-0.38998 -0.1777669,-0.61598 -0.1763889,-0.226 -0.4795573,-0.226 z m 0,-0.226 q 0.432704,0 0.6917752,0.29077 0.2590712,0.28939 0.2590712,0.77721 0,0.48645 -0.2590712,0.77722 -0.2590712,0.28938 -0.6917752,0.28938 -0.4340821,0 -0.6945313,-0.28938 -0.2590712,-0.28939 -0.2590712,-0.77722 0,-0.48782 0.2590712,-0.77721 Q 7.6336439,283.735 8.067726,283.735 Z"
         style="stroke-width:0.26458335"
         id="path8451" />
      <path
         d="m 9.4168256,285.22053 v -0.93431 h 0.253559 v 0.92466 q 0,0.21911 0.085438,0.32935 0.085438,0.10887 0.256315,0.10887 0.205328,0 0.323839,-0.13092 0.119889,-0.13091 0.119889,-0.35691 v -0.87505 h 0.25356 v 1.5434 h -0.25356 v -0.23702 q -0.09233,0.14056 -0.214973,0.20946 -0.121268,0.0675 -0.2824983,0.0675 -0.2659614,0 -0.4037653,-0.16536 -0.1378038,-0.16537 -0.1378038,-0.48369 z m 0.6380314,-0.97152 z"
         style="stroke-width:0.26458335"
         id="path8453" />
      <path
         d="m 11.485261,283.848 v 0.43822 h 0.522277 v 0.19706 h -0.522277 v 0.83784 q 0,0.1888 0.05099,0.24254 0.05236,0.0537 0.21084,0.0537 h 0.260449 v 0.21222 h -0.260449 q -0.293523,0 -0.405144,-0.10886 -0.111621,-0.11025 -0.111621,-0.39964 v -0.83784 h -0.186035 v -0.19706 h 0.186035 V 283.848 Z"
         style="stroke-width:0.26458335"
         id="path8455" />
      <path
         d="m 12.587692,285.59811 v 0.81855 h -0.254937 v -2.13044 h 0.254937 v 0.23426 q 0.07993,-0.1378 0.201193,-0.20395 0.122646,-0.0675 0.292144,-0.0675 0.28112,0 0.456131,0.22324 0.176389,0.22324 0.176389,0.58705 0,0.3638 -0.176389,0.58704 -0.175011,0.22324 -0.456131,0.22324 -0.169498,0 -0.292144,-0.0661 -0.121267,-0.0675 -0.201193,-0.20533 z m 0.862652,-0.53881 q 0,-0.27974 -0.115755,-0.43822 -0.114378,-0.15985 -0.315571,-0.15985 -0.201194,0 -0.316949,0.15985 -0.114377,0.15848 -0.114377,0.43822 0,0.27974 0.114377,0.43959 0.115755,0.15848 0.316949,0.15848 0.201193,0 0.315571,-0.15848 0.115755,-0.15985 0.115755,-0.43959 z"
         style="stroke-width:0.26458335"
         id="path8457" />
      <path
         d="m 14.107668,285.22053 v -0.93431 h 0.253559 v 0.92466 q 0,0.21911 0.08544,0.32935 0.08544,0.10887 0.256315,0.10887 0.205328,0 0.323839,-0.13092 0.11989,-0.13091 0.11989,-0.35691 v -0.87505 h 0.253559 v 1.5434 h -0.253559 v -0.23702 q -0.09233,0.14056 -0.214974,0.20946 -0.121268,0.0675 -0.282498,0.0675 -0.265962,0 -0.403765,-0.16536 -0.137804,-0.16537 -0.137804,-0.48369 z m 0.638031,-0.97152 z"
         style="stroke-width:0.26458335"
         id="path8459" />
      <path
         d="m 16.176103,283.848 v 0.43822 h 0.522277 v 0.19706 h -0.522277 v 0.83784 q 0,0.1888 0.05099,0.24254 0.05237,0.0537 0.21084,0.0537 h 0.26045 v 0.21222 h -0.26045 q -0.293522,0 -0.405143,-0.10886 -0.111621,-0.11025 -0.111621,-0.39964 v -0.83784 h -0.186035 v -0.19706 h 0.186035 V 283.848 Z"
         style="stroke-width:0.26458335"
         id="path8461" />
    </g>
    <path
       style="fill:none;stroke:#000000;stroke-width:0.26458335px;stroke-linecap:butt;stroke-linejoin:miter;stroke-opacity:1"
       d="M 11.90625,261.65921 V 273.7639"
       id="path8390"
       inkscape:connector-curvature="0"
       sodipodi:nodetypes="cc" />
    <g
       aria-label="&lt;                  &gt;"
       style="font-style:normal;font-weight:normal;font-size:2.82222247px;line-height:1.25;font-family:sans-serif;text-align:center;letter-spacing:0px;word-spacing:0px;text-anchor:middle;fill:#000000;fill-opacity:1;stroke:none;stroke-width:0.26458335"
       id="text8482">
      <path
         d="m 3.5208868,262.91602 -1.4221355,0.50574 1.4221355,0.50299 v 0.2508 l -1.7666451,-0.64079 v -0.22875 l 1.7666451,-0.64079 z"
         style="stroke-width:0.26458335"
         id="path8484" />
      <path
         d="m 20.291614,262.91602 v -0.2508 l 1.766645,0.64079 v 0.22875 l -1.766645,0.64079 v -0.2508 l 1.41938,-0.50299 z"
         style="stroke-width:0.26458335"
         id="path8486" />
    </g>
    <path
       style="fill:none;stroke:#000000;stroke-width:0.50270838;stroke-linecap:butt;stroke-linejoin:miter;stroke-miterlimit:4;stroke-dasharray:none;stroke-opacity:1"
       d="M 6.1471991,232.1903 H 17.238885"
       id="path4701"
       inkscape:connector-curvature="0" />
    <path
       style="fill:none;stroke:#000000;stroke-width:0.5291667;stroke-linecap:butt;stroke-linejoin:miter;stroke-miterlimit:4;stroke-dasharray:none;stroke-opacity:1"
       d="M 5.7462951,252.02082 H 17.238885"
       id="path4703"
       inkscape:connector-curvature="0" />
  </g>
</svg>
