<?xml version="1.0" encoding="UTF-8" standalone="no"?>
<!DOCTYPE svg PUBLIC "-//W3C//DTD SVG 1.1//EN" "http://www.w3.org/Graphics/SVG/1.1/DTD/svg11.dtd">
<svg width="180px" height="380px" version="1.1" xmlns="http://www.w3.org/2000/svg" xmlns:xlink="http://www.w3.org/1999/xlink" xml:space="preserve" xmlns:serif="http://www.serif.com/" style="fill-rule:evenodd;clip-rule:evenodd;stroke-miterlimit:10;">
    <rect id="Panel" x="0" y="0" width="180" height="380" style="fill:#1c2126;"/>
    <g id="Lady">
        <g transform="matrix(1,0,0,1,3,3)">
            <path d="M122.979,151.32c0,0 -0.568,3.279 -1.297,4.714c-0.729,1.435 -1.34,3.936 -1.503,5.37c-0.167,1.436 -0.404,3.447 -0.364,5.126c0.042,1.68 -0.812,6.147 -1.179,6.928c-0.366,0.781 -0.975,2.708 -0.975,2.708c0,0 -0.489,1.31 -0.77,1.801c-0.285,0.492 -1.381,1.849 -1.909,3.61c-0.525,1.762 -1.561,4.384 -1.6,4.754c-0.039,0.369 -1.456,4.611 -1.555,4.884c-0.098,0.271 -1.614,4.001 -2.076,4.738c-0.463,0.736 -2.19,5.089 -2.327,5.379c-0.134,0.292 -1.747,4.545 -1.747,4.545l-1.251,3.301c0,0 -0.285,0.39 -0.269,0.972c0.01,0.328 0.124,2.529 0.321,4.37c0.158,1.419 0.406,2.619 0.406,2.619c0,0 0.677,6.951 0.677,7.979c0,1.032 -0.326,6.198 -0.886,8.8c-0.559,2.603 -2.325,9.203 -2.325,9.203c0,0 -2.421,6.952 -2.75,7.867c-0.328,0.914 -2.501,5.725 -2.847,6.603c-0.346,0.874 -1.711,3.958 -2.247,6.68c-0.54,2.721 -0.979,4.642 -1.424,6.002c-0.445,1.358 -1.366,3.435 -1.598,3.882c-0.23,0.45 -0.208,0.899 -0.289,1.283c-0.075,0.389 -0.096,0.523 -0.247,0.739c-0.155,0.213 -0.272,0.735 -0.29,0.929c-0.018,0.197 -0.111,0.254 -0.248,0.487c-0.134,0.232 -0.231,0.618 -0.464,0.716c-0.229,0.099 0.059,0.297 -0.056,0.452c-0.116,0.153 -0.212,0.391 -0.328,0.522c-0.113,0.136 -0.192,0.291 -0.288,0.446c-0.096,0.154 -0.134,0.198 -0.134,0.448c0,0.249 -0.018,0.384 -0.151,0.6c-0.139,0.215 -0.215,0.469 -0.311,0.564c-0.094,0.096 -0.114,0.249 -0.114,0.445c0,0.195 -0.097,0.699 -0.097,0.699c0,0 0.019,0.271 -0.251,0.776c-0.268,0.508 -0.382,0.718 -0.382,0.718l0.038,10.685c0,0 -0.371,5.474 -0.677,7.883c-0.304,2.411 -0.823,6.502 -0.9,7.145c-0.079,0.645 -0.616,6.743 -0.616,7.732c0,0.989 -0.175,4.739 -0.116,5.066c0.058,0.329 0.214,0.37 0.214,0.777c0,0.408 0.033,1.165 0.076,1.595c0.038,0.426 0.228,0.892 0.25,1.125c0.02,0.233 -0.195,0.699 -0.195,0.699c0,0 0.445,1.513 0.791,2.058c0.346,0.544 1.404,1.942 3.979,3.029c2.577,1.089 4.615,2.194 4.615,2.194c0,0 2.573,1.165 3.151,1.224c0.576,0.058 1.312,0.522 1.501,0.72c0.189,0.195 1.016,1.108 1.479,1.204c0.465,0.096 1.442,0.253 1.848,0.407c0.402,0.155 0.863,0.6 0.863,0.738c0,0.136 0.094,0.348 0.094,0.348l0.502,0.354c0,0 0.866,0.499 1.289,0.716c0.424,0.216 1.038,0.257 1.057,0.643c0.021,0.386 0.094,0.484 0.094,0.484c0,0 1.579,0.056 1.6,0.056c0.019,0 0.383,0.663 0.269,1.245c-0.116,0.581 -0.348,1.028 -0.5,1.088c-0.152,0.058 -0.193,0.153 -0.366,0.153c-0.174,0 -0.192,0.117 -0.25,0.234c-0.058,0.116 -0.169,0.567 -0.538,0.585c-0.364,0.016 -0.614,0.016 -0.614,0.016c0,0 -0.17,0.333 -0.442,0.449c-0.271,0.116 -0.578,0.176 -0.925,0.176c-0.344,0 -0.462,-0.038 -0.556,-0.06c-0.096,-0.02 -0.11,0.094 -0.267,0.252c-0.156,0.156 -0.597,0.271 -1.079,0.333c-0.481,0.056 -0.962,-0.024 -1.058,-0.043c-0.095,-0.019 -0.25,-0.058 -0.25,-0.058c0,0 0.02,0.234 -0.636,0.353c-0.653,0.116 -1.978,0.173 -2.404,0.153c-0.419,-0.021 -2.729,0.194 -3.229,0.253c-0.498,0.059 -2.438,-0.19 -2.766,-0.233c-0.328,-0.041 -3.365,-0.369 -4.06,-0.389c-0.689,-0.021 -3.555,-0.604 -4.573,-0.581c-1.022,0.02 -2.729,0.137 -2.729,0.137c0,0 -3.33,0.19 -4.308,0.075c-0.979,-0.119 -1.866,-0.175 -2.211,-0.212c-0.347,-0.04 -1.384,-0.564 -1.729,-1.281c-0.346,-0.72 -0.307,-1.285 -0.307,-1.46c0,-0.173 -0.058,-1.007 -0.173,-1.201c-0.116,-0.194 -0.35,-0.701 -0.445,-0.992c-0.096,-0.292 -0.056,-1.127 -0.056,-1.456c0,-0.329 -0.114,-1.5 0.097,-2.216c0.21,-0.717 0.362,-0.486 0.325,-2c-0.037,-1.514 -0.153,-8.814 -0.153,-8.814c0,0 -0.611,-0.136 -0.634,-0.329c-0.021,-0.196 -0.059,-1.788 -0.059,-1.788c0,0 -0.055,-1.438 -0.113,-2.486c-0.058,-1.048 -0.791,-5.164 -0.791,-5.164c0,0 -1.135,-7.983 -1.135,-8.624c0,-0.642 -0.614,-4.059 -0.729,-4.405c-0.114,-0.352 -1.209,-5.929 -1.209,-7.248c0,-0.538 -0.188,-1.527 -0.239,-2.659c-0.072,-1.643 -0.012,-3.583 0.066,-4.893c0.132,-2.215 0.613,-5.013 0.844,-6.47c0.231,-1.455 1.271,-5.595 1.769,-6.738c0.5,-1.144 1.692,-4.644 1.807,-5.633c0.115,-0.989 0.999,-3.918 1.154,-6.851c0.153,-2.935 0.23,-6.469 0.172,-7.828c-0.058,-1.359 -0.708,-5.924 -0.633,-6.971c0.034,-0.468 -0.079,-1.75 -0.079,-3.167c0.004,-1.774 0.162,-3.64 0.215,-4.232c0.094,-1.07 0.633,-4.837 0.633,-5.343c0,-0.504 0.289,-4.759 0.231,-5.981c-0.059,-1.223 -0.367,-4.871 -0.656,-5.475c-0.288,-0.603 -0.728,-3.085 -0.922,-3.767c-0.192,-0.682 -0.229,-1.318 -0.229,-1.476c0,-0.156 0,-0.254 0,-0.254c0,0 -0.826,-1.262 -1.116,-2.659c-0.288,-1.398 -0.497,-2.682 -0.497,-2.682c0,0 -0.118,-3.436 0.075,-4.814c0.192,-1.38 1.231,-5.457 1.5,-6.04c0.268,-0.582 1.689,-3.963 3.056,-5.633c0.509,-0.624 1.156,-1.643 1.862,-2.499c1.189,-1.442 2.404,-2.686 2.404,-2.686c0,0 1.152,-1.574 1.288,-1.748c0.137,-0.175 0.137,-0.471 0.502,-0.72c0.365,-0.25 1.381,-1.434 1.556,-1.668c0.175,-0.232 2.537,-3.4 2.886,-4.446c0.346,-1.048 2.192,-4.12 2.192,-4.12c0,0 1.519,-2.835 1.614,-2.989c0.095,-0.154 0.307,-0.642 0.307,-0.642c0,0 0,-0.33 0,-0.563c0,-0.234 0.136,-0.655 0.192,-0.774c0.058,-0.119 0.618,-1.106 0.635,-1.186c0.018,-0.078 0.152,-1.787 0.152,-1.787l-0.02,-2.621c0,0 -0.498,-0.446 -0.612,-0.816c-0.115,-0.369 0.134,-0.564 0.25,-0.602c0.114,-0.038 0.173,-0.175 0.173,-0.175c0,0 -0.039,-0.913 -0.059,-1.322c-0.019,-0.407 -0.056,-0.969 -0.056,-0.969c0,0 -0.538,-0.428 -0.464,-0.739c0.077,-0.312 0.232,-0.544 0.232,-0.544c0,0 -0.077,-0.798 -0.077,-1.126c0,-0.329 -0.271,-1.768 -0.31,-2.038c-0.039,-0.27 0.058,-0.505 -0.059,-0.582c-0.113,-0.079 -0.152,-0.193 -0.152,-0.408c0,-0.215 -0.057,-1.322 -0.057,-1.322l-0.193,-1.629c0,0 -0.038,-0.155 -0.21,-0.466c-0.173,-0.312 -0.173,-0.545 -0.173,-0.545l-0.041,-0.273l-0.115,-1.979l-0.19,-1.982l-0.176,-1.826c0,0 -0.189,-0.991 -0.21,-1.068c-0.021,-0.074 -0.231,-0.618 -0.231,-0.618l-0.286,-0.739l-0.194,-0.505c0,0 -0.806,0.248 -1.095,0.309c-0.288,0.061 -0.828,0.021 -1.117,0.021c-0.286,0 -1.325,0.331 -1.553,0.448c-0.23,0.116 -0.271,0.23 -0.389,0.25c-0.114,0.02 -0.194,0.369 -0.194,0.369c0,0 -0.381,0.449 -0.669,0.507c-0.288,0.059 -0.288,-0.041 -0.635,0.096c-0.346,0.138 -0.29,0.117 -0.442,0.233c-0.154,0.116 -0.08,0.251 -0.231,0.504c-0.153,0.253 -0.481,0.91 -0.923,1.01c-0.439,0.099 -0.904,0.176 -1.286,0.079c-0.384,-0.098 -0.5,-0.371 -0.865,-0.232c-0.366,0.135 -1.174,0.736 -1.251,0.813c-0.077,0.079 -0.214,0.391 -0.424,0.486c-0.209,0.097 -0.594,0.137 -0.594,0.137c0,0 -0.547,0.39 -1.395,0.893c-0.817,0.484 -1.921,1.075 -2.718,1.521c-0.41,0.229 -0.804,0.491 -1.039,0.597c-1.173,0.522 -4.325,2.171 -4.75,2.388c-0.423,0.215 -3.364,1.651 -3.596,1.77c-0.23,0.115 -0.557,0.153 -0.672,0.386c-0.114,0.234 -0.078,0.251 -0.387,0.504c-0.309,0.253 -0.844,0.818 -1.073,0.856c-0.231,0.038 -0.502,0.212 -0.56,-0.254c-0.057,-0.466 0.269,-0.428 -0.076,-0.35c-0.347,0.079 -1.042,0.25 -1.232,0.35c-0.189,0.1 -1.325,0.466 -1.845,0.641c-0.519,0.173 -0.962,0.391 -0.962,0.391c0,0 -0.27,0.057 -0.519,0.116c-0.247,0.058 -0.596,0.038 -0.771,0.095c-0.172,0.059 -1.979,1.165 -2.267,1.593c-0.289,0.428 -1.386,2.062 -1.599,2.565c-0.208,0.503 -0.882,1.38 -1.036,1.729c-0.152,0.349 -0.441,0.682 -0.613,0.836c-0.172,0.153 -0.77,0.739 -0.885,1.01c-0.115,0.271 -0.387,0.811 -0.501,0.949c-0.115,0.135 -1.231,1.652 -1.384,1.886c-0.152,0.232 -0.654,0.773 -0.769,0.97c-0.116,0.194 -0.688,1.009 -0.787,1.126c-0.098,0.116 -0.386,0.698 -0.501,0.777c-0.116,0.079 -0.213,0.294 -0.251,0.369c-0.038,0.076 -1.475,1.49 -1.709,1.667c-0.233,0.179 -0.443,0.447 -0.502,0.546c-0.057,0.098 -0.268,0.292 -0.556,0.543c-0.288,0.254 -0.58,0.446 -0.731,0.584c-0.154,0.135 -0.407,0.523 -0.54,0.641c-0.132,0.115 -0.4,0.718 -0.901,0.718c-0.501,0 -0.732,-0.136 -0.732,-0.582c0,-0.445 0.156,-1.03 0.443,-1.36c0.289,-0.329 0.577,-0.988 0.577,-0.988c0,0 -0.306,0.098 -0.403,0.137c-0.098,0.037 -1.904,1.301 -2.136,1.397c-0.23,0.097 -1.155,0.91 -1.481,0.988c-0.326,0.08 -0.573,0.296 -0.903,0.449c-0.328,0.154 -1,0.773 -1.345,0.621c-0.346,-0.157 -0.48,-0.333 -0.538,-0.604c-0.058,-0.271 0.038,-0.661 -0.116,-0.72c-0.153,-0.057 -0.424,0.038 -0.518,0.116c-0.096,0.079 -1.213,1.168 -1.539,1.05c-0.327,-0.114 -0.363,-0.312 -0.499,-0.562c-0.135,-0.251 -0.234,-0.254 -0.155,-0.604c0.077,-0.349 0.27,-0.465 0.135,-0.503c-0.135,-0.039 -0.444,-0.04 -0.539,-0.252c-0.096,-0.214 -0.329,-0.817 0.172,-1.77c0.501,-0.951 1.692,-2.115 2.172,-2.406c0.481,-0.291 3.825,-3.421 4.268,-3.75c0.444,-0.327 1.098,-0.871 1.444,-1.338c0.346,-0.466 1.132,-1.494 1.383,-2c0.25,-0.507 1.04,-1.824 0.904,-1.824c-0.136,0 -0.542,0.48 -0.81,0.774c-0.268,0.293 -1.251,1.382 -1.46,1.595c-0.21,0.213 -1.407,1.261 -1.886,1.514c-0.478,0.253 -1.132,0.561 -1.593,0.386c-0.46,-0.174 -0.746,-0.52 -0.864,-0.795c-0.118,-0.271 -0.173,-0.837 0.058,-1.225c0.231,-0.387 0.553,-0.812 0.651,-0.891c0.098,-0.079 0.56,-0.66 0.673,-0.775c0.116,-0.117 0.963,-1.128 1.289,-1.361c0.326,-0.231 0.881,-0.62 1.133,-0.835c0.25,-0.215 1.285,-1.185 1.556,-1.867c0.271,-0.68 0.907,-1.3 1.368,-1.591c0.462,-0.292 1.729,-1.548 1.903,-1.726c0.173,-0.179 1.518,-1.247 2.519,-1.283c1,-0.038 1.114,0.058 1.827,0.021c0.711,-0.039 2.095,-0.933 2.499,-1.187c0.403,-0.253 1.135,-0.776 1.135,-0.776c0,0 0.059,-0.177 0.115,-0.255c0.057,-0.074 2.462,-1.648 2.462,-1.648c0,0 -1.712,0.154 -2.059,-0.254c-0.347,-0.408 -0.44,-0.268 -0.153,-1.065c0.289,-0.798 0.943,-0.872 1.347,-1.068c0.404,-0.195 1.306,-0.566 1.421,-0.585c0.116,-0.018 1.386,-0.171 1.848,-0.31c0.461,-0.135 1,-0.639 1.21,-0.835c0.21,-0.193 1.96,-0.971 2.269,-1.03c0.308,-0.057 1.135,-0.658 1.423,-0.678c0.289,-0.021 1.345,-0.448 1.345,-0.448c0,0 4.04,-3.438 4.231,-3.611c0.189,-0.176 2.729,-2.021 3.095,-2.196c0.366,-0.175 1.613,-0.931 1.729,-0.969c0.114,-0.037 0.48,-0.195 0.48,-0.195c0,0 -0.192,-0.312 -0.46,-0.485c-0.27,-0.175 -0.654,-1.982 -0.599,-2.836c0.059,-0.853 0.293,-1.53 0.099,-1.842c-0.191,-0.311 -0.328,-1.048 -0.5,-1.321c-0.174,-0.274 -0.422,-0.561 -0.691,-0.642c-0.272,-0.078 -0.887,-1.533 -1,-1.962c-0.116,-0.428 -0.557,-1.223 -0.635,-1.359c-0.077,-0.137 -0.444,-1.245 -0.501,-1.341c-0.059,-0.097 -0.33,-2.6 -0.463,-3.145c-0.133,-0.544 -0.169,-0.838 -0.267,-1.283c-0.099,-0.444 -0.06,-2.02 -0.155,-2.252c-0.096,-0.234 -0.111,-0.798 -0.133,-0.874c-0.021,-0.077 -0.099,-1.901 -0.251,-2.271c-0.152,-0.369 -0.477,-0.838 -0.634,-1.342c-0.158,-0.504 -0.271,-0.62 -0.271,-1.339c0,-0.719 -0.135,-0.773 0.077,-1.163c0.215,-0.392 0.462,-0.412 0.425,-0.877c-0.037,-0.466 0.56,-1.743 0.826,-2.133c0.27,-0.391 0.347,-0.101 0.405,-0.798c0.056,-0.699 0.458,-1.438 0.613,-1.672c0.155,-0.232 0.188,-0.154 0.23,-0.734c0.04,-0.583 0.328,-1.673 0.328,-1.673c0,0 0.306,-1.456 0.729,-1.649c0.423,-0.195 0.788,0.035 0.788,-0.449c0,-0.482 0.329,-0.716 0.538,-0.91c0.212,-0.196 0.521,-0.641 1.328,-0.699c0.806,-0.058 1.093,-0.096 1.209,-0.116c0.116,-0.02 0.539,-0.077 0.675,-0.232c0.137,-0.157 0.039,-0.407 0.596,-0.545c0.558,-0.136 0.752,-0.29 0.886,-0.349c0.133,-0.058 0.766,-0.76 2.111,-0.914c1.345,-0.154 1.787,0.175 2.403,0.116c0.617,-0.058 1.482,-0.521 1.847,-0.853c0.367,-0.333 1.517,-1.866 1.845,-2.391c0.328,-0.523 0.906,-1.415 1.309,-1.514c0.403,-0.098 1.25,-0.119 1.731,0.62c0.482,0.739 0.954,1.031 1.172,1.127c0.211,0.096 0.846,0.077 1.077,-0.039c0.229,-0.116 0.751,-0.544 1.019,-0.367c0.268,0.173 0.479,0.561 0.479,0.561l0.672,-0.038l0.04,0.699c0,0 0.615,0.991 0.903,1.165c0.288,0.177 0.712,0.234 0.923,0.177c0.21,-0.06 0.521,-0.506 0.618,-0.741c0.094,-0.232 0.131,-1.088 0.383,-1.242c0.25,-0.152 0.728,-0.387 0.842,-0.136c0.058,0.119 0.144,0.279 0.25,0.334c0.119,0.059 0.256,0.014 0.404,0.134c0.29,0.232 0.274,0.33 0.638,0.33c0.364,0 1.576,-0.155 1.576,-0.155c0,0 1.288,-0.253 2.169,0.971c0.578,0.803 0.331,1.684 0.331,1.958c0,0.272 0.04,2.354 0.366,3.926c0.325,1.573 0.979,3.381 1.632,4.37c0.655,0.989 2.324,2.523 2.537,2.698c0.212,0.175 0.771,1.246 0.926,1.633c0.15,0.386 1.251,2.194 1.52,2.428c0.267,0.232 1.111,2.462 1.247,3.609c0.134,1.146 0.349,3.513 0.672,4.02c0.326,0.507 1.596,3.188 1.864,3.537c0.268,0.349 1.271,1.433 1.576,1.669c0.31,0.234 1.402,0.909 1.558,1.416c0.154,0.507 0.176,1.051 0.348,1.399c0.174,0.351 1.018,2.408 1.134,2.835c0.113,0.429 0.634,0.952 0.634,0.952c0,0 0.964,1.806 1.136,2.059c0.173,0.255 2.422,2.483 2.614,2.641c0.191,0.157 2.267,2.896 2.517,3.05c0.252,0.154 1.825,2.154 2.096,3.339c0.271,1.185 0.444,2.954 0.502,3.828c0.061,0.866 -0.073,1.598 -0.073,1.598Z" style="fill-opacity:0.231373;fill-rule:nonzero;"/>
        </g>
        <path d="M122.979,151.32c0,0 -0.568,3.279 -1.297,4.714c-0.729,1.435 -1.34,3.936 -1.503,5.37c-0.167,1.436 -0.404,3.447 -0.364,5.126c0.042,1.68 -0.812,6.147 -1.179,6.928c-0.366,0.781 -0.975,2.708 -0.975,2.708c0,0 -0.489,1.31 -0.77,1.801c-0.285,0.492 -1.381,1.849 -1.909,3.61c-0.525,1.762 -1.561,4.384 -1.6,4.754c-0.039,0.369 -1.456,4.611 -1.555,4.884c-0.098,0.271 -1.614,4.001 -2.076,4.738c-0.463,0.736 -2.19,5.089 -2.327,5.379c-0.134,0.292 -1.747,4.545 -1.747,4.545l-1.251,3.301c0,0 -0.285,0.39 -0.269,0.972c0.01,0.328 0.124,2.529 0.321,4.37c0.158,1.419 0.406,2.619 0.406,2.619c0,0 0.677,6.951 0.677,7.979c0,1.032 -0.326,6.198 -0.886,8.8c-0.559,2.603 -2.325,9.203 -2.325,9.203c0,0 -2.421,6.952 -2.75,7.867c-0.328,0.914 -2.501,5.725 -2.847,6.603c-0.346,0.874 -1.711,3.958 -2.247,6.68c-0.54,2.721 -0.979,4.642 -1.424,6.002c-0.445,1.358 -1.366,3.435 -1.598,3.882c-0.23,0.45 -0.208,0.899 -0.289,1.283c-0.075,0.389 -0.096,0.523 -0.247,0.739c-0.155,0.213 -0.272,0.735 -0.29,0.929c-0.018,0.197 -0.111,0.254 -0.248,0.487c-0.134,0.232 -0.231,0.618 -0.464,0.716c-0.229,0.099 0.059,0.297 -0.056,0.452c-0.116,0.153 -0.212,0.391 -0.328,0.522c-0.113,0.136 -0.192,0.291 -0.288,0.446c-0.096,0.154 -0.134,0.198 -0.134,0.448c0,0.249 -0.018,0.384 -0.151,0.6c-0.139,0.215 -0.215,0.469 -0.311,0.564c-0.094,0.096 -0.114,0.249 -0.114,0.445c0,0.195 -0.097,0.699 -0.097,0.699c0,0 0.019,0.271 -0.251,0.776c-0.268,0.508 -0.382,0.718 -0.382,0.718l0.038,10.685c0,0 -0.371,5.474 -0.677,7.883c-0.304,2.411 -0.823,6.502 -0.9,7.145c-0.079,0.645 -0.616,6.743 -0.616,7.732c0,0.989 -0.175,4.739 -0.116,5.066c0.058,0.329 0.214,0.37 0.214,0.777c0,0.408 0.033,1.165 0.076,1.595c0.038,0.426 0.228,0.892 0.25,1.125c0.02,0.233 -0.195,0.699 -0.195,0.699c0,0 0.445,1.513 0.791,2.058c0.346,0.544 1.404,1.942 3.979,3.029c2.577,1.089 4.615,2.194 4.615,2.194c0,0 2.573,1.165 3.151,1.224c0.576,0.058 1.312,0.522 1.501,0.72c0.189,0.195 1.016,1.108 1.479,1.204c0.465,0.096 1.442,0.253 1.848,0.407c0.402,0.155 0.863,0.6 0.863,0.738c0,0.136 0.094,0.348 0.094,0.348l0.502,0.354c0,0 0.866,0.499 1.289,0.716c0.424,0.216 1.038,0.257 1.057,0.643c0.021,0.386 0.094,0.484 0.094,0.484c0,0 1.579,0.056 1.6,0.056c0.019,0 0.383,0.663 0.269,1.245c-0.116,0.581 -0.348,1.028 -0.5,1.088c-0.152,0.058 -0.193,0.153 -0.366,0.153c-0.174,0 -0.192,0.117 -0.25,0.234c-0.058,0.116 -0.169,0.567 -0.538,0.585c-0.364,0.016 -0.614,0.016 -0.614,0.016c0,0 -0.17,0.333 -0.442,0.449c-0.271,0.116 -0.578,0.176 -0.925,0.176c-0.344,0 -0.462,-0.038 -0.556,-0.06c-0.096,-0.02 -0.11,0.094 -0.267,0.252c-0.156,0.156 -0.597,0.271 -1.079,0.333c-0.481,0.056 -0.962,-0.024 -1.058,-0.043c-0.095,-0.019 -0.25,-0.058 -0.25,-0.058c0,0 0.02,0.234 -0.636,0.353c-0.653,0.116 -1.978,0.173 -2.404,0.153c-0.419,-0.021 -2.729,0.194 -3.229,0.253c-0.498,0.059 -2.438,-0.19 -2.766,-0.233c-0.328,-0.041 -3.365,-0.369 -4.06,-0.389c-0.689,-0.021 -3.555,-0.604 -4.573,-0.581c-1.022,0.02 -2.729,0.137 -2.729,0.137c0,0 -3.33,0.19 -4.308,0.075c-0.979,-0.119 -1.866,-0.175 -2.211,-0.212c-0.347,-0.04 -1.384,-0.564 -1.729,-1.281c-0.346,-0.72 -0.307,-1.285 -0.307,-1.46c0,-0.173 -0.058,-1.007 -0.173,-1.201c-0.116,-0.194 -0.35,-0.701 -0.445,-0.992c-0.096,-0.292 -0.056,-1.127 -0.056,-1.456c0,-0.329 -0.114,-1.5 0.097,-2.216c0.21,-0.717 0.362,-0.486 0.325,-2c-0.037,-1.514 -0.153,-8.814 -0.153,-8.814c0,0 -0.611,-0.136 -0.634,-0.329c-0.021,-0.196 -0.059,-1.788 -0.059,-1.788c0,0 -0.055,-1.438 -0.113,-2.486c-0.058,-1.048 -0.791,-5.164 -0.791,-5.164c0,0 -1.135,-7.983 -1.135,-8.624c0,-0.642 -0.614,-4.059 -0.729,-4.405c-0.114,-0.352 -1.209,-5.929 -1.209,-7.248c0,-0.538 -0.188,-1.527 -0.239,-2.659c-0.072,-1.643 -0.012,-3.583 0.066,-4.893c0.132,-2.215 0.613,-5.013 0.844,-6.47c0.231,-1.455 1.271,-5.595 1.769,-6.738c0.5,-1.144 1.692,-4.644 1.807,-5.633c0.115,-0.989 0.999,-3.918 1.154,-6.851c0.153,-2.935 0.23,-6.469 0.172,-7.828c-0.058,-1.359 -0.708,-5.924 -0.633,-6.971c0.034,-0.468 -0.079,-1.75 -0.079,-3.167c0.004,-1.774 0.162,-3.64 0.215,-4.232c0.094,-1.07 0.633,-4.837 0.633,-5.343c0,-0.504 0.289,-4.759 0.231,-5.981c-0.059,-1.223 -0.367,-4.871 -0.656,-5.475c-0.288,-0.603 -0.728,-3.085 -0.922,-3.767c-0.192,-0.682 -0.229,-1.318 -0.229,-1.476c0,-0.156 0,-0.254 0,-0.254c0,0 -0.826,-1.262 -1.116,-2.659c-0.288,-1.398 -0.497,-2.682 -0.497,-2.682c0,0 -0.118,-3.436 0.075,-4.814c0.192,-1.38 1.231,-5.457 1.5,-6.04c0.268,-0.582 1.689,-3.963 3.056,-5.633c0.509,-0.624 1.156,-1.643 1.862,-2.499c1.189,-1.442 2.404,-2.686 2.404,-2.686c0,0 1.152,-1.574 1.288,-1.748c0.137,-0.175 0.137,-0.471 0.502,-0.72c0.365,-0.25 1.381,-1.434 1.556,-1.668c0.175,-0.232 2.537,-3.4 2.886,-4.446c0.346,-1.048 2.192,-4.12 2.192,-4.12c0,0 1.519,-2.835 1.614,-2.989c0.095,-0.154 0.307,-0.642 0.307,-0.642c0,0 0,-0.33 0,-0.563c0,-0.234 0.136,-0.655 0.192,-0.774c0.058,-0.119 0.618,-1.106 0.635,-1.186c0.018,-0.078 0.152,-1.787 0.152,-1.787l-0.02,-2.621c0,0 -0.498,-0.446 -0.612,-0.816c-0.115,-0.369 0.134,-0.564 0.25,-0.602c0.114,-0.038 0.173,-0.175 0.173,-0.175c0,0 -0.039,-0.913 -0.059,-1.322c-0.019,-0.407 -0.056,-0.969 -0.056,-0.969c0,0 -0.538,-0.428 -0.464,-0.739c0.077,-0.312 0.232,-0.544 0.232,-0.544c0,0 -0.077,-0.798 -0.077,-1.126c0,-0.329 -0.271,-1.768 -0.31,-2.038c-0.039,-0.27 0.058,-0.505 -0.059,-0.582c-0.113,-0.079 -0.152,-0.193 -0.152,-0.408c0,-0.215 -0.057,-1.322 -0.057,-1.322l-0.193,-1.629c0,0 -0.038,-0.155 -0.21,-0.466c-0.173,-0.312 -0.173,-0.545 -0.173,-0.545l-0.041,-0.273l-0.115,-1.979l-0.19,-1.982l-0.176,-1.826c0,0 -0.189,-0.991 -0.21,-1.068c-0.021,-0.074 -0.231,-0.618 -0.231,-0.618l-0.286,-0.739l-0.194,-0.505c0,0 -0.806,0.248 -1.095,0.309c-0.288,0.061 -0.828,0.021 -1.117,0.021c-0.286,0 -1.325,0.331 -1.553,0.448c-0.23,0.116 -0.271,0.23 -0.389,0.25c-0.114,0.02 -0.194,0.369 -0.194,0.369c0,0 -0.381,0.449 -0.669,0.507c-0.288,0.059 -0.288,-0.041 -0.635,0.096c-0.346,0.138 -0.29,0.117 -0.442,0.233c-0.154,0.116 -0.08,0.251 -0.231,0.504c-0.153,0.253 -0.481,0.91 -0.923,1.01c-0.439,0.099 -0.904,0.176 -1.286,0.079c-0.384,-0.098 -0.5,-0.371 -0.865,-0.232c-0.366,0.135 -1.174,0.736 -1.251,0.813c-0.077,0.079 -0.214,0.391 -0.424,0.486c-0.209,0.097 -0.594,0.137 -0.594,0.137c0,0 -0.547,0.39 -1.395,0.893c-0.817,0.484 -1.921,1.075 -2.718,1.521c-0.41,0.229 -0.804,0.491 -1.039,0.597c-1.173,0.522 -4.325,2.171 -4.75,2.388c-0.423,0.215 -3.364,1.651 -3.596,1.77c-0.23,0.115 -0.557,0.153 -0.672,0.386c-0.114,0.234 -0.078,0.251 -0.387,0.504c-0.309,0.253 -0.844,0.818 -1.073,0.856c-0.231,0.038 -0.502,0.212 -0.56,-0.254c-0.057,-0.466 0.269,-0.428 -0.076,-0.35c-0.347,0.079 -1.042,0.25 -1.232,0.35c-0.189,0.1 -1.325,0.466 -1.845,0.641c-0.519,0.173 -0.962,0.391 -0.962,0.391c0,0 -0.27,0.057 -0.519,0.116c-0.247,0.058 -0.596,0.038 -0.771,0.095c-0.172,0.059 -1.979,1.165 -2.267,1.593c-0.289,0.428 -1.386,2.062 -1.599,2.565c-0.208,0.503 -0.882,1.38 -1.036,1.729c-0.152,0.349 -0.441,0.682 -0.613,0.836c-0.172,0.153 -0.77,0.739 -0.885,1.01c-0.115,0.271 -0.387,0.811 -0.501,0.949c-0.115,0.135 -1.231,1.652 -1.384,1.886c-0.152,0.232 -0.654,0.773 -0.769,0.97c-0.116,0.194 -0.688,1.009 -0.787,1.126c-0.098,0.116 -0.386,0.698 -0.501,0.777c-0.116,0.079 -0.213,0.294 -0.251,0.369c-0.038,0.076 -1.475,1.49 -1.709,1.667c-0.233,0.179 -0.443,0.447 -0.502,0.546c-0.057,0.098 -0.268,0.292 -0.556,0.543c-0.288,0.254 -0.58,0.446 -0.731,0.584c-0.154,0.135 -0.407,0.523 -0.54,0.641c-0.132,0.115 -0.4,0.718 -0.901,0.718c-0.501,0 -0.732,-0.136 -0.732,-0.582c0,-0.445 0.156,-1.03 0.443,-1.36c0.289,-0.329 0.577,-0.988 0.577,-0.988c0,0 -0.306,0.098 -0.403,0.137c-0.098,0.037 -1.904,1.301 -2.136,1.397c-0.23,0.097 -1.155,0.91 -1.481,0.988c-0.326,0.08 -0.573,0.296 -0.903,0.449c-0.328,0.154 -1,0.773 -1.345,0.621c-0.346,-0.157 -0.48,-0.333 -0.538,-0.604c-0.058,-0.271 0.038,-0.661 -0.116,-0.72c-0.153,-0.057 -0.424,0.038 -0.518,0.116c-0.096,0.079 -1.213,1.168 -1.539,1.05c-0.327,-0.114 -0.363,-0.312 -0.499,-0.562c-0.135,-0.251 -0.234,-0.254 -0.155,-0.604c0.077,-0.349 0.27,-0.465 0.135,-0.503c-0.135,-0.039 -0.444,-0.04 -0.539,-0.252c-0.096,-0.214 -0.329,-0.817 0.172,-1.77c0.501,-0.951 1.692,-2.115 2.172,-2.406c0.481,-0.291 3.825,-3.421 4.268,-3.75c0.444,-0.327 1.098,-0.871 1.444,-1.338c0.346,-0.466 1.132,-1.494 1.383,-2c0.25,-0.507 1.04,-1.824 0.904,-1.824c-0.136,0 -0.542,0.48 -0.81,0.774c-0.268,0.293 -1.251,1.382 -1.46,1.595c-0.21,0.213 -1.407,1.261 -1.886,1.514c-0.478,0.253 -1.132,0.561 -1.593,0.386c-0.46,-0.174 -0.746,-0.52 -0.864,-0.795c-0.118,-0.271 -0.173,-0.837 0.058,-1.225c0.231,-0.387 0.553,-0.812 0.651,-0.891c0.098,-0.079 0.56,-0.66 0.673,-0.775c0.116,-0.117 0.963,-1.128 1.289,-1.361c0.326,-0.231 0.881,-0.62 1.133,-0.835c0.25,-0.215 1.285,-1.185 1.556,-1.867c0.271,-0.68 0.907,-1.3 1.368,-1.591c0.462,-0.292 1.729,-1.548 1.903,-1.726c0.173,-0.179 1.518,-1.247 2.519,-1.283c1,-0.038 1.114,0.058 1.827,0.021c0.711,-0.039 2.095,-0.933 2.499,-1.187c0.403,-0.253 1.135,-0.776 1.135,-0.776c0,0 0.059,-0.177 0.115,-0.255c0.057,-0.074 2.462,-1.648 2.462,-1.648c0,0 -1.712,0.154 -2.059,-0.254c-0.347,-0.408 -0.44,-0.268 -0.153,-1.065c0.289,-0.798 0.943,-0.872 1.347,-1.068c0.404,-0.195 1.306,-0.566 1.421,-0.585c0.116,-0.018 1.386,-0.171 1.848,-0.31c0.461,-0.135 1,-0.639 1.21,-0.835c0.21,-0.193 1.96,-0.971 2.269,-1.03c0.308,-0.057 1.135,-0.658 1.423,-0.678c0.289,-0.021 1.345,-0.448 1.345,-0.448c0,0 4.04,-3.438 4.231,-3.611c0.189,-0.176 2.729,-2.021 3.095,-2.196c0.366,-0.175 1.613,-0.931 1.729,-0.969c0.114,-0.037 0.48,-0.195 0.48,-0.195c0,0 -0.192,-0.312 -0.46,-0.485c-0.27,-0.175 -0.654,-1.982 -0.599,-2.836c0.059,-0.853 0.293,-1.53 0.099,-1.842c-0.191,-0.311 -0.328,-1.048 -0.5,-1.321c-0.174,-0.274 -0.422,-0.561 -0.691,-0.642c-0.272,-0.078 -0.887,-1.533 -1,-1.962c-0.116,-0.428 -0.557,-1.223 -0.635,-1.359c-0.077,-0.137 -0.444,-1.245 -0.501,-1.341c-0.059,-0.097 -0.33,-2.6 -0.463,-3.145c-0.133,-0.544 -0.169,-0.838 -0.267,-1.283c-0.099,-0.444 -0.06,-2.02 -0.155,-2.252c-0.096,-0.234 -0.111,-0.798 -0.133,-0.874c-0.021,-0.077 -0.099,-1.901 -0.251,-2.271c-0.152,-0.369 -0.477,-0.838 -0.634,-1.342c-0.158,-0.504 -0.271,-0.62 -0.271,-1.339c0,-0.719 -0.135,-0.773 0.077,-1.163c0.215,-0.392 0.462,-0.412 0.425,-0.877c-0.037,-0.466 0.56,-1.743 0.826,-2.133c0.27,-0.391 0.347,-0.101 0.405,-0.798c0.056,-0.699 0.458,-1.438 0.613,-1.672c0.155,-0.232 0.188,-0.154 0.23,-0.734c0.04,-0.583 0.328,-1.673 0.328,-1.673c0,0 0.306,-1.456 0.729,-1.649c0.423,-0.195 0.788,0.035 0.788,-0.449c0,-0.482 0.329,-0.716 0.538,-0.91c0.212,-0.196 0.521,-0.641 1.328,-0.699c0.806,-0.058 1.093,-0.096 1.209,-0.116c0.116,-0.02 0.539,-0.077 0.675,-0.232c0.137,-0.157 0.039,-0.407 0.596,-0.545c0.558,-0.136 0.752,-0.29 0.886,-0.349c0.133,-0.058 0.766,-0.76 2.111,-0.914c1.345,-0.154 1.787,0.175 2.403,0.116c0.617,-0.058 1.482,-0.521 1.847,-0.853c0.367,-0.333 1.517,-1.866 1.845,-2.391c0.328,-0.523 0.906,-1.415 1.309,-1.514c0.403,-0.098 1.25,-0.119 1.731,0.62c0.482,0.739 0.954,1.031 1.172,1.127c0.211,0.096 0.846,0.077 1.077,-0.039c0.229,-0.116 0.751,-0.544 1.019,-0.367c0.268,0.173 0.479,0.561 0.479,0.561l0.672,-0.038l0.04,0.699c0,0 0.615,0.991 0.903,1.165c0.288,0.177 0.712,0.234 0.923,0.177c0.21,-0.06 0.521,-0.506 0.618,-0.741c0.094,-0.232 0.131,-1.088 0.383,-1.242c0.25,-0.152 0.728,-0.387 0.842,-0.136c0.058,0.119 0.144,0.279 0.25,0.334c0.119,0.059 0.256,0.014 0.404,0.134c0.29,0.232 0.274,0.33 0.638,0.33c0.364,0 1.576,-0.155 1.576,-0.155c0,0 1.288,-0.253 2.169,0.971c0.578,0.803 0.331,1.684 0.331,1.958c0,0.272 0.04,2.354 0.366,3.926c0.325,1.573 0.979,3.381 1.632,4.37c0.655,0.989 2.324,2.523 2.537,2.698c0.212,0.175 0.771,1.246 0.926,1.633c0.15,0.386 1.251,2.194 1.52,2.428c0.267,0.232 1.111,2.462 1.247,3.609c0.134,1.146 0.349,3.513 0.672,4.02c0.326,0.507 1.596,3.188 1.864,3.537c0.268,0.349 1.271,1.433 1.576,1.669c0.31,0.234 1.402,0.909 1.558,1.416c0.154,0.507 0.176,1.051 0.348,1.399c0.174,0.351 1.018,2.408 1.134,2.835c0.113,0.429 0.634,0.952 0.634,0.952c0,0 0.964,1.806 1.136,2.059c0.173,0.255 2.422,2.483 2.614,2.641c0.191,0.157 2.267,2.896 2.517,3.05c0.252,0.154 1.825,2.154 2.096,3.339c0.271,1.185 0.444,2.954 0.502,3.828c0.061,0.866 -0.073,1.598 -0.073,1.598Z" style="fill:#0065a6;fill-rule:nonzero;"/>
    </g>
    <path d="M97.967,74.549l1.764,-2.437l-1.933,-1.908l-2.473,1.741c-0.458,-0.253 -0.948,-0.455 -1.464,-0.599l-0.5,-2.953l-2.733,0l-0.5,2.953c-0.517,0.144 -1.007,0.347 -1.466,0.599l-2.471,-1.741l-1.935,1.908l1.767,2.437c-0.257,0.451 -0.461,0.936 -0.606,1.443l-2.997,0.493l0,2.696l2.997,0.492c0.146,0.508 0.35,0.993 0.606,1.445l-1.767,2.436l1.937,1.907l2.471,-1.741c0.457,0.253 0.948,0.455 1.464,0.6l0.5,2.953l2.733,0l0.5,-2.953c0.516,-0.145 1.006,-0.347 1.464,-0.6l2.473,1.741l1.933,-1.907l-1.764,-2.436c0.256,-0.452 0.46,-0.937 0.605,-1.444l2.995,-0.492l0,-2.696l-2.995,-0.493c-0.145,-0.509 -0.349,-0.993 -0.605,-1.444Zm-5.973,5.981c-1.512,0 -2.734,-1.208 -2.734,-2.697c0,-1.489 1.223,-2.697 2.734,-2.697c1.511,0 2.735,1.208 2.735,2.697c0,1.489 -1.224,2.697 -2.735,2.697Zm34.194,-20.227l0,-2.697l-2.881,-0.517c-0.053,-0.339 -0.12,-0.673 -0.202,-1.002l2.462,-1.562l-1.047,-2.492l-2.861,0.609c-0.181,-0.291 -0.374,-0.574 -0.577,-0.848l1.668,-2.375l-1.936,-1.906l-2.406,1.644c-0.279,-0.201 -0.566,-0.391 -0.86,-0.568l0.617,-2.821l-2.526,-1.031l-1.585,2.425c-0.335,-0.08 -0.674,-0.146 -1.019,-0.198l-0.522,-2.84l-2.736,0l-0.523,2.84c-0.344,0.052 -0.682,0.118 -1.017,0.198l-1.585,-2.425l-2.527,1.031l0.618,2.821c-0.296,0.178 -0.582,0.367 -0.859,0.568l-2.409,-1.644l-1.934,1.906l1.667,2.374c-0.204,0.274 -0.396,0.558 -0.576,0.849l-2.861,-0.609l-1.047,2.492l2.462,1.562c-0.082,0.329 -0.149,0.663 -0.204,1.002l-2.879,0.517l0,2.697l2.879,0.516c0.055,0.339 0.122,0.674 0.204,1.003l-2.462,1.563l1.047,2.492l2.861,-0.61c0.181,0.291 0.372,0.573 0.577,0.849l-1.668,2.373l1.934,1.907l2.409,-1.644c0.278,0.2 0.565,0.391 0.859,0.569l-0.617,2.82l2.526,1.031l1.585,-2.425c0.335,0.079 0.673,0.147 1.019,0.198l0.523,2.84l2.734,0l0.522,-2.84c0.346,-0.051 0.684,-0.119 1.019,-0.198l1.585,2.426l2.527,-1.032l-0.618,-2.821c0.296,-0.178 0.582,-0.368 0.86,-0.568l2.408,1.644l1.934,-1.907l-1.667,-2.373c0.204,-0.275 0.396,-0.558 0.576,-0.849l2.861,0.61l1.047,-2.492l-2.46,-1.563c0.081,-0.329 0.147,-0.664 0.202,-1.003l2.879,-0.516Zm-15.046,4.517c-3.284,0 -5.948,-2.626 -5.948,-5.865c0,-3.24 2.664,-5.866 5.948,-5.866c3.288,0 5.95,2.626 5.95,5.866c0,3.239 -2.662,5.865 -5.95,5.865Z" style="fill:#4d77c1;fill-rule:nonzero;"/>
    <g id="TopHL">
        <path d="M0,18.5l180,0" style="fill:none;stroke:#c6c6c6;stroke-width:3px;"/>
        <path d="M0.001,22.875l179.999,0" style="fill:none;stroke:#c6c6c6;stroke-width:1px;"/>
    </g>
    <g id="BottomHL">
        <path d="M60.02,368.098l-60.02,0" style="fill:none;stroke:#c6c6c6;stroke-width:3px;"/>
        <path d="M180.01,368.098l-60.838,0" style="fill:none;stroke:#c6c6c6;stroke-width:3px;"/>
    </g>
    <g id="Logo">
        <path d="M64,362.051l1.279,0l0,2.979l2.846,0l0,1.02l-4.125,0l0,-3.999Z" style="fill:#fff;fill-rule:nonzero;"/>
        <rect x="68.402" y="362.051" width="1.279" height="3.998" style="fill:#fff;fill-rule:nonzero;"/>
        <path d="M70.242,362.051l2.137,0l2.096,2.982l0.125,0l-0.029,-2.982l1.24,0l0,3.998l-2.119,0l-2.104,-2.982l-0.132,0l0.026,2.982l-1.24,0l0,-3.998Z" style="fill:#fff;fill-rule:nonzero;"/>
        <path d="M76.369,366.049l0,-3.998l2.886,0c0.627,0 1.032,0.012 1.216,0.031c0.355,0.041 0.617,0.135 0.785,0.275c0.18,0.156 0.298,0.408 0.354,0.76c0.027,0.166 0.041,0.455 0.041,0.867c0,0.527 -0.021,0.895 -0.068,1.104c-0.062,0.281 -0.17,0.488 -0.316,0.621c-0.1,0.092 -0.221,0.16 -0.361,0.207c-0.144,0.047 -0.336,0.082 -0.578,0.105c-0.19,0.02 -0.547,0.023 -1.065,0.023l-2.894,0.005Zm1.201,-1.02l1.695,0c0.344,0 0.602,-0.018 0.771,-0.041c0.188,-0.031 0.309,-0.139 0.356,-0.312c0.036,-0.129 0.055,-0.332 0.055,-0.607c0,-0.297 -0.02,-0.516 -0.059,-0.65c-0.047,-0.174 -0.154,-0.279 -0.322,-0.314c-0.133,-0.029 -0.402,-0.049 -0.812,-0.049l-1.686,0l0.002,1.973Z" style="fill:#fff;fill-rule:nonzero;"/>
        <path d="M82.13,362.051l4.431,0l0,0.939l-3.229,0l0,0.578l3.063,0l0,0.879l-3.063,0l0,0.641l3.252,0l0,0.961l-4.453,0l0,-3.998l-0.001,0Z" style="fill:#fff;fill-rule:nonzero;"/>
        <path d="M86.964,362.051l2.138,0l2.094,2.982l0.127,0l-0.029,-2.982l1.238,0l0,3.998l-2.117,0l-2.104,-2.982l-0.134,0l0.026,2.982l-1.239,0l0,-3.998Z" style="fill:#fff;fill-rule:nonzero;"/>
        <path d="M93.09,366.049l0,-3.998l2.875,0c0.611,0.002 0.975,0.008 1.09,0.016c0.262,0.02 0.453,0.062 0.576,0.145c0.143,0.09 0.232,0.213 0.275,0.371c0.039,0.148 0.059,0.318 0.059,0.512c0,0.232 -0.021,0.41 -0.066,0.529c-0.074,0.189 -0.229,0.322 -0.473,0.396c0.18,0.029 0.311,0.074 0.396,0.135c0.195,0.133 0.293,0.404 0.293,0.826c0,0.324 -0.051,0.564 -0.152,0.727c-0.09,0.137 -0.227,0.229 -0.41,0.277c-0.154,0.041 -0.418,0.062 -0.783,0.062l-0.795,0.008l-2.885,-0.006Zm1.162,-2.422l1.717,0c0.377,0 0.602,-0.016 0.674,-0.045c0.096,-0.037 0.146,-0.133 0.146,-0.287c0,-0.156 -0.061,-0.252 -0.176,-0.283c-0.045,-0.012 -0.26,-0.02 -0.645,-0.021l-1.717,0l0,0.636l0.001,0Zm0,1.461l1.723,0c0.32,-0.002 0.51,-0.004 0.564,-0.006c0.178,-0.008 0.291,-0.043 0.34,-0.104c0.037,-0.051 0.057,-0.129 0.057,-0.23c0,-0.168 -0.061,-0.271 -0.182,-0.297c-0.043,-0.016 -0.303,-0.02 -0.779,-0.02l-1.723,0l0,0.657Z" style="fill:#fff;fill-rule:nonzero;"/>
        <path d="M98.537,362.051l4.43,0l0,0.939l-3.229,0l0,0.578l3.062,0l0,0.879l-3.062,0l0,0.641l3.252,0l0,0.961l-4.453,0l0,-3.998Z" style="fill:#fff;fill-rule:nonzero;"/>
        <path d="M103.371,366.049l0,-3.998l2.945,0c0.691,0.002 1.104,0.01 1.229,0.021c0.145,0.014 0.273,0.055 0.389,0.125c0.115,0.064 0.207,0.152 0.271,0.264c0.066,0.115 0.105,0.236 0.119,0.361c0.018,0.146 0.025,0.318 0.025,0.525c0,0.326 -0.021,0.559 -0.066,0.688c-0.068,0.188 -0.197,0.32 -0.387,0.396c-0.064,0.023 -0.16,0.049 -0.289,0.066c0.256,0.02 0.438,0.092 0.551,0.221c0.049,0.057 0.082,0.119 0.104,0.193c0.021,0.07 0.035,0.182 0.041,0.318c0.002,0.07 0.004,0.223 0.004,0.439l0,0.373l-1.201,0l0,-0.215c0,-0.238 -0.012,-0.408 -0.031,-0.514c-0.029,-0.146 -0.109,-0.234 -0.236,-0.268c-0.084,-0.018 -0.26,-0.023 -0.527,-0.023l-1.719,0l0,1.02l-1.222,0.008Zm1.219,-2.016l1.713,0c0.258,-0.004 0.408,-0.01 0.455,-0.014c0.172,-0.012 0.279,-0.062 0.324,-0.156c0.031,-0.066 0.047,-0.182 0.047,-0.34c0,-0.137 -0.014,-0.234 -0.041,-0.305c-0.041,-0.1 -0.139,-0.148 -0.295,-0.164c-0.055,-0.006 -0.219,-0.008 -0.492,-0.01l-1.711,0l0,0.989Z" style="fill:#fff;fill-rule:nonzero;"/>
        <path d="M111.217,363.781l2.785,0c0.004,0.088 0.006,0.146 0.006,0.17c0,0.521 -0.014,0.928 -0.043,1.213c-0.047,0.461 -0.309,0.74 -0.785,0.838c-0.246,0.051 -0.516,0.078 -0.809,0.09c-0.312,0.012 -0.68,0.018 -1.105,0.018c-0.756,0 -1.295,-0.023 -1.619,-0.08c-0.449,-0.072 -0.729,-0.279 -0.834,-0.619c-0.055,-0.166 -0.084,-0.355 -0.092,-0.572c-0.01,-0.27 -0.016,-0.557 -0.016,-0.859c0,-0.518 0.025,-0.877 0.074,-1.088c0.066,-0.289 0.188,-0.494 0.359,-0.613c0.094,-0.062 0.203,-0.111 0.342,-0.146c0.135,-0.033 0.324,-0.062 0.572,-0.084c0.354,-0.029 0.822,-0.047 1.418,-0.047c0.77,0 1.311,0.029 1.627,0.092c0.322,0.062 0.551,0.168 0.682,0.322c0.115,0.139 0.186,0.354 0.211,0.654c0.006,0.078 0.01,0.201 0.01,0.367l-1.219,0c-0.002,-0.105 -0.008,-0.186 -0.021,-0.225c-0.023,-0.1 -0.111,-0.158 -0.26,-0.178c-0.191,-0.025 -0.574,-0.039 -1.145,-0.039c-0.506,0 -0.855,0.018 -1.053,0.051c-0.186,0.033 -0.299,0.135 -0.338,0.307c-0.029,0.129 -0.047,0.355 -0.047,0.688c0,0.379 0.018,0.639 0.051,0.773c0.043,0.188 0.176,0.289 0.398,0.311c0.109,0.012 0.438,0.021 0.99,0.025c0.602,-0.006 0.986,-0.02 1.162,-0.033c0.156,-0.025 0.25,-0.098 0.271,-0.209c0.014,-0.07 0.021,-0.18 0.021,-0.322l-1.604,0l0,-0.801l0.01,0l0,-0.004l0.001,0Z" style="fill:#fff;fill-rule:nonzero;"/>
        <path d="M67.795,373.25l0,-4l2.943,0c0.695,0.002 1.104,0.01 1.229,0.021c0.144,0.018 0.271,0.059 0.39,0.125c0.114,0.068 0.207,0.156 0.271,0.268c0.065,0.113 0.106,0.232 0.12,0.357c0.018,0.146 0.025,0.322 0.025,0.529c0,0.326 -0.021,0.555 -0.066,0.684c-0.068,0.189 -0.197,0.324 -0.387,0.396c-0.064,0.025 -0.162,0.049 -0.291,0.068c0.256,0.02 0.438,0.092 0.552,0.219c0.049,0.059 0.083,0.121 0.104,0.195c0.021,0.068 0.033,0.18 0.041,0.316c0.002,0.072 0.004,0.221 0.004,0.441l0,0.373l-1.201,0l0,-0.215c0,-0.238 -0.012,-0.408 -0.032,-0.516c-0.031,-0.146 -0.11,-0.232 -0.237,-0.266c-0.084,-0.018 -0.261,-0.023 -0.529,-0.023l-1.718,0l0,1.02l-1.218,0.008Zm1.218,-2.016l1.716,0c0.256,-0.004 0.405,-0.01 0.452,-0.014c0.173,-0.01 0.28,-0.062 0.325,-0.156c0.031,-0.064 0.047,-0.182 0.047,-0.338c0,-0.139 -0.014,-0.234 -0.041,-0.307c-0.041,-0.098 -0.14,-0.15 -0.296,-0.164c-0.055,-0.004 -0.219,-0.006 -0.491,-0.008l-1.712,0l0,0.987Z" style="fill:#fff;fill-rule:nonzero;"/>
        <path d="M73.193,369.25l4.431,0l0,0.939l-3.229,0l0,0.576l3.063,0l0,0.879l-3.063,0l0,0.645l3.252,0l0,0.961l-4.453,0l0,-4l-0.001,0Z" style="fill:#fff;fill-rule:nonzero;"/>
        <path d="M77.887,371.926l1.182,0c-0.002,0.197 0.039,0.324 0.121,0.381c0.043,0.027 0.092,0.047 0.146,0.061c0.054,0.01 0.149,0.018 0.287,0.021c0.067,0.002 0.292,0.004 0.671,0.006c0.52,-0.002 0.82,-0.006 0.902,-0.01c0.152,-0.012 0.256,-0.031 0.305,-0.062c0.068,-0.043 0.104,-0.141 0.104,-0.285c0,-0.104 -0.021,-0.174 -0.063,-0.215c-0.06,-0.059 -0.198,-0.088 -0.42,-0.092c-0.151,0 -0.472,-0.014 -0.954,-0.035c-0.5,-0.02 -0.824,-0.035 -0.975,-0.041c-0.387,-0.014 -0.658,-0.059 -0.815,-0.135c-0.203,-0.102 -0.336,-0.271 -0.397,-0.512c-0.035,-0.133 -0.054,-0.307 -0.054,-0.521c0,-0.451 0.086,-0.77 0.259,-0.955c0.129,-0.145 0.323,-0.232 0.586,-0.279c0.235,-0.039 0.799,-0.061 1.688,-0.061c0.576,0 0.984,0.02 1.225,0.053c0.313,0.045 0.541,0.123 0.682,0.23c0.188,0.152 0.279,0.434 0.279,0.828c0,0.043 0,0.111 -0.002,0.205l-1.182,0c-0.004,-0.096 -0.012,-0.162 -0.021,-0.197c-0.026,-0.107 -0.117,-0.172 -0.271,-0.188c-0.136,-0.012 -0.463,-0.02 -0.983,-0.02c-0.517,0 -0.822,0.018 -0.918,0.045c-0.107,0.033 -0.16,0.125 -0.16,0.27c0,0.143 0.058,0.229 0.17,0.26c0.097,0.023 0.525,0.051 1.291,0.072c0.693,0.021 1.138,0.043 1.328,0.072c0.192,0.025 0.346,0.07 0.461,0.133c0.113,0.059 0.205,0.143 0.273,0.248c0.104,0.158 0.154,0.414 0.154,0.766c0,0.396 -0.051,0.684 -0.151,0.863c-0.103,0.184 -0.269,0.307 -0.498,0.373c-0.228,0.064 -0.851,0.1 -1.872,0.1c-0.621,0 -1.068,-0.018 -1.345,-0.049c-0.336,-0.039 -0.577,-0.115 -0.724,-0.23c-0.158,-0.121 -0.252,-0.293 -0.281,-0.516c-0.016,-0.105 -0.023,-0.23 -0.023,-0.383l-0.005,-0.201Z" style="fill:#fff;fill-rule:nonzero;"/>
        <path d="M83.205,369.25l4.43,0l0,0.939l-3.229,0l0,0.576l3.062,0l0,0.879l-3.062,0l0,0.645l3.252,0l0,0.961l-4.453,0l0,-4Z" style="fill:#fff;fill-rule:nonzero;"/>
        <path d="M92.381,373.25l-0.344,-0.678l-2.646,0l-0.343,0.678l-1.394,0l2.121,-4l1.895,0l2.092,4l-1.381,0Zm-0.772,-1.553l-0.771,-1.52l-0.242,0l-0.771,1.52l1.784,0Z" style="fill:#fff;fill-rule:nonzero;"/>
        <path d="M93.945,373.25l0,-4l2.941,0c0.695,0.002 1.105,0.01 1.23,0.021c0.143,0.018 0.271,0.059 0.387,0.125c0.117,0.068 0.207,0.156 0.271,0.268c0.065,0.113 0.104,0.232 0.121,0.357c0.019,0.146 0.024,0.322 0.024,0.529c0,0.326 -0.021,0.555 -0.065,0.684c-0.067,0.189 -0.197,0.324 -0.39,0.396c-0.062,0.025 -0.16,0.049 -0.289,0.068c0.257,0.02 0.438,0.092 0.552,0.219c0.049,0.059 0.084,0.121 0.104,0.195c0.021,0.068 0.035,0.18 0.043,0.316c0.002,0.072 0.002,0.221 0.002,0.441l0,0.373l-1.201,0l0,-0.215c0,-0.238 -0.01,-0.408 -0.029,-0.516c-0.031,-0.146 -0.109,-0.232 -0.236,-0.266c-0.084,-0.018 -0.262,-0.023 -0.531,-0.023l-1.717,0l0,1.02l-1.217,0.008Zm1.219,-2.016l1.713,0c0.256,-0.004 0.408,-0.01 0.455,-0.014c0.172,-0.01 0.279,-0.062 0.324,-0.156c0.031,-0.064 0.047,-0.182 0.047,-0.338c0,-0.139 -0.014,-0.234 -0.041,-0.307c-0.041,-0.098 -0.139,-0.15 -0.295,-0.164c-0.055,-0.004 -0.219,-0.006 -0.492,-0.008l-1.711,0l0,0.987Z" style="fill:#fff;fill-rule:nonzero;"/>
        <path d="M103.17,371.705l1.219,0c0.01,0.193 0.014,0.33 0.014,0.398c0,0.291 -0.047,0.523 -0.139,0.699c-0.096,0.188 -0.277,0.312 -0.549,0.385c-0.295,0.08 -0.805,0.119 -1.527,0.119c-0.801,0 -1.338,-0.014 -1.615,-0.037c-0.258,-0.021 -0.461,-0.057 -0.607,-0.104c-0.146,-0.047 -0.271,-0.115 -0.369,-0.205c-0.131,-0.121 -0.213,-0.281 -0.248,-0.479c-0.037,-0.209 -0.059,-0.609 -0.059,-1.207c0,-0.57 0.014,-0.959 0.043,-1.154c0.043,-0.301 0.158,-0.52 0.35,-0.65c0.146,-0.102 0.375,-0.174 0.691,-0.217c0.326,-0.043 0.916,-0.062 1.766,-0.062c0.51,0 0.867,0.014 1.082,0.031c0.324,0.029 0.562,0.094 0.709,0.188c0.186,0.111 0.303,0.279 0.352,0.5c0.035,0.154 0.053,0.338 0.053,0.543c0,0.031 -0.002,0.109 -0.004,0.229l-1.219,0c-0.004,-0.098 -0.008,-0.162 -0.014,-0.197c-0.016,-0.119 -0.066,-0.191 -0.16,-0.227c-0.141,-0.049 -0.52,-0.07 -1.139,-0.07c-0.422,0 -0.713,0.014 -0.873,0.035c-0.191,0.025 -0.312,0.135 -0.359,0.318c-0.037,0.146 -0.059,0.393 -0.059,0.727c0,0.346 0.021,0.582 0.059,0.713c0.047,0.17 0.176,0.271 0.387,0.297c0.172,0.02 0.473,0.031 0.904,0.031c0.467,0 0.783,-0.012 0.955,-0.029c0.158,-0.018 0.262,-0.072 0.305,-0.172c0.029,-0.083 0.047,-0.215 0.051,-0.403Z" style="fill:#fff;fill-rule:nonzero;"/>
        <path d="M104.822,369.25l1.281,0l0,1.432l2.75,0l0,-1.432l1.279,0l0,4l-1.279,0l0,-1.451l-2.75,0l0,1.451l-1.281,0l0,-4Z" style="fill:#fff;fill-rule:nonzero;"/>
    </g>
</svg>
