<?xml version="1.0" encoding="UTF-8" standalone="no"?>
<!DOCTYPE svg PUBLIC "-//W3C//DTD SVG 1.1//EN" "http://www.w3.org/Graphics/SVG/1.1/DTD/svg11.dtd">
<svg width="24px" height="18px" version="1.1" xmlns="http://www.w3.org/2000/svg" xmlns:xlink="http://www.w3.org/1999/xlink" xml:space="preserve" xmlns:serif="http://www.serif.com/" style="fill-rule:evenodd;clip-rule:evenodd;stroke-linejoin:round;stroke-miterlimit:1.41421;">
    <g id="g56702" transform="matrix(0.275239,0,0,-0.275239,-208.872,322.422)">
        <g id="path5829" transform="matrix(1,2.44929e-16,-2.44929e-16,1,758.875,1170.01)">
            <path d="M5.709,-53.08c-3.137,0 -5.709,2.587 -5.709,5.741l0,43.017c0,3.158 2.569,5.741 5.709,5.741l68.516,0c3.136,0 5.705,-2.583 5.705,-5.741l0,-43.017c0,-3.154 -2.569,-5.741 -5.705,-5.741l-68.516,0Z" style="fill:#0f0f0f;fill-rule:nonzero;"/>
        </g>
        <g id="path5849" transform="matrix(1,2.44929e-16,-2.44929e-16,1,-3.6332,2.64133)">
            <path d="M767.67,1122.83c0,-1.898 1.54,-3.449 3.424,-3.449l63.34,0c1.888,0 3.427,1.551 3.427,3.449l0,37.411c0,1.888 -1.54,3.442 -3.427,3.442l-63.34,0c-1.884,0 -3.424,-1.551 -3.424,-3.442l0,-37.411Z" style="fill:#4c4c4c;fill-rule:nonzero;"/>
        </g>
        <g id="path5859" transform="matrix(1,2.44929e-16,-2.44929e-16,1,-3.6332,2.64133)">
            <rect x="767.663" y="1119.38" width="34.256" height="44.301" style="fill:#f4f4f4;fill-rule:nonzero;"/>
        </g>
        <g transform="matrix(3.63321,0,0,-3.63321,758.539,1174.78)">
            <circle cx="6.226" cy="8.424" r="2.059"/>
        </g>
    </g>
</svg>
