<?xml version="1.0" encoding="UTF-8" standalone="no"?>
<svg
   xmlns:osb="http://www.openswatchbook.org/uri/2009/osb"
   xmlns:dc="http://purl.org/dc/elements/1.1/"
   xmlns:cc="http://creativecommons.org/ns#"
   xmlns:rdf="http://www.w3.org/1999/02/22-rdf-syntax-ns#"
   xmlns:svg="http://www.w3.org/2000/svg"
   xmlns="http://www.w3.org/2000/svg"
   xmlns:xlink="http://www.w3.org/1999/xlink"
   xmlns:sodipodi="http://sodipodi.sourceforge.net/DTD/sodipodi-0.dtd"
   xmlns:inkscape="http://www.inkscape.org/namespaces/inkscape"
   id="SvgjsSvg1006"
   width="45"
   height="380"
   version="1.1"
   sodipodi:docname="Not.svg"
   inkscape:version="0.92.2 5c3e80d, 2017-08-06">
  <metadata
     id="metadata7215">
    <rdf:RDF>
      <cc:Work
         rdf:about="">
        <dc:format>image/svg+xml</dc:format>
        <dc:type
           rdf:resource="http://purl.org/dc/dcmitype/StillImage" />
        <dc:title />
      </cc:Work>
    </rdf:RDF>
  </metadata>
  <sodipodi:namedview
     pagecolor="#ffffff"
     bordercolor="#666666"
     borderopacity="1"
     objecttolerance="10"
     gridtolerance="10"
     guidetolerance="10"
     inkscape:pageopacity="0"
     inkscape:pageshadow="2"
     inkscape:window-width="901"
     inkscape:window-height="1006"
     id="namedview7213"
     showgrid="false"
     inkscape:pagecheckerboard="true"
     inkscape:zoom="4.1736842"
     inkscape:cx="30.591882"
     inkscape:cy="250.45126"
     inkscape:window-x="496"
     inkscape:window-y="11"
     inkscape:window-maximized="0"
     inkscape:current-layer="SvgjsSvg1006"
     inkscape:measure-start="21.6858,252.097"
     inkscape:measure-end="21.0081,301.907" />
  <defs
     id="SvgjsDefs1007">
    <linearGradient
       inkscape:collect="always"
       id="linearGradient2335">
      <stop
         style="stop-color:#000000;stop-opacity:1;"
         offset="0"
         id="stop2331" />
      <stop
         style="stop-color:#000000;stop-opacity:0;"
         offset="1"
         id="stop2333" />
    </linearGradient>
    <linearGradient
       id="linearGradient2303"
       osb:paint="solid">
      <stop
         style="stop-color:#ff4a00;stop-opacity:1;"
         offset="0"
         id="stop2301" />
    </linearGradient>
    <linearGradient
       inkscape:collect="always"
       xlink:href="#linearGradient2335"
       id="linearGradient2355"
       x1="-95.150146"
       y1="190.60844"
       x2="-61.168144"
       y2="190.60844"
       gradientUnits="userSpaceOnUse"
       gradientTransform="translate(100.94386,171.40468)" />
    <linearGradient
       inkscape:collect="always"
       xlink:href="#linearGradient2335"
       id="linearGradient2357"
       x1="-0.00027546287"
       y1="348.72168"
       x2="42.705563"
       y2="348.72168"
       gradientUnits="userSpaceOnUse"
       gradientTransform="translate(1.9988884)" />
    <linearGradient
       inkscape:collect="always"
       xlink:href="#linearGradient2303"
       id="linearGradient2373"
       gradientUnits="userSpaceOnUse"
       gradientTransform="translate(1.4991663,13.492497)"
       x1="0.99944663"
       y1="335.22919"
       x2="42.705283"
       y2="335.22919" />
    <linearGradient
       inkscape:collect="always"
       xlink:href="#linearGradient2303"
       id="linearGradient888"
       gradientUnits="userSpaceOnUse"
       gradientTransform="translate(1.4991663,13.492497)"
       x1="0.99944663"
       y1="335.22919"
       x2="42.705283"
       y2="335.22919" />
    <linearGradient
       inkscape:collect="always"
       xlink:href="#linearGradient2335"
       id="linearGradient890"
       gradientUnits="userSpaceOnUse"
       gradientTransform="translate(1.9988884)"
       x1="-0.00027546287"
       y1="348.72168"
       x2="42.705563"
       y2="348.72168" />
    <linearGradient
       inkscape:collect="always"
       xlink:href="#linearGradient2303"
       id="linearGradient892"
       gradientUnits="userSpaceOnUse"
       gradientTransform="translate(1.4991663,13.492497)"
       x1="0.99944663"
       y1="335.22919"
       x2="42.705283"
       y2="335.22919" />
    <linearGradient
       inkscape:collect="always"
       xlink:href="#linearGradient2335"
       id="linearGradient894"
       gradientUnits="userSpaceOnUse"
       gradientTransform="translate(1.9988884)"
       x1="-0.00027546287"
       y1="348.72168"
       x2="42.705563"
       y2="348.72168" />
    <linearGradient
       inkscape:collect="always"
       xlink:href="#linearGradient2303"
       id="linearGradient896"
       gradientUnits="userSpaceOnUse"
       gradientTransform="translate(1.4991663,13.492497)"
       x1="0.99944663"
       y1="335.22919"
       x2="42.705283"
       y2="335.22919" />
    <linearGradient
       inkscape:collect="always"
       xlink:href="#linearGradient2335"
       id="linearGradient898"
       gradientUnits="userSpaceOnUse"
       gradientTransform="translate(1.9988884)"
       x1="-0.00027546287"
       y1="348.72168"
       x2="42.705563"
       y2="348.72168" />
    <linearGradient
       inkscape:collect="always"
       xlink:href="#linearGradient2303"
       id="linearGradient900"
       gradientUnits="userSpaceOnUse"
       gradientTransform="translate(1.4991663,13.492497)"
       x1="0.99944663"
       y1="335.22919"
       x2="42.705283"
       y2="335.22919" />
    <linearGradient
       inkscape:collect="always"
       xlink:href="#linearGradient2335"
       id="linearGradient902"
       gradientUnits="userSpaceOnUse"
       gradientTransform="translate(1.9988884)"
       x1="-0.00027546287"
       y1="348.72168"
       x2="42.705563"
       y2="348.72168" />
    <linearGradient
       inkscape:collect="always"
       xlink:href="#linearGradient2303"
       id="linearGradient904"
       gradientUnits="userSpaceOnUse"
       gradientTransform="translate(1.4991663,13.492497)"
       x1="0.99944663"
       y1="335.22919"
       x2="42.705283"
       y2="335.22919" />
    <linearGradient
       inkscape:collect="always"
       xlink:href="#linearGradient2335"
       id="linearGradient906"
       gradientUnits="userSpaceOnUse"
       gradientTransform="translate(1.9988884)"
       x1="-0.00027546287"
       y1="348.72168"
       x2="42.705563"
       y2="348.72168" />
    <linearGradient
       inkscape:collect="always"
       xlink:href="#linearGradient2303"
       id="linearGradient908"
       gradientUnits="userSpaceOnUse"
       gradientTransform="translate(1.4991663,13.492497)"
       x1="0.99944663"
       y1="335.22919"
       x2="42.705283"
       y2="335.22919" />
    <linearGradient
       inkscape:collect="always"
       xlink:href="#linearGradient2335"
       id="linearGradient910"
       gradientUnits="userSpaceOnUse"
       gradientTransform="translate(1.9988884)"
       x1="-0.00027546287"
       y1="348.72168"
       x2="42.705563"
       y2="348.72168" />
    <linearGradient
       inkscape:collect="always"
       xlink:href="#linearGradient2303"
       id="linearGradient912"
       gradientUnits="userSpaceOnUse"
       gradientTransform="translate(1.4991663,13.492497)"
       x1="0.99944663"
       y1="335.22919"
       x2="42.705283"
       y2="335.22919" />
    <linearGradient
       inkscape:collect="always"
       xlink:href="#linearGradient2335"
       id="linearGradient914"
       gradientUnits="userSpaceOnUse"
       gradientTransform="translate(1.9988884)"
       x1="-0.00027546287"
       y1="348.72168"
       x2="42.705563"
       y2="348.72168" />
    <linearGradient
       inkscape:collect="always"
       xlink:href="#linearGradient2335"
       id="linearGradient916"
       gradientUnits="userSpaceOnUse"
       gradientTransform="translate(100.94386,171.40468)"
       x1="-95.150146"
       y1="190.60844"
       x2="-61.168144"
       y2="190.60844" />
    <linearGradient
       inkscape:collect="always"
       xlink:href="#linearGradient2335"
       id="linearGradient918"
       gradientUnits="userSpaceOnUse"
       gradientTransform="translate(100.94386,171.40468)"
       x1="-95.150146"
       y1="190.60844"
       x2="-61.168144"
       y2="190.60844" />
    <linearGradient
       inkscape:collect="always"
       xlink:href="#linearGradient2335"
       id="linearGradient920"
       gradientUnits="userSpaceOnUse"
       gradientTransform="translate(100.94386,171.40468)"
       x1="-95.150146"
       y1="190.60844"
       x2="-61.168144"
       y2="190.60844" />
    <linearGradient
       inkscape:collect="always"
       xlink:href="#linearGradient2335"
       id="linearGradient922"
       gradientUnits="userSpaceOnUse"
       gradientTransform="translate(100.94386,171.40468)"
       x1="-95.150146"
       y1="190.60844"
       x2="-61.168144"
       y2="190.60844" />
    <linearGradient
       inkscape:collect="always"
       xlink:href="#linearGradient2335"
       id="linearGradient924"
       gradientUnits="userSpaceOnUse"
       gradientTransform="translate(100.94386,171.40468)"
       x1="-95.150146"
       y1="190.60844"
       x2="-61.168144"
       y2="190.60844" />
    <linearGradient
       inkscape:collect="always"
       xlink:href="#linearGradient2335"
       id="linearGradient926"
       gradientUnits="userSpaceOnUse"
       gradientTransform="translate(100.94386,171.40468)"
       x1="-95.150146"
       y1="190.60844"
       x2="-61.168144"
       y2="190.60844" />
  </defs>
  <path
     style="fill:#d4bb0d;fill-opacity:1;stroke:#68242b;stroke-opacity:1"
     d="M 0,0 H 45 V 380 H 0 Z"
     id="SvgjsRect1008" />
  <g
     aria-label="Charred"
     style="font-style:normal;font-variant:normal;font-weight:normal;font-stretch:normal;font-size:5.33333349px;line-height:1.25;font-family:Desert;-inkscape-font-specification:Desert;letter-spacing:0px;word-spacing:0px;opacity:1;fill:url(#linearGradient2373);fill-opacity:1;stroke:url(#linearGradient2357);stroke-opacity:1"
     id="text29"
     transform="translate(-0.67768112,-0.67768116)">
    <path
       d="m 8.8346131,349.96435 q -0.010667,0.58666 -0.010667,0.928 0,0.096 -0.096,0.096 -0.1066667,0 -0.1066667,-0.43734 -0.4906667,-0.0747 -0.4906667,-1.10933 0,-0.096 0.096,-0.096 0.1066666,0 0.1066666,0.21333 0,0.71467 0.2986667,0.78934 0.021333,-1.48267 0.021333,-1.52534 0,-0.10666 0.096,-0.10666 0.1066667,0 0.1066667,0.10666 0,0.33067 -0.010667,0.90667 0.1706667,-0.096 0.2133334,-0.352 0.042667,-0.224 0.128,-0.224 0.096,0 0.096,0.0747 0,0.48 -0.448,0.736 z m 1.6319999,-1.39734 H 2.4986129 v -0.21333 l 1.4293334,-0.448 q 0.2986666,0 0.96,0.21333 0.672,0.21334 0.9706667,0.21334 0.544,0 1.664,-0.192 1.1200001,-0.20267 1.6640001,-0.20267 0,0 1.2799999,0.416 z m -0.5866666,3.232 q -0.928,1.22667 -2.8053334,1.22667 -0.9813333,0 -1.824,-0.39467 -0.9280001,-0.42666 -1.3653334,-1.22666 l -0.224,0.24533 -0.16,-0.064 0.3413333,-0.24533 q -0.1173333,-0.352 -0.2453333,-0.704 -0.1706667,-0.416 -0.5226667,-0.448 l 0.064,-0.0853 h 0.2026667 v -0.0853 q 0,-0.29867 0.064,-0.94933 0.074667,-0.61867 0.053333,-0.94934 l -0.010667,-0.26666 -0.1706666,0.032 -0.064,-0.0747 q 0.2773333,-0.0427 0.4693333,-0.544 0.224,-0.608 0.3626667,-0.736 l -0.192,-0.256 v -0.128 l 0.064,-0.032 0.2346667,0.224 q 0,-0.0107 0.224,-0.26667 0.16,-0.192 0.16,-0.30933 0,-0.0533 -0.021333,-0.096 l 0.2133334,-0.0107 q 0.7253333,-0.672 1.6106667,-0.736 l 0.1706667,-0.40533 q 0.021333,-0.0107 0.042667,-0.0107 0.053333,-0.0107 0.053333,0.0747 0,0.10667 -0.1386667,0.32 0.5333333,0.096 1.0666667,0.18133 0.768,0.17067 0.8853334,0.416 l 0.256,-0.21333 0.1386666,0.064 -0.2346666,0.224 q 0.256,0.256 0.2986666,0.288 0.16,0.192 0.2133334,0.352 l 0.096,0.0427 0.3093333,-0.0533 0.021333,0.10667 q -0.042667,-0.032 -0.096,-0.032 -0.1280001,0 -0.2773334,0.224 -0.096,0.16 -0.192,0.30933 l 0.2346667,0.21334 -0.042667,0.128 q -0.192,-0.192 -0.5866667,-0.192 -0.3946667,0 -0.7466667,-0.352 l -0.1386666,0.16 -0.074667,-0.032 0.085333,-0.224 q -0.4053333,-0.416 -1.4506667,-0.416 -0.576,0 -1.0133333,0.78933 -0.2773334,0.64 -0.5653334,1.28 l 0.256,0.0747 0.064,0.096 -0.2986667,0.032 q -0.064,0.26666 -0.064,0.50133 0,0 0.032,0.23467 h 0.1813334 l 0.053333,0.0747 -0.085333,-0.0213 q -0.074667,0 -0.1493334,0.16 -0.074667,0.14933 -0.074667,0.23467 0,0.768 0.32,1.22666 0.2666667,0.37334 0.992,0.82134 l 0.256,-0.29867 0.074667,0.0427 -0.2346667,0.32 q 0.4053334,0.18133 0.9706667,0.18133 l -0.010667,-0.21333 0.074667,-0.032 q 0.042667,0.0747 0.096,0.14933 0.064,0.10667 0.128,0.10667 0.010667,0 0.1813334,-0.0533 0.1066666,-0.032 0.1706666,0.0213 0.256,-0.0853 0.7680001,-0.30934 l 0.085333,-0.30933 h 0.1386667 l -0.085333,0.192 0.042667,0.0747 q 0.224,-0.21334 0.8,-0.27734 l 0.288,-0.26666 h 0.1066667 l -0.2346667,0.27733 q 0.256,0.34133 0.256,0.416 0,0.0533 -0.021333,0.10667 z"
       style="font-size:10.66666698px;fill:url(#linearGradient888);fill-opacity:1;stroke:url(#linearGradient890);stroke-opacity:1"
       id="path2375"
       inkscape:connector-curvature="0" />
    <path
       d="m 16.59228,348.54568 -6.218667,0.0213 v -0.21333 l 0.736,-0.36267 1.130667,0.33067 q 0.512,0 1.557333,-0.20267 1.056,-0.20266 1.568,-0.20266 0,0 1.226667,0.416 z m -1.76,2.02667 q -0.01067,0.58666 -0.01067,0.91733 0,0.10667 -0.096,0.10667 -0.106667,0 -0.096,-0.43734 -0.48,-0.0853 -0.48,-1.10933 0,-0.096 0.096,-0.096 0.096,0 0.096,0.21333 0,0.704 0.288,0.78934 0.02133,-1.49334 0.02133,-1.536 0,-0.096 0.096,-0.096 0.096,0 0.096,0.096 0,0.34133 -0.01067,0.91733 0.16,-0.096 0.213333,-0.36267 0.04267,-0.224 0.117333,-0.224 0.096,0 0.096,0.0853 0,0.48 -0.426666,0.736 z m 1.322666,-1.46134 -0.352,0.16 -0.064,-0.0427 -0.128,0.11733 q 0,0.42667 0.16,1.312 0.170667,0.88533 0.170667,1.32267 0,0.43733 -0.16,0.736 -0.192,0.384 -0.597333,0.384 -0.810667,0 -0.810667,-1.056 0,-0.11734 0.01067,-0.24534 l -0.266667,-0.128 0.277333,-0.13866 q -0.01067,-0.0533 -0.01067,-0.512 0,-0.32 -0.096,-0.49067 l -0.16,0.0747 h -0.106667 l -0.07467,-0.13867 0.352,-0.24533 q -0.117333,-1.45067 -0.704,-1.45067 -0.501333,0 -1.034666,0.77867 l 0.426666,0.14933 -0.192,0.128 -0.256,-0.13867 q -0.117333,0.10667 -0.106666,1.13067 0.01067,0.62933 0.032,1.248 0,0.45867 -0.277334,0.77867 -0.277333,0.30933 -0.725333,0.30933 l -0.149333,-0.0107 q -0.298667,-0.40533 -0.298667,-0.65066 0,-0.256 0.07467,-0.75734 0.07467,-0.50133 0.07467,-0.74666 0,-0.17067 -0.149333,-0.27734 -0.234667,0.10667 -0.384,0.128 l -0.07467,-0.032 q 0.234667,-0.128 0.469334,-0.24533 0.202666,-0.13867 0.202666,-0.448 0,-0.896 -0.01067,-0.98133 -0.05333,-0.704 -0.298667,-0.8 0.096,-0.0533 0.234667,-0.0213 l 0.01067,-2.12266 -0.05333,-0.0533 -0.341333,-0.0533 -0.032,-0.13867 0.106666,-0.064 0.266667,0.0533 0.01067,-0.10667 q 0.01067,-0.21333 -0.106667,-0.46933 l -0.330667,0.16 -0.117333,-0.0107 -0.064,-0.10667 q 0.373333,-0.11733 0.48,-0.37333 0.106667,-0.26667 0.213333,-0.544 0.618667,-0.224 0.586667,-0.224 0.373333,0 0.64,0.544 l 0.330667,-0.16 0.064,0.0747 q -0.181334,0.20266 -0.394667,0.30933 0.01067,0.21333 0.04267,0.672 0.04267,0.448 0.04267,0.69333 0.138667,0.0747 0.405334,0.26667 l -0.202667,0.064 -0.138667,-0.0427 q -0.08533,0.34134 -0.08533,0.34134 l 0.02133,0.704 q 0.298667,-0.0533 0.853334,-0.27734 0.064,-0.24533 0.138666,-0.448 l 0.117334,0.0107 0.07467,0.10667 -0.149333,0.34133 q 0.416,0.10667 0.832,0.21333 0.362667,0.10667 0.576,0.30934 0.245333,0.23466 0.512,0.768 0.309333,-0.256 0.373333,-0.256 l 0.117334,0.0107 0.064,0.064 -0.512,0.34134 0.07467,0.20266 q 0.064,-0.0427 0.16,-0.0427 0.064,0 0.202667,0.0213 0.138667,0.0213 0.213333,0.0213 z"
       style="font-size:10.66666698px;fill:url(#linearGradient892);fill-opacity:1;stroke:url(#linearGradient894);stroke-opacity:1"
       id="path2377"
       inkscape:connector-curvature="0" />
    <path
       d="m 22.78178,348.52435 h -5.589333 q -0.106667,0.352 -0.362667,0.40533 l 0.01067,0.352 q 0,0.10667 -0.106667,0.10667 -0.064,0 -0.07467,-0.864 h -0.224 v -0.21334 l 0.16,-0.0427 q -0.32,-0.23467 -0.32,-0.72534 0,-0.096 0.08533,-0.096 0.07467,0 0.106666,0.23467 0.04267,0.27733 0.181334,0.384 l -0.01067,-0.97067 q 0,-0.10666 0.106667,-0.10666 0.05333,0 0.07467,1.216 l 0.256,-0.0747 q 0,-0.13867 0,-0.288 0.01067,-0.18133 0.106667,-0.18133 0.08533,0 0.064,0.42666 0.949333,-0.26666 0.949333,-0.26666 0.298667,0 0.938667,0.24533 0.650667,0.24533 0.949333,0.24533 0.181334,0 0.586667,-0.17066 0.405333,-0.17067 0.586667,-0.17067 0.266666,0 0.768,0.128 0.384,0.10667 0.757333,0.21333 z m -5.781333,0 H 16.82978 v 0.192 q 0.117333,-0.0427 0.170667,-0.192 z m 5.344,3.98933 q 0,0.192 -0.373334,0.352 -0.32,0.13867 -0.544,0.13867 -0.256,0 -0.810666,-0.39467 -0.512,0.448 -1.269334,0.448 -0.917333,0 -1.525333,-0.43733 -0.693333,-0.50134 -0.629333,-1.376 l -0.373334,-0.0853 0.192,-0.096 0.128,0.0427 0.096,-0.16 q -0.106666,-0.0853 -0.288,-0.27733 l 0.117334,-0.032 0.16,0.096 q 0.106666,-0.064 0.224,-0.29867 0.128,-0.24533 0.245333,-0.33067 0.245333,-0.17066 1.333333,-0.68266 l -0.01067,-0.21334 q 0.117333,0.13867 0.224,0.18134 0.02133,-0.0213 0.309333,-0.14934 0.234667,-0.10666 0.234667,-0.192 0,-0.096 -0.298667,-0.32 -0.288,-0.23466 -0.384,-0.23466 -0.256,0 -0.522667,0.48 -0.256,0.46933 -0.597333,0.46933 -0.629333,0 -0.565333,-0.87467 -0.07467,-0.096 -0.245334,-0.224 l 0.192,-0.032 0.117334,0.096 q 0.106666,-0.224 0.437333,-0.608 0.16,-0.0853 0.309333,-0.17066 0.256,-0.14934 0.256,-0.24534 0,-0.0213 -0.02133,-0.0427 l 0.138667,-0.032 0.181333,0.128 0.266667,-0.0213 q 0.32,-0.0213 0.821333,0.21334 0.512,0.224 0.757333,0.48 l 0.128,-0.0213 0.181334,0.0213 q -0.064,0.11733 -0.181334,0.192 0.405334,0.81066 0.405334,1.25866 l 0.224,-0.0213 0.170666,0.0747 q -0.01067,0.0107 -0.266666,0.096 -0.149334,0.0533 -0.149334,0.192 0,0.064 0.02133,0.224 0.02133,0.16 0.02133,0.24533 0.128,0.032 0.330667,0.13867 l -0.106667,0.064 -0.170667,-0.096 -0.096,0.13866 v 0.0427 q 0,0.11733 0.032,0.30933 0.04267,0.224 0.05333,0.29867 0.08533,0.16 0.277333,0.46933 0.266667,-0.18133 0.437333,-0.18133 0,0 0.117334,0.0427 -0.16,0.096 -0.48,0.27733 0,0.0747 0.384,0.26667 0.384,0.192 0.384,0.37333 z m -2.357334,-1.6 q 0,-0.0747 -0.01067,-0.27733 -0.01067,-0.17067 0,-0.27734 -0.501334,0.17067 -1.002667,0.34134 -0.746667,0.29866 -0.746667,0.53333 0,0.24533 0.181334,0.448 0.192,0.192 0.437333,0.23467 0.04267,0 0.064,0.032 0.032,0.032 0.064,0.032 0.330667,0 0.469333,-0.0533 0.149334,-0.064 0.373334,-0.29866 -0.16,-0.10667 -0.394667,-0.33067 0.170667,-0.0107 0.458667,0.18133 0.106666,-0.43733 0.106666,-0.56533 z"
       style="font-size:10.66666698px;fill:url(#linearGradient896);fill-opacity:1;stroke:url(#linearGradient898);stroke-opacity:1"
       id="path2379"
       inkscape:connector-curvature="0" />
    <path
       d="m 27.293114,348.54568 -4.565333,0.0213 v -0.21333 l 0.544,-0.36267 q 0.821333,0.33067 0.821333,0.33067 0.373334,0 1.141334,-0.20267 0.778666,-0.20266 1.152,-0.20266 0,0 0.906666,0.416 z m -1.290666,2.02667 q -0.01067,0.58666 -0.01067,0.928 0,0.096 -0.07467,0.096 -0.07467,0 -0.064,-0.43734 -0.352,-0.0853 -0.352,-1.10933 0,-0.096 0.07467,-0.096 0.064,0 0.064,0.21333 0,0.704 0.213333,0.78934 0.01067,-1.49334 0.01067,-1.536 0,-0.096 0.07467,-0.096 0.07467,0 0.07467,0.096 0,0.34133 -0.01067,0.91733 0.117333,-0.096 0.149333,-0.36267 0.032,-0.224 0.08533,-0.224 0.07467,0 0.07467,0.0853 0,0.48 -0.309333,0.736 z m 1.056,-2.79467 q -0.138667,0.224 -0.448,0.16 -0.05333,0.30933 -0.448,0.512 -0.544,0.27733 -0.629334,0.352 0.08533,0.096 0.234667,0.29867 l -0.096,0.0427 -0.245333,-0.14933 q -0.192,0.13867 -0.405334,0.68267 l 0.416,0.0853 q -0.08533,0.16 -0.202666,0.16 -0.05333,0 -0.224,-0.0533 -0.224,0.832 -0.224,1.216 l 0.07467,0.0747 q 0.128,0 0.309334,0.0427 -0.07467,0.0853 -0.213334,0.16 l -0.128,-0.0213 q -0.032,0.0427 -0.032,0.14933 0,0.096 0.032,0.27733 0.04267,0.18134 0.04267,0.27734 0,0.416 -0.170667,0.736 -0.213333,0.40533 -0.597333,0.40533 -0.544,0 -0.544,-0.87467 0,-0.16 0.02133,-0.30933 l -0.234666,-0.0213 q 0,0 -0.288001,0.11733 l -0.138666,-0.096 0.522667,-0.256 0.096,0.032 0.04267,-0.0747 q 0,-0.736 0,-1.48266 -0.02133,-0.928 -0.16,-1.44 -0.01067,-0.0427 -0.138666,-0.064 -0.128001,-0.0213 -0.128001,-0.10667 l 0.01067,-0.0427 q 0.149334,-0.064 0.234667,-0.11733 v -0.224 q 0,-0.0533 -0.04267,-0.18133 -0.04267,-0.128 -0.04267,-0.192 -0.309334,0 -0.426667,-0.256 l 0.07467,-0.064 q 0.117334,0.0213 0.298667,0.0853 0.469334,-0.352 0.832,-0.352 0.213334,0 0.341334,0.17067 0.128,0.17066 0.138666,0.384 0.512,-0.37334 0.906667,-0.50134 0.05333,-0.30933 0.192,-0.34133 l 0.064,0.032 q -0.08533,0.24533 -0.08533,0.24533 0,0.064 0.202666,0.0853 0.138667,0.0107 0.266667,0.032 0.16,0.0533 0.416,0.20266 0.213333,0.128 0.522667,0.20267 z"
       style="font-size:10.66666698px;fill:url(#linearGradient900);fill-opacity:1;stroke:url(#linearGradient902);stroke-opacity:1"
       id="path2381"
       inkscape:connector-curvature="0" />
    <path
       d="m 31.688946,348.54568 -4.565333,0.0213 v -0.21333 l 0.544,-0.36267 q 0.821333,0.33067 0.821333,0.33067 0.373334,0 1.141334,-0.20267 0.778666,-0.20266 1.152,-0.20266 0,0 0.906666,0.416 z m -1.290666,2.02667 q -0.01067,0.58666 -0.01067,0.928 0,0.096 -0.07467,0.096 -0.07467,0 -0.064,-0.43734 -0.352,-0.0853 -0.352,-1.10933 0,-0.096 0.07467,-0.096 0.064,0 0.064,0.21333 0,0.704 0.213333,0.78934 0.01067,-1.49334 0.01067,-1.536 0,-0.096 0.07467,-0.096 0.07467,0 0.07467,0.096 0,0.34133 -0.01067,0.91733 0.117333,-0.096 0.149333,-0.36267 0.032,-0.224 0.08533,-0.224 0.07467,0 0.07467,0.0853 0,0.48 -0.309333,0.736 z m 1.056,-2.79467 q -0.138667,0.224 -0.448,0.16 -0.05333,0.30933 -0.448,0.512 -0.544,0.27733 -0.629334,0.352 0.08533,0.096 0.234667,0.29867 l -0.096,0.0427 -0.245333,-0.14933 q -0.192,0.13867 -0.405334,0.68267 l 0.416,0.0853 q -0.08533,0.16 -0.202666,0.16 -0.05333,0 -0.224,-0.0533 -0.224,0.832 -0.224,1.216 l 0.07467,0.0747 q 0.128,0 0.309334,0.0427 -0.07467,0.0853 -0.213334,0.16 l -0.128,-0.0213 q -0.032,0.0427 -0.032,0.14933 0,0.096 0.032,0.27733 0.04267,0.18134 0.04267,0.27734 0,0.416 -0.170667,0.736 -0.213333,0.40533 -0.597333,0.40533 -0.544,0 -0.544,-0.87467 0,-0.16 0.02133,-0.30933 l -0.234666,-0.0213 q 0,0 -0.288,0.11733 l -0.138667,-0.096 0.522667,-0.256 0.096,0.032 0.04267,-0.0747 q 0,-0.736 0,-1.48266 -0.02133,-0.928 -0.16,-1.44 -0.01067,-0.0427 -0.138666,-0.064 -0.128,-0.0213 -0.128,-0.10667 l 0.01067,-0.0427 q 0.149334,-0.064 0.234667,-0.11733 v -0.224 q 0,-0.0533 -0.04267,-0.18133 -0.04267,-0.128 -0.04267,-0.192 -0.309334,0 -0.426667,-0.256 l 0.07467,-0.064 q 0.117333,0.0213 0.298666,0.0853 0.469334,-0.352 0.832,-0.352 0.213334,0 0.341334,0.17067 0.128,0.17066 0.138666,0.384 0.512,-0.37334 0.906667,-0.50134 0.05333,-0.30933 0.192,-0.34133 l 0.064,0.032 q -0.08533,0.24533 -0.08533,0.24533 0,0.064 0.202666,0.0853 0.138667,0.0107 0.266667,0.032 0.16,0.0533 0.416,0.20266 0.213333,0.128 0.522667,0.20267 z"
       style="font-size:10.66666698px;fill:url(#linearGradient904);fill-opacity:1;stroke:url(#linearGradient906);stroke-opacity:1"
       id="path2383"
       inkscape:connector-curvature="0" />
    <path
       d="m 37.727447,348.57768 h -5.237333 q -0.128,0.36267 -0.458667,0.416 v 0.37333 q 0,0.0427 -0.032,0.0747 -0.02133,0.032 -0.07467,0.032 l -0.106666,-0.10667 -0.01067,-0.78933 h -0.288 v -0.224 l 0.202667,-0.0533 q -0.405334,-0.23467 -0.405334,-0.74667 0,-0.096 0.117334,-0.096 l 0.096,0.0853 q 0.032,0.16 0.064,0.30934 0.032,0.14933 0.202666,0.24533 l -0.01067,-1.00267 q 0,-0.0427 0.032,-0.0747 0.032,-0.032 0.07467,-0.032 l 0.106667,0.10666 0.02133,1.13067 0.32,-0.0853 q 0,-0.128 0,-0.26667 0.02133,-0.192 0.117334,-0.192 l 0.106666,0.10667 v 0.29866 l 0.917334,-0.24533 1.472,0.512 1.504,-0.352 q 0,0 1.269333,0.352 z m -5.472,0 h -0.224 v 0.192 q 0.138667,-0.032 0.224,-0.192 z m 4.96,3.56267 q -0.213333,0.10666 -0.384,0.448 -0.04267,0.0107 -0.789333,0.352 -0.48,0.224 -0.821334,0.224 -1.344,0 -1.92,-0.34134 -0.64,-0.384 -1.034666,-1.536 l -0.213334,0.13867 -0.128,-0.064 v -0.10667 q 0.192,-0.0747 0.298667,-0.128 -0.117333,-0.53333 -0.117333,-0.78933 0,-0.736 0.426666,-1.49333 -0.07467,-0.0853 -0.341333,-0.37334 l 0.106667,-0.064 0.309333,0.192 q 0.096,-0.064 0.202667,-0.23466 l -0.128,-0.17067 v -0.128 l 0.106666,-0.032 0.149334,0.17067 q 0.426666,-0.416 1.013333,-0.65067 0.362667,-0.13867 1.162667,-0.32 0.01067,-0.0213 0.064,-0.24533 0.032,-0.13867 0.181333,-0.18134 l 0.106667,0.064 q -0.01067,0.0213 -0.181334,0.34134 0.16,0.128 0.693334,0.37333 0.416,0.192 0.586666,0.448 0.256,0.37333 0.256,1.10933 0,0.16 0.117334,0.21334 0.05333,0.0107 0.266666,0.0213 v 0.16 h -0.04267 q -0.181334,0 -0.394667,-0.10667 -0.181333,0.288 -0.373333,0.576 -0.213334,0.32 -0.458667,0.50134 l 0.08533,0.224 -0.096,0.0427 -0.170666,-0.18133 q -0.192,0.11733 -0.8,0.29867 -0.64,0.18133 -0.949334,0.18133 -0.096,0 -0.138666,-0.0213 l -0.05333,0.128 q 0.149334,0.32 0.256,0.42666 0.106667,0.10667 0.405334,0.192 0.064,-0.13866 0.202666,-0.40533 l 0.149334,0.0427 q -0.01067,0.0107 -0.181334,0.39466 0.277334,0.192 0.405334,0.192 0.106666,0 0.213333,-0.128 0.106667,-0.128 0.224,-0.16 l 0.07467,0.0427 q -0.07467,0.10667 -0.16,0.256 l 0.05333,0.0533 q 0.874667,-0.40533 1.034667,-0.40533 0.181333,0 0.384,0.17067 0.170666,0.14933 0.341333,0.288 z m -1.504,-3.09334 q 0,-0.064 -0.096,-0.0747 -0.064,0 -0.202667,0.0213 -0.128,0.0107 -0.149333,0.0107 -0.04267,0 -0.096,-0.0533 -0.04267,-0.0533 -0.04267,-0.096 0.181334,-0.032 0.522667,-0.10666 -0.106667,-0.13867 -0.352,-0.26667 -0.234667,-0.13867 -0.394667,-0.13867 -0.07467,0 -0.138666,0.064 l 0.01067,0.0427 q 0,0.0747 -0.05333,0.128 -0.032,0 -0.096,-0.032 -0.05333,-0.032 -0.08533,-0.032 -0.213334,0 -0.437334,0.24533 -0.192,0.20267 -0.288,0.43734 0.138667,0.032 0.309334,0.16 -0.05333,0.10666 -0.170667,0.10666 -0.064,0 -0.224,-0.0853 -0.05333,0.24533 -0.16,0.75733 0.032,0.0107 0.07467,0.0107 0.117333,0 0.341333,-0.0427 0.224,-0.0427 0.341333,-0.0427 0.08533,-0.096 0.48,-0.24534 0.437334,-0.16 0.608,-0.27733 0.298667,-0.20267 0.298667,-0.49067 z"
       style="font-size:10.66666698px;fill:url(#linearGradient908);fill-opacity:1;stroke:url(#linearGradient910);stroke-opacity:1"
       id="path2385"
       inkscape:connector-curvature="0" />
    <path
       d="m 44.204449,348.56701 h -5.525334 q -0.138666,0.36267 -0.48,0.416 v 0.36267 q 0,0.0427 -0.032,0.0747 -0.032,0.032 -0.08533,0.032 l -0.106667,-0.10667 -0.01067,-0.77867 h -0.309334 v -0.21333 l 0.213334,-0.0533 q -0.426667,-0.23467 -0.426667,-0.74667 0,-0.096 0.117333,-0.096 l 0.106667,0.0853 q 0.032,0.16 0.064,0.30934 0.04267,0.13866 0.224,0.24533 l -0.02133,-1.00267 q 0,-0.0427 0.032,-0.0747 0.04267,-0.032 0.08533,-0.032 l 0.117333,0.10666 0.02133,1.13067 0.341333,-0.0853 q 0,-0.13867 0,-0.27734 0.01067,-0.192 0.117333,-0.192 l 0.117334,0.10667 -0.01067,0.29867 0.970667,-0.23467 1.546667,0.512 1.589333,-0.36267 q 0,0 1.344,0.36267 z m -5.781334,0 h -0.234666 l 0.01067,0.192 q 0.149334,-0.032 0.224,-0.192 z m 5.450667,4.18134 q 0,0.16 -0.224,0.27733 -0.181333,0.10667 -0.352,0.10667 -0.458666,0 -1.184,-0.48 -0.618666,0.40533 -1.557333,0.40533 -0.554667,0 -1.269334,-0.45867 -0.768,-0.49066 -0.853333,-1.00266 l -0.224,0.23466 -0.096,-0.128 q 0.01067,-0.13866 0.277333,-0.24533 -0.202666,-0.49067 -0.202666,-1.14133 0,-0.384 0.07467,-0.82134 l -0.330666,-0.14933 0.01067,-0.16 0.106667,-0.064 0.213333,0.18133 h 0.08533 l 0.05333,-0.0533 v -0.192 l -0.298667,-0.11733 v -0.10667 h 0.32 q 0.362667,-0.71467 0.746667,-1.04533 l -0.245333,-0.23467 0.04267,-0.13867 0.309334,0.21334 q 0.384,-0.27734 0.96,-0.27734 0,0 0.501333,0.128 0.245334,-0.192 0.405334,-0.288 l 0.07467,0.13867 -0.192,0.17067 q 0.096,0.096 0.288,0.17066 0.277334,0.128 0.298667,0.14934 0.064,-0.33067 0.064,-0.512 0,-0.288 -0.04267,-0.69334 l -0.405333,-0.0427 q 0.245333,-0.0853 0.362667,-0.20267 0.02133,-0.32 0.05333,-0.64 0.032,-0.33067 0.192,-0.62933 l -0.266667,-0.23467 v -0.096 l 0.106667,-0.064 0.245333,0.23467 q 0.522667,-0.36267 0.714667,-0.36267 0.352,0 0.416,0.40533 0.032,0.33067 0.064,0.66134 -0.032,0.10666 -0.032,0.18133 0,0.13867 0.05333,0.18133 0.309334,-0.17066 0.309334,-0.17066 0.149333,0 0.170666,0.0853 -0.341333,0.24533 -0.533333,0.416 0.192,0.0213 0.554667,0.096 -0.07467,0.0747 -0.362667,0.128 -0.202667,0.032 -0.202667,0.21333 0,0.53334 0.032,1.41867 0.04267,1.09867 0.04267,1.42933 l 0.330667,0.0853 0.064,-0.0213 0.032,0.16 -0.117334,0.032 q -0.170666,-0.128 -0.309333,-0.096 l -0.02133,0.85334 q 0.032,0.0213 0.064,0.0427 0.064,-0.0107 0.07467,-0.0427 l 0.117334,0.0427 q -0.02133,0.0213 -0.170667,0.16 -0.08533,0.0853 -0.08533,0.21334 0,0.42666 0.373333,1.06666 l 0.181333,-0.17066 0.138667,0.0107 v 0.128 l -0.245333,0.17067 q 0.298666,0.37333 0.298666,0.49067 z m -2.005333,-1.888 q 0,-0.0213 -0.096,-0.48 -0.04267,-0.0213 -0.181333,-0.032 -0.07467,-0.0107 -0.149334,-0.0853 0.08533,-0.14933 0.341334,-0.096 -0.02133,-0.0853 -0.181334,-0.576 -0.032,0 -0.106666,0.0107 -0.064,0.0107 -0.096,0.0107 -0.08533,0 -0.128,-0.096 0.149333,-0.0427 0.245333,-0.13867 0,-0.224 -0.458667,-0.53333 -0.448,-0.32 -0.693333,-0.32 -0.501334,0 -0.501334,0.26666 0,0.0427 0.096,0.128 0.128,0.11734 0.149334,0.128 l -0.05333,0.0533 -0.149333,-0.0107 q -0.05333,-0.0533 -0.192,-0.14933 -0.330667,0.45866 -0.330667,0.88533 0,0.65067 0.181334,1.17333 0.266666,0.69334 0.789333,0.74667 0.064,0.0107 0.224,0.0747 0.16,0.0533 0.234667,0.0533 0.04267,0 0.266667,-0.10667 0.224,-0.11733 0.288,-0.11733 0.16,-0.0213 0.330666,-0.32 0.170667,-0.29867 0.170667,-0.46933 z"
       style="font-size:10.66666698px;fill:url(#linearGradient912);fill-opacity:1;stroke:url(#linearGradient914);stroke-opacity:1"
       id="path2387"
       inkscape:connector-curvature="0" />
  </g>
  <g
     aria-label="Desert"
     style="font-style:normal;font-variant:normal;font-weight:normal;font-stretch:normal;font-size:5.33333349px;line-height:1.25;font-family:Desert;-inkscape-font-specification:Desert;letter-spacing:0px;word-spacing:0px;fill:#000000;fill-opacity:1;stroke:url(#linearGradient2355)"
     id="text2345"
     transform="translate(0,-1.0165217)">
    <path
       d="M 14.464386,361.55978 H 7.4350523 q -0.1173334,0.36267 -0.4373334,0.416 v 0.36267 q 0,0.10667 -0.128,0.10667 -0.085333,0 -0.096,-0.39467 0,-0.24533 0,-0.49067 H 6.4963856 v -0.21333 l 0.2026666,-0.0533 q -0.4053333,-0.23467 -0.4053333,-0.74667 0,-0.096 0.1173333,-0.096 0.074667,0 0.128,0.24533 0.042667,0.288 0.224,0.39467 l -0.010667,-1.00267 q 0,-0.10666 0.128,-0.10666 0.085333,0 0.096,0.55466 0,0.352 0.010667,0.69334 l 0.3093333,-0.0747 q 0,-0.14933 0,-0.288 0.021333,-0.20267 0.1386667,-0.20267 0.1066666,0 0.074667,0.448 1.1946667,-0.27733 1.1946667,-0.27733 0.3733334,0 1.1840001,0.256 0.810666,0.256 1.184,0.256 0.224,0 0.736,-0.18133 0.512,-0.18134 0.736,-0.18134 0.330666,0 0.96,0.13867 0.48,0.10667 0.96,0.224 z m -7.2533337,0 h -0.224 l 0.010667,0.192 q 0.1386667,-0.032 0.213333,-0.192 z m 5.6639997,1.71734 -0.384,0.0853 q -0.117333,0.27733 -0.234666,0.55467 -0.149334,0.32 -0.309334,0.512 l 0.138667,0.27733 -0.202667,-0.18133 q -0.522666,0.512 -1.514666,0.98133 -1.0453337,0.49067 -1.7173337,0.49067 -0.9706667,0 -1.0133334,-1.00267 l -0.1706666,0.14933 -0.010667,-0.11733 q 0.1706667,-0.0747 0.1706667,-0.58667 0,-0.128 -0.032,-0.53333 -0.032,-0.34133 -0.010667,-0.53333 l -0.042667,-0.0427 -0.1493333,0.10667 -0.1386667,-0.032 0.2986667,-0.224 q 0,-0.0107 0,-0.544 -0.010667,-0.352 -0.2986667,-0.33067 0.256,-0.0213 0.256,-0.768 0,-0.68267 -0.128,-1.07733 l -0.042667,-0.0213 -0.32,0.21334 -0.085333,-0.16 q 0.1493334,-0.0533 0.4373334,-0.20267 0.1066666,-1.25867 0.1066666,-1.26933 l -0.224,-0.11734 0.2133334,-0.032 q 0.1066666,-0.21333 0.2026666,-0.71466 0.2453334,-0.14934 0.5546667,-0.224 l -0.042667,-0.14934 q 0.128,0.0853 0.2986666,0.10667 0.1173334,0.0213 0.32,0.0107 0.2560001,-0.0213 0.3200001,-0.0213 0.2346666,0 0.4373333,0.11734 l 0.128,-0.10667 H 9.803051 l -0.074667,0.13867 q 0.1386666,0.10666 0.448,0.18133 0.309333,0.064 0.437333,0.128 l 0.181333,-0.21333 0.08533,0.096 -0.128,0.128 q 0.725333,0.43733 1.418666,1.58933 l 0.117334,-0.10667 0.08533,0.064 -0.149333,0.16 q 0.07467,0.27734 0.16,0.55467 0.096,0.32 0.245333,0.50133 l -0.07467,0.13867 q 0.01067,0.0533 0.07467,0.72533 0.05333,0.52267 0.224,0.59734 l -0.08533,0.064 -0.128,-0.0533 -0.117334,0.59734 0.117334,-0.0107 h 0.234666 z m -1.397333,-0.544 -0.032,-0.064 -0.170667,0.10666 -0.04267,-0.0427 q 0.309333,-0.45867 0.309333,-0.672 0,-0.17067 -0.04267,-0.46934 -0.07467,-0.36266 -0.08533,-0.45866 l -0.16,-0.14934 0.096,-0.0213 q -0.245333,-0.88533 -0.96,-1.29067 l -0.096,0.16 -0.064,-0.096 0.07467,-0.17066 q -0.16,-0.0533 -0.4480003,-0.192 l -0.1066667,0.0427 -0.010667,0.17067 h -0.064 l -0.074667,-0.064 0.074667,-0.16 q -0.3946666,-0.16 -0.832,-0.16 0,0 -0.2133333,0.0213 0,1.728 0.1813333,2.88 l 0.3306667,-0.128 0.096,0.0213 v 0.064 q -0.1386667,0.064 -0.3733334,0.20266 l -0.053333,-0.0213 v 0.13867 q 0.021333,0.55466 0.021333,1.664 0.085333,0 0.1813334,0.0107 0.096,0.0107 0.1173333,0.0747 l -0.1173333,0.0747 -0.16,-0.0533 q -0.053333,0.256 -0.053333,0.36267 0,0.0853 0.053333,0.11733 0.053333,0.0213 0.074667,0.0427 0.7786667,0 1.7600003,-0.74667 l 0.05333,-0.17066 0.07467,0.0533 0.362666,-0.36267 -0.07467,-0.10666 0.170666,-0.0427 q 0.05333,-0.17067 0.202667,-0.56533 z"
       style="font-size:10.66666698px;opacity:0.56000001;fill:#df0000;fill-opacity:1;stroke:url(#linearGradient916)"
       id="path2390"
       inkscape:connector-curvature="0" />
    <path
       d="m 19.871053,361.57045 h -5.237334 q -0.128,0.36267 -0.458666,0.416 v 0.37333 q 0,0.0427 -0.032,0.0747 -0.02133,0.032 -0.07467,0.032 l -0.106667,-0.10667 -0.01067,-0.78933 h -0.288 v -0.224 l 0.202666,-0.0533 q -0.405333,-0.23467 -0.405333,-0.74667 0,-0.096 0.117333,-0.096 l 0.096,0.0853 q 0.032,0.16 0.064,0.30934 0.032,0.14933 0.202667,0.24533 l -0.01067,-1.00267 q 0,-0.0427 0.032,-0.0747 0.032,-0.032 0.07467,-0.032 l 0.106667,0.10666 0.02133,1.13067 0.32,-0.0853 q 0,-0.128 0,-0.26667 0.02133,-0.192 0.117333,-0.192 l 0.106667,0.10667 v 0.29866 l 0.917333,-0.24533 1.472,0.512 1.504,-0.352 q 0,0 1.269334,0.352 z m -5.472,0 h -0.224 v 0.192 q 0.138666,-0.032 0.224,-0.192 z m 4.96,3.56267 q -0.213334,0.10666 -0.384,0.448 -0.04267,0.0107 -0.789334,0.352 -0.48,0.224 -0.821333,0.224 -1.344,0 -1.92,-0.34134 -0.64,-0.384 -1.034667,-1.536 l -0.213333,0.13867 -0.128,-0.064 v -0.10667 q 0.192,-0.0747 0.298667,-0.128 -0.117334,-0.53333 -0.117334,-0.78933 0,-0.736 0.426667,-1.49333 -0.07467,-0.0853 -0.341333,-0.37334 l 0.106666,-0.064 0.309334,0.192 q 0.096,-0.064 0.202666,-0.23466 l -0.128,-0.17067 v -0.128 l 0.106667,-0.032 0.149333,0.17067 q 0.426667,-0.416 1.013334,-0.65067 0.362666,-0.13867 1.162666,-0.32 0.01067,-0.0213 0.064,-0.24533 0.032,-0.13867 0.181334,-0.18134 l 0.106666,0.064 q -0.01067,0.0213 -0.181333,0.34134 0.16,0.128 0.693333,0.37333 0.416,0.192 0.586667,0.448 0.256,0.37333 0.256,1.10933 0,0.16 0.117333,0.21334 0.05333,0.0107 0.266667,0.0213 v 0.16 h -0.04267 q -0.181333,0 -0.394666,-0.10667 -0.181334,0.288 -0.373334,0.576 -0.213333,0.32 -0.458666,0.50134 l 0.08533,0.224 -0.096,0.0427 -0.170667,-0.18133 q -0.192,0.11733 -0.8,0.29867 -0.64,0.18133 -0.949333,0.18133 -0.096,0 -0.138667,-0.0213 l -0.05333,0.128 q 0.149333,0.32 0.256,0.42666 0.106667,0.10667 0.405333,0.192 0.064,-0.13866 0.202667,-0.40533 l 0.149333,0.0427 q -0.01067,0.0107 -0.181333,0.39466 0.277333,0.192 0.405333,0.192 0.106667,0 0.213334,-0.128 0.106666,-0.128 0.224,-0.16 l 0.07467,0.0427 q -0.07467,0.10667 -0.16,0.256 l 0.05333,0.0533 q 0.874666,-0.40533 1.034666,-0.40533 0.181334,0 0.384,0.17067 0.170667,0.14933 0.341334,0.288 z m -1.504,-3.09334 q 0,-0.064 -0.096,-0.0747 -0.064,0 -0.202667,0.0213 -0.128,0.0107 -0.149333,0.0107 -0.04267,0 -0.096,-0.0533 -0.04267,-0.0533 -0.04267,-0.096 0.181333,-0.032 0.522667,-0.10666 -0.106667,-0.13867 -0.352,-0.26667 -0.234667,-0.13867 -0.394667,-0.13867 -0.07467,0 -0.138667,0.064 l 0.01067,0.0427 q 0,0.0747 -0.05333,0.128 -0.032,0 -0.096,-0.032 -0.05333,-0.032 -0.08533,-0.032 -0.213333,0 -0.437333,0.24533 -0.192,0.20267 -0.288,0.43734 0.138667,0.032 0.309333,0.16 -0.05333,0.10666 -0.170666,0.10666 -0.064,0 -0.224,-0.0853 -0.05333,0.24533 -0.16,0.75733 0.032,0.0107 0.07467,0.0107 0.117334,0 0.341334,-0.0427 0.224,-0.0427 0.341333,-0.0427 0.08533,-0.096 0.48,-0.24534 0.437333,-0.16 0.608,-0.27733 0.298667,-0.20267 0.298667,-0.49067 z"
       style="font-size:10.66666698px;opacity:0.56000001;fill:#df0000;fill-opacity:1;stroke:url(#linearGradient918)"
       id="path2392"
       inkscape:connector-curvature="0" />
    <path
       d="m 24.524053,361.51712 q -0.448,0 -0.48,0.0213 v 0.256 q 0,0.0747 -0.05333,0.0747 -0.064,0 -0.064,-0.352 l -4.138666,0.0107 v -0.20266 q 0.309333,-0.096 0.629333,-0.192 0.416,-0.128 0.629333,-0.128 0.04267,0 0.426667,0.17066 0.384,0.16 0.426667,0.16 0.213333,0 0.682666,-0.192 0.469334,-0.20266 0.682667,-0.20266 0,0 0.650667,0.192 v -0.0427 q -0.266667,-0.192 -0.266667,-0.55467 0,-0.064 0.05333,-0.064 0.05333,0 0.08533,0.17067 0.02133,0.20267 0.128,0.27733 l -0.01067,-0.704 q 0,-0.0747 0.064,-0.0747 0.05333,0 0.07467,1.024 l 0.138666,0.0427 q 0,-0.032 0.032,-0.34133 0.02133,-0.24533 0.064,-0.24533 0.08533,0 0.064,0.27733 -0.01067,0.21333 -0.04267,0.34133 l 0.224,0.064 z m -0.277334,3.50933 h -0.256 q 0,0 -0.170666,-0.0853 -0.02133,0.032 -0.181334,0.43733 -0.106666,0.24533 -0.288,0.384 -0.08533,0.064 -0.554666,0.192 -0.469334,0.128 -0.618667,0.128 -0.64,0 -1.152,-0.352 -0.512,-0.36267 -0.714667,-0.96 -0.117333,-0.0213 -0.362666,-0.064 l 0.181333,-0.16 0.16,0.032 q -0.02133,-0.24533 0.07467,-0.448 -0.128,-0.16 -0.224,-0.224 l 0.16,-0.192 q 0.064,0.10667 0.213333,0.30933 0.181333,-0.17066 0.32,-0.17066 0.202667,0 0.405333,0.288 0.341334,0.43733 0.426667,0.52266 0.309333,0.27734 0.736,0.27734 0.32,0 0.32,-0.59734 l -0.05333,-0.0427 -0.256,0.10666 -0.128,-0.0853 v -0.096 q 0.08533,-0.0533 0.298666,-0.13867 -0.170666,-0.39466 -0.981333,-1.14133 -0.693333,-0.65067 -0.736,-1.12 -0.07467,0.032 -0.16,0.032 -0.117333,0 -0.234667,-0.064 0.01067,-0.128 0.181334,-0.13867 0.181333,-0.0213 0.202666,-0.064 0.05333,-0.21333 0.202667,-0.64 l -0.106667,-0.096 v -0.21333 l 0.181334,-0.032 v 0.11733 l 0.07467,0.0533 q 0.07467,-0.14934 0.405334,-0.30934 0.298666,-0.13866 0.48,-0.13866 0.266666,0 0.992,0.30933 l 0.213333,-0.0853 0.064,0.064 q -0.04267,0.096 -0.170667,0.192 0.117334,0.34133 0.117334,0.34133 0,0.45867 -0.714667,0.45867 0,0 -0.416,-0.17067 l -0.117333,0.128 q 0,0.30933 0.757333,0.98133 0.128,-0.0747 0.245333,-0.192 l 0.128,0.032 -0.192,0.33067 q 0.096,0.0747 0.266667,0.24533 0.202667,-0.096 0.341333,-0.13866 v 0.10666 l -0.224,0.192 q 0.298667,0.36267 0.448,1.184 0.106667,0.59734 0.416,0.608 z"
       style="font-size:10.66666698px;opacity:0.56000001;fill:#df0000;fill-opacity:1;stroke:url(#linearGradient920)"
       id="path2394"
       inkscape:connector-curvature="0" />
    <path
       d="m 30.60022,361.57045 h -5.237334 q -0.128,0.36267 -0.458666,0.416 v 0.37333 q 0,0.0427 -0.032,0.0747 -0.02133,0.032 -0.07467,0.032 l -0.106667,-0.10667 -0.01067,-0.78933 h -0.288 v -0.224 l 0.202666,-0.0533 q -0.405333,-0.23467 -0.405333,-0.74667 0,-0.096 0.117333,-0.096 l 0.096,0.0853 q 0.032,0.16 0.064,0.30934 0.032,0.14933 0.202667,0.24533 l -0.01067,-1.00267 q 0,-0.0427 0.032,-0.0747 0.032,-0.032 0.07467,-0.032 l 0.106667,0.10666 0.02133,1.13067 0.32,-0.0853 q 0,-0.128 0,-0.26667 0.02133,-0.192 0.117333,-0.192 l 0.106667,0.10667 v 0.29866 l 0.917333,-0.24533 1.472,0.512 1.504,-0.352 q 0,0 1.269334,0.352 z m -5.472,0 h -0.224 v 0.192 q 0.138666,-0.032 0.224,-0.192 z m 4.96,3.56267 q -0.213334,0.10666 -0.384,0.448 -0.04267,0.0107 -0.789334,0.352 -0.48,0.224 -0.821333,0.224 -1.344,0 -1.92,-0.34134 -0.64,-0.384 -1.034667,-1.536 l -0.213333,0.13867 -0.128,-0.064 v -0.10667 q 0.192,-0.0747 0.298667,-0.128 -0.117334,-0.53333 -0.117334,-0.78933 0,-0.736 0.426667,-1.49333 -0.07467,-0.0853 -0.341333,-0.37334 l 0.106666,-0.064 0.309334,0.192 q 0.096,-0.064 0.202666,-0.23466 l -0.128,-0.17067 v -0.128 l 0.106667,-0.032 0.149333,0.17067 q 0.426667,-0.416 1.013334,-0.65067 0.362666,-0.13867 1.162666,-0.32 0.01067,-0.0213 0.064,-0.24533 0.032,-0.13867 0.181334,-0.18134 l 0.106666,0.064 q -0.01067,0.0213 -0.181333,0.34134 0.16,0.128 0.693333,0.37333 0.416,0.192 0.586667,0.448 0.256,0.37333 0.256,1.10933 0,0.16 0.117333,0.21334 0.05333,0.0107 0.266667,0.0213 v 0.16 h -0.04267 q -0.181333,0 -0.394666,-0.10667 -0.181334,0.288 -0.373334,0.576 -0.213333,0.32 -0.458666,0.50134 l 0.08533,0.224 -0.096,0.0427 -0.170667,-0.18133 q -0.192,0.11733 -0.8,0.29867 -0.64,0.18133 -0.949333,0.18133 -0.096,0 -0.138667,-0.0213 l -0.05333,0.128 q 0.149333,0.32 0.256,0.42666 0.106667,0.10667 0.405333,0.192 0.064,-0.13866 0.202667,-0.40533 l 0.149333,0.0427 q -0.01067,0.0107 -0.181333,0.39466 0.277333,0.192 0.405333,0.192 0.106667,0 0.213334,-0.128 0.106666,-0.128 0.224,-0.16 l 0.07467,0.0427 q -0.07467,0.10667 -0.16,0.256 l 0.05333,0.0533 q 0.874666,-0.40533 1.034666,-0.40533 0.181334,0 0.384,0.17067 0.170667,0.14933 0.341334,0.288 z m -1.504,-3.09334 q 0,-0.064 -0.096,-0.0747 -0.064,0 -0.202667,0.0213 -0.128,0.0107 -0.149333,0.0107 -0.04267,0 -0.096,-0.0533 -0.04267,-0.0533 -0.04267,-0.096 0.181333,-0.032 0.522667,-0.10666 -0.106667,-0.13867 -0.352,-0.26667 -0.234667,-0.13867 -0.394667,-0.13867 -0.07467,0 -0.138667,0.064 l 0.01067,0.0427 q 0,0.0747 -0.05333,0.128 -0.032,0 -0.096,-0.032 -0.05333,-0.032 -0.08533,-0.032 -0.213333,0 -0.437333,0.24533 -0.192,0.20267 -0.288,0.43734 0.138667,0.032 0.309333,0.16 -0.05333,0.10666 -0.170666,0.10666 -0.064,0 -0.224,-0.0853 -0.05333,0.24533 -0.16,0.75733 0.032,0.0107 0.07467,0.0107 0.117334,0 0.341334,-0.0427 0.224,-0.0427 0.341333,-0.0427 0.08533,-0.096 0.48,-0.24534 0.437333,-0.16 0.608,-0.27733 0.298667,-0.20267 0.298667,-0.49067 z"
       style="font-size:10.66666698px;opacity:0.56000001;fill:#df0000;fill-opacity:1;stroke:url(#linearGradient922)"
       id="path2396"
       inkscape:connector-curvature="0" />
    <path
       d="m 35.082553,361.53845 -4.565333,0.0213 v -0.21333 l 0.544,-0.36267 q 0.821333,0.33067 0.821333,0.33067 0.373333,0 1.141333,-0.20267 0.778667,-0.20266 1.152,-0.20266 0,0 0.906667,0.416 z m -1.290667,2.02667 q -0.01067,0.58666 -0.01067,0.928 0,0.096 -0.07467,0.096 -0.07467,0 -0.064,-0.43734 -0.352,-0.0853 -0.352,-1.10933 0,-0.096 0.07467,-0.096 0.064,0 0.064,0.21333 0,0.704 0.213333,0.78934 0.01067,-1.49334 0.01067,-1.536 0,-0.096 0.07467,-0.096 0.07467,0 0.07467,0.096 0,0.34133 -0.01067,0.91733 0.117334,-0.096 0.149334,-0.36267 0.032,-0.224 0.08533,-0.224 0.07467,0 0.07467,0.0853 0,0.48 -0.309334,0.736 z m 1.056,-2.79467 q -0.138666,0.224 -0.448,0.16 -0.05333,0.30933 -0.448,0.512 -0.544,0.27733 -0.629333,0.352 0.08533,0.096 0.234667,0.29867 l -0.096,0.0427 -0.245334,-0.14933 q -0.192,0.13867 -0.405333,0.68267 l 0.416,0.0853 q -0.08533,0.16 -0.202667,0.16 -0.05333,0 -0.224,-0.0533 -0.224,0.832 -0.224,1.216 l 0.07467,0.0747 q 0.128,0 0.309333,0.0427 -0.07467,0.0853 -0.213333,0.16 l -0.128,-0.0213 q -0.032,0.0427 -0.032,0.14933 0,0.096 0.032,0.27733 0.04267,0.18134 0.04267,0.27734 0,0.416 -0.170667,0.736 -0.213333,0.40533 -0.597333,0.40533 -0.544,0 -0.544,-0.87467 0,-0.16 0.02133,-0.30933 l -0.234667,-0.0213 q 0,0 -0.288,0.11733 l -0.138666,-0.096 0.522666,-0.256 0.096,0.032 0.04267,-0.0747 q 0,-0.736 0,-1.48266 -0.02133,-0.928 -0.16,-1.44 -0.01067,-0.0427 -0.138667,-0.064 -0.128,-0.0213 -0.128,-0.10667 l 0.01067,-0.0427 q 0.149333,-0.064 0.234667,-0.11733 v -0.224 q 0,-0.0533 -0.04267,-0.18133 -0.04267,-0.128 -0.04267,-0.192 -0.309333,0 -0.426666,-0.256 l 0.07467,-0.064 q 0.117334,0.0213 0.298667,0.0853 0.469333,-0.352 0.832,-0.352 0.213333,0 0.341333,0.17067 0.128,0.17066 0.138667,0.384 0.512,-0.37334 0.906667,-0.50134 0.05333,-0.30933 0.192,-0.34133 l 0.064,0.032 q -0.08533,0.24533 -0.08533,0.24533 0,0.064 0.202667,0.0853 0.138667,0.0107 0.266667,0.032 0.16,0.0533 0.416,0.20266 0.213333,0.128 0.522666,0.20267 z"
       style="font-size:10.66666698px;opacity:0.56000001;fill:#df0000;fill-opacity:1;stroke:url(#linearGradient924)"
       id="path2398"
       inkscape:connector-curvature="0" />
    <path
       d="m 39.27572,361.53845 -4.362666,0.0213 v -0.21333 l 2.634666,-0.512 1.728,0.49067 z m -0.362666,-1.04533 v 0.032 q 0.01067,0.064 -0.149334,0.10666 -0.149333,0.0427 -0.170666,0.096 -0.05333,0.17067 -0.224,0.50134 l 0.149333,0.13866 -0.096,0.096 -0.245333,-0.0747 q -0.117334,0 -0.309334,0.096 -0.192,0.096 -0.192,0.192 0,1.216 0.106667,1.39733 l 0.05333,0.032 q 0.224,-0.10667 0.373334,-0.13867 -0.02133,0.128 -0.256,0.24534 -0.224,0.11733 -0.224,0.23466 0,0.77867 0.02133,0.88534 0.08533,0.45866 0.490667,0.58666 v 0.096 q -0.213334,0.0213 -0.330667,-0.0213 -0.04267,0.40533 -0.08533,0.8 -0.106667,0.448 -0.565334,0.448 -0.224,0 -0.362666,-0.17067 -0.138667,-0.16 -0.266667,-0.33066 l 0.01067,-0.27734 q 0,-0.24533 -0.032,-0.71466 -0.032,-0.48 -0.032,-0.69334 l -0.05333,-0.0427 q -0.181333,0.16 -0.330666,0.10666 l -0.032,-0.128 0.362666,-0.17066 v -1.824 q -0.032,-0.0107 -0.08533,-0.0107 -0.096,0 -0.245333,0.10667 l -0.096,-0.096 0.394666,-0.23467 v -0.27733 q -0.266666,-0.0747 -0.522666,-0.16 -0.394667,-0.11734 -0.394667,-0.30934 0,-0.0533 0.032,-0.11733 -0.032,-0.0213 -0.416,-0.256 v -0.128 l 0.106667,-0.032 0.298666,0.17067 q 0.234667,-0.448 0.725334,-0.448 0.07467,0 0.138666,0.0213 l 0.02133,-0.18133 q 0,-0.096 -0.04267,-0.43734 l -0.298667,0.10667 -0.128,-0.064 v -0.128 q 0.138667,-0.032 0.416,-0.10667 0.032,-0.256 0.032,-0.39466 0,-0.0853 -0.138666,-0.192 -0.117334,-0.064 -0.224,-0.13867 l 0.117333,-0.128 0.224,0.11733 q 0,-0.128 0,-0.384 v -0.0427 q 0.170667,-0.11734 0.352,-0.224 0.181333,-0.11734 0.384,-0.11734 0.213333,0 0.512,0.672 0.138667,-0.11733 0.245333,-0.0747 l 0.07467,0.064 q -0.277333,0.21333 -0.32,0.37333 -0.02133,0.064 -0.02133,0.52267 0,0.128 0.02133,0.34133 0.02133,0.26667 0.02133,0.34133 0.04267,0.032 0.437334,0.128 0.256,0.0747 0.330666,0.288 l 0.330667,-0.13866 z"
       style="font-size:10.66666698px;opacity:0.56000001;fill:#df0000;fill-opacity:1;stroke:url(#linearGradient926)"
       id="path2400"
       inkscape:connector-curvature="0" />
  </g>
  <g
     aria-label="OUT"
     style="font-style:normal;font-variant:normal;font-weight:normal;font-stretch:normal;font-size:5.33333349px;line-height:1.25;font-family:Copperplate;-inkscape-font-specification:Copperplate;letter-spacing:0px;word-spacing:0px;fill:#000000;fill-opacity:1;stroke:none"
     id="text874"
     transform="translate(0,-4)">
    <path
       d="m 12.980001,197.87015 q -0.506667,0 -1.013333,0.16 -0.506667,0.16 -0.92,0.46667 -0.4,0.29333 -0.653334,0.73333 -0.253333,0.44 -0.253333,1 0,0.56 0.253333,1 0.253334,0.44 0.653334,0.74667 0.413333,0.29333 0.92,0.45333 0.506666,0.16 1.013333,0.16 0.506667,0 1.013333,-0.16 0.506667,-0.16 0.906667,-0.45333 0.413333,-0.30667 0.666667,-0.74667 0.253333,-0.44 0.253333,-1 0,-0.56 -0.253333,-1 -0.253334,-0.44 -0.666667,-0.73333 -0.4,-0.30667 -0.906667,-0.46667 -0.506666,-0.16 -1.013333,-0.16 z m 0,-1.22667 q 0.733333,0 1.493333,0.22667 0.76,0.21333 1.386667,0.65333 0.626667,0.44 1.026667,1.12 0.4,0.66667 0.4,1.58667 0,0.92 -0.4,1.6 -0.4,0.66667 -1.026667,1.10667 -0.626667,0.44 -1.386667,0.64 -0.76,0.2 -1.493333,0.2 -0.733333,0 -1.493333,-0.2 -0.76,-0.2 -1.386667,-0.64 -0.6266666,-0.44 -1.0266665,-1.10667 -0.4,-0.68 -0.4,-1.6 0,-0.92 0.4,-1.58667 0.3999999,-0.68 1.0266665,-1.12 0.626667,-0.44 1.386667,-0.65333 0.76,-0.22667 1.493333,-0.22667 z"
       style="font-size:13.33333302px"
       id="path901"
       inkscape:connector-curvature="0" />
    <path
       d="m 21.224584,196.96348 q -0.293333,0 -0.293333,0.24 v 4 q 0,0.84 0.533333,1.16 0.546667,0.30667 1.586667,0.30667 1.04,0 1.573333,-0.30667 0.546667,-0.32 0.546667,-1.16 v -4 q 0,-0.24 -0.4,-0.24 v -0.24 h 2.133333 v 0.24 q -0.32,0 -0.32,0.24 v 3.93334 q 0,0.78666 -0.226667,1.30666 -0.226666,0.50667 -0.68,0.81334 -0.453333,0.30666 -1.133333,0.41333 -0.666667,0.10667 -1.546667,0.10667 -0.88,0 -1.56,-0.10667 -0.666666,-0.10667 -1.12,-0.41333 -0.453333,-0.30667 -0.68,-0.81334 -0.226666,-0.52 -0.226666,-1.30666 v -3.93334 q 0,-0.24 -0.373334,-0.24 v -0.24 h 2.186667 z"
       style="font-size:13.33333302px"
       id="path903"
       inkscape:connector-curvature="0" />
    <path
       d="m 32.620001,203.25682 q 0,0.24 0.293333,0.24 v 0.24 h -2.053333 v -0.24 q 0.09333,0 0.16,-0.0533 0.08,-0.0667 0.08,-0.18666 v -5.30667 h -2.2 q -0.12,0 -0.24,0.0667 -0.106667,0.0667 -0.106667,0.25333 h -0.24 v -1.86667 h 0.24 q 0,0.18667 0.106667,0.25334 0.12,0.0667 0.24,0.0667 h 5.92 q 0.12,0 0.226667,-0.0667 0.12,-0.0667 0.12,-0.25334 h 0.24 v 1.86667 h -0.24 q 0,-0.18667 -0.12,-0.25333 -0.106667,-0.0667 -0.226667,-0.0667 h -2.2 z"
       style="font-size:13.33333302px"
       id="path905"
       inkscape:connector-curvature="0" />
  </g>
  <path
     d="m 41.004911,306.87682 c -1.492636,-4.60368 -4.104196,-9.04636 -7.187503,-12.89608 -0.426047,-0.52359 -1.969543,-1.90718 -1.969543,-1.90718 1.322365,3.05254 1.238335,6.21831 0.573467,9.07712 -3.605177,-7.34796 -9.922898,-16.54617 -19.424908,-21.40183 0,0 6.324354,14.26789 -2.700753,30.01165 -0.4975447,-2.12185 -1.0039357,-5.17047 -0.7312067,-8.1929 0,0 -1.141037,0.86654 -1.272979,0.9922 -1.017941,0.96276 -1.870771,2.08914 -2.62188,3.25085 -2.73908,4.35957 -4.1830671,9.62691 -3.8255711,14.925 0.133416,2.00471 0.5108131,4.0068 1.0216261,5.97878 1.584775,6.31452 5.226807,12.93469 10.6283087,15.96891 -1.699763,-2.85424 -2.736869,-6.57043 -2.736869,-10.64464 0,-1.68924 0.177642,-3.32938 0.513762,-4.86155 0.03833,0.67806 0.151844,1.37705 0.339805,2.08979 0.725311,2.74689 2.396326,4.93485 4.292896,5.93558 -0.857253,-2.21873 -1.166837,-5.15216 -0.706883,-8.2924 0.333171,-2.31362 1.02826,-4.42436 1.973965,-6.15745 1.048162,-1.96478 2.398537,-3.44327 3.853581,-4.17761 -0.6059,1.02624 -1.059956,2.35289 -1.294355,3.85037 -0.0914,0.5753 -0.14521,1.18005 -0.165111,1.8077 -0.0088,0.14203 -0.0088,0.28667 -0.0088,0.44178 0,0.38681 0.01327,0.77295 0.04939,1.14732 0.130467,1.78087 0.571993,3.37194 1.228016,4.60435 0.03612,0.0674 0.06929,0.12762 0.103931,0.18914 0.324326,0.54323 0.859464,0.91956 1.474209,0.99352 0,0 0,0 0.0066,0 0.06045,0.005 0.129731,0.01 0.197544,0.01 0.01916,0 0.04349,0 0.06045,-0.005 0.928751,-0.0249 1.699763,-0.76248 1.907626,-1.73897 0.03243,-0.15774 0.05455,-0.32857 0.05455,-0.49677 0,-0.013 0,-0.0255 0,-0.036 0.05528,-0.70554 0.0059,-1.46737 -0.144473,-2.25406 -0.08034,-0.41888 -0.18059,-0.81942 -0.314007,-1.2023 -0.163637,-0.49807 -0.363392,-0.94967 -0.592631,-1.37116 0.379608,0.0693 0.762165,0.18064 1.12998,0.34819 1.404184,0.60933 2.66021,1.85352 3.529256,3.48843 0.144472,0.27882 0.279362,0.56745 0.398036,0.86982 0.251353,0.61326 0.445948,1.26447 0.578627,1.95693 0.06266,0.34099 0.109829,0.67085 0.137838,1.00464 0.382557,-0.71929 0.729733,-1.50926 1.028998,-2.34766 0.574942,-1.57405 0.908112,-3.10163 1.009833,-4.44006 1.085755,2.50211 1.714504,5.46696 1.714504,8.64254 0,4.1449 -1.073223,7.9128 -2.826794,10.78863 0.900741,-0.45618 1.771261,-0.98501 2.587235,-1.58845 3.051612,-2.20825 5.20322,-5.62862 6.594135,-9.33369 0.783542,-2.02761 1.553079,-4.29019 1.92458,-6.42317 1.099759,-6.18428 1.425559,-12.74031 -0.388454,-18.60455 z"
     id="path2"
     inkscape:connector-curvature="0"
     style="clip-rule:evenodd;fill:#ff8f00;fill-opacity:1;fill-rule:evenodd;stroke-width:0.69457018" />
  <g
     aria-label="NOT"
     style="font-style:normal;font-variant:normal;font-weight:normal;font-stretch:normal;font-size:10.66666698px;line-height:1.25;font-family:FlameTime;-inkscape-font-specification:FlameTime;letter-spacing:0px;word-spacing:0px;fill:#000000;fill-opacity:1;stroke:none"
     id="text889">
    <path
       d="m 13.272712,14.908927 q 0,-1.106771 0.04557,-1.067709 -0.01953,-0.104166 0.429687,-0.182291 0.436198,-0.08464 1.015625,-0.08464 1.497396,-0.01302 1.72526,0.442709 -0.16927,-0.07813 -0.175781,2.51302 -0.0065,2.532552 0.117188,3.196615 -0.104167,-0.16276 -0.735677,-0.286458 0,-0.201823 -0.03255,-0.579427 -0.02604,-0.377605 -0.02604,-0.572917 -0.0065,-0.08464 -0.01953,-0.123698 0.0065,0.01302 -0.06511,-0.885417 -0.0065,-0.07813 0.0065,-0.351562 0.01302,-0.214844 -0.01953,-0.345052 -0.0065,-0.01302 0,-0.04557 0.01302,-0.09115 0.01953,-0.299479 0.0065,-0.768229 0.01302,-0.638021 -0.01302,-0.136719 -0.03906,-0.14974 -0.01953,-0.01302 -0.05208,0.104167 -0.03906,0.14974 -0.08463,0.742187 -0.02604,0.371094 -0.07813,0.944011 -0.03255,0.345052 -0.110678,0.898437 -0.01302,0.0651 -0.02604,0.279948 -0.01302,0.182292 -0.03255,0.273438 -0.01953,0.07161 -0.02604,0.0651 -0.01302,-0.0065 -0.01302,-0.07161 0,-0.130208 0.01302,-0.247396 0.01302,-0.104166 0.03255,-0.338541 0.01302,-0.221354 0.02604,-0.332031 0.01302,-0.07813 -0.0065,-0.104167 -0.0065,-0.0065 -0.02604,0.05859 -0.01302,0.03906 -0.03255,0.110677 -0.01953,0.07813 -0.02604,0.110677 -0.01953,0.07161 -0.03906,0.05208 -0.01302,-0.02604 -0.01302,-0.104167 0.01302,-0.130208 0.01953,-0.175781 0.02604,-0.123698 0.02604,-0.286458 -0.02604,0.05208 -0.04557,0.188802 -0.0065,0.05208 -0.01953,0.130208 -0.01953,0.09766 -0.02604,0.123698 -0.02604,0.143229 -0.104167,0.332031 -0.07813,0.201823 -0.104167,0.332032 -0.01302,0.07161 -0.03906,0.05208 -0.01953,-0.01953 -0.02604,-0.110677 -0.01953,-0.143229 -0.01302,-0.351563 0.0065,-0.234375 -0.07161,-0.188802 -0.05859,0.03906 -0.09115,-0.117187 -0.01953,-0.110677 -0.05208,0.0065 -0.02604,0.104167 -0.03255,0.104167 -0.02604,-0.01953 -0.01953,-0.15625 0.01953,-0.351562 -0.03255,-0.833333 -0.01953,-0.14974 -0.02604,-0.501302 -0.0065,-0.319011 -0.03255,-0.488282 -0.01953,-0.117187 -0.03255,-0.117187 -0.03255,0.0065 -0.03255,0.117187 0,0.169271 -0.01953,0.201823 -0.01302,0.02604 -0.05859,0.266927 -0.01953,0.123698 -0.01953,0.325521 0.0065,0.273438 0,0.338542 -0.05208,0.957031 -0.14974,1.419271 -0.04557,0.221354 -0.110677,0.04557 -0.07161,-0.195313 -0.05859,-0.488282 0,-0.05859 0,-0.149739 0,-0.07162 -0.01302,-0.08464 -0.01953,-0.01302 -0.02604,0.07161 -0.01302,0.15625 -0.07161,0.332031 v 0 q -0.03906,0.169271 -0.04557,0.14974 0.01953,0.07813 0.02604,0.260416 0,0.02604 -0.03255,0.397136 -0.01302,0.182291 -0.03255,0.201823 0.03255,-0.02604 -0.03255,-0.130209 -0.04557,-0.07161 -0.0651,-0.345052 -0.01302,-0.266927 -0.0651,-0.338541 0,0 0,-0.07813 0.0065,-0.546875 0,-0.592448 -0.0065,-0.09766 -0.03906,-0.117188 -0.01953,-0.01302 -0.02604,0.05859 -0.03255,0.455729 -0.05208,0.742187 -0.01302,0.162761 -0.05208,0.429688 -0.03906,0.30599 -0.05208,0.423177 -0.0065,0.05859 -0.04557,0.208333 v 0.0065 q -0.03906,-0.07813 -0.09766,-0.162761 0,-0.07161 0,-0.201823 -0.0065,-0.136718 -0.01302,-0.195312 0,-0.253906 -0.01953,-0.729167 -0.01953,-0.488281 -0.02604,-0.729166 0,-0.332032 -0.03906,-0.436198 -0.01953,-0.05208 -0.01953,-0.175781 0.0065,-0.651042 0.01302,-0.709636 v 0 q 0.09766,0.05208 0.345052,0.221354 0.221354,0.14974 0.338541,0.201823 -0.3125,-0.410156 -0.384114,-0.638021 -0.117188,-0.351562 -0.0651,-1.041666 z m -2.220052,1.113281 q -0.02604,0.03906 0,0.08464 z m 0.403646,1.601562 q 0,0.04557 -0.04557,0.110677 -0.01953,0.03255 -0.0065,0.08464 -0.130208,-0.09115 -0.286458,-0.195313 -0.0065,-0.0651 -0.0065,-0.182291 0,-0.130209 0,-0.188802 -0.01953,-0.677084 -0.04557,-0.950521 0,-0.0065 -0.01953,-0.143229 -0.03255,0.03906 -0.04557,0.182291 -0.0065,0.110677 -0.03255,0.351563 -0.01953,0.227864 -0.03255,0.345052 -0.01302,0.110677 -0.04557,0.123698 -0.03906,0.01953 -0.09115,-0.09766 -0.05859,-0.110677 -0.05208,-0.227865 0.03906,-0.820312 0.02604,-0.794271 0.01302,-0.03906 -0.01302,-0.117187 -0.01302,-0.03906 -0.02604,-0.01953 -0.01953,0.01953 -0.01302,0.09766 0,0.110677 -0.01953,0.299479 -0.02604,0.201823 -0.02604,0.299479 0,0.123698 -0.03255,0.338542 -0.02604,0.227864 -0.03255,0.345052 v 0 q -0.08464,-0.05859 -0.16927,-0.117188 -0.01302,-0.104166 -0.0065,-0.182291 0.0065,-0.05208 -0.01953,-0.05859 -0.02604,0 -0.01953,-0.130208 0.01302,-0.833334 0.01953,-0.859375 0.0065,-0.136719 0.01953,-0.397136 0.01302,-0.273437 0.01953,-0.397135 0.03255,-0.533854 0.03255,-0.546875 0.273438,0.175781 0.540365,0.358073 0,-0.01953 0.0065,0.859375 0,0.0065 0.01302,0.09115 0.01953,-0.0651 0.01953,-0.0651 0.09115,0.01953 0.0651,0.273438 -0.01302,0.104166 -0.0065,0.214844 0.03255,0.507812 0.03255,0.442708 -0.0065,0.104167 0.03906,0.130208 0.03255,0.01302 0.04557,-0.07813 0.0065,-0.02604 0.05859,-0.234375 0.02604,-0.09115 0.05859,-0.0651 0.05208,0.03255 0.05208,0.130208 0,0.09115 0.03255,0.14974 -0.07161,0.136719 -0.01302,0.31901 0.02604,0.08464 0.01953,0.247396 0,0.201823 0.0065,0.253906 z m 3.190104,0.917969 q -0.0065,0.03255 -0.01302,0.585938 0,0.104166 0.05208,0.182291 0.0065,0 0.0065,0.0065 -0.429688,-0.01953 -0.755209,0.01953 0.104167,-0.273438 0.117188,-0.533854 0.01953,-0.371094 0.117187,-0.423177 0.110677,-0.05859 0.0651,-0.358073 -0.01953,-0.09766 -0.01953,-0.136719 0.0065,-0.0651 0.01302,-0.286458 0.0065,-0.175781 0.01302,-0.286459 0.0065,-0.143229 0.03255,-0.136718 0.04557,0.01302 0.03255,0.169271 -0.01302,0.136718 0.01953,0.214843 0.03255,0.104167 0.05208,0.423177 0.01953,0.390625 0.03906,0.46224 0.03255,0.123698 0.03255,0.240885 0.0065,0.05208 0.01953,0.14974 0.01953,0.09115 0.01953,0.149739 0,0.05208 0.01953,0.03906 0.0065,-0.01302 0.0065,-0.03906 -0.0065,-0.130208 0.03255,-0.292968 0.05208,-0.182292 0.05208,-0.266927 0.0065,-0.110677 0.03906,-0.08464 0.01302,0.01302 0.01302,0.117188 -0.0065,0.04557 -0.0065,0.08463 z M 7.9862535,18.164135 q -0.013021,0.397135 -0.032552,0.592448 0,0.02604 0,0.0651 0.00651,0.09766 0.013021,0.104167 -1.1783854,-0.01302 -2.1614583,-0.195313 0.097656,-0.04557 0.1302083,-1.197916 0.032552,-0.0651 0.065104,-0.07813 0.071615,-0.03906 0.091146,-0.247396 0.00651,-0.01953 0.078125,-0.61849 0.013021,-0.05859 0.026042,-0.08463 0,-0.08464 0,-0.09766 -0.019531,-0.05859 -0.013021,-0.351563 0,-0.03906 0.052083,-0.07162 0.013021,-0.0065 0.039063,-0.0065 0.019531,-0.0065 0.032552,-0.01302 0.039062,-0.03255 0.045573,-0.15625 0.00651,-0.05859 0.032552,-0.0651 0.071615,-0.02604 0.078125,-0.195312 0,-0.07813 0.039063,-0.07813 0.013021,0 0.032552,0.08463 0.026042,0.15625 0.032552,0.299479 0.039063,1.106771 0.032552,1.217448 -0.019531,0.429688 0.065104,0.553385 -0.00651,-0.01302 0.2734375,0.683594 0.026042,0.07813 0.058594,0.05859 0.026042,-0.02604 0.039063,-0.136719 0.00651,-0.07161 0.039063,-0.273437 0.026042,-0.169271 0.032552,-0.279948 0.00651,-0.117188 0.058594,-0.14974 0.071615,-0.03255 0.097656,0.08464 -0.00651,-0.02604 0.039063,0.273437 0.045573,-0.442708 0.045573,-0.481771 0.013021,-0.182291 0.013021,-0.253906 -0.013021,-0.08464 0.013021,-0.130208 0.026042,-0.03906 0.052083,-0.208334 0.019531,-0.123698 0.052083,-0.149739 0.084635,-0.07162 0.091146,-0.3125 0,-0.162761 0.065104,-0.162761 0.091146,-0.0065 0.097656,0.110677 0.039063,0.416667 -0.019531,0.787761 -0.00651,0.07161 -0.00651,0.104167 0.00651,0.01953 0.013021,0.08463 0.013021,0.05859 0.019531,0.07813 0.019531,0.09115 0.065104,0.05208 0.013021,-0.0065 0.019531,0.09115 0.013021,0.14974 0.045573,0.16276 0.013021,0.0065 0.039063,-0.117187 0.013021,-0.03906 0.019531,-0.09766 0.013021,-0.07162 0.019531,-0.09766 0.019531,-0.09115 0.032552,-0.08464 0.026042,0.0065 0.039063,0.09766 0.013021,0.07813 0,0.214844 -0.019531,0.188802 -0.032552,0.592448 z m 5.0651045,0.201823 q 0.0065,0.253906 -0.01953,0.403646 -0.01302,0.110677 0.01302,0.15625 0.0651,0.117187 0.0651,0.364583 -0.31901,-0.449219 -1.197916,-1.10026 0.04557,-1.009115 0.01953,-1.360677 -0.02604,-0.30599 0.09766,-0.390625 0.04557,-0.03255 0.04557,-0.117188 0,0.05859 0.01302,-0.423177 0.16276,0.221354 0.136719,0.364583 -0.0065,0.0065 0.01302,-0.01953 0.02604,0.377604 0.01302,0.507813 -0.01953,0.240885 0.0065,0.31901 0.02604,0.0651 0.117187,0.04557 0.03906,-0.01302 0.0651,-0.130208 0.01953,-0.104167 0.03906,-0.07813 0.01953,0.01302 0.0065,0.130208 -0.01953,0.345052 0.05859,0.403646 0.01302,0.01302 0.01302,0.04557 0.0065,0.104166 0.03906,0.09766 0.03906,-0.0065 0.04557,-0.110677 0.01302,-0.123698 0.05208,-0.117188 0.07813,0 0.07813,0.227865 -0.0065,0.208333 0.0065,0.260417 0.02604,0.09115 0.03255,0.384114 0.0065,0.07162 0.01302,0.182292 0.01302,0.169271 0.05859,0.169271 0.05859,-0.0065 0.0651,-0.182292 0,-0.05859 0.02604,-0.208333 0.01953,-0.130209 0.01302,-0.221355 0,-0.104166 0.03906,-0.09115 0.02604,0.0065 0.01953,0.08464 0,0.08463 0.0065,0.403646 z m -6.2434899,-1.41276 q -0.00651,-0.14323 -0.084635,-0.722657 -0.058594,-0.455729 -0.071615,-1.40625 -0.00651,-0.690104 -0.026042,-0.94401 1.1979166,-0.214844 2.0703124,-0.136719 0.065104,0.592448 0.078125,0.833333 0.019531,0.332032 -0.039063,0.46224 -0.00651,0.02604 -0.019531,0.117188 -0.032552,0.286458 -0.052083,0.47526 -0.091146,-0.07161 -0.1822916,-0.123698 0.097656,0.110677 0.1692708,0.227865 -0.039063,0.286458 -0.078125,0.507812 -0.019531,0.123698 -0.052083,0.579427 -0.013021,0.208334 -0.058594,0.716146 -0.00651,0.123698 -0.039063,0.03906 -0.032552,-0.104167 -0.058594,0.03906 0,-0.01953 -0.045573,0.195312 -0.019531,0.07162 -0.039063,0.03255 -0.058594,-0.14974 -0.1041667,0.09766 -0.026042,0.123698 -0.065104,0.09115 -0.026042,-0.01953 -0.032552,-0.162761 -0.00651,-0.143229 0.00651,-0.338541 0.026042,-0.540365 0.019531,-0.605469 -0.00651,-0.123698 0.013021,-0.14974 0.026042,-0.03906 -0.00651,-0.104166 -0.084635,-0.169271 -0.058594,-0.416667 0,-0.03255 -0.00651,-0.09766 -0.019531,-0.110677 -0.013021,-0.292969 0.00651,-0.31901 -0.013021,-0.410156 -0.052083,0.221354 -0.078125,0.507812 -0.00651,0.123698 -0.045573,0.143229 -0.019531,0.0065 -0.032552,-0.09766 0,-0.05208 -0.013021,-0.04557 -0.026042,0.0065 -0.058594,-0.16276 -0.032552,-0.188802 -0.032552,-0.371094 0,-0.09115 -0.019531,-0.110677 -0.019531,-0.01302 -0.039063,0.0651 -0.00651,0.01953 -0.013021,0.05859 -0.00651,0.04557 -0.00651,0.05859 -0.091146,0.332031 -0.1497395,0.338541 -0.1497396,0.0065 -0.1692709,0.247396 -0.00651,0.0065 -0.019531,0.03906 -0.026042,0.03906 -0.1757813,0.143229 -0.039063,0.02604 -0.052083,0.117187 -0.052083,0.364584 -0.1171875,0.735677 -0.013021,0.09115 -0.065104,0.14974 -0.058594,0.05859 -0.065104,-0.0065 -0.00651,-0.03906 -0.039063,-0.15625 -0.019531,-0.09115 -0.019531,-0.15625 z M 5.7792223,14.134187 q -0.032552,0.02604 -0.045573,0.04557 0.026042,-0.05859 0.045573,-0.04557 z m 0.3385417,1.367188 q -0.026042,0.63151 -0.026042,0.670573 0.019531,0.47526 -0.1367187,0.664062 0,0.0065 -0.00651,0.01302 Q 5.961514,14.244864 5.7792223,14.134187 5.9484931,14.017 6.5214098,13.899812 6.4888577,14.02351 6.4953681,14.140698 6.508389,14.394604 6.430264,14.642 q -0.039063,0.143229 -0.065104,-0.01953 -0.019531,-0.136718 -0.071615,-0.16927 -0.052083,-0.03255 -0.071615,0.07813 0,0.03906 -0.091146,0.351562 -0.019531,0.0651 -0.026042,0.208333 0,0.05859 0.013021,0.201823 0.00651,0.130209 0,0.208334 z m 2.6497395,0.664062 q 0.026042,-0.01953 0.032552,-0.07813 0.091146,0.319011 0.1041666,0.944011 0.1302084,-0.162761 0.1106771,0.865885 -0.013021,0.397135 -0.045573,0.638021 -0.039063,0.266927 -0.084635,0.15625 0.052083,0.240885 -0.9049479,0.234375 0.00651,-0.0065 0.013021,-0.08464 0.032552,-0.3125 0.1236979,-0.332031 0.084636,-0.02604 0.084636,0.234375 0,0.15625 0.026042,0.169271 0.019531,0.01302 0.052083,-0.110677 0.078125,-0.3125 0.1562499,-0.592448 0.065104,-0.266927 0.084636,-0.514323 -0.00651,0.15625 0.1302083,-1.315104 0.019531,-0.234375 0.039063,-0.384115 0.013021,-0.104166 0.032552,-0.104166 0,-0.0065 0.00651,0 -0.00651,-0.01302 0.00651,0.01953 0.00651,0.01302 0.00651,0.03906 0.00651,0.03255 0.00651,0.03906 0.019531,0.09115 0.019531,0.175781 v 0 0 q -0.00651,0.0065 -0.00651,0.01302 v 0.01302 q 0,-0.0065 0.00651,-0.02604 z m 0.084635,-0.410156 v 0.0065 0 z m 6.6406251,3.242187 q 0.0065,0.07161 0.01953,0.08464 0.07161,0.09766 0.02604,0.31901 0,-0.0065 0,0.0065 -0.104167,-0.01953 -0.214844,-0.03255 0.01953,-0.136718 0.03255,-0.527343 0.02604,-0.61849 0.01953,-0.820313 -0.0065,-0.110677 0.02604,-0.104166 0.03906,0.0065 0.04557,0.136718 0.0065,0.182292 0.02604,0.46875 0.01953,0.384115 0.01953,0.46875 z M 9.1451076,16.05476 q 0.019531,-0.110677 0.026042,-0.104167 0.019531,0.01302 0.013021,0.130209 0,0.01302 0,0.03255 -0.019531,-0.01953 -0.039063,-0.03906 0,-0.01302 0,-0.01953 z m 2.5065104,-0.0651 q -0.0065,-0.247396 0,-0.364583 0,-0.06511 -0.01953,-0.188803 v -0.0065 q 0.182291,0.15625 0.305989,0.292969 -0.04557,0.540364 -0.03906,0.481771 -0.01302,0.123698 -0.03906,0.03906 -0.03906,-0.136719 -0.05208,0.07161 -0.0065,0.09766 -0.0065,0.247396 -0.0065,0.201822 -0.0065,0.253906 -0.0065,0.143229 -0.01953,0.169271 -0.05859,-0.3125 -0.07813,-0.364584 -0.05208,-0.149739 -0.04557,-0.260416 0.0065,-0.130209 0,-0.371094 z m -0.01302,1.145833 q 0.0065,0.162761 -0.02604,0.175781 -0.01302,0.0065 -0.03906,-0.149739 -0.02604,-0.14974 -0.0065,-0.703125 0,-0.14974 0.05859,-0.188802 0.01302,0.722656 0.01302,0.865885 z m -1.380208,-1.621094 q 0.05208,0.09766 0.07161,0.501303 0.0065,0.195312 -0.01953,0.527343 -0.01953,0.377604 -0.02604,0.520834 -0.182292,-0.136719 -0.273438,-0.208334 0.02604,-0.390625 0.05208,-0.572916 0.01302,-0.104167 0.01953,-0.3125 0.0065,-0.214844 0.01953,-0.3125 0.03906,-0.345052 0.15625,-0.14323 z m 4.798177,3.261719 q -0.0065,0.04557 -0.0065,0.130208 -0.01302,0.123698 0.01302,0.436198 -0.182291,-0.01953 -0.351562,-0.02604 0.01302,-0.01302 0.02604,-0.05859 0.02604,-0.130208 0.136719,-0.410156 0.09115,-0.240886 0.123698,-0.442709 0.01302,-0.09766 0.05859,-0.05859 0.03906,0.02604 0.03255,0.104166 -0.0065,0.266927 -0.03255,0.325521 z m -3.632813,-3.105469 q 0,-0.0651 -0.01302,-0.05208 -0.02604,0.01302 -0.04557,-0.123698 -0.01302,-0.09115 -0.01953,-0.299479 0.123698,0.09115 0.227865,0.182292 l -0.01302,0.05208 q -0.01302,0.0651 -0.01302,0.214844 -0.0065,0.149739 -0.07161,0.182291 -0.05208,0.02604 -0.05208,-0.15625 z m 0.983073,0.429688 q -0.0065,0.14974 -0.03906,0.332031 -0.05859,0.0065 -0.04557,-0.16276 0,-0.04557 0.0065,-0.110677 0.03906,-0.03906 0.07813,-0.05859 z m 0.188802,-0.05859 q -0.02604,0.03906 -0.05859,0.07813 -0.04557,0.04557 -0.03255,-0.04557 0,0.01953 0.0065,-0.01953 0.03906,-0.01302 0.08464,-0.01302 z m 0.214844,0.9375 q -0.05208,0.05859 -0.05208,-0.09115 -0.0065,-0.117187 -0.03255,-0.358073 -0.03255,-0.221354 -0.03255,-0.358072 0,-0.08464 -0.01302,-0.130209 0.110677,0.0065 0.240885,0.0651 0.0065,0.175782 -0.01302,0.677084 -0.01302,0.208333 -0.0065,0.188802 -0.01302,0.07813 -0.0651,-0.0065 -0.0065,-0.0065 -0.02604,0.01302 z M 9.2622951,14.987052 q 0.019531,-0.266927 0,-0.345052 -0.032552,-0.130209 -0.013021,-0.436198 0,-0.05859 0.013021,-0.286459 0.058594,0.06511 0.026042,0.14974 0.078125,-0.123698 0.9440102,0.377604 -0.01953,0.117188 -0.110677,0.488281 0.01953,-0.08464 -0.04557,0.501302 -0.02604,0.234375 -0.01953,0.292969 l 0.0065,-0.0065 q -0.0065,0.104166 -0.02604,0.266927 -0.02604,0.182292 -0.02604,0.260417 -0.013021,0.201822 -0.065104,0.540364 -0.032552,-0.04557 -0.032552,-0.0651 -0.1822917,-0.05859 -0.6640625,-0.546875 -0.00651,-0.325521 -0.019531,-0.566406 -0.00651,-0.05208 0.032552,-0.625 z m -3.4830728,3.736979 q 0.00651,0.0065 0.026042,0.0065 -0.013021,0.0065 -0.026042,-0.0065 z m 3.2486979,-4.023438 q -0.013021,0.07161 -0.039063,0.06511 -0.123698,-0.01953 -0.15625,-0.351563 -0.013021,-0.130208 -0.045573,-0.338542 -0.039063,-0.253906 -0.052083,-0.332031 0.3255208,0.03906 0.4622396,0.123698 -0.058594,0.266927 -0.091146,0.46875 -0.00651,0.04557 -0.078125,0.364583 z m 0.091146,0.859375 q 0,0.03906 0,0.05859 0.019531,0.117188 0.00651,0.436198 -0.1171875,-0.117187 -0.2148437,-0.201823 0.00651,-0.01953 0.00651,-0.04557 0.013021,-0.16276 0.091146,-0.429687 0.071615,-0.253907 0.084635,-0.436198 0.00651,-0.05859 0.019531,-0.07813 0.019531,-0.01302 0.032552,0.04557 0.084636,0.31901 -0.026042,0.651041 z"
       style="font-size:13.33333302px;fill:#f30000;fill-opacity:1"
       id="path904" />
    <path
       d="m 27.426357,17.552156 q 0.04557,0.0065 0.03255,0.169271 -0.0065,0.136718 0.01953,0.214843 0.03906,0.104167 0.05208,0.345052 -0.08464,0.07162 -0.14323,0.117188 v 0 0 q -0.01302,-0.09766 -0.01302,-0.143229 0,-0.05208 0.0065,-0.279948 0.0065,-0.175781 0.01302,-0.286458 0.0065,-0.14974 0.03255,-0.136719 z m -2.721354,-1.640625 q -0.08464,-0.15625 -0.201823,-0.286458 -0.0065,-0.201823 -0.01302,-0.266928 -0.01953,-0.16276 -0.09766,-1.067708 1.41276,0.104167 1.809896,0.234375 0,0.09115 -0.0065,0.266927 0,0.07161 0.01953,0.07161 0.01953,0 0.01953,-0.07161 0.0065,-0.188802 0.0065,-0.253906 0.514323,0.182292 0.885417,0.559896 1.484375,1.25651 1.445312,1.191406 0.01302,-0.09115 -0.01953,0.384115 -0.0065,0.04557 -0.02604,0.279948 -0.227864,0.644531 -0.846354,1.191406 -0.01302,-0.02604 -0.02604,0.02604 -0.0065,0.0065 -0.0651,0.05208 0,-0.02604 0.0065,-0.07813 0.01302,-0.351563 -0.03906,-0.826823 -0.01953,-0.14974 -0.02604,-0.501302 -0.0065,-0.319011 -0.03255,-0.488281 -0.01302,-0.123698 -0.02604,-0.117188 -0.03906,0 -0.03906,0.117188 0.0065,0.16276 -0.01953,0.201822 -0.01302,0.02604 -0.05208,0.266928 -0.02604,0.123697 -0.01953,0.32552 0,0.273438 0,0.332032 -0.03906,0.703125 -0.09115,1.074218 -0.08464,0.07161 -0.14974,0.136719 0.02604,0 -0.07813,0.01302 -0.0065,-0.110677 -0.0065,-0.240886 0.0065,-0.0651 0.0065,-0.15625 0,-0.0651 -0.01953,-0.07813 -0.01953,-0.01302 -0.02604,0.07162 -0.01302,0.15625 -0.0651,0.332031 v 0 q -0.0065,0.01953 -0.03255,0.04557 -0.01953,0.02604 -0.01953,0.05859 -0.104167,0.01302 -0.201823,0.03255 l 0.0065,-0.02604 q 0,-0.546875 -0.0065,-0.585937 -0.0065,-0.09766 -0.03255,-0.117188 -0.02604,-0.01953 -0.03255,0.05859 -0.02604,0.429688 -0.05208,0.696615 -0.143229,0.03255 -0.266927,0.05859 -0.03255,-0.813802 -0.03255,-0.963541 -0.0065,-0.332031 -0.04557,-0.442708 -0.01953,-0.05208 -0.01953,-0.175782 0.0065,-0.644531 0.01302,-0.703125 0.01302,-0.253906 -0.04557,-0.455729 -0.02604,-0.09115 -0.02604,-0.0065 -0.0065,0.0651 -0.02604,0.201823 -0.01302,0.123698 -0.01302,0.195312 0,0.175781 -0.01953,0.683594 -0.0065,0.208333 -0.0065,0.182292 -0.0065,0.08463 -0.0651,0 -0.0065,-0.01302 -0.01953,0.0065 -0.05208,0.05859 -0.05859,-0.09115 0,-0.110677 -0.03255,-0.351562 -0.02604,-0.221355 -0.02604,-0.358073 0,-0.266927 -0.09115,-0.143229 -0.03255,0.03906 -0.07161,0.08463 -0.04557,0.05208 -0.02604,-0.03906 0.0065,-0.0651 0,-0.16927 -0.0065,-0.117188 -0.0065,-0.162761 0.01953,-0.292969 0.01953,-1.009114 0,-0.15625 -0.01953,-0.403646 -0.04557,0.273437 -0.04557,0.292969 0,0.110677 -0.0065,0.345052 -0.0065,0.221354 -0.0065,0.338541 0,0.104167 -0.01953,0.30599 -0.02604,0.195312 -0.01953,0.305989 0.01302,0.227865 -0.03255,0.514323 -0.0651,0.0065 -0.05208,-0.16927 0.0065,-0.08464 0.0065,-0.234375 0,-0.169271 0.0065,-0.234375 0.0065,-0.09766 0,-0.3125 0,-0.208334 0.0065,-0.319011 0.0065,-0.104167 0.0065,-0.234375 -0.0065,-0.208333 -0.05208,-0.227864 -0.05859,-0.01953 -0.03255,-0.15625 0.0065,-0.06511 0.0065,-0.136719 -0.0065,-0.143229 -0.01953,-0.162761 -0.02604,-0.03255 -0.05859,0.07813 -0.05208,0.195313 -0.136719,0.175782 -0.03906,-0.01302 -0.03906,0.01953 -0.0065,0.04557 0.02604,0.104167 0.03906,0.07161 0.0065,0.130208 -0.04557,0.07161 -0.05859,0.227864 -0.0065,0.09115 -0.01302,0.260417 -0.01302,0.182292 -0.01953,0.260417 -0.0065,0.136719 -0.02604,0.351562 -0.02604,0.266927 -0.03255,0.345052 -0.01302,0.123698 -0.03255,0.04557 -0.04557,-0.136718 -0.05208,0.07162 -0.0065,0.09115 -0.01302,0.247396 -0.0065,0.201823 -0.0065,0.253906 -0.0065,0.143229 -0.01953,0.16276 -0.04557,-0.266927 -0.05859,-0.305989 0.02604,-0.136719 0.04557,-0.325521 -0.01953,-0.325521 -0.110677,-0.585938 0,-0.07813 0,-0.136718 0.0065,-0.0651 -0.01302,-0.195313 -0.01953,-0.09766 -0.03906,-0.104166 -0.0065,0 -0.03255,0.104166 -0.01302,0.03906 -0.01302,0.104167 z m -6.295573,1.647135 q 0.02604,0.07813 0.01953,0.169271 -0.0065,0.0651 0,0.130208 -0.47526,-0.397135 -0.63151,-0.703125 -0.0065,-0.07813 -0.0065,-0.221354 0.09766,-0.227864 0.188803,-0.429687 0.03906,0.0651 0.05859,-0.104167 -0.0065,0.03906 0,-0.01302 0.07813,-0.15625 0.162761,-0.305989 0.01302,0.04557 0.01953,0.09115 0.0065,0.07161 0.05859,0.397135 0.03906,0.247396 0.04557,0.423177 0.02604,0.390625 0.08463,0.566406 z m 7.766927,0.690104 q 0.02604,0.01302 0.02604,0.08464 0,-0.0651 0,0.514323 -0.05859,0.01302 -0.117188,0.02604 0.01302,-0.03906 0.01302,-0.09766 0.0065,-0.05859 0.02604,-0.214844 0.01953,-0.130208 0.01953,-0.214843 -0.0065,-0.104167 0.03255,-0.09766 z m -1.621094,-0.04557 q 0.01953,0.104167 0.03255,0.794271 0.0065,0.14974 0,0.162761 -0.01302,0.0651 -0.01302,0.149739 -0.09115,0.02604 -0.195312,0.05859 0.0065,-0.15625 0,-0.364583 -0.0065,-0.240886 -0.09766,-0.859375 -0.0065,-0.03906 -0.0065,-0.09115 0.143229,-0.03255 0.260417,0.02604 0.03255,-0.14974 0.07162,-0.273438 -0.0065,0.123698 0,0.188802 0.0065,0.05208 -0.03906,0.117188 -0.01953,0.03255 -0.01302,0.09115 z m -0.507812,0.358073 q -0.03906,0.195313 0.03906,0.188802 0.03906,0 0.05208,0.15625 0.03906,0.364584 0.08463,0.514323 -0.286458,0.09115 -0.9375,0.30599 -0.240885,-0.0065 -0.507813,-0.03906 0.01302,-0.04557 0.0651,-0.253906 0.05208,-0.182291 0.05859,-0.696614 0.0065,-0.397136 0.0065,-0.442709 0.136719,0.03906 0.345052,0.08464 0.123698,0 0.260417,-0.03255 0.01953,0.03906 0.02604,0.130208 0.0065,0.07161 0.01953,0.182292 0.01953,0.130208 0.02604,0.175781 0.02604,0.221354 0.01302,0.332031 -0.0065,0.08464 0.01302,0.136719 0.02604,0.05859 0.01953,0.07813 -0.03906,0.123698 0.01953,0.143229 0.09115,0.03255 0.104167,-0.117187 0.02604,-0.279948 0.07162,-0.319011 0.01953,-0.01302 0.01953,-0.136719 -0.0065,-0.266927 0.03906,-0.488281 0.0065,-0.04557 0.0065,-0.09766 0,-0.136719 0.0065,-0.169271 0.0065,0 0.01953,-0.0065 0.0065,0 0.01302,-0.0065 0.01302,0.0065 0.03255,0.03906 0.0065,0.0065 0.01953,0.01953 0.01302,0.01302 0.01953,0.01953 0.07813,0.09766 0.04557,0.299479 z m 0.716146,-0.872395 q -0.01302,0.0065 -0.03906,-0.15625 0,-0.0065 -0.0065,-0.05208 0.08463,-0.208333 0.07161,-0.175781 0,0.09766 0.0065,0.201823 0,0.169271 -0.03255,0.182292 z m 1.165364,0.533854 q 0.03255,0.09115 0.03906,0.377604 0,0.07813 0.0065,0.182292 0.0065,0.07813 0.01953,0.117187 -0.423177,0.110677 -0.9375,0.260417 v 0 q 0,-0.0651 0,-0.221354 0,-0.14974 0.0065,-0.227865 0.03906,-1.236979 0.01953,-1.510417 -0.01953,-0.299479 0.09766,-0.390625 0.04557,-0.03255 0.04557,-0.110677 0.01953,-0.833333 0.01302,-0.950521 -0.0065,-0.143229 0.01953,-0.175781 0.05208,-0.04557 0.07162,-0.0065 0.01302,0.01953 0.0065,0.182291 -0.0065,0.494792 0.03906,0.572917 0.01302,0.01302 0.01302,0.04557 -0.0065,0.110677 0.01302,0.377604 0.01953,0.240886 0.0065,0.384115 -0.01953,0.240885 0.0065,0.3125 0.01953,0.07161 0.110677,0.04557 0.04557,-0.0065 0.0651,-0.130209 0.01953,-0.09766 0.03906,-0.07813 0.01953,0.01953 0.01302,0.130209 -0.01953,0.351562 0.05208,0.410156 0.01302,0.01302 0.01302,0.04557 0.0065,0.104166 0.03906,0.09766 0.03906,-0.01302 0.05208,-0.110677 0.0065,-0.123698 0.04557,-0.123698 0.08464,0.0065 0.07813,0.227865 -0.0065,0.214843 0.0065,0.266927 z m -3.463542,1.041666 q 0.04557,0.01302 0.07813,-0.07161 0.02604,-0.04557 0.0651,0.0065 0.03906,0.05208 0.03906,0.136719 0,-0.01953 0.05859,0.345052 -0.494792,-0.0651 -1.575521,-0.377604 0.0065,0 0.01302,-0.09115 0.03255,-0.30599 0.123698,-0.332031 0.09115,-0.01953 0.09115,0.240885 0,0.15625 0.01953,0.169271 0.01953,0.01302 0.05208,-0.110677 0.07813,-0.3125 0.15625,-0.592448 0.07162,-0.266927 0.09115,-0.514323 0.01302,-0.214844 0.04557,-0.540364 0.175781,0.371093 0.625,0.572916 0.0065,0.253906 -0.01302,0.46875 -0.02604,0.221354 0.0065,0.345052 0.01302,0.05208 0.0065,0.110677 -0.03906,0.162761 0.03906,0.195313 0.09115,0.04557 0.07813,0.03906 z m -4.010416,-2.174479 q -0.05859,-0.130208 -0.05859,-0.234375 0.0065,-0.117187 -0.01302,-0.286458 -0.02604,-0.201823 -0.03255,-0.279948 -0.0065,-0.260417 -0.01953,-0.442708 0.371094,-0.625 0.898437,-1.204427 0.195313,0.0065 0.416667,-0.02604 0,0.201823 -0.05859,0.403646 -0.03906,0.136719 -0.0651,-0.01953 -0.02604,-0.136719 -0.07813,-0.175782 -0.05208,-0.03255 -0.0651,0.08464 -0.0065,0.03255 -0.09766,0.351562 -0.01953,0.0651 -0.01953,0.201823 0,0.05859 0.0065,0.208333 0.0065,0.123698 0.0065,0.208334 -0.03255,0.625 -0.03255,0.670573 0.01953,0.47526 -0.130208,0.664062 -0.04557,0.05208 -0.07162,0.02604 -0.123698,-0.104167 -0.15625,0.240885 -0.03906,0.325521 -0.08463,0.514323 -0.04557,0.0065 -0.07162,-0.136719 -0.05859,-0.338541 -0.130208,-0.358072 -0.01953,-0.0065 -0.02604,-0.104167 -0.02604,-0.234375 -0.09114,-0.266927 -0.01302,-0.0065 -0.02604,-0.03906 z m 0.345052,0.904948 q 0,0 0,0 z m 2.311198,1.139323 q -0.0065,0.02604 0,0.0651 0,0.09766 0.0065,0.104167 -1.223958,-0.351563 -1.809896,-0.227865 -0.195312,-0.410156 -0.397135,-0.696614 0.07813,-0.07162 0.143229,-0.345052 0.03906,-0.175782 0.09766,-0.208334 0.07813,-0.03255 0.09766,-0.240885 0,-0.02604 0.07813,-0.61849 0.0065,-0.0651 0.02604,-0.08464 l -0.0065,-0.104167 q -0.01953,-0.05208 -0.01302,-0.351562 0,-0.03255 0.05859,-0.0651 0.0065,-0.0065 0.03255,-0.01302 0.02604,0 0.03906,-0.01302 0.03255,-0.02604 0.04557,-0.14974 0,-0.05859 0.03255,-0.07161 0.0651,-0.01953 0.07161,-0.188802 0,-0.07813 0.03906,-0.07813 0.01953,0 0.03255,0.08464 0.03255,0.15625 0.03255,0.299479 0.03906,1.106771 0.03906,1.210938 -0.01953,0.429687 0.05859,0.559896 0,-0.01302 0.273437,0.683593 0.03255,0.07813 0.05859,0.05208 0.03255,-0.01953 0.04557,-0.130209 0.0065,-0.07161 0.03255,-0.279948 0.02604,-0.16927 0.03255,-0.279948 0.0065,-0.117187 0.05859,-0.143229 0.07162,-0.03906 0.104167,0.08464 -0.0065,-0.02604 0.03906,0.273437 0.03906,-0.442708 0.04557,-0.488281 0.01302,-0.175781 0.0065,-0.247396 -0.0065,-0.09115 0.01953,-0.136719 0.01953,-0.03906 0.04557,-0.208333 0.01953,-0.117187 0.05208,-0.143229 0.09115,-0.07813 0.09115,-0.3125 0.0065,-0.16276 0.07161,-0.169271 0.08464,0 0.09766,0.117188 0.03255,0.416666 -0.02604,0.78776 0,0.03255 0,0.09766 0,0.02604 0.01302,0.08464 0.0065,0.05859 0.01302,0.08464 0.01953,0.08463 0.0651,0.05208 0.01302,-0.0065 0.01953,0.09115 0.01302,0.14974 0.04557,0.162761 0.01302,0.0065 0.04557,-0.123698 0.0065,-0.03255 0.01953,-0.09115 0.01302,-0.07161 0.01953,-0.09766 0.01302,-0.09115 0.02604,-0.08464 0.02604,0.0065 0.03906,0.09766 0.01302,0.07813 0,0.214844 -0.01302,0.188802 -0.02604,0.592448 -0.01953,0.390625 -0.03255,0.592448 z m 1.152344,-3.893229 q 0.01953,-0.01953 0.03906,0.04557 0.0065,0.03906 0.0065,0.16276 -0.03906,0.01953 -0.08464,0.04557 0.01953,-0.09115 0.01953,-0.175781 0.0065,-0.05859 0.01953,-0.07813 z m -0.07813,-0.16276 q -0.01953,0.0651 -0.03906,0.0651 -0.123698,-0.02604 -0.16276,-0.358073 -0.01302,-0.130209 -0.04557,-0.358073 -0.04557,-0.253906 -0.05859,-0.364583 0.735677,-0.104167 1.39974,0.07161 0.09115,0.01953 0.201822,0.04557 -0.0065,0.05859 -0.03906,0.253906 -0.02604,0.15625 -0.03906,0.260417 -0.01953,0.169271 -0.07161,0.397135 -0.02604,0 -0.01953,0 -0.709636,0.214844 -0.898438,0.30599 0.0065,-0.03906 0.0065,-0.03906 0.01953,-0.260416 0,-0.345052 -0.03255,-0.123698 -0.01953,-0.436198 0.0065,-0.05208 0.01302,-0.195312 0.0065,-0.130208 0.01302,-0.201823 0,-0.104167 -0.01302,-0.117187 -0.01302,-0.01302 -0.03255,0.0651 -0.08463,0.351562 -0.123698,0.585937 -0.0065,0.03906 -0.07161,0.364584 z m 0.227864,3.515624 q -0.01302,-0.16276 -0.01302,-0.371093 0,0.02604 0,-0.09115 0.09766,0.03906 0.221354,0.07813 -0.05208,0.169271 -0.07161,0.299479 -0.0065,0.07161 -0.03906,0.16276 -0.07161,0.188803 -0.09766,-0.07813 z m -2.454427,-1.269531 q 0,-0.136718 -0.07813,-0.722656 -0.0651,-0.455729 -0.07161,-1.40625 -0.0065,-0.481771 -0.01302,-0.598958 0.286458,-0.05208 0.983073,-0.266927 0.664062,-0.201823 1.067708,-0.260417 0.0651,0.664062 0.08463,0.885417 0.01953,0.332031 -0.03906,0.462239 -0.01302,0.02604 -0.01953,0.117188 -0.02604,0.182291 -0.04557,0.351562 -0.208334,0.345052 -0.253907,1.002604 0.01953,0.266927 0.08464,0.475261 -0.01302,0.214844 -0.04557,0.553385 -0.0065,0.117188 -0.03255,0.03255 -0.03906,-0.104166 -0.0651,0.03906 0.0065,-0.01953 -0.04557,0.195312 -0.01953,0.07813 -0.03255,0.03255 -0.05859,-0.149739 -0.110677,0.09766 -0.01953,0.130208 -0.05859,0.09766 -0.03255,-0.02604 -0.03906,-0.162761 0,-0.143229 0.0065,-0.338541 0.02604,-0.546875 0.02604,-0.605469 -0.0065,-0.123698 0.0065,-0.14974 0.02604,-0.03906 -0.0065,-0.104166 -0.07813,-0.169271 -0.05859,-0.423177 0.0065,-0.03255 -0.0065,-0.09115 -0.01953,-0.110677 -0.01302,-0.299479 0.0065,-0.3125 -0.01302,-0.403646 -0.05208,0.214844 -0.07162,0.507812 -0.01302,0.123698 -0.04557,0.136719 -0.01953,0.01302 -0.03255,-0.09766 -0.0065,-0.04557 -0.01953,-0.03906 -0.02604,0.0065 -0.05208,-0.16276 -0.03255,-0.188802 -0.03255,-0.371094 0,-0.09115 -0.02604,-0.110677 -0.01953,-0.01302 -0.03906,0.0651 0,0.01953 -0.0065,0.05859 -0.0065,0.03906 -0.01302,0.05859 -0.09115,0.332031 -0.14974,0.332031 -0.143229,0.01302 -0.16927,0.253906 0,0 -0.01953,0.03255 -0.02604,0.04557 -0.175781,0.14974 -0.03906,0.01953 -0.05208,0.117187 -0.05208,0.358073 -0.110677,0.735678 -0.01953,0.09115 -0.07162,0.149739 -0.05208,0.05859 -0.0651,-0.0065 -0.0065,-0.04557 -0.03255,-0.15625 -0.02604,-0.09766 -0.02604,-0.162761 z m 3.671875,-2.167968 q 0.3125,0.07813 0.546875,0.214843 0,-0.09115 0.0065,-0.149739 0,-0.07813 0.03255,-0.175782 0.04557,-0.143229 0.04557,-0.188802 -0.0065,-0.104166 0.0065,-0.286458 0.0065,-0.208333 0.0065,-0.286458 -0.345052,-0.03255 -0.625,-0.07813 0,0.07813 -0.0065,0.130208 -0.0065,0.188802 0,0.384115 0.0065,0.182291 -0.01302,0.436198 z"
       style="font-size:13.33333302px;fill:#f30000;fill-opacity:1"
       id="path906" />
    <path
       d="m 36.046148,18.138093 q -0.0065,-0.01302 -0.0065,-0.104166 0,0.03255 0,-0.07161 z m 0.716146,-3.717448 q 0,0.592448 0.0065,0.631511 0.0065,0.117187 -0.0065,0.332031 -0.01302,0.227865 -0.0065,0.332031 0.0065,0.05859 -0.01953,0.130209 -0.585937,-0.123698 -0.572917,-0.364584 -0.01302,0.03906 -0.02604,0.117188 V 15.5795 q -0.0065,-0.188802 0.0065,-0.384115 0.03906,-0.768229 0.03906,-0.77474 0.01302,-0.05859 0.01953,-0.260416 2.122396,0.143229 2.539062,0.3125 0,0.03255 0,0.05859 -0.117187,0.08463 -0.136718,0.449218 -0.01953,0.364584 0.09114,0.501302 v 0.15625 q -0.16276,0.136719 -0.527343,0.208334 0,-0.110677 -0.01953,-0.273438 -0.04557,0.273438 -0.04557,0.286459 -0.09115,0.01302 -0.195313,0.02604 -0.0065,-0.04557 0,-0.104166 0.01302,-0.06511 0.0065,-0.130209 0,-0.143229 -0.01953,-0.16276 -0.02604,-0.03255 -0.05208,0.07161 -0.05208,0.195313 -0.143229,0.175782 -0.03255,-0.0065 -0.03906,0.02604 0,0.03906 0.02604,0.09766 0.01953,0.03255 0.02604,0.04557 -0.390625,0.01953 -0.761719,-0.02604 -0.123698,-1.341146 -0.136719,-1.484375 -0.01302,-0.09766 -0.03255,-0.09115 -0.01953,0.01302 -0.01953,0.117187 z m 2.050781,0.09115 q 0.01302,0.01302 0.01953,0.01953 -0.0065,-0.0065 -0.01953,-0.0065 z m -6.56901,0.481771 q -0.117188,0.07813 -0.104167,0.384115 0.0065,0.0651 0.0065,0.130208 -0.266927,-0.104167 -2.057291,-0.371094 0.04557,-0.957031 -0.15625,-1.236979 l 0.664062,0.01953 q 0.794271,0.02604 1.523438,0.04557 2.408854,0.08464 4.010416,0.188802 -0.02604,0.442709 -0.110677,0.514323 -0.01302,0.01302 -0.01302,0.104167 -0.0065,0.16276 -0.04557,0.397135 -0.05208,0.29948 -0.0651,0.384115 -0.01953,0.175781 -0.123698,0.61849 0.01953,-0.07813 -0.04557,0.501302 -0.02604,0.234375 -0.01953,0.292968 v -0.0065 q 0,0.104167 -0.01953,0.273437 -0.02604,0.175782 -0.03255,0.253907 0,0.117187 -0.09766,0.748698 -0.03906,0.266927 -0.130209,0.247395 -0.01302,-0.0065 -0.03255,0.04557 -0.07813,0.182292 -0.188802,0.247396 -0.01302,0.0065 -0.01953,0.03906 -0.01302,0.07161 -0.07162,0.266927 -0.05208,0.16276 -0.0651,0.286458 -0.01302,0.07161 -0.04557,0.16276 -0.0065,0.02604 -0.01302,0.03906 h -0.05859 q -0.01953,-0.03906 -0.02604,-0.110677 -0.01302,-0.169271 -0.01302,-0.371094 0.01302,-0.983073 0.01302,-1.041667 -0.01302,-0.983072 -0.03255,-1.191406 0,-0.05859 0.03906,-0.63151 0.01953,-0.266927 0,-0.345052 -0.03255,-0.123698 -0.01302,-0.436198 0,-0.05208 0.0065,-0.201823 0.0065,-0.123698 0.01302,-0.201823 0.0065,-0.09766 -0.01302,-0.117187 -0.01302,-0.0065 -0.03255,0.0651 -0.08464,0.358073 -0.117187,0.592448 -0.0065,0.03906 -0.07813,0.358073 -0.01302,0.07161 -0.03906,0.0651 -0.123698,-0.01953 -0.15625,-0.351563 -0.01953,-0.136719 -0.0651,-0.436198 -0.03906,-0.279948 -0.05859,-0.442708 -0.0065,-0.09766 -0.05208,-0.175781 0.01302,0.136718 0.0651,0.605468 0.03906,0.377605 0.05208,0.61198 0.01953,0.338541 -0.03906,0.462239 -0.01302,0.02604 -0.01953,0.123698 -0.08464,0.716146 -0.14323,1.080729 -0.02604,0.123698 -0.05208,0.579427 -0.01953,0.208334 -0.05859,0.722657 -0.01302,0.117187 -0.03906,0.03255 -0.03255,-0.104167 -0.05859,0.03906 0,-0.01953 -0.05208,0.195313 -0.01302,0.07161 -0.03255,0.03255 -0.05859,-0.14974 -0.104167,0.09766 -0.02604,0.123698 -0.0651,0.09115 -0.03255,-0.01953 -0.03255,-0.162761 -0.0065,-0.143229 0,-0.332031 0.02604,-0.546875 0.02604,-0.611979 -0.0065,-0.123698 0.01302,-0.143229 0.01953,-0.04557 -0.0065,-0.104167 -0.08464,-0.169271 -0.05859,-0.423177 0,-0.03255 -0.01302,-0.09766 -0.01953,-0.110677 -0.01302,-0.292969 0.01302,-0.31901 -0.0065,-0.410156 -0.05859,0.221354 -0.07813,0.507812 -0.01302,0.123698 -0.04557,0.14323 -0.01953,0.0065 -0.03255,-0.09766 -0.0065,-0.04557 -0.01302,-0.04557 -0.02604,0.0065 -0.05859,-0.16276 -0.03255,-0.188802 -0.03255,-0.371094 0,-0.09115 -0.01953,-0.110677 -0.01953,-0.01302 -0.03906,0.0651 -0.0065,0.01953 -0.01302,0.0651 -0.0065,0.03906 -0.01302,0.05859 -0.08464,0.325521 -0.143229,0.332031 -0.14974,0.0065 -0.175782,0.247396 0,0.0065 -0.01953,0.03906 -0.02604,0.03906 -0.175781,0.143229 -0.03255,0.02604 -0.04557,0.117187 -0.05859,0.364584 -0.117187,0.735677 -0.02604,0.169271 -0.104167,0.175782 0.01302,-0.839844 0.02604,-1.881511 0.0065,-1.035156 -0.0065,-0.696614 0.01953,-0.214844 -0.266927,-0.377604 -0.0065,-0.292969 -0.02604,-0.507813 -0.01302,-0.09115 -0.02604,-0.07813 z m 1.386718,3.502604 q 0.02604,0.0065 0.03906,0.09766 0.0065,0.07813 0,0.214844 -0.01302,0.130209 -0.03906,0.78125 -0.703125,0 -0.95052,-0.09766 0.0065,-0.01302 0.0065,-0.02604 0.0065,-0.07161 0.03906,-0.273437 0.01953,-0.169271 0.02604,-0.279948 0.0065,-0.117188 0.0651,-0.14974 0.07162,-0.03255 0.09766,0.09115 -0.0065,-0.03255 0.03906,0.266927 0.03906,-0.442708 0.04557,-0.481771 0.01302,-0.175781 0.0065,-0.253906 -0.0065,-0.08463 0.01953,-0.130208 0.01953,-0.03906 0.04557,-0.208334 0.01953,-0.117187 0.05859,-0.149739 0.08464,-0.07161 0.09115,-0.30599 0,-0.16276 0.0651,-0.16927 0.08464,-0.0065 0.09766,0.110677 0.03906,0.423177 -0.02604,0.78776 0,0.07161 0,0.104167 0.0065,0.02604 0.01302,0.08464 0.01302,0.05859 0.01953,0.08463 0.01953,0.08464 0.0651,0.05208 0.0065,-0.01302 0.01953,0.08463 0.0065,0.14974 0.03906,0.162761 0.01953,0.0065 0.04557,-0.117188 0.0065,-0.03906 0.01953,-0.09766 0.01302,-0.07161 0.01953,-0.09766 0.01953,-0.09115 0.03255,-0.08464 z m 1.165365,-0.266927 q 0,0.07813 0.01302,0.195313 0.05859,0.625 0.01953,1.009114 -0.0065,0.07813 -0.0065,0.136719 0.01302,0 -0.77474,0.01953 0,-0.01953 0.01302,-0.07161 0.01302,-0.04557 0.01953,-0.07161 0.07162,-0.260417 0.09115,-0.507812 -0.01302,0.149739 0.123698,-1.315105 0.02604,-0.234375 0.04557,-0.390625 0.0065,-0.104166 0.03255,-0.104166 0,0 0.02604,0.09766 0.01953,0.09115 0.01953,0.175781 v 0 0 q -0.0065,0.0065 -0.01302,0.01302 0.0065,0.01302 0.0065,0.01302 0,-0.0065 0.0065,-0.02604 v 0 0 q 0.03255,-0.01953 0.03255,-0.149739 -0.0065,-0.09115 0.01953,-0.143229 0.01953,-0.04557 0.05208,-0.0065 0.03906,0.05208 0.04557,-0.05859 0.01302,-0.16276 0.09115,-0.429687 0.07161,-0.253906 0.08464,-0.436198 0,-0.05859 0.01953,-0.07161 0.01302,-0.01953 0.03255,0.03906 0.08463,0.325521 -0.03255,0.651042 0,0.03906 0,0.0651 0,-0.01953 0.0065,0.598958 -0.01302,0.03255 0.02604,-0.169271 0.01953,-0.110677 0.02604,-0.104166 0.01302,0.01302 0.01302,0.130208 -0.01953,0.423177 -0.03906,0.911458 z m 3.938802,-2.714844 q 0.02604,0.01302 0.05208,0.01302 -0.01953,0.03906 -0.05208,0.07813 0,-0.04557 0,-0.09115 z m -2.753906,3.665365 q 0.03906,0.01953 0.05208,0.15625 0.0065,0.07161 0.02604,0.182292 0.01953,0.136718 0.01953,0.182291 0,0.0065 0.0065,0.02604 -0.175781,-0.117188 -0.690104,-0.14974 0.0065,-0.371093 0.01302,-0.442708 0.01302,-0.143229 0.05859,-0.07162 0.0651,0.110678 0.104167,0.0651 0.03255,-0.04557 0.05208,-0.260417 0.01953,-0.136719 0.02604,-0.371094 0.0065,-0.299479 0.01302,-0.377604 0.01953,-0.423177 0.04557,-0.598958 0.01302,-0.104167 0.02604,-0.3125 0.0065,-0.214844 0.01953,-0.3125 0.03906,-0.338542 0.15625,-0.136719 0.05208,0.09766 0.0651,0.494792 0.0065,0.201823 -0.01302,0.559895 -0.02604,0.384115 -0.02604,0.559896 0.0065,0.46875 0,0.644532 -0.0065,0.123697 0.04557,0.16276 z m -1.477865,-2.1875 v 0.01302 l -0.0065,-0.0065 z m -4.576823,-1.888021 q 0.03906,0.01302 0.162761,0.03255 -0.01302,0.260417 -0.05208,0.273438 -0.04557,0.01953 -0.110678,-0.30599 z"
       style="font-size:13.33333302px;fill:#f30000;fill-opacity:1"
       id="path908" />
  </g>
  <g
     aria-label="IN"
     style="font-style:normal;font-variant:normal;font-weight:normal;font-stretch:normal;font-size:10.66666698px;line-height:1.25;font-family:Copperplate;-inkscape-font-specification:Copperplate;letter-spacing:0px;word-spacing:0px;fill:#000000;fill-opacity:1;stroke:none"
     id="text893">
    <path
       d="m 15.553042,79.547247 q 0.346666,0 0.346666,-0.24 v -6.053333 q 0,-0.24 -0.346666,-0.24 v -0.24 h 2.213333 v 0.24 q -0.346667,0 -0.346667,0.24 v 6.053333 q 0,0.24 0.346667,0.24 v 0.24 h -2.213333 z"
       style="font-size:13.33333302px"
       id="path911" />
    <path
       d="m 20.112833,79.547247 q 0.253334,0 0.253334,-0.24 v -6.053333 q 0,-0.24 -0.253334,-0.24 v -0.24 h 2.28 v 0.24 q -0.106667,0 -0.106667,0.133333 0,0.106667 0.266667,0.373333 l 3.826667,3.973333 v -4.239999 q 0,-0.24 -0.346667,-0.24 v -0.24 h 2.013333 v 0.24 q -0.253333,0 -0.253333,0.24 v 6.053333 q 0,0.24 0.253333,0.24 v 0.24 h -2.16 v -0.24 q 0.173334,0 0.173334,-0.12 0,-0.09333 -0.213334,-0.306667 l -4.066666,-4.24 v 4.426667 q 0,0.24 0.306666,0.24 v 0.24 h -1.973333 z"
       style="font-size:13.33333302px"
       id="path913" />
  </g>
  <g
     aria-label="CV"
     style="font-style:normal;font-variant:normal;font-weight:normal;font-stretch:normal;font-size:8px;line-height:1.25;font-family:Copperplate;-inkscape-font-specification:Copperplate;letter-spacing:0px;word-spacing:0px;fill:#000000;fill-opacity:1;stroke:none"
     id="text897">
    <path
       d="m 20.144522,103.94661 q -0.024,0 -0.048,0 -0.016,-0.008 -0.04,-0.008 -0.048,0 -0.232,0.096 -0.176,0.096 -0.456,0.216 -0.272,0.12 -0.624,0.208 -0.352,0.088 -0.736,0.088 -0.504,0 -0.968,-0.128 -0.464,-0.128 -0.824,-0.392 -0.352,-0.272 -0.56,-0.672 -0.208,-0.4 -0.208,-0.936 0,-0.528 0.208,-0.928 0.208,-0.408 0.56,-0.68 0.36,-0.272 0.824,-0.408 0.464,-0.136 0.968,-0.136 0.408,0 0.736,0.064 0.336,0.064 0.584,0.136 0.248,0.072 0.392,0.136 0.144,0.064 0.176,0.064 0.04,0 0.064,-0.04 0.032,-0.04 0.048,-0.064 l 0.12,0.096 -0.624,0.968 -0.08,-0.056 q 0,-0.024 -0.008,-0.048 0,-0.024 -0.008,-0.056 -0.016,-0.088 -0.16,-0.176 -0.144,-0.096 -0.36,-0.168 -0.208,-0.072 -0.448,-0.12 -0.232,-0.048 -0.432,-0.048 -0.336,0 -0.648,0.096 -0.304,0.096 -0.536,0.28 -0.224,0.184 -0.36,0.456 -0.136,0.264 -0.136,0.608 0,0.344 0.136,0.616 0.136,0.264 0.36,0.448 0.232,0.184 0.536,0.28 0.312,0.096 0.648,0.096 0.256,0 0.536,-0.056 0.28,-0.064 0.512,-0.152 0.232,-0.096 0.384,-0.208 0.16,-0.12 0.16,-0.224 0,-0.056 -0.032,-0.096 l 0.112,-0.064 0.528,0.848 z"
       style=""
       id="path916" />
    <path
       d="m 25.949772,100.45861 q -0.16,0 -0.232,0.12 -0.072,0.112 -0.104,0.184 l -1.416,3.112 q -0.072,0.16 -0.12,0.256 -0.048,0.096 -0.048,0.136 0,0.04 0.016,0.064 0.024,0.024 0.056,0.048 v 0.144 h -1.224 v -0.144 q 0.072,-0.032 0.072,-0.112 0,-0.04 -0.064,-0.16 -0.056,-0.128 -0.144,-0.312 l -1.44,-3.128 q -0.04,-0.088 -0.112,-0.128 -0.072,-0.04 -0.208,-0.08 v -0.144 h 1.432 v 0.144 q -0.056,0 -0.112,0.032 -0.048,0.024 -0.048,0.104 0,0.088 0.064,0.224 0.072,0.136 0.168,0.336 l 1.024,2.2 1,-2.168 q 0.096,-0.208 0.176,-0.368 0.088,-0.168 0.088,-0.232 0,-0.128 -0.224,-0.128 v -0.144 h 1.4 z"
       style=""
       id="path918" />
  </g>
  <g
     aria-label="Waveform"
     style="font-style:normal;font-variant:normal;font-weight:normal;font-stretch:normal;font-size:8px;line-height:1.25;font-family:Copperplate;-inkscape-font-specification:Copperplate;letter-spacing:0px;word-spacing:0px;fill:#000000;fill-opacity:1;stroke:none"
     id="text901">
    <path
       d="m 3.8932696,139.76411 q -0.12,0 -0.12,0.152 0,0.04 0.008,0.096 0.016,0.056 0.064,0.184 l 0.856,2.224 h 0.016 l 0.848,-2.256 q 0.04,-0.104 0.048,-0.152 0.016,-0.056 0.016,-0.096 0,-0.152 -0.104,-0.152 v -0.144 h 1.368 v 0.144 q -0.056,0 -0.08,0.04 -0.024,0.04 -0.024,0.088 0,0.08 0.08,0.272 l 0.856,2.256 h 0.016 l 0.864,-2.304 q 0.056,-0.12 0.056,-0.216 0,-0.048 -0.04,-0.088 -0.04,-0.048 -0.096,-0.048 v -0.144 h 1.184 v 0.144 q -0.088,0 -0.136,0.096 -0.04,0.096 -0.096,0.24 l -1.152,3.056 q -0.048,0.128 -0.088,0.224 -0.032,0.096 -0.032,0.16 0,0.056 0.04,0.104 0.04,0.04 0.112,0.04 v 0.144 h -1.264 v -0.144 q 0.048,-0.016 0.096,-0.048 0.056,-0.032 0.056,-0.088 0,-0.064 -0.032,-0.144 -0.024,-0.08 -0.088,-0.224 l -0.92,-2.36 h -0.016 l -0.872,2.312 q -0.12,0.312 -0.12,0.392 0,0.128 0.104,0.16 v 0.144 h -1.24 v -0.144 q 0.048,0 0.096,-0.024 0.048,-0.024 0.048,-0.08 0,-0.064 -0.032,-0.136 -0.024,-0.072 -0.056,-0.152 l -1.28,-3.304 q -0.032,-0.088 -0.072,-0.144 -0.032,-0.064 -0.112,-0.08 v -0.144 h 1.24 z"
       style=""
       id="path921" />
    <path
       d="m 12.744145,142.35611 -0.648,-1.344 -0.568,1.344 z m -2.672,1.328 q 0.096,-0.016 0.152,-0.088 0.064,-0.08 0.096,-0.144 l 1.192,-2.6 q 0.048,-0.112 0.072,-0.176 0.032,-0.072 0.032,-0.136 0,-0.048 -0.024,-0.056 -0.016,-0.016 -0.04,-0.032 v -0.144 h 1.208 v 0.144 q -0.024,0.016 -0.056,0.024 -0.024,0.008 -0.024,0.064 0,0.048 0.032,0.12 0.04,0.064 0.08,0.152 l 1.296,2.72 q 0.04,0.072 0.088,0.104 0.048,0.032 0.104,0.048 v 0.144 h -1.136 v -0.12 q 0.04,0 0.08,-0.024 0.048,-0.024 0.048,-0.088 0,-0.048 -0.016,-0.088 -0.016,-0.04 -0.04,-0.104 l -0.216,-0.456 h -1.712 l -0.224,0.432 q -0.032,0.064 -0.056,0.12 -0.016,0.048 -0.016,0.088 0,0.064 0.04,0.08 0.04,0.016 0.112,0.016 v 0.144 h -1.072 z"
       style=""
       id="path923" />
    <path
       d="m 18.66127,140.45211 q -0.112,0 -0.2,0.184 l -1.168,2.584 q -0.088,0.208 -0.136,0.28 -0.04,0.072 -0.04,0.112 0,0.048 0.144,0.072 v 0.144 h -1.208 v -0.144 q 0.04,-0.016 0.072,-0.032 0.04,-0.024 0.04,-0.064 0,-0.04 -0.056,-0.128 -0.048,-0.088 -0.12,-0.24 l -1.216,-2.616 q -0.032,-0.072 -0.088,-0.112 -0.048,-0.04 -0.096,-0.04 v -0.144 h 1.128 v 0.144 q -0.096,0 -0.096,0.104 0,0.056 0.04,0.16 0.048,0.096 0.104,0.216 l 0.92,1.992 0.872,-1.936 q 0.088,-0.192 0.136,-0.288 0.048,-0.096 0.04,-0.152 -0.008,-0.096 -0.12,-0.096 v -0.144 h 1.048 z"
       style=""
       id="path925" />
    <path
       d="m 22.602395,141.05211 q 0,-0.152 -0.248,-0.152 h -1.952 v 0.8 h 1.232 q 0.136,0 0.2,-0.016 0.064,-0.024 0.064,-0.112 h 0.144 v 0.848 h -0.16 q 0.024,-0.088 -0.064,-0.104 -0.088,-0.024 -0.248,-0.024 h -1.168 v 0.944 h 2.048 q 0.096,0 0.16,-0.04 0.064,-0.048 0.064,-0.12 h 0.144 v 0.84 h -0.144 q 0,-0.072 -0.064,-0.08 -0.064,-0.008 -0.16,-0.008 h -2.936 v -0.144 q 0.04,0 0.08,-0.024 0.04,-0.032 0.04,-0.096 v -2.992 q 0,-0.064 -0.04,-0.088 -0.04,-0.032 -0.08,-0.032 v -0.144 h 2.84 q 0.248,0 0.248,-0.144 h 0.144 v 0.888 z"
       style=""
       id="path927" />
    <path
       d="m 27.26352,141.01211 q 0,-0.04 -0.056,-0.072 -0.056,-0.04 -0.192,-0.04 h -2.168 v 0.848 h 1.408 q 0.136,0 0.168,-0.024 0.032,-0.032 0.04,-0.096 h 0.144 v 0.84 h -0.144 q -0.008,-0.064 -0.04,-0.096 -0.032,-0.032 -0.168,-0.032 h -1.408 v 1.224 q 0,0.064 0.056,0.096 0.056,0.024 0.128,0.024 v 0.144 h -1.104 v -0.144 q 0.152,0 0.152,-0.12 v -2.992 q 0,-0.12 -0.168,-0.12 v -0.144 h 3.104 q 0.136,0 0.192,-0.04 0.056,-0.04 0.056,-0.104 h 0.144 v 0.848 z"
       style=""
       id="path929" />
    <path
       d="m 30.204645,140.85211 q -0.256,0 -0.504,0.088 -0.24,0.08 -0.432,0.24 -0.192,0.152 -0.312,0.376 -0.112,0.224 -0.112,0.512 0,0.288 0.112,0.512 0.12,0.224 0.312,0.384 0.192,0.152 0.432,0.24 0.248,0.08 0.504,0.08 0.256,0 0.496,-0.08 0.248,-0.088 0.44,-0.24 0.192,-0.16 0.304,-0.384 0.12,-0.224 0.12,-0.512 0,-0.288 -0.12,-0.512 -0.112,-0.224 -0.304,-0.376 -0.192,-0.16 -0.44,-0.24 -0.24,-0.088 -0.496,-0.088 z m 0,-0.592 q 0.44,0 0.824,0.112 0.392,0.112 0.68,0.336 0.288,0.224 0.456,0.568 0.168,0.336 0.168,0.792 0,0.456 -0.168,0.8 -0.168,0.336 -0.456,0.56 -0.288,0.224 -0.68,0.328 -0.384,0.096 -0.824,0.096 -0.44,0 -0.832,-0.096 -0.384,-0.104 -0.672,-0.328 -0.288,-0.224 -0.456,-0.56 -0.168,-0.344 -0.168,-0.8 0,-0.456 0.168,-0.792 0.168,-0.344 0.456,-0.568 0.288,-0.224 0.672,-0.336 0.392,-0.112 0.832,-0.112 z"
       style=""
       id="path931" />
    <path
       d="m 35.47127,141.82811 q 0.784,0 0.784,-0.496 0,-0.2 -0.192,-0.312 -0.184,-0.12 -0.592,-0.12 h -1.264 v 0.928 z m 0.016,-1.52 q 0.712,0 1.112,0.24 0.4,0.232 0.4,0.8 0,0.216 -0.08,0.384 -0.08,0.168 -0.216,0.296 -0.128,0.12 -0.288,0.2 -0.16,0.072 -0.328,0.112 l 0.784,1.144 q 0.064,0.088 0.136,0.136 0.08,0.04 0.168,0.064 v 0.144 h -1.224 v -0.144 q 0.104,0 0.104,-0.072 0,-0.08 -0.12,-0.248 l -0.632,-0.944 h -1.112 v 1.144 q 0,0.064 0.048,0.096 0.056,0.024 0.104,0.024 v 0.144 h -1.064 v -0.144 q 0.144,0 0.144,-0.12 v -2.992 q 0,-0.12 -0.144,-0.12 v -0.144 z"
       style=""
       id="path933" />
    <path
       d="m 38.289895,143.68411 q 0.04,-0.008 0.064,-0.032 0.032,-0.024 0.032,-0.112 v -2.928 q 0,-0.112 -0.024,-0.136 -0.016,-0.024 -0.072,-0.024 v -0.144 h 1.112 v 0.144 q -0.08,0 -0.08,0.072 0,0.032 0.024,0.088 0.032,0.048 0.088,0.144 l 0.976,1.8 0.984,-1.792 q 0.056,-0.096 0.088,-0.152 0.032,-0.064 0.032,-0.088 0,-0.072 -0.064,-0.072 v -0.144 h 1.128 v 0.144 q -0.04,0 -0.08,0.024 -0.032,0.016 -0.032,0.08 v 3.008 q 0,0.064 0.032,0.096 0.04,0.024 0.08,0.024 v 0.144 h -0.928 v -0.144 q 0.168,0 0.144,-0.12 v -2.248 h -0.016 l -1.36,2.512 h -0.064 l -1.288,-2.512 h 0.008 -0.016 v 2.248 q 0,0.12 0.136,0.12 v 0.144 h -0.904 z"
       style=""
       id="path935" />
  </g>
</svg>
