<?xml version="1.0" encoding="UTF-8" standalone="no"?>
<svg
   xmlns:dc="http://purl.org/dc/elements/1.1/"
   xmlns:cc="http://creativecommons.org/ns#"
   xmlns:rdf="http://www.w3.org/1999/02/22-rdf-syntax-ns#"
   xmlns:svg="http://www.w3.org/2000/svg"
   xmlns="http://www.w3.org/2000/svg"
   id="svg26"
   viewbox="0 0 59.99999999976 379.42913385675"
   height="379.42913385675"
   width="59.99999999976"
   version="1.1">
  <metadata
     id="metadata32">
    <rdf:RDF>
      <cc:Work
         rdf:about="">
        <dc:format>image/svg+xml</dc:format>
        <dc:type
           rdf:resource="http://purl.org/dc/dcmitype/StillImage" />
      </cc:Work>
    </rdf:RDF>
  </metadata>
  <defs
     id="defs30" />
  <rect
     id="rect2"
     stroke-width="1"
     fill="#fff4f0"
     stroke="#ff4400"
     height="380.01968503784997"
     width="60.0"
     y="0"
     x="0" />
  <g
     id="text4"
     style="font-weight:bold;font-size:12px;font-family:'Proxima Nova';text-anchor:middle;fill:#ff4400"
     aria-label="SWAVE">
    <path
       id="path34"
       style="font-weight:bold;font-size:12px;font-family:'Proxima Nova';text-anchor:middle;fill:#ff4400"
       d="m 9.9902813,25.446802 c 0.7439997,0.756 1.8479997,1.272 3.3839997,1.272 2.16,0 3.204,-1.104 3.204,-2.568 0,-1.812 -1.68,-2.208 -3,-2.52 -0.864,-0.204 -1.596,-0.372 -1.596,-0.888 0,-0.48 0.408,-0.804 1.14,-0.804 0.816,0 1.68,0.276 2.328,0.876 l 0.948,-1.248 c -0.792,-0.732 -1.848,-1.116 -3.12,-1.116 -1.884,0 -3.036,1.104 -3.036,2.436 0,1.824 1.68,2.184 2.988,2.484 0.876,0.216 1.62,0.384 1.62,0.972 0,0.456 -0.456,0.888 -1.392,0.888 -1.104,0 -1.98,-0.492 -2.544,-1.08 z" />
    <path
       id="path36"
       style="font-weight:bold;font-size:12px;font-family:'Proxima Nova';text-anchor:middle;fill:#ff4400"
       d="m 23.845594,26.574802 h 1.812 l 2.28,-8.004 h -1.92 l -1.392,5.784 -1.512,-5.784 h -1.332 l -1.524,5.784 -1.404,-5.784 h -1.908 l 2.292,8.004 h 1.812 l 1.392,-5.496 z" />
    <path
       id="path38"
       style="font-weight:bold;font-size:12px;font-family:'Proxima Nova';text-anchor:middle;fill:#ff4400"
       d="m 33.722156,26.574802 h 1.944 l -3.084,-8.004 h -2.136 l -3.096,8.004 h 1.944 l 0.504,-1.356 h 3.432 z m -2.208,-6.3 1.248,3.444 h -2.496 z" />
    <path
       id="path40"
       style="font-weight:bold;font-size:12px;font-family:'Proxima Nova';text-anchor:middle;fill:#ff4400"
       d="m 38.086781,26.574802 h 2.136 l 3.084,-8.004 h -1.944 l -2.208,6.156 -2.22,-6.156 h -1.944 z" />
    <path
       id="path42"
       style="font-weight:bold;font-size:12px;font-family:'Proxima Nova';text-anchor:middle;fill:#ff4400"
       d="m 44.045906,26.574802 h 5.664 v -1.5 h -3.96 v -1.812 h 3.876 v -1.5 h -3.876 v -1.692 h 3.96 v -1.5 h -5.664 z" />
  </g>
  <g
     id="text6"
     style="font-weight:bold;font-size:12px;font-family:'Proxima Nova';dominant-baseline:hanging;text-anchor:middle;fill:#ff4400"
     aria-label="DHE">
    <path
       id="path45"
       style="font-weight:bold;font-size:12px;font-family:'Proxima Nova';dominant-baseline:hanging;text-anchor:middle;fill:#ff4400"
       d="m 18.592781,361.02889 h 3.156 c 2.508,0 4.248,-1.584 4.248,-3.996 0,-2.412 -1.74,-4.008 -4.248,-4.008 h -3.156 z m 1.704,-1.5 v -5.004 h 1.452 c 1.644,0 2.508,1.092 2.508,2.508 0,1.356 -0.924,2.496 -2.508,2.496 z" />
    <path
       id="path47"
       style="font-weight:bold;font-size:12px;font-family:'Proxima Nova';dominant-baseline:hanging;text-anchor:middle;fill:#ff4400"
       d="m 32.701781,361.02889 h 1.716 v -8.004 h -1.716 v 3.144 h -3.78 v -3.144 h -1.704 v 8.004 h 1.704 v -3.36 h 3.78 z" />
    <path
       id="path49"
       style="font-weight:bold;font-size:12px;font-family:'Proxima Nova';dominant-baseline:hanging;text-anchor:middle;fill:#ff4400"
       d="m 35.983406,361.02889 h 5.664 v -1.5 h -3.96 v -1.812 h 3.876 v -1.5 h -3.876 v -1.692 h 3.96 v -1.5 h -5.664 z" />
  </g>
  <g
     id="text8"
     style="font-weight:bold;font-size:9px;font-family:'Proxima Nova';text-anchor:middle;fill:#ff4400"
     aria-label="CURVE">
    <path
       id="path52"
       style="font-weight:bold;font-size:9px;font-family:'Proxima Nova';text-anchor:middle;fill:#ff4400"
       d="m 18.559594,51.781229 c 1.323,0 2.079,-0.729 2.511,-1.476 l -1.098,-0.531 c -0.252,0.495 -0.792,0.873 -1.413,0.873 -1.089,0 -1.881,-0.837 -1.881,-1.971 0,-1.134 0.792,-1.971 1.881,-1.971 0.621,0 1.161,0.387 1.413,0.873 l 1.098,-0.54 c -0.423,-0.747 -1.188,-1.467 -2.511,-1.467 -1.8,0 -3.195,1.26 -3.195,3.105 0,1.845 1.395,3.105 3.195,3.105 z" />
    <path
       id="path54"
       style="font-weight:bold;font-size:9px;font-family:'Proxima Nova';text-anchor:middle;fill:#ff4400"
       d="m 21.840094,49.279229 c 0,1.476 0.882,2.502 2.709,2.502 1.827,0 2.709,-1.017 2.709,-2.511 v -3.6 h -1.305 v 3.564 c 0,0.837 -0.477,1.413 -1.404,1.413 -0.927,0 -1.413,-0.576 -1.413,-1.413 v -3.564 h -1.296 z" />
    <path
       id="path56"
       style="font-weight:bold;font-size:9px;font-family:'Proxima Nova';text-anchor:middle;fill:#ff4400"
       d="m 31.824891,51.673229 h 1.467 l -1.35,-2.286 c 0.648,-0.153 1.314,-0.72 1.314,-1.782 0,-1.116 -0.765,-1.935 -2.016,-1.935 h -2.808 v 6.003 h 1.278 v -2.133 h 0.936 z m 0.126,-4.068 c 0,0.504 -0.387,0.81 -0.9,0.81 h -1.341 v -1.62 h 1.341 c 0.513,0 0.9,0.306 0.9,0.81 z" />
    <path
       id="path58"
       style="font-weight:bold;font-size:9px;font-family:'Proxima Nova';text-anchor:middle;fill:#ff4400"
       d="m 35.810203,51.673229 h 1.602 l 2.313,-6.003 h -1.458 l -1.656,4.617 -1.665,-4.617 h -1.458 z" />
    <path
       id="path60"
       style="font-weight:bold;font-size:9px;font-family:'Proxima Nova';text-anchor:middle;fill:#ff4400"
       d="m 40.279547,51.673229 h 4.248 v -1.125 h -2.97 v -1.359 h 2.907 v -1.125 h -2.907 v -1.269 h 2.97 v -1.125 h -4.248 z" />
  </g>
  <rect
     id="rect10"
     fill="none"
     stroke="none"
     ry="3.0"
     rx="3.0"
     stroke-width="1.033464566925"
     height="39.361548556245"
     width="31.742125984125003"
     y="104.9543963250675"
     x="14.128937007817498" />
  <g
     id="text12"
     style="font-weight:bold;font-size:7px;font-family:'Proxima Nova';text-anchor:middle;fill:#ff4400"
     aria-label="CV">
    <path
       id="path63"
       style="font-weight:bold;font-size:7px;font-family:'Proxima Nova';text-anchor:middle;fill:#ff4400"
       d="m 27.937844,113.17455 c 1.029,0 1.617,-0.567 1.953,-1.148 l -0.854,-0.413 c -0.196,0.385 -0.616,0.679 -1.099,0.679 -0.847,0 -1.463,-0.651 -1.463,-1.533 0,-0.882 0.616,-1.533 1.463,-1.533 0.483,0 0.903,0.301 1.099,0.679 l 0.854,-0.42 c -0.329,-0.581 -0.924,-1.141 -1.953,-1.141 -1.4,0 -2.485,0.98 -2.485,2.415 0,1.435 1.085,2.415 2.485,2.415 z" />
    <path
       id="path65"
       style="font-weight:bold;font-size:7px;font-family:'Proxima Nova';text-anchor:middle;fill:#ff4400"
       d="m 31.771,113.09055 h 1.246 l 1.799,-4.669 h -1.134 l -1.288,3.591 -1.295,-3.591 h -1.134 z" />
  </g>
  <g
     id="text14"
     style="font-weight:bold;font-size:7px;font-family:'Proxima Nova';text-anchor:middle;fill:#ff4400"
     aria-label="S">
    <path
       id="path68"
       style="font-weight:bold;font-size:7px;font-family:'Proxima Nova';text-anchor:middle;fill:#ff4400"
       d="m 28.048367,170.0851 c 0.434,0.441 1.078,0.742 1.974,0.742 1.26,0 1.869,-0.644 1.869,-1.498 0,-1.057 -0.98,-1.288 -1.75,-1.47 -0.504,-0.119 -0.931,-0.217 -0.931,-0.518 0,-0.28 0.238,-0.469 0.665,-0.469 0.476,0 0.98,0.161 1.358,0.511 l 0.553,-0.728 c -0.462,-0.427 -1.078,-0.651 -1.82,-0.651 -1.099,0 -1.771,0.644 -1.771,1.421 0,1.064 0.98,1.274 1.743,1.449 0.511,0.126 0.945,0.224 0.945,0.567 0,0.266 -0.266,0.518 -0.812,0.518 -0.644,0 -1.155,-0.287 -1.484,-0.63 z" />
  </g>
  <g
     id="text16"
     style="font-weight:bold;font-size:7px;font-family:'Proxima Nova';dominant-baseline:hanging;text-anchor:middle;fill:#ff4400"
     aria-label="J">
    <path
       id="path71"
       style="font-weight:bold;font-size:7px;font-family:'Proxima Nova';dominant-baseline:hanging;text-anchor:middle;fill:#ff4400"
       d="m 28.339852,199.45162 c 0.336,0.329 0.784,0.455 1.253,0.455 0.959,0 1.645,-0.511 1.645,-1.617 v -3.136 h -0.994 v 3.122 c 0,0.455 -0.287,0.749 -0.728,0.749 -0.322,0 -0.56,-0.161 -0.742,-0.336 z" />
  </g>
  <rect
     id="rect18"
     fill="#fff4f0"
     stroke="#ff4400"
     ry="3.0"
     rx="3.0"
     stroke-width="1.033464566925"
     height="39.361548556245"
     width="31.742125984125003"
     y="262.9268372693175"
     x="14.128937007817498" />
  <g
     id="text20"
     style="font-weight:bold;font-size:7px;font-family:'Proxima Nova';text-anchor:middle;fill:#ff4400"
     aria-label="IN">
    <path
       id="path74"
       style="font-weight:bold;font-size:7px;font-family:'Proxima Nova';text-anchor:middle;fill:#ff4400"
       d="m 26.955164,271.06299 h 0.994 v -4.669 h -0.994 z" />
    <path
       id="path76"
       style="font-weight:bold;font-size:7px;font-family:'Proxima Nova';text-anchor:middle;fill:#ff4400"
       d="m 32.089227,271.06299 h 0.959 v -4.669 h -0.994 v 2.933 l -2.163,-2.933 h -1.022 v 4.669 h 0.994 v -3.045 z" />
  </g>
  <rect
     id="rect22"
     fill="#ff4400"
     stroke="#ff4400"
     ry="3.0"
     rx="3.0"
     stroke-width="1.033464566925"
     height="39.361548556245"
     width="31.742125984125003"
     y="307.21817585181753"
     x="14.128937007817498" />
  <g
     id="text24"
     style="font-weight:bold;font-size:7px;font-family:'Proxima Nova';text-anchor:middle;fill:#fff4f0"
     aria-label="OUT">
    <path
       id="path79"
       style="font-weight:bold;font-size:7px;font-family:'Proxima Nova';text-anchor:middle;fill:#fff4f0"
       d="m 22.957727,313.02334 c 0,1.407 1.029,2.415 2.436,2.415 1.414,0 2.443,-1.008 2.443,-2.415 0,-1.407 -1.029,-2.415 -2.443,-2.415 -1.407,0 -2.436,1.008 -2.436,2.415 z m 3.857,0 c 0,0.868 -0.56,1.533 -1.421,1.533 -0.861,0 -1.414,-0.665 -1.414,-1.533 0,-0.875 0.553,-1.533 1.414,-1.533 0.861,0 1.421,0.658 1.421,1.533 z" />
    <path
       id="path81"
       style="font-weight:bold;font-size:7px;font-family:'Proxima Nova';text-anchor:middle;fill:#fff4f0"
       d="m 28.541102,313.49234 c 0,1.148 0.686,1.946 2.107,1.946 1.421,0 2.107,-0.791 2.107,-1.953 v -2.8 h -1.015 v 2.772 c 0,0.651 -0.371,1.099 -1.092,1.099 -0.721,0 -1.099,-0.448 -1.099,-1.099 v -2.772 h -1.008 z" />
    <path
       id="path83"
       style="font-weight:bold;font-size:7px;font-family:'Proxima Nova';text-anchor:middle;fill:#fff4f0"
       d="m 34.746055,315.35434 h 1.001 v -3.794 h 1.358 v -0.875 h -3.724 v 0.875 h 1.365 z" />
  </g>
</svg>
