<?xml version="1.0" encoding="UTF-8" standalone="no"?>
<svg
   xmlns:dc="http://purl.org/dc/elements/1.1/"
   xmlns:cc="http://creativecommons.org/ns#"
   xmlns:rdf="http://www.w3.org/1999/02/22-rdf-syntax-ns#"
   xmlns:svg="http://www.w3.org/2000/svg"
   xmlns="http://www.w3.org/2000/svg"
   id="svg38"
   viewbox="0 0 74.9999999997 379.42913385675"
   height="379.42913385675"
   width="74.9999999997"
   version="1.1">
  <metadata
     id="metadata44">
    <rdf:RDF>
      <cc:Work
         rdf:about="">
        <dc:format>image/svg+xml</dc:format>
        <dc:type
           rdf:resource="http://purl.org/dc/dcmitype/StillImage" />
      </cc:Work>
    </rdf:RDF>
  </metadata>
  <defs
     id="defs42" />
  <rect
     id="rect2"
     stroke-width="1"
     fill="#f0fff0"
     stroke="#009900"
     height="380.01968503784997"
     width="75.0"
     y="0"
     x="0" />
  <g
     id="text4"
     style="font-weight:bold;font-size:12px;font-family:'Proxima Nova';text-anchor:middle;fill:#009900"
     aria-label="STAGE">
    <path
       id="path46"
       style="font-weight:bold;font-size:12px;font-family:'Proxima Nova';text-anchor:middle;fill:#009900"
       d="m 19.365281,25.446802 c 0.744,0.756 1.848,1.272 3.384,1.272 2.16,0 3.204,-1.104 3.204,-2.568 0,-1.812 -1.68,-2.208 -3,-2.52 -0.864,-0.204 -1.596,-0.372 -1.596,-0.888 0,-0.48 0.408,-0.804 1.14,-0.804 0.816,0 1.68,0.276 2.328,0.876 l 0.948,-1.248 c -0.792,-0.732 -1.848,-1.116 -3.12,-1.116 -1.884,0 -3.036,1.104 -3.036,2.436 0,1.824 1.68,2.184 2.988,2.484 0.876,0.216 1.62,0.384 1.62,0.972 0,0.456 -0.456,0.888 -1.392,0.888 -1.104,0 -1.98,-0.492 -2.544,-1.08 z" />
    <path
       id="path48"
       style="font-weight:bold;font-size:12px;font-family:'Proxima Nova';text-anchor:middle;fill:#009900"
       d="m 28.854844,26.574802 h 1.716 v -6.504 h 2.328 v -1.5 h -6.384 v 1.5 h 2.34 z" />
    <path
       id="path50"
       style="font-weight:bold;font-size:12px;font-family:'Proxima Nova';text-anchor:middle;fill:#009900"
       d="m 38.737781,26.574802 h 1.944 l -3.084,-8.004 h -2.136 l -3.096,8.004 h 1.944 l 0.504,-1.356 h 3.432 z m -2.208,-6.3 1.248,3.444 h -2.496 z" />
    <path
       id="path52"
       style="font-weight:bold;font-size:12px;font-family:'Proxima Nova';text-anchor:middle;fill:#009900"
       d="m 40.638469,22.578802 c 0,2.52 1.92,4.152 4.26,4.152 1.452,0 2.592,-0.6 3.408,-1.512 v -3.072 h -3.816 v 1.488 h 2.112 v 0.96 c -0.324,0.3 -0.996,0.612 -1.704,0.612 -1.452,0 -2.508,-1.116 -2.508,-2.628 0,-1.512 1.056,-2.628 2.508,-2.628 0.852,0 1.536,0.48 1.896,1.044 l 1.416,-0.768 c -0.6,-0.948 -1.644,-1.788 -3.312,-1.788 -2.34,0 -4.26,1.608 -4.26,4.14 z" />
    <path
       id="path54"
       style="font-weight:bold;font-size:12px;font-family:'Proxima Nova';text-anchor:middle;fill:#009900"
       d="m 49.670906,26.574802 h 5.664 v -1.5 h -3.96 v -1.812 h 3.876 v -1.5 h -3.876 v -1.692 h 3.96 v -1.5 h -5.664 z" />
  </g>
  <g
     id="text6"
     style="font-weight:bold;font-size:12px;font-family:'Proxima Nova';dominant-baseline:hanging;text-anchor:middle;fill:#009900"
     aria-label="DHE">
    <path
       id="path57"
       style="font-weight:bold;font-size:12px;font-family:'Proxima Nova';dominant-baseline:hanging;text-anchor:middle;fill:#009900"
       d="m 26.092781,361.02889 h 3.156 c 2.508,0 4.248,-1.584 4.248,-3.996 0,-2.412 -1.74,-4.008 -4.248,-4.008 h -3.156 z m 1.704,-1.5 v -5.004 h 1.452 c 1.644,0 2.508,1.092 2.508,2.508 0,1.356 -0.924,2.496 -2.508,2.496 z" />
    <path
       id="path59"
       style="font-weight:bold;font-size:12px;font-family:'Proxima Nova';dominant-baseline:hanging;text-anchor:middle;fill:#009900"
       d="m 40.201781,361.02889 h 1.716 v -8.004 h -1.716 v 3.144 h -3.78 v -3.144 h -1.704 v 8.004 h 1.704 v -3.36 h 3.78 z" />
    <path
       id="path61"
       style="font-weight:bold;font-size:12px;font-family:'Proxima Nova';dominant-baseline:hanging;text-anchor:middle;fill:#009900"
       d="m 43.483406,361.02889 h 5.664 v -1.5 h -3.96 v -1.812 h 3.876 v -1.5 h -3.876 v -1.692 h 3.96 v -1.5 h -5.664 z" />
  </g>
  <g
     id="text8"
     style="font-weight:bold;font-size:9px;font-family:'Proxima Nova';text-anchor:middle;fill:#009900"
     aria-label="LEVEL">
    <path
       id="path64"
       style="font-weight:bold;font-size:9px;font-family:'Proxima Nova';text-anchor:middle;fill:#009900"
       d="m 25.051031,51.673229 h 3.816 v -1.125 h -2.538 v -4.878 h -1.278 z" />
    <path
       id="path66"
       style="font-weight:bold;font-size:9px;font-family:'Proxima Nova';text-anchor:middle;fill:#009900"
       d="m 29.761969,51.673229 h 4.248 v -1.125 h -2.97 v -1.359 h 2.907 v -1.125 h -2.907 v -1.269 h 2.97 v -1.125 h -4.248 z" />
    <path
       id="path68"
       style="font-weight:bold;font-size:9px;font-family:'Proxima Nova';text-anchor:middle;fill:#009900"
       d="m 36.700828,51.673229 h 1.602 l 2.313,-6.003 h -1.458 l -1.656,4.617 -1.665,-4.617 h -1.458 z" />
    <path
       id="path70"
       style="font-weight:bold;font-size:9px;font-family:'Proxima Nova';text-anchor:middle;fill:#009900"
       d="m 41.170172,51.673229 h 4.248 v -1.125 h -2.97 v -1.359 h 2.907 v -1.125 h -2.907 v -1.269 h 2.97 v -1.125 h -4.248 z" />
    <path
       id="path72"
       style="font-weight:bold;font-size:9px;font-family:'Proxima Nova';text-anchor:middle;fill:#009900"
       d="m 46.426031,51.673229 h 3.816 v -1.125 h -2.538 v -4.878 h -1.278 z" />
  </g>
  <g
     id="text10"
     style="font-weight:bold;font-size:9px;font-family:'Proxima Nova';text-anchor:middle;fill:#009900"
     aria-label="CURVE">
    <path
       id="path75"
       style="font-weight:bold;font-size:9px;font-family:'Proxima Nova';text-anchor:middle;fill:#009900"
       d="m 26.059594,106.40721 c 1.323,0 2.079,-0.729 2.511,-1.476 l -1.098,-0.531 c -0.252,0.495 -0.792,0.873 -1.413,0.873 -1.089,0 -1.881,-0.837 -1.881,-1.971 0,-1.134 0.792,-1.971 1.881,-1.971 0.621,0 1.161,0.387 1.413,0.873 l 1.098,-0.54 c -0.423,-0.747 -1.188,-1.467 -2.511,-1.467 -1.8,0 -3.195,1.26 -3.195,3.105 0,1.845 1.395,3.105 3.195,3.105 z" />
    <path
       id="path77"
       style="font-weight:bold;font-size:9px;font-family:'Proxima Nova';text-anchor:middle;fill:#009900"
       d="m 29.340094,103.90521 c 0,1.476 0.882,2.502 2.709,2.502 1.827,0 2.709,-1.017 2.709,-2.511 v -3.6 h -1.305 v 3.564 c 0,0.837 -0.477,1.413 -1.404,1.413 -0.927,0 -1.413,-0.576 -1.413,-1.413 v -3.564 h -1.296 z" />
    <path
       id="path79"
       style="font-weight:bold;font-size:9px;font-family:'Proxima Nova';text-anchor:middle;fill:#009900"
       d="m 39.324891,106.29921 h 1.467 l -1.35,-2.286 c 0.648,-0.153 1.314,-0.72 1.314,-1.782 0,-1.116 -0.765,-1.935 -2.016,-1.935 h -2.808 v 6.003 h 1.278 v -2.133 h 0.936 z m 0.126,-4.068 c 0,0.504 -0.387,0.81 -0.9,0.81 h -1.341 v -1.62 h 1.341 c 0.513,0 0.9,0.306 0.9,0.81 z" />
    <path
       id="path81"
       style="font-weight:bold;font-size:9px;font-family:'Proxima Nova';text-anchor:middle;fill:#009900"
       d="m 43.310203,106.29921 h 1.602 l 2.313,-6.003 h -1.458 l -1.656,4.617 -1.665,-4.617 h -1.458 z" />
    <path
       id="path83"
       style="font-weight:bold;font-size:9px;font-family:'Proxima Nova';text-anchor:middle;fill:#009900"
       d="m 47.779547,106.29921 h 4.248 v -1.125 h -2.97 v -1.359 h 2.907 v -1.125 h -2.907 v -1.269 h 2.97 v -1.125 h -4.248 z" />
  </g>
  <g
     id="text12"
     style="font-weight:bold;font-size:9px;font-family:'Proxima Nova';text-anchor:middle;fill:#009900"
     aria-label="DURATION">
    <path
       id="path86"
       style="font-weight:bold;font-size:9px;font-family:'Proxima Nova';text-anchor:middle;fill:#009900"
       d="m 15.31275,160.9252 h 2.367 c 1.881,0 3.186,-1.188 3.186,-2.997 0,-1.809 -1.305,-3.006 -3.186,-3.006 h -2.367 z m 1.278,-1.125 v -3.753 h 1.089 c 1.233,0 1.881,0.819 1.881,1.881 0,1.017 -0.693,1.872 -1.881,1.872 z" />
    <path
       id="path88"
       style="font-weight:bold;font-size:9px;font-family:'Proxima Nova';text-anchor:middle;fill:#009900"
       d="m 21.7815,158.5312 c 0,1.476 0.882,2.502 2.709,2.502 1.827,0 2.709,-1.017 2.709,-2.511 v -3.6 h -1.305 v 3.564 c 0,0.837 -0.477,1.413 -1.404,1.413 -0.927,0 -1.413,-0.576 -1.413,-1.413 v -3.564 h -1.296 z" />
    <path
       id="path90"
       style="font-weight:bold;font-size:9px;font-family:'Proxima Nova';text-anchor:middle;fill:#009900"
       d="m 31.766297,160.9252 h 1.467 l -1.35,-2.286 c 0.648,-0.153 1.314,-0.72 1.314,-1.782 0,-1.116 -0.765,-1.935 -2.016,-1.935 h -2.808 v 6.003 h 1.278 v -2.133 h 0.936 z m 0.126,-4.068 c 0,0.504 -0.387,0.81 -0.9,0.81 h -1.341 v -1.62 h 1.341 c 0.513,0 0.9,0.306 0.9,0.81 z" />
    <path
       id="path92"
       style="font-weight:bold;font-size:9px;font-family:'Proxima Nova';text-anchor:middle;fill:#009900"
       d="m 38.2965,160.9252 h 1.458 l -2.313,-6.003 h -1.602 l -2.322,6.003 h 1.458 l 0.378,-1.017 h 2.574 z m -1.656,-4.725 0.936,2.583 h -1.872 z" />
    <path
       id="path94"
       style="font-weight:bold;font-size:9px;font-family:'Proxima Nova';text-anchor:middle;fill:#009900"
       d="m 41.114766,160.9252 h 1.287 v -4.878 h 1.746 v -1.125 h -4.788 v 1.125 h 1.755 z" />
    <path
       id="path96"
       style="font-weight:bold;font-size:9px;font-family:'Proxima Nova';text-anchor:middle;fill:#009900"
       d="m 44.967047,160.9252 h 1.278 v -6.003 h -1.278 z" />
    <path
       id="path98"
       style="font-weight:bold;font-size:9px;font-family:'Proxima Nova';text-anchor:middle;fill:#009900"
       d="m 47.139984,157.9282 c 0,1.809 1.323,3.105 3.132,3.105 1.818,0 3.141,-1.296 3.141,-3.105 0,-1.809 -1.323,-3.105 -3.141,-3.105 -1.809,0 -3.132,1.296 -3.132,3.105 z m 4.959,0 c 0,1.116 -0.72,1.971 -1.827,1.971 -1.107,0 -1.818,-0.855 -1.818,-1.971 0,-1.125 0.711,-1.971 1.818,-1.971 1.107,0 1.827,0.846 1.827,1.971 z" />
    <path
       id="path100"
       style="font-weight:bold;font-size:9px;font-family:'Proxima Nova';text-anchor:middle;fill:#009900"
       d="m 58.458609,160.9252 h 1.233 v -6.003 h -1.278 v 3.771 l -2.781,-3.771 h -1.314 v 6.003 h 1.278 v -3.915 z" />
  </g>
  <rect
     id="rect14"
     fill="#f0fff0"
     stroke="#009900"
     ry="3.0"
     rx="3.0"
     stroke-width="1.033464566925"
     height="39.361548556245"
     width="31.742125984125003"
     y="218.63549868681753"
     x="3.863179133842814" />
  <g
     id="text16"
     style="font-weight:bold;font-size:7px;font-family:'Proxima Nova';text-anchor:middle;fill:#009900"
     aria-label="DEFER">
    <path
       id="path103"
       style="font-weight:bold;font-size:7px;font-family:'Proxima Nova';text-anchor:middle;fill:#009900"
       d="m 9.3476087,226.77165 h 1.8410003 c 1.463,0 2.478,-0.924 2.478,-2.331 0,-1.407 -1.015,-2.338 -2.478,-2.338 H 9.3476087 Z m 0.9940003,-0.875 v -2.919 h 0.847 c 0.959,0 1.463,0.637 1.463,1.463 0,0.791 -0.539,1.456 -1.463,1.456 z" />
    <path
       id="path105"
       style="font-weight:bold;font-size:7px;font-family:'Proxima Nova';text-anchor:middle;fill:#009900"
       d="m 14.378859,226.77165 h 3.304 v -0.875 h -2.31 v -1.057 h 2.261 v -0.875 h -2.261 v -0.987 h 2.31 v -0.875 h -3.304 z" />
    <path
       id="path107"
       style="font-weight:bold;font-size:7px;font-family:'Proxima Nova';text-anchor:middle;fill:#009900"
       d="m 18.466749,226.77165 h 0.994 v -1.932 h 2.261 v -0.875 h -2.261 v -0.987 h 2.31 v -0.875 h -3.304 z" />
    <path
       id="path109"
       style="font-weight:bold;font-size:7px;font-family:'Proxima Nova';text-anchor:middle;fill:#009900"
       d="m 22.458937,226.77165 h 3.304 v -0.875 h -2.31 v -1.057 h 2.261 v -0.875 h -2.261 v -0.987 h 2.31 v -0.875 h -3.304 z" />
    <path
       id="path111"
       style="font-weight:bold;font-size:7px;font-family:'Proxima Nova';text-anchor:middle;fill:#009900"
       d="m 29.185827,226.77165 h 1.141 l -1.05,-1.778 c 0.504,-0.119 1.022,-0.56 1.022,-1.386 0,-0.868 -0.595,-1.505 -1.568,-1.505 h -2.184 v 4.669 h 0.994 v -1.659 h 0.728 z m 0.098,-3.164 c 0,0.392 -0.301,0.63 -0.7,0.63 h -1.043 v -1.26 h 1.043 c 0.399,0 0.7,0.238 0.7,0.63 z" />
  </g>
  <rect
     id="rect18"
     fill="#009900"
     stroke="#009900"
     ry="3.0"
     rx="3.0"
     stroke-width="1.033464566925"
     height="39.361548556245"
     width="31.742125984124996"
     y="218.63549868681753"
     x="39.39469488173219" />
  <g
     id="text20"
     style="font-weight:bold;font-size:7px;font-family:'Proxima Nova';text-anchor:middle;fill:#f0fff0"
     aria-label="ACTIVE">
    <path
       id="path114"
       style="font-weight:bold;font-size:7px;font-family:'Proxima Nova';text-anchor:middle;fill:#f0fff0"
       d="m 46.834477,226.77165 h 1.134 l -1.799,-4.669 h -1.246 l -1.806,4.669 h 1.134 l 0.294,-0.791 h 2.002 z m -1.288,-3.675 0.728,2.009 h -1.456 z" />
    <path
       id="path116"
       style="font-weight:bold;font-size:7px;font-family:'Proxima Nova';text-anchor:middle;fill:#f0fff0"
       d="m 50.428212,226.85565 c 1.029,0 1.617,-0.567 1.953,-1.148 l -0.854,-0.413 c -0.196,0.385 -0.616,0.679 -1.099,0.679 -0.847,0 -1.463,-0.651 -1.463,-1.533 0,-0.882 0.616,-1.533 1.463,-1.533 0.483,0 0.903,0.301 1.099,0.679 l 0.854,-0.42 c -0.329,-0.581 -0.924,-1.141 -1.953,-1.141 -1.4,0 -2.485,0.98 -2.485,2.415 0,1.435 1.085,2.415 2.485,2.415 z" />
    <path
       id="path118"
       style="font-weight:bold;font-size:7px;font-family:'Proxima Nova';text-anchor:middle;fill:#f0fff0"
       d="m 54.057712,226.77165 h 1.001 v -3.794 h 1.358 v -0.875 h -3.724 v 0.875 h 1.365 z" />
    <path
       id="path120"
       style="font-weight:bold;font-size:7px;font-family:'Proxima Nova';text-anchor:middle;fill:#f0fff0"
       d="m 57.05393,226.77165 h 0.994 v -4.669 h -0.994 z" />
    <path
       id="path122"
       style="font-weight:bold;font-size:7px;font-family:'Proxima Nova';text-anchor:middle;fill:#f0fff0"
       d="m 60.276993,226.77165 h 1.246 l 1.799,-4.669 h -1.134 l -1.288,3.591 -1.295,-3.591 h -1.134 z" />
    <path
       id="path124"
       style="font-weight:bold;font-size:7px;font-family:'Proxima Nova';text-anchor:middle;fill:#f0fff0"
       d="m 63.753149,226.77165 h 3.304 v -0.875 h -2.31 v -1.057 h 2.261 v -0.875 h -2.261 v -0.987 h 2.31 v -0.875 h -3.304 z" />
  </g>
  <rect
     id="rect22"
     fill="#f0fff0"
     stroke="#009900"
     ry="3.0"
     rx="3.0"
     stroke-width="1.033464566925"
     height="39.361548556245"
     width="31.742125984125003"
     y="262.9268372693175"
     x="3.863179133842814" />
  <g
     id="text24"
     style="font-weight:bold;font-size:7px;font-family:'Proxima Nova';text-anchor:middle;fill:#009900"
     aria-label="TRIG">
    <path
       id="path127"
       style="font-weight:bold;font-size:7px;font-family:'Proxima Nova';text-anchor:middle;fill:#009900"
       d="m 13.508616,271.06299 h 1.001 v -3.794 h 1.358 v -0.875 h -3.724 v 0.875 h 1.365 z" />
    <path
       id="path129"
       style="font-weight:bold;font-size:7px;font-family:'Proxima Nova';text-anchor:middle;fill:#009900"
       d="m 19.143835,271.06299 h 1.141 l -1.05,-1.778 c 0.504,-0.119 1.022,-0.56 1.022,-1.386 0,-0.868 -0.595,-1.505 -1.568,-1.505 h -2.184 v 4.669 h 0.994 v -1.659 h 0.728 z m 0.098,-3.164 c 0,0.392 -0.301,0.63 -0.7,0.63 h -1.043 v -1.26 h 1.043 c 0.399,0 0.7,0.238 0.7,0.63 z" />
    <path
       id="path131"
       style="font-weight:bold;font-size:7px;font-family:'Proxima Nova';text-anchor:middle;fill:#009900"
       d="m 21.002882,271.06299 h 0.994 v -4.669 h -0.994 z" />
    <path
       id="path133"
       style="font-weight:bold;font-size:7px;font-family:'Proxima Nova';text-anchor:middle;fill:#009900"
       d="m 22.692945,268.73199 c 0,1.47 1.12,2.422 2.485,2.422 0.847,0 1.512,-0.35 1.988,-0.882 v -1.792 h -2.226 v 0.868 h 1.232 v 0.56 c -0.189,0.175 -0.581,0.357 -0.994,0.357 -0.847,0 -1.463,-0.651 -1.463,-1.533 0,-0.882 0.616,-1.533 1.463,-1.533 0.497,0 0.896,0.28 1.106,0.609 l 0.826,-0.448 c -0.35,-0.553 -0.959,-1.043 -1.932,-1.043 -1.365,0 -2.485,0.938 -2.485,2.415 z" />
  </g>
  <rect
     id="rect26"
     fill="#009900"
     stroke="#009900"
     ry="3.0"
     rx="3.0"
     stroke-width="1.033464566925"
     height="39.361548556245"
     width="31.742125984124996"
     y="262.9268372693175"
     x="39.39469488173219" />
  <g
     id="text28"
     style="font-weight:bold;font-size:7px;font-family:'Proxima Nova';text-anchor:middle;fill:#f0fff0"
     aria-label="EOC">
    <path
       id="path136"
       style="font-weight:bold;font-size:7px;font-family:'Proxima Nova';text-anchor:middle;fill:#f0fff0"
       d="m 48.597876,271.06299 h 3.304 v -0.875 h -2.31 v -1.057 h 2.261 v -0.875 h -2.261 v -0.987 h 2.31 v -0.875 h -3.304 z" />
    <path
       id="path138"
       style="font-weight:bold;font-size:7px;font-family:'Proxima Nova';text-anchor:middle;fill:#f0fff0"
       d="m 52.461766,268.73199 c 0,1.407 1.029,2.415 2.436,2.415 1.414,0 2.443,-1.008 2.443,-2.415 0,-1.407 -1.029,-2.415 -2.443,-2.415 -1.407,0 -2.436,1.008 -2.436,2.415 z m 3.857,0 c 0,0.868 -0.56,1.533 -1.421,1.533 -0.861,0 -1.414,-0.665 -1.414,-1.533 0,-0.875 0.553,-1.533 1.414,-1.533 0.861,0 1.421,0.658 1.421,1.533 z" />
    <path
       id="path140"
       style="font-weight:bold;font-size:7px;font-family:'Proxima Nova';text-anchor:middle;fill:#f0fff0"
       d="m 60.306141,271.14699 c 1.029,0 1.617,-0.567 1.953,-1.148 l -0.854,-0.413 c -0.196,0.385 -0.616,0.679 -1.099,0.679 -0.847,0 -1.463,-0.651 -1.463,-1.533 0,-0.882 0.616,-1.533 1.463,-1.533 0.483,0 0.903,0.301 1.099,0.679 l 0.854,-0.42 c -0.329,-0.581 -0.924,-1.141 -1.953,-1.141 -1.4,0 -2.485,0.98 -2.485,2.415 0,1.435 1.085,2.415 2.485,2.415 z" />
  </g>
  <rect
     id="rect30"
     fill="#f0fff0"
     stroke="#009900"
     ry="3.0"
     rx="3.0"
     stroke-width="1.033464566925"
     height="39.361548556245"
     width="31.742125984125003"
     y="307.21817585181753"
     x="3.863179133842814" />
  <g
     id="text32"
     style="font-weight:bold;font-size:7px;font-family:'Proxima Nova';text-anchor:middle;fill:#009900"
     aria-label="IN">
    <path
       id="path143"
       style="font-weight:bold;font-size:7px;font-family:'Proxima Nova';text-anchor:middle;fill:#009900"
       d="m 16.689406,315.35434 h 0.994 v -4.669 h -0.994 z" />
    <path
       id="path145"
       style="font-weight:bold;font-size:7px;font-family:'Proxima Nova';text-anchor:middle;fill:#009900"
       d="m 21.823468,315.35434 h 0.959 v -4.669 h -0.994 v 2.933 l -2.163,-2.933 h -1.022 v 4.669 h 0.994 v -3.045 z" />
  </g>
  <rect
     id="rect34"
     fill="#009900"
     stroke="#009900"
     ry="3.0"
     rx="3.0"
     stroke-width="1.033464566925"
     height="39.361548556245"
     width="31.742125984124996"
     y="307.21817585181753"
     x="39.39469488173219" />
  <g
     id="text36"
     style="font-weight:bold;font-size:7px;font-family:'Proxima Nova';text-anchor:middle;fill:#f0fff0"
     aria-label="OUT">
    <path
       id="path148"
       style="font-weight:bold;font-size:7px;font-family:'Proxima Nova';text-anchor:middle;fill:#f0fff0"
       d="m 48.223485,313.02334 c 0,1.407 1.029,2.415 2.436,2.415 1.414,0 2.443,-1.008 2.443,-2.415 0,-1.407 -1.029,-2.415 -2.443,-2.415 -1.407,0 -2.436,1.008 -2.436,2.415 z m 3.857,0 c 0,0.868 -0.56,1.533 -1.421,1.533 -0.861,0 -1.414,-0.665 -1.414,-1.533 0,-0.875 0.553,-1.533 1.414,-1.533 0.861,0 1.421,0.658 1.421,1.533 z" />
    <path
       id="path150"
       style="font-weight:bold;font-size:7px;font-family:'Proxima Nova';text-anchor:middle;fill:#f0fff0"
       d="m 53.80686,313.49234 c 0,1.148 0.686,1.946 2.107,1.946 1.421,0 2.107,-0.791 2.107,-1.953 v -2.8 h -1.015 v 2.772 c 0,0.651 -0.371,1.099 -1.092,1.099 -0.721,0 -1.099,-0.448 -1.099,-1.099 v -2.772 h -1.008 z" />
    <path
       id="path152"
       style="font-weight:bold;font-size:7px;font-family:'Proxima Nova';text-anchor:middle;fill:#f0fff0"
       d="m 60.011813,315.35434 h 1.001 v -3.794 h 1.358 v -0.875 h -3.724 v 0.875 h 1.365 z" />
  </g>
</svg>
