<svg
  version="1.1"
  xmlns="http://www.w3.org/2000/svg"
  xmlns:xlink="http://www.w3.org/1999/xlink"
  width="300"
  height="380"
  viewBox="0 0 300 380"
>
  <style>
    text {
      fill: #333;
      font-family: 'Roboto', sans-serif;
      font-weight: bold;
    }
    text.title {
      font-family: 'Comfortaa', sans-serif;
      font-weight: normal;
    }
    text.brand {
      font-family: 'Audiowide', sans-serif;
      font-weight: bold;
    }
  </style>

  <defs>
    <symbol id="knob" viewBox="0 0 38px 38px">
      <g transform="translate(19 19)">
        <polyline points="-5,0 5,0" stroke-width="1" stroke="#00f" />
        <polyline points="0,-5 0,5" stroke-width="1" stroke="#00f" />
        <circle cx="0" cy="0" r="18" stroke-width="1" stroke="#00f" fill="none" />
      </g>
    </symbol>

    <symbol id="knob-medium" viewBox="0 0 26px 26px">
      <g transform="translate(13 13)">
        <polyline points="-3,0 3,0" stroke-width="1" stroke="#00f" />
        <polyline points="0,-3 0,3" stroke-width="1" stroke="#00f" />
        <circle cx="0" cy="0" r="12" stroke-width="1" stroke="#00f" fill="none" />
      </g>
    </symbol>

    <symbol id="knob-smallest" viewBox="0 0 16px 16px">
      <g transform="translate(8 8)">
        <polyline points="-3,0 3,0" stroke-width="1" stroke="#00f" />
        <polyline points="0,-3 0,3" stroke-width="1" stroke="#00f" />
        <circle r="7.5" stroke-width="1" stroke="#00f" fill="none" />
      </g>
    </symbol>

    <symbol id="knobguide-phase" viewBox="0 0 40px 40px">
      <!-- <rect width="40" height="40" fill="#fafafa" opacity="0.2" /> -->
      <g transform="translate(20 20)">
        <g transform="rotate(-240) translate(10 0)">
          <!-- <polyline points="0,0 3,0" stroke-width="0.3" stroke="#333" /> -->
          <!-- <text font-size="5.0pt" transform="translate(2.5 0) rotate(240) translate(-1.5 2.2)">-</text> -->
        </g>
        <g transform="rotate(-90) translate(10 0)">
          <polyline points="0,0 6,0" stroke-width="1" stroke="#333" />
        </g>
        <g transform="rotate(60) translate(10 0)">
          <!-- <polyline points="0,0 3,0" stroke-width="0.3" stroke="#333" /> -->
          <!-- <text font-size="5.0pt" transform="translate(2.5 0) rotate(-60) translate(-1.9 2.2)">+</text> -->
        </g>
        <path d="M 0 -12.5 A 12.5 12.5 0 0 1 12.5 0" stroke="#333" stroke-width="0.5" stroke-linecap="round" fill="none" transform="rotate(20)" />
        <path d="M 0 -12.5 A 12.5 12.5 0 0 1 12.5 0" stroke="#333" stroke-width="0.5" stroke-linecap="round" fill="none" transform="rotate(43)" />
        <path d="M 0 -12.5 A 12.5 12.5 0 0 0 -12.5 0" stroke="#333" stroke-width="0.5" stroke-linecap="round" fill="none" transform="rotate(-20)" />
        <path d="M 0 -12.5 A 12.5 12.5 0 0 0 -12.5 0" stroke="#333" stroke-width="0.5" stroke-linecap="round" fill="none" transform="rotate(-43)" />
      </g>
    </symbol>

    <symbol id="input" viewBox="0 0 24px 24px">
      <g transform="translate(12 12)">
        <circle cx="0" cy="0" r="5" stroke-width="1" stroke="#0f0" fill="#0f0" />
        <circle cx="0" cy="0" r="10.5" stroke-width="3" stroke="#0f0" fill="none" />
      </g>
    </symbol>

    <symbol id="output" viewBox="0 0 24px 24px">
      <g transform="translate(12 12)">
        <circle cx="0" cy="0" r="5" stroke-width="1" stroke="#f00" fill="#f00" />
        <circle cx="0" cy="0" r="10.5" stroke-width="3" stroke="#f00" fill="none" />
      </g>
    </symbol>

    <symbol id="button-small" viewBox="0 0 9px 9px">
      <g transform="translate(4.5 4.5)">
        <circle r="4" stroke-width="1" stroke="#00f" fill="#f00" />
      </g>
    </symbol>

    <symbol id="light" viewBox="0 0 1.1px 1.1px">
      <rect width="3.2" height="3.2" fill="#0f0" />
    </symbol>
  </defs>

  <rect width="100%" height="100%" fill="#ddd" />
  <polyline points="1,1 299,1 299,379 1,379 1,1" stroke="#e4e4e4" stroke-width="0.5" fill="none" />
  <polyline points="0.5,0.5 299.5,0.5 299.5,379.5 0.5,379.5 0.5,0.5" stroke="#ebebeb" stroke-width="0.8" fill="none" />
  <polyline points="0,0 300,0 300,380 0,380 0,0" stroke="#f2f2f2" stroke-width="1" fill="none" />

  <!-- <rect width="125" height="20" fill="#0f0" transform="translate(0 0)" /> -->
  <!-- <rect width="125" height="20" fill="#0f0" transform="translate(175 0)" /> -->

  <text class="title" x="129" y="19" font-size="12pt" letter-spacing="4px">8FO</text>
  <g transform="translate(110 374)">
    <text class="brand" font-size="8pt" letter-spacing="2px">BOGAUDIO</text>
    <rect width="3.0" height="3" fill="#ddd" transform="translate(24 -5)" />
  </g>

  <g transform="translate(10 50)">
    <g transform="translate(10 0)">
      <!-- <polyline points="0,19 70,19" stroke="#0f0" stroke-width="1" fill="none" /> -->
      <text font-size="8pt" letter-spacing="2px" transform="translate(8 57) rotate(270)">FREQUENCY</text>
      <use id="FREQUENCY_PARAM" xlink:href="#knob" transform="translate(20 0)" />
    </g>
    <g transform="translate(90 0)">
      <!-- <polyline points="0,19 68,19" stroke="#0f0" stroke-width="1" fill="none" /> -->
      <text font-size="8pt" letter-spacing="2px" transform="translate(8 40) rotate(270)">WAVE</text>
      <use id="WAVE_PARAM" xlink:href="#knob" transform="translate(20 0)" />
    </g>
  </g>

  <g transform="translate(35 80)">
    <g transform="translate(0 17.5)">
      <use id="SLOW_LIGHT" xlink:href="#light" transform="translate(0 0)" />
      <text font-size="7pt" letter-spacing="2px" transform="translate(7 5)">SLOW</text>
    </g>
    <use id="SLOW_PARAM" xlink:href="#button-small" transform="translate(44 14.5)" />
  </g>

  <g transform="translate(10 130)">
    <g transform="translate(10 0)">
      <!-- <polyline points="0,19 70,19" stroke="#0f0" stroke-width="1" fill="none" /> -->
      <text font-size="8pt" letter-spacing="2px" transform="translate(8 50) rotate(270)">SAM/PWM</text>
      <use id="SAMPLE_PWM_PARAM" xlink:href="#knob" transform="translate(20 0)" />
    </g>
    <!-- <g transform="translate(90 0)"> -->
      <!-- <polyline points="0,19 70,19" stroke="#0f0" stroke-width="1" fill="none" /> -->
      <!-- <text font-size="8pt" letter-spacing="2px" transform="translate(8 40) rotate(270)">DECAY</text> -->
      <!-- <use id="DECAY_PARAM" xlink:href="#knob" transform="translate(20 0)" /> -->
    <!-- </g> -->
  </g>

  <g transform="translate(0 200)">
    <g transform="translate(10 0)">
      <rect width="30" height="40" rx="5" fill="#fafafa" />
      <use id="SAMPLE_PWM_INPUT" xlink:href="#input" transform="translate(3 3)" />
      <text font-size="6pt" letter-spacing="1px" transform="translate(11.5 36)">S</text>
    </g>
    <g transform="translate(50 0)">
      <!-- <rect width="30" height="40" rx="5" fill="#fafafa" /> -->
      <!-- <use id="WIDTH_INPUT" xlink:href="#input" transform="translate(3 3)" /> -->
      <!-- <text font-size="6pt" letter-spacing="2px" transform="translate(11.5 36)">Y</text> -->
    </g>
  </g>

  <g transform="translate(180 20)">
    <g transform="translate(3 4)">
      <g transform="translate(0 0)">
        <use id="PHASE7_PARAM" xlink:href="#knob-smallest" transform="translate(4 4)" />
      </g>
      <g transform="translate(0 40)">
        <use id="PHASE6_PARAM" xlink:href="#knob-smallest" transform="translate(4 4)" />
      </g>
      <g transform="translate(0 80)">
        <use id="PHASE5_PARAM" xlink:href="#knob-smallest" transform="translate(4 4)" />
      </g>
      <g transform="translate(0 120)">
        <use id="PHASE4_PARAM" xlink:href="#knob-smallest" transform="translate(4 4)" />
      </g>

      <g transform="translate(0 160)">
        <use id="PHASE3_PARAM" xlink:href="#knob-smallest" transform="translate(4 4)" />
      </g>
      <g transform="translate(0 200)">
        <use id="PHASE2_PARAM" xlink:href="#knob-smallest" transform="translate(4 4)" />
      </g>
      <g transform="translate(0 240)">
        <use id="PHASE1_PARAM" xlink:href="#knob-smallest" transform="translate(4 4)" />
      </g>
      <g transform="translate(0 280)">
        <use id="PHASE0_PARAM" xlink:href="#knob-smallest" transform="translate(4 4)" />
      </g>
    </g>
  </g>

  <g transform="translate(183 24)">
    <use xlink:href="#knobguide-phase" transform="translate(12 12) rotate(-225) translate(-20 -20)" />
  </g>
  <g transform="translate(183 64)">
    <use xlink:href="#knobguide-phase" transform="translate(12 12) rotate(-180) translate(-20 -20)" />
  </g>
  <g transform="translate(183 104)">
    <use xlink:href="#knobguide-phase" transform="translate(12 12) rotate(-135) translate(-20 -20)" />
  </g>
  <g transform="translate(183 144)">
    <use xlink:href="#knobguide-phase" transform="translate(12 12) rotate(-90) translate(-20 -20)" />
  </g>

  <g transform="translate(183 184)">
    <use xlink:href="#knobguide-phase" transform="translate(12 12) rotate(-45) translate(-20 -20)" />
  </g>
  <g transform="translate(183 224)">
    <use xlink:href="#knobguide-phase" transform="translate(12 12) rotate(0) translate(-20 -20)" />
  </g>
  <g transform="translate(183 264)">
    <use xlink:href="#knobguide-phase" transform="translate(12 12) rotate(45) translate(-20 -20)" />
  </g>
  <g transform="translate(183 304)">
    <use xlink:href="#knobguide-phase" transform="translate(12 12) rotate(90) translate(-20 -20)" />
  </g>

  <g transform="translate(220 20)">
    <rect width="30" height="328" rx="5" fill="#fafafa" />
    <g transform="translate(3 4)">
      <use id="PHASE7_INPUT" xlink:href="#input" transform="translate(0 0)" />
      <use id="PHASE6_INPUT" xlink:href="#input" transform="translate(0 40)" />
      <use id="PHASE5_INPUT" xlink:href="#input" transform="translate(0 80)" />
      <use id="PHASE4_INPUT" xlink:href="#input" transform="translate(0 120)" />

      <use id="PHASE3_INPUT" xlink:href="#input" transform="translate(0 160)" />
      <use id="PHASE2_INPUT" xlink:href="#input" transform="translate(0 200)" />
      <use id="PHASE1_INPUT" xlink:href="#input" transform="translate(0 240)" />
      <use id="PHASE0_INPUT" xlink:href="#input" transform="translate(0 280)" />
    </g>
    <text font-size="6pt" letter-spacing="2px" transform="translate(8 320)">CV</text>
  </g>

  <g transform="translate(260 20)">
    <rect width="30" height="328" rx="5" fill="#bbb" />
    <g transform="translate(3 4)">
      <use id="PHASE7_OUTPUT" xlink:href="#output" transform="translate(0 0)" />
      <use id="PHASE6_OUTPUT" xlink:href="#output" transform="translate(0 40)" />
      <use id="PHASE5_OUTPUT" xlink:href="#output" transform="translate(0 80)" />
      <use id="PHASE4_OUTPUT" xlink:href="#output" transform="translate(0 120)" />

      <use id="PHASE3_OUTPUT" xlink:href="#output" transform="translate(0 160)" />
      <use id="PHASE2_OUTPUT" xlink:href="#output" transform="translate(0 200)" />
      <use id="PHASE1_OUTPUT" xlink:href="#output" transform="translate(0 240)" />
      <use id="PHASE0_OUTPUT" xlink:href="#output" transform="translate(0 280)" />
    </g>
    <text font-size="6pt" letter-spacing="2px" transform="translate(5 320)">OUT</text>
  </g>

  <!-- <polyline points="0,0 300,0" stroke="#0f0" stroke-width="1" fill="none" transform="translate(0 339)" /> -->
  <g transform="translate(0 320)">
    <g transform="translate(10 0)">
      <rect width="30" height="40" rx="5" fill="#fafafa" />
      <use id="PITCH_INPUT" xlink:href="#input" transform="translate(3 3)" />
      <text font-size="6pt" letter-spacing="1px" transform="translate(1 36)">V/OCT</text>
    </g>
    <g transform="translate(50 0)">
      <rect width="30" height="40" rx="5" fill="#fafafa" />
      <use id="RESET_INPUT" xlink:href="#input" transform="translate(3 3)" />
      <text font-size="6pt" letter-spacing="2px" transform="translate(5.5 36)">RST</text>
    </g>
  </g>
</svg>
