<?xml version="1.0" encoding="UTF-8" standalone="no"?>
<!-- Created with Inkscape (http://www.inkscape.org/) -->

<svg
   xmlns:dc="http://purl.org/dc/elements/1.1/"
   xmlns:cc="http://creativecommons.org/ns#"
   xmlns:rdf="http://www.w3.org/1999/02/22-rdf-syntax-ns#"
   xmlns:svg="http://www.w3.org/2000/svg"
   xmlns="http://www.w3.org/2000/svg"
   xmlns:sodipodi="http://sodipodi.sourceforge.net/DTD/sodipodi-0.dtd"
   xmlns:inkscape="http://www.inkscape.org/namespaces/inkscape"
   width="285"
   height="380"
   viewBox="0 0 285 380.00001"
   id="svg14650"
   version="1.1"
   inkscape:version="0.92.2 (5c3e80d, 2017-08-06)"
   sodipodi:docname="MentalPatchMatrix.svg">
  <defs
     id="defs14652" />
  <sodipodi:namedview
     id="base"
     pagecolor="#ffffff"
     bordercolor="#666666"
     borderopacity="1.0"
     inkscape:pageopacity="0.0"
     inkscape:pageshadow="2"
     inkscape:zoom="5.265625"
     inkscape:cx="-56.308079"
     inkscape:cy="210.36127"
     inkscape:document-units="px"
     inkscape:current-layer="layer1"
     showgrid="true"
     units="px"
     objecttolerance="2"
     inkscape:window-width="1600"
     inkscape:window-height="853"
     inkscape:window-x="1916"
     inkscape:window-y="-4"
     inkscape:window-maximized="1">
    <inkscape:grid
       type="xygrid"
       id="grid15198"
       spacingx="4.9999999"
       spacingy="5.0000001"
       empspacing="3" />
  </sodipodi:namedview>
  <metadata
     id="metadata14655">
    <rdf:RDF>
      <cc:Work
         rdf:about="">
        <dc:format>image/svg+xml</dc:format>
        <dc:type
           rdf:resource="http://purl.org/dc/dcmitype/StillImage" />
        <dc:title />
      </cc:Work>
    </rdf:RDF>
  </metadata>
  <g
     inkscape:label="Layer 1"
     inkscape:groupmode="layer"
     id="layer1"
     transform="translate(0,-672.36216)">
    <rect
       style="fill:#ffd558;fill-opacity:1;stroke:none;stroke-width:3.89763784;stroke-linejoin:round;stroke-miterlimit:4;stroke-dasharray:none;stroke-opacity:1"
       id="rect15200"
       width="285"
       height="380"
       x="0"
       y="672.36218" />
    <path
       inkscape:connector-curvature="0"
       id="path4854"
       style="font-style:normal;font-variant:normal;font-weight:normal;font-stretch:normal;font-size:medium;line-height:125%;font-family:LilyUPC;-inkscape-font-specification:'LilyUPC, Normal';text-align:start;letter-spacing:0px;word-spacing:0px;writing-mode:lr-tb;text-anchor:start;fill:#000000;fill-opacity:1;stroke:none;stroke-width:1px;stroke-linecap:butt;stroke-linejoin:miter;stroke-opacity:1"
       d="m 98.046143,677.89636 q 0,0.8606 -0.347901,1.32569 -0.344238,0.46142 -0.893555,0.61157 -0.545654,0.15014 -1.296386,0.15014 h -1.439209 v 2.87842 h -1.589356 v -6.99096 h 3.21167 q 1.102295,0 1.71753,0.44311 0.615234,0.44312 0.637207,1.58203 z m -1.501465,-0.0439 q -0.01099,-0.53101 -0.296631,-0.82032 -0.281983,-0.2893 -0.739746,-0.2893 h -1.439209 v 2.38403 h 1.395263 q 0.534668,0 0.805665,-0.27466 0.274658,-0.27466 0.274658,-0.99975 z" />
    <path
       inkscape:connector-curvature="0"
       id="path4856"
       style="font-style:normal;font-variant:normal;font-weight:normal;font-stretch:normal;font-size:medium;line-height:125%;font-family:LilyUPC;-inkscape-font-specification:'LilyUPC, Normal';text-align:start;letter-spacing:0px;word-spacing:0px;writing-mode:lr-tb;text-anchor:start;fill:#000000;fill-opacity:1;stroke:none;stroke-width:1px;stroke-linecap:butt;stroke-linejoin:miter;stroke-opacity:1"
       d="m 101.42261,682.86218 v -0.52368 q -0.0586,0.1355 -0.39551,0.33692 -0.33325,0.20141 -1.135254,0.20141 -0.684815,-0.0256 -1.138916,-0.35156 -0.454102,-0.32593 -0.465088,-1.02905 0,-0.7544 0.53833,-1.1316 0.541992,-0.37719 1.622318,-0.45776 0.49804,-0.0403 0.76538,-0.25269 0.27099,-0.21606 0.27099,-0.48339 0,-0.271 -0.24902,-0.46509 -0.24536,-0.19409 -0.6665,-0.19409 -0.867924,0 -1.351322,0.32226 -0.479737,0.31861 -0.629883,0.53467 l 0.20874,-0.99243 q 0,-0.0256 0.227051,-0.15747 0.230713,-0.13184 0.640869,-0.24536 0.410155,-0.11719 0.977785,-0.12085 1.15722,0 1.67358,0.3955 0.51636,0.39185 0.51636,1.02906 v 3.5852 z m -0.68848,-0.78003 q 0.68848,-0.18676 0.68848,-0.60058 v -1.13892 q -0.004,0.011 -0.0513,0.1062 -0.0476,0.0916 -0.21607,0.18311 -0.16845,0.0915 -0.51269,0.13183 -0.58594,0.0806 -0.893557,0.26368 -0.307617,0.17944 -0.307617,0.61889 0.04761,0.50904 0.812984,0.50904 0.23072,0 0.47974,-0.0733 z" />
    <path
       inkscape:connector-curvature="0"
       id="path4858"
       style="font-style:normal;font-variant:normal;font-weight:normal;font-stretch:normal;font-size:medium;line-height:125%;font-family:LilyUPC;-inkscape-font-specification:'LilyUPC, Normal';text-align:start;letter-spacing:0px;word-spacing:0px;writing-mode:lr-tb;text-anchor:start;fill:#000000;fill-opacity:1;stroke:none;stroke-width:1px;stroke-linecap:butt;stroke-linejoin:miter;stroke-opacity:1"
       d="m 105.51685,678.49695 v 2.89673 q 0,0.43213 0.25634,0.61523 0.18311,0.14649 0.69214,0.14649 v 0.70678 q -0.0439,0.004 -0.15747,0.007 -0.11719,0.007 -0.26367,0.007 -0.96314,0 -1.40991,-0.32959 -0.52735,-0.35889 -0.52735,-1.21582 v -2.83447 h -0.94482 v -0.62988 h 0.94482 v -1.99585 h 1.40992 v 1.99585 h 0.94848 v 0.62988 h -0.94848 z" />
    <path
       inkscape:connector-curvature="0"
       id="path4860"
       style="font-style:normal;font-variant:normal;font-weight:normal;font-stretch:normal;font-size:medium;line-height:125%;font-family:LilyUPC;-inkscape-font-specification:'LilyUPC, Normal';text-align:start;letter-spacing:0px;word-spacing:0px;writing-mode:lr-tb;text-anchor:start;fill:#000000;fill-opacity:1;stroke:none;stroke-width:1px;stroke-linecap:butt;stroke-linejoin:miter;stroke-opacity:1"
       d="m 110.6731,682.65344 q 0,0.0293 -0.42481,0.11719 -0.42114,0.0879 -1.07666,0.1062 -0.91553,0 -1.45019,-0.25635 -0.53467,-0.25634 -0.77271,-0.83496 -0.23437,-0.58227 -0.23437,-1.59302 0.0293,-0.80566 0.25634,-1.31835 0.23072,-0.5127 0.72876,-0.76539 0.50171,-0.25634 1.33667,-0.25634 0.53101,0.011 0.95215,0.0915 0.42481,0.0806 0.60791,0.13184 l 0.15015,0.72143 q -0.1355,-0.0696 -0.49805,-0.17212 -0.36255,-0.10254 -0.91186,-0.11352 -0.72144,0 -0.95948,0.47607 -0.23803,0.47608 -0.23803,1.20483 0,0.87891 0.19409,1.43189 0.19775,0.54932 0.80932,0.59326 0.48706,0 0.83863,-0.0842 0.35156,-0.0842 0.56396,-0.1831 0.21607,-0.10254 0.21607,-0.12451 l -0.0879,0.82763 z" />
    <path
       inkscape:connector-curvature="0"
       id="path4862"
       style="font-style:normal;font-variant:normal;font-weight:normal;font-stretch:normal;font-size:medium;line-height:125%;font-family:LilyUPC;-inkscape-font-specification:'LilyUPC, Normal';text-align:start;letter-spacing:0px;word-spacing:0px;writing-mode:lr-tb;text-anchor:start;fill:#000000;fill-opacity:1;stroke:none;stroke-width:1px;stroke-linecap:butt;stroke-linejoin:miter;stroke-opacity:1"
       d="m 111.21143,682.86218 v -6.99096 h 1.40991 v 2.31079 q 0,0 0,0 0,-0.004 0.16845,-0.0952 0.17579,-0.0915 0.46143,-0.16846 0.28931,-0.0769 0.68848,-0.0806 0.5603,0 0.92285,0.16846 0.36255,0.16479 0.52368,0.43212 0.16113,0.26734 0.16113,0.56763 v 3.8562 h -1.05102 v -3.5852 q 0,-0.45044 -0.2124,-0.61524 -0.21241,-0.16479 -0.71778,-0.16479 -0.2893,0.0147 -0.50171,0.12451 -0.20874,0.1062 -0.32592,0.22705 -0.11719,0.11719 -0.11719,0.14282 v 3.87085 h -1.40991 z" />
    <path
       inkscape:connector-curvature="0"
       id="path4864"
       style="font-style:normal;font-variant:normal;font-weight:normal;font-stretch:normal;font-size:medium;line-height:125%;font-family:LilyUPC;-inkscape-font-specification:'LilyUPC, Normal';text-align:start;letter-spacing:0px;word-spacing:0px;writing-mode:lr-tb;text-anchor:start;fill:#000000;fill-opacity:1;stroke:none;stroke-width:1px;stroke-linecap:butt;stroke-linejoin:miter;stroke-opacity:1"
       d="m 125.01758,678.18201 -1.96655,4.81567 -2.0398,-4.81567 v 4.68017 h -1.12427 v -6.99096 h 1.7688 l 1.63696,3.66211 1.57471,-3.66211 h 1.7395 v 6.99096 h -1.58935 z" />
    <path
       inkscape:connector-curvature="0"
       id="path4866"
       style="font-style:normal;font-variant:normal;font-weight:normal;font-stretch:normal;font-size:medium;line-height:125%;font-family:LilyUPC;-inkscape-font-specification:'LilyUPC, Normal';text-align:start;letter-spacing:0px;word-spacing:0px;writing-mode:lr-tb;text-anchor:start;fill:#000000;fill-opacity:1;stroke:none;stroke-width:1px;stroke-linecap:butt;stroke-linejoin:miter;stroke-opacity:1"
       d="m 130.33862,682.86218 v -0.52368 q -0.0586,0.1355 -0.3955,0.33692 -0.33326,0.20141 -1.13526,0.20141 -0.68481,-0.0256 -1.13891,-0.35156 -0.45411,-0.32593 -0.46509,-1.02905 0,-0.7544 0.53833,-1.1316 0.54199,-0.37719 1.62231,-0.45776 0.49805,-0.0403 0.76538,-0.25269 0.271,-0.21606 0.271,-0.48339 0,-0.271 -0.24902,-0.46509 -0.24537,-0.19409 -0.66651,-0.19409 -0.86792,0 -1.35132,0.32226 -0.47973,0.31861 -0.62988,0.53467 l 0.20874,-0.99243 q 0,-0.0256 0.22705,-0.15747 0.23071,-0.13184 0.64087,-0.24536 0.41016,-0.11719 0.97778,-0.12085 1.15723,0 1.67359,0.3955 0.51636,0.39185 0.51636,1.02906 v 3.5852 z m -0.68847,-0.78003 q 0.68847,-0.18676 0.68847,-0.60058 v -1.13892 q -0.004,0.011 -0.0513,0.1062 -0.0476,0.0916 -0.21606,0.18311 -0.16846,0.0915 -0.5127,0.13183 -0.58593,0.0806 -0.89355,0.26368 -0.30762,0.17944 -0.30762,0.61889 0.0476,0.50904 0.81299,0.50904 0.23071,0 0.47974,-0.0733 z" />
    <path
       inkscape:connector-curvature="0"
       id="path4868"
       style="font-style:normal;font-variant:normal;font-weight:normal;font-stretch:normal;font-size:medium;line-height:125%;font-family:LilyUPC;-inkscape-font-specification:'LilyUPC, Normal';text-align:start;letter-spacing:0px;word-spacing:0px;writing-mode:lr-tb;text-anchor:start;fill:#000000;fill-opacity:1;stroke:none;stroke-width:1px;stroke-linecap:butt;stroke-linejoin:miter;stroke-opacity:1"
       d="m 134.43286,678.49695 v 2.89673 q 0,0.43213 0.25635,0.61523 0.1831,0.14649 0.69214,0.14649 v 0.70678 q -0.0439,0.004 -0.15747,0.007 -0.11719,0.007 -0.26367,0.007 -0.96314,0 -1.40992,-0.32959 -0.52734,-0.35889 -0.52734,-1.21582 v -2.83447 h -0.94483 v -0.62988 h 0.94483 v -1.99585 h 1.40991 v 1.99585 h 0.94849 v 0.62988 h -0.94849 z" />
    <path
       inkscape:connector-curvature="0"
       id="path4870"
       style="font-style:normal;font-variant:normal;font-weight:normal;font-stretch:normal;font-size:medium;line-height:125%;font-family:LilyUPC;-inkscape-font-specification:'LilyUPC, Normal';text-align:start;letter-spacing:0px;word-spacing:0px;writing-mode:lr-tb;text-anchor:start;fill:#000000;fill-opacity:1;stroke:none;stroke-width:1px;stroke-linecap:butt;stroke-linejoin:miter;stroke-opacity:1"
       d="m 135.70361,682.86218 v -4.99511 h 1.40992 v 0.61523 q 0.007,-0.007 0.0842,-0.10254 0.0806,-0.0989 0.23804,-0.20508 0.15747,-0.1062 0.42847,-0.20141 0.2893,-0.12085 0.73608,-0.12085 0.34424,0 0.43213,0.0293 l 0.12085,0.72144 q -0.25635,-0.0623 -0.47974,-0.0623 -0.48706,0 -0.80932,0.18311 -0.36255,0.17944 -0.55664,0.49072 -0.19409,0.31128 -0.19409,0.57129 v 3.07617 h -1.40992 z" />
    <path
       inkscape:connector-curvature="0"
       id="path4872"
       style="font-style:normal;font-variant:normal;font-weight:normal;font-stretch:normal;font-size:medium;line-height:125%;font-family:LilyUPC;-inkscape-font-specification:'LilyUPC, Normal';text-align:start;letter-spacing:0px;word-spacing:0px;writing-mode:lr-tb;text-anchor:start;fill:#000000;fill-opacity:1;stroke:none;stroke-width:1px;stroke-linecap:butt;stroke-linejoin:miter;stroke-opacity:1"
       d="m 139.55615,682.86218 v -4.99511 h 1.39527 v 4.99511 z m 0.70679,-7.00561 q 0.37353,0 0.58227,0.23437 0.21241,0.23438 0.21241,0.56031 0,0.33325 -0.21607,0.57128 -0.2124,0.23804 -0.59326,0.23804 -0.36621,0 -0.58227,-0.23804 -0.21607,-0.2417 -0.21607,-0.55664 0,-0.32226 0.21607,-0.56396 0.21606,-0.24536 0.59692,-0.24536 z" />
    <path
       inkscape:connector-curvature="0"
       id="path4874"
       style="font-style:normal;font-variant:normal;font-weight:normal;font-stretch:normal;font-size:medium;line-height:125%;font-family:LilyUPC;-inkscape-font-specification:'LilyUPC, Normal';text-align:start;letter-spacing:0px;word-spacing:0px;writing-mode:lr-tb;text-anchor:start;fill:#000000;fill-opacity:1;stroke:none;stroke-width:1px;stroke-linecap:butt;stroke-linejoin:miter;stroke-opacity:1"
       d="m 141.51904,677.86707 h 1.60401 l 0.88623,1.40991 0.95947,-1.40991 h 0.97412 l -1.4685,2.11669 1.78344,2.87842 h -1.61865 l -1.03638,-1.66626 -1.15356,1.66626 h -1.03638 l 1.69556,-2.41333 z" />
    <path
       inkscape:connector-curvature="0"
       id="path4847"
       style="font-style:normal;font-variant:normal;font-weight:normal;font-stretch:normal;font-size:medium;line-height:125%;font-family:LilyUPC;-inkscape-font-specification:'LilyUPC, Normal';text-align:start;letter-spacing:0px;word-spacing:0px;writing-mode:lr-tb;text-anchor:start;fill:#000000;fill-opacity:1;stroke:none;stroke-width:1px;stroke-linecap:butt;stroke-linejoin:miter;stroke-opacity:1"
       d="m 10.08374,716.37122 v 6.99096 H 8.4943848 v -6.99096 z" />
    <path
       inkscape:connector-curvature="0"
       id="path4849"
       style="font-style:normal;font-variant:normal;font-weight:normal;font-stretch:normal;font-size:medium;line-height:125%;font-family:LilyUPC;-inkscape-font-specification:'LilyUPC, Normal';text-align:start;letter-spacing:0px;word-spacing:0px;writing-mode:lr-tb;text-anchor:start;fill:#000000;fill-opacity:1;stroke:none;stroke-width:1px;stroke-linecap:butt;stroke-linejoin:miter;stroke-opacity:1"
       d="m 15.141113,719.52063 v 3.84155 h -1.051025 v -3.65844 q 0,-0.62989 -0.959473,-0.62989 -0.46875,0.0549 -0.673828,0.29297 -0.201416,0.23438 -0.241699,0.38086 v 3.6145 h -1.409912 v -4.99511 h 1.409912 v 0.40649 q 0.0293,-0.0183 0.197754,-0.13184 0.172119,-0.11352 0.483398,-0.20874 0.314942,-0.0952 0.72876,-0.0952 0.780029,0 1.14624,0.35889 0.369873,0.35522 0.369873,0.82397 z" />
    <path
       inkscape:connector-curvature="0"
       id="path4851"
       style="font-style:normal;font-variant:normal;font-weight:normal;font-stretch:normal;font-size:medium;line-height:125%;font-family:LilyUPC;-inkscape-font-specification:'LilyUPC, Normal';text-align:start;letter-spacing:0px;word-spacing:0px;writing-mode:lr-tb;text-anchor:start;fill:#000000;fill-opacity:1;stroke:none;stroke-width:1px;stroke-linecap:butt;stroke-linejoin:miter;stroke-opacity:1"
       d="m 17.001465,719.58289 q 0,0.2893 0.512695,0.43579 0.516358,0.14282 1.05835,0.27099 0.541992,0.12451 0.9375,0.42481 0.39917,0.29663 0.41748,0.92285 0,0.91553 -0.494385,1.3147 -0.490722,0.39917 -1.428222,0.46875 -0.117188,0.0146 -0.358887,0.0146 -0.637207,0 -1.098633,-0.0989 -0.461426,-0.10254 -0.640869,-0.16846 l -0.194092,-0.87158 q 0.164795,0.11352 0.604248,0.28564 0.439454,0.17212 1.05835,0.17945 0.65918,0 0.893555,-0.19776 0.238037,-0.20141 0.249023,-0.62622 0,-0.49072 -0.333252,-0.64819 -0.32959,-0.15747 -1.072998,-0.30396 -0.739746,-0.14648 -1.116943,-0.42114 -0.373535,-0.27466 -0.373535,-0.9668 0.05493,-1.20483 1.904296,-1.28906 0.06226,0 0.17212,-0.007 0.109863,-0.007 0.15747,-0.007 0.670166,0 1.080323,0.0952 0.410156,0.0952 0.55664,0.15747 l 0.238037,0.80932 q -0.142822,-0.0915 -0.560302,-0.22338 -0.417481,-0.1355 -1.131592,-0.1355 -0.483399,0 -0.754395,0.11352 -0.270996,0.10987 -0.281982,0.47242 z" />
    <path
       inkscape:connector-curvature="0"
       id="path4838"
       style="font-style:normal;font-variant:normal;font-weight:normal;font-stretch:normal;font-size:medium;line-height:125%;font-family:LilyUPC;-inkscape-font-specification:'LilyUPC, Normal';text-align:start;letter-spacing:0px;word-spacing:0px;writing-mode:lr-tb;text-anchor:start;fill:#000000;fill-opacity:1;stroke:none;stroke-width:1px;stroke-linecap:butt;stroke-linejoin:miter;stroke-opacity:1"
       d="m 113.25562,1031.8419 q 1.09497,0 1.76513,0.3955 0.67017,0.3919 0.95947,1.1646 0.28931,0.7727 0.28931,1.9519 0,1.2121 -0.3186,2.0068 -0.31861,0.791 -0.98877,1.1756 -0.66651,0.3845 -1.72119,0.3845 -1.01441,0 -1.66626,-0.3772 -0.65186,-0.3772 -0.96314,-1.1682 -0.31128,-0.791 -0.31128,-2.0215 0.011,-1.7578 0.73609,-2.6294 0.72876,-0.8716 2.21924,-0.8826 z m -1.30738,3.512 q 0.0403,1.2268 0.26001,1.9043 0.21973,0.6775 1.03272,0.6885 0.60058,0 0.89355,-0.3626 0.29663,-0.3662 0.37354,-0.9009 0.0806,-0.5383 0.0806,-1.3 0,-0.7801 -0.0696,-1.2927 -0.0659,-0.5127 -0.35522,-0.8899 -0.28931,-0.3809 -0.87891,-0.3846 -0.83862,0 -1.08764,0.6849 -0.24903,0.6848 -0.24903,1.853 z" />
    <path
       inkscape:connector-curvature="0"
       id="path4840"
       style="font-style:normal;font-variant:normal;font-weight:normal;font-stretch:normal;font-size:medium;line-height:125%;font-family:LilyUPC;-inkscape-font-specification:'LilyUPC, Normal';text-align:start;letter-spacing:0px;word-spacing:0px;writing-mode:lr-tb;text-anchor:start;fill:#000000;fill-opacity:1;stroke:none;stroke-width:1px;stroke-linecap:butt;stroke-linejoin:miter;stroke-opacity:1"
       d="m 118.22876,1037.4523 q 0,0.3112 0.22705,0.5163 0.23071,0.2051 0.56763,0.2051 0.55664,-0.015 0.79468,-0.2637 0.23803,-0.249 0.28564,-0.4138 v -3.6291 h 1.05103 v 4.9951 h -1.05103 v -0.4651 q -0.14282,0.1208 -0.6189,0.3003 -0.47607,0.1794 -1.31469,0.1794 -0.62256,-0.022 -0.98877,-0.3772 -0.36255,-0.3552 -0.36255,-1.0034 v -3.6291 h 1.40991 z" />
    <path
       inkscape:connector-curvature="0"
       id="path4842"
       style="font-style:normal;font-variant:normal;font-weight:normal;font-stretch:normal;font-size:medium;line-height:125%;font-family:LilyUPC;-inkscape-font-specification:'LilyUPC, Normal';text-align:start;letter-spacing:0px;word-spacing:0px;writing-mode:lr-tb;text-anchor:start;fill:#000000;fill-opacity:1;stroke:none;stroke-width:1px;stroke-linecap:butt;stroke-linejoin:miter;stroke-opacity:1"
       d="m 123.927,1034.4969 v 2.8968 q 0,0.4321 0.25635,0.6152 0.18311,0.1465 0.69214,0.1465 v 0.7068 q -0.0439,0 -0.15747,0.01 -0.11719,0.01 -0.26367,0.01 -0.96314,0 -1.40992,-0.3296 -0.52734,-0.3588 -0.52734,-1.2158 v -2.8345 h -0.94482 v -0.6298 h 0.94482 v -1.9959 h 1.40991 v 1.9959 h 0.94849 v 0.6298 H 123.927 Z" />
    <path
       inkscape:connector-curvature="0"
       id="path4844"
       style="font-style:normal;font-variant:normal;font-weight:normal;font-stretch:normal;font-size:medium;line-height:125%;font-family:LilyUPC;-inkscape-font-specification:'LilyUPC, Normal';text-align:start;letter-spacing:0px;word-spacing:0px;writing-mode:lr-tb;text-anchor:start;fill:#000000;fill-opacity:1;stroke:none;stroke-width:1px;stroke-linecap:butt;stroke-linejoin:miter;stroke-opacity:1"
       d="m 126.44287,1035.0829 q 0,0.2893 0.5127,0.4358 0.51635,0.1428 1.05835,0.271 0.54199,0.1245 0.9375,0.4248 0.39917,0.2966 0.41748,0.9228 0,0.9156 -0.49439,1.3147 -0.49072,0.3992 -1.42822,0.4688 -0.11719,0.015 -0.35889,0.015 -0.6372,0 -1.09863,-0.099 -0.46143,-0.1025 -0.64087,-0.1684 l -0.19409,-0.8716 q 0.16479,0.1135 0.60425,0.2857 0.43945,0.1721 1.05835,0.1794 0.65918,0 0.89355,-0.1978 0.23804,-0.2014 0.24902,-0.6262 0,-0.4907 -0.33325,-0.6482 -0.32959,-0.1574 -1.073,-0.3039 -0.73974,-0.1465 -1.11694,-0.4212 -0.37353,-0.2746 -0.37353,-0.9668 0.0549,-1.2048 1.90429,-1.289 0.0623,0 0.17212,-0.01 0.10987,-0.01 0.15747,-0.01 0.67017,0 1.08032,0.095 0.41016,0.095 0.55665,0.1575 l 0.23803,0.8093 q -0.14282,-0.091 -0.5603,-0.2234 -0.41748,-0.1355 -1.13159,-0.1355 -0.4834,0 -0.7544,0.1136 -0.27099,0.1098 -0.28198,0.4724 z" />
  </g>
</svg>
