<?xml version="1.0" encoding="UTF-8" standalone="no"?>
<!-- Created with Inkscape (http://www.inkscape.org/) -->

<svg
   xmlns:dc="http://purl.org/dc/elements/1.1/"
   xmlns:cc="http://creativecommons.org/ns#"
   xmlns:rdf="http://www.w3.org/1999/02/22-rdf-syntax-ns#"
   xmlns:svg="http://www.w3.org/2000/svg"
   xmlns="http://www.w3.org/2000/svg"
   xmlns:sodipodi="http://sodipodi.sourceforge.net/DTD/sodipodi-0.dtd"
   xmlns:inkscape="http://www.inkscape.org/namespaces/inkscape"
   width="120"
   height="380"
   viewBox="0 0 33.866668 107.24447"
   version="1.1"
   id="svg4541"
   sodipodi:docname="MentalSubMixer.svg"
   inkscape:version="0.92.2 (5c3e80d, 2017-08-06)">
  <defs
     id="defs4535" />
  <sodipodi:namedview
     id="base"
     pagecolor="#ffffff"
     bordercolor="#666666"
     borderopacity="1.0"
     inkscape:pageopacity="0.0"
     inkscape:pageshadow="2"
     inkscape:zoom="5.2127028"
     inkscape:cx="-10.800052"
     inkscape:cy="189.80854"
     inkscape:document-units="mm"
     inkscape:current-layer="g13224"
     showgrid="true"
     fit-margin-top="0"
     fit-margin-left="0"
     fit-margin-right="0"
     fit-margin-bottom="0"
     inkscape:window-width="1600"
     inkscape:window-height="853"
     inkscape:window-x="1916"
     inkscape:window-y="-4"
     inkscape:window-maximized="1"
     units="px"
     showguides="true"
     inkscape:guide-bbox="true">
    <inkscape:grid
       type="xygrid"
       id="grid4199"
       empspacing="3"
       spacingx="1.4111112"
       spacingy="1.4111114" />
  </sodipodi:namedview>
  <metadata
     id="metadata4538">
    <rdf:RDF>
      <cc:Work
         rdf:about="">
        <dc:format>image/svg+xml</dc:format>
        <dc:type
           rdf:resource="http://purl.org/dc/dcmitype/StillImage" />
        <dc:title />
      </cc:Work>
    </rdf:RDF>
  </metadata>
  <g
     inkscape:label="Layer 1"
     inkscape:groupmode="layer"
     id="layer1"
     transform="translate(5.559749,-92.265506)">
    <g
       transform="matrix(0.27602379,0,0,0.27602379,354.09618,57.736346)"
       id="g13122"
       style="stroke-width:0.9585526">
      <g
         transform="translate(-167.07644,-20.557569)"
         id="g13178"
         style="stroke-width:0.91882312">
        <g
           transform="translate(-99.2314,6.0949065)"
           id="g13224"
           style="stroke-width:0.88074034">
          <path
             style="fill:#ffd558;fill-opacity:0.99541283;fill-rule:nonzero;stroke:none;stroke-width:0.80924457"
             d="m -1036.6811,139.55752 h 122.69481 v 388.53342 h -122.69481 z m 0,0"
             id="path25069"
             inkscape:connector-curvature="0" />
          <path
             inkscape:connector-curvature="0"
             id="path5536"
             style="font-style:normal;font-variant:normal;font-weight:normal;font-stretch:normal;font-size:medium;line-height:125%;font-family:LilyUPC;-inkscape-font-specification:'LilyUPC, Normal';text-align:start;letter-spacing:0px;word-spacing:0px;writing-mode:lr-tb;text-anchor:start;fill:#000000;fill-opacity:1;stroke:none;stroke-width:1px;stroke-linecap:butt;stroke-linejoin:miter;stroke-opacity:1"
             d="m -993.23176,144.24421 q 0,0.40813 0.67398,0.61781 0.67773,0.20594 1.36295,0.38193 0.68896,0.17598 1.20193,0.61033 0.51298,0.43059 0.5317,1.32175 0,0.88367 -0.29581,1.42285 -0.2958,0.53919 -0.83124,0.79006 -0.5317,0.24713 -1.29554,0.29955 -0.18348,0.015 -0.52047,0.015 -0.55791,0 -1.0559,-0.0824 -0.49426,-0.0824 -0.81627,-0.17973 -0.32202,-0.1011 -0.32202,-0.11982 l -0.27708,-1.08961 q 0.004,0 0.33325,0.14229 0.3295,0.14228 0.79006,0.2621 0.4643,0.11982 1.02595,0.1348 0.90613,0 1.21691,-0.29206 0.31453,-0.2958 0.31453,-0.89115 0,-0.70769 -0.42312,-0.9286 -0.42311,-0.22466 -1.37792,-0.42686 -0.95106,-0.20594 -1.43034,-0.5916 -0.47927,-0.38942 -0.47927,-1.36669 0.0225,-0.62156 0.34822,-1.02595 0.32576,-0.40439 0.85371,-0.5991 0.5317,-0.19845 1.19071,-0.2284 1.09709,0 1.71865,0.1273 0.62156,0.12357 0.8275,0.20969 l 0.29206,1.14951 q 0,0 -0.29955,-0.13479 -0.29955,-0.1348 -0.76759,-0.24339 -0.46804,-0.11233 -1.11207,-0.11233 -0.62531,0 -0.98102,0.14978 -0.35571,0.14977 -0.3969,0.67772 z" />
          <path
             inkscape:connector-curvature="0"
             id="path5538"
             style="font-style:normal;font-variant:normal;font-weight:normal;font-stretch:normal;font-size:medium;line-height:125%;font-family:LilyUPC;-inkscape-font-specification:'LilyUPC, Normal';text-align:start;letter-spacing:0px;word-spacing:0px;writing-mode:lr-tb;text-anchor:start;fill:#000000;fill-opacity:1;stroke:none;stroke-width:1px;stroke-linecap:butt;stroke-linejoin:miter;stroke-opacity:1"
             d="m -987.46921,148.20198 q 0,0.31827 0.23215,0.52795 0.23589,0.20969 0.58037,0.20969 0.56915,-0.015 0.81253,-0.2696 0.24338,-0.25461 0.29206,-0.42311 v -3.71065 h 1.07462 v 5.10729 h -1.07462 v -0.47553 q -0.14603,0.12357 -0.6328,0.30704 -0.48676,0.18347 -1.34422,0.18347 -0.63654,-0.0225 -1.01097,-0.38567 -0.37069,-0.3632 -0.37069,-1.02595 v -3.71065 h 1.44157 z" />
          <path
             inkscape:connector-curvature="0"
             id="path5540"
             style="font-style:normal;font-variant:normal;font-weight:normal;font-stretch:normal;font-size:medium;line-height:125%;font-family:LilyUPC;-inkscape-font-specification:'LilyUPC, Normal';text-align:start;letter-spacing:0px;word-spacing:0px;writing-mode:lr-tb;text-anchor:start;fill:#000000;fill-opacity:1;stroke:none;stroke-width:1px;stroke-linecap:butt;stroke-linejoin:miter;stroke-opacity:1"
             d="m -983.78851,142.4956 h 1.44157 v 2.26907 q 0.51672,-0.25836 1.31801,-0.25836 0.54293,0 0.9623,0.16475 0.42311,0.16475 0.71142,0.71517 0.29206,0.54668 0.29206,1.57263 0,1.10458 -0.30704,1.70368 -0.30703,0.59909 -0.77882,0.80129 -0.46804,0.20219 -1.04842,0.20968 -0.50923,0 -0.79005,-0.12731 -0.27709,-0.12731 -0.35946,-0.20968 v 0.30703 h -1.44157 z m 1.44157,6.05835 q 0,0.0487 0.24338,0.21717 0.24713,0.16475 0.58412,0.19845 0.72266,0 1.01846,-0.49425 0.29955,-0.498 0.29955,-1.53144 0,-0.8612 -0.25836,-1.31801 -0.25462,-0.46055 -1.01097,-0.46055 -0.41937,0.0299 -0.64778,0.13854 -0.2284,0.10858 -0.2284,0.15351 z" />
          <path
             inkscape:connector-curvature="0"
             id="path5542"
             style="font-style:normal;font-variant:normal;font-weight:normal;font-stretch:normal;font-size:medium;line-height:125%;font-family:LilyUPC;-inkscape-font-specification:'LilyUPC, Normal';text-align:start;letter-spacing:0px;word-spacing:0px;writing-mode:lr-tb;text-anchor:start;fill:#000000;fill-opacity:1;stroke:none;stroke-width:1px;stroke-linecap:butt;stroke-linejoin:miter;stroke-opacity:1"
             d="m -973.17703,144.85828 -2.01072,4.92382 -2.0856,-4.92382 v 4.78527 h -1.14952 v -7.14795 h 1.80852 l 1.67373,3.74434 1.61007,-3.74434 h 1.77856 v 7.14795 h -1.62504 z" />
          <path
             inkscape:connector-curvature="0"
             id="path5544"
             style="font-style:normal;font-variant:normal;font-weight:normal;font-stretch:normal;font-size:medium;line-height:125%;font-family:LilyUPC;-inkscape-font-specification:'LilyUPC, Normal';text-align:start;letter-spacing:0px;word-spacing:0px;writing-mode:lr-tb;text-anchor:start;fill:#000000;fill-opacity:1;stroke:none;stroke-width:1px;stroke-linecap:butt;stroke-linejoin:miter;stroke-opacity:1"
             d="m -970.77316,149.64355 v -5.10729 h 1.42659 v 5.10729 z m 0.72266,-7.16293 q 0.38192,0 0.59535,0.23964 0.21717,0.23963 0.21717,0.57288 0,0.34074 -0.22092,0.58412 -0.21717,0.24338 -0.60658,0.24338 -0.37444,0 -0.59535,-0.24338 -0.22092,-0.24713 -0.22092,-0.56914 0,-0.3295 0.22092,-0.57663 0.22091,-0.25087 0.61033,-0.25087 z" />
          <path
             inkscape:connector-curvature="0"
             id="path5546"
             style="font-style:normal;font-variant:normal;font-weight:normal;font-stretch:normal;font-size:medium;line-height:125%;font-family:LilyUPC;-inkscape-font-specification:'LilyUPC, Normal';text-align:start;letter-spacing:0px;word-spacing:0px;writing-mode:lr-tb;text-anchor:start;fill:#000000;fill-opacity:1;stroke:none;stroke-width:1px;stroke-linecap:butt;stroke-linejoin:miter;stroke-opacity:1"
             d="m -968.76619,144.53626 h 1.64002 l 0.90613,1.44158 0.98102,-1.44158 h 0.996 l -1.50149,2.16424 1.8235,2.94305 h -1.655 l -1.05965,-1.70367 -1.17947,1.70367 h -1.05965 l 1.73363,-2.46752 z" />
          <path
             inkscape:connector-curvature="0"
             id="path5548"
             style="font-style:normal;font-variant:normal;font-weight:normal;font-stretch:normal;font-size:medium;line-height:125%;font-family:LilyUPC;-inkscape-font-specification:'LilyUPC, Normal';text-align:start;letter-spacing:0px;word-spacing:0px;writing-mode:lr-tb;text-anchor:start;fill:#000000;fill-opacity:1;stroke:none;stroke-width:1px;stroke-linecap:butt;stroke-linejoin:miter;stroke-opacity:1"
             d="m -962.43076,147.34453 q 0.0337,0.40438 0.27708,1.0222 0.24338,0.61782 0.88741,0.64777 0.78632,0 1.23189,-0.19845 0.44558,-0.20219 0.58038,-0.33699 l -0.21718,0.88741 q 0,0.0786 -0.44557,0.20969 -0.44558,0.1273 -1.13454,0.1273 -0.27334,0 -0.42686,-0.015 -1.11581,-0.0824 -1.63628,-0.64028 -0.51672,-0.56165 -0.52795,-1.79729 0,-1.41536 0.58786,-2.07436 0.59161,-0.65901 1.72989,-0.67024 1.36669,0 1.85345,0.71891 0.41563,0.59535 0.41563,1.61007 0,0.19096 -0.0112,0.32576 -0.0112,0.13105 -0.0187,0.18347 h -3.14525 z m 1.04467,-2.19419 q -1.04467,0.0337 -1.04467,1.51646 h 2.22414 q 0,-1.51646 -1.17947,-1.51646 z" />
          <path
             inkscape:connector-curvature="0"
             id="path5550"
             style="font-style:normal;font-variant:normal;font-weight:normal;font-stretch:normal;font-size:medium;line-height:125%;font-family:LilyUPC;-inkscape-font-specification:'LilyUPC, Normal';text-align:start;letter-spacing:0px;word-spacing:0px;writing-mode:lr-tb;text-anchor:start;fill:#000000;fill-opacity:1;stroke:none;stroke-width:1px;stroke-linecap:butt;stroke-linejoin:miter;stroke-opacity:1"
             d="m -958.83619,149.64355 v -5.10729 h 1.44158 v 0.62906 q 0.007,-0.008 0.0861,-0.10485 0.0824,-0.10109 0.24338,-0.20968 0.16101,-0.10859 0.43809,-0.20594 0.2958,-0.12356 0.75261,-0.12356 0.35197,0 0.44184,0.03 l 0.12356,0.73763 q -0.2621,-0.0636 -0.49051,-0.0636 -0.498,0 -0.8275,0.18722 -0.37069,0.18347 -0.56914,0.50174 -0.19845,0.31827 -0.19845,0.58412 v 3.14525 h -1.44158 z" />
        </g>
      </g>
    </g>
  </g>
</svg>
