<?xml version="1.0" encoding="UTF-8" standalone="no"?>
<!-- Created with Inkscape (http://www.inkscape.org/) -->

<svg
   xmlns:dc="http://purl.org/dc/elements/1.1/"
   xmlns:cc="http://creativecommons.org/ns#"
   xmlns:rdf="http://www.w3.org/1999/02/22-rdf-syntax-ns#"
   xmlns:svg="http://www.w3.org/2000/svg"
   xmlns="http://www.w3.org/2000/svg"
   xmlns:sodipodi="http://sodipodi.sourceforge.net/DTD/sodipodi-0.dtd"
   xmlns:inkscape="http://www.inkscape.org/namespaces/inkscape"
   width="90"
   height="380"
   viewBox="0 0 89.999999 380.00001"
   id="svg14650"
   version="1.1"
   inkscape:version="0.92.2 (5c3e80d, 2017-08-06)"
   sodipodi:docname="MentalRadioButtons.svg">
  <defs
     id="defs14652" />
  <sodipodi:namedview
     id="base"
     pagecolor="#ffffff"
     bordercolor="#666666"
     borderopacity="1.0"
     inkscape:pageopacity="0.0"
     inkscape:pageshadow="2"
     inkscape:zoom="12.699207"
     inkscape:cx="-8.5849019"
     inkscape:cy="352.19427"
     inkscape:document-units="px"
     inkscape:current-layer="layer1"
     showgrid="true"
     units="px"
     objecttolerance="2"
     inkscape:window-width="1600"
     inkscape:window-height="853"
     inkscape:window-x="1916"
     inkscape:window-y="-4"
     inkscape:window-maximized="1">
    <inkscape:grid
       type="xygrid"
       id="grid15198"
       spacingx="4.9999999"
       spacingy="5.0000001"
       empspacing="3" />
  </sodipodi:namedview>
  <metadata
     id="metadata14655">
    <rdf:RDF>
      <cc:Work
         rdf:about="">
        <dc:format>image/svg+xml</dc:format>
        <dc:type
           rdf:resource="http://purl.org/dc/dcmitype/StillImage" />
        <dc:title />
      </cc:Work>
    </rdf:RDF>
  </metadata>
  <g
     inkscape:label="Layer 1"
     inkscape:groupmode="layer"
     id="layer1"
     transform="translate(0,-672.36216)">
    <rect
       style="fill:#ffd558;fill-opacity:0.94495416;stroke:none;stroke-width:4.77361202;stroke-linejoin:round;stroke-miterlimit:4;stroke-dasharray:none;stroke-opacity:1"
       id="rect15200"
       width="90"
       height="380"
       x="0"
       y="672.36218" />
    <g
       aria-label="RadioButtons"
       style="font-style:normal;font-variant:normal;font-weight:normal;font-stretch:normal;font-size:16px;line-height:25px;font-family:LilyUPC;-inkscape-font-specification:LilyUPC;letter-spacing:0px;word-spacing:0px;fill:#000000;fill-opacity:1;stroke:none"
       id="text823"
       transform="translate(16)">
      <path
         d="m 4.2766396,678.97156 2.1289062,3.3125 h -1.96875 l -2.2890625,-4.03125 h 0.9140625 q 0.035156,0 0.1757813,0.008 0.140625,0.008 0.2382812,0.008 1.3398438,0 1.375,-1.16797 0,-0.61718 -0.3164062,-0.98046 -0.3164063,-0.36329 -0.8359375,-0.36329 H 2.1789833 v 6.52735 H 0.48367083 v -7.45703 H 3.9094521 q 2.4960937,0 2.4960937,2.16015 -0.035156,0.88282 -0.5078125,1.32032 -0.4726562,0.4375 -1.046875,0.57031 -0.4375,0.10547 -0.5429687,0.10547 -0.03125,0 -0.03125,-0.0117 z"
         id="path825"
         inkscape:connector-curvature="0" />
      <path
         d="m 10.038358,682.28406 v -0.5586 q -0.0625,0.14454 -0.4218747,0.35938 -0.3554687,0.21484 -1.2109375,0.21484 -0.7304687,-0.0273 -1.2148437,-0.375 -0.484375,-0.34765 -0.4960938,-1.09765 0,-0.80469 0.5742188,-1.20703 0.578125,-0.40235 1.7304687,-0.48829 0.53125,-0.043 0.8164063,-0.26953 0.2890629,-0.23047 0.2890629,-0.51562 0,-0.28906 -0.2656254,-0.4961 -0.2617188,-0.20703 -0.7109375,-0.20703 -0.9257813,0 -1.4414063,0.34375 -0.5117187,0.33985 -0.671875,0.57032 l 0.2226563,-1.0586 q 0,-0.0273 0.2421875,-0.16797 0.2460937,-0.14062 0.6835937,-0.26172 0.4375,-0.125 1.0429688,-0.1289 1.2343749,0 1.7851559,0.42187 0.550782,0.41797 0.550782,1.09766 v 3.82422 z m -0.7343747,-0.83203 q 0.7343747,-0.19922 0.7343747,-0.64063 v -1.21484 q -0.0039,0.0117 -0.054687,0.11328 -0.050781,0.0977 -0.2304687,0.19531 -0.1796875,0.0977 -0.546875,0.14063 -0.625,0.0859 -0.953125,0.28125 -0.328125,0.1914 -0.328125,0.66015 0.050781,0.54297 0.8671875,0.54297 0.2460937,0 0.5117187,-0.0781 z"
         id="path827"
         inkscape:connector-curvature="0" />
      <path
         d="m 16.936796,674.82703 v 7.45703 h -1.488281 v -0.32031 q -0.08203,0.0859 -0.375,0.21875 -0.292969,0.13281 -0.828125,0.13281 -0.613282,-0.008 -1.105469,-0.21094 -0.488281,-0.20703 -0.8125,-0.82812 -0.320313,-0.6211 -0.320313,-1.79297 0.01953,-1.5586 0.59375,-2.0586 0.578125,-0.5 1.46875,-0.5 0.839844,0 1.378907,0.26953 v -2.36718 z m -1.488281,6.32031 v -3.23047 q 0,-0.0469 -0.242188,-0.16016 -0.242187,-0.11328 -0.671875,-0.14453 -0.789062,0 -1.058594,0.48047 -0.269531,0.47656 -0.269531,1.375 0,0.71485 0.125,1.17969 0.128906,0.46094 0.429688,0.69922 0.300781,0.23437 0.804687,0.23437 0.367188,-0.0351 0.625,-0.20312 0.257813,-0.17188 0.257813,-0.23047 z"
         id="path829"
         inkscape:connector-curvature="0" />
      <path
         d="m 17.71414,682.28406 v -5.32813 h 1.488281 v 5.32813 z m 0.753906,-7.47266 q 0.398437,0 0.621094,0.25 0.226562,0.25 0.226562,0.59766 0,0.35547 -0.230469,0.60937 -0.226562,0.25391 -0.632812,0.25391 -0.390625,0 -0.621094,-0.25391 -0.230469,-0.25781 -0.230469,-0.59375 0,-0.34375 0.230469,-0.60156 0.230469,-0.26172 0.636719,-0.26172 z"
         id="path831"
         inkscape:connector-curvature="0" />
      <path
         d="m 22.272733,676.92468 q 0.929688,0 1.484375,0.30078 0.558594,0.30079 0.800782,0.89063 0.242187,0.58984 0.242187,1.49609 0,1.41797 -0.601562,2.07813 -0.601563,0.65625 -1.960938,0.65625 -1.289062,-0.0117 -1.902344,-0.66016 -0.609375,-0.64844 -0.609375,-2.05859 0.02344,-2.70313 2.546875,-2.70313 z m -1.058593,2.6875 q 0.02734,0.69141 0.07813,1.05078 0.05469,0.35547 0.285156,0.64454 0.230469,0.28906 0.710937,0.28906 0.671875,0 0.847657,-0.50781 0.175781,-0.51172 0.175781,-1.44532 0,-0.91797 -0.179688,-1.44922 -0.175781,-0.53515 -0.84375,-0.53515 -0.6875,0.0195 -0.882812,0.53515 -0.191406,0.51172 -0.191406,1.41797 z"
         id="path833"
         inkscape:connector-curvature="0" />
      <path
         d="m 28.909452,674.82703 q 2.175781,0 2.175781,1.77734 0,1.05859 -0.597656,1.40234 -0.59375,0.33985 -0.988281,0.33985 1.855469,0.17969 1.855469,1.79297 -0.01953,1.24609 -0.675782,1.69531 -0.652343,0.44922 -1.722656,0.44922 h -3.472656 v -7.45703 z m -0.113281,6.52734 q 1.183594,0 1.183594,-1.29297 0,-0.57812 -0.351563,-0.89062 -0.347656,-0.3125 -0.878906,-0.3125 h -1.570313 v 2.49609 z m 1.023437,-4.67187 q -0.08203,-0.92579 -1.101562,-0.92579 h -1.539063 v 2.17579 h 1.488282 q 1.152343,0 1.152343,-1.25 z"
         id="path835"
         inkscape:connector-curvature="0" />
      <path
         d="m 33.421171,680.78015 q 0,0.33203 0.242187,0.55078 0.246094,0.21875 0.605469,0.21875 0.59375,-0.0156 0.847656,-0.28125 0.253907,-0.26562 0.304688,-0.4414 v -3.8711 h 1.121094 v 5.32813 h -1.121094 v -0.4961 q -0.152344,0.12891 -0.660156,0.32032 -0.507813,0.1914 -1.402344,0.1914 -0.664063,-0.0234 -1.054688,-0.40234 -0.386718,-0.37891 -0.386718,-1.07031 v -3.8711 h 1.503906 z"
         id="path837"
         inkscape:connector-curvature="0" />
      <path
         d="m 39.499296,677.62781 v 3.08984 q 0,0.46094 0.273437,0.65625 0.195313,0.15625 0.738282,0.15625 v 0.75391 q -0.04687,0.004 -0.167969,0.008 -0.125,0.008 -0.28125,0.008 -1.027344,0 -1.503906,-0.35156 -0.5625,-0.38281 -0.5625,-1.29687 v -3.02344 h -1.007813 v -0.67188 h 1.007813 v -2.1289 h 1.503906 v 2.1289 h 1.011719 v 0.67188 z"
         id="path839"
         inkscape:connector-curvature="0" />
      <path
         d="m 43.093046,677.62781 v 3.08984 q 0,0.46094 0.273437,0.65625 0.195313,0.15625 0.738282,0.15625 v 0.75391 q -0.04687,0.004 -0.167969,0.008 -0.125,0.008 -0.28125,0.008 -1.027344,0 -1.503906,-0.35156 -0.5625,-0.38281 -0.5625,-1.29687 v -3.02344 h -1.007813 v -0.67188 h 1.007813 v -2.1289 h 1.503906 v 2.1289 h 1.011719 v 0.67188 z"
         id="path841"
         inkscape:connector-curvature="0" />
      <path
         d="m 46.866483,676.92468 q 0.929688,0 1.484375,0.30078 0.558594,0.30079 0.800782,0.89063 0.242187,0.58984 0.242187,1.49609 0,1.41797 -0.601562,2.07813 -0.601563,0.65625 -1.960938,0.65625 -1.289062,-0.0117 -1.902344,-0.66016 -0.609375,-0.64844 -0.609375,-2.05859 0.02344,-2.70313 2.546875,-2.70313 z m -1.058593,2.6875 q 0.02734,0.69141 0.07813,1.05078 0.05469,0.35547 0.285156,0.64454 0.230469,0.28906 0.710937,0.28906 0.671875,0 0.847657,-0.50781 0.175781,-0.51172 0.175781,-1.44532 0,-0.91797 -0.179688,-1.44922 -0.175781,-0.53515 -0.84375,-0.53515 -0.6875,0.0195 -0.882812,0.53515 -0.191406,0.51172 -0.191406,1.41797 z"
         id="path843"
         inkscape:connector-curvature="0" />
      <path
         d="m 54.511015,678.1864 v 4.09766 h -1.121094 v -3.90235 q 0,-0.67187 -1.023438,-0.67187 -0.5,0.0586 -0.71875,0.3125 -0.214843,0.25 -0.257812,0.40625 v 3.85547 h -1.503906 v -5.32813 h 1.503906 v 0.4336 q 0.03125,-0.0195 0.210937,-0.14063 0.183594,-0.12109 0.515625,-0.22265 0.335938,-0.10157 0.777344,-0.10157 0.832031,0 1.222656,0.38282 0.394532,0.3789 0.394532,0.8789 z"
         id="path845"
         inkscape:connector-curvature="0" />
      <path
         d="m 56.49539,678.25281 q 0,0.30859 0.546875,0.46484 0.550781,0.15235 1.128906,0.28906 0.578125,0.13282 1,0.45313 0.425781,0.31641 0.445312,0.98437 0,0.97657 -0.527343,1.40235 -0.523438,0.42578 -1.523438,0.5 -0.125,0.0156 -0.382812,0.0156 -0.679688,0 -1.171875,-0.10547 -0.492188,-0.10937 -0.683594,-0.17968 l -0.207031,-0.92969 q 0.175781,0.12109 0.644531,0.30469 0.46875,0.18359 1.128906,0.1914 0.703125,0 0.953125,-0.21093 0.253906,-0.21485 0.265625,-0.66797 0,-0.52344 -0.355469,-0.69141 -0.351562,-0.16797 -1.144531,-0.32422 -0.789062,-0.15625 -1.191406,-0.44922 -0.398438,-0.29297 -0.398438,-1.03125 0.05859,-1.28515 2.03125,-1.375 0.06641,0 0.183594,-0.008 0.117188,-0.008 0.167969,-0.008 0.714844,0 1.152344,0.10156 0.4375,0.10156 0.59375,0.16797 l 0.253906,0.86328 q -0.152344,-0.0977 -0.597656,-0.23828 -0.445313,-0.14453 -1.207032,-0.14453 -0.515625,0 -0.804687,0.12109 -0.289063,0.11719 -0.300781,0.50391 z"
         id="path847"
         inkscape:connector-curvature="0" />
    </g>
  </g>
</svg>
