<?xml version="1.0" encoding="UTF-8" standalone="no"?>
<!-- Created with Inkscape (http://www.inkscape.org/) -->

<svg
   xmlns:dc="http://purl.org/dc/elements/1.1/"
   xmlns:cc="http://creativecommons.org/ns#"
   xmlns:rdf="http://www.w3.org/1999/02/22-rdf-syntax-ns#"
   xmlns:svg="http://www.w3.org/2000/svg"
   xmlns="http://www.w3.org/2000/svg"
   xmlns:sodipodi="http://sodipodi.sourceforge.net/DTD/sodipodi-0.dtd"
   xmlns:inkscape="http://www.inkscape.org/namespaces/inkscape"
   width="360"
   height="380"
   viewBox="0 0 360.00001 380.00001"
   id="svg12504"
   version="1.1"
   inkscape:version="0.92.2 (5c3e80d, 2017-08-06)"
   sodipodi:docname="Mixer.svg">
  <defs
     id="defs12506" />
  <sodipodi:namedview
     id="base"
     pagecolor="#ffffff"
     bordercolor="#666666"
     borderopacity="1.0"
     inkscape:pageopacity="0.0"
     inkscape:pageshadow="2"
     inkscape:zoom="0.99575001"
     inkscape:cx="-3.9717077"
     inkscape:cy="175.07889"
     inkscape:document-units="px"
     inkscape:current-layer="layer1"
     showgrid="true"
     units="px"
     inkscape:window-width="1600"
     inkscape:window-height="900"
     inkscape:window-x="61"
     inkscape:window-y="30"
     inkscape:window-maximized="0">
    <inkscape:grid
       type="xygrid"
       id="grid13052"
       spacingx="15"
       spacingy="19.000001"
       empspacing="3" />
  </sodipodi:namedview>
  <metadata
     id="metadata12509">
    <rdf:RDF>
      <cc:Work
         rdf:about="">
        <dc:format>image/svg+xml</dc:format>
        <dc:type
           rdf:resource="http://purl.org/dc/dcmitype/StillImage" />
        <dc:title />
      </cc:Work>
    </rdf:RDF>
  </metadata>
  <g
     inkscape:label="Layer 1"
     inkscape:groupmode="layer"
     id="layer1"
     transform="translate(0,-672.36215)">
    <rect
       style="fill:#ffd558;fill-opacity:1;stroke:none;stroke-width:3.45348525;stroke-linejoin:round;stroke-miterlimit:4;stroke-dasharray:none;stroke-opacity:1"
       id="rect13054"
       width="360"
       height="380"
       x="0"
       y="672.36218" />
    <g
       id="g912"
       transform="translate(-28,-4)">
      <path
         d="m 175.31357,688.04471 -2.94983,7.22351 -3.05969,-7.22351 v 7.02026 h -1.6864 v -10.48645 h 2.6532 l 2.45544,5.49317 2.36206,-5.49317 h 2.60926 v 10.48645 h -2.38404 z"
         style="font-style:normal;font-variant:normal;font-weight:normal;font-stretch:normal;font-size:medium;line-height:125%;font-family:LilyUPC;-inkscape-font-specification:LilyUPC;letter-spacing:0px;word-spacing:0px;display:inline;fill:#000000;fill-opacity:1;stroke:none;stroke-width:1px;stroke-linecap:butt;stroke-linejoin:miter;stroke-opacity:1"
         id="path10677"
         inkscape:connector-curvature="0" />
      <path
         d="m 180.70786,691.69217 q 0.0494,0.59326 0.40649,1.49963 0.35706,0.90638 1.30188,0.95032 1.15357,0 1.80725,-0.29114 0.65369,-0.29663 0.85145,-0.49438 l -0.31862,1.30188 q 0,0.11535 -0.65369,0.30761 -0.65368,0.18677 -1.66442,0.18677 -0.401,0 -0.62622,-0.022 -1.63697,-0.12085 -2.40052,-0.93933 -0.75805,-0.82397 -0.77453,-2.63672 0,-2.07641 0.86242,-3.04321 0.86792,-0.9668 2.53785,-0.98328 2.005,0 2.71911,1.05469 0.60974,0.87341 0.60974,2.36206 0,0.28015 -0.0163,0.47791 -0.0166,0.19225 -0.0276,0.26916 h -4.61426 z m 1.53259,-3.21899 q -1.53259,0.0494 -1.53259,2.22473 h 3.26294 q 0,-2.22473 -1.73035,-2.22473 z"
         style="font-style:normal;font-variant:normal;font-weight:normal;font-stretch:normal;font-size:medium;line-height:125%;font-family:LilyUPC;-inkscape-font-specification:LilyUPC;letter-spacing:0px;word-spacing:0px;display:inline;fill:#000000;fill-opacity:1;stroke:none;stroke-width:1px;stroke-linecap:butt;stroke-linejoin:miter;stroke-opacity:1"
         id="path10679"
         inkscape:connector-curvature="0" />
      <path
         d="m 192.4852,689.30264 v 5.76233 h -1.57654 v -5.48767 q 0,-0.94482 -1.43921,-0.94482 -0.70312,0.0824 -1.01074,0.43945 -0.30214,0.35156 -0.36254,0.57129 v 5.42175 h -2.11487 v -7.49267 h 2.11487 v 0.60974 q 0.0439,-0.0275 0.29664,-0.19776 0.25817,-0.17028 0.7251,-0.31311 0.47241,-0.14282 1.09314,-0.14282 1.17004,0 1.71936,0.53833 0.55481,0.53283 0.55481,1.23596 z"
         style="font-style:normal;font-variant:normal;font-weight:normal;font-stretch:normal;font-size:medium;line-height:125%;font-family:LilyUPC;-inkscape-font-specification:LilyUPC;letter-spacing:0px;word-spacing:0px;display:inline;fill:#000000;fill-opacity:1;stroke:none;stroke-width:1px;stroke-linecap:butt;stroke-linejoin:miter;stroke-opacity:1"
         id="path10681"
         inkscape:connector-curvature="0" />
      <path
         d="m 196.55564,688.51712 v 4.34509 q 0,0.6482 0.38452,0.92286 0.27464,0.21972 1.03821,0.21972 v 1.06018 q -0.0659,0.005 -0.2362,0.011 -0.17578,0.011 -0.39551,0.011 -1.4447,0 -2.11486,-0.49438 -0.79103,-0.53832 -0.79103,-1.82372 v -4.25171 h -1.41724 v -0.94482 h 1.41724 v -2.99378 h 2.11487 v 2.99378 h 1.42273 v 0.94482 h -1.42273 z"
         style="font-style:normal;font-variant:normal;font-weight:normal;font-stretch:normal;font-size:medium;line-height:125%;font-family:LilyUPC;-inkscape-font-specification:LilyUPC;letter-spacing:0px;word-spacing:0px;display:inline;fill:#000000;fill-opacity:1;stroke:none;stroke-width:1px;stroke-linecap:butt;stroke-linejoin:miter;stroke-opacity:1"
         id="path10683"
         inkscape:connector-curvature="0" />
      <path
         d="m 202.93869,695.06497 v -0.78552 q -0.0879,0.20325 -0.59326,0.50537 -0.49988,0.30212 -1.70288,0.30212 -1.02722,-0.0385 -1.70837,-0.52734 -0.68116,-0.48889 -0.69764,-1.54358 0,-1.13159 0.8075,-1.69739 0.81299,-0.56579 2.43347,-0.68664 0.74707,-0.0604 1.14808,-0.37903 0.40649,-0.32409 0.40649,-0.7251 0,-0.40649 -0.37354,-0.69763 -0.36804,-0.29114 -0.99975,-0.29114 -1.30188,0 -2.02698,0.4834 -0.71961,0.47791 -0.94483,0.802 l 0.31313,-1.48864 q 0,-0.0385 0.34058,-0.23621 0.34607,-0.19776 0.9613,-0.36804 0.61524,-0.17578 1.46668,-0.18128 1.73584,0 2.51037,0.59326 0.77454,0.58777 0.77454,1.54358 v 5.37781 h -2.11487 z m -1.03271,-1.17004 q 1.03271,-0.28015 1.03271,-0.90088 v -1.70837 q -0.006,0.0165 -0.0769,0.1593 -0.0714,0.13732 -0.3241,0.27466 -0.25268,0.13732 -0.76905,0.19775 -0.8789,0.12085 -1.34033,0.39551 -0.46142,0.26916 -0.46142,0.92834 0.0714,0.76355 1.21948,0.76355 0.34607,0 0.7196,-0.10986 z"
         style="font-style:normal;font-variant:normal;font-weight:normal;font-stretch:normal;font-size:medium;line-height:125%;font-family:LilyUPC;-inkscape-font-specification:LilyUPC;letter-spacing:0px;word-spacing:0px;display:inline;fill:#000000;fill-opacity:1;stroke:none;stroke-width:1px;stroke-linecap:butt;stroke-linejoin:miter;stroke-opacity:1"
         id="path10685"
         inkscape:connector-curvature="0" />
      <path
         d="m 205.97642,695.06497 v -10.48645 h 2.07092 v 10.48645 z"
         style="font-style:normal;font-variant:normal;font-weight:normal;font-stretch:normal;font-size:medium;line-height:125%;font-family:LilyUPC;-inkscape-font-specification:LilyUPC;letter-spacing:0px;word-spacing:0px;display:inline;fill:#000000;fill-opacity:1;stroke:none;stroke-width:1px;stroke-linecap:butt;stroke-linejoin:miter;stroke-opacity:1"
         id="path10687"
         inkscape:connector-curvature="0" />
      <path
         d="m 222.33506,688.04471 -2.94983,7.22351 -3.05969,-7.22351 v 7.02026 h -1.6864 v -10.48645 h 2.65319 l 2.45545,5.49317 2.36206,-5.49317 h 2.60925 v 10.48645 h -2.38403 z"
         style="font-style:normal;font-variant:normal;font-weight:normal;font-stretch:normal;font-size:medium;line-height:125%;font-family:LilyUPC;-inkscape-font-specification:LilyUPC;letter-spacing:0px;word-spacing:0px;display:inline;fill:#000000;fill-opacity:1;stroke:none;stroke-width:1px;stroke-linecap:butt;stroke-linejoin:miter;stroke-opacity:1"
         id="path10689"
         inkscape:connector-curvature="0" />
      <path
         d="m 225.86167,695.06497 v -7.49267 h 2.09289 v 7.49267 z m 1.06018,-10.50842 q 0.5603,0 0.87341,0.35156 0.31861,0.35157 0.31861,0.84046 0,0.49988 -0.3241,0.85693 -0.31862,0.35706 -0.88989,0.35706 -0.54932,0 -0.87342,-0.35706 -0.3241,-0.36255 -0.3241,-0.83496 0,-0.4834 0.3241,-0.84595 0.32411,-0.36804 0.89539,-0.36804 z"
         style="font-style:normal;font-variant:normal;font-weight:normal;font-stretch:normal;font-size:medium;line-height:125%;font-family:LilyUPC;-inkscape-font-specification:LilyUPC;letter-spacing:0px;word-spacing:0px;display:inline;fill:#000000;fill-opacity:1;stroke:none;stroke-width:1px;stroke-linecap:butt;stroke-linejoin:miter;stroke-opacity:1"
         id="path10691"
         inkscape:connector-curvature="0" />
      <path
         d="m 228.80601,687.5723 h 2.406 l 1.32935,2.11487 1.43921,-2.11487 h 1.46118 l -2.20276,3.17505 2.67517,4.31762 h -2.42798 l -1.55456,-2.49939 -1.73035,2.49939 h -1.55456 l 2.54333,-3.61999 z"
         style="font-style:normal;font-variant:normal;font-weight:normal;font-stretch:normal;font-size:medium;line-height:125%;font-family:LilyUPC;-inkscape-font-specification:LilyUPC;letter-spacing:0px;word-spacing:0px;display:inline;fill:#000000;fill-opacity:1;stroke:none;stroke-width:1px;stroke-linecap:butt;stroke-linejoin:miter;stroke-opacity:1"
         id="path10693"
         inkscape:connector-curvature="0" />
      <path
         d="m 238.10044,691.69217 q 0.0494,0.59326 0.40649,1.49963 0.35706,0.90638 1.30188,0.95032 1.15357,0 1.80725,-0.29114 0.65369,-0.29663 0.85144,-0.49438 l -0.31861,1.30188 q 0,0.11535 -0.65368,0.30761 -0.65369,0.18677 -1.66443,0.18677 -0.40101,0 -0.62623,-0.022 -1.63696,-0.12085 -2.40051,-0.93933 -0.75805,-0.82397 -0.77453,-2.63672 0,-2.07641 0.86242,-3.04321 0.86792,-0.9668 2.53784,-0.98328 2.00501,0 2.71912,1.05469 0.60974,0.87341 0.60974,2.36206 0,0.28015 -0.0166,0.47791 -0.0166,0.19225 -0.0276,0.26916 h -4.61426 z m 1.53259,-3.21899 q -1.53259,0.0494 -1.53259,2.22473 h 3.26294 q 0,-2.22473 -1.73035,-2.22473 z"
         style="font-style:normal;font-variant:normal;font-weight:normal;font-stretch:normal;font-size:medium;line-height:125%;font-family:LilyUPC;-inkscape-font-specification:LilyUPC;letter-spacing:0px;word-spacing:0px;display:inline;fill:#000000;fill-opacity:1;stroke:none;stroke-width:1px;stroke-linecap:butt;stroke-linejoin:miter;stroke-opacity:1"
         id="path10695"
         inkscape:connector-curvature="0" />
      <path
         d="m 243.37387,695.06497 v -7.49267 h 2.11487 v 0.92285 q 0.011,-0.011 0.12636,-0.15381 0.12086,-0.14831 0.35705,-0.30761 0.2362,-0.1593 0.6427,-0.30213 0.43396,-0.18127 1.10413,-0.18127 0.51636,0 0.64819,0.0439 l 0.18128,1.08215 q -0.38452,-0.0934 -0.7196,-0.0934 -0.7306,0 -1.21399,0.27466 -0.54383,0.26916 -0.83497,0.73608 -0.29115,0.46692 -0.29115,0.85694 v 4.61425 h -2.11487 z"
         style="font-style:normal;font-variant:normal;font-weight:normal;font-stretch:normal;font-size:medium;line-height:125%;font-family:LilyUPC;-inkscape-font-specification:LilyUPC;letter-spacing:0px;word-spacing:0px;display:inline;fill:#000000;fill-opacity:1;stroke:none;stroke-width:1px;stroke-linecap:butt;stroke-linejoin:miter;stroke-opacity:1"
         id="path10697"
         inkscape:connector-curvature="0" />
    </g>
    <rect
       style="opacity:1;fill:#696969;fill-opacity:0.85098039;stroke:none;stroke-width:0.08573947;stroke-linecap:butt;stroke-linejoin:miter;stroke-miterlimit:4;stroke-dasharray:none;stroke-opacity:1;paint-order:normal"
       id="rect914"
       width="352"
       height="2"
       x="4"
       y="784.36212" />
  </g>
</svg>
