<?xml version="1.0" encoding="UTF-8" standalone="no"?>
<!-- Created with Inkscape (http://www.inkscape.org/) -->

<svg
   xmlns:dc="http://purl.org/dc/elements/1.1/"
   xmlns:cc="http://creativecommons.org/ns#"
   xmlns:rdf="http://www.w3.org/1999/02/22-rdf-syntax-ns#"
   xmlns:svg="http://www.w3.org/2000/svg"
   xmlns="http://www.w3.org/2000/svg"
   xmlns:sodipodi="http://sodipodi.sourceforge.net/DTD/sodipodi-0.dtd"
   xmlns:inkscape="http://www.inkscape.org/namespaces/inkscape"
   width="150"
   height="380"
   viewBox="0 0 39.6875 100.54167"
   version="1.1"
   id="svg8"
   inkscape:version="0.92.2 (5c3e80d, 2017-08-06)"
   sodipodi:docname="OctaTrig.svg"
   inkscape:export-filename="E:\Users\Martin\Documents\Rack_Source\Rack\plugins\ML-modules\res\Quantum.png"
   inkscape:export-xdpi="96"
   inkscape:export-ydpi="96">
  <sodipodi:namedview
     id="base"
     pagecolor="#ffffff"
     bordercolor="#666666"
     borderopacity="1.0"
     inkscape:pageopacity="0.0"
     inkscape:pageshadow="2"
     inkscape:zoom="4"
     inkscape:cx="2.787564"
     inkscape:cy="84.23549"
     inkscape:document-units="px"
     inkscape:current-layer="layer2"
     showgrid="true"
     units="px"
     fit-margin-top="0"
     fit-margin-left="0"
     fit-margin-right="0"
     fit-margin-bottom="0"
     showguides="true"
     inkscape:snap-to-guides="false"
     objecttolerance="20"
     inkscape:window-width="1666"
     inkscape:window-height="1127"
     inkscape:window-x="44"
     inkscape:window-y="3"
     inkscape:window-maximized="0"
     gridtolerance="17"
     inkscape:snap-perpendicular="false"
     inkscape:pagecheckerboard="true"
     inkscape:snap-page="false"
     inkscape:snap-text-baseline="true">
    <inkscape:grid
       empspacing="20"
       dotted="false"
       spacingy="0.52916668"
       spacingx="0.52916668"
       originy="100.54167"
       originx="-7.3436628e-018"
       id="grid43"
       type="xygrid" />
  </sodipodi:namedview>
  <defs
     id="defs2">
    <inkscape:perspective
       id="perspective4742"
       inkscape:persp3d-origin="15.875 : 33.51389 : 1"
       inkscape:vp_z="31.75 : 50.270835 : 1"
       inkscape:vp_y="0 : 1000 : 0"
       inkscape:vp_x="0 : 50.270835 : 1"
       sodipodi:type="inkscape:persp3d" />
  </defs>
  <metadata
     id="metadata5">
    <rdf:RDF>
      <cc:Work
         rdf:about="">
        <dc:format>image/svg+xml</dc:format>
        <dc:type
           rdf:resource="http://purl.org/dc/dcmitype/StillImage" />
        <dc:title></dc:title>
      </cc:Work>
    </rdf:RDF>
  </metadata>
  <g
     inkscape:label="Layer 2"
     id="layer2"
     inkscape:groupmode="layer"
     style="display:inline">
    <path
       style="fill:#9ca5c2;fill-opacity:1;stroke-width:0.30556914"
       d="M 0,-3.4195964e-6 H 39.6875 V 100.54167 H 0 Z"
       id="rect4689" />
    <g
       id="text4720"
       style="font-style:normal;font-variant:normal;font-weight:bold;font-stretch:normal;font-size:19.75555611px;line-height:1.25;font-family:Arial;-inkscape-font-specification:'Arial, Bold';font-variant-ligatures:normal;font-variant-caps:normal;font-variant-numeric:normal;font-feature-settings:normal;text-align:start;letter-spacing:0px;word-spacing:0px;writing-mode:lr-tb;text-anchor:start;fill:#000000;fill-opacity:1;stroke:none;stroke-width:0.26458335"
       aria-label="M" />
    <g
       style="fill:#000000;fill-opacity:1"
       transform="matrix(0.25,0,0,0.25,14.922503,74.612506)"
       id="g4799">
      <path
         style="fill:#000000;fill-opacity:1;stroke-width:0.22136623"
         d="m 15.874997,83.608337 h 0.529173 c 0.293156,0 0.529163,0.236007 0.529163,0.529163 v 13.758338 c 0,0.293156 -0.236007,0.529163 -0.529163,0.529163 h -0.529173 c -0.293156,0 -0.529163,-0.236007 -0.529163,-0.529163 V 84.1375 c 0,-0.293156 0.236007,-0.529163 0.529163,-0.529163 z"
         id="rect4736" />
      <path
         style="fill:#000000;fill-opacity:1;stroke-width:0.27422616"
         d="m 15.800585,96.605995 h 9.67383 c 0.251933,0 0.454752,0.202819 0.454752,0.454752 v 0.909507 c 0,0.251932 -0.202819,0.454752 -0.454752,0.454752 h -9.67383 c -0.251932,0 -0.454751,-0.20282 -0.454751,-0.454752 v -0.909507 c 0,-0.251933 0.202819,-0.454752 0.454751,-0.454752 z"
         id="rect4738" />
      <path
         style="fill:#000000;fill-opacity:1;stroke-width:0.22913586"
         d="m 24.87083,83.608337 h 0.529174 c 0.293156,0 0.529163,0.236007 0.529163,0.529163 v 10.583342 c 0,0.293156 -0.236007,0.529163 -0.529163,0.529163 H 24.87083 c -0.293156,0 -0.529163,-0.236007 -0.529163,-0.529163 V 84.1375 c 0,-0.293156 0.236007,-0.529163 0.529163,-0.529163 z"
         id="rect4759" />
      <path
         transform="matrix(1,0,0.54885411,0.83591816,0,0)"
         style="fill:#000000;fill-opacity:1;stroke-width:0.20552233"
         d="m -38.620555,100.01976 c 0.500459,0 0.903356,0.16683 0.903356,0.37406 v 7.48135 c 0,0.20723 -0.402897,0.37406 -0.903356,0.37406 -0.500459,0 -0.903356,-0.16683 -0.903356,-0.37406 v -7.48135 c 0,-0.20723 0.402897,-0.37406 0.903356,-0.37406 z"
         id="rect4759-7" />
      <path
         transform="matrix(1,0,0.55837942,-0.82958569,0,0)"
         style="fill:#000000;fill-opacity:1;stroke-width:0.20888054"
         d="m 81.410752,-109.07553 c 0.513032,0 0.92605,0.21132 0.92605,0.47381 v 7.34467 c 0,0.26249 -0.413018,0.47381 -0.92605,0.47381 -0.513031,0 -0.926049,-0.21132 -0.926049,-0.47381 v -7.34467 c 0,-0.26249 0.413018,-0.47381 0.926049,-0.47381 z"
         id="rect4759-7-3" />
    </g>
    <g
       style="font-style:normal;font-variant:normal;font-weight:normal;font-stretch:normal;font-size:2.82222247px;line-height:1.25;font-family:Arial;-inkscape-font-specification:'Arial, Normal';font-variant-ligatures:normal;font-variant-caps:normal;font-variant-numeric:normal;font-feature-settings:normal;text-align:start;letter-spacing:0px;word-spacing:0px;writing-mode:lr-tb;text-anchor:start;fill:#000000;fill-opacity:1;stroke:none;stroke-width:0.26458335"
       id="text989" />
    <g
       aria-label="OctaTrig"
       style="font-style:normal;font-variant:normal;font-weight:bold;font-stretch:normal;font-size:3.52777791px;line-height:1.25;font-family:Arial;-inkscape-font-specification:'Arial, Bold';font-variant-ligatures:normal;font-variant-caps:normal;font-variant-numeric:normal;font-feature-settings:normal;text-align:center;letter-spacing:0px;word-spacing:0px;writing-mode:lr-tb;text-anchor:middle;display:inline;fill:#000000;fill-opacity:1;stroke:none;stroke-width:0.26458335"
       id="text914-6">
      <path
         d="m 12.418844,5.6320186 q 0,-0.3858507 0.115411,-0.647678 0.08613,-0.1929253 0.234266,-0.3462321 0.149862,-0.1533067 0.327284,-0.2273763 0.23599,-0.099908 0.544326,-0.099908 0.558105,0 0.892279,0.3462321 0.335897,0.3462321 0.335897,0.9629042 0,0.6115045 -0.332452,0.9577366 -0.332451,0.3445095 -0.888834,0.3445095 -0.563273,0 -0.895725,-0.342787 -0.332452,-0.3445095 -0.332452,-0.9474013 z m 0.525377,-0.017226 q 0,0.4289145 0.198093,0.6511231 0.198093,0.2204861 0.502984,0.2204861 0.304891,0 0.499539,-0.2187635 0.196371,-0.2204862 0.196371,-0.6597358 0,-0.4340821 -0.191203,-0.647678 -0.189481,-0.2135959 -0.504707,-0.2135959 -0.315226,0 -0.508151,0.217041 -0.192926,0.2153185 -0.192926,0.651123 z"
         style=""
         id="path1491" />
      <path
         d="m 16.856127,5.5906775 -0.477145,0.086127 q -0.02412,-0.1429715 -0.110243,-0.2153185 -0.08441,-0.072347 -0.220486,-0.072347 -0.180868,0 -0.289389,0.125746 -0.106797,0.1240234 -0.106797,0.4168565 0,0.3255616 0.10852,0.4599203 0.110243,0.1343587 0.294556,0.1343587 0.137804,0 0.225653,-0.077515 0.08785,-0.079237 0.124024,-0.27044 l 0.475423,0.08096 q -0.07407,0.3272841 -0.28422,0.4943712 -0.210151,0.1670872 -0.563273,0.1670872 -0.401354,0 -0.640788,-0.2532145 -0.237712,-0.2532146 -0.237712,-0.701077 0,-0.4530301 0.239434,-0.7045221 0.239434,-0.2532145 0.647678,-0.2532145 0.334175,0 0.530545,0.144694 0.198093,0.1429715 0.28422,0.4375272 z"
         style=""
         id="path1493" />
      <path
         d="m 18.063634,5.0497975 v 0.3858507 h -0.33073 v 0.7372504 q 0,0.2239313 0.0086,0.2618273 0.01033,0.036174 0.04306,0.060289 0.03445,0.024116 0.08268,0.024116 0.06718,0 0.194648,-0.046509 l 0.04134,0.3755154 q -0.16881,0.072347 -0.382405,0.072347 -0.130914,0 -0.23599,-0.043064 -0.105075,-0.044786 -0.155029,-0.1136882 -0.04823,-0.070624 -0.06718,-0.1894802 -0.0155,-0.084405 -0.0155,-0.3410645 V 5.4356482 H 17.024937 V 5.0497975 h 0.222209 V 4.6863399 L 17.732904,4.403842 v 0.6459555 z"
         style=""
         id="path1495" />
      <path
         d="m 18.76471,5.607903 -0.439249,-0.079237 q 0.07407,-0.2652724 0.254937,-0.3927409 0.180867,-0.1274686 0.537435,-0.1274686 0.323839,0 0.482313,0.077515 0.158475,0.075792 0.222209,0.1946479 0.06546,0.1171332 0.06546,0.4323595 l -0.0052,0.5649957 q 0,0.2411566 0.02239,0.3565673 0.02412,0.1136882 0.08785,0.2446018 h -0.478868 q -0.01895,-0.048231 -0.04651,-0.1429714 -0.01206,-0.043064 -0.01723,-0.056844 -0.124023,0.1205783 -0.265272,0.1808675 -0.141249,0.060289 -0.301446,0.060289 -0.282498,0 -0.44614,-0.1533068 -0.161919,-0.1533067 -0.161919,-0.3875732 0,-0.1550293 0.07407,-0.2756077 0.07407,-0.1223009 0.206706,-0.1860351 0.134359,-0.065457 0.385851,-0.1136882 0.339342,-0.063734 0.470255,-0.1188558 v -0.048231 q 0,-0.1395264 -0.0689,-0.198093 -0.0689,-0.060289 -0.260105,-0.060289 -0.129191,0 -0.201538,0.051676 -0.07235,0.049954 -0.117134,0.1774225 z m 0.647678,0.3927409 q -0.09302,0.031006 -0.294555,0.07407 -0.201538,0.043064 -0.26355,0.084405 -0.09474,0.067179 -0.09474,0.1705322 0,0.1016303 0.07579,0.1756999 0.07579,0.07407 0.192925,0.07407 0.130914,0 0.24977,-0.086127 0.08785,-0.065457 0.11541,-0.1601969 0.01895,-0.062012 0.01895,-0.2359891 z"
         style=""
         id="path1497" />
      <path
         d="M 20.938566,6.8791432 V 4.78108 H 20.189258 V 4.3538882 h 2.006768 V 4.78108 H 21.44844 v 2.0980632 z"
         style=""
         id="path1499" />
      <path
         d="M 22.793749,6.8791432 H 22.309714 V 5.0497975 h 0.449585 v 0.2601047 q 0.11541,-0.1843126 0.206705,-0.2428793 0.09302,-0.058567 0.210151,-0.058567 0.165365,0 0.318671,0.091295 l -0.149861,0.4220242 q -0.122301,-0.079237 -0.227377,-0.079237 -0.10163,0 -0.172254,0.056844 -0.07062,0.055122 -0.111966,0.2015381 -0.03962,0.1464166 -0.03962,0.6132271 z"
         style=""
         id="path1501" />
      <path
         d="M 23.701532,4.8017506 V 4.3538882 h 0.484036 v 0.4478624 z m 0,2.0773926 V 5.0497975 h 0.484036 v 1.8293457 z"
         style=""
         id="path1503" />
      <path
         d="m 24.635153,6.9997216 0.552938,0.067179 q 0.01378,0.096463 0.06373,0.1326362 0.0689,0.051677 0.217041,0.051677 0.18948,0 0.28422,-0.056844 0.06374,-0.037896 0.09646,-0.1223009 0.02239,-0.060289 0.02239,-0.2222087 V 6.582865 q -0.217041,0.2962782 -0.54777,0.2962782 -0.368625,0 -0.583944,-0.3117811 -0.168809,-0.2463244 -0.168809,-0.613227 0,-0.4599203 0.220486,-0.7027995 0.222208,-0.2428793 0.551215,-0.2428793 0.339342,0 0.559828,0.2980008 V 5.0497975 h 0.45303 v 1.641588 q 0,0.323839 -0.0534,0.484036 -0.0534,0.1601969 -0.149862,0.2514919 -0.09646,0.091295 -0.258382,0.1429715 -0.160197,0.051676 -0.406521,0.051676 -0.465088,0 -0.659736,-0.1601969 Q 24.63343,7.30289 24.63343,7.0582882 q 0,-0.024116 0.0017,-0.058567 z m 0.432359,-1.0731473 q 0,0.2911106 0.111966,0.4271919 0.113688,0.1343587 0.279053,0.1343587 0.177422,0 0.299723,-0.1378038 0.122301,-0.1395264 0.122301,-0.411689 0,-0.2842204 -0.117133,-0.4220242 -0.117134,-0.1378038 -0.296279,-0.1378038 -0.173977,0 -0.287665,0.1360813 -0.111966,0.1343587 -0.111966,0.4116889 z"
         style=""
         id="path1505" />
    </g>
    <path
       style="fill:#fafafa;fill-opacity:1;stroke:none;stroke-width:0.46302083;stroke-linecap:square;stroke-linejoin:bevel;stroke-miterlimit:2;stroke-dasharray:none;stroke-opacity:1;paint-order:markers fill stroke"
       d="M 3.7041681,15.345827 H 35.98333 c 0.586316,0 1.058333,0.472017 1.058333,1.058333 v 5.820834 c 0,0.586316 -0.472017,1.058333 -1.058333,1.058333 H 3.7041681 c -0.5863167,0 -1.0583334,-0.472017 -1.0583334,-1.058333 V 16.40416 c 0,-0.586316 0.4720167,-1.058333 1.0583334,-1.058333 z"
       id="rect826" />
    <path
       style="display:inline;fill:#fafafa;fill-opacity:1;stroke:none;stroke-width:0.46302083;stroke-linecap:square;stroke-linejoin:bevel;stroke-miterlimit:2;stroke-dasharray:none;stroke-opacity:1;paint-order:markers fill stroke"
       d="M 3.7041678,23.812502 H 35.983329 c 0.586317,0 1.058334,0.472017 1.058334,1.058333 v 5.820834 c 0,0.586316 -0.472017,1.058333 -1.058334,1.058333 H 3.7041678 c -0.5863167,0 -1.0583334,-0.472017 -1.0583334,-1.058333 v -5.820834 c 0,-0.586316 0.4720167,-1.058333 1.0583334,-1.058333 z"
       id="rect826-6" />
    <path
       style="display:inline;fill:#fafafa;fill-opacity:1;stroke:none;stroke-width:0.46302083;stroke-linecap:square;stroke-linejoin:bevel;stroke-miterlimit:2;stroke-dasharray:none;stroke-opacity:1;paint-order:markers fill stroke"
       d="M 3.7041678,32.279175 H 35.983329 c 0.586317,0 1.058334,0.472016 1.058334,1.058333 v 5.820833 c 0,0.586317 -0.472017,1.058334 -1.058334,1.058334 H 3.7041678 c -0.5863167,0 -1.0583334,-0.472017 -1.0583334,-1.058334 v -5.820833 c 0,-0.586317 0.4720167,-1.058333 1.0583334,-1.058333 z"
       id="rect826-3" />
    <path
       style="display:inline;fill:#fafafa;fill-opacity:1;stroke:none;stroke-width:0.46302083;stroke-linecap:square;stroke-linejoin:bevel;stroke-miterlimit:2;stroke-dasharray:none;stroke-opacity:1;paint-order:markers fill stroke"
       d="M 3.7041678,40.74585 H 35.983329 c 0.586317,0 1.058334,0.472016 1.058334,1.058333 v 5.820833 c 0,0.586317 -0.472017,1.058334 -1.058334,1.058334 H 3.7041678 c -0.5863167,0 -1.0583334,-0.472017 -1.0583334,-1.058334 v -5.820833 c 0,-0.586317 0.4720167,-1.058333 1.0583334,-1.058333 z"
       id="rect826-4" />
    <path
       style="display:inline;fill:#fafafa;fill-opacity:1;stroke:none;stroke-width:0.46302083;stroke-linecap:square;stroke-linejoin:bevel;stroke-miterlimit:2;stroke-dasharray:none;stroke-opacity:1;paint-order:markers fill stroke"
       d="M 3.7041628,49.212505 H 35.983324 c 0.586317,0 1.058334,0.472017 1.058334,1.058334 v 5.820833 c 0,0.586317 -0.472017,1.058333 -1.058334,1.058333 H 3.7041628 c -0.5863167,0 -1.0583334,-0.472016 -1.0583334,-1.058333 v -5.820833 c 0,-0.586317 0.4720167,-1.058334 1.0583334,-1.058334 z"
       id="rect826-8" />
    <path
       style="display:inline;fill:#fafafa;fill-opacity:1;stroke:none;stroke-width:0.46302083;stroke-linecap:square;stroke-linejoin:bevel;stroke-miterlimit:2;stroke-dasharray:none;stroke-opacity:1;paint-order:markers fill stroke"
       d="M 3.7041628,57.67918 H 35.983324 c 0.586317,0 1.058334,0.472017 1.058334,1.058334 v 5.820833 c 0,0.586316 -0.472017,1.058333 -1.058334,1.058333 H 3.7041628 c -0.5863167,0 -1.0583334,-0.472017 -1.0583334,-1.058333 v -5.820833 c 0,-0.586317 0.4720167,-1.058334 1.0583334,-1.058334 z"
       id="rect826-5" />
    <path
       style="display:inline;fill:#fafafa;fill-opacity:1;stroke:none;stroke-width:0.46302083;stroke-linecap:square;stroke-linejoin:bevel;stroke-miterlimit:2;stroke-dasharray:none;stroke-opacity:1;paint-order:markers fill stroke"
       d="M 3.7041681,66.145836 H 35.98333 c 0.586316,0 1.058333,0.472017 1.058333,1.058333 v 5.820833 c 0,0.586317 -0.472017,1.058334 -1.058333,1.058334 H 3.7041681 c -0.5863167,0 -1.0583334,-0.472017 -1.0583334,-1.058334 v -5.820833 c 0,-0.586316 0.4720167,-1.058333 1.0583334,-1.058333 z"
       id="rect826-2" />
    <path
       style="display:inline;fill:#fafafa;fill-opacity:1;stroke:none;stroke-width:0.46302083;stroke-linecap:square;stroke-linejoin:bevel;stroke-miterlimit:2;stroke-dasharray:none;stroke-opacity:1;paint-order:markers fill stroke"
       d="M 3.7041681,74.612503 H 35.98333 c 0.586316,0 1.058333,0.472017 1.058333,1.058333 v 5.820834 c 0,0.586316 -0.472017,1.058333 -1.058333,1.058333 H 3.7041681 c -0.5863167,0 -1.0583334,-0.472017 -1.0583334,-1.058333 v -5.820834 c 0,-0.586316 0.4720167,-1.058333 1.0583334,-1.058333 z"
       id="rect826-37" />
    <g
       aria-label="Gate"
       style="font-style:normal;font-variant:normal;font-weight:bold;font-stretch:normal;font-size:2.82222223px;line-height:1.25;font-family:Arial;-inkscape-font-specification:'Arial, Bold';font-variant-ligatures:normal;font-variant-caps:normal;font-variant-numeric:normal;font-feature-settings:normal;text-align:start;letter-spacing:0px;word-spacing:0px;writing-mode:lr-tb;text-anchor:start;display:inline;fill:#fafafa;fill-opacity:1;stroke:none;stroke-width:0.26458335"
       id="text854-2">
      <path
         d="m 5.3784852,12.982498 v -0.340375 h 0.8791884 v 0.804774 q -0.1281575,0.124023 -0.3720703,0.219108 -0.2425347,0.09371 -0.4919596,0.09371 -0.3169488,0 -0.5525934,-0.132292 -0.2356445,-0.13367 -0.3541558,-0.380339 -0.1185113,-0.248046 -0.1185113,-0.538812 0,-0.315571 0.1322917,-0.560862 0.1322917,-0.245291 0.3872287,-0.376204 0.1943034,-0.100597 0.4836914,-0.100597 0.3762045,0 0.5870443,0.158474 0.2122179,0.157097 0.2728516,0.43546 l -0.4051432,0.07579 q -0.042719,-0.148828 -0.1612305,-0.234266 -0.1171333,-0.08682 -0.2935222,-0.08682 -0.2673394,0 -0.4258138,0.169499 -0.1570963,0.169499 -0.1570963,0.502984 0,0.359668 0.1598524,0.540191 0.1598525,0.179145 0.4189236,0.179145 0.1281576,0 0.2563151,-0.04961 0.1295356,-0.05099 0.2218642,-0.122646 v -0.256315 z"
         style=""
         id="path1516" />
      <path
         d="m 6.9191321,12.708269 -0.3513998,-0.06339 q 0.059256,-0.212218 0.2039497,-0.314193 0.144694,-0.101975 0.4299479,-0.101975 0.2590712,0 0.3858507,0.06201 0.1267795,0.06063 0.1777669,0.155718 0.052365,0.09371 0.052365,0.345888 l -0.00413,0.451996 q 0,0.192926 0.017914,0.285254 0.019293,0.09095 0.07028,0.195682 H 7.5185787 q -0.015158,-0.03858 -0.037207,-0.114377 -0.00965,-0.03445 -0.01378,-0.04548 -0.099219,0.09646 -0.2122179,0.144694 -0.1129992,0.04823 -0.2411567,0.04823 -0.2259983,0 -0.3569119,-0.122646 -0.1295356,-0.122645 -0.1295356,-0.310058 0,-0.124024 0.059256,-0.220486 0.059256,-0.09784 0.1653645,-0.148829 0.107487,-0.05236 0.3086806,-0.09095 0.2714735,-0.05099 0.3762044,-0.09509 v -0.03858 q 0,-0.111621 -0.055121,-0.158474 -0.055122,-0.04823 -0.2080838,-0.04823 -0.1033528,0 -0.1612304,0.04134 -0.057878,0.03996 -0.093707,0.141938 z m 0.5181423,0.314192 q -0.074414,0.02481 -0.2356445,0.05926 -0.1612305,0.03445 -0.2108399,0.06752 -0.075792,0.05374 -0.075792,0.136426 0,0.0813 0.060634,0.140559 0.060634,0.05926 0.1543403,0.05926 0.1047309,0 0.1998155,-0.0689 0.07028,-0.05236 0.092329,-0.128157 0.015158,-0.04961 0.015158,-0.188792 z"
         style=""
         id="path1518" />
      <path
         d="m 8.8718123,12.261784 v 0.308681 H 8.6072289 v 0.5898 q 0,0.179145 0.00689,0.209462 0.00827,0.02894 0.034451,0.04823 0.027561,0.01929 0.066146,0.01929 0.053743,0 0.1557183,-0.03721 l 0.033073,0.300412 q -0.1350477,0.05788 -0.3059244,0.05788 -0.1047309,0 -0.1887913,-0.03445 -0.08406,-0.03583 -0.1240234,-0.09095 -0.038585,-0.0565 -0.053743,-0.151584 -0.012402,-0.06752 -0.012402,-0.272852 v -0.638031 h -0.177767 v -0.308681 h 0.177767 V 11.971018 L 8.6072289,11.74502 v 0.516764 z"
         style=""
         id="path1520" />
      <path
         d="m 9.990779,13.259484 0.385851,0.06477 q -0.07441,0.212218 -0.235645,0.323839 -0.1598523,0.110243 -0.401009,0.110243 -0.3817165,0 -0.5649956,-0.249425 -0.144694,-0.199816 -0.144694,-0.504362 0,-0.363802 0.1901692,-0.56913 0.1901693,-0.206706 0.4809354,-0.206706 0.326595,0 0.515386,0.216352 0.188791,0.214974 0.180523,0.660081 H 9.4271614 q 0.00413,0.172254 0.093707,0.268717 0.089572,0.09509 0.2232422,0.09509 0.09095,0 0.1529622,-0.04961 0.062012,-0.04961 0.093707,-0.159852 z m 0.022049,-0.391363 Q 10.008693,12.7 9.9260112,12.613184 q -0.082682,-0.0882 -0.2011936,-0.0882 -0.1267795,0 -0.2094618,0.09233 -0.082682,0.09233 -0.081304,0.250803 z"
         style=""
         id="path1522" />
    </g>
    <g
       aria-label="Trigger Out"
       inkscape:transform-center-x="27.781251"
       inkscape:transform-center-y="42.862501"
       style="font-style:normal;font-variant:normal;font-weight:bold;font-stretch:normal;font-size:2.82222223px;line-height:1.25;font-family:Arial;-inkscape-font-specification:'Arial, Bold';font-variant-ligatures:normal;font-variant-caps:normal;font-variant-numeric:normal;font-feature-settings:normal;text-align:start;letter-spacing:0px;word-spacing:0px;writing-mode:lr-tb;text-anchor:start;display:inline;fill:#fafafa;fill-opacity:1;stroke:none;stroke-width:0.26458335"
       id="text854-2-5">
      <path
         d="m 18.651745,13.723883 v -1.678451 h -0.599446 v -0.341753 h 1.605414 v 0.341753 h -0.598069 v 1.678451 z"
         style=""
         id="path1525" />
      <path
         d="m 20.135892,13.723883 h -0.387228 v -1.463477 h 0.359668 v 0.208084 q 0.09233,-0.14745 0.165364,-0.194304 0.07441,-0.04685 0.168121,-0.04685 0.132291,0 0.254937,0.07304 l -0.119889,0.33762 q -0.09784,-0.06339 -0.181902,-0.06339 -0.0813,0 -0.137803,0.04548 -0.0565,0.0441 -0.08957,0.161231 -0.0317,0.117133 -0.0317,0.490581 z"
         style=""
         id="path1527" />
      <path
         d="m 20.862118,12.061969 v -0.35829 h 0.387229 v 0.35829 z m 0,1.661914 v -1.463477 h 0.387229 v 1.463477 z"
         style=""
         id="path1529" />
      <path
         d="m 21.609015,13.820345 0.442351,0.05374 q 0.01102,0.07717 0.05099,0.106109 0.05512,0.04134 0.173633,0.04134 0.151584,0 0.227376,-0.04548 0.05099,-0.03032 0.07717,-0.09784 0.01791,-0.04823 0.01791,-0.177767 V 13.48686 q -0.173633,0.237023 -0.438216,0.237023 -0.294901,0 -0.467155,-0.249425 -0.135048,-0.19706 -0.135048,-0.490582 0,-0.367936 0.176389,-0.562239 0.177767,-0.194304 0.440972,-0.194304 0.271474,0 0.447862,0.238401 v -0.205328 h 0.362424 v 1.313271 q 0,0.259071 -0.04272,0.387228 -0.04272,0.128158 -0.119889,0.201194 -0.07717,0.07304 -0.206706,0.114377 -0.128157,0.04134 -0.325217,0.04134 -0.37207,0 -0.527788,-0.128157 -0.155719,-0.12678 -0.155719,-0.322461 0,-0.01929 0.0014,-0.04685 z m 0.345888,-0.858517 q 0,0.232888 0.08957,0.341753 0.09095,0.107487 0.223243,0.107487 0.141937,0 0.239778,-0.110243 0.09784,-0.111621 0.09784,-0.329351 0,-0.227376 -0.09371,-0.33762 -0.09371,-0.110243 -0.237022,-0.110243 -0.139182,0 -0.230133,0.108865 -0.08957,0.107487 -0.08957,0.329352 z"
         style=""
         id="path1531" />
      <path
         d="m 23.334319,13.820345 0.44235,0.05374 q 0.01103,0.07717 0.05099,0.106109 0.05512,0.04134 0.173632,0.04134 0.151585,0 0.227377,-0.04548 0.05099,-0.03032 0.07717,-0.09784 0.01791,-0.04823 0.01791,-0.177767 V 13.48686 q -0.173632,0.237023 -0.438216,0.237023 -0.2949,0 -0.467155,-0.249425 -0.135047,-0.19706 -0.135047,-0.490582 0,-0.367936 0.176388,-0.562239 0.177767,-0.194304 0.440973,-0.194304 0.271473,0 0.447862,0.238401 v -0.205328 h 0.362424 v 1.313271 q 0,0.259071 -0.04272,0.387228 -0.04272,0.128158 -0.119889,0.201194 -0.07717,0.07304 -0.206706,0.114377 -0.128158,0.04134 -0.325217,0.04134 -0.37207,0 -0.527789,-0.128157 -0.155718,-0.12678 -0.155718,-0.322461 0,-0.01929 0.0014,-0.04685 z m 0.345888,-0.858517 q 0,0.232888 0.08957,0.341753 0.09095,0.107487 0.223242,0.107487 0.141938,0 0.239779,-0.110243 0.09784,-0.111621 0.09784,-0.329351 0,-0.227376 -0.09371,-0.33762 -0.09371,-0.110243 -0.237023,-0.110243 -0.139181,0 -0.230132,0.108865 -0.08957,0.107487 -0.08957,0.329352 z"
         style=""
         id="path1533" />
      <path
         d="m 25.942945,13.258106 0.385851,0.06477 q -0.07441,0.212217 -0.235645,0.323839 -0.159852,0.110243 -0.401009,0.110243 -0.381716,0 -0.564996,-0.249425 -0.144694,-0.199816 -0.144694,-0.504362 0,-0.363802 0.19017,-0.56913 0.190169,-0.206706 0.480935,-0.206706 0.326595,0 0.515386,0.216352 0.188792,0.214974 0.180523,0.66008 h -0.970139 q 0.0041,0.172255 0.09371,0.268718 0.08957,0.09508 0.223242,0.09508 0.09095,0 0.152962,-0.04961 0.06201,-0.04961 0.09371,-0.159852 z m 0.02205,-0.391363 q -0.0041,-0.168121 -0.08682,-0.254937 -0.08268,-0.08819 -0.201193,-0.08819 -0.12678,0 -0.209462,0.09233 -0.08268,0.09233 -0.0813,0.250803 z"
         style=""
         id="path1535" />
      <path
         d="m 27.037107,13.723883 h -0.387228 v -1.463477 h 0.359667 v 0.208084 q 0.09233,-0.14745 0.165365,-0.194304 0.07441,-0.04685 0.168121,-0.04685 0.132291,0 0.254937,0.07304 l -0.11989,0.33762 q -0.09784,-0.06339 -0.181901,-0.06339 -0.0813,0 -0.137803,0.04548 -0.0565,0.0441 -0.08957,0.161231 -0.0317,0.117133 -0.0317,0.490581 z"
         style=""
         id="path1537" />
      <path
         d="m 28.466133,12.726183 q 0,-0.308681 0.09233,-0.518142 0.0689,-0.154341 0.187413,-0.276986 0.119889,-0.122645 0.261827,-0.181901 0.188791,-0.07993 0.43546,-0.07993 0.446485,0 0.713824,0.276985 0.268717,0.276986 0.268717,0.770324 0,0.489203 -0.265961,0.766189 -0.265961,0.275608 -0.711068,0.275608 -0.450618,0 -0.716579,-0.27423 -0.265962,-0.275608 -0.265962,-0.757921 z m 0.420302,-0.01378 q 0,0.343131 0.158474,0.520898 0.158475,0.176389 0.402387,0.176389 0.243913,0 0.399631,-0.175011 0.157097,-0.176389 0.157097,-0.527789 0,-0.347265 -0.152962,-0.518142 -0.151585,-0.170877 -0.403766,-0.170877 -0.252181,0 -0.406521,0.173633 -0.15434,0.172255 -0.15434,0.520899 z"
         style=""
         id="path1539" />
      <path
         d="m 31.703145,13.723883 v -0.219108 q -0.07993,0.117133 -0.21084,0.184657 -0.129535,0.06752 -0.274229,0.06752 -0.14745,0 -0.264584,-0.06477 -0.117133,-0.06477 -0.169498,-0.181901 -0.05237,-0.117133 -0.05237,-0.323839 v -0.926042 h 0.387229 v 0.672483 q 0,0.30868 0.02067,0.37896 0.02205,0.0689 0.07855,0.110243 0.0565,0.03996 0.143316,0.03996 0.09922,0 0.177767,-0.05374 0.07855,-0.05512 0.107487,-0.135048 0.02894,-0.0813 0.02894,-0.395497 v -0.617361 h 0.387229 v 1.463477 z"
         style=""
         id="path1541" />
      <path
         d="m 33.136305,12.260406 v 0.308681 h -0.264584 v 0.5898 q 0,0.179145 0.0069,0.209462 0.0083,0.02894 0.03445,0.04823 0.02756,0.01929 0.06614,0.01929 0.05374,0 0.155719,-0.03721 l 0.03307,0.300412 q -0.135048,0.05788 -0.305925,0.05788 -0.104731,0 -0.188791,-0.03445 -0.08406,-0.03583 -0.124023,-0.09095 -0.03859,-0.0565 -0.05374,-0.151584 -0.0124,-0.06752 -0.0124,-0.272852 v -0.638031 h -0.177767 v -0.308681 h 0.177767 V 11.96964 l 0.388606,-0.225998 v 0.516764 z"
         style=""
         id="path1543" />
    </g>
    <path
       style="fill:none;stroke:#000000;stroke-width:0.26458335px;stroke-linecap:butt;stroke-linejoin:miter;stroke-opacity:1"
       d="m 15.874998,87.312501 h 1.058334 v -3.704167 h 1.058333"
       id="path899"
       inkscape:connector-curvature="0"
       sodipodi:nodetypes="cccc" />
    <path
       style="fill:none;stroke:#000000;stroke-width:0.26458335px;stroke-linecap:butt;stroke-linejoin:miter;stroke-opacity:1"
       d="m 23.812501,83.608335 h 1.058333 v 3.704167 h 1.058333"
       id="path902"
       inkscape:connector-curvature="0" />
    <path
       style="fill:none;stroke:#000000;stroke-width:0.26458335px;stroke-linecap:butt;stroke-linejoin:miter;stroke-opacity:1"
       d="m 30.162501,87.312502 h 1.058333 v -3.704167 h 1.058334"
       id="path904"
       inkscape:connector-curvature="0" />
    <path
       style="fill:none;stroke:#000000;stroke-width:0.26458335px;stroke-linecap:butt;stroke-linejoin:miter;stroke-opacity:1"
       d="m 32.808334,83.608335 h 1.058334 v 3.704167 h 1.058333"
       id="path906"
       inkscape:connector-curvature="0" />
  </g>
</svg>
