<?xml version="1.0" encoding="UTF-8" standalone="no"?>
<!-- Created with Inkscape (http://www.inkscape.org/) -->

<svg
   xmlns:dc="http://purl.org/dc/elements/1.1/"
   xmlns:cc="http://creativecommons.org/ns#"
   xmlns:rdf="http://www.w3.org/1999/02/22-rdf-syntax-ns#"
   xmlns:svg="http://www.w3.org/2000/svg"
   xmlns="http://www.w3.org/2000/svg"
   xmlns:sodipodi="http://sodipodi.sourceforge.net/DTD/sodipodi-0.dtd"
   xmlns:inkscape="http://www.inkscape.org/namespaces/inkscape"
   width="120"
   height="380"
   viewBox="0 0 31.75 100.54167"
   version="1.1"
   id="svg8"
   inkscape:version="0.92.2 (5c3e80d, 2017-08-06)"
   sodipodi:docname="Quantum.svg"
   inkscape:export-filename="E:\Users\Martin\Documents\Rack_Source\rack\plugins\ML_modules\res\Quantum.png"
   inkscape:export-xdpi="96"
   inkscape:export-ydpi="96">
  <defs
     id="defs2">
    <inkscape:perspective
       sodipodi:type="inkscape:persp3d"
       inkscape:vp_x="0 : 50.270835 : 1"
       inkscape:vp_y="0 : 1000 : 0"
       inkscape:vp_z="31.75 : 50.270835 : 1"
       inkscape:persp3d-origin="15.875 : 33.51389 : 1"
       id="perspective4742" />
  </defs>
  <sodipodi:namedview
     id="base"
     pagecolor="#ffffff"
     bordercolor="#666666"
     borderopacity="1.0"
     inkscape:pageopacity="0.0"
     inkscape:pageshadow="2"
     inkscape:zoom="11.313708"
     inkscape:cx="52.863578"
     inkscape:cy="347.43321"
     inkscape:document-units="px"
     inkscape:current-layer="layer1"
     showgrid="true"
     units="px"
     fit-margin-top="0"
     fit-margin-left="0"
     fit-margin-right="0"
     fit-margin-bottom="0"
     showguides="true"
     inkscape:snap-to-guides="false"
     objecttolerance="20"
     inkscape:window-width="1355"
     inkscape:window-height="1017"
     inkscape:window-x="435"
     inkscape:window-y="117"
     inkscape:window-maximized="0"
     gridtolerance="17"
     inkscape:snap-perpendicular="false"
     inkscape:pagecheckerboard="true"
     inkscape:snap-page="false"
     inkscape:snap-text-baseline="true">
    <inkscape:grid
       type="xygrid"
       id="grid43"
       originx="-7.3436628e-018"
       originy="100.54167"
       spacingx="0.52916668"
       spacingy="0.52916668"
       dotted="false"
       empspacing="20" />
  </sodipodi:namedview>
  <metadata
     id="metadata5">
    <rdf:RDF>
      <cc:Work
         rdf:about="">
        <dc:format>image/svg+xml</dc:format>
        <dc:type
           rdf:resource="http://purl.org/dc/dcmitype/StillImage" />
        <dc:title></dc:title>
      </cc:Work>
    </rdf:RDF>
  </metadata>
  <g
     inkscape:groupmode="layer"
     id="layer2"
     inkscape:label="Layer 2">
    <rect
       style="fill:#7c7c7c;fill-opacity:1;stroke-width:0.26458335"
       id="rect4667"
       width="23.8125"
       height="100.54167"
       x="-7.3436632e-018"
       y="-1.6666667e-006" />
    <path
       style="fill:#7c7c7c;fill-opacity:1;stroke-width:0.35355338"
       d="M 0.1193696,216.91378 V 54.102446 H 45.02065 89.921931 V 216.91378 379.72512 H 45.02065 0.1193696 Z m 50.1216984,93.07293 -0.09389,-9.98788 -5.038135,-0.0981 -5.038136,-0.0981 v -9.88979 -9.88979 h 5.132029 5.132032 l -0.0939,-9.98788 -0.09389,-9.98788 -5.038135,-0.0981 -5.038136,-0.0981 v -9.88009 -9.88008 l 5.038136,-0.0981 5.038135,-0.0981 v -19.97576 -19.97577 l -5.038135,-0.0981 -5.038136,-0.0981 v -9.70331 -9.7033 l 5.038136,-0.0981 5.038135,-0.0981 v -10.07627 -10.07627 l -5.038135,-0.0981 -5.038136,-0.0981 v -9.88979 -9.88979 h 5.132029 5.132032 l -0.0939,-9.98788 -0.09389,-9.98789 -5.038135,-0.0981 -5.038136,-0.0981 v -9.88008 -9.88008 l 5.038136,-0.09809 5.038135,-0.0981 V 89.988115 80.08862 L 35.032771,79.99644 19.918363,79.90425 v 10.080067 10.080073 h -4.949747 -4.949747 v 9.89949 9.8995 h 4.949747 4.949747 v 10.07627 10.07627 h -4.949747 -4.949747 v 9.89949 9.8995 h 4.949747 4.949747 v 10.07627 10.07627 h -4.949747 -4.949747 v 9.8995 9.89949 h 4.949747 4.949747 v 20.15255 20.15254 h -4.949747 -4.949747 v 9.89949 9.8995 h 4.949747 4.949747 v 10.07627 10.07627 h -4.949747 -4.949747 v 9.8995 9.89949 h 4.949747 4.949747 v 10.07627 10.07628 H 35.12666 50.334964 Z"
       id="path4669"
       inkscape:connector-curvature="0"
       transform="scale(0.26458334)" />
    <path
       style="fill:#7c7c7c;fill-opacity:1;stroke-width:0.35355338"
       d="M 0.1193696,216.91378 V 54.102446 H 45.02065 89.921931 V 216.91378 379.72512 H 45.02065 0.1193696 Z m 50.1216984,93.07293 -0.09389,-9.98788 -5.038135,-0.0981 -5.038136,-0.0981 v -9.88979 -9.88979 h 5.132029 5.132032 l -0.0939,-9.98788 -0.09389,-9.98788 -5.038135,-0.0981 -5.038136,-0.0981 v -9.88009 -9.88008 l 5.038136,-0.0981 5.038135,-0.0981 v -19.97576 -19.97577 l -5.038135,-0.0981 -5.038136,-0.0981 v -9.70331 -9.7033 l 5.038136,-0.0981 5.038135,-0.0981 v -10.07627 -10.07627 l -5.038135,-0.0981 -5.038136,-0.0981 v -9.88979 -9.88979 h 5.132029 5.132032 l -0.0939,-9.98788 -0.09389,-9.98789 -5.038135,-0.0981 -5.038136,-0.0981 v -9.88008 -9.88008 l 5.038136,-0.09809 5.038135,-0.0981 V 89.988115 80.08862 L 35.032771,79.99644 19.918363,79.90425 v 10.080067 10.080073 h -4.949747 -4.949747 v 9.89949 9.8995 h 4.949747 4.949747 v 10.07627 10.07627 h -4.949747 -4.949747 v 9.89949 9.8995 h 4.949747 4.949747 v 10.07627 10.07627 h -4.949747 -4.949747 v 9.8995 9.89949 h 4.949747 4.949747 v 20.15255 20.15254 h -4.949747 -4.949747 v 9.89949 9.8995 h 4.949747 4.949747 v 10.07627 10.07627 h -4.949747 -4.949747 v 9.8995 9.89949 h 4.949747 4.949747 v 10.07627 10.07628 H 35.12666 50.334964 Z"
       id="path4671"
       inkscape:connector-curvature="0"
       transform="scale(0.26458334)" />
    <path
       style="fill:#7c7c7c;fill-opacity:1;stroke-width:0.35355338"
       d="M 0.1193696,216.91378 V 54.102446 H 45.02065 89.921931 V 216.91378 379.72512 H 45.02065 0.1193696 Z m 50.1216984,93.07293 -0.09389,-9.98788 -5.038135,-0.0981 -5.038136,-0.0981 v -9.88979 -9.88979 h 5.132029 5.132032 l -0.0939,-9.98788 -0.09389,-9.98788 -5.038135,-0.0981 -5.038136,-0.0981 v -9.88009 -9.88008 l 5.038136,-0.0981 5.038135,-0.0981 v -19.97576 -19.97577 l -5.038135,-0.0981 -5.038136,-0.0981 v -9.70331 -9.7033 l 5.038136,-0.0981 5.038135,-0.0981 v -10.07627 -10.07627 l -5.038135,-0.0981 -5.038136,-0.0981 v -9.88979 -9.88979 h 5.132029 5.132032 l -0.0939,-9.98788 -0.09389,-9.98789 -5.038135,-0.0981 -5.038136,-0.0981 v -9.88008 -9.88008 l 5.038136,-0.09809 5.038135,-0.0981 V 89.988115 80.08862 L 35.032771,79.99644 19.918363,79.90425 v 10.080067 10.080073 h -4.949747 -4.949747 v 9.89949 9.8995 h 4.949747 4.949747 v 10.07627 10.07627 h -4.949747 -4.949747 v 9.89949 9.8995 h 4.949747 4.949747 v 10.07627 10.07627 h -4.949747 -4.949747 v 9.8995 9.89949 h 4.949747 4.949747 v 20.15255 20.15254 h -4.949747 -4.949747 v 9.89949 9.8995 h 4.949747 4.949747 v 10.07627 10.07627 h -4.949747 -4.949747 v 9.8995 9.89949 h 4.949747 4.949747 v 10.07627 10.07628 H 35.12666 50.334964 Z"
       id="path4673"
       inkscape:connector-curvature="0"
       transform="scale(0.26458334)" />
    <path
       style="fill:#7c7c7c;fill-opacity:1;stroke-width:0.35355338"
       d="M 0.1193696,216.91378 V 54.102446 H 45.02065 89.921931 V 216.91378 379.72512 H 45.02065 0.1193696 Z m 50.1216984,93.07293 -0.09389,-9.98788 -5.038135,-0.0981 -5.038136,-0.0981 v -9.88979 -9.88979 h 5.132029 5.132032 l -0.0939,-9.98788 -0.09389,-9.98788 -5.038135,-0.0981 -5.038136,-0.0981 v -9.88009 -9.88008 l 5.038136,-0.0981 5.038135,-0.0981 v -19.97576 -19.97577 l -5.038135,-0.0981 -5.038136,-0.0981 v -9.70331 -9.7033 l 5.038136,-0.0981 5.038135,-0.0981 v -10.07627 -10.07627 l -5.038135,-0.0981 -5.038136,-0.0981 v -9.88979 -9.88979 h 5.132029 5.132032 l -0.0939,-9.98788 -0.09389,-9.98789 -5.038135,-0.0981 -5.038136,-0.0981 v -9.88008 -9.88008 l 5.038136,-0.09809 5.038135,-0.0981 V 89.988115 80.08862 L 35.032771,79.99644 19.918363,79.90425 v 10.080067 10.080073 h -4.949747 -4.949747 v 9.89949 9.8995 h 4.949747 4.949747 v 10.07627 10.07627 h -4.949747 -4.949747 v 9.89949 9.8995 h 4.949747 4.949747 v 10.07627 10.07627 h -4.949747 -4.949747 v 9.8995 9.89949 h 4.949747 4.949747 v 20.15255 20.15254 h -4.949747 -4.949747 v 9.89949 9.8995 h 4.949747 4.949747 v 10.07627 10.07627 h -4.949747 -4.949747 v 9.8995 9.89949 h 4.949747 4.949747 v 10.07627 10.07628 H 35.12666 50.334964 Z"
       id="path4675"
       inkscape:connector-curvature="0"
       transform="scale(0.26458334)" />
    <path
       style="fill:#7c7c7c;fill-opacity:1;stroke-width:0.35355338"
       d="M 0.1193696,216.91378 V 54.102446 H 45.02065 89.921931 V 216.91378 379.72512 H 45.02065 0.1193696 Z m 50.1216984,93.07293 -0.09389,-9.98788 -5.038135,-0.0981 -5.038136,-0.0981 v -9.88979 -9.88979 h 5.132029 5.132032 l -0.0939,-9.98788 -0.09389,-9.98788 -5.038135,-0.0981 -5.038136,-0.0981 v -9.88009 -9.88008 l 5.038136,-0.0981 5.038135,-0.0981 v -19.97576 -19.97577 l -5.038135,-0.0981 -5.038136,-0.0981 v -9.70331 -9.7033 l 5.038136,-0.0981 5.038135,-0.0981 v -10.07627 -10.07627 l -5.038135,-0.0981 -5.038136,-0.0981 v -9.88979 -9.88979 h 5.132029 5.132032 l -0.0939,-9.98788 -0.09389,-9.98789 -5.038135,-0.0981 -5.038136,-0.0981 v -9.88008 -9.88008 l 5.038136,-0.09809 5.038135,-0.0981 V 89.988115 80.08862 L 35.032771,79.99644 19.918363,79.90425 v 10.080067 10.080073 h -4.949747 -4.949747 v 9.89949 9.8995 h 4.949747 4.949747 v 10.07627 10.07627 h -4.949747 -4.949747 v 9.89949 9.8995 h 4.949747 4.949747 v 10.07627 10.07627 h -4.949747 -4.949747 v 9.8995 9.89949 h 4.949747 4.949747 v 20.15255 20.15254 h -4.949747 -4.949747 v 9.89949 9.8995 h 4.949747 4.949747 v 10.07627 10.07627 h -4.949747 -4.949747 v 9.8995 9.89949 h 4.949747 4.949747 v 10.07627 10.07628 H 35.12666 50.334964 Z"
       id="path4677"
       inkscape:connector-curvature="0"
       transform="scale(0.26458334)" />
    <rect
       style="fill:#9ca5c2;fill-opacity:1;stroke-width:0.30556914"
       id="rect4689"
       width="31.761351"
       height="100.54167"
       x="-0.011348541"
       y="-6.2806193e-006" />
    <rect
       id="rect26-7-3-4-6-26"
       width="10.583334"
       height="11.641665"
       x="17.991667"
       y="23.283333"
       style="fill:#808080;fill-opacity:1;stroke-width:0.49940801"
       ry="0.97013831" />
    <rect
       id="rect26-7-3-4-6-4"
       width="8.4666662"
       height="5.8208375"
       x="3.1750014"
       y="40.745834"
       style="fill:#474747;fill-opacity:1;stroke-width:0.31585351"
       ry="0.87464869" />
    <rect
       id="rect26-7-3-4-6-3"
       width="8.4666672"
       height="5.8208375"
       x="5.291667"
       y="46.566666"
       style="fill:#ffffff;fill-opacity:1;stroke-width:0.31585351"
       ry="0.87464869" />
    <rect
       id="rect26-7-3-4-6-2"
       width="8.4666662"
       height="5.8208375"
       x="3.1750014"
       y="52.387501"
       style="fill:#474747;fill-opacity:1;stroke-width:0.31585351"
       ry="0.87464869" />
    <rect
       id="rect26-7-3-4-6-07"
       width="8.4666672"
       height="5.8208375"
       x="5.291667"
       y="58.208336"
       style="fill:#ffffff;fill-opacity:1;stroke-width:0.31585351"
       ry="0.87464869" />
    <rect
       id="rect26-7-3-4-6-5"
       width="8.4666672"
       height="5.8208375"
       x="5.291667"
       y="64.029167"
       style="fill:#ffffff;fill-opacity:1;stroke-width:0.31585351"
       ry="0.87464869" />
    <rect
       id="rect26-7-3-4-6-97"
       width="8.4666662"
       height="5.8208375"
       x="3.1750014"
       y="69.849998"
       style="fill:#474747;fill-opacity:1;stroke-width:0.31585351"
       ry="0.87464869" />
    <rect
       id="rect26-7-3-4-6-7"
       width="8.4666672"
       height="5.8208375"
       x="5.0774798"
       y="75.667313"
       style="fill:#ffffff;fill-opacity:1;stroke-width:0.31585351"
       ry="0.87464869" />
    <rect
       id="rect26-7-3-4-6-6"
       width="8.4666662"
       height="5.8208375"
       x="3.1750014"
       y="81.491669"
       style="fill:#474747;fill-opacity:1;stroke-width:0.31585351"
       ry="0.87464869" />
    <rect
       id="rect26-7-3-4-6-73"
       width="8.4666672"
       height="5.8208375"
       x="5.291667"
       y="87.3125"
       style="fill:#ffffff;fill-opacity:1;stroke-width:0.31585351"
       ry="0.87464869" />
    <g
       aria-label="M"
       style="font-style:normal;font-variant:normal;font-weight:bold;font-stretch:normal;font-size:19.75555611px;line-height:1.25;font-family:Arial;-inkscape-font-specification:'Arial, Bold';font-variant-ligatures:normal;font-variant-caps:normal;font-variant-numeric:normal;font-feature-settings:normal;text-align:start;letter-spacing:0px;word-spacing:0px;writing-mode:lr-tb;text-anchor:start;fill:#000000;fill-opacity:1;stroke:none;stroke-width:0.26458335"
       id="text4720" />
    <g
       id="g4799"
       transform="matrix(0.25,0,0,0.25,10.715625,74.612506)"
       style="fill:#000000;fill-opacity:1">
      <rect
         ry="0.52916306"
         y="83.608337"
         x="15.345834"
         height="14.816664"
         width="1.5874993"
         id="rect4736"
         style="fill:#000000;fill-opacity:1;stroke-width:0.22136623" />
      <rect
         ry="0.45475155"
         y="96.605995"
         x="15.345834"
         height="1.8190105"
         width="10.583333"
         id="rect4738"
         style="fill:#000000;fill-opacity:1;stroke-width:0.27422616" />
      <rect
         ry="0.52916306"
         y="83.608337"
         x="24.341667"
         height="11.641667"
         width="1.5874995"
         id="rect4759"
         style="fill:#000000;fill-opacity:1;stroke-width:0.22913586" />
      <rect
         rx="0.90335584"
         transform="matrix(1,0,0.54885411,0.83591816,0,0)"
         ry="0.3740643"
         y="100.01976"
         x="-39.523911"
         height="8.2294703"
         width="1.8067117"
         id="rect4759-7"
         style="fill:#000000;fill-opacity:1;stroke-width:0.20552233" />
      <rect
         rx="0.92604923"
         transform="matrix(1,0,0.55837942,-0.82958569,0,0)"
         ry="0.47381043"
         y="-109.07553"
         x="80.484703"
         height="8.2922926"
         width="1.8520985"
         id="rect4759-7-3"
         style="fill:#000000;fill-opacity:1;stroke-width:0.20888054" />
    </g>
    <rect
       id="rect26-7-3-4-6-26-3"
       width="10.583334"
       height="21.695831"
       x="17.991665"
       y="35.983334"
       style="fill:#808080;fill-opacity:1;stroke-width:0.68176723"
       ry="0.96425706" />
    <g
       aria-label="Trigger
"
       style="font-style:normal;font-variant:normal;font-weight:bold;font-stretch:normal;font-size:2.11666679px;line-height:1.25;font-family:Arial;-inkscape-font-specification:'Arial, Bold';font-variant-ligatures:normal;font-variant-caps:normal;font-variant-numeric:normal;font-feature-settings:normal;text-align:center;letter-spacing:0px;word-spacing:0px;writing-mode:lr-tb;text-anchor:middle;fill:#ffffff;fill-opacity:1;stroke:none;stroke-width:0.26458335"
       id="text857-0">
      <path
         d="m 19.925396,56.09166 v -1.258838 h -0.449585 v -0.256316 h 1.204061 v 0.256316 H 20.23132 v 1.258838 z"
         style=""
         id="path966" />
      <path
         d="m 21.038506,56.09166 h -0.290421 v -1.097608 h 0.269751 v 0.156063 q 0.06925,-0.110588 0.124023,-0.145728 0.05581,-0.03514 0.126091,-0.03514 0.09922,0 0.191203,0.05478 l -0.08992,0.253215 q -0.07338,-0.04754 -0.136426,-0.04754 -0.06098,0 -0.103353,0.03411 -0.04237,0.03307 -0.06718,0.120923 -0.02377,0.08785 -0.02377,0.367936 z"
         style=""
         id="path968" />
      <path
         d="m 21.583176,54.845224 v -0.268718 h 0.290422 v 0.268718 z m 0,1.246436 v -1.097608 h 0.290422 v 1.097608 z"
         style=""
         id="path970" />
      <path
         d="m 22.143349,56.164007 0.331762,0.04031 q 0.0083,0.05788 0.03824,0.07958 0.04134,0.03101 0.130224,0.03101 0.113689,0 0.170533,-0.03411 0.03824,-0.02274 0.05788,-0.07338 0.01344,-0.03617 0.01344,-0.133325 v -0.160197 q -0.130224,0.177767 -0.328662,0.177767 -0.221175,0 -0.350366,-0.187069 -0.101286,-0.147795 -0.101286,-0.367936 0,-0.275953 0.132292,-0.42168 0.133325,-0.145728 0.330729,-0.145728 0.203605,0 0.335897,0.178801 v -0.153996 h 0.271818 v 0.984953 q 0,0.194303 -0.03204,0.290421 -0.03204,0.09612 -0.08992,0.150896 -0.05788,0.05478 -0.155029,0.08578 -0.09612,0.03101 -0.243913,0.03101 -0.279052,0 -0.395841,-0.09612 -0.116789,-0.09508 -0.116789,-0.241845 0,-0.01447 0.001,-0.03514 z m 0.259415,-0.643889 q 0,0.174667 0.06718,0.256315 0.06821,0.08062 0.167431,0.08062 0.106454,0 0.179834,-0.08268 0.07338,-0.08372 0.07338,-0.247013 0,-0.170532 -0.07028,-0.253215 -0.07028,-0.08268 -0.177767,-0.08268 -0.104386,0 -0.172599,0.08165 -0.06718,0.08062 -0.06718,0.247013 z"
         style=""
         id="path972" />
      <path
         d="m 23.437327,56.164007 0.331762,0.04031 q 0.0083,0.05788 0.03824,0.07958 0.04134,0.03101 0.130224,0.03101 0.113689,0 0.170533,-0.03411 0.03824,-0.02274 0.05788,-0.07338 0.01344,-0.03617 0.01344,-0.133325 v -0.160197 q -0.130224,0.177767 -0.328662,0.177767 -0.221175,0 -0.350366,-0.187069 -0.101286,-0.147795 -0.101286,-0.367936 0,-0.275953 0.132292,-0.42168 0.133325,-0.145728 0.330729,-0.145728 0.203605,0 0.335897,0.178801 v -0.153996 h 0.271818 v 0.984953 q 0,0.194303 -0.03204,0.290421 -0.03204,0.09612 -0.08992,0.150896 -0.05788,0.05478 -0.155029,0.08578 -0.09612,0.03101 -0.243913,0.03101 -0.279052,0 -0.395841,-0.09612 -0.116789,-0.09508 -0.116789,-0.241845 0,-0.01447 0.001,-0.03514 z m 0.259415,-0.643889 q 0,0.174667 0.06718,0.256315 0.06821,0.08062 0.167431,0.08062 0.106454,0 0.179834,-0.08268 0.07338,-0.08372 0.07338,-0.247013 0,-0.170532 -0.07028,-0.253215 -0.07028,-0.08268 -0.177767,-0.08268 -0.104386,0 -0.172599,0.08165 -0.06718,0.08062 -0.06718,0.247013 z"
         style=""
         id="path974" />
      <path
         d="m 25.393796,55.742327 0.289388,0.04858 q -0.05581,0.159163 -0.176733,0.242879 -0.119889,0.08268 -0.300757,0.08268 -0.286287,0 -0.423747,-0.187068 -0.10852,-0.149862 -0.10852,-0.378272 0,-0.272852 0.142627,-0.426847 0.142627,-0.15503 0.360701,-0.15503 0.244947,0 0.38654,0.162264 0.141594,0.161231 0.135392,0.495061 h -0.727604 q 0.0031,0.129191 0.07028,0.201538 0.06718,0.07131 0.167432,0.07131 0.06821,0 0.114721,-0.03721 0.04651,-0.03721 0.07028,-0.119889 z m 0.01654,-0.293522 q -0.0031,-0.126091 -0.06511,-0.191203 -0.06201,-0.06615 -0.150896,-0.06615 -0.09508,0 -0.157096,0.06925 -0.06201,0.06925 -0.06098,0.188103 z"
         style=""
         id="path976" />
      <path
         d="m 26.214418,56.09166 h -0.290421 v -1.097608 h 0.269751 v 0.156063 q 0.06925,-0.110588 0.124023,-0.145728 0.05581,-0.03514 0.126091,-0.03514 0.09922,0 0.191202,0.05478 l -0.08992,0.253215 q -0.07338,-0.04754 -0.136425,-0.04754 -0.06098,0 -0.103353,0.03411 -0.04237,0.03307 -0.06718,0.120923 -0.02377,0.08785 -0.02377,0.367936 z"
         style=""
         id="path978" />
    </g>
    <g
       aria-label="Gate

"
       style="font-style:normal;font-variant:normal;font-weight:bold;font-stretch:normal;font-size:2.11666679px;line-height:1.25;font-family:Arial;-inkscape-font-specification:'Arial, Bold';font-variant-ligatures:normal;font-variant-caps:normal;font-variant-numeric:normal;font-feature-settings:normal;text-align:center;letter-spacing:0px;word-spacing:0px;writing-mode:lr-tb;text-anchor:middle;fill:#ffffff;fill-opacity:1;stroke:none;stroke-width:0.26458335"
       id="text857-0-6">
      <path
         d="m 21.741047,44.793518 v -0.255282 h 0.659391 v 0.603581 q -0.09612,0.09302 -0.279053,0.164331 -0.181901,0.07028 -0.368969,0.07028 -0.237712,0 -0.414446,-0.09922 -0.176733,-0.100252 -0.265616,-0.285254 -0.08888,-0.186035 -0.08888,-0.404109 0,-0.236679 0.09922,-0.420647 0.09922,-0.183968 0.290421,-0.282153 0.145728,-0.07545 0.362769,-0.07545 0.282153,0 0.440283,0.118856 0.159164,0.117823 0.204639,0.326595 l -0.303857,0.05684 q -0.03204,-0.111621 -0.120923,-0.175699 -0.08785,-0.06511 -0.220142,-0.06511 -0.200505,0 -0.31936,0.127124 -0.117823,0.127124 -0.117823,0.377238 0,0.269751 0.11989,0.405143 0.119889,0.134359 0.314192,0.134359 0.09612,0 0.192237,-0.03721 0.09715,-0.03824 0.166398,-0.09198 v -0.192236 z"
         style=""
         id="path957" />
      <path
         d="m 22.896532,44.587846 -0.26355,-0.04754 q 0.04444,-0.159163 0.152962,-0.235644 0.108521,-0.07648 0.322461,-0.07648 0.194304,0 0.289388,0.04651 0.09509,0.04548 0.133325,0.116789 0.03927,0.07028 0.03927,0.259416 l -0.0031,0.338997 q 0,0.144694 0.01344,0.213941 0.01447,0.06821 0.05271,0.146761 h -0.287321 q -0.01137,-0.02894 -0.02791,-0.08578 -0.0072,-0.02584 -0.01034,-0.03411 -0.07441,0.07235 -0.159163,0.108521 -0.08475,0.03617 -0.180868,0.03617 -0.169498,0 -0.267684,-0.09198 -0.09715,-0.09198 -0.09715,-0.232544 0,-0.09302 0.04444,-0.165364 0.04444,-0.07338 0.124024,-0.111621 0.08062,-0.03927 0.23151,-0.06821 0.203605,-0.03824 0.282154,-0.07131 v -0.02894 q 0,-0.08372 -0.04134,-0.118856 -0.04134,-0.03617 -0.156062,-0.03617 -0.07751,0 -0.120923,0.03101 -0.04341,0.02997 -0.07028,0.106454 z m 0.388607,0.235644 q -0.05581,0.0186 -0.176734,0.04444 -0.120923,0.02584 -0.15813,0.05064 -0.05684,0.04031 -0.05684,0.102319 0,0.06098 0.04548,0.10542 0.04547,0.04444 0.115755,0.04444 0.07855,0 0.149861,-0.05168 0.05271,-0.03927 0.06925,-0.09612 0.01137,-0.03721 0.01137,-0.141593 z"
         style=""
         id="path959" />
      <path
         d="m 24.361042,44.252982 v 0.231511 h -0.198437 v 0.44235 q 0,0.134359 0.0052,0.157096 0.0062,0.0217 0.02584,0.03617 0.02067,0.01447 0.04961,0.01447 0.04031,0 0.116789,-0.02791 l 0.0248,0.225309 q -0.101286,0.04341 -0.229443,0.04341 -0.07855,0 -0.141594,-0.02584 -0.06304,-0.02687 -0.09302,-0.06821 -0.02894,-0.04237 -0.04031,-0.113688 -0.0093,-0.05064 -0.0093,-0.204639 v -0.478523 h -0.133325 v -0.231511 h 0.133325 v -0.218074 l 0.291456,-0.169499 v 0.387573 z"
         style=""
         id="path961" />
      <path
         d="m 25.200267,45.001257 0.289389,0.04858 q -0.05581,0.159163 -0.176734,0.242879 -0.119889,0.08268 -0.300757,0.08268 -0.286287,0 -0.423747,-0.187068 -0.10852,-0.149862 -0.10852,-0.378272 0,-0.272851 0.142627,-0.426847 0.142627,-0.155029 0.360701,-0.155029 0.244947,0 0.38654,0.162264 0.141594,0.16123 0.135392,0.49506 h -0.727604 q 0.0031,0.129191 0.07028,0.201538 0.06718,0.07131 0.167432,0.07131 0.06821,0 0.114722,-0.03721 0.04651,-0.03721 0.07028,-0.119889 z m 0.01654,-0.293522 q -0.0031,-0.126091 -0.06511,-0.191203 -0.06201,-0.06615 -0.150896,-0.06615 -0.09508,0 -0.157096,0.06925 -0.06201,0.06925 -0.06098,0.188102 z"
         style=""
         id="path963" />
    </g>
    <g
       aria-label="Trans"
       style="font-style:normal;font-variant:normal;font-weight:bold;font-stretch:normal;font-size:2.11666679px;line-height:1.25;font-family:Arial;-inkscape-font-specification:'Arial, Bold';font-variant-ligatures:normal;font-variant-caps:normal;font-variant-numeric:normal;font-feature-settings:normal;text-align:center;letter-spacing:0px;word-spacing:0px;writing-mode:lr-tb;text-anchor:middle;fill:#ffffff;fill-opacity:1;stroke:none;stroke-width:0.26458335"
       id="text857">
      <path
         d="M 20.991672,32.102688 V 30.84385 h -0.449585 v -0.256315 h 1.204061 v 0.256315 h -0.448552 v 1.258838 z"
         style=""
         id="path946" />
      <path
         d="M 22.104782,32.102688 H 21.814361 V 31.00508 h 0.269751 v 0.156063 q 0.06925,-0.110587 0.124023,-0.145727 0.05581,-0.03514 0.126091,-0.03514 0.09922,0 0.191202,0.05478 l -0.08992,0.253214 q -0.07338,-0.04754 -0.136425,-0.04754 -0.06098,0 -0.103353,0.03411 -0.04237,0.03307 -0.06718,0.120923 -0.02377,0.08785 -0.02377,0.367936 z"
         style=""
         id="path948" />
      <path
         d="m 22.866493,31.339944 -0.26355,-0.04754 q 0.04444,-0.159163 0.152962,-0.235644 0.108521,-0.07648 0.322461,-0.07648 0.194304,0 0.289388,0.04651 0.09508,0.04548 0.133326,0.116789 0.03927,0.07028 0.03927,0.259416 l -0.0031,0.338997 q 0,0.144694 0.01344,0.213941 0.01447,0.06821 0.05271,0.146761 h -0.287321 q -0.01137,-0.02894 -0.02791,-0.08578 -0.0072,-0.02584 -0.01034,-0.03411 -0.07441,0.07235 -0.159163,0.10852 -0.08475,0.03617 -0.180868,0.03617 -0.169498,0 -0.267684,-0.09199 -0.09715,-0.09198 -0.09715,-0.232543 0,-0.09302 0.04444,-0.165365 0.04444,-0.07338 0.124023,-0.111621 0.08061,-0.03927 0.23151,-0.06821 0.203606,-0.03824 0.282154,-0.07131 v -0.02894 q 0,-0.08372 -0.04134,-0.118856 -0.04134,-0.03617 -0.156063,-0.03617 -0.07751,0 -0.120923,0.03101 -0.04341,0.02997 -0.07028,0.106454 z m 0.388607,0.235644 q -0.05581,0.0186 -0.176734,0.04444 -0.120923,0.02584 -0.15813,0.05064 -0.05684,0.04031 -0.05684,0.102319 0,0.06098 0.04548,0.10542 0.04548,0.04444 0.115755,0.04444 0.07855,0 0.149862,-0.05168 0.05271,-0.03927 0.06925,-0.09612 0.01137,-0.03721 0.01137,-0.141593 z"
         style=""
         id="path950" />
      <path
         d="m 24.826063,32.102688 h -0.290421 v -0.560173 q 0,-0.177767 -0.0186,-0.229443 -0.0186,-0.05271 -0.06098,-0.08165 -0.04134,-0.02894 -0.100252,-0.02894 -0.07545,0 -0.135393,0.04134 -0.05994,0.04134 -0.08268,0.109555 -0.0217,0.06821 -0.0217,0.252181 v 0.497127 H 23.825608 V 31.00508 h 0.269751 v 0.161231 q 0.14366,-0.186035 0.361735,-0.186035 0.09612,0 0.175699,0.03514 0.07958,0.03411 0.11989,0.08785 0.04134,0.05374 0.05684,0.121956 0.01654,0.06821 0.01654,0.195337 z"
         style=""
         id="path952" />
      <path
         d="m 25.019333,31.789529 0.291456,-0.04444 q 0.0186,0.08475 0.07545,0.129191 0.05684,0.04341 0.159164,0.04341 0.112654,0 0.169498,-0.04134 0.03824,-0.02894 0.03824,-0.07752 0,-0.03307 -0.02067,-0.05478 -0.0217,-0.02067 -0.09715,-0.03824 -0.3514,-0.07751 -0.445451,-0.141594 -0.130225,-0.08888 -0.130225,-0.247013 0,-0.142627 0.112655,-0.239779 0.112654,-0.09715 0.349332,-0.09715 0.22531,0 0.334864,0.07338 0.109554,0.07338 0.150895,0.217041 l -0.273885,0.05064 q -0.01757,-0.06408 -0.06718,-0.09819 -0.04857,-0.03411 -0.139526,-0.03411 -0.114722,0 -0.164331,0.03204 -0.03307,0.02274 -0.03307,0.05891 0,0.03101 0.02894,0.05271 0.03927,0.02894 0.270784,0.08165 0.232544,0.05271 0.324528,0.129191 0.09095,0.07751 0.09095,0.216007 0,0.150895 -0.126091,0.259416 -0.12609,0.108521 -0.373103,0.108521 -0.224276,0 -0.355534,-0.09095 -0.130225,-0.09095 -0.170533,-0.247013 z"
         style=""
         id="path954" />
    </g>
    <g
       aria-label="pose"
       style="font-style:normal;font-variant:normal;font-weight:bold;font-stretch:normal;font-size:2.11666679px;line-height:1.25;font-family:Arial;-inkscape-font-specification:'Arial, Bold';font-variant-ligatures:normal;font-variant-caps:normal;font-variant-numeric:normal;font-feature-settings:normal;text-align:center;letter-spacing:0px;word-spacing:0px;writing-mode:lr-tb;text-anchor:middle;fill:#ffffff;fill-opacity:1;stroke:none;stroke-width:0.26458335"
       id="text857-4">
      <path
         d="m 21.087281,32.592582 h 0.270784 v 0.16123 q 0.05271,-0.08268 0.142627,-0.134358 0.08992,-0.05168 0.199471,-0.05168 0.191203,0 0.324528,0.149862 0.133326,0.149862 0.133326,0.417545 0,0.274919 -0.134359,0.427881 -0.134359,0.151929 -0.325562,0.151929 -0.09095,0 -0.165364,-0.03617 -0.07338,-0.03617 -0.15503,-0.124024 v 0.552938 h -0.290421 z m 0.287321,0.5302 q 0,0.185002 0.07338,0.273885 0.07338,0.08785 0.178801,0.08785 0.101286,0 0.168465,-0.08061 0.06718,-0.08165 0.06718,-0.26665 0,-0.1726 -0.06925,-0.256316 -0.06925,-0.08371 -0.171566,-0.08371 -0.106453,0 -0.176733,0.08268 -0.07028,0.08165 -0.07028,0.242879 z"
         style=""
         id="path937" />
      <path
         d="m 22.322348,33.125883 q 0,-0.144694 0.07131,-0.280087 0.07131,-0.135392 0.201538,-0.206705 0.131258,-0.07131 0.292489,-0.07131 0.24908,0 0.408244,0.162264 0.159163,0.161231 0.159163,0.408244 0,0.24908 -0.16123,0.413412 -0.160197,0.163297 -0.40411,0.163297 -0.150895,0 -0.288355,-0.06821 -0.136425,-0.06821 -0.207739,-0.199471 -0.07131,-0.132292 -0.07131,-0.321427 z m 0.297656,0.0155 q 0,0.163297 0.07751,0.250114 0.07751,0.08682 0.191202,0.08682 0.113689,0 0.19017,-0.08682 0.07751,-0.08682 0.07751,-0.252181 0,-0.161231 -0.07751,-0.248047 -0.07648,-0.08682 -0.19017,-0.08682 -0.113688,0 -0.191202,0.08682 -0.07751,0.08682 -0.07751,0.250114 z"
         style=""
         id="path939" />
      <path
         d="m 23.581186,33.37703 0.291455,-0.04444 q 0.0186,0.08475 0.07545,0.129192 0.05685,0.04341 0.159164,0.04341 0.112654,0 0.169499,-0.04134 0.03824,-0.02894 0.03824,-0.07751 0,-0.03307 -0.02067,-0.05478 -0.02171,-0.02067 -0.09715,-0.03824 -0.3514,-0.07751 -0.445451,-0.141593 -0.130225,-0.08888 -0.130225,-0.247013 0,-0.142627 0.112655,-0.239779 0.112655,-0.09715 0.349333,-0.09715 0.225309,0 0.334863,0.07338 0.109554,0.07338 0.150895,0.217041 l -0.273885,0.05064 q -0.01757,-0.06408 -0.06718,-0.09819 -0.04858,-0.03411 -0.139527,-0.03411 -0.114721,0 -0.164331,0.03204 -0.03307,0.02274 -0.03307,0.05891 0,0.03101 0.02894,0.05271 0.03927,0.02894 0.270785,0.08165 0.232544,0.05271 0.324528,0.129191 0.09095,0.07751 0.09095,0.216008 0,0.150895 -0.12609,0.259416 -0.126091,0.10852 -0.373104,0.10852 -0.224276,0 -0.355534,-0.09095 -0.130225,-0.09095 -0.170532,-0.247014 z"
         style=""
         id="path941" />
      <path
         d="m 25.497348,33.340857 0.289388,0.04858 q -0.05581,0.159163 -0.176733,0.242879 -0.11989,0.08268 -0.300757,0.08268 -0.286288,0 -0.423747,-0.187069 -0.108521,-0.149861 -0.108521,-0.378271 0,-0.272852 0.142627,-0.426848 0.142627,-0.155029 0.360702,-0.155029 0.244946,0 0.38654,0.162264 0.141593,0.161231 0.135392,0.49506 h -0.727604 q 0.0031,0.129192 0.07028,0.201539 0.06718,0.07131 0.167431,0.07131 0.06821,0 0.114722,-0.03721 0.04651,-0.03721 0.07028,-0.119889 z m 0.01654,-0.293522 q -0.0031,-0.126091 -0.06511,-0.191203 -0.06201,-0.06615 -0.150895,-0.06615 -0.09509,0 -0.157097,0.06925 -0.06201,0.06925 -0.06098,0.188103 z"
         style=""
         id="path943" />
    </g>
    <rect
       id="rect26-7-3-4-6-26-7"
       width="10.583334"
       height="11.641665"
       x="17.991667"
       y="81.491722"
       style="fill:#808080;fill-opacity:1;stroke-width:0.49940801"
       ry="0.97013831" />
    <g
       aria-label="Reset
"
       style="font-style:normal;font-variant:normal;font-weight:bold;font-stretch:normal;font-size:2.11666679px;line-height:1.25;font-family:Arial;-inkscape-font-specification:'Arial, Bold';font-variant-ligatures:normal;font-variant-caps:normal;font-variant-numeric:normal;font-feature-settings:normal;text-align:center;letter-spacing:0px;word-spacing:0px;writing-mode:lr-tb;text-anchor:middle;fill:#ffffff;fill-opacity:1;stroke:none;stroke-width:0.26458335"
       id="text857-0-1">
      <path
         d="m 20.288168,92.074989 v -1.515153 h 0.643889 q 0.242879,0 0.352433,0.04134 0.110588,0.04031 0.176733,0.144694 0.06615,0.104387 0.06615,0.238746 0,0.170532 -0.100252,0.282153 -0.100252,0.110587 -0.299723,0.139526 0.09922,0.05788 0.163297,0.127124 0.06511,0.06925 0.174666,0.24598 l 0.185002,0.295589 H 21.28449 l -0.221175,-0.329695 q -0.117822,-0.176734 -0.161231,-0.222209 -0.04341,-0.04651 -0.09198,-0.06304 -0.04858,-0.01757 -0.153995,-0.01757 h -0.06201 v 0.632519 z m 0.305925,-0.874365 h 0.226343 q 0.220141,0 0.274918,-0.0186 0.05478,-0.0186 0.08578,-0.06408 0.03101,-0.04548 0.03101,-0.113688 0,-0.07648 -0.04134,-0.12299 -0.04031,-0.04754 -0.114722,-0.05994 -0.03721,-0.0052 -0.223242,-0.0052 h -0.238745 z"
         style=""
         id="path926" />
      <path
         d="m 22.45031,91.725657 0.289388,0.04857 q -0.05581,0.159164 -0.176733,0.24288 -0.119889,0.08268 -0.300757,0.08268 -0.286287,0 -0.423747,-0.187069 -0.10852,-0.149861 -0.10852,-0.378271 0,-0.272852 0.142627,-0.426848 0.142627,-0.155029 0.360701,-0.155029 0.244947,0 0.38654,0.162264 0.141593,0.161231 0.135392,0.49506 h -0.727604 q 0.0031,0.129191 0.07028,0.201538 0.06718,0.07131 0.167432,0.07131 0.06821,0 0.114721,-0.03721 0.04651,-0.03721 0.07028,-0.119889 z m 0.01654,-0.293523 q -0.0031,-0.12609 -0.06511,-0.191202 -0.06201,-0.06615 -0.150895,-0.06615 -0.09508,0 -0.157096,0.06925 -0.06201,0.06925 -0.06098,0.188102 z"
         style=""
         id="path928" />
      <path
         d="m 22.890594,91.76183 0.291455,-0.04444 q 0.0186,0.08475 0.07545,0.129191 0.05684,0.04341 0.159164,0.04341 0.112654,0 0.169498,-0.04134 0.03824,-0.02894 0.03824,-0.07752 0,-0.03307 -0.02067,-0.05478 -0.0217,-0.02067 -0.09715,-0.03824 -0.3514,-0.07751 -0.445451,-0.141593 -0.130225,-0.08888 -0.130225,-0.247013 0,-0.142627 0.112655,-0.239779 0.112654,-0.09715 0.349333,-0.09715 0.225309,0 0.334863,0.07338 0.109554,0.07338 0.150895,0.217041 l -0.273885,0.05064 q -0.01757,-0.06408 -0.06718,-0.09819 -0.04858,-0.03411 -0.139527,-0.03411 -0.114722,0 -0.164331,0.03204 -0.03307,0.02274 -0.03307,0.05891 0,0.03101 0.02894,0.05271 0.03927,0.02894 0.270785,0.08165 0.232543,0.05271 0.324528,0.129191 0.09095,0.07752 0.09095,0.216008 0,0.150895 -0.12609,0.259415 -0.126091,0.108521 -0.373104,0.108521 -0.224276,0 -0.355534,-0.09095 -0.130225,-0.09095 -0.170532,-0.247013 z"
         style=""
         id="path930" />
      <path
         d="m 24.806756,91.725657 0.289388,0.04857 q -0.05581,0.159164 -0.176734,0.24288 -0.119889,0.08268 -0.300756,0.08268 -0.286288,0 -0.423747,-0.187069 -0.108521,-0.149861 -0.108521,-0.378271 0,-0.272852 0.142627,-0.426848 0.142627,-0.155029 0.360702,-0.155029 0.244946,0 0.386539,0.162264 0.141594,0.161231 0.135393,0.49506 h -0.727605 q 0.0031,0.129191 0.07028,0.201538 0.06718,0.07131 0.167432,0.07131 0.06821,0 0.114722,-0.03721 0.04651,-0.03721 0.07028,-0.119889 z m 0.01654,-0.293523 q -0.0031,-0.12609 -0.06511,-0.191202 -0.06201,-0.06615 -0.150895,-0.06615 -0.09509,0 -0.157097,0.06925 -0.06201,0.06925 -0.06098,0.188102 z"
         style=""
         id="path932" />
      <path
         d="m 25.852687,90.977382 v 0.23151 H 25.65425 v 0.442351 q 0,0.134358 0.0052,0.157096 0.0062,0.0217 0.02584,0.03617 0.02067,0.01447 0.04961,0.01447 0.04031,0 0.116789,-0.02791 l 0.0248,0.225309 q -0.101285,0.04341 -0.229443,0.04341 -0.07855,0 -0.141593,-0.02584 -0.06305,-0.02687 -0.09302,-0.06821 -0.02894,-0.04237 -0.04031,-0.113688 -0.0093,-0.05064 -0.0093,-0.204639 v -0.478524 h -0.133326 v -0.23151 h 0.133326 v -0.218075 l 0.291455,-0.169498 v 0.387573 z"
         style=""
         id="path934" />
    </g>
    <rect
       id="rect26-7-3-4-6-26-3-9"
       width="10.583334"
       height="21.695831"
       x="17.991661"
       y="58.737514"
       style="fill:#808080;fill-opacity:1;stroke-width:0.68176723"
       ry="0.96425706" />
    <g
       aria-label="Note
"
       style="font-style:normal;font-variant:normal;font-weight:bold;font-stretch:normal;font-size:2.11666679px;line-height:1.25;font-family:Arial;-inkscape-font-specification:'Arial, Bold';font-variant-ligatures:normal;font-variant-caps:normal;font-variant-numeric:normal;font-feature-settings:normal;text-align:center;letter-spacing:0px;word-spacing:0px;writing-mode:lr-tb;text-anchor:middle;fill:#ffffff;fill-opacity:1;stroke:none;stroke-width:0.26458335"
       id="text857-0-6-2">
      <path
         d="m 21.039279,68.633942 v -1.515153 h 0.297656 l 0.620117,1.011824 v -1.011824 h 0.284221 v 1.515153 h -0.306958 l -0.610816,-0.988054 v 0.988054 z"
         style=""
         id="path917" />
      <path
         d="m 22.496554,68.069635 q 0,-0.144694 0.07131,-0.280086 0.07131,-0.135393 0.201538,-0.206706 0.131258,-0.07131 0.292488,-0.07131 0.249081,0 0.408244,0.162264 0.159164,0.161231 0.159164,0.408244 0,0.249081 -0.161231,0.413412 -0.160197,0.163297 -0.40411,0.163297 -0.150895,0 -0.288354,-0.06821 -0.136426,-0.06821 -0.207739,-0.199471 -0.07131,-0.132291 -0.07131,-0.321427 z m 0.297656,0.0155 q 0,0.163297 0.07752,0.250114 0.07751,0.08682 0.191203,0.08682 0.113688,0 0.190169,-0.08682 0.07751,-0.08682 0.07751,-0.252181 0,-0.161231 -0.07751,-0.248047 -0.07648,-0.08682 -0.190169,-0.08682 -0.113688,0 -0.191203,0.08682 -0.07752,0.08682 -0.07752,0.250114 z"
         style=""
         id="path919" />
      <path
         d="m 24.36104,67.536334 v 0.231511 h -0.198438 v 0.44235 q 0,0.134359 0.0052,0.157096 0.0062,0.0217 0.02584,0.03617 0.02067,0.01447 0.04961,0.01447 0.04031,0 0.116788,-0.02791 l 0.02481,0.225309 q -0.101286,0.04341 -0.229443,0.04341 -0.07855,0 -0.141594,-0.02584 -0.06305,-0.02687 -0.09302,-0.06821 -0.02894,-0.04237 -0.04031,-0.113688 -0.0093,-0.05064 -0.0093,-0.204639 v -0.478523 h -0.133325 v -0.231511 h 0.133325 V 67.31826 l 0.291455,-0.169499 v 0.387573 z"
         style=""
         id="path921" />
      <path
         d="m 25.200265,68.284609 0.289388,0.04858 q -0.05581,0.159163 -0.176733,0.242879 -0.119889,0.08268 -0.300757,0.08268 -0.286287,0 -0.423747,-0.187068 -0.10852,-0.149862 -0.10852,-0.378272 0,-0.272851 0.142627,-0.426847 0.142627,-0.15503 0.360701,-0.15503 0.244947,0 0.38654,0.162264 0.141593,0.161231 0.135392,0.495061 h -0.727604 q 0.0031,0.129191 0.07028,0.201538 0.06718,0.07131 0.167432,0.07131 0.06821,0 0.114721,-0.03721 0.04651,-0.03721 0.07028,-0.119889 z m 0.01654,-0.293522 q -0.0031,-0.126091 -0.06511,-0.191203 -0.06201,-0.06615 -0.150895,-0.06615 -0.09508,0 -0.157096,0.06925 -0.06201,0.06925 -0.06098,0.188102 z"
         style=""
         id="path923" />
    </g>
    <g
       aria-label="Toggle

"
       style="font-style:normal;font-variant:normal;font-weight:bold;font-stretch:normal;font-size:2.11666679px;line-height:1.25;font-family:Arial;-inkscape-font-specification:'Arial, Bold';font-variant-ligatures:normal;font-variant-caps:normal;font-variant-numeric:normal;font-feature-settings:normal;text-align:center;letter-spacing:0px;word-spacing:0px;writing-mode:lr-tb;text-anchor:middle;fill:#ffffff;fill-opacity:1;stroke:none;stroke-width:0.26458335"
       id="text857-0-6-1">
      <path
         d="m 20.386354,79.375 v -1.258838 h -0.449585 v -0.256315 h 1.204061 v 0.256315 H 20.692278 V 79.375 Z"
         style=""
         id="path904" />
      <path
         d="m 21.112924,78.810693 q 0,-0.144694 0.07131,-0.280086 0.07131,-0.135392 0.201538,-0.206706 0.131258,-0.07131 0.292489,-0.07131 0.24908,0 0.408243,0.162264 0.159164,0.16123 0.159164,0.408244 0,0.24908 -0.161231,0.413411 -0.160197,0.163298 -0.404109,0.163298 -0.150895,0 -0.288355,-0.06821 -0.136426,-0.06821 -0.207739,-0.199471 -0.07131,-0.132292 -0.07131,-0.321428 z m 0.297657,0.0155 q 0,0.163298 0.07751,0.250114 0.07751,0.08682 0.191203,0.08682 0.113688,0 0.190169,-0.08682 0.07751,-0.08682 0.07751,-0.252181 0,-0.16123 -0.07751,-0.248047 -0.07648,-0.08682 -0.190169,-0.08682 -0.113688,0 -0.191203,0.08682 -0.07751,0.08682 -0.07751,0.250114 z"
         style=""
         id="path906" />
      <path
         d="m 22.44721,79.447347 0.331763,0.04031 q 0.0083,0.05788 0.03824,0.07958 0.04134,0.03101 0.130225,0.03101 0.113688,0 0.170532,-0.03411 0.03824,-0.02274 0.05788,-0.07338 0.01344,-0.03617 0.01344,-0.133325 V 79.197233 Q 23.059059,79.375 22.860622,79.375 q -0.221176,0 -0.350367,-0.187069 -0.101286,-0.147794 -0.101286,-0.367936 0,-0.275952 0.132292,-0.42168 0.133325,-0.145727 0.330729,-0.145727 0.203606,0 0.335897,0.1788 v -0.153995 h 0.271818 v 0.984952 q 0,0.194304 -0.03204,0.290422 -0.03204,0.09612 -0.08992,0.150895 -0.05788,0.05478 -0.155029,0.08578 -0.09612,0.03101 -0.243913,0.03101 -0.279053,0 -0.395842,-0.09612 -0.116788,-0.09508 -0.116788,-0.241846 0,-0.01447 0.001,-0.03514 z m 0.259416,-0.643888 q 0,0.174666 0.06718,0.256315 0.06821,0.08061 0.167432,0.08061 0.106453,0 0.179834,-0.08268 0.07338,-0.08372 0.07338,-0.247014 0,-0.170532 -0.07028,-0.253214 -0.07028,-0.08268 -0.177767,-0.08268 -0.104386,0 -0.172599,0.08165 -0.06718,0.08062 -0.06718,0.247014 z"
         style=""
         id="path908" />
      <path
         d="m 23.741188,79.447347 0.331763,0.04031 q 0.0083,0.05788 0.03824,0.07958 0.04134,0.03101 0.130225,0.03101 0.113688,0 0.170532,-0.03411 0.03824,-0.02274 0.05788,-0.07338 0.01344,-0.03617 0.01344,-0.133325 V 79.197233 Q 24.353037,79.375 24.1546,79.375 q -0.221176,0 -0.350367,-0.187069 -0.101286,-0.147794 -0.101286,-0.367936 0,-0.275952 0.132292,-0.42168 0.133325,-0.145727 0.330729,-0.145727 0.203605,0 0.335897,0.1788 v -0.153995 h 0.271818 v 0.984952 q 0,0.194304 -0.03204,0.290422 -0.03204,0.09612 -0.08992,0.150895 -0.05788,0.05478 -0.155029,0.08578 -0.09612,0.03101 -0.243913,0.03101 -0.279053,0 -0.395842,-0.09612 -0.116789,-0.09508 -0.116789,-0.241846 0,-0.01447 0.001,-0.03514 z m 0.259416,-0.643888 q 0,0.174666 0.06718,0.256315 0.06821,0.08061 0.167432,0.08061 0.106453,0 0.179834,-0.08268 0.07338,-0.08372 0.07338,-0.247014 0,-0.170532 -0.07028,-0.253214 -0.07028,-0.08268 -0.177767,-0.08268 -0.104386,0 -0.172599,0.08165 -0.06718,0.08062 -0.06718,0.247014 z"
         style=""
         id="path910" />
      <path
         d="m 25.062038,79.375 v -1.515153 h 0.290421 V 79.375 Z"
         style=""
         id="path912" />
      <path
         d="m 26.284702,79.025667 0.289388,0.04858 q -0.05581,0.159164 -0.176733,0.242879 -0.11989,0.08268 -0.300757,0.08268 -0.286288,0 -0.423747,-0.187069 -0.10852,-0.149862 -0.10852,-0.378272 0,-0.272851 0.142627,-0.426847 0.142627,-0.155029 0.360701,-0.155029 0.244946,0 0.38654,0.162264 0.141593,0.16123 0.135392,0.49506 h -0.727604 q 0.0031,0.129191 0.07028,0.201538 0.06718,0.07131 0.167432,0.07131 0.06821,0 0.114721,-0.03721 0.04651,-0.03721 0.07028,-0.11989 z m 0.01654,-0.293522 q -0.0031,-0.12609 -0.06511,-0.191203 -0.06201,-0.06615 -0.150895,-0.06615 -0.09509,0 -0.157096,0.06925 -0.06201,0.06925 -0.06098,0.188102 z"
         style=""
         id="path914" />
    </g>
  </g>
  <g
     inkscape:label="Layer 1"
     inkscape:groupmode="layer"
     id="layer1"
     transform="translate(0,-196.45832)">
    <g
       aria-label="Quantum"
       style="font-style:normal;font-variant:normal;font-weight:bold;font-stretch:normal;font-size:3.52777791px;line-height:1.25;font-family:Arial;-inkscape-font-specification:'Arial, Bold';font-variant-ligatures:normal;font-variant-caps:normal;font-variant-numeric:normal;font-feature-settings:normal;text-align:start;letter-spacing:0px;word-spacing:0px;writing-mode:lr-tb;text-anchor:start;fill:#000000;fill-opacity:1;stroke:none;stroke-width:0.26458335"
       id="text3757">
      <path
         d="m 10.226766,203.01708 q 0.187758,0.13436 0.408244,0.2136 l -0.187758,0.36001 q -0.115411,-0.0344 -0.225654,-0.0947 -0.02412,-0.012 -0.3393415,-0.22393 -0.2480469,0.10852 -0.5494928,0.10852 -0.5822211,0 -0.9129503,-0.34278 -0.3290066,-0.34279 -0.3290066,-0.96291 0,-0.61839 0.3307291,-0.96118 0.3307292,-0.34451 0.8974474,-0.34451 0.5615506,0 0.8905577,0.34451 0.329006,0.34279 0.329006,0.96118 0,0.32729 -0.09129,0.57533 -0.0689,0.18948 -0.220486,0.3669 z m -0.4099663,-0.28766 q 0.098185,-0.11541 0.1464165,-0.27905 0.049954,-0.16365 0.049954,-0.37552 0,-0.43753 -0.1929252,-0.65284 -0.1929254,-0.21705 -0.5047066,-0.21705 -0.3117811,0 -0.506429,0.21705 -0.1929254,0.21704 -0.1929254,0.65284 0,0.4427 0.1929254,0.66318 0.1946479,0.21877 0.4909261,0.21877 0.1102431,0 0.2084283,-0.0362 -0.1550293,-0.10163 -0.3152262,-0.15847 l 0.1429714,-0.29111 q 0.251492,0.0861 0.4805909,0.25838 z"
         style="font-style:normal;font-variant:normal;font-weight:bold;font-stretch:normal;font-size:3.52777791px;font-family:Arial;-inkscape-font-specification:'Arial, Bold';font-variant-ligatures:normal;font-variant-caps:normal;font-variant-numeric:normal;font-feature-settings:normal;text-align:start;writing-mode:lr-tb;text-anchor:start;stroke-width:0.26458335"
         id="path889" />
      <path
         d="m 12.137072,203.33748 v -0.27389 q -0.09991,0.14642 -0.26355,0.23082 -0.16192,0.0844 -0.342787,0.0844 -0.184313,0 -0.330729,-0.081 -0.146417,-0.081 -0.211874,-0.22738 -0.06546,-0.14641 -0.06546,-0.4048 v -1.15755 h 0.484036 v 0.84061 q 0,0.38585 0.02584,0.4737 0.02756,0.0861 0.09818,0.1378 0.07062,0.0499 0.179145,0.0499 0.124023,0 0.222208,-0.0672 0.09819,-0.0689 0.134359,-0.16881 0.03617,-0.10163 0.03617,-0.49438 v -0.7717 h 0.484036 v 1.82935 z"
         style="font-style:normal;font-variant:normal;font-weight:bold;font-stretch:normal;font-size:3.52777791px;font-family:Arial;-inkscape-font-specification:'Arial, Bold';font-variant-ligatures:normal;font-variant-caps:normal;font-variant-numeric:normal;font-feature-settings:normal;text-align:start;writing-mode:lr-tb;text-anchor:start;stroke-width:0.26458335"
         id="path891" />
      <path
         d="m 13.451375,202.06624 -0.439249,-0.0792 q 0.07407,-0.26527 0.254937,-0.39274 0.180867,-0.12747 0.537435,-0.12747 0.323839,0 0.482313,0.0775 0.158474,0.0758 0.222209,0.19464 0.06546,0.11714 0.06546,0.43236 l -0.0052,0.565 q 0,0.24116 0.02239,0.35657 0.02412,0.11369 0.08785,0.2446 h -0.478868 q -0.01895,-0.0482 -0.04651,-0.14297 -0.01206,-0.0431 -0.01723,-0.0568 -0.124023,0.12058 -0.265272,0.18087 -0.141249,0.0603 -0.301446,0.0603 -0.282498,0 -0.44614,-0.15331 -0.161919,-0.1533 -0.161919,-0.38757 0,-0.15503 0.07407,-0.27561 0.07407,-0.1223 0.206706,-0.18603 0.134359,-0.0655 0.385851,-0.11369 0.339342,-0.0637 0.470255,-0.11886 v -0.0482 q 0,-0.13952 -0.0689,-0.19809 -0.0689,-0.0603 -0.260104,-0.0603 -0.129191,0 -0.201538,0.0517 -0.07235,0.0499 -0.117134,0.17742 z m 0.647678,0.39274 q -0.09302,0.031 -0.294555,0.0741 -0.201538,0.0431 -0.26355,0.0844 -0.09474,0.0672 -0.09474,0.17054 0,0.10163 0.07579,0.1757 0.07579,0.0741 0.192925,0.0741 0.130914,0 0.24977,-0.0861 0.08785,-0.0655 0.11541,-0.1602 0.01895,-0.062 0.01895,-0.23599 z"
         style="font-style:normal;font-variant:normal;font-weight:bold;font-stretch:normal;font-size:3.52777791px;font-family:Arial;-inkscape-font-specification:'Arial, Bold';font-variant-ligatures:normal;font-variant-caps:normal;font-variant-numeric:normal;font-feature-settings:normal;text-align:start;writing-mode:lr-tb;text-anchor:start;stroke-width:0.26458335"
         id="path893" />
      <path
         d="M 16.717326,203.33748 H 16.23329 v -0.93362 q 0,-0.29628 -0.03101,-0.38241 -0.03101,-0.0878 -0.10163,-0.13608 -0.0689,-0.0482 -0.167087,-0.0482 -0.125746,0 -0.225654,0.0689 -0.09991,0.0689 -0.137804,0.18259 -0.03617,0.11369 -0.03617,0.4203 v 0.82855 H 15.0499 v -1.82935 h 0.449585 v 0.26872 q 0.239434,-0.31006 0.602892,-0.31006 0.160196,0 0.292833,0.0586 0.132636,0.0568 0.199815,0.14641 0.0689,0.0896 0.09474,0.20327 0.02756,0.11368 0.02756,0.32556 z"
         style="font-style:normal;font-variant:normal;font-weight:bold;font-stretch:normal;font-size:3.52777791px;font-family:Arial;-inkscape-font-specification:'Arial, Bold';font-variant-ligatures:normal;font-variant-caps:normal;font-variant-numeric:normal;font-feature-settings:normal;text-align:start;writing-mode:lr-tb;text-anchor:start;stroke-width:0.26458335"
         id="path895" />
      <path
         d="m 18.048856,201.50813 v 0.38585 h -0.330729 v 0.73725 q 0,0.22394 0.0086,0.26183 0.01034,0.0362 0.04306,0.0603 0.03445,0.0241 0.08268,0.0241 0.06718,0 0.194648,-0.0465 l 0.04134,0.37551 q -0.168809,0.0724 -0.382405,0.0724 -0.130914,0 -0.235989,-0.0431 -0.105076,-0.0448 -0.15503,-0.11369 -0.04823,-0.0706 -0.06718,-0.18948 -0.0155,-0.0844 -0.0155,-0.34107 v -0.79754 h -0.222209 v -0.38585 h 0.222209 v -0.36345 l 0.485759,-0.2825 v 0.64595 z"
         style="font-style:normal;font-variant:normal;font-weight:bold;font-stretch:normal;font-size:3.52777791px;font-family:Arial;-inkscape-font-specification:'Arial, Bold';font-variant-ligatures:normal;font-variant-caps:normal;font-variant-numeric:normal;font-feature-settings:normal;text-align:start;writing-mode:lr-tb;text-anchor:start;stroke-width:0.26458335"
         id="path897" />
      <path
         d="m 19.592259,203.33748 v -0.27389 q -0.09991,0.14642 -0.26355,0.23082 -0.16192,0.0844 -0.342787,0.0844 -0.184313,0 -0.330729,-0.081 -0.146417,-0.081 -0.211874,-0.22738 -0.06546,-0.14641 -0.06546,-0.4048 v -1.15755 h 0.484036 v 0.84061 q 0,0.38585 0.02584,0.4737 0.02756,0.0861 0.09819,0.1378 0.07062,0.0499 0.179145,0.0499 0.124023,0 0.222208,-0.0672 0.09819,-0.0689 0.134359,-0.16881 0.03617,-0.10163 0.03617,-0.49438 v -0.7717 h 0.484035 v 1.82935 z"
         style="font-style:normal;font-variant:normal;font-weight:bold;font-stretch:normal;font-size:3.52777791px;font-family:Arial;-inkscape-font-specification:'Arial, Bold';font-variant-ligatures:normal;font-variant-caps:normal;font-variant-numeric:normal;font-feature-settings:normal;text-align:start;writing-mode:lr-tb;text-anchor:start;stroke-width:0.26458335"
         id="path899" />
      <path
         d="m 20.508654,201.50813 h 0.44614 v 0.24977 q 0.239434,-0.29111 0.570163,-0.29111 0.1757,0 0.304891,0.0724 0.129191,0.0724 0.211873,0.21876 0.120579,-0.14641 0.260105,-0.21876 0.139526,-0.0724 0.298001,-0.0724 0.201538,0 0.341064,0.0827 0.139527,0.081 0.208428,0.23944 0.04995,0.11713 0.04995,0.37896 v 1.16961 h -0.484036 v -1.04559 q 0,-0.27216 -0.04995,-0.3514 -0.06718,-0.10335 -0.206706,-0.10335 -0.101631,0 -0.191203,0.062 -0.08957,0.062 -0.129191,0.18259 -0.03962,0.11886 -0.03962,0.37724 v 0.8785 h -0.484036 v -1.00252 q 0,-0.267 -0.02584,-0.34451 -0.02584,-0.0775 -0.08096,-0.11541 -0.0534,-0.0379 -0.146416,-0.0379 -0.111966,0 -0.201538,0.0603 -0.08957,0.0603 -0.129191,0.17398 -0.0379,0.11368 -0.0379,0.37723 v 0.88884 h -0.484036 z"
         style="font-style:normal;font-variant:normal;font-weight:bold;font-stretch:normal;font-size:3.52777791px;font-family:Arial;-inkscape-font-specification:'Arial, Bold';font-variant-ligatures:normal;font-variant-caps:normal;font-variant-numeric:normal;font-feature-settings:normal;text-align:start;writing-mode:lr-tb;text-anchor:start;stroke-width:0.26458335"
         id="path901" />
    </g>
    <rect
       id="rect26-7-3-4-6"
       width="8.4666672"
       height="5.8208375"
       x="5.291667"
       y="219.74165"
       style="fill:#ffffff;fill-opacity:1;stroke-width:0.31585351"
       ry="0.87464869" />
    <rect
       style="fill:#3c3c3c;fill-opacity:1;stroke:none;stroke-width:0.4320628;stroke-opacity:1"
       id="rect4778"
       width="10.583334"
       height="10.583334"
       x="3.1750002"
       y="207.04169"
       ry="1.2472694" />
    <g
       aria-label="In"
       style="font-style:normal;font-variant:normal;font-weight:bold;font-stretch:normal;font-size:2.82222223px;line-height:1.25;font-family:Arial;-inkscape-font-specification:'Arial, Bold';font-variant-ligatures:normal;font-variant-caps:normal;font-variant-numeric:normal;font-feature-settings:normal;text-align:start;letter-spacing:0px;word-spacing:0px;writing-mode:lr-tb;text-anchor:start;fill:#fefefe;fill-opacity:1;stroke:none;stroke-width:0.26458335"
       id="text4921">
      <path
         d="m 7.5351123,217.09586 v -2.02021 h 0.4078993 v 2.02021 z"
         style=""
         id="path884" />
      <path
         d="M 9.6586691,217.09586 H 9.2714404 v -0.7469 q 0,-0.23702 -0.024805,-0.30593 -0.024805,-0.0703 -0.081304,-0.10886 -0.055122,-0.0386 -0.1336697,-0.0386 -0.1005968,0 -0.180523,0.0551 -0.079926,0.0551 -0.1102431,0.14607 -0.028939,0.0909 -0.028939,0.33624 v 0.66284 H 8.3247282 v -1.46348 h 0.3596679 v 0.21497 q 0.1915473,-0.24804 0.4823134,-0.24804 0.1281576,0 0.2342665,0.0469 0.1061089,0.0455 0.1598524,0.11713 0.055122,0.0717 0.075792,0.16261 0.022049,0.0909 0.022049,0.26045 z"
         style=""
         id="path886" />
    </g>
    <rect
       id="rect26-7-3-4-6-0"
       width="8.4666662"
       height="5.8208375"
       x="3.1750014"
       y="225.56253"
       style="fill:#474747;fill-opacity:1;stroke-width:0.31585351"
       ry="0.87464869" />
    <rect
       id="rect26-7-3-4-6-9"
       width="8.4666672"
       height="5.8208375"
       x="5.291667"
       y="231.38333"
       style="fill:#ffffff;fill-opacity:1;stroke-width:0.31585351"
       ry="0.87464869" />
    <rect
       style="fill:#3c3c3c;fill-opacity:1;stroke:none;stroke-width:0.4320628;stroke-opacity:1"
       id="rect4778-2"
       width="10.583333"
       height="10.583334"
       x="17.991667"
       y="207.04166"
       ry="1.2472694" />
    <g
       aria-label="Out"
       style="font-style:normal;font-variant:normal;font-weight:bold;font-stretch:normal;font-size:2.82222247px;line-height:1.25;font-family:Arial;-inkscape-font-specification:'Arial, Bold';font-variant-ligatures:normal;font-variant-caps:normal;font-variant-numeric:normal;font-feature-settings:normal;text-align:start;letter-spacing:0px;word-spacing:0px;writing-mode:lr-tb;text-anchor:start;fill:#ffffff;fill-opacity:1;stroke:none;stroke-width:0.26458335"
       id="text853-7">
      <path
         d="m 20.682649,216.1643 q 0,-0.30868 0.09233,-0.51814 0.0689,-0.15434 0.187413,-0.27699 0.11989,-0.12264 0.261828,-0.1819 0.188791,-0.0799 0.43546,-0.0799 0.446484,0 0.713824,0.27698 0.268717,0.27699 0.268717,0.77033 0,0.4892 -0.265961,0.76619 -0.265962,0.2756 -0.711068,0.2756 -0.450619,0 -0.71658,-0.27423 -0.265961,-0.2756 -0.265961,-0.75792 z m 0.420301,-0.0138 q 0,0.34313 0.158475,0.5209 0.158474,0.17639 0.402387,0.17639 0.243913,0 0.399631,-0.17501 0.157096,-0.17639 0.157096,-0.52779 0,-0.34727 -0.152962,-0.51814 -0.151584,-0.17088 -0.403765,-0.17088 -0.252181,0 -0.406521,0.17363 -0.154341,0.17226 -0.154341,0.5209 z"
         style="font-style:normal;font-variant:normal;font-weight:bold;font-stretch:normal;font-size:2.82222247px;font-family:Arial;-inkscape-font-specification:'Arial, Bold';font-variant-ligatures:normal;font-variant-caps:normal;font-variant-numeric:normal;font-feature-settings:normal;text-align:start;writing-mode:lr-tb;text-anchor:start;fill:#ffffff;fill-opacity:1;stroke-width:0.26458335"
         id="path877" />
      <path
         d="m 23.919661,217.162 v -0.21911 q -0.07993,0.11714 -0.21084,0.18466 -0.129536,0.0675 -0.27423,0.0675 -0.14745,0 -0.264583,-0.0648 -0.117133,-0.0648 -0.169499,-0.1819 -0.05237,-0.11714 -0.05237,-0.32384 v -0.92604 h 0.387228 v 0.67248 q 0,0.30868 0.02067,0.37896 0.02205,0.0689 0.07855,0.11024 0.0565,0.04 0.143316,0.04 0.09922,0 0.177767,-0.0538 0.07855,-0.0551 0.107487,-0.13505 0.02894,-0.0813 0.02894,-0.39549 v -0.61736 h 0.387229 v 1.46347 z"
         style="font-style:normal;font-variant:normal;font-weight:bold;font-stretch:normal;font-size:2.82222247px;font-family:Arial;-inkscape-font-specification:'Arial, Bold';font-variant-ligatures:normal;font-variant-caps:normal;font-variant-numeric:normal;font-feature-settings:normal;text-align:start;writing-mode:lr-tb;text-anchor:start;fill:#ffffff;fill-opacity:1;stroke-width:0.26458335"
         id="path879" />
      <path
         d="m 25.35282,215.69853 v 0.30868 h -0.264583 v 0.5898 q 0,0.17914 0.0069,0.20946 0.0083,0.0289 0.03445,0.0482 0.02756,0.0193 0.06615,0.0193 0.05374,0 0.155718,-0.0372 l 0.03307,0.30041 q -0.135047,0.0579 -0.305924,0.0579 -0.104731,0 -0.188791,-0.0345 -0.08406,-0.0358 -0.124024,-0.0909 -0.03858,-0.0565 -0.05374,-0.15158 -0.0124,-0.0675 -0.0124,-0.27285 v -0.63803 h -0.177767 v -0.30868 h 0.177767 v -0.29077 l 0.388607,-0.226 v 0.51677 z"
         style="font-style:normal;font-variant:normal;font-weight:bold;font-stretch:normal;font-size:2.82222247px;font-family:Arial;-inkscape-font-specification:'Arial, Bold';font-variant-ligatures:normal;font-variant-caps:normal;font-variant-numeric:normal;font-feature-settings:normal;text-align:start;writing-mode:lr-tb;text-anchor:start;fill:#ffffff;fill-opacity:1;stroke-width:0.26458335"
         id="path881" />
    </g>
  </g>
</svg>
