<?xml version="1.0" encoding="UTF-8" standalone="no"?>
<!-- Created with Inkscape (http://www.inkscape.org/) -->

<svg
   xmlns:dc="http://purl.org/dc/elements/1.1/"
   xmlns:cc="http://creativecommons.org/ns#"
   xmlns:rdf="http://www.w3.org/1999/02/22-rdf-syntax-ns#"
   xmlns:svg="http://www.w3.org/2000/svg"
   xmlns="http://www.w3.org/2000/svg"
   xmlns:sodipodi="http://sodipodi.sourceforge.net/DTD/sodipodi-0.dtd"
   xmlns:inkscape="http://www.inkscape.org/namespaces/inkscape"
   width="120"
   height="380"
   viewBox="0 0 31.75 100.54167"
   version="1.1"
   id="svg8"
   inkscape:version="0.92.2 (5c3e80d, 2017-08-06)"
   sodipodi:docname="ShiftReg2_orig.svg"
   inkscape:export-filename="E:\Users\Martin\Documents\Rack_Source\Rack\plugins\ML-modules\res\Quantum.png"
   inkscape:export-xdpi="96"
   inkscape:export-ydpi="96">
  <defs
     id="defs2">
    <inkscape:perspective
       sodipodi:type="inkscape:persp3d"
       inkscape:vp_x="0 : 50.270835 : 1"
       inkscape:vp_y="0 : 1000 : 0"
       inkscape:vp_z="31.75 : 50.270835 : 1"
       inkscape:persp3d-origin="15.875 : 33.51389 : 1"
       id="perspective4742" />
  </defs>
  <sodipodi:namedview
     id="base"
     pagecolor="#ffffff"
     bordercolor="#666666"
     borderopacity="1.0"
     inkscape:pageopacity="0.0"
     inkscape:pageshadow="2"
     inkscape:zoom="8.0000002"
     inkscape:cx="52.879947"
     inkscape:cy="149.28392"
     inkscape:document-units="px"
     inkscape:current-layer="layer1"
     showgrid="true"
     units="px"
     fit-margin-top="0"
     fit-margin-left="0"
     fit-margin-right="0"
     fit-margin-bottom="0"
     showguides="true"
     inkscape:snap-to-guides="false"
     objecttolerance="20"
     inkscape:window-width="1672"
     inkscape:window-height="1127"
     inkscape:window-x="-8"
     inkscape:window-y="0"
     inkscape:window-maximized="0"
     gridtolerance="17"
     inkscape:snap-perpendicular="false"
     inkscape:pagecheckerboard="true"
     inkscape:snap-page="false"
     inkscape:snap-text-baseline="true">
    <inkscape:grid
       type="xygrid"
       id="grid43"
       originx="-7.3436628e-018"
       originy="100.54167"
       spacingx="0.52916668"
       spacingy="0.52916668"
       dotted="false"
       empspacing="20" />
  </sodipodi:namedview>
  <metadata
     id="metadata5">
    <rdf:RDF>
      <cc:Work
         rdf:about="">
        <dc:format>image/svg+xml</dc:format>
        <dc:type
           rdf:resource="http://purl.org/dc/dcmitype/StillImage" />
        <dc:title />
      </cc:Work>
    </rdf:RDF>
  </metadata>
  <g
     inkscape:groupmode="layer"
     id="layer2"
     inkscape:label="Layer 2">
    <rect
       style="fill:#7c7c7c;fill-opacity:1;stroke-width:0.26458335"
       id="rect4667"
       width="23.8125"
       height="100.54167"
       x="-7.3436632e-018"
       y="-1.6666667e-006" />
    <path
       style="fill:#7c7c7c;fill-opacity:1;stroke-width:0.35355338"
       d="M 0.1193696,216.91378 V 54.102446 H 45.02065 89.921931 V 216.91378 379.72512 H 45.02065 0.1193696 Z m 50.1216984,93.07293 -0.09389,-9.98788 -5.038135,-0.0981 -5.038136,-0.0981 v -9.88979 -9.88979 h 5.132029 5.132032 l -0.0939,-9.98788 -0.09389,-9.98788 -5.038135,-0.0981 -5.038136,-0.0981 v -9.88009 -9.88008 l 5.038136,-0.0981 5.038135,-0.0981 v -19.97576 -19.97577 l -5.038135,-0.0981 -5.038136,-0.0981 v -9.70331 -9.7033 l 5.038136,-0.0981 5.038135,-0.0981 v -10.07627 -10.07627 l -5.038135,-0.0981 -5.038136,-0.0981 v -9.88979 -9.88979 h 5.132029 5.132032 l -0.0939,-9.98788 -0.09389,-9.98789 -5.038135,-0.0981 -5.038136,-0.0981 v -9.88008 -9.88008 l 5.038136,-0.09809 5.038135,-0.0981 V 89.988115 80.08862 L 35.032771,79.99644 19.918363,79.90425 v 10.080067 10.080073 h -4.949747 -4.949747 v 9.89949 9.8995 h 4.949747 4.949747 v 10.07627 10.07627 h -4.949747 -4.949747 v 9.89949 9.8995 h 4.949747 4.949747 v 10.07627 10.07627 h -4.949747 -4.949747 v 9.8995 9.89949 h 4.949747 4.949747 v 20.15255 20.15254 h -4.949747 -4.949747 v 9.89949 9.8995 h 4.949747 4.949747 v 10.07627 10.07627 h -4.949747 -4.949747 v 9.8995 9.89949 h 4.949747 4.949747 v 10.07627 10.07628 H 35.12666 50.334964 Z"
       id="path4669"
       inkscape:connector-curvature="0"
       transform="scale(0.26458334)" />
    <path
       style="fill:#7c7c7c;fill-opacity:1;stroke-width:0.35355338"
       d="M 0.1193696,216.91378 V 54.102446 H 45.02065 89.921931 V 216.91378 379.72512 H 45.02065 0.1193696 Z m 50.1216984,93.07293 -0.09389,-9.98788 -5.038135,-0.0981 -5.038136,-0.0981 v -9.88979 -9.88979 h 5.132029 5.132032 l -0.0939,-9.98788 -0.09389,-9.98788 -5.038135,-0.0981 -5.038136,-0.0981 v -9.88009 -9.88008 l 5.038136,-0.0981 5.038135,-0.0981 v -19.97576 -19.97577 l -5.038135,-0.0981 -5.038136,-0.0981 v -9.70331 -9.7033 l 5.038136,-0.0981 5.038135,-0.0981 v -10.07627 -10.07627 l -5.038135,-0.0981 -5.038136,-0.0981 v -9.88979 -9.88979 h 5.132029 5.132032 l -0.0939,-9.98788 -0.09389,-9.98789 -5.038135,-0.0981 -5.038136,-0.0981 v -9.88008 -9.88008 l 5.038136,-0.09809 5.038135,-0.0981 V 89.988115 80.08862 L 35.032771,79.99644 19.918363,79.90425 v 10.080067 10.080073 h -4.949747 -4.949747 v 9.89949 9.8995 h 4.949747 4.949747 v 10.07627 10.07627 h -4.949747 -4.949747 v 9.89949 9.8995 h 4.949747 4.949747 v 10.07627 10.07627 h -4.949747 -4.949747 v 9.8995 9.89949 h 4.949747 4.949747 v 20.15255 20.15254 h -4.949747 -4.949747 v 9.89949 9.8995 h 4.949747 4.949747 v 10.07627 10.07627 h -4.949747 -4.949747 v 9.8995 9.89949 h 4.949747 4.949747 v 10.07627 10.07628 H 35.12666 50.334964 Z"
       id="path4671"
       inkscape:connector-curvature="0"
       transform="scale(0.26458334)" />
    <path
       style="fill:#7c7c7c;fill-opacity:1;stroke-width:0.35355338"
       d="M 0.1193696,216.91378 V 54.102446 H 45.02065 89.921931 V 216.91378 379.72512 H 45.02065 0.1193696 Z m 50.1216984,93.07293 -0.09389,-9.98788 -5.038135,-0.0981 -5.038136,-0.0981 v -9.88979 -9.88979 h 5.132029 5.132032 l -0.0939,-9.98788 -0.09389,-9.98788 -5.038135,-0.0981 -5.038136,-0.0981 v -9.88009 -9.88008 l 5.038136,-0.0981 5.038135,-0.0981 v -19.97576 -19.97577 l -5.038135,-0.0981 -5.038136,-0.0981 v -9.70331 -9.7033 l 5.038136,-0.0981 5.038135,-0.0981 v -10.07627 -10.07627 l -5.038135,-0.0981 -5.038136,-0.0981 v -9.88979 -9.88979 h 5.132029 5.132032 l -0.0939,-9.98788 -0.09389,-9.98789 -5.038135,-0.0981 -5.038136,-0.0981 v -9.88008 -9.88008 l 5.038136,-0.09809 5.038135,-0.0981 V 89.988115 80.08862 L 35.032771,79.99644 19.918363,79.90425 v 10.080067 10.080073 h -4.949747 -4.949747 v 9.89949 9.8995 h 4.949747 4.949747 v 10.07627 10.07627 h -4.949747 -4.949747 v 9.89949 9.8995 h 4.949747 4.949747 v 10.07627 10.07627 h -4.949747 -4.949747 v 9.8995 9.89949 h 4.949747 4.949747 v 20.15255 20.15254 h -4.949747 -4.949747 v 9.89949 9.8995 h 4.949747 4.949747 v 10.07627 10.07627 h -4.949747 -4.949747 v 9.8995 9.89949 h 4.949747 4.949747 v 10.07627 10.07628 H 35.12666 50.334964 Z"
       id="path4673"
       inkscape:connector-curvature="0"
       transform="scale(0.26458334)" />
    <path
       style="fill:#7c7c7c;fill-opacity:1;stroke-width:0.35355338"
       d="M 0.1193696,216.91378 V 54.102446 H 45.02065 89.921931 V 216.91378 379.72512 H 45.02065 0.1193696 Z m 50.1216984,93.07293 -0.09389,-9.98788 -5.038135,-0.0981 -5.038136,-0.0981 v -9.88979 -9.88979 h 5.132029 5.132032 l -0.0939,-9.98788 -0.09389,-9.98788 -5.038135,-0.0981 -5.038136,-0.0981 v -9.88009 -9.88008 l 5.038136,-0.0981 5.038135,-0.0981 v -19.97576 -19.97577 l -5.038135,-0.0981 -5.038136,-0.0981 v -9.70331 -9.7033 l 5.038136,-0.0981 5.038135,-0.0981 v -10.07627 -10.07627 l -5.038135,-0.0981 -5.038136,-0.0981 v -9.88979 -9.88979 h 5.132029 5.132032 l -0.0939,-9.98788 -0.09389,-9.98789 -5.038135,-0.0981 -5.038136,-0.0981 v -9.88008 -9.88008 l 5.038136,-0.09809 5.038135,-0.0981 V 89.988115 80.08862 L 35.032771,79.99644 19.918363,79.90425 v 10.080067 10.080073 h -4.949747 -4.949747 v 9.89949 9.8995 h 4.949747 4.949747 v 10.07627 10.07627 h -4.949747 -4.949747 v 9.89949 9.8995 h 4.949747 4.949747 v 10.07627 10.07627 h -4.949747 -4.949747 v 9.8995 9.89949 h 4.949747 4.949747 v 20.15255 20.15254 h -4.949747 -4.949747 v 9.89949 9.8995 h 4.949747 4.949747 v 10.07627 10.07627 h -4.949747 -4.949747 v 9.8995 9.89949 h 4.949747 4.949747 v 10.07627 10.07628 H 35.12666 50.334964 Z"
       id="path4675"
       inkscape:connector-curvature="0"
       transform="scale(0.26458334)" />
    <path
       style="fill:#7c7c7c;fill-opacity:1;stroke-width:0.35355338"
       d="M 0.1193696,216.91378 V 54.102446 H 45.02065 89.921931 V 216.91378 379.72512 H 45.02065 0.1193696 Z m 50.1216984,93.07293 -0.09389,-9.98788 -5.038135,-0.0981 -5.038136,-0.0981 v -9.88979 -9.88979 h 5.132029 5.132032 l -0.0939,-9.98788 -0.09389,-9.98788 -5.038135,-0.0981 -5.038136,-0.0981 v -9.88009 -9.88008 l 5.038136,-0.0981 5.038135,-0.0981 v -19.97576 -19.97577 l -5.038135,-0.0981 -5.038136,-0.0981 v -9.70331 -9.7033 l 5.038136,-0.0981 5.038135,-0.0981 v -10.07627 -10.07627 l -5.038135,-0.0981 -5.038136,-0.0981 v -9.88979 -9.88979 h 5.132029 5.132032 l -0.0939,-9.98788 -0.09389,-9.98789 -5.038135,-0.0981 -5.038136,-0.0981 v -9.88008 -9.88008 l 5.038136,-0.09809 5.038135,-0.0981 V 89.988115 80.08862 L 35.032771,79.99644 19.918363,79.90425 v 10.080067 10.080073 h -4.949747 -4.949747 v 9.89949 9.8995 h 4.949747 4.949747 v 10.07627 10.07627 h -4.949747 -4.949747 v 9.89949 9.8995 h 4.949747 4.949747 v 10.07627 10.07627 h -4.949747 -4.949747 v 9.8995 9.89949 h 4.949747 4.949747 v 20.15255 20.15254 h -4.949747 -4.949747 v 9.89949 9.8995 h 4.949747 4.949747 v 10.07627 10.07627 h -4.949747 -4.949747 v 9.8995 9.89949 h 4.949747 4.949747 v 10.07627 10.07628 H 35.12666 50.334964 Z"
       id="path4677"
       inkscape:connector-curvature="0"
       transform="scale(0.26458334)" />
    <rect
       style="fill:#9ca5c2;fill-opacity:1;stroke-width:0.30556914"
       id="rect4689"
       width="31.761351"
       height="100.54167"
       x="-0.011348541"
       y="-6.2806193e-006" />
    <g
       aria-label="M"
       style="font-style:normal;font-variant:normal;font-weight:bold;font-stretch:normal;font-size:19.75555611px;line-height:1.25;font-family:Arial;-inkscape-font-specification:'Arial, Bold';font-variant-ligatures:normal;font-variant-caps:normal;font-variant-numeric:normal;font-feature-settings:normal;text-align:start;letter-spacing:0px;word-spacing:0px;writing-mode:lr-tb;text-anchor:start;fill:#000000;fill-opacity:1;stroke:none;stroke-width:0.26458335"
       id="text4720" />
    <g
       id="g4799"
       transform="matrix(0.25,0,0,0.25,10.715625,74.612506)"
       style="fill:#000000;fill-opacity:1">
      <rect
         ry="0.52916306"
         y="83.608337"
         x="15.345834"
         height="14.816664"
         width="1.5874993"
         id="rect4736"
         style="fill:#000000;fill-opacity:1;stroke-width:0.22136623" />
      <rect
         ry="0.45475155"
         y="96.605995"
         x="15.345834"
         height="1.8190105"
         width="10.583333"
         id="rect4738"
         style="fill:#000000;fill-opacity:1;stroke-width:0.27422616" />
      <rect
         ry="0.52916306"
         y="83.608337"
         x="24.341667"
         height="11.641667"
         width="1.5874995"
         id="rect4759"
         style="fill:#000000;fill-opacity:1;stroke-width:0.22913586" />
      <rect
         rx="0.90335584"
         transform="matrix(1,0,0.54885411,0.83591816,0,0)"
         ry="0.3740643"
         y="100.01976"
         x="-39.523911"
         height="8.2294703"
         width="1.8067117"
         id="rect4759-7"
         style="fill:#000000;fill-opacity:1;stroke-width:0.20552233" />
      <rect
         rx="0.92604923"
         transform="matrix(1,0,0.55837942,-0.82958569,0,0)"
         ry="0.47381043"
         y="-109.07553"
         x="80.484703"
         height="8.2922926"
         width="1.8520985"
         id="rect4759-7-3"
         style="fill:#000000;fill-opacity:1;stroke-width:0.20888054" />
    </g>
    <text
       xml:space="preserve"
       style="font-style:normal;font-variant:normal;font-weight:normal;font-stretch:normal;font-size:2.82222247px;line-height:1.25;font-family:Arial;-inkscape-font-specification:'Arial, Normal';font-variant-ligatures:normal;font-variant-caps:normal;font-variant-numeric:normal;font-feature-settings:normal;text-align:start;letter-spacing:0px;word-spacing:0px;writing-mode:lr-tb;text-anchor:start;fill:#000000;fill-opacity:1;stroke:none;stroke-width:0.26458335"
       x="19.050001"
       y="20.637499"
       id="text989"><tspan
         sodipodi:role="line"
         id="tspan987"
         x="19.050001"
         y="23.179628"
         style="stroke-width:0.26458335" /></text>
  </g>
  <g
     inkscape:label="Layer 1"
     inkscape:groupmode="layer"
     id="layer1"
     transform="translate(0,-196.45832)">
    <text
       xml:space="preserve"
       style="font-style:normal;font-variant:normal;font-weight:bold;font-stretch:normal;font-size:3.52777791px;line-height:1.25;font-family:Arial;-inkscape-font-specification:'Arial, Bold';font-variant-ligatures:normal;font-variant-caps:normal;font-variant-numeric:normal;font-feature-settings:normal;text-align:center;letter-spacing:0px;word-spacing:0px;writing-mode:lr-tb;text-anchor:middle;fill:#000000;fill-opacity:1;stroke:none;stroke-width:0.26458335"
       x="15.875"
       y="203.86665"
       id="text914"><tspan
         sodipodi:role="line"
         id="tspan839"
         x="15.874999"
         y="203.86665">Evolution</tspan></text>
    <rect
       style="fill:#ffffff;fill-opacity:1;stroke:none;stroke-width:0.26458335;stroke-opacity:1"
       id="rect842"
       width="6.2674704"
       height="0"
       x="-7.9512682"
       y="252.09871"
       ry="0" />
    <rect
       style="display:inline;fill:#3c3c3c;fill-opacity:1;stroke:none;stroke-width:0.52223307;stroke-opacity:1"
       id="rect4778-3-6"
       width="11.641669"
       height="13.22917"
       x="2.6458306"
       y="205.98332"
       ry="1.5590991"
       rx="1.5590991" />
    <text
       xml:space="preserve"
       style="font-style:normal;font-variant:normal;font-weight:normal;font-stretch:normal;font-size:2.82222223px;line-height:1.25;font-family:Arial;-inkscape-font-specification:'Arial, Normal';font-variant-ligatures:normal;font-variant-caps:normal;font-variant-numeric:normal;font-feature-settings:normal;text-align:start;letter-spacing:0px;word-spacing:0px;writing-mode:lr-tb;text-anchor:start;display:inline;fill:#ffffff;fill-opacity:1;stroke:none;stroke-width:0.26458335"
       x="4.0462475"
       y="218.1541"
       id="text985"><tspan
         sodipodi:role="line"
         id="tspan876"
         x="4.0462475"
         y="218.1541">Trigger</tspan></text>
    <path
       style="fill:#fdfdfd;fill-opacity:1;stroke:none;stroke-width:0.50721395;stroke-linecap:square;stroke-linejoin:bevel;stroke-miterlimit:2;stroke-dasharray:none;stroke-opacity:1;paint-order:markers fill stroke"
       d="m 16.933334,205.98332 c -0.879473,0 -1.5875,0.70802 -1.5875,1.5875 v 11.1125 c 0,1.17859 -0.460406,1.5875 -1.5875,1.5875 H 4.2333334 c -0.8794745,0 -1.5875,0.70802 -1.5875,1.5875 v 6.35 c 0,0.87947 0.7087881,1.62411 1.5875,1.5875 H 16.933334 27.516667 c 0.879475,0 1.5875,-0.70803 1.5875,-1.5875 v -20.6375 c 0,-0.87948 -0.708027,-1.5875 -1.5875,-1.5875 z"
       id="rect847"
       inkscape:connector-curvature="0"
       sodipodi:nodetypes="ssccsssscsccss" />
    <text
       xml:space="preserve"
       style="font-style:normal;font-variant:normal;font-weight:normal;font-stretch:normal;font-size:2.82222223px;line-height:1.25;font-family:Arial;-inkscape-font-specification:'Arial, Normal';font-variant-ligatures:normal;font-variant-caps:normal;font-variant-numeric:normal;font-feature-settings:normal;text-align:start;letter-spacing:0px;word-spacing:0px;writing-mode:lr-tb;text-anchor:start;display:inline;fill:#000000;fill-opacity:1;stroke:none;stroke-width:0.26458335"
       x="17.462498"
       y="218.15408"
       id="text985-4"><tspan
         sodipodi:role="line"
         id="tspan874"
         x="17.462498"
         y="218.15408">Length</tspan></text>
    <rect
       style="display:inline;fill:#3c3c3c;fill-opacity:1;stroke:none;stroke-width:0.52223307;stroke-opacity:1"
       id="rect4778-3-6-3"
       width="12.700003"
       height="9.5250607"
       x="2.6458306"
       y="230.85411"
       ry="1.5590991"
       rx="1.5590991" />
    <text
       xml:space="preserve"
       style="font-style:normal;font-variant:normal;font-weight:normal;font-stretch:normal;font-size:2.82222223px;line-height:1.25;font-family:Arial;-inkscape-font-specification:'Arial, Normal';font-variant-ligatures:normal;font-variant-caps:normal;font-variant-numeric:normal;font-feature-settings:normal;text-align:start;letter-spacing:0px;word-spacing:0px;writing-mode:lr-tb;text-anchor:start;display:inline;fill:#ffffff;fill-opacity:1;stroke:none;stroke-width:0.26458335"
       x="3.7041669"
       y="236.675"
       id="text985-7"><tspan
         sodipodi:role="line"
         id="tspan848"
         x="3.7041669"
         y="236.675">A</tspan></text>
    <rect
       style="display:inline;fill:#3c3c3c;fill-opacity:1;stroke:none;stroke-width:0.52223301;stroke-opacity:1"
       id="rect4778-3-6-3-7"
       width="12.699994"
       height="9.5251369"
       x="16.404167"
       y="230.85403"
       ry="1.5590991"
       rx="1.5590991" />
    <text
       xml:space="preserve"
       style="font-style:normal;font-variant:normal;font-weight:normal;font-stretch:normal;font-size:2.82222223px;line-height:1.25;font-family:Arial;-inkscape-font-specification:'Arial, Normal';font-variant-ligatures:normal;font-variant-caps:normal;font-variant-numeric:normal;font-feature-settings:normal;text-align:start;letter-spacing:0px;word-spacing:0px;writing-mode:lr-tb;text-anchor:start;display:inline;fill:#ffffff;fill-opacity:1;stroke:none;stroke-width:0.26458335"
       x="26.458334"
       y="236.675"
       id="text985-7-8"><tspan
         sodipodi:role="line"
         id="tspan850"
         x="26.458334"
         y="236.675">B</tspan></text>
    <rect
       style="display:inline;fill:#7e7e7e;fill-opacity:1;stroke:none;stroke-width:0.52223307;stroke-opacity:1"
       id="rect4778-3-6-3-2"
       width="26.458336"
       height="11.112499"
       x="2.6458335"
       y="241.43753"
       ry="1.5590992"
       rx="1.5590992" />
    <rect
       style="display:inline;fill:#7e7e7e;fill-opacity:1;stroke:none;stroke-width:0.52223307;stroke-opacity:1"
       id="rect4778-3-6-3-2-5"
       width="26.458338"
       height="11.112501"
       x="2.6458333"
       y="253.60823"
       ry="1.5590993"
       rx="1.5590991" />
    <rect
       style="display:inline;fill:#7e7e7e;fill-opacity:1;stroke:none;stroke-width:0.52223307;stroke-opacity:1"
       id="rect4778-3-6-3-2-5-0"
       width="26.45834"
       height="11.112501"
       x="2.6458373"
       y="265.77917"
       ry="1.5590993"
       rx="1.5590991" />
    <rect
       style="display:inline;fill:#3c3c3c;fill-opacity:1;stroke:none;stroke-width:0.52223307;stroke-opacity:1"
       id="rect4778-3-6-8"
       width="10.583336"
       height="13.22917"
       x="2.6458306"
       y="277.91193"
       ry="1.5590991"
       rx="1.5590991" />
    <rect
       style="display:inline;fill:#3c3c3c;fill-opacity:1;stroke:none;stroke-width:0.52223307;stroke-opacity:1"
       id="rect4778-3-6-8-3"
       width="14.816668"
       height="13.22917"
       x="14.2875"
       y="277.95001"
       ry="1.5590991"
       rx="1.5590991" />
    <text
       xml:space="preserve"
       style="font-style:normal;font-variant:normal;font-weight:normal;font-stretch:normal;font-size:2.82222223px;line-height:1.25;font-family:Arial;-inkscape-font-specification:'Arial, Normal';font-variant-ligatures:normal;font-variant-caps:normal;font-variant-numeric:normal;font-feature-settings:normal;text-align:start;letter-spacing:0px;word-spacing:0px;writing-mode:lr-tb;text-anchor:start;display:inline;fill:#ffffff;fill-opacity:1;stroke:none;stroke-width:0.26458335"
       x="8.4666672"
       y="244.08333"
       id="text985-7-6"><tspan
         sodipodi:role="line"
         id="tspan911"
         x="8.4666672"
         y="244.08333">Replace</tspan></text>
    <text
       xml:space="preserve"
       style="font-style:normal;font-variant:normal;font-weight:normal;font-stretch:normal;font-size:2.82222223px;line-height:1.25;font-family:Arial;-inkscape-font-specification:'Arial, Normal';font-variant-ligatures:normal;font-variant-caps:normal;font-variant-numeric:normal;font-feature-settings:normal;text-align:start;letter-spacing:0px;word-spacing:0px;writing-mode:lr-tb;text-anchor:start;display:inline;fill:#ffffff;fill-opacity:1;stroke:none;stroke-width:0.26458335"
       x="10.054167"
       y="256.254"
       id="text985-7-6-8"><tspan
         sodipodi:role="line"
         id="tspan931"
         x="10.054167"
         y="256.254">Parent</tspan></text>
    <text
       xml:space="preserve"
       style="font-style:normal;font-variant:normal;font-weight:normal;font-stretch:normal;font-size:2.82222223px;line-height:1.25;font-family:Arial;-inkscape-font-specification:'Arial, Normal';font-variant-ligatures:normal;font-variant-caps:normal;font-variant-numeric:normal;font-feature-settings:normal;text-align:start;letter-spacing:0px;word-spacing:0px;writing-mode:lr-tb;text-anchor:start;display:inline;fill:#ffffff;fill-opacity:1;stroke:none;stroke-width:0.26458335"
       x="13.758328"
       y="268.42514"
       id="text985-7-6-9"><tspan
         sodipodi:role="line"
         id="tspan941"
         x="13.758328"
         y="268.42514">Mix</tspan></text>
    <text
       xml:space="preserve"
       style="font-style:normal;font-variant:normal;font-weight:normal;font-stretch:normal;font-size:2.82222227px;line-height:1.25;font-family:Arial;-inkscape-font-specification:'Arial, Normal';font-variant-ligatures:normal;font-variant-caps:normal;font-variant-numeric:normal;font-feature-settings:normal;text-align:start;letter-spacing:0px;word-spacing:0px;writing-mode:lr;text-anchor:start;display:inline;fill:#ffffff;fill-opacity:1;stroke:none;stroke-width:0.26458335;"
       x="4.2333283"
       y="280.59592"
       id="text985-7-6-9-9"><tspan
         sodipodi:role="line"
         id="tspan878">Out 1</tspan></text>
    <text
       xml:space="preserve"
       style="font-style:normal;font-variant:normal;font-weight:normal;font-stretch:normal;font-size:2.82222227px;line-height:1.25;font-family:Arial;-inkscape-font-specification:'Arial, Normal';font-variant-ligatures:normal;font-variant-caps:normal;font-variant-numeric:normal;font-feature-settings:normal;text-align:start;letter-spacing:0px;word-spacing:0px;writing-mode:lr;text-anchor:start;display:inline;fill:#ffffff;fill-opacity:1;stroke:none;stroke-width:0.26458335;"
       x="21.16666"
       y="280.59589"
       id="text985-7-6-9-9-3"><tspan
         sodipodi:role="line"
         id="tspan864">Out 2</tspan></text>
    <text
       xml:space="preserve"
       style="font-style:normal;font-variant:normal;font-weight:normal;font-stretch:normal;font-size:2.82222247px;line-height:1.25;font-family:Arial;-inkscape-font-specification:'Arial, Normal';font-variant-ligatures:normal;font-variant-caps:normal;font-variant-numeric:normal;font-feature-settings:normal;text-align:start;letter-spacing:0px;word-spacing:0px;writing-mode:lr-tb;text-anchor:start;display:inline;fill:#ffffff;fill-opacity:1;stroke:none;stroke-width:0.26458335"
       x="17.991659"
       y="264.19162"
       id="text985-7-3"><tspan
         style="stroke-width:0.26458335"
         sodipodi:role="line"
         id="tspan848-0"
         x="17.991659"
         y="264.19162">A</tspan></text>
    <text
       xml:space="preserve"
       style="font-style:normal;font-variant:normal;font-weight:normal;font-stretch:normal;font-size:2.82222227px;line-height:1.25;font-family:Arial;-inkscape-font-specification:'Arial, Normal';font-variant-ligatures:normal;font-variant-caps:normal;font-variant-numeric:normal;font-feature-settings:normal;text-align:start;letter-spacing:0px;word-spacing:0px;writing-mode:lr;text-anchor:start;display:inline;fill:#ffffff;fill-opacity:1;stroke:none;stroke-width:0.26458335;"
       x="25.929167"
       y="264.19162"
       id="text985-7-5"><tspan
         sodipodi:role="line"
         id="tspan890">B</tspan></text>
    <text
       xml:space="preserve"
       style="font-style:normal;font-variant:normal;font-weight:normal;font-stretch:normal;font-size:2.82222223px;line-height:1.25;font-family:Arial;-inkscape-font-specification:'Arial, Normal';font-variant-ligatures:normal;font-variant-caps:normal;font-variant-numeric:normal;font-feature-settings:normal;text-align:start;letter-spacing:0px;word-spacing:0px;writing-mode:lr-tb;text-anchor:start;display:inline;fill:#ffffff;fill-opacity:1;stroke:none;stroke-width:0.26458335"
       x="17.991657"
       y="252.02072"
       id="text985-7-3-9"><tspan
         sodipodi:role="line"
         id="tspan892"
         x="17.991657"
         y="252.02072">0</tspan></text>
    <text
       xml:space="preserve"
       style="font-style:normal;font-variant:normal;font-weight:normal;font-stretch:normal;font-size:2.82222223px;line-height:1.25;font-family:Arial;-inkscape-font-specification:'Arial, Normal';font-variant-ligatures:normal;font-variant-caps:normal;font-variant-numeric:normal;font-feature-settings:normal;text-align:start;letter-spacing:0px;word-spacing:0px;writing-mode:lr-tb;text-anchor:start;display:inline;fill:#ffffff;fill-opacity:1;stroke:none;stroke-width:0.26458335"
       x="25.929165"
       y="252.02072"
       id="text985-7-5-7"><tspan
         sodipodi:role="line"
         id="tspan894"
         x="25.929165"
         y="252.02072">1</tspan></text>
    <text
       xml:space="preserve"
       style="font-style:normal;font-variant:normal;font-weight:normal;font-stretch:normal;font-size:2.82222247px;line-height:1.25;font-family:Arial;-inkscape-font-specification:'Arial, Normal';font-variant-ligatures:normal;font-variant-caps:normal;font-variant-numeric:normal;font-feature-settings:normal;text-align:start;letter-spacing:0px;word-spacing:0px;writing-mode:lr-tb;text-anchor:start;display:inline;fill:#ffffff;fill-opacity:1;stroke:none;stroke-width:0.26458335"
       x="17.991657"
       y="276.36267"
       id="text985-7-3-9-6"><tspan
         style="stroke-width:0.26458335"
         y="276.36267"
         x="17.991657"
         sodipodi:role="line"
         id="tspan892-3">0</tspan></text>
    <text
       xml:space="preserve"
       style="font-style:normal;font-variant:normal;font-weight:normal;font-stretch:normal;font-size:2.82222247px;line-height:1.25;font-family:Arial;-inkscape-font-specification:'Arial, Normal';font-variant-ligatures:normal;font-variant-caps:normal;font-variant-numeric:normal;font-feature-settings:normal;text-align:start;letter-spacing:0px;word-spacing:0px;writing-mode:lr-tb;text-anchor:start;display:inline;fill:#ffffff;fill-opacity:1;stroke:none;stroke-width:0.26458335"
       x="25.929169"
       y="276.36267"
       id="text985-7-5-7-8"><tspan
         style="stroke-width:0.26458335"
         y="276.36267"
         x="25.929169"
         sodipodi:role="line"
         id="tspan894-3">1</tspan></text>
  </g>
</svg>
