<?xml version="1.0" encoding="UTF-8" standalone="no"?>
<!-- Created with Inkscape (http://www.inkscape.org/) -->

<svg
   xmlns:dc="http://purl.org/dc/elements/1.1/"
   xmlns:cc="http://creativecommons.org/ns#"
   xmlns:rdf="http://www.w3.org/1999/02/22-rdf-syntax-ns#"
   xmlns:svg="http://www.w3.org/2000/svg"
   xmlns="http://www.w3.org/2000/svg"
   xmlns:sodipodi="http://sodipodi.sourceforge.net/DTD/sodipodi-0.dtd"
   xmlns:inkscape="http://www.inkscape.org/namespaces/inkscape"
   width="120"
   height="380"
   viewBox="0 0 31.75 100.54167"
   version="1.1"
   id="svg8"
   inkscape:version="0.92.2 (5c3e80d, 2017-08-06)"
   sodipodi:docname="VoltMeter.svg"
   inkscape:export-filename="E:\Users\Martin\Documents\Rack_Source\Rack\plugins\ML-modules\res\Quantum.png"
   inkscape:export-xdpi="96"
   inkscape:export-ydpi="96">
  <sodipodi:namedview
     id="base"
     pagecolor="#ffffff"
     bordercolor="#666666"
     borderopacity="1.0"
     inkscape:pageopacity="0.0"
     inkscape:pageshadow="2"
     inkscape:zoom="8"
     inkscape:cx="17.047524"
     inkscape:cy="354.37258"
     inkscape:document-units="px"
     inkscape:current-layer="layer2"
     showgrid="true"
     units="px"
     fit-margin-top="0"
     fit-margin-left="0"
     fit-margin-right="0"
     fit-margin-bottom="0"
     showguides="true"
     inkscape:snap-to-guides="false"
     objecttolerance="20"
     inkscape:window-width="1666"
     inkscape:window-height="1127"
     inkscape:window-x="61"
     inkscape:window-y="4"
     inkscape:window-maximized="0"
     gridtolerance="17"
     inkscape:snap-perpendicular="false"
     inkscape:pagecheckerboard="true"
     inkscape:snap-page="false"
     inkscape:snap-text-baseline="true">
    <inkscape:grid
       empspacing="20"
       dotted="false"
       spacingy="0.52916668"
       spacingx="0.52916668"
       originy="100.54167"
       originx="-7.3436628e-018"
       id="grid43"
       type="xygrid" />
  </sodipodi:namedview>
  <defs
     id="defs2">
    <inkscape:perspective
       id="perspective4742"
       inkscape:persp3d-origin="15.875 : 33.51389 : 1"
       inkscape:vp_z="31.75 : 50.270835 : 1"
       inkscape:vp_y="0 : 1000 : 0"
       inkscape:vp_x="0 : 50.270835 : 1"
       sodipodi:type="inkscape:persp3d" />
  </defs>
  <metadata
     id="metadata5">
    <rdf:RDF>
      <cc:Work
         rdf:about="">
        <dc:format>image/svg+xml</dc:format>
        <dc:type
           rdf:resource="http://purl.org/dc/dcmitype/StillImage" />
        <dc:title></dc:title>
      </cc:Work>
    </rdf:RDF>
  </metadata>
  <g
     inkscape:label="Layer 2"
     id="layer2"
     inkscape:groupmode="layer"
     style="display:inline">
    <rect
       y="-3.4195964e-006"
       x="0"
       height="100.54167"
       width="31.761351"
       id="rect4689"
       style="fill:#9ca5c2;fill-opacity:1;stroke-width:0.30556914" />
    <g
       id="text4720"
       style="font-style:normal;font-variant:normal;font-weight:bold;font-stretch:normal;font-size:19.75555611px;line-height:1.25;font-family:Arial;-inkscape-font-specification:'Arial, Bold';font-variant-ligatures:normal;font-variant-caps:normal;font-variant-numeric:normal;font-feature-settings:normal;text-align:start;letter-spacing:0px;word-spacing:0px;writing-mode:lr-tb;text-anchor:start;fill:#000000;fill-opacity:1;stroke:none;stroke-width:0.26458335"
       aria-label="M" />
    <g
       style="fill:#000000;fill-opacity:1"
       transform="matrix(0.25,0,0,0.25,10.689167,74.612506)"
       id="g4799">
      <rect
         style="fill:#000000;fill-opacity:1;stroke-width:0.22136623"
         id="rect4736"
         width="1.5874993"
         height="14.816664"
         x="15.345834"
         y="83.608337"
         ry="0.52916306" />
      <rect
         style="fill:#000000;fill-opacity:1;stroke-width:0.27422616"
         id="rect4738"
         width="10.583333"
         height="1.8190105"
         x="15.345834"
         y="96.605995"
         ry="0.45475155" />
      <rect
         style="fill:#000000;fill-opacity:1;stroke-width:0.22913586"
         id="rect4759"
         width="1.5874995"
         height="11.641667"
         x="24.341667"
         y="83.608337"
         ry="0.52916306" />
      <rect
         style="fill:#000000;fill-opacity:1;stroke-width:0.20552233"
         id="rect4759-7"
         width="1.8067117"
         height="8.2294703"
         x="-39.523911"
         y="100.01976"
         ry="0.3740643"
         transform="matrix(1,0,0.54885411,0.83591816,0,0)"
         rx="0.90335584" />
      <rect
         style="fill:#000000;fill-opacity:1;stroke-width:0.20888054"
         id="rect4759-7-3"
         width="1.8520985"
         height="8.2922926"
         x="80.484703"
         y="-109.07553"
         ry="0.47381043"
         transform="matrix(1,0,0.55837942,-0.82958569,0,0)"
         rx="0.92604923" />
    </g>
    <text
       id="text989"
       y="20.637499"
       x="19.050001"
       style="font-style:normal;font-variant:normal;font-weight:normal;font-stretch:normal;font-size:2.82222247px;line-height:1.25;font-family:Arial;-inkscape-font-specification:'Arial, Normal';font-variant-ligatures:normal;font-variant-caps:normal;font-variant-numeric:normal;font-feature-settings:normal;text-align:start;letter-spacing:0px;word-spacing:0px;writing-mode:lr-tb;text-anchor:start;fill:#000000;fill-opacity:1;stroke:none;stroke-width:0.26458335"
       xml:space="preserve"><tspan
         style="stroke-width:0.26458335"
         y="23.179628"
         x="19.050001"
         id="tspan987"
         sodipodi:role="line" /></text>
    <g
       aria-label="Volt Meter"
       style="font-style:normal;font-variant:normal;font-weight:bold;font-stretch:normal;font-size:3.52777791px;line-height:1.25;font-family:Arial;-inkscape-font-specification:'Arial, Bold';font-variant-ligatures:normal;font-variant-caps:normal;font-variant-numeric:normal;font-feature-settings:normal;text-align:center;letter-spacing:0px;word-spacing:0px;writing-mode:lr-tb;text-anchor:middle;display:inline;fill:#000000;fill-opacity:1;stroke:none;stroke-width:0.26458335"
       id="text914-6">
      <path
         d="M 8.7477474,6.8791432 7.8451323,4.3538882 H 8.3980701 L 9.0371354,6.2228525 9.65553,4.3538882 h 0.54088 l -0.9043375,2.525255 z"
         style="stroke-width:0.26458335"
         id="path826" />
      <path
         d="m 10.082722,5.9386321 q 0,-0.2411567 0.118856,-0.4668104 0.118855,-0.2256538 0.335896,-0.3445096 0.218764,-0.1188558 0.487482,-0.1188558 0.415134,0 0.680406,0.27044 0.265272,0.2687175 0.265272,0.6804064 0,0.415134 -0.268717,0.6890191 -0.266995,0.2721626 -0.673516,0.2721626 -0.251492,0 -0.480591,-0.1136882 Q 10.320433,6.6931081 10.201578,6.4743445 10.082722,6.2538584 10.082722,5.9386321 Z m 0.496094,0.025838 q 0,0.2721625 0.129191,0.4168565 0.129191,0.144694 0.318671,0.144694 0.18948,0 0.316949,-0.144694 0.129191,-0.144694 0.129191,-0.4203016 0,-0.2687175 -0.129191,-0.4134115 -0.127469,-0.144694 -0.316949,-0.144694 -0.18948,0 -0.318671,0.144694 -0.129191,0.144694 -0.129191,0.4168566 z"
         style="stroke-width:0.26458335"
         id="path828" />
      <path
         d="m 12.351317,6.8791432 v -2.525255 h 0.484036 v 2.525255 z"
         style="stroke-width:0.26458335"
         id="path830" />
      <path
         d="m 14.168605,5.0497975 v 0.3858507 h -0.330729 v 0.7372504 q 0,0.2239313 0.0086,0.2618273 0.01033,0.036174 0.04306,0.060289 0.03445,0.024116 0.08268,0.024116 0.06718,0 0.194648,-0.046509 l 0.04134,0.3755154 q -0.16881,0.072347 -0.382406,0.072347 -0.130913,0 -0.235989,-0.043064 -0.105075,-0.044786 -0.155029,-0.1136882 -0.04823,-0.070624 -0.06718,-0.1894802 -0.0155,-0.084405 -0.0155,-0.3410645 V 5.4356482 H 13.129909 V 5.0497975 h 0.222209 V 4.6863399 L 13.837876,4.403842 v 0.6459555 z"
         style="stroke-width:0.26458335"
         id="path832" />
      <path
         d="m 15.482909,6.8791432 v -2.525255 h 0.763089 l 0.458198,1.7225478 0.45303,-1.7225478 h 0.764811 v 2.525255 H 17.448336 V 4.8913231 L 16.947075,6.8791432 H 16.456149 L 15.95661,4.8913231 v 1.9878201 z"
         style="stroke-width:0.26458335"
         id="path834" />
      <path
         d="m 19.487833,6.2969221 0.482313,0.08096 q -0.09302,0.2652724 -0.294555,0.4047988 -0.199816,0.1378038 -0.501262,0.1378038 -0.477145,0 -0.706244,-0.3117812 -0.180868,-0.2497694 -0.180868,-0.6304525 0,-0.4547526 0.237712,-0.7114122 0.237711,-0.2583822 0.601169,-0.2583822 0.408244,0 0.644233,0.27044 0.235989,0.2687175 0.225654,0.8251004 h -1.212674 q 0.0052,0.2153185 0.117133,0.3358968 0.111966,0.1188558 0.279053,0.1188558 0.113688,0 0.191203,-0.062012 0.07751,-0.062012 0.117133,-0.1998155 z m 0.02756,-0.4892036 Q 19.510226,5.5975677 19.406873,5.4890472 19.30352,5.3788041 19.155381,5.3788041 q -0.158474,0 -0.261827,0.1154107 -0.103353,0.1154107 -0.10163,0.3135037 z"
         style="stroke-width:0.26458335"
         id="path836" />
      <path
         d="m 21.231051,5.0497975 v 0.3858507 h -0.330729 v 0.7372504 q 0,0.2239313 0.0086,0.2618273 0.01034,0.036174 0.04306,0.060289 0.03445,0.024116 0.08268,0.024116 0.06718,0 0.194648,-0.046509 l 0.04134,0.3755154 q -0.16881,0.072347 -0.382406,0.072347 -0.130914,0 -0.235989,-0.043064 -0.105075,-0.044786 -0.155029,-0.1136882 -0.04823,-0.070624 -0.06718,-0.1894802 -0.0155,-0.084405 -0.0155,-0.3410645 V 5.4356482 H 20.192355 V 5.0497975 h 0.222208 V 4.6863399 L 20.900322,4.403842 v 0.6459555 z"
         style="stroke-width:0.26458335"
         id="path838" />
      <path
         d="m 22.62976,6.2969221 0.482313,0.08096 q -0.09302,0.2652724 -0.294555,0.4047988 -0.199816,0.1378038 -0.501262,0.1378038 -0.477146,0 -0.706244,-0.3117812 -0.180868,-0.2497694 -0.180868,-0.6304525 0,-0.4547526 0.237712,-0.7114122 0.237711,-0.2583822 0.601169,-0.2583822 0.408244,0 0.644233,0.27044 0.235989,0.2687175 0.225653,0.8251004 h -1.212673 q 0.0052,0.2153185 0.117133,0.3358968 0.111966,0.1188558 0.279053,0.1188558 0.113688,0 0.191203,-0.062012 0.07751,-0.062012 0.117133,-0.1998155 z m 0.02756,-0.4892036 Q 22.652153,5.5975677 22.5488,5.4890472 22.445447,5.3788041 22.297308,5.3788041 q -0.158474,0 -0.261827,0.1154107 -0.103353,0.1154107 -0.10163,0.3135037 z"
         style="stroke-width:0.26458335"
         id="path840" />
      <path
         d="M 23.997463,6.8791432 H 23.513427 V 5.0497975 h 0.449585 v 0.2601047 q 0.115411,-0.1843126 0.206706,-0.2428793 0.09302,-0.058567 0.210151,-0.058567 0.165365,0 0.318671,0.091295 l -0.149861,0.4220242 q -0.122301,-0.079237 -0.227377,-0.079237 -0.10163,0 -0.172254,0.056844 -0.07062,0.055122 -0.111966,0.2015381 -0.03962,0.1464166 -0.03962,0.6132271 z"
         style="stroke-width:0.26458335"
         id="path842" />
    </g>
  </g>
</svg>
