<?xml version="1.0" encoding="UTF-8" standalone="no"?>
<svg
   xmlns:dc="http://purl.org/dc/elements/1.1/"
   xmlns:cc="http://creativecommons.org/ns#"
   xmlns:rdf="http://www.w3.org/1999/02/22-rdf-syntax-ns#"
   xmlns:svg="http://www.w3.org/2000/svg"
   xmlns="http://www.w3.org/2000/svg"
   id="svg49872"
   version="1.1"
   viewBox="0 0 9.9368575 9.9368564"
   height="37.556622"
   width="37.556625">
  <defs
     id="defs49866">
    <clipPath
       id="clip12">
      <path
         id="path28860"
         d="m 143,129.75 h 3 V 158 h -3 z m 0,0" />
    </clipPath>
    <clipPath
       id="clip11">
      <path
         id="path28857"
         d="m 117.39453,129.75 h 54 v 54.00391 h -54 z m 0,0" />
    </clipPath>
    <clipPath
       id="clip150">
      <path
         id="path29465"
         d="m 176,208.92578 h 2 V 228 h -2 z m 0,0" />
    </clipPath>
    <clipPath
       id="clip149">
      <path
         id="path29462"
         d="m 159.27734,208.92578 h 36 v 36 h -36 z m 0,0" />
    </clipPath>
    <clipPath
       id="clip142">
      <path
         id="path29320"
         d="m 110,208.92578 h 3 V 228 h -3 z m 0,0" />
    </clipPath>
    <clipPath
       id="clip141">
      <path
         id="path29317"
         d="m 93.511719,208.92578 h 36.000001 v 36 H 93.511719 Z m 0,0" />
    </clipPath>
  </defs>
  <metadata
     id="metadata49869">
    <rdf:RDF>
      <cc:Work
         rdf:about="">
        <dc:format>image/svg+xml</dc:format>
        <dc:type
           rdf:resource="http://purl.org/dc/dcmitype/StillImage" />
        <dc:title></dc:title>
      </cc:Work>
    </rdf:RDF>
  </metadata>
  <path
     transform="rotate(-89.609656)"
     style="opacity:1;fill:#2a5775;fill-opacity:1;fill-rule:evenodd;stroke:#000000;stroke-width:0.9231391;stroke-linecap:butt;stroke-linejoin:round;stroke-miterlimit:4;stroke-dasharray:none;stroke-dashoffset:0;stroke-opacity:1"
     d="M -0.42992541,5.0051771 A 4.5262647,4.5328913 0 0 1 -4.9491608,9.5449403 4.5262647,4.5328913 0 0 1 -9.4824438,5.0192459 4.5262647,4.5328913 0 0 1 -4.9635226,0.47916913 4.5262647,4.5328913 0 0 1 -0.4299264,5.0045489"
     id="bidooziNCBlueKnob" />
  <path
     style="fill:none;fill-rule:evenodd;stroke:#fcfcfc;stroke-width:0.60204697;stroke-linecap:butt;stroke-linejoin:miter;stroke-miterlimit:4;stroke-dasharray:none;stroke-opacity:1"
     d="m 4.9787723,0.9256167 v 4.073145 0"
     id="path832" />
</svg>
