<?xml version="1.0" encoding="UTF-8" standalone="no"?>
<svg
   xmlns:dc="http://purl.org/dc/elements/1.1/"
   xmlns:cc="http://creativecommons.org/ns#"
   xmlns:rdf="http://www.w3.org/1999/02/22-rdf-syntax-ns#"
   xmlns:svg="http://www.w3.org/2000/svg"
   xmlns="http://www.w3.org/2000/svg"
   xmlns:sodipodi="http://sodipodi.sourceforge.net/DTD/sodipodi-0.dtd"
   xmlns:inkscape="http://www.inkscape.org/namespaces/inkscape"
   id="SvgjsSvg1006"
   width="90"
   height="380"
   version="1.1"
   sodipodi:docname="1x8CV.svg"
   inkscape:version="0.92.2 5c3e80d, 2017-08-06">
  <metadata
     id="metadata6353">
    <rdf:RDF>
      <cc:Work
         rdf:about="">
        <dc:format>image/svg+xml</dc:format>
        <dc:type
           rdf:resource="http://purl.org/dc/dcmitype/StillImage" />
        <dc:title></dc:title>
      </cc:Work>
    </rdf:RDF>
  </metadata>
  <sodipodi:namedview
     pagecolor="#ffffff"
     bordercolor="#666666"
     borderopacity="1"
     objecttolerance="10"
     gridtolerance="10"
     guidetolerance="10"
     inkscape:pageopacity="0"
     inkscape:pageshadow="2"
     inkscape:window-width="738"
     inkscape:window-height="1006"
     id="namedview6351"
     showgrid="false"
     inkscape:pagecheckerboard="true"
     inkscape:zoom="4"
     inkscape:cx="44.177152"
     inkscape:cy="333.13709"
     inkscape:window-x="635"
     inkscape:window-y="1"
     inkscape:window-maximized="0"
     inkscape:current-layer="SvgjsSvg1006" />
  <defs
     id="SvgjsDefs1007" />
  <rect
     id="SvgjsRect1008"
     width="90"
     height="380"
     fill="#222222" />
  <rect
     id="SvgjsRect1009"
     width="30"
     height="32"
     fill="#91b06f"
     x="30"
     y="33" />
  <rect
     id="SvgjsRect1010"
     width="76"
     height="30"
     fill="#5373cd"
     x="7"
     y="70" />
  <rect
     id="SvgjsRect1011"
     width="76"
     height="30"
     fill="#5373cd"
     x="7"
     y="105" />
  <rect
     id="SvgjsRect1012"
     width="76"
     height="30"
     fill="#5373cd"
     x="7"
     y="140" />
  <rect
     id="SvgjsRect1013"
     width="76"
     height="30"
     fill="#5373cd"
     x="7"
     y="175" />
  <rect
     id="SvgjsRect1014"
     width="76"
     height="30"
     fill="#5373cd"
     x="7"
     y="210" />
  <rect
     id="SvgjsRect1015"
     width="76"
     height="30"
     fill="#5373cd"
     x="7"
     y="245" />
  <rect
     id="SvgjsRect1016"
     width="76"
     height="30"
     fill="#5373cd"
     x="7"
     y="280" />
  <rect
     id="SvgjsRect1017"
     width="76"
     height="30"
     fill="#5373cd"
     x="7"
     y="315" />
  <path
     inkscape:connector-curvature="0"
     d="m 45.181029,360.00953 q 0,0.80208 -0.20833,1.44791 -0.19792,0.63542 -0.53125,1.125 -0.33333,0.48959 -0.78125,0.83334 -0.44792,0.34375 -0.92708,0.5625 -0.47917,0.21875 -0.97917,0.32291 -0.48958,0.10417 -0.92708,0.10417 h -10.44792 v -2.70833 h 10.44792 q 0.78125,0 1.20833,-0.45834 0.4375,-0.45833 0.4375,-1.22916 0,-0.375 -0.11458,-0.6875 -0.11459,-0.3125 -0.33334,-0.54167 -0.20833,-0.22917 -0.52083,-0.35417 -0.30208,-0.125 -0.67708,-0.125 h -6.22917 q -0.65625,0 -1.41667,-0.22916 -0.76041,-0.23959 -1.41666,-0.76042 -0.64584,-0.52083 -1.08334,-1.36458 -0.42708,-0.84375 -0.42708,-2.0625 0,-1.21875 0.42708,-2.05209 0.4375,-0.84375 1.08334,-1.36458 0.65625,-0.53125 1.41666,-0.76042 0.76042,-0.23958 1.41667,-0.23958 h 9.21875 v 2.70833 h -9.21875 q -0.77083,0 -1.20833,0.46875 -0.42709,0.46875 -0.42709,1.23959 0,0.78125 0.42709,1.23958 0.4375,0.44792 1.20833,0.44792 h 6.22917 0.0208 q 0.4375,0.0104 0.92708,0.125 0.48958,0.10416 0.96875,0.33333 0.48958,0.22917 0.92708,0.58333 0.4375,0.34375 0.77084,0.83334 0.34375,0.48958 0.54166,1.125 0.19792,0.63541 0.19792,1.4375 z"
     style="font-style:normal;font-variant:normal;font-weight:normal;font-stretch:normal;font-size:21.33333397px;line-height:1.25;font-family:Audiowide;-inkscape-font-specification:Audiowide;letter-spacing:0px;word-spacing:0px;fill:#f0f0f0;fill-opacity:1;stroke:none"
     id="path5271" />
  <path
     inkscape:connector-curvature="0"
     d="m 63.108119,364.40536 h -3.84375 l -6.09375,-6.10417 h -1.90625 v -2.72916 h 1.90625 l 6.09375,-6.10417 h 3.84375 l -7.67709,7.46875 z m -12.92709,0 h -2.70833 v -14.9375 h 2.70833 z"
     style="font-style:normal;font-variant:normal;font-weight:normal;font-stretch:normal;font-size:21.33333397px;line-height:1.25;font-family:Audiowide;-inkscape-font-specification:Audiowide;letter-spacing:0px;word-spacing:0px;fill:#f0f0f0;fill-opacity:1;stroke:none"
     id="path5273" />
  <text
     xml:space="preserve"
     style="font-style:normal;font-variant:normal;font-weight:normal;font-stretch:normal;font-size:10.66666698px;line-height:1.25;font-family:Audiowide;-inkscape-font-specification:Audiowide;letter-spacing:0px;word-spacing:0px;fill:#000000;fill-opacity:1;stroke:none"
     x="131"
     y="65.5"
     id="text7130"><tspan
       sodipodi:role="line"
       id="tspan7128"
       x="131"
       y="75.114197"></tspan></text>
  <g
     aria-label="1x8 CV"
     style="font-style:normal;font-variant:normal;font-weight:normal;font-stretch:normal;font-size:10.66666698px;line-height:1.25;font-family:Audiowide;-inkscape-font-specification:Audiowide;letter-spacing:0px;word-spacing:0px;fill:#000000;fill-opacity:1;stroke:none"
     id="text7134">
    <path
       d="M 26.441406,24.749985 H 24.742187 V 17.106756 H 23.21224 v -1.692709 h 3.229166 z"
       style="font-size:13.33333302px;fill:#f0f0f0;fill-opacity:1"
       id="path7167" />
    <path
       d="m 36.324218,17.712224 -3.040364,3.320313 3.424479,3.717448 H 34.377604 L 32.125,22.295558 29.872395,24.749985 h -2.337239 l 3.417969,-3.730469 -3.027344,-3.307292 h 2.317708 l 1.86849,2.037761 1.88151,-2.037761 z"
       style="font-size:13.33333302px;fill:#f0f0f0;fill-opacity:1"
       id="path7169" />
    <path
       d="m 46.024739,22.373683 q 0,0.240885 -0.05859,0.507812 -0.05208,0.266927 -0.175781,0.533854 -0.117188,0.260417 -0.30599,0.501302 -0.188802,0.240886 -0.455729,0.429688 -0.260417,0.182292 -0.605469,0.292969 -0.345052,0.110677 -0.774739,0.110677 h -3.828125 q -0.351563,0 -0.768229,-0.123698 -0.416667,-0.123698 -0.77474,-0.403646 -0.351562,-0.286458 -0.592448,-0.735677 -0.234375,-0.455729 -0.234375,-1.113281 v -0.755209 q 0,-0.247395 0.05208,-0.520833 0.05859,-0.273437 0.175781,-0.540364 0.123698,-0.266928 0.3125,-0.507813 0.188802,-0.240885 0.455729,-0.416667 -0.117188,-0.273437 -0.175781,-0.553385 -0.05859,-0.279948 -0.05859,-0.527344 v -0.761719 q 0,-0.651041 0.234375,-1.10677 0.240885,-0.455729 0.592448,-0.735677 0.358073,-0.279948 0.774739,-0.403646 0.416667,-0.130209 0.76823,-0.130209 h 2.291666 q 0.436198,0 0.78125,0.110678 0.351563,0.110677 0.611979,0.299479 0.266927,0.182291 0.449219,0.423177 0.188802,0.240885 0.30599,0.507812 0.117187,0.260417 0.16927,0.533854 0.05859,0.266927 0.05859,0.501302 v 0.761719 q 0,0.638021 -0.227864,1.106771 0.208333,0.136719 0.390625,0.325521 0.182291,0.182292 0.31901,0.423177 0.136719,0.240885 0.214844,0.546875 0.07813,0.299479 0.07813,0.664062 z M 43.557291,17.80337 q 0,-0.345052 -0.175781,-0.520833 -0.175782,-0.175781 -0.507813,-0.175781 h -2.278646 q -0.345052,0 -0.514323,0.175781 -0.16276,0.175781 -0.16276,0.507812 v 0.761719 q 0,0.338542 0.169271,0.507813 0.175781,0.169271 0.494792,0.169271 h 2.291666 q 0.345052,0 0.514323,-0.169271 0.169271,-0.175782 0.169271,-0.507813 z m 0.755208,3.815104 q 0,-0.32552 -0.182291,-0.501302 -0.175782,-0.182291 -0.481771,-0.182291 h -3.828125 q -0.3125,0 -0.494792,0.195312 -0.182292,0.195313 -0.182292,0.488281 v 0.755209 q 0,0.3125 0.188803,0.501302 0.195312,0.182291 0.488281,0.182291 h 3.828125 q 0.325521,0 0.494791,-0.195312 0.169271,-0.195313 0.169271,-0.488281 z"
       style="font-size:13.33333302px;fill:#f0f0f0;fill-opacity:1"
       id="path7171" />
    <path
       d="m 60.399737,24.749985 h -6.106771 q -0.234375,0 -0.507812,-0.05208 -0.266927,-0.05859 -0.533855,-0.175781 -0.260416,-0.117187 -0.501302,-0.299479 -0.240885,-0.188802 -0.429687,-0.449219 -0.182292,-0.266927 -0.292969,-0.611979 -0.110677,-0.351562 -0.110677,-0.78776 v -4.583334 q 0,-0.234375 0.05208,-0.501302 0.05859,-0.273437 0.175782,-0.533854 0.117187,-0.266927 0.305989,-0.507812 0.188802,-0.240886 0.449219,-0.423177 0.266927,-0.188802 0.611979,-0.299479 0.345052,-0.110678 0.78125,-0.110678 h 6.106771 v 1.692709 h -6.106771 q -0.332031,0 -0.507812,0.175781 -0.175782,0.175781 -0.175782,0.520833 v 4.570313 q 0,0.325521 0.175782,0.507812 0.182291,0.175781 0.507812,0.175781 h 6.106771 z"
       style="font-size:13.33333302px;fill:#f0f0f0;fill-opacity:1"
       id="path7173" />
    <path
       d="m 71.356771,15.414047 -4.420573,9.003906 q -0.104167,0.208334 -0.3125,0.332032 -0.201823,0.130208 -0.449219,0.130208 -0.240885,0 -0.449219,-0.130208 -0.201823,-0.123698 -0.3125,-0.332032 l -4.414062,-9.003906 h 1.894531 l 3.28125,6.725261 3.294271,-6.725261 z"
       style="font-size:13.33333302px;fill:#f0f0f0;fill-opacity:1"
       id="path7175" />
  </g>
  <g
     aria-label="Out"
     style="font-style:normal;font-variant:normal;font-weight:normal;font-stretch:normal;font-size:10.66666698px;line-height:1.25;font-family:Audiowide;-inkscape-font-specification:Audiowide;letter-spacing:0px;word-spacing:0px;fill:#000000;fill-opacity:1;stroke:none"
     id="text7138">
    <path
       d="m 69.625,64.979167 q 0,0.682291 -0.234375,1.255208 -0.234375,0.572917 -0.651041,0.989583 Q 68.322917,67.640625 67.75,67.875 q -0.567708,0.229167 -1.239583,0.229167 h -1.833334 q -0.671875,0 -1.244791,-0.229167 -0.572917,-0.234375 -0.989584,-0.651042 -0.416666,-0.416666 -0.65625,-0.989583 -0.234375,-0.572917 -0.234375,-1.255208 v -1.427084 q 0,-0.677083 0.234375,-1.25 0.239584,-0.578125 0.65625,-0.989583 0.416667,-0.416667 0.989584,-0.651042 0.572916,-0.234375 1.244791,-0.234375 h 1.833334 q 0.671875,0 1.239583,0.234375 0.572917,0.234375 0.989584,0.651042 0.416666,0.411458 0.651041,0.989583 0.234375,0.572917 0.234375,1.25 z m -1.354166,-1.427084 q 0,-0.401041 -0.130209,-0.723958 Q 68.015625,62.5 67.78125,62.270833 67.552084,62.036458 67.223959,61.911458 66.901042,61.78125 66.510417,61.78125 h -1.833334 q -0.395833,0 -0.723958,0.130208 -0.322917,0.125 -0.557292,0.359375 -0.234375,0.229167 -0.364583,0.557292 -0.125,0.322917 -0.125,0.723958 v 1.427084 q 0,0.401041 0.125,0.729166 0.130208,0.322917 0.364583,0.557292 0.234375,0.229167 0.557292,0.359375 0.328125,0.125 0.723958,0.125 H 66.5 q 0.395834,0 0.71875,-0.125 0.328125,-0.130208 0.5625,-0.359375 0.234375,-0.234375 0.359375,-0.557292 0.130209,-0.328125 0.130209,-0.729166 z"
       style="fill:#f0f0f0;fill-opacity:1"
       id="path7144" />
    <path
       d="m 76.979167,67.317708 q 0,0.145834 -0.05208,0.270834 -0.05208,0.125 -0.145834,0.21875 -0.08854,0.08854 -0.213541,0.140625 Q 76.447917,68 76.307292,68 h -3.0625 q -0.25,0 -0.536459,-0.05729 -0.28125,-0.05729 -0.557291,-0.182291 Q 71.875,67.630208 71.614583,67.4375 q -0.255208,-0.197917 -0.447916,-0.473958 -0.192709,-0.28125 -0.3125,-0.645834 -0.114584,-0.364583 -0.114584,-0.822916 v -3.125001 h 1.354167 v 3.125001 q 0,0.265625 0.08854,0.479166 0.09375,0.208334 0.25,0.359375 0.15625,0.151042 0.364583,0.234375 0.213542,0.07813 0.458333,0.07813 H 75.625 v -4.276042 h 1.354167 z"
       style="fill:#f0f0f0;fill-opacity:1"
       id="path7146" />
    <path
       d="M 83.380209,63.723958 H 81.015625 V 68 h -1.369792 v -4.276042 h -1.760416 v -1.354167 h 1.760416 V 60.53125 h 1.369792 v 1.838541 h 2.364584 z"
       style="fill:#f0f0f0;fill-opacity:1"
       id="path7148" />
  </g>
  <g
     aria-label="CV"
     style="font-style:normal;font-variant:normal;font-weight:normal;font-stretch:normal;font-size:10.66666698px;line-height:1.25;font-family:Audiowide;-inkscape-font-specification:Audiowide;letter-spacing:0px;word-spacing:0px;fill:#000000;fill-opacity:1;stroke:none"
     id="text7142">
    <path
       d="m 16.473959,68 h -4.885417 q -0.1875,0 -0.40625,-0.04167 -0.213542,-0.04687 -0.427084,-0.140625 -0.208333,-0.09375 -0.401041,-0.239583 Q 10.161458,67.427083 10.010417,67.21875 9.8645834,67.005208 9.7760417,66.729167 9.6875,66.447917 9.6875,66.098958 v -3.666666 q 0,-0.187501 0.041667,-0.401042 0.046875,-0.21875 0.140625,-0.427084 0.09375,-0.213541 0.2447913,-0.40625 0.151042,-0.192708 0.359375,-0.338541 0.213542,-0.151042 0.489584,-0.239584 0.276041,-0.08854 0.625,-0.08854 h 4.885417 v 1.354166 h -4.885417 q -0.265625,0 -0.40625,0.140625 -0.140625,0.140625 -0.140625,0.416667 v 3.65625 q 0,0.260417 0.140625,0.40625 0.145833,0.140625 0.40625,0.140625 h 4.885417 z"
       style="fill:#f0f0f0;fill-opacity:1"
       id="path7162" />
    <path
       d="m 25.239584,60.53125 -3.536459,7.203125 q -0.08333,0.166667 -0.25,0.265625 -0.161458,0.104167 -0.359375,0.104167 -0.192708,0 -0.359375,-0.104167 -0.161458,-0.09896 -0.25,-0.265625 l -3.53125,-7.203125 h 1.515625 l 2.625,5.380208 2.635417,-5.380208 z"
       style="fill:#f0f0f0;fill-opacity:1"
       id="path7164" />
  </g>
  <g
     transform="translate(22.691475,0.089455)"
     aria-label="input"
     style="font-style:normal;font-variant:normal;font-weight:normal;font-stretch:normal;font-size:10.66666698px;line-height:1.25;font-family:Audiowide;-inkscape-font-specification:Audiowide;letter-spacing:0px;word-spacing:0px;fill:#000000;fill-opacity:1;stroke:none"
     id="text5209">
    <path
       inkscape:connector-curvature="0"
       d="m 12.32415,57.820702 h -1.015625 v -0.917969 h 1.015625 z m 0,5.089843 h -1.015625 v -4.222656 h 1.015625 z"
       style="font-size:8px;fill:#f0f0f0;fill-opacity:1"
       id="path5317" />
    <path
       inkscape:connector-curvature="0"
       d="m 17.972588,62.910545 h -1.015625 v -2.34375 q 0,-0.199218 -0.07031,-0.355468 -0.06641,-0.160157 -0.183594,-0.273438 -0.117187,-0.113281 -0.277343,-0.171875 -0.15625,-0.0625 -0.339844,-0.0625 h -1.777344 v 3.207031 H 13.2929 v -3.71875 q 0,-0.105468 0.03906,-0.195312 0.03906,-0.09375 0.109375,-0.160156 0.07031,-0.07031 0.164062,-0.109375 0.09375,-0.03906 0.199219,-0.03906 h 2.289062 q 0.191407,0 0.402344,0.04297 0.214844,0.04297 0.421875,0.140625 0.210938,0.09375 0.398438,0.242187 0.191406,0.144532 0.335937,0.355469 0.148438,0.207031 0.234375,0.480469 0.08594,0.273437 0.08594,0.617187 z"
       style="font-size:8px;fill:#f0f0f0;fill-opacity:1"
       id="path5319" />
    <path
       inkscape:connector-curvature="0"
       d="m 23.527275,61.484764 q 0,0.261719 -0.06641,0.472656 -0.06641,0.207032 -0.175781,0.367188 -0.109375,0.15625 -0.253907,0.269531 -0.144531,0.109375 -0.304687,0.179688 -0.15625,0.07031 -0.316406,0.105468 -0.160157,0.03125 -0.304688,0.03125 H 20.273369 V 61.89492 H 22.1054 q 0.203125,0 0.304688,-0.105468 0.101562,-0.105469 0.101562,-0.304688 v -1.367187 q 0,-0.210938 -0.105469,-0.3125 -0.101562,-0.101563 -0.300781,-0.101563 h -1.824219 q -0.207031,0 -0.3125,0.105469 -0.105468,0.101562 -0.105468,0.300781 v 4.121094 h -1.015625 v -4.121094 q 0,-0.261719 0.06641,-0.46875 0.06641,-0.207031 0.175781,-0.363281 0.113281,-0.160156 0.257813,-0.269531 0.144531,-0.113282 0.300781,-0.183594 0.160156,-0.07031 0.320312,-0.101563 0.164063,-0.03516 0.304688,-0.03516 H 22.1054 q 0.261719,0 0.46875,0.06641 0.207031,0.06641 0.363281,0.175782 0.160157,0.109375 0.269532,0.253906 0.113281,0.144531 0.183593,0.304687 0.07031,0.15625 0.101563,0.316407 0.03516,0.160156 0.03516,0.304687 z"
       style="font-size:8px;fill:#f0f0f0;fill-opacity:1"
       id="path5321" />
    <path
       inkscape:connector-curvature="0"
       d="m 29.019463,62.398827 q 0,0.109375 -0.03906,0.203125 -0.03906,0.09375 -0.109375,0.164062 -0.06641,0.06641 -0.160156,0.105469 -0.08984,0.03906 -0.195313,0.03906 h -2.296875 q -0.1875,0 -0.402343,-0.04297 -0.210938,-0.04297 -0.417969,-0.136719 -0.207031,-0.09766 -0.402344,-0.242188 -0.191406,-0.148437 -0.335937,-0.355468 -0.144532,-0.210938 -0.234375,-0.484375 -0.08594,-0.273438 -0.08594,-0.617188 v -2.34375 H 25.3554 v 2.34375 q 0,0.199219 0.06641,0.359375 0.07031,0.15625 0.1875,0.269531 0.117188,0.113282 0.273438,0.175782 0.160156,0.05859 0.34375,0.05859 h 1.777344 v -3.207031 h 1.015625 z"
       style="font-size:8px;fill:#f0f0f0;fill-opacity:1"
       id="path5323" />
    <path
       inkscape:connector-curvature="0"
       d="m 33.820244,59.703514 h -1.773438 v 3.207031 H 31.019463 V 59.703514 H 29.69915 v -1.015625 h 1.320313 v -1.378906 h 1.027343 v 1.378906 h 1.773438 z"
       style="font-size:8px;fill:#f0f0f0;fill-opacity:1"
       id="path5325" />
  </g>
</svg>
