<?xml version="1.0" encoding="UTF-8" standalone="no"?>
<svg
   xmlns:dc="http://purl.org/dc/elements/1.1/"
   xmlns:cc="http://creativecommons.org/ns#"
   xmlns:rdf="http://www.w3.org/1999/02/22-rdf-syntax-ns#"
   xmlns:svg="http://www.w3.org/2000/svg"
   xmlns="http://www.w3.org/2000/svg"
   xmlns:sodipodi="http://sodipodi.sourceforge.net/DTD/sodipodi-0.dtd"
   xmlns:inkscape="http://www.inkscape.org/namespaces/inkscape"
   id="SvgjsSvg1006"
   width="45"
   height="380"
   version="1.1"
   sodipodi:docname="ClockDivider.svg"
   inkscape:version="0.92.2 5c3e80d, 2017-08-06">
  <metadata
     id="metadata4625">
    <rdf:RDF>
      <cc:Work
         rdf:about="">
        <dc:format>image/svg+xml</dc:format>
        <dc:type
           rdf:resource="http://purl.org/dc/dcmitype/StillImage" />
        <dc:title></dc:title>
      </cc:Work>
    </rdf:RDF>
  </metadata>
  <sodipodi:namedview
     pagecolor="#ffffff"
     bordercolor="#666666"
     borderopacity="1"
     objecttolerance="10000"
     gridtolerance="10000"
     guidetolerance="10000"
     inkscape:pageopacity="0"
     inkscape:pageshadow="2"
     inkscape:window-width="738"
     inkscape:window-height="961"
     id="namedview4623"
     showgrid="false"
     inkscape:zoom="2"
     inkscape:cx="-2.9489049"
     inkscape:cy="197.30866"
     inkscape:window-x="722"
     inkscape:window-y="0"
     inkscape:window-maximized="0"
     inkscape:current-layer="SvgjsSvg1006" />
  <defs
     id="SvgjsDefs1007" />
  <path
     style="fill:#222222"
     d="M 0,0 H 45 V 380 H 0 Z"
     id="SvgjsRect1008" />
  <rect
     id="SvgjsRect1009"
     width="30"
     height="32"
     fill="#91b06f"
     x="7.5"
     y="33" />
  <rect
     id="SvgjsRect1010"
     width="35"
     height="30"
     fill="#5373cd"
     x="0"
     y="70" />
  <polygon
     id="SvgjsPolygon1011"
     points="35,70 45,85 35,100"
     fill="#5373cd" />
  <rect
     id="SvgjsRect1012"
     width="35"
     height="30"
     fill="#bd7370"
     x="0"
     y="105" />
  <polygon
     id="SvgjsPolygon1013"
     points="35,105 45,120 35,135"
     fill="#bd7370" />
  <rect
     id="SvgjsRect1014"
     width="35"
     height="30"
     fill="#4d9270"
     x="0"
     y="140" />
  <polygon
     id="SvgjsPolygon1015"
     points="35,140 45,155 35,170"
     fill="#4d9270" />
  <path
     style="fill:#bd7370"
     d="m 0,175 h 35 v 30 H 0 Z"
     id="SvgjsRect1016" />
  <polygon
     id="SvgjsPolygon1017"
     points="35,175 45,190 35,205"
     fill="#bd7370" />
  <rect
     id="SvgjsRect1018"
     width="35"
     height="30"
     fill="#5373cd"
     x="0"
     y="210" />
  <polygon
     id="SvgjsPolygon1019"
     points="35,210 45,225 35,240"
     fill="#5373cd" />
  <rect
     id="SvgjsRect1020"
     width="35"
     height="30"
     fill="#4d9270"
     x="0"
     y="245" />
  <polygon
     id="SvgjsPolygon1021"
     points="35,245 45,260 35,275"
     fill="#4d9270" />
  <rect
     id="SvgjsRect1022"
     width="35"
     height="30"
     fill="#5373cd"
     x="0"
     y="280" />
  <polygon
     id="SvgjsPolygon1023"
     points="35,280 45,295 35,310"
     fill="#5373cd" />
  <rect
     id="SvgjsRect1024"
     width="35"
     height="30"
     fill="#bd7370"
     x="0"
     y="315" />
  <polygon
     id="SvgjsPolygon1025"
     points="35,315 45,330 35,345"
     fill="#bd7370" />
  <g
     aria-label="SK"
     style="font-style:normal;font-variant:normal;font-weight:normal;font-stretch:normal;font-size:21.33333397px;line-height:1.25;font-family:Audiowide;-inkscape-font-specification:Audiowide;letter-spacing:0px;word-spacing:0px;fill:#000000;fill-opacity:1;stroke:none"
     id="text4650">
    <path
       d="m 21.05061,360.80287 q 0,0.80208 -0.208333,1.44791 -0.197917,0.63542 -0.53125,1.125 -0.333333,0.48959 -0.78125,0.83334 -0.447917,0.34375 -0.927083,0.5625 -0.479167,0.21875 -0.979167,0.32291 -0.489583,0.10417 -0.927083,0.10417 H 6.2485266 v -2.70833 H 16.696444 q 0.78125,0 1.208333,-0.45834 0.4375,-0.45833 0.4375,-1.22916 0,-0.375 -0.114583,-0.6875 -0.114584,-0.3125 -0.333334,-0.54167 -0.208333,-0.22917 -0.520833,-0.35417 -0.302083,-0.125 -0.677083,-0.125 h -6.229167 q -0.6562503,0 -1.416667,-0.22916 -0.7604167,-0.23959 -1.4166667,-0.76042 -0.6458333,-0.52083 -1.0833334,-1.36458 -0.4270833,-0.84375 -0.4270833,-2.0625 0,-1.21875 0.4270833,-2.05209 0.4375001,-0.84375 1.0833334,-1.36458 0.65625,-0.53125 1.4166667,-0.76042 0.7604167,-0.23958 1.416667,-0.23958 h 9.21875 v 2.70833 h -9.21875 q -0.7708336,0 -1.2083336,0.46875 -0.4270834,0.46875 -0.4270834,1.23959 0,0.78125 0.4270834,1.23958 0.4375,0.44792 1.2083336,0.44792 h 6.229167 0.02083 q 0.4375,0.0104 0.927083,0.125 0.489584,0.10416 0.96875,0.33333 0.489584,0.22917 0.927084,0.58333 0.4375,0.34375 0.770833,0.83334 0.34375,0.48958 0.541667,1.125 0.197916,0.63541 0.197916,1.4375 z"
       style="fill:#f0f0f0;fill-opacity:1"
       id="path5271" />
    <path
       d="m 38.977694,365.1987 h -3.84375 l -6.093751,-6.10417 h -1.90625 v -2.72916 h 1.90625 l 6.093751,-6.10417 h 3.84375 l -7.677084,7.46875 z m -12.927084,0 h -2.708333 v -14.9375 h 2.708333 z"
       style="fill:#f0f0f0;fill-opacity:1"
       id="path5273" />
  </g>
  <g
     aria-label="Clock"
     style="font-style:normal;font-variant:normal;font-weight:normal;font-stretch:normal;font-size:10.66666698px;line-height:1.25;font-family:Audiowide;-inkscape-font-specification:Audiowide;letter-spacing:0px;word-spacing:0px;fill:#000000;fill-opacity:1;stroke:none"
     id="text5197">
    <path
       d="M 12.597487,20.783762 H 7.7120702 q -0.1875,0 -0.40625,-0.04167 Q 7.0922785,20.69522 6.8787369,20.60147 6.6704035,20.50772 6.4776952,20.361887 6.2849868,20.210845 6.1339452,20.002512 5.9881118,19.78897 5.8995702,19.512929 5.8110285,19.231679 5.8110285,18.88272 v -3.666667 q 0,-0.1875 0.041667,-0.401041 0.046875,-0.21875 0.140625,-0.427084 0.09375,-0.213541 0.2447916,-0.40625 0.1510417,-0.192708 0.3593751,-0.338541 0.2135416,-0.151042 0.4895833,-0.239584 0.2760417,-0.08854 0.625,-0.08854 h 4.8854168 v 1.354166 H 7.7120702 q -0.265625,0 -0.40625,0.140625 -0.140625,0.140625 -0.140625,0.416667 v 3.65625 q 0,0.260417 0.140625,0.40625 0.1458333,0.140625 0.40625,0.140625 h 4.8854168 z"
       style="fill:#f0f0f0;fill-opacity:1"
       id="path5328" />
    <path
       d="m 16.212071,20.783762 h -0.604167 q -0.291667,0 -0.625,-0.09896 -0.328125,-0.09896 -0.614583,-0.322917 -0.286459,-0.229167 -0.473959,-0.588542 -0.1875,-0.364583 -0.1875,-0.890625 v -6.109375 h 1.354167 v 6.109375 q 0,0.25 0.15625,0.401042 0.15625,0.145833 0.390625,0.145833 h 0.604167 z"
       style="fill:#f0f0f0;fill-opacity:1"
       id="path5330" />
    <path
       d="m 23.217279,18.88272 q 0,0.348959 -0.08854,0.630209 -0.08854,0.276041 -0.234375,0.489583 -0.145834,0.208333 -0.338542,0.359375 -0.192708,0.145833 -0.40625,0.239583 -0.208333,0.09375 -0.427083,0.140625 -0.213542,0.04167 -0.40625,0.04167 h -2.442709 q -0.28125,0 -0.614583,-0.09896 -0.333334,-0.09896 -0.619792,-0.322917 -0.28125,-0.229167 -0.473958,-0.588542 -0.1875,-0.364583 -0.1875,-0.890625 v -1.833333 q 0,-0.520833 0.1875,-0.880208 0.192708,-0.364584 0.473958,-0.588542 0.286458,-0.229167 0.619792,-0.328125 0.333333,-0.09896 0.614583,-0.09896 h 2.442709 q 0.520833,0 0.885416,0.1875 0.364584,0.1875 0.588542,0.473959 0.223958,0.28125 0.322917,0.614583 0.104166,0.333334 0.104166,0.619792 z m -1.354166,-1.822916 q 0,-0.28125 -0.140625,-0.416667 -0.140625,-0.135417 -0.40625,-0.135417 h -2.432292 q -0.270833,0 -0.411458,0.140625 -0.140625,0.135417 -0.140625,0.401042 v 1.833333 q 0,0.265625 0.140625,0.40625 0.140625,0.140625 0.411458,0.140625 h 2.432292 q 0.276041,0 0.411458,-0.140625 0.135417,-0.140625 0.135417,-0.40625 z"
       style="fill:#f0f0f0;fill-opacity:1"
       id="path5332" />
    <path
       d="m 29.816238,20.783762 h -3.671875 q -0.28125,0 -0.614583,-0.09896 -0.333334,-0.09896 -0.619792,-0.322917 -0.28125,-0.229167 -0.473958,-0.588542 -0.1875,-0.364583 -0.1875,-0.890625 v -1.833333 q 0,-0.192708 0.04167,-0.40625 0.04687,-0.213542 0.140625,-0.421875 0.09375,-0.213542 0.239584,-0.40625 0.151041,-0.192709 0.359375,-0.338542 0.213541,-0.145833 0.489583,-0.234375 0.276042,-0.08854 0.625,-0.08854 h 3.671875 v 1.354167 h -3.671875 q -0.265625,0 -0.40625,0.135417 -0.135417,0.135417 -0.135417,0.416667 v 1.822916 q 0,0.265625 0.140625,0.40625 0.140625,0.140625 0.411459,0.140625 h 3.661458 z"
       style="fill:#f0f0f0;fill-opacity:1"
       id="path5334" />
    <path
       d="m 37.561029,20.783762 h -1.953125 l -2.729167,-2.635417 q -0.229167,-0.208333 -0.213542,-0.520833 0.01042,-0.145833 0.07292,-0.270833 0.06771,-0.130209 0.182292,-0.21875 l 2.473958,-1.994792 h 2.166667 l -3.1875,2.567708 z m -5.239584,0 h -1.354166 v -8.010417 h 1.354166 z"
       style="fill:#f0f0f0;fill-opacity:1"
       id="path5336" />
  </g>
  <g
     aria-label="Divider"
     style="font-style:normal;font-variant:normal;font-weight:normal;font-stretch:normal;font-size:10.66666698px;line-height:1.25;font-family:Audiowide;-inkscape-font-specification:Audiowide;letter-spacing:0px;word-spacing:0px;fill:#000000;fill-opacity:1;stroke:none"
     id="text5205">
    <path
       d="m 9.9474251,27.336536 q 0,0.682292 -0.2395833,1.255209 Q 9.4734667,29.164661 9.0568001,29.581328 8.6401334,29.992786 8.0672167,30.227161 7.4943,30.461536 6.822425,30.461536 H 3.1661749 q -0.1458333,0 -0.2708333,-0.05208 -0.1250001,-0.05208 -0.2187501,-0.140625 -0.088542,-0.09375 -0.140625,-0.21875 -0.052083,-0.125 -0.052083,-0.270833 v -6.104167 q 0,-0.140625 0.052083,-0.265625 0.052083,-0.125 0.140625,-0.21875 0.09375,-0.09375 0.2187501,-0.145833 0.125,-0.05208 0.2708333,-0.05208 H 6.822425 q 0.671875,0 1.2447917,0.234375 0.5729167,0.234375 0.9895834,0.651042 0.4166666,0.411458 0.6510417,0.989583 0.2395833,0.572917 0.2395833,1.25 z m -1.3541667,-1.21875 q 0,-0.395833 -0.1302083,-0.723958 Q 8.33805,25.065703 8.103675,24.836536 7.8693,24.602161 7.541175,24.477161 7.2182583,24.346953 6.822425,24.346953 H 3.8380499 V 29.10737 H 6.822425 q 0.3958333,0 0.71875,-0.125 0.328125,-0.130209 0.5625,-0.359375 0.234375,-0.234375 0.3593751,-0.557292 0.1302083,-0.328125 0.1302083,-0.729167 z"
       style="fill:#f0f0f0;fill-opacity:1"
       id="path5340" />
    <path
       d="M 12.509925,23.675078 H 11.155759 V 22.45112 h 1.354166 z m 0,6.786458 h -1.354166 v -5.630208 h 1.354166 z"
       style="fill:#f0f0f0;fill-opacity:1"
       id="path5342" />
    <path
       d="m 20.520342,24.831328 q -0.229166,0.713542 -0.536458,1.40625 -0.307292,0.692708 -0.708333,1.322917 -0.395834,0.625 -0.890625,1.161458 -0.489584,0.53125 -1.088542,0.921875 -0.59375,0.385417 -1.296875,0.609375 -0.697917,0.21875 -1.515625,0.21875 -0.140625,0 -0.265625,-0.05208 -0.125,-0.05208 -0.21875,-0.140625 -0.09375,-0.09375 -0.145833,-0.213542 -0.05208,-0.125 -0.05208,-0.265625 v -4.96875 h 1.354167 v 4.234375 q 0.494792,0 0.947917,-0.213542 0.458333,-0.213541 0.864583,-0.5625 0.40625,-0.354166 0.75,-0.802083 0.348958,-0.447917 0.619792,-0.916667 0.270833,-0.473958 0.458333,-0.927083 0.192708,-0.453125 0.286458,-0.8125 z"
       style="fill:#f0f0f0;fill-opacity:1"
       id="path5344" />
    <path
       d="M 22.384926,23.675078 H 21.030759 V 22.45112 h 1.354167 z m 0,6.786458 h -1.354167 v -5.630208 h 1.354167 z"
       style="fill:#f0f0f0;fill-opacity:1"
       id="path5346" />
    <path
       d="m 29.853676,28.560495 q 0,0.348958 -0.08854,0.630208 -0.08854,0.276042 -0.234375,0.489583 -0.145833,0.208334 -0.338542,0.359375 -0.192708,0.145834 -0.40625,0.239584 -0.208333,0.09375 -0.427083,0.140625 -0.213542,0.04167 -0.40625,0.04167 h -2.442708 q -0.348959,0 -0.625,-0.08854 -0.276042,-0.08854 -0.489584,-0.234375 -0.208333,-0.151042 -0.359375,-0.34375 -0.145833,-0.192709 -0.239583,-0.401042 -0.09375,-0.213542 -0.140625,-0.427083 -0.04167,-0.21875 -0.04167,-0.40625 v -1.833334 q 0,-0.520833 0.1875,-0.880208 0.192709,-0.364583 0.473959,-0.588542 0.286458,-0.229166 0.619791,-0.328125 0.333334,-0.09896 0.614584,-0.09896 h 2.442708 v 1.354167 h -2.432292 q -0.270833,0 -0.411458,0.140625 -0.140625,0.135416 -0.140625,0.401041 v 1.822917 q 0,0.276042 0.135417,0.416667 0.140625,0.140625 0.40625,0.140625 h 2.442708 q 0.276042,0 0.411458,-0.140625 0.135417,-0.140625 0.135417,-0.40625 V 22.45112 h 1.354167 z"
       style="fill:#f0f0f0;fill-opacity:1"
       id="path5348" />
    <path
       d="m 37.21305,26.695911 q 0,0.28125 -0.09896,0.609375 -0.09896,0.322917 -0.322917,0.604167 -0.21875,0.276042 -0.578125,0.463542 -0.354167,0.1875 -0.864583,0.1875 h -2.442709 v -1.286459 h 2.442709 q 0.276041,0 0.427083,-0.166666 0.151042,-0.171875 0.151042,-0.421875 0,-0.265625 -0.171875,-0.416667 -0.166667,-0.151042 -0.40625,-0.151042 h -2.442709 q -0.276041,0 -0.427083,0.171875 -0.151042,0.166667 -0.151042,0.416667 v 1.890625 q 0,0.270833 0.166667,0.421875 0.171875,0.151042 0.421875,0.151042 h 2.432292 v 1.291666 h -2.442709 q -0.28125,0 -0.609375,-0.09896 -0.322916,-0.09896 -0.604166,-0.317708 -0.276042,-0.223959 -0.463542,-0.578125 -0.1875,-0.359375 -0.1875,-0.869792 v -1.901042 q 0,-0.28125 0.09896,-0.604166 0.09896,-0.328125 0.317709,-0.604167 0.223958,-0.28125 0.578125,-0.46875 0.359375,-0.1875 0.869791,-0.1875 h 2.442709 q 0.28125,0 0.604166,0.09896 0.328125,0.09896 0.604167,0.322917 0.28125,0.21875 0.46875,0.578125 0.1875,0.354167 0.1875,0.864583 z"
       style="fill:#f0f0f0;fill-opacity:1"
       id="path5350" />
    <path
       d="m 43.06201,26.185495 h -3.046875 q -0.276042,0 -0.416667,0.140625 -0.140625,0.135416 -0.140625,0.401041 v 3.734375 h -1.354167 v -3.734375 q 0,-0.348958 0.08854,-0.625 0.08854,-0.276041 0.234375,-0.484375 0.151041,-0.213541 0.34375,-0.359375 0.192708,-0.151041 0.401042,-0.244791 0.213541,-0.09375 0.427083,-0.135417 0.21875,-0.04687 0.40625,-0.04687 h 3.057292 z"
       style="fill:#f0f0f0;fill-opacity:1"
       id="path5352" />
  </g>
  <g
     aria-label="input"
     style="font-style:normal;font-variant:normal;font-weight:normal;font-stretch:normal;font-size:10.66666698px;line-height:1.25;font-family:Audiowide;-inkscape-font-specification:Audiowide;letter-spacing:0px;word-spacing:0px;fill:#000000;fill-opacity:1;stroke:none"
     id="text5209">
    <path
       d="m 12.32415,57.820702 h -1.015625 v -0.917969 h 1.015625 z m 0,5.089843 h -1.015625 v -4.222656 h 1.015625 z"
       style="font-size:8px;fill:#f0f0f0;fill-opacity:1"
       id="path5317" />
    <path
       d="m 17.972588,62.910545 h -1.015625 v -2.34375 q 0,-0.199218 -0.07031,-0.355468 -0.06641,-0.160157 -0.183594,-0.273438 -0.117187,-0.113281 -0.277343,-0.171875 -0.15625,-0.0625 -0.339844,-0.0625 h -1.777344 v 3.207031 H 13.2929 v -3.71875 q 0,-0.105468 0.03906,-0.195312 0.03906,-0.09375 0.109375,-0.160156 0.07031,-0.07031 0.164062,-0.109375 0.09375,-0.03906 0.199219,-0.03906 h 2.289062 q 0.191407,0 0.402344,0.04297 0.214844,0.04297 0.421875,0.140625 0.210938,0.09375 0.398438,0.242187 0.191406,0.144532 0.335937,0.355469 0.148438,0.207031 0.234375,0.480469 0.08594,0.273437 0.08594,0.617187 z"
       style="font-size:8px;fill:#f0f0f0;fill-opacity:1"
       id="path5319" />
    <path
       d="m 23.527275,61.484764 q 0,0.261719 -0.06641,0.472656 -0.06641,0.207032 -0.175781,0.367188 -0.109375,0.15625 -0.253907,0.269531 -0.144531,0.109375 -0.304687,0.179688 -0.15625,0.07031 -0.316406,0.105468 -0.160157,0.03125 -0.304688,0.03125 H 20.273369 V 61.89492 H 22.1054 q 0.203125,0 0.304688,-0.105468 0.101562,-0.105469 0.101562,-0.304688 v -1.367187 q 0,-0.210938 -0.105469,-0.3125 -0.101562,-0.101563 -0.300781,-0.101563 h -1.824219 q -0.207031,0 -0.3125,0.105469 -0.105468,0.101562 -0.105468,0.300781 v 4.121094 h -1.015625 v -4.121094 q 0,-0.261719 0.06641,-0.46875 0.06641,-0.207031 0.175781,-0.363281 0.113281,-0.160156 0.257813,-0.269531 0.144531,-0.113282 0.300781,-0.183594 0.160156,-0.07031 0.320312,-0.101563 0.164063,-0.03516 0.304688,-0.03516 H 22.1054 q 0.261719,0 0.46875,0.06641 0.207031,0.06641 0.363281,0.175782 0.160157,0.109375 0.269532,0.253906 0.113281,0.144531 0.183593,0.304687 0.07031,0.15625 0.101563,0.316407 0.03516,0.160156 0.03516,0.304687 z"
       style="font-size:8px;fill:#f0f0f0;fill-opacity:1"
       id="path5321" />
    <path
       d="m 29.019463,62.398827 q 0,0.109375 -0.03906,0.203125 -0.03906,0.09375 -0.109375,0.164062 -0.06641,0.06641 -0.160156,0.105469 -0.08984,0.03906 -0.195313,0.03906 h -2.296875 q -0.1875,0 -0.402343,-0.04297 -0.210938,-0.04297 -0.417969,-0.136719 -0.207031,-0.09766 -0.402344,-0.242188 -0.191406,-0.148437 -0.335937,-0.355468 -0.144532,-0.210938 -0.234375,-0.484375 -0.08594,-0.273438 -0.08594,-0.617188 v -2.34375 H 25.3554 v 2.34375 q 0,0.199219 0.06641,0.359375 0.07031,0.15625 0.1875,0.269531 0.117188,0.113282 0.273438,0.175782 0.160156,0.05859 0.34375,0.05859 h 1.777344 v -3.207031 h 1.015625 z"
       style="font-size:8px;fill:#f0f0f0;fill-opacity:1"
       id="path5323" />
    <path
       d="m 33.820244,59.703514 h -1.773438 v 3.207031 H 31.019463 V 59.703514 H 29.69915 v -1.015625 h 1.320313 v -1.378906 h 1.027343 v 1.378906 h 1.773438 z"
       style="font-size:8px;fill:#f0f0f0;fill-opacity:1"
       id="path5325" />
  </g>
  <text
     xml:space="preserve"
     style="font-style:normal;font-variant:normal;font-weight:normal;font-stretch:normal;font-size:8px;line-height:1.25;font-family:Audiowide;-inkscape-font-specification:Audiowide;letter-spacing:0px;word-spacing:0px;fill:#000000;fill-opacity:1;stroke:none;"
     x="-15.939865"
     y="113.57655"
     id="text5217"><tspan
       sodipodi:role="line"
       id="tspan5215"
       x="-15.939865"
       y="123.19075" /></text>
  <g
     aria-label="/8"
     style="font-style:normal;font-variant:normal;font-weight:normal;font-stretch:normal;font-size:8px;line-height:1.25;font-family:Audiowide;-inkscape-font-specification:Audiowide;letter-spacing:0px;word-spacing:0px;fill:#f0f0f0;fill-opacity:1;stroke:none"
     id="text5241">
    <path
       d="M 4.5605847,326.89844 1.0254284,332.5 h -1.08984371 l 3.53906251,-5.60156 z"
       style="fill:#f0f0f0;fill-opacity:1"
       id="path5276" />
    <path
       d="m 10.271522,331.07422 q 0,0.14453 -0.03516,0.30469 -0.03125,0.16015 -0.105469,0.32031 -0.07031,0.15625 -0.1835936,0.30078 -0.1132812,0.14453 -0.2734375,0.25781 -0.15625,0.10938 -0.3632812,0.17578 Q 9.1035534,332.5 8.8457409,332.5 h -2.296875 q -0.2109375,0 -0.4609375,-0.0742 -0.25,-0.0742 -0.4648437,-0.24219 -0.2109375,-0.17187 -0.3554688,-0.4414 -0.140625,-0.27344 -0.140625,-0.66797 v -0.45313 q 0,-0.14843 0.03125,-0.3125 0.035156,-0.16406 0.1054688,-0.32422 0.074219,-0.16015 0.1875,-0.30468 0.1132812,-0.14453 0.2734375,-0.25 -0.070312,-0.16407 -0.1054688,-0.33203 -0.035156,-0.16797 -0.035156,-0.31641 v -0.45703 q 0,-0.39063 0.140625,-0.66406 0.1445312,-0.27344 0.3554687,-0.44141 0.2148438,-0.16797 0.4648438,-0.24219 0.25,-0.0781 0.4609375,-0.0781 h 1.375 q 0.2617187,0 0.46875,0.0664 0.2109375,0.0664 0.3671875,0.17969 0.1601562,0.10938 0.2695312,0.25391 0.1132813,0.14453 0.1835938,0.30468 0.070312,0.15625 0.1015625,0.32032 0.035156,0.16015 0.035156,0.30078 v 0.45703 q 0,0.38281 -0.1367187,0.66406 0.125,0.082 0.234375,0.19531 0.1093753,0.10938 0.1914063,0.25391 0.08203,0.14453 0.128906,0.32813 0.04687,0.17968 0.04687,0.39843 z m -1.4804686,-2.74219 q 0,-0.20703 -0.1054687,-0.3125 -0.1054688,-0.10547 -0.3046875,-0.10547 H 7.0137097 q -0.2070313,0 -0.3085938,0.10547 -0.097656,0.10547 -0.097656,0.30469 v 0.45703 q 0,0.20312 0.1015625,0.30469 0.1054687,0.10156 0.296875,0.10156 h 1.375 q 0.2070312,0 0.3085937,-0.10156 0.1015625,-0.10547 0.1015625,-0.30469 z m 0.453125,2.28906 q 0,-0.19531 -0.109375,-0.30078 -0.1054687,-0.10937 -0.2890625,-0.10937 h -2.296875 q -0.1875,0 -0.296875,0.11718 -0.109375,0.11719 -0.109375,0.29297 v 0.45313 q 0,0.1875 0.1132813,0.30078 0.1171875,0.10937 0.2929687,0.10937 h 2.296875 q 0.1953125,0 0.296875,-0.11718 0.1015625,-0.11719 0.1015625,-0.29297 z"
       style="fill:#f0f0f0;fill-opacity:1"
       id="path5278" />
  </g>
  <g
     aria-label="/7"
     style="font-style:normal;font-variant:normal;font-weight:normal;font-stretch:normal;font-size:8px;line-height:1.25;font-family:Audiowide;-inkscape-font-specification:Audiowide;letter-spacing:0px;word-spacing:0px;fill:#000000;fill-opacity:1;stroke:none"
     id="text5245">
    <path
       d="M 4.5454196,292.14844 1.0102633,297.75 h -1.08984373 l 3.53906253,-5.60156 z"
       style="fill:#f0f0f0;fill-opacity:1"
       id="path5281" />
    <path
       d="m 9.7485446,292.40625 q 0.066406,0.12109 0.066406,0.25781 0,0.13281 -0.066406,0.25391 L 6.9321383,297.75 H 5.7563571 l 2.6640625,-4.58594 H 5.1313571 v -1.01562 h 4.1757812 q 0.1367188,0 0.2539063,0.0703 0.1210937,0.0664 0.1875,0.1875 z"
       style="fill:#f0f0f0;fill-opacity:1"
       id="path5283" />
  </g>
  <g
     aria-label="/6"
     style="font-style:normal;font-variant:normal;font-weight:normal;font-stretch:normal;font-size:8px;line-height:1.25;font-family:Audiowide;-inkscape-font-specification:Audiowide;letter-spacing:0px;word-spacing:0px;fill:#000000;fill-opacity:1;stroke:none"
     id="text5249">
    <path
       d="m 4.6034779,255.96341 -3.5351563,5.60156 h -1.08984373 l 3.53906253,-5.60156 z"
       style="fill:#f0f0f0;fill-opacity:1"
       id="path5286" />
    <path
       d="m 6.3105091,258.25247 h 2.703125 q 0.2148438,0 0.4609375,0.0781 0.25,0.0742 0.4648438,0.24609 0.2148436,0.16797 0.3554686,0.44141 0.144531,0.27343 0.144531,0.66797 v 0.45312 q 0,0.14453 -0.03516,0.30469 -0.03125,0.16015 -0.105469,0.32031 -0.07031,0.15625 -0.183593,0.30078 -0.109375,0.14453 -0.2695316,0.25781 -0.15625,0.10938 -0.3632813,0.17579 -0.2070312,0.0664 -0.46875,0.0664 H 7.1737904 q -0.1875,0 -0.4023438,-0.043 -0.2109375,-0.043 -0.4179687,-0.13672 -0.2070313,-0.0977 -0.4023438,-0.24218 -0.1914062,-0.14844 -0.3359375,-0.35547 -0.1445312,-0.21094 -0.234375,-0.48438 -0.085937,-0.27343 -0.085937,-0.61718 v -1.83985 q 0,-0.34375 0.085937,-0.61719 0.089844,-0.27343 0.234375,-0.48046 0.1445313,-0.21094 0.3359375,-0.35938 0.1953125,-0.14844 0.4023438,-0.24219 0.2070312,-0.0976 0.4179687,-0.14062 0.2148438,-0.043 0.4023438,-0.043 h 2.546875 v 1.01562 h -2.546875 q -0.1953125,0.0156 -0.3554688,0.082 -0.15625,0.0664 -0.2695312,0.17578 -0.1132813,0.10937 -0.1757813,0.26562 -0.0625,0.15235 -0.0625,0.34375 z m 0,1.02344 v 0.41016 q 0,0.19921 0.066406,0.35937 0.070312,0.15625 0.1875,0.26953 0.1171875,0.11328 0.2734375,0.17578 0.1601562,0.0586 0.34375,0.0586 h 1.8320312 q 0.1953125,0 0.296875,-0.11719 0.1054688,-0.11719 0.1054688,-0.29297 v -0.45312 q 0,-0.19922 -0.1015625,-0.30469 -0.1015625,-0.10547 -0.3085938,-0.10547 z"
       style="fill:#f0f0f0;fill-opacity:1"
       id="path5288" />
  </g>
  <g
     aria-label="/5"
     style="font-style:normal;font-variant:normal;font-weight:normal;font-stretch:normal;font-size:8px;line-height:1.25;font-family:Audiowide;-inkscape-font-specification:Audiowide;letter-spacing:0px;word-spacing:0px;fill:#000000;fill-opacity:1;stroke:none"
     id="text5253">
    <path
       d="m 4.6034779,221.67052 -3.5351563,5.60156 h -1.0898437 l 3.5390625,-5.60156 z"
       style="fill:#f0f0f0;fill-opacity:1"
       id="path5291" />
    <path
       d="m 10.572228,225.8463 q 0,0.14453 -0.03516,0.30469 -0.03125,0.16015 -0.105469,0.32031 -0.07031,0.15625 -0.183594,0.30078 -0.109375,0.14453 -0.2695311,0.25781 -0.15625,0.10938 -0.3632813,0.17578 -0.2070312,0.0664 -0.4648437,0.0664 H 5.4276966 v -1.01563 h 3.7226563 q 0.1914062,0 0.2929687,-0.11718 0.1054688,-0.11719 0.1054688,-0.29297 v -0.45313 q 0,-0.19922 -0.1015625,-0.30468 -0.1015625,-0.10547 -0.3046875,-0.10547 H 6.8534779 q -0.3945313,0 -0.6679688,-0.14063 -0.2695312,-0.14453 -0.4375,-0.35937 -0.1679687,-0.21485 -0.2460937,-0.46485 -0.074219,-0.25 -0.074219,-0.46484 v -1.88281 h 4.6796874 v 1.01562 H 6.4433216 v 0.86719 q 0,0.20312 0.1054688,0.30469 0.1054687,0.10156 0.3046875,0.10156 h 2.296875 q 0.2109375,0 0.4609375,0.0781 0.25,0.0742 0.4609376,0.2461 0.214844,0.16797 0.355469,0.4414 0.144531,0.27344 0.144531,0.66797 z"
       style="fill:#f0f0f0;fill-opacity:1"
       id="path5293" />
  </g>
  <g
     aria-label="/4"
     style="font-style:normal;font-variant:normal;font-weight:normal;font-stretch:normal;font-size:8px;line-height:1.25;font-family:Audiowide;-inkscape-font-specification:Audiowide;letter-spacing:0px;word-spacing:0px;fill:#000000;fill-opacity:1;stroke:none"
     id="text5257">
    <path
       d="M 4.5668662,186.22229 1.03171,191.82385 h -1.08984378 l 3.53906248,-5.60156 z"
       style="fill:#f0f0f0;fill-opacity:1"
       id="path5296" />
    <path
       d="M 10.457491,191.82385 H 9.4340537 v -2.28906 h -3.609375 q -0.109375,0 -0.203125,-0.0391 -0.09375,-0.043 -0.1640625,-0.10938 -0.066406,-0.0703 -0.1054687,-0.16406 -0.039063,-0.0937 -0.039063,-0.19922 v -2.80078 h 1.015625 v 2.28906 h 3.1054687 v -2.28906 h 1.0234373 z"
       style="fill:#f0f0f0;fill-opacity:1"
       id="path5298" />
  </g>
  <g
     aria-label="/3"
     style="font-style:normal;font-variant:normal;font-weight:normal;font-stretch:normal;font-size:8px;line-height:1.25;font-family:Audiowide;-inkscape-font-specification:Audiowide;letter-spacing:0px;word-spacing:0px;fill:#000000;fill-opacity:1;stroke:none"
     id="text5261">
    <path
       d="M 4.633808,151.27344 1.0986517,156.875 H 0.00880796 l 3.53906254,-5.60156 z"
       style="fill:#f0f0f0;fill-opacity:1"
       id="path5302" />
    <path
       d="m 10.165058,155.44922 q 0,0.39453 -0.144531,0.66797 -0.1406253,0.26953 -0.355469,0.4414 -0.2109375,0.16797 -0.4609375,0.24219 -0.25,0.0742 -0.4648438,0.0742 H 5.4814642 v -1.01563 h 3.2578125 q 0.2070313,0 0.3046875,-0.10546 0.1015625,-0.10547 0.1015625,-0.30469 v -0.86328 H 5.4814642 v -1.02344 h 3.6640625 v -0.85547 q 0,-0.41797 -0.40625,-0.41797 H 5.4814642 v -1.01562 h 3.2578125 q 0.2617188,0 0.46875,0.0664 0.2070313,0.0664 0.3632813,0.17969 0.1601562,0.10938 0.2734375,0.25391 0.1132812,0.14453 0.1835935,0.30468 0.07031,0.15625 0.101563,0.32032 0.03516,0.16015 0.03516,0.30078 z"
       style="fill:#f0f0f0;fill-opacity:1"
       id="path5304" />
  </g>
  <g
     aria-label="/2"
     style="font-style:normal;font-variant:normal;font-weight:normal;font-stretch:normal;font-size:8px;line-height:1.25;font-family:Audiowide;-inkscape-font-specification:Audiowide;letter-spacing:0px;word-spacing:0px;fill:#000000;fill-opacity:1;stroke:none"
     id="text5265">
    <path
       d="M 4.508808,116.14844 0.97365171,121.75 h -1.08984375 l 3.53906254,-5.60156 z"
       style="fill:#f0f0f0;fill-opacity:1"
       id="path5307" />
    <path
       d="M 10.313495,121.75 H 5.1689642 v -1.87891 q 0,-0.14453 0.03125,-0.30468 0.035156,-0.16407 0.1054688,-0.32422 0.070312,-0.16016 0.1796875,-0.30469 0.1132812,-0.14453 0.2695312,-0.25391 0.1601563,-0.11328 0.3671875,-0.17968 0.2070313,-0.0664 0.46875,-0.0664 h 2.2890625 q 0.2070313,0 0.3046875,-0.10156 0.1015625,-0.10547 0.1015625,-0.30469 v -0.44922 q 0,-0.20703 -0.1015625,-0.3125 -0.1015625,-0.10547 -0.296875,-0.10547 H 5.6259955 v -1.01562 h 3.2617187 q 0.2578125,0 0.4648438,0.0664 0.2070312,0.0664 0.3632812,0.17969 0.1601563,0.10938 0.2734375,0.25391 0.1132813,0.14453 0.1835933,0.30469 0.07422,0.15625 0.105469,0.32031 0.03516,0.16015 0.03516,0.30078 v 0.45703 q 0,0.39453 -0.144531,0.66797 -0.140625,0.26953 -0.3554685,0.44141 -0.2148438,0.16796 -0.4648438,0.24609 -0.2460937,0.0742 -0.4609375,0.0742 h -2.296875 q -0.125,0 -0.1992187,0.0352 -0.074219,0.0352 -0.1171875,0.0937 -0.039063,0.0586 -0.058594,0.13282 -0.019531,0.0742 -0.03125,0.14843 v 0.86329 h 4.1289058 z"
       style="fill:#f0f0f0;fill-opacity:1"
       id="path5309" />
  </g>
  <g
     aria-label="/1"
     style="font-style:normal;font-variant:normal;font-weight:normal;font-stretch:normal;font-size:8px;line-height:1.25;font-family:Audiowide;-inkscape-font-specification:Audiowide;letter-spacing:0px;word-spacing:0px;fill:#000000;fill-opacity:1;stroke:none"
     id="text5269">
    <path
       d="M 4.633808,81.648437 1.0986517,87.25 H 0.00880796 L 3.5478705,81.648437 Z"
       style="fill:#f0f0f0;fill-opacity:1"
       id="path5312" />
    <path
       d="M 7.1728705,87.25 H 6.1533392 V 82.664062 H 5.2353705 v -1.015625 h 1.9375 z"
       style="fill:#f0f0f0;fill-opacity:1"
       id="path5314" />
  </g>
</svg>
