<?xml version="1.0" encoding="UTF-8" standalone="no"?>
<svg
   xmlns:dc="http://purl.org/dc/elements/1.1/"
   xmlns:cc="http://creativecommons.org/ns#"
   xmlns:rdf="http://www.w3.org/1999/02/22-rdf-syntax-ns#"
   xmlns:svg="http://www.w3.org/2000/svg"
   xmlns="http://www.w3.org/2000/svg"
   xmlns:sodipodi="http://sodipodi.sourceforge.net/DTD/sodipodi-0.dtd"
   xmlns:inkscape="http://www.inkscape.org/namespaces/inkscape"
   id="SvgjsSvg1006"
   width="90"
   height="380"
   version="1.1"
   sodipodi:docname="DevKit.svg"
   inkscape:version="0.92.2 5c3e80d, 2017-08-06">
  <metadata
     id="metadata6353">
    <rdf:RDF>
      <cc:Work
         rdf:about="">
        <dc:format>image/svg+xml</dc:format>
        <dc:type
           rdf:resource="http://purl.org/dc/dcmitype/StillImage" />
        <dc:title></dc:title>
      </cc:Work>
    </rdf:RDF>
  </metadata>
  <sodipodi:namedview
     pagecolor="#ffffff"
     bordercolor="#666666"
     borderopacity="1"
     objecttolerance="10"
     gridtolerance="10"
     guidetolerance="10"
     inkscape:pageopacity="0"
     inkscape:pageshadow="2"
     inkscape:window-width="1050"
     inkscape:window-height="969"
     id="namedview6351"
     showgrid="false"
     inkscape:pagecheckerboard="true"
     inkscape:zoom="1.4142136"
     inkscape:cx="26.129568"
     inkscape:cy="273.13709"
     inkscape:window-x="635"
     inkscape:window-y="1"
     inkscape:window-maximized="0"
     inkscape:current-layer="SvgjsSvg1006" />
  <defs
     id="SvgjsDefs1007" />
  <path
     style="fill:#222222"
     d="M 0,0 H 90 V 380 H 0 Z"
     id="SvgjsRect1008" />
  <rect
     id="SvgjsRect1009"
     width="30"
     height="32"
     fill="#91b06f"
     x="30"
     y="33" />
  <path
     inkscape:connector-curvature="0"
     d="m 45.181029,360.00953 q 0,0.80208 -0.20833,1.44791 -0.19792,0.63542 -0.53125,1.125 -0.33333,0.48959 -0.78125,0.83334 -0.44792,0.34375 -0.92708,0.5625 -0.47917,0.21875 -0.97917,0.32291 -0.48958,0.10417 -0.92708,0.10417 h -10.44792 v -2.70833 h 10.44792 q 0.78125,0 1.20833,-0.45834 0.4375,-0.45833 0.4375,-1.22916 0,-0.375 -0.11458,-0.6875 -0.11459,-0.3125 -0.33334,-0.54167 -0.20833,-0.22917 -0.52083,-0.35417 -0.30208,-0.125 -0.67708,-0.125 h -6.22917 q -0.65625,0 -1.41667,-0.22916 -0.76041,-0.23959 -1.41666,-0.76042 -0.64584,-0.52083 -1.08334,-1.36458 -0.42708,-0.84375 -0.42708,-2.0625 0,-1.21875 0.42708,-2.05209 0.4375,-0.84375 1.08334,-1.36458 0.65625,-0.53125 1.41666,-0.76042 0.76042,-0.23958 1.41667,-0.23958 h 9.21875 v 2.70833 h -9.21875 q -0.77083,0 -1.20833,0.46875 -0.42709,0.46875 -0.42709,1.23959 0,0.78125 0.42709,1.23958 0.4375,0.44792 1.20833,0.44792 h 6.22917 0.0208 q 0.4375,0.0104 0.92708,0.125 0.48958,0.10416 0.96875,0.33333 0.48958,0.22917 0.92708,0.58333 0.4375,0.34375 0.77084,0.83334 0.34375,0.48958 0.54166,1.125 0.19792,0.63541 0.19792,1.4375 z"
     style="font-style:normal;font-variant:normal;font-weight:normal;font-stretch:normal;font-size:21.33333397px;line-height:1.25;font-family:Audiowide;-inkscape-font-specification:Audiowide;letter-spacing:0px;word-spacing:0px;fill:#f0f0f0;fill-opacity:1;stroke:none"
     id="path5271" />
  <path
     inkscape:connector-curvature="0"
     d="m 63.108119,364.40536 h -3.84375 l -6.09375,-6.10417 h -1.90625 v -2.72916 h 1.90625 l 6.09375,-6.10417 h 3.84375 l -7.67709,7.46875 z m -12.92709,0 h -2.70833 v -14.9375 h 2.70833 z"
     style="font-style:normal;font-variant:normal;font-weight:normal;font-stretch:normal;font-size:21.33333397px;line-height:1.25;font-family:Audiowide;-inkscape-font-specification:Audiowide;letter-spacing:0px;word-spacing:0px;fill:#f0f0f0;fill-opacity:1;stroke:none"
     id="path5273" />
  <text
     xml:space="preserve"
     style="font-style:normal;font-variant:normal;font-weight:normal;font-stretch:normal;font-size:10.66666698px;line-height:1.25;font-family:Audiowide;-inkscape-font-specification:Audiowide;letter-spacing:0px;word-spacing:0px;fill:#000000;fill-opacity:1;stroke:none"
     x="131"
     y="65.5"
     id="text7130"><tspan
       sodipodi:role="line"
       id="tspan7128"
       x="131"
       y="75.114197"></tspan></text>
  <g
     transform="translate(22.691475,0.089455)"
     aria-label="input"
     style="font-style:normal;font-variant:normal;font-weight:normal;font-stretch:normal;font-size:10.66666698px;line-height:1.25;font-family:Audiowide;-inkscape-font-specification:Audiowide;letter-spacing:0px;word-spacing:0px;fill:#000000;fill-opacity:1;stroke:none"
     id="text5209">
    <path
       inkscape:connector-curvature="0"
       d="m 12.32415,57.820702 h -1.015625 v -0.917969 h 1.015625 z m 0,5.089843 h -1.015625 v -4.222656 h 1.015625 z"
       style="font-size:8px;fill:#f0f0f0;fill-opacity:1"
       id="path5317" />
    <path
       inkscape:connector-curvature="0"
       d="m 17.972588,62.910545 h -1.015625 v -2.34375 q 0,-0.199218 -0.07031,-0.355468 -0.06641,-0.160157 -0.183594,-0.273438 -0.117187,-0.113281 -0.277343,-0.171875 -0.15625,-0.0625 -0.339844,-0.0625 h -1.777344 v 3.207031 H 13.2929 v -3.71875 q 0,-0.105468 0.03906,-0.195312 0.03906,-0.09375 0.109375,-0.160156 0.07031,-0.07031 0.164062,-0.109375 0.09375,-0.03906 0.199219,-0.03906 h 2.289062 q 0.191407,0 0.402344,0.04297 0.214844,0.04297 0.421875,0.140625 0.210938,0.09375 0.398438,0.242187 0.191406,0.144532 0.335937,0.355469 0.148438,0.207031 0.234375,0.480469 0.08594,0.273437 0.08594,0.617187 z"
       style="font-size:8px;fill:#f0f0f0;fill-opacity:1"
       id="path5319" />
    <path
       inkscape:connector-curvature="0"
       d="m 23.527275,61.484764 q 0,0.261719 -0.06641,0.472656 -0.06641,0.207032 -0.175781,0.367188 -0.109375,0.15625 -0.253907,0.269531 -0.144531,0.109375 -0.304687,0.179688 -0.15625,0.07031 -0.316406,0.105468 -0.160157,0.03125 -0.304688,0.03125 H 20.273369 V 61.89492 H 22.1054 q 0.203125,0 0.304688,-0.105468 0.101562,-0.105469 0.101562,-0.304688 v -1.367187 q 0,-0.210938 -0.105469,-0.3125 -0.101562,-0.101563 -0.300781,-0.101563 h -1.824219 q -0.207031,0 -0.3125,0.105469 -0.105468,0.101562 -0.105468,0.300781 v 4.121094 h -1.015625 v -4.121094 q 0,-0.261719 0.06641,-0.46875 0.06641,-0.207031 0.175781,-0.363281 0.113281,-0.160156 0.257813,-0.269531 0.144531,-0.113282 0.300781,-0.183594 0.160156,-0.07031 0.320312,-0.101563 0.164063,-0.03516 0.304688,-0.03516 H 22.1054 q 0.261719,0 0.46875,0.06641 0.207031,0.06641 0.363281,0.175782 0.160157,0.109375 0.269532,0.253906 0.113281,0.144531 0.183593,0.304687 0.07031,0.15625 0.101563,0.316407 0.03516,0.160156 0.03516,0.304687 z"
       style="font-size:8px;fill:#f0f0f0;fill-opacity:1"
       id="path5321" />
    <path
       inkscape:connector-curvature="0"
       d="m 29.019463,62.398827 q 0,0.109375 -0.03906,0.203125 -0.03906,0.09375 -0.109375,0.164062 -0.06641,0.06641 -0.160156,0.105469 -0.08984,0.03906 -0.195313,0.03906 h -2.296875 q -0.1875,0 -0.402343,-0.04297 -0.210938,-0.04297 -0.417969,-0.136719 -0.207031,-0.09766 -0.402344,-0.242188 -0.191406,-0.148437 -0.335937,-0.355468 -0.144532,-0.210938 -0.234375,-0.484375 -0.08594,-0.273438 -0.08594,-0.617188 v -2.34375 H 25.3554 v 2.34375 q 0,0.199219 0.06641,0.359375 0.07031,0.15625 0.1875,0.269531 0.117188,0.113282 0.273438,0.175782 0.160156,0.05859 0.34375,0.05859 h 1.777344 v -3.207031 h 1.015625 z"
       style="font-size:8px;fill:#f0f0f0;fill-opacity:1"
       id="path5323" />
    <path
       inkscape:connector-curvature="0"
       d="m 33.820244,59.703514 h -1.773438 v 3.207031 H 31.019463 V 59.703514 H 29.69915 v -1.015625 h 1.320313 v -1.378906 h 1.027343 v 1.378906 h 1.773438 z"
       style="font-size:8px;fill:#f0f0f0;fill-opacity:1"
       id="path5325" />
  </g>
  <g
     aria-label="DevKit"
     style="font-style:normal;font-variant:normal;font-weight:normal;font-stretch:normal;font-size:10.66666698px;line-height:1.25;font-family:Audiowide;-inkscape-font-specification:Audiowide;letter-spacing:0px;word-spacing:0px;fill:#000000;fill-opacity:1;stroke:none"
     id="text8481">
    <path
       d="m 26.109375,19.0625 q 0,1.023437 -0.359375,1.882812 -0.351563,0.859375 -0.976563,1.484375 -0.625,0.617188 -1.484375,0.96875 Q 22.429687,23.75 21.421875,23.75 H 15.9375 q -0.21875,0 -0.40625,-0.07813 -0.1875,-0.07813 -0.328125,-0.210938 -0.132812,-0.140625 -0.210937,-0.328125 -0.07813,-0.1875 -0.07813,-0.40625 v -9.156249 q 0,-0.210938 0.07813,-0.398438 0.07813,-0.1875 0.210937,-0.328125 0.140625,-0.140625 0.328125,-0.21875 0.1875,-0.07813 0.40625,-0.07813 h 5.484375 q 1.007812,0 1.867187,0.351563 0.859375,0.351562 1.484375,0.976562 0.625,0.617188 0.976563,1.484375 0.359375,0.859375 0.359375,1.875 z m -2.03125,-1.828125 q 0,-0.59375 -0.195313,-1.085938 Q 23.695312,15.65625 23.34375,15.3125 22.992187,14.960938 22.5,14.773438 22.015625,14.578125 21.421875,14.578125 h -4.476563 v 7.140625 h 4.476563 q 0.59375,0 1.078125,-0.1875 0.492187,-0.195313 0.84375,-0.539063 0.351562,-0.351562 0.539062,-0.835937 0.195313,-0.492188 0.195313,-1.09375 z"
       style="font-size:16px;fill:#f0f0f0;fill-opacity:1"
       id="path8577" />
    <path
       d="m 36.976562,18.101562 q 0,0.421875 -0.148437,0.914063 -0.148438,0.484375 -0.484375,0.90625 -0.328125,0.414062 -0.867188,0.695312 -0.53125,0.28125 -1.296875,0.28125 H 30.515625 V 18.96875 h 3.664062 q 0.414063,0 0.640625,-0.25 0.226563,-0.257813 0.226563,-0.632813 0,-0.398437 -0.257813,-0.625 -0.25,-0.226562 -0.609375,-0.226562 h -3.664062 q -0.414063,0 -0.640625,0.257812 -0.226563,0.25 -0.226563,0.625 v 2.835938 q 0,0.40625 0.25,0.632812 0.257813,0.226563 0.632813,0.226563 h 3.648437 V 23.75 h -3.664062 q -0.421875,0 -0.914063,-0.148438 Q 29.117187,23.453125 28.695312,23.125 28.28125,22.789062 28,22.257812 27.71875,21.71875 27.71875,20.953125 v -2.851563 q 0,-0.421875 0.148437,-0.90625 0.148438,-0.492187 0.476563,-0.90625 0.335937,-0.421874 0.867187,-0.703124 0.539063,-0.28125 1.304688,-0.28125 h 3.664062 q 0.421875,0 0.90625,0.148437 0.492188,0.148438 0.90625,0.484375 0.421875,0.328125 0.703125,0.867187 0.28125,0.53125 0.28125,1.296875 z"
       style="font-size:16px;fill:#f0f0f0;fill-opacity:1"
       id="path8579" />
    <path
       d="m 48.4375,15.304688 q -0.34375,1.070312 -0.804688,2.109374 -0.460937,1.039063 -1.0625,1.984375 -0.59375,0.9375 -1.335937,1.742188 Q 44.5,21.9375 43.601562,22.523437 42.710937,23.101562 41.65625,23.4375 q -1.046875,0.328125 -2.273438,0.328125 -0.210937,0 -0.398437,-0.07813 -0.1875,-0.07813 -0.328125,-0.210938 -0.140625,-0.140625 -0.21875,-0.320312 -0.07813,-0.1875 -0.07813,-0.398438 v -7.453124 h 2.03125 v 6.351562 q 0.742187,0 1.421875,-0.320313 0.6875,-0.320312 1.296875,-0.84375 0.609375,-0.53125 1.125,-1.203125 0.523437,-0.671875 0.929687,-1.375 0.40625,-0.710937 0.6875,-1.390625 0.289063,-0.679687 0.429688,-1.218749 z"
       style="font-size:16px;fill:#f0f0f0;fill-opacity:1"
       id="path8581" />
    <path
       d="M 61.140625,23.75 H 58.257812 L 53.6875,19.171875 H 52.257812 V 17.125 H 53.6875 l 4.570312,-4.578125 h 2.882813 l -5.757813,5.601562 z m -9.695313,0 h -2.03125 V 12.546875 h 2.03125 z"
       style="font-size:16px;fill:#f0f0f0;fill-opacity:1"
       id="path8583" />
    <path
       d="m 64.265625,13.570313 h -2.03125 v -1.835938 h 2.03125 z m 0,10.179687 h -2.03125 v -8.445312 h 2.03125 z"
       style="font-size:16px;fill:#f0f0f0;fill-opacity:1"
       id="path8585" />
    <path
       d="M 73.882812,17.335937 H 70.335937 V 23.75 H 68.28125 v -6.414063 h -2.640625 v -2.031249 h 2.640625 v -2.757813 h 2.054687 v 2.757813 h 3.546875 z"
       style="font-size:16px;fill:#f0f0f0;fill-opacity:1"
       id="path8587" />
  </g>
  <g
     aria-label="minimum"
     style="font-style:normal;font-variant:normal;font-weight:normal;font-stretch:normal;font-size:10.66666698px;line-height:1.25;font-family:Audiowide;-inkscape-font-specification:Audiowide;letter-spacing:0px;word-spacing:0px;fill:#000000;fill-opacity:1;stroke:none"
     id="text8485">
    <path
       d="m 26.661459,109 h -1.354167 v -3.73438 q 0,-0.26562 -0.140625,-0.40104 Q 25.026042,104.72396 24.75,104.72396 H 22.989583 V 109 h -1.354166 v -4.95833 q 0,-0.14063 0.05208,-0.26042 0.05208,-0.125 0.145833,-0.21354 0.09375,-0.0937 0.21875,-0.14584 0.125,-0.0521 0.265625,-0.0521 h 2.442709 q 0.28125,0 0.604166,0.099 0.322917,0.099 0.614584,0.31771 v -0.41667 H 27.8125 q 0.192709,0 0.40625,0.0469 0.213542,0.0417 0.421875,0.13541 0.213542,0.0937 0.40625,0.24479 0.192709,0.14584 0.338542,0.35938 0.145833,0.20833 0.234375,0.48437 0.08854,0.27605 0.08854,0.625 V 109 h -1.354167 v -3.73438 q 0,-0.26562 -0.135417,-0.40104 -0.130208,-0.14062 -0.40625,-0.14062 h -1.21875 q 0.06771,0.25 0.06771,0.54166 z"
       style="fill:#f0f0f0;fill-opacity:1"
       id="path8561" />
    <path
       d="M 32.322917,102.21354 H 30.96875 v -1.22396 h 1.354167 z m 0,6.78646 H 30.96875 v -5.63021 h 1.354167 z"
       style="fill:#f0f0f0;fill-opacity:1"
       id="path8563" />
    <path
       d="M 39.854167,109 H 38.5 v -3.125 q 0,-0.26563 -0.09375,-0.47396 -0.08854,-0.21354 -0.244791,-0.36458 -0.15625,-0.15104 -0.369792,-0.22917 -0.208333,-0.0833 -0.453125,-0.0833 H 34.96875 V 109 h -1.354166 v -4.95833 q 0,-0.14063 0.05208,-0.26042 0.05208,-0.125 0.145833,-0.21354 0.09375,-0.0937 0.21875,-0.14584 0.125,-0.0521 0.265625,-0.0521 h 3.052084 q 0.255208,0 0.536458,0.0573 0.286458,0.0573 0.5625,0.1875 0.28125,0.125 0.53125,0.32292 0.255209,0.19271 0.447917,0.47396 0.197917,0.27604 0.3125,0.64062 0.114583,0.36459 0.114583,0.82292 z"
       style="fill:#f0f0f0;fill-opacity:1"
       id="path8565" />
    <path
       d="m 42.427083,102.21354 h -1.354167 v -1.22396 h 1.354167 z m 0,6.78646 h -1.354167 v -5.63021 h 1.354167 z"
       style="fill:#f0f0f0;fill-opacity:1"
       id="path8567" />
    <path
       d="m 48.744792,109 h -1.354166 v -3.73438 q 0,-0.26562 -0.140625,-0.40104 -0.140625,-0.14062 -0.416667,-0.14062 H 45.072917 V 109 h -1.354166 v -4.95833 q 0,-0.14063 0.05208,-0.26042 0.05208,-0.125 0.145833,-0.21354 0.09375,-0.0937 0.21875,-0.14584 0.125,-0.0521 0.265625,-0.0521 h 2.442709 q 0.28125,0 0.604166,0.099 0.322917,0.099 0.614584,0.31771 v -0.41667 h 1.833333 q 0.192709,0 0.40625,0.0469 0.213542,0.0417 0.421875,0.13541 0.213542,0.0937 0.40625,0.24479 0.192709,0.14584 0.338542,0.35938 0.145833,0.20833 0.234375,0.48437 0.08854,0.27605 0.08854,0.625 V 109 h -1.354167 v -3.73438 q 0,-0.26562 -0.135417,-0.40104 -0.130208,-0.14062 -0.40625,-0.14062 h -1.21875 q 0.06771,0.25 0.06771,0.54166 z"
       style="fill:#f0f0f0;fill-opacity:1"
       id="path8569" />
    <path
       d="m 59.187501,108.31771 q 0,0.14583 -0.05208,0.27083 -0.05208,0.125 -0.145834,0.21875 -0.08854,0.0885 -0.213542,0.14063 Q 58.656251,109 58.515626,109 h -3.0625 q -0.25,0 -0.536459,-0.0573 -0.28125,-0.0573 -0.557291,-0.18229 -0.276042,-0.13021 -0.536459,-0.32292 -0.255208,-0.19792 -0.447916,-0.47396 -0.192709,-0.28125 -0.3125,-0.64583 -0.114584,-0.36459 -0.114584,-0.82292 v -3.125 h 1.354167 v 3.125 q 0,0.26563 0.08854,0.47917 0.09375,0.20833 0.25,0.35937 0.15625,0.15104 0.364583,0.23438 0.213542,0.0781 0.458333,0.0781 h 2.369792 v -4.27604 h 1.354167 z"
       style="fill:#f0f0f0;fill-opacity:1"
       id="path8571" />
    <path
       d="m 65.494791,109 h -1.354167 v -3.73438 q 0,-0.26562 -0.140625,-0.40104 -0.140625,-0.14062 -0.416667,-0.14062 H 61.822915 V 109 h -1.354166 v -4.95833 q 0,-0.14063 0.05208,-0.26042 0.05208,-0.125 0.145833,-0.21354 0.09375,-0.0937 0.21875,-0.14584 0.125,-0.0521 0.265625,-0.0521 h 2.442709 q 0.28125,0 0.604167,0.099 0.322916,0.099 0.614583,0.31771 v -0.41667 h 1.833333 q 0.192709,0 0.40625,0.0469 0.213542,0.0417 0.421875,0.13541 0.213542,0.0937 0.40625,0.24479 0.192709,0.14584 0.338542,0.35938 0.145833,0.20833 0.234375,0.48437 0.08854,0.27605 0.08854,0.625 V 109 h -1.354167 v -3.73438 q 0,-0.26562 -0.135417,-0.40104 -0.130208,-0.14062 -0.40625,-0.14062 h -1.21875 q 0.06771,0.25 0.06771,0.54166 z"
       style="fill:#f0f0f0;fill-opacity:1"
       id="path8573" />
  </g>
  <g
     aria-label="maximum"
     style="font-style:normal;font-variant:normal;font-weight:normal;font-stretch:normal;font-size:10.66666698px;line-height:1.25;font-family:Audiowide;-inkscape-font-specification:Audiowide;letter-spacing:0px;word-spacing:0px;fill:#f0f0f0;fill-opacity:0.98823529;stroke:none"
     id="text8489">
    <path
       d="m 24.911459,155.75 h -1.354167 v -3.73438 q 0,-0.26562 -0.140625,-0.40104 Q 23.276042,151.47396 23,151.47396 H 21.239583 V 155.75 h -1.354166 v -4.95833 q 0,-0.14063 0.05208,-0.26042 0.05208,-0.125 0.145833,-0.21354 0.09375,-0.0937 0.21875,-0.14584 0.125,-0.0521 0.265625,-0.0521 h 2.442709 q 0.28125,0 0.604166,0.099 0.322917,0.099 0.614584,0.31771 v -0.41667 H 26.0625 q 0.192709,0 0.40625,0.0469 0.213542,0.0417 0.421875,0.13541 0.213542,0.0937 0.40625,0.24479 0.192709,0.14584 0.338542,0.35938 0.145833,0.20833 0.234375,0.48437 0.08854,0.27605 0.08854,0.625 V 155.75 h -1.354167 v -3.73438 q 0,-0.26562 -0.135417,-0.40104 -0.130208,-0.14062 -0.40625,-0.14062 h -1.21875 q 0.06771,0.25 0.06771,0.54166 z"
       style="fill:#f0f0f0;fill-opacity:0.98823529"
       id="path8546" />
    <path
       d="m 35.010417,153.88542 q 0,0.28125 -0.09896,0.60937 -0.09896,0.32292 -0.322917,0.60417 -0.21875,0.27604 -0.578125,0.46354 -0.354167,0.1875 -0.864584,0.1875 h -2.442708 q -0.28125,0 -0.609375,-0.099 -0.322917,-0.099 -0.604167,-0.31771 -0.276041,-0.22396 -0.463541,-0.57812 -0.1875,-0.35938 -0.1875,-0.86979 0,-0.28125 0.09896,-0.60938 0.09896,-0.32812 0.317708,-0.60417 0.223959,-0.28125 0.578125,-0.46875 0.359375,-0.1875 0.869792,-0.1875 h 2.442708 v 1.29167 h -2.442708 q -0.276042,0 -0.427083,0.17188 -0.151042,0.16666 -0.151042,0.41666 0,0.26563 0.171875,0.41667 0.177083,0.14583 0.416667,0.14583 h 2.432291 q 0.276042,0 0.427084,-0.16666 0.151041,-0.16667 0.151041,-0.41667 v -1.89063 q 0,-0.26562 -0.166666,-0.42187 -0.161459,-0.15625 -0.411459,-0.15625 h -2.973958 v -1.28646 h 2.973958 q 0.28125,0 0.604167,0.099 0.328125,0.099 0.604167,0.32292 0.28125,0.21875 0.46875,0.57812 0.1875,0.35417 0.1875,0.86458 z"
       style="fill:#f0f0f0;fill-opacity:0.98823529"
       id="path8548" />
    <path
       d="m 42.421876,150.11979 -2.432291,2.65625 2.739583,2.97396 h -1.864583 l -1.802084,-1.96354 -1.802083,1.96354 h -1.869792 l 2.734375,-2.98438 -2.421875,-2.64583 h 1.854167 l 1.494792,1.63021 1.505208,-1.63021 z"
       style="fill:#f0f0f0;fill-opacity:0.98823529"
       id="path8550" />
    <path
       d="m 44.781251,148.96354 h -1.354167 v -1.22396 h 1.354167 z m 0,6.78646 h -1.354167 v -5.63021 h 1.354167 z"
       style="fill:#f0f0f0;fill-opacity:0.98823529"
       id="path8552" />
    <path
       d="m 51.098959,155.75 h -1.354167 v -3.73438 q 0,-0.26562 -0.140625,-0.40104 -0.140625,-0.14062 -0.416667,-0.14062 H 47.427083 V 155.75 h -1.354166 v -4.95833 q 0,-0.14063 0.05208,-0.26042 0.05208,-0.125 0.145833,-0.21354 0.09375,-0.0937 0.21875,-0.14584 0.125,-0.0521 0.265625,-0.0521 h 2.442709 q 0.28125,0 0.604166,0.099 0.322917,0.099 0.614584,0.31771 v -0.41667 H 52.25 q 0.192709,0 0.40625,0.0469 0.213542,0.0417 0.421875,0.13541 0.213542,0.0937 0.40625,0.24479 0.192709,0.14584 0.338542,0.35938 0.145833,0.20833 0.234375,0.48437 0.08854,0.27605 0.08854,0.625 V 155.75 h -1.354167 v -3.73438 q 0,-0.26562 -0.135417,-0.40104 -0.130208,-0.14062 -0.40625,-0.14062 h -1.21875 q 0.06771,0.25 0.06771,0.54166 z"
       style="fill:#f0f0f0;fill-opacity:0.98823529"
       id="path8554" />
    <path
       d="m 61.541667,155.06771 q 0,0.14583 -0.05208,0.27083 -0.05208,0.125 -0.145834,0.21875 -0.08854,0.0885 -0.213541,0.14063 -0.119792,0.0521 -0.260417,0.0521 h -3.0625 q -0.25,0 -0.536459,-0.0573 -0.28125,-0.0573 -0.557291,-0.18229 -0.276042,-0.13021 -0.536459,-0.32292 -0.255208,-0.19792 -0.447916,-0.47396 -0.192709,-0.28125 -0.3125,-0.64583 -0.114584,-0.36459 -0.114584,-0.82292 v -3.125 h 1.354167 v 3.125 q 0,0.26563 0.08854,0.47917 0.09375,0.20833 0.25,0.35937 0.15625,0.15104 0.364583,0.23438 0.213542,0.0781 0.458333,0.0781 H 60.1875 v -4.27604 h 1.354167 z"
       style="fill:#f0f0f0;fill-opacity:0.98823529"
       id="path8556" />
    <path
       d="m 67.848959,155.75 h -1.354167 v -3.73438 q 0,-0.26562 -0.140625,-0.40104 -0.140625,-0.14062 -0.416667,-0.14062 H 64.177083 V 155.75 h -1.354166 v -4.95833 q 0,-0.14063 0.05208,-0.26042 0.05208,-0.125 0.145833,-0.21354 0.09375,-0.0937 0.21875,-0.14584 0.125,-0.0521 0.265625,-0.0521 h 2.442709 q 0.28125,0 0.604166,0.099 0.322917,0.099 0.614584,0.31771 v -0.41667 H 69 q 0.192709,0 0.40625,0.0469 0.213542,0.0417 0.421875,0.13541 0.213542,0.0937 0.40625,0.24479 0.192709,0.14584 0.338542,0.35938 0.145833,0.20833 0.234375,0.48437 0.08854,0.27605 0.08854,0.625 V 155.75 h -1.354167 v -3.73438 q 0,-0.26562 -0.135417,-0.40104 Q 69.276042,151.47396 69,151.47396 h -1.21875 q 0.06771,0.25 0.06771,0.54166 z"
       style="fill:#f0f0f0;fill-opacity:0.98823529"
       id="path8558" />
  </g>
  <g
     aria-label="trigger"
     style="font-style:normal;font-variant:normal;font-weight:normal;font-stretch:normal;font-size:10.66666698px;line-height:1.25;font-family:Audiowide;-inkscape-font-specification:Audiowide;letter-spacing:0px;word-spacing:0px;fill:#000000;fill-opacity:1;stroke:none"
     id="text8493">
    <path
       d="m 29.990705,193.94222 h -2.364583 v 4.27604 H 26.25633 v -4.27604 h -1.760417 v -1.35417 h 1.760417 v -1.83854 h 1.369792 v 1.83854 h 2.364583 z"
       style="fill:#f0f0f0;fill-opacity:1"
       id="path8531" />
    <path
       d="m 35.797997,193.94222 h -3.046875 q -0.276042,0 -0.416667,0.14062 -0.140625,0.13542 -0.140625,0.40105 v 3.73437 h -1.354167 v -3.73437 q 0,-0.34896 0.08854,-0.625 0.08854,-0.27605 0.234375,-0.48438 0.151042,-0.21354 0.34375,-0.35937 0.192708,-0.15105 0.401042,-0.2448 0.213541,-0.0937 0.427083,-0.13541 0.21875,-0.0469 0.40625,-0.0469 h 3.057292 z"
       style="fill:#f0f0f0;fill-opacity:1"
       id="path8533" />
    <path
       d="m 38.058413,191.4318 h -1.354166 v -1.22396 h 1.354166 z m 0,6.78646 h -1.354166 v -5.63021 h 1.354166 z"
       style="fill:#f0f0f0;fill-opacity:1"
       id="path8535" />
    <path
       d="m 45.47508,198.75993 q 0,0.34896 -0.08854,0.625 -0.08854,0.28125 -0.234375,0.48958 -0.145834,0.21354 -0.338542,0.35938 -0.192708,0.15104 -0.40625,0.24479 -0.208333,0.0937 -0.427083,0.13542 -0.213542,0.0469 -0.40625,0.0469 H 41.13133 v -1.35417 h 2.442709 q 0.276041,0 0.411458,-0.14062 0.135417,-0.14063 0.135417,-0.40625 v -4.27604 q 0,-0.26563 -0.135417,-0.40105 -0.135417,-0.14062 -0.411458,-0.14062 H 41.13133 q -0.25,0 -0.395833,0.15625 -0.145833,0.15104 -0.145833,0.38542 v 1.83333 q 0,0.26563 0.140625,0.40625 0.140625,0.14063 0.411458,0.14063 h 2.432292 v 1.35416 H 41.13133 q -0.192708,0 -0.40625,-0.0417 -0.213541,-0.0469 -0.427083,-0.14063 -0.208333,-0.0937 -0.401042,-0.23958 -0.192708,-0.15104 -0.338541,-0.35938 -0.145834,-0.21354 -0.234375,-0.48958 -0.08854,-0.28125 -0.08854,-0.63021 v -1.83333 q 0,-0.19271 0.04167,-0.40625 0.04687,-0.21355 0.140625,-0.42188 0.09375,-0.21354 0.239583,-0.40625 0.151042,-0.19271 0.359375,-0.33854 0.213542,-0.14583 0.489583,-0.23438 0.276042,-0.0885 0.625,-0.0885 h 2.442709 q 0.192708,0 0.40625,0.0469 0.21875,0.0417 0.427083,0.13541 0.213542,0.0937 0.40625,0.2448 0.192708,0.14583 0.338542,0.35937 0.145833,0.20833 0.234375,0.48438 0.08854,0.27604 0.08854,0.625 z"
       style="fill:#f0f0f0;fill-opacity:1"
       id="path8537" />
    <path
       d="m 52.850079,198.75993 q 0,0.34896 -0.08854,0.625 -0.08854,0.28125 -0.234375,0.48958 -0.145834,0.21354 -0.338542,0.35938 -0.192708,0.15104 -0.40625,0.24479 -0.208333,0.0937 -0.427083,0.13542 -0.213542,0.0469 -0.40625,0.0469 h -2.442709 v -1.35417 h 2.442709 q 0.276041,0 0.411458,-0.14062 0.135417,-0.14063 0.135417,-0.40625 v -4.27604 q 0,-0.26563 -0.135417,-0.40105 -0.135417,-0.14062 -0.411458,-0.14062 h -2.442709 q -0.25,0 -0.395833,0.15625 -0.145833,0.15104 -0.145833,0.38542 v 1.83333 q 0,0.26563 0.140625,0.40625 0.140625,0.14063 0.411458,0.14063 h 2.432292 v 1.35416 h -2.442709 q -0.192708,0 -0.40625,-0.0417 -0.213541,-0.0469 -0.427083,-0.14063 -0.208333,-0.0937 -0.401042,-0.23958 -0.192708,-0.15104 -0.338541,-0.35938 -0.145834,-0.21354 -0.234375,-0.48958 -0.08854,-0.28125 -0.08854,-0.63021 v -1.83333 q 0,-0.19271 0.04167,-0.40625 0.04687,-0.21355 0.140625,-0.42188 0.09375,-0.21354 0.239583,-0.40625 0.151042,-0.19271 0.359375,-0.33854 0.213542,-0.14583 0.489583,-0.23438 0.276042,-0.0885 0.625,-0.0885 h 2.442709 q 0.192708,0 0.40625,0.0469 0.21875,0.0417 0.427083,0.13541 0.213542,0.0937 0.40625,0.2448 0.192708,0.14583 0.338542,0.35937 0.145833,0.20833 0.234375,0.48438 0.08854,0.27604 0.08854,0.625 z"
       style="fill:#f0f0f0;fill-opacity:1"
       id="path8539" />
    <path
       d="m 60.157371,194.45264 q 0,0.28125 -0.09896,0.60937 -0.09896,0.32292 -0.322917,0.60417 -0.21875,0.27604 -0.578125,0.46354 -0.354167,0.1875 -0.864583,0.1875 h -2.442709 v -1.28646 h 2.442709 q 0.276041,0 0.427083,-0.16667 0.151042,-0.17187 0.151042,-0.42187 0,-0.26563 -0.171875,-0.41667 -0.166667,-0.15104 -0.40625,-0.15104 h -2.442709 q -0.276041,0 -0.427083,0.17188 -0.151042,0.16666 -0.151042,0.41666 v 1.89063 q 0,0.27083 0.166667,0.42187 0.171875,0.15105 0.421875,0.15105 h 2.432292 v 1.29166 h -2.442709 q -0.28125,0 -0.609375,-0.099 -0.322916,-0.099 -0.604166,-0.3177 -0.276042,-0.22396 -0.463542,-0.57813 -0.1875,-0.35937 -0.1875,-0.86979 v -1.90104 q 0,-0.28125 0.09896,-0.60417 0.09896,-0.32813 0.317709,-0.60417 0.223958,-0.28125 0.578125,-0.46875 0.359375,-0.1875 0.869791,-0.1875 h 2.442709 q 0.28125,0 0.604166,0.099 0.328125,0.099 0.604167,0.32292 0.28125,0.21875 0.46875,0.57812 0.1875,0.35417 0.1875,0.86459 z"
       style="fill:#f0f0f0;fill-opacity:1"
       id="path8541" />
    <path
       d="m 66.006329,193.94222 h -3.046875 q -0.276042,0 -0.416667,0.14062 -0.140625,0.13542 -0.140625,0.40105 v 3.73437 h -1.354167 v -3.73437 q 0,-0.34896 0.08854,-0.625 0.08854,-0.27605 0.234375,-0.48438 0.151042,-0.21354 0.34375,-0.35937 0.192708,-0.15105 0.401042,-0.2448 0.213541,-0.0937 0.427083,-0.13541 0.21875,-0.0469 0.40625,-0.0469 h 3.057292 z"
       style="fill:#f0f0f0;fill-opacity:1"
       id="path8543" />
  </g>
  <g
     aria-label="count"
     style="font-style:normal;font-variant:normal;font-weight:normal;font-stretch:normal;font-size:10.66666698px;line-height:1.25;font-family:Audiowide;-inkscape-font-specification:Audiowide;letter-spacing:0px;word-spacing:0px;fill:#000000;fill-opacity:1;stroke:none"
     id="text8497">
    <path
       d="m 32.466174,244.8421 h -3.671875 q -0.28125,0 -0.614583,-0.099 -0.333334,-0.099 -0.619792,-0.32291 -0.28125,-0.22917 -0.473959,-0.58854 -0.1875,-0.36459 -0.1875,-0.89063 v -1.83333 q 0,-0.19271 0.04167,-0.40625 0.04687,-0.21354 0.140625,-0.42188 0.09375,-0.21354 0.239584,-0.40625 0.151041,-0.19271 0.359375,-0.33854 0.213541,-0.14583 0.489583,-0.23437 0.276042,-0.0885 0.625,-0.0885 h 3.671875 v 1.35417 h -3.671875 q -0.265625,0 -0.40625,0.13542 -0.135417,0.13541 -0.135417,0.41666 v 1.82292 q 0,0.26563 0.140625,0.40625 0.140625,0.14063 0.411459,0.14063 h 3.661458 z"
       style="fill:#f0f0f0;fill-opacity:1"
       id="path8520" />
    <path
       d="m 39.679716,242.94106 q 0,0.34896 -0.08854,0.63021 -0.08854,0.27604 -0.234375,0.48958 -0.145833,0.20834 -0.338541,0.35938 -0.192709,0.14583 -0.40625,0.23958 -0.208334,0.0937 -0.427084,0.14063 -0.213541,0.0417 -0.40625,0.0417 h -2.442708 q -0.28125,0 -0.614583,-0.099 -0.333334,-0.099 -0.619792,-0.32291 -0.28125,-0.22917 -0.473959,-0.58854 -0.1875,-0.36459 -0.1875,-0.89063 v -1.83333 q 0,-0.52084 0.1875,-0.88021 0.192709,-0.36458 0.473959,-0.58854 0.286458,-0.22917 0.619792,-0.32813 0.333333,-0.099 0.614583,-0.099 h 2.442708 q 0.520834,0 0.885417,0.1875 0.364583,0.1875 0.588542,0.47396 0.223958,0.28125 0.322916,0.61459 0.104167,0.33333 0.104167,0.61979 z m -1.354167,-1.82292 q 0,-0.28125 -0.140625,-0.41666 -0.140625,-0.13542 -0.40625,-0.13542 h -2.432291 q -0.270834,0 -0.411459,0.14063 -0.140625,0.13541 -0.140625,0.40104 v 1.83333 q 0,0.26563 0.140625,0.40625 0.140625,0.14063 0.411459,0.14063 h 2.432291 q 0.276042,0 0.411459,-0.14063 0.135416,-0.14062 0.135416,-0.40625 z"
       style="fill:#f0f0f0;fill-opacity:1"
       id="path8522" />
    <path
       d="m 46.981799,244.15981 q 0,0.14583 -0.05208,0.27083 -0.05208,0.125 -0.145834,0.21875 -0.08854,0.0885 -0.213541,0.14063 -0.119792,0.0521 -0.260417,0.0521 h -3.0625 q -0.25,0 -0.536458,-0.0573 -0.28125,-0.0573 -0.557292,-0.18229 -0.276042,-0.13021 -0.536458,-0.32292 -0.255209,-0.19791 -0.447917,-0.47396 -0.192709,-0.28125 -0.3125,-0.64583 -0.114584,-0.36458 -0.114584,-0.82292 v -3.125 h 1.354167 v 3.125 q 0,0.26563 0.08854,0.47917 0.09375,0.20833 0.25,0.35938 0.15625,0.15104 0.364583,0.23437 0.213542,0.0781 0.458334,0.0781 h 2.369791 v -4.27605 h 1.354167 z"
       style="fill:#f0f0f0;fill-opacity:1"
       id="path8524" />
    <path
       d="m 54.502632,244.8421 h -1.354166 v -3.125 q 0,-0.26562 -0.09375,-0.47396 -0.08854,-0.21354 -0.244792,-0.36458 -0.15625,-0.15104 -0.369792,-0.22917 -0.208333,-0.0833 -0.453125,-0.0833 h -2.369791 v 4.27604 h -1.354167 v -4.95833 q 0,-0.14063 0.05208,-0.26042 0.05208,-0.125 0.145833,-0.21354 0.09375,-0.0937 0.218751,-0.14583 0.125,-0.0521 0.265625,-0.0521 h 3.052083 q 0.255208,0 0.536458,0.0573 0.286459,0.0573 0.5625,0.1875 0.28125,0.125 0.53125,0.32291 0.255209,0.19271 0.447917,0.47396 0.197917,0.27604 0.3125,0.64063 0.114583,0.36458 0.114583,0.82291 z"
       style="fill:#f0f0f0;fill-opacity:1"
       id="path8526" />
    <path
       d="m 60.653675,240.56606 h -2.364584 v 4.27604 H 56.9193 v -4.27604 h -1.760417 v -1.35417 H 56.9193 v -1.83854 h 1.369791 v 1.83854 h 2.364584 z"
       style="fill:#f0f0f0;fill-opacity:1"
       id="path8528" />
  </g>
  <g
     aria-label="interval"
     style="font-style:normal;font-variant:normal;font-weight:normal;font-stretch:normal;font-size:10.66666698px;line-height:1.25;font-family:Audiowide;-inkscape-font-specification:Audiowide;letter-spacing:0px;word-spacing:0px;fill:#000000;fill-opacity:1;stroke:none"
     id="text8501">
    <path
       d="m 24.77283,286.4785 h -1.354167 v -1.22396 h 1.354167 z m 0,6.78645 h -1.354167 v -5.6302 h 1.354167 z"
       style="fill:#f0f0f0;fill-opacity:1"
       id="path8503" />
    <path
       d="m 32.30408,293.26495 h -1.354167 v -3.125 q 0,-0.26562 -0.09375,-0.47395 -0.08854,-0.21355 -0.244791,-0.36459 -0.15625,-0.15104 -0.369792,-0.22916 -0.208333,-0.0833 -0.453125,-0.0833 h -2.369792 v 4.27604 h -1.354167 v -4.95833 q 0,-0.14062 0.05208,-0.26042 0.05208,-0.125 0.145833,-0.21354 0.09375,-0.0937 0.21875,-0.14583 0.125,-0.0521 0.265625,-0.0521 h 3.052084 q 0.255208,0 0.536458,0.0573 0.286458,0.0573 0.5625,0.1875 0.28125,0.125 0.53125,0.32291 0.255208,0.19271 0.447917,0.47396 0.197916,0.27604 0.3125,0.64063 0.114583,0.36458 0.114583,0.82291 z"
       style="fill:#f0f0f0;fill-opacity:1"
       id="path8505" />
    <path
       d="m 38.455122,288.98891 h -2.364584 v 4.27604 h -1.369792 v -4.27604 H 32.96033 v -1.35416 h 1.760416 v -1.83855 h 1.369792 v 1.83855 h 2.364584 z"
       style="fill:#f0f0f0;fill-opacity:1"
       id="path8507" />
    <path
       d="m 45.392622,289.49933 q 0,0.28125 -0.09896,0.60937 -0.09896,0.32292 -0.322916,0.60417 -0.21875,0.27604 -0.578125,0.46354 -0.354167,0.1875 -0.864584,0.1875 H 41.08533 v -1.28646 h 2.442708 q 0.276042,0 0.427084,-0.16666 0.151041,-0.17188 0.151041,-0.42188 0,-0.26562 -0.171875,-0.41666 -0.166666,-0.15105 -0.40625,-0.15105 H 41.08533 q -0.276042,0 -0.427084,0.17188 -0.151041,0.16667 -0.151041,0.41667 v 1.89062 q 0,0.27083 0.166666,0.42188 0.171875,0.15104 0.421875,0.15104 h 2.432292 v 1.29166 H 41.08533 q -0.28125,0 -0.609375,-0.099 -0.322917,-0.099 -0.604167,-0.31771 -0.276042,-0.22396 -0.463542,-0.57813 -0.1875,-0.35937 -0.1875,-0.86979 v -1.90104 q 0,-0.28125 0.09896,-0.60417 0.09896,-0.32812 0.317708,-0.60416 0.223958,-0.28125 0.578125,-0.46875 0.359375,-0.1875 0.869792,-0.1875 h 2.442708 q 0.28125,0 0.604167,0.099 0.328125,0.099 0.604167,0.32292 0.28125,0.21875 0.46875,0.57813 0.1875,0.35416 0.1875,0.86458 z"
       style="fill:#f0f0f0;fill-opacity:1"
       id="path8509" />
    <path
       d="m 51.241581,288.98891 h -3.046875 q -0.276042,0 -0.416667,0.14063 -0.140625,0.13541 -0.140625,0.40104 v 3.73437 h -1.354166 v -3.73437 q 0,-0.34896 0.08854,-0.625 0.08854,-0.27604 0.234375,-0.48438 0.151042,-0.21354 0.34375,-0.35937 0.192709,-0.15104 0.401042,-0.24479 0.213542,-0.0937 0.427083,-0.13542 0.21875,-0.0469 0.40625,-0.0469 h 3.057292 z"
       style="fill:#f0f0f0;fill-opacity:1"
       id="path8511" />
    <path
       d="m 58.845748,287.63475 q -0.229167,0.71354 -0.536459,1.40625 -0.307291,0.6927 -0.708333,1.32291 -0.395833,0.625 -0.890625,1.16146 -0.489583,0.53125 -1.088542,0.92188 -0.59375,0.38541 -1.296875,0.60937 -0.697916,0.21875 -1.515625,0.21875 -0.140625,0 -0.265625,-0.0521 -0.125,-0.0521 -0.21875,-0.14063 -0.09375,-0.0937 -0.145833,-0.21354 -0.05208,-0.125 -0.05208,-0.26562 v -4.96875 h 1.354166 v 4.23437 q 0.494792,0 0.947917,-0.21354 0.458333,-0.21354 0.864583,-0.5625 0.40625,-0.35417 0.75,-0.80208 0.348959,-0.44792 0.619792,-0.91667 0.270833,-0.47396 0.458333,-0.92708 0.192709,-0.45313 0.286459,-0.8125 z"
       style="fill:#f0f0f0;fill-opacity:1"
       id="path8513" />
    <path
       d="m 64.981166,291.40037 q 0,0.28125 -0.09896,0.60938 -0.09896,0.32291 -0.322916,0.60416 -0.21875,0.27604 -0.578125,0.46354 -0.354167,0.1875 -0.864584,0.1875 h -2.442708 q -0.28125,0 -0.609375,-0.099 -0.322917,-0.099 -0.604167,-0.31771 -0.276041,-0.22396 -0.463541,-0.57813 -0.1875,-0.35937 -0.1875,-0.86979 0,-0.28125 0.09896,-0.60937 0.09896,-0.32813 0.317708,-0.60417 0.223959,-0.28125 0.578125,-0.46875 0.359375,-0.1875 0.869792,-0.1875 h 2.442708 v 1.29167 h -2.442708 q -0.276042,0 -0.427083,0.17187 -0.151042,0.16667 -0.151042,0.41667 0,0.26562 0.171875,0.41666 0.177083,0.14584 0.416667,0.14584 h 2.432291 q 0.276042,0 0.427084,-0.16667 0.151041,-0.16667 0.151041,-0.41667 v -1.89062 q 0,-0.26563 -0.166666,-0.42188 -0.161459,-0.15625 -0.411459,-0.15625 h -2.973958 v -1.28645 h 2.973958 q 0.28125,0 0.604167,0.099 0.328125,0.099 0.604167,0.32292 0.28125,0.21875 0.46875,0.57813 0.1875,0.35416 0.1875,0.86458 z"
       style="fill:#f0f0f0;fill-opacity:1"
       id="path8515" />
    <path
       d="m 68.621788,293.26495 h -0.604167 q -0.291666,0 -0.625,-0.099 -0.328125,-0.099 -0.614583,-0.32292 -0.286458,-0.22917 -0.473958,-0.58854 -0.1875,-0.36459 -0.1875,-0.89063 v -6.10937 h 1.354166 v 6.10937 q 0,0.25 0.15625,0.40104 0.15625,0.14584 0.390625,0.14584 h 0.604167 z"
       style="fill:#f0f0f0;fill-opacity:1"
       id="path8517" />
  </g>
</svg>
