<?xml version="1.0" encoding="UTF-8" standalone="no"?>
<svg
   xmlns:dc="http://purl.org/dc/elements/1.1/"
   xmlns:cc="http://creativecommons.org/ns#"
   xmlns:rdf="http://www.w3.org/1999/02/22-rdf-syntax-ns#"
   xmlns:svg="http://www.w3.org/2000/svg"
   xmlns="http://www.w3.org/2000/svg"
   xmlns:sodipodi="http://sodipodi.sourceforge.net/DTD/sodipodi-0.dtd"
   xmlns:inkscape="http://www.inkscape.org/namespaces/inkscape"
   id="SvgjsSvg1006"
   width="45"
   height="380"
   version="1.1"
   sodipodi:docname="FibonacciClockDivider.svg"
   inkscape:version="0.92.2 5c3e80d, 2017-08-06">
  <metadata
     id="metadata4625">
    <rdf:RDF>
      <cc:Work
         rdf:about="">
        <dc:format>image/svg+xml</dc:format>
        <dc:type
           rdf:resource="http://purl.org/dc/dcmitype/StillImage" />
        <dc:title />
      </cc:Work>
    </rdf:RDF>
  </metadata>
  <sodipodi:namedview
     pagecolor="#ffffff"
     bordercolor="#666666"
     borderopacity="1"
     objecttolerance="10000"
     gridtolerance="10000"
     guidetolerance="10000"
     inkscape:pageopacity="0"
     inkscape:pageshadow="2"
     inkscape:window-width="738"
     inkscape:window-height="961"
     id="namedview4623"
     showgrid="false"
     inkscape:zoom="2"
     inkscape:cx="27.551095"
     inkscape:cy="257.30866"
     inkscape:window-x="740"
     inkscape:window-y="65"
     inkscape:window-maximized="0"
     inkscape:current-layer="SvgjsSvg1006" />
  <defs
     id="SvgjsDefs1007" />
  <path
     style="fill:#222222"
     d="M 0,0 H 45 V 380 H 0 Z"
     id="SvgjsRect1008" />
  <path
     style="fill:#91b06f"
     d="m 7.5,33 h 30 v 32 h -30 z"
     id="SvgjsRect1009" />
  <path
     style="fill:#797979;fill-opacity:1"
     d="m 0,70 h 35 v 30 H 0 Z"
     id="SvgjsRect1010" />
  <path
     style="fill:#797979;fill-opacity:1"
     d="M 35,70 45,85 35,100 Z"
     id="SvgjsPolygon1011" />
  <path
     style="fill:#797979;fill-opacity:1"
     d="m 0,105 h 35 v 30 H 0 Z"
     id="SvgjsRect1012" />
  <path
     style="fill:#797979;fill-opacity:1"
     d="m 35,105 10,15 -10,15 z"
     id="SvgjsPolygon1013" />
  <path
     style="fill:#797979;fill-opacity:1"
     d="m 0,140 h 35 v 30 H 0 Z"
     id="SvgjsRect1014" />
  <path
     style="fill:#797979;fill-opacity:1"
     d="m 35,140 10,15 -10,15 z"
     id="SvgjsPolygon1015" />
  <path
     style="fill:#797979;fill-opacity:1"
     d="m 0,175 h 35 v 30 H 0 Z"
     id="SvgjsRect1016" />
  <path
     style="fill:#797979;fill-opacity:1"
     d="m 35,175 10,15 -10,15 z"
     id="SvgjsPolygon1017" />
  <path
     style="fill:#797979;fill-opacity:1"
     d="m 0,210 h 35 v 30 H 0 Z"
     id="SvgjsRect1018" />
  <path
     style="fill:#797979;fill-opacity:1"
     d="m 35,210 10,15 -10,15 z"
     id="SvgjsPolygon1019" />
  <path
     style="fill:#797979;fill-opacity:1"
     d="m 0,245 h 35 v 30 H 0 Z"
     id="SvgjsRect1020" />
  <path
     style="fill:#797979;fill-opacity:1"
     d="m 35,245 10,15 -10,15 z"
     id="SvgjsPolygon1021" />
  <path
     style="fill:#797979;fill-opacity:1"
     d="m 0,280 h 35 v 30 H 0 Z"
     id="SvgjsRect1022" />
  <path
     style="fill:#797979;fill-opacity:1"
     d="m 35,280 10,15 -10,15 z"
     id="SvgjsPolygon1023" />
  <path
     style="fill:#797979;fill-opacity:1"
     d="m 0,315 h 35 v 30 H 0 Z"
     id="SvgjsRect1024" />
  <path
     style="fill:#797979;fill-opacity:1"
     d="m 35,315 10,15 -10,15 z"
     id="SvgjsPolygon1025" />
  <g
     aria-label="SK"
     style="font-style:normal;font-variant:normal;font-weight:normal;font-stretch:normal;font-size:21.33333397px;line-height:1.25;font-family:Audiowide;-inkscape-font-specification:Audiowide;letter-spacing:0px;word-spacing:0px;fill:#000000;fill-opacity:1;stroke:none"
     id="text4650">
    <path
       d="m 21.05061,360.80287 q 0,0.80208 -0.208333,1.44791 -0.197917,0.63542 -0.53125,1.125 -0.333333,0.48959 -0.78125,0.83334 -0.447917,0.34375 -0.927083,0.5625 -0.479167,0.21875 -0.979167,0.32291 -0.489583,0.10417 -0.927083,0.10417 H 6.2485266 v -2.70833 H 16.696444 q 0.78125,0 1.208333,-0.45834 0.4375,-0.45833 0.4375,-1.22916 0,-0.375 -0.114583,-0.6875 -0.114584,-0.3125 -0.333334,-0.54167 -0.208333,-0.22917 -0.520833,-0.35417 -0.302083,-0.125 -0.677083,-0.125 h -6.229167 q -0.6562503,0 -1.416667,-0.22916 -0.7604167,-0.23959 -1.4166667,-0.76042 -0.6458333,-0.52083 -1.0833334,-1.36458 -0.4270833,-0.84375 -0.4270833,-2.0625 0,-1.21875 0.4270833,-2.05209 0.4375001,-0.84375 1.0833334,-1.36458 0.65625,-0.53125 1.4166667,-0.76042 0.7604167,-0.23958 1.416667,-0.23958 h 9.21875 v 2.70833 h -9.21875 q -0.7708336,0 -1.2083336,0.46875 -0.4270834,0.46875 -0.4270834,1.23959 0,0.78125 0.4270834,1.23958 0.4375,0.44792 1.2083336,0.44792 h 6.229167 0.02083 q 0.4375,0.0104 0.927083,0.125 0.489584,0.10416 0.96875,0.33333 0.489584,0.22917 0.927084,0.58333 0.4375,0.34375 0.770833,0.83334 0.34375,0.48958 0.541667,1.125 0.197916,0.63541 0.197916,1.4375 z"
       style="fill:#f0f0f0;fill-opacity:1"
       id="path5271" />
    <path
       d="m 38.977694,365.1987 h -3.84375 l -6.093751,-6.10417 h -1.90625 v -2.72916 h 1.90625 l 6.093751,-6.10417 h 3.84375 l -7.677084,7.46875 z m -12.927084,0 h -2.708333 v -14.9375 h 2.708333 z"
       style="fill:#f0f0f0;fill-opacity:1"
       id="path5273" />
  </g>
  <g
     aria-label="Divider"
     style="font-style:normal;font-variant:normal;font-weight:normal;font-stretch:normal;font-size:10.66666698px;line-height:1.25;font-family:Audiowide;-inkscape-font-specification:Audiowide;letter-spacing:0px;word-spacing:0px;fill:#000000;fill-opacity:1;stroke:none"
     id="text5205">
    <path
       d="m 9.9474251,27.336536 q 0,0.682292 -0.2395833,1.255209 Q 9.4734667,29.164661 9.0568001,29.581328 8.6401334,29.992786 8.0672167,30.227161 7.4943,30.461536 6.822425,30.461536 H 3.1661749 q -0.1458333,0 -0.2708333,-0.05208 -0.1250001,-0.05208 -0.2187501,-0.140625 -0.088542,-0.09375 -0.140625,-0.21875 -0.052083,-0.125 -0.052083,-0.270833 v -6.104167 q 0,-0.140625 0.052083,-0.265625 0.052083,-0.125 0.140625,-0.21875 0.09375,-0.09375 0.2187501,-0.145833 0.125,-0.05208 0.2708333,-0.05208 H 6.822425 q 0.671875,0 1.2447917,0.234375 0.5729167,0.234375 0.9895834,0.651042 0.4166666,0.411458 0.6510417,0.989583 0.2395833,0.572917 0.2395833,1.25 z m -1.3541667,-1.21875 q 0,-0.395833 -0.1302083,-0.723958 Q 8.33805,25.065703 8.103675,24.836536 7.8693,24.602161 7.541175,24.477161 7.2182583,24.346953 6.822425,24.346953 H 3.8380499 V 29.10737 H 6.822425 q 0.3958333,0 0.71875,-0.125 0.328125,-0.130209 0.5625,-0.359375 0.234375,-0.234375 0.3593751,-0.557292 0.1302083,-0.328125 0.1302083,-0.729167 z"
       style="fill:#f0f0f0;fill-opacity:1"
       id="path5340" />
    <path
       d="M 12.509925,23.675078 H 11.155759 V 22.45112 h 1.354166 z m 0,6.786458 h -1.354166 v -5.630208 h 1.354166 z"
       style="fill:#f0f0f0;fill-opacity:1"
       id="path5342" />
    <path
       d="m 20.520342,24.831328 q -0.229166,0.713542 -0.536458,1.40625 -0.307292,0.692708 -0.708333,1.322917 -0.395834,0.625 -0.890625,1.161458 -0.489584,0.53125 -1.088542,0.921875 -0.59375,0.385417 -1.296875,0.609375 -0.697917,0.21875 -1.515625,0.21875 -0.140625,0 -0.265625,-0.05208 -0.125,-0.05208 -0.21875,-0.140625 -0.09375,-0.09375 -0.145833,-0.213542 -0.05208,-0.125 -0.05208,-0.265625 v -4.96875 h 1.354167 v 4.234375 q 0.494792,0 0.947917,-0.213542 0.458333,-0.213541 0.864583,-0.5625 0.40625,-0.354166 0.75,-0.802083 0.348958,-0.447917 0.619792,-0.916667 0.270833,-0.473958 0.458333,-0.927083 0.192708,-0.453125 0.286458,-0.8125 z"
       style="fill:#f0f0f0;fill-opacity:1"
       id="path5344" />
    <path
       d="M 22.384926,23.675078 H 21.030759 V 22.45112 h 1.354167 z m 0,6.786458 h -1.354167 v -5.630208 h 1.354167 z"
       style="fill:#f0f0f0;fill-opacity:1"
       id="path5346" />
    <path
       d="m 29.853676,28.560495 q 0,0.348958 -0.08854,0.630208 -0.08854,0.276042 -0.234375,0.489583 -0.145833,0.208334 -0.338542,0.359375 -0.192708,0.145834 -0.40625,0.239584 -0.208333,0.09375 -0.427083,0.140625 -0.213542,0.04167 -0.40625,0.04167 h -2.442708 q -0.348959,0 -0.625,-0.08854 -0.276042,-0.08854 -0.489584,-0.234375 -0.208333,-0.151042 -0.359375,-0.34375 -0.145833,-0.192709 -0.239583,-0.401042 -0.09375,-0.213542 -0.140625,-0.427083 -0.04167,-0.21875 -0.04167,-0.40625 v -1.833334 q 0,-0.520833 0.1875,-0.880208 0.192709,-0.364583 0.473959,-0.588542 0.286458,-0.229166 0.619791,-0.328125 0.333334,-0.09896 0.614584,-0.09896 h 2.442708 v 1.354167 h -2.432292 q -0.270833,0 -0.411458,0.140625 -0.140625,0.135416 -0.140625,0.401041 v 1.822917 q 0,0.276042 0.135417,0.416667 0.140625,0.140625 0.40625,0.140625 h 2.442708 q 0.276042,0 0.411458,-0.140625 0.135417,-0.140625 0.135417,-0.40625 V 22.45112 h 1.354167 z"
       style="fill:#f0f0f0;fill-opacity:1"
       id="path5348" />
    <path
       d="m 37.21305,26.695911 q 0,0.28125 -0.09896,0.609375 -0.09896,0.322917 -0.322917,0.604167 -0.21875,0.276042 -0.578125,0.463542 -0.354167,0.1875 -0.864583,0.1875 h -2.442709 v -1.286459 h 2.442709 q 0.276041,0 0.427083,-0.166666 0.151042,-0.171875 0.151042,-0.421875 0,-0.265625 -0.171875,-0.416667 -0.166667,-0.151042 -0.40625,-0.151042 h -2.442709 q -0.276041,0 -0.427083,0.171875 -0.151042,0.166667 -0.151042,0.416667 v 1.890625 q 0,0.270833 0.166667,0.421875 0.171875,0.151042 0.421875,0.151042 h 2.432292 v 1.291666 h -2.442709 q -0.28125,0 -0.609375,-0.09896 -0.322916,-0.09896 -0.604166,-0.317708 -0.276042,-0.223959 -0.463542,-0.578125 -0.1875,-0.359375 -0.1875,-0.869792 v -1.901042 q 0,-0.28125 0.09896,-0.604166 0.09896,-0.328125 0.317709,-0.604167 0.223958,-0.28125 0.578125,-0.46875 0.359375,-0.1875 0.869791,-0.1875 h 2.442709 q 0.28125,0 0.604166,0.09896 0.328125,0.09896 0.604167,0.322917 0.28125,0.21875 0.46875,0.578125 0.1875,0.354167 0.1875,0.864583 z"
       style="fill:#f0f0f0;fill-opacity:1"
       id="path5350" />
    <path
       d="m 43.06201,26.185495 h -3.046875 q -0.276042,0 -0.416667,0.140625 -0.140625,0.135416 -0.140625,0.401041 v 3.734375 h -1.354167 v -3.734375 q 0,-0.348958 0.08854,-0.625 0.08854,-0.276041 0.234375,-0.484375 0.151041,-0.213541 0.34375,-0.359375 0.192708,-0.151041 0.401042,-0.244791 0.213541,-0.09375 0.427083,-0.135417 0.21875,-0.04687 0.40625,-0.04687 h 3.057292 z"
       style="fill:#f0f0f0;fill-opacity:1"
       id="path5352" />
  </g>
  <g
     aria-label="input"
     style="font-style:normal;font-variant:normal;font-weight:normal;font-stretch:normal;font-size:10.66666698px;line-height:1.25;font-family:Audiowide;-inkscape-font-specification:Audiowide;letter-spacing:0px;word-spacing:0px;fill:#000000;fill-opacity:1;stroke:none"
     id="text5209">
    <path
       d="m 12.32415,57.820702 h -1.015625 v -0.917969 h 1.015625 z m 0,5.089843 h -1.015625 v -4.222656 h 1.015625 z"
       style="font-size:8px;fill:#f0f0f0;fill-opacity:1"
       id="path5317" />
    <path
       d="m 17.972588,62.910545 h -1.015625 v -2.34375 q 0,-0.199218 -0.07031,-0.355468 -0.06641,-0.160157 -0.183594,-0.273438 -0.117187,-0.113281 -0.277343,-0.171875 -0.15625,-0.0625 -0.339844,-0.0625 h -1.777344 v 3.207031 H 13.2929 v -3.71875 q 0,-0.105468 0.03906,-0.195312 0.03906,-0.09375 0.109375,-0.160156 0.07031,-0.07031 0.164062,-0.109375 0.09375,-0.03906 0.199219,-0.03906 h 2.289062 q 0.191407,0 0.402344,0.04297 0.214844,0.04297 0.421875,0.140625 0.210938,0.09375 0.398438,0.242187 0.191406,0.144532 0.335937,0.355469 0.148438,0.207031 0.234375,0.480469 0.08594,0.273437 0.08594,0.617187 z"
       style="font-size:8px;fill:#f0f0f0;fill-opacity:1"
       id="path5319" />
    <path
       d="m 23.527275,61.484764 q 0,0.261719 -0.06641,0.472656 -0.06641,0.207032 -0.175781,0.367188 -0.109375,0.15625 -0.253907,0.269531 -0.144531,0.109375 -0.304687,0.179688 -0.15625,0.07031 -0.316406,0.105468 -0.160157,0.03125 -0.304688,0.03125 H 20.273369 V 61.89492 H 22.1054 q 0.203125,0 0.304688,-0.105468 0.101562,-0.105469 0.101562,-0.304688 v -1.367187 q 0,-0.210938 -0.105469,-0.3125 -0.101562,-0.101563 -0.300781,-0.101563 h -1.824219 q -0.207031,0 -0.3125,0.105469 -0.105468,0.101562 -0.105468,0.300781 v 4.121094 h -1.015625 v -4.121094 q 0,-0.261719 0.06641,-0.46875 0.06641,-0.207031 0.175781,-0.363281 0.113281,-0.160156 0.257813,-0.269531 0.144531,-0.113282 0.300781,-0.183594 0.160156,-0.07031 0.320312,-0.101563 0.164063,-0.03516 0.304688,-0.03516 H 22.1054 q 0.261719,0 0.46875,0.06641 0.207031,0.06641 0.363281,0.175782 0.160157,0.109375 0.269532,0.253906 0.113281,0.144531 0.183593,0.304687 0.07031,0.15625 0.101563,0.316407 0.03516,0.160156 0.03516,0.304687 z"
       style="font-size:8px;fill:#f0f0f0;fill-opacity:1"
       id="path5321" />
    <path
       d="m 29.019463,62.398827 q 0,0.109375 -0.03906,0.203125 -0.03906,0.09375 -0.109375,0.164062 -0.06641,0.06641 -0.160156,0.105469 -0.08984,0.03906 -0.195313,0.03906 h -2.296875 q -0.1875,0 -0.402343,-0.04297 -0.210938,-0.04297 -0.417969,-0.136719 -0.207031,-0.09766 -0.402344,-0.242188 -0.191406,-0.148437 -0.335937,-0.355468 -0.144532,-0.210938 -0.234375,-0.484375 -0.08594,-0.273438 -0.08594,-0.617188 v -2.34375 H 25.3554 v 2.34375 q 0,0.199219 0.06641,0.359375 0.07031,0.15625 0.1875,0.269531 0.117188,0.113282 0.273438,0.175782 0.160156,0.05859 0.34375,0.05859 h 1.777344 v -3.207031 h 1.015625 z"
       style="font-size:8px;fill:#f0f0f0;fill-opacity:1"
       id="path5323" />
    <path
       d="m 33.820244,59.703514 h -1.773438 v 3.207031 H 31.019463 V 59.703514 H 29.69915 v -1.015625 h 1.320313 v -1.378906 h 1.027343 v 1.378906 h 1.773438 z"
       style="font-size:8px;fill:#f0f0f0;fill-opacity:1"
       id="path5325" />
  </g>
  <g
     style="font-style:normal;font-variant:normal;font-weight:normal;font-stretch:normal;font-size:8px;line-height:1.25;font-family:Audiowide;-inkscape-font-specification:Audiowide;letter-spacing:0px;word-spacing:0px;fill:#000000;fill-opacity:1;stroke:none"
     id="text5217" />
  <g
     aria-label="Fibonacci"
     style="font-style:normal;font-variant:normal;font-weight:normal;font-stretch:normal;font-size:8px;line-height:1.25;font-family:Audiowide;-inkscape-font-specification:Audiowide;letter-spacing:0px;word-spacing:0px;fill:#000000;fill-opacity:1;stroke:none"
     id="text856">
    <path
       d="M 7.2226562,17.210937 H 4.0117187 V 16.1875 h 3.2109375 z m 0.453125,-2.296874 H 3.6054688 V 19.5 h -1.015625 v -5.089844 q 0,-0.105468 0.039063,-0.199218 0.039063,-0.09375 0.1054687,-0.164063 0.070312,-0.07031 0.1640625,-0.109375 0.09375,-0.03906 0.203125,-0.03906 h 4.5742187 z"
       style="fill:#f0f0f0;fill-opacity:1"
       id="path875" />
    <path
       d="m 9.4140625,14.410156 h -1.015625 v -0.917968 h 1.015625 z m 0,5.089844 h -1.015625 v -4.222656 h 1.015625 z"
       style="fill:#f0f0f0;fill-opacity:1"
       id="path877" />
    <path
       d="m 15.039063,18.074219 q 0,0.144531 -0.03516,0.304687 -0.03125,0.160156 -0.101562,0.320313 -0.07031,0.15625 -0.183594,0.300781 -0.109375,0.144531 -0.269531,0.257812 -0.15625,0.109375 -0.363281,0.175782 Q 13.878906,19.5 13.617188,19.5 h -1.832032 q -0.144531,0 -0.304687,-0.03125 -0.160156,-0.03516 -0.320313,-0.105469 -0.15625,-0.07031 -0.300781,-0.179687 -0.144531,-0.113282 -0.257812,-0.269532 -0.109375,-0.160156 -0.175782,-0.367187 -0.06641,-0.210938 -0.06641,-0.472656 V 13.492188 H 11.375 v 4.582031 q 0,0.1875 0.117188,0.300781 0.117187,0.109375 0.292968,0.109375 h 1.832032 q 0.191406,0 0.296875,-0.113281 0.109375,-0.113282 0.109375,-0.296875 v -1.375 q 0,-0.191407 -0.113282,-0.296875 -0.113281,-0.109375 -0.292968,-0.109375 h -1.832032 v -1.015625 h 1.832032 q 0.144531,0 0.304687,0.03516 0.160156,0.03125 0.316406,0.101563 0.160157,0.07031 0.304688,0.183593 0.144531,0.109375 0.253906,0.269532 0.109375,0.156249 0.175781,0.363281 0.06641,0.207031 0.06641,0.46875 z"
       style="fill:#f0f0f0;fill-opacity:1"
       id="path879" />
    <path
       d="m 20.507812,18.074219 q 0,0.261718 -0.06641,0.472656 -0.06641,0.207031 -0.175781,0.367187 -0.109375,0.15625 -0.253906,0.269532 -0.144532,0.109375 -0.304688,0.179687 -0.15625,0.07031 -0.320312,0.105469 Q 19.226562,19.5 19.082031,19.5 H 17.25 q -0.210938,0 -0.460938,-0.07422 -0.25,-0.07422 -0.464843,-0.242187 -0.210938,-0.171875 -0.355469,-0.441407 -0.140625,-0.273437 -0.140625,-0.667968 v -1.375 q 0,-0.390625 0.140625,-0.660157 0.144531,-0.273437 0.355469,-0.441406 0.214843,-0.171875 0.464843,-0.246093 0.25,-0.07422 0.460938,-0.07422 h 1.832031 q 0.390625,0 0.664063,0.140625 0.273437,0.140625 0.441406,0.355469 0.167969,0.210937 0.242187,0.460937 0.07813,0.25 0.07813,0.464844 z m -1.015625,-1.367188 q 0,-0.210937 -0.105468,-0.3125 -0.105469,-0.101562 -0.304688,-0.101562 h -1.824219 q -0.203125,0 -0.308593,0.105468 Q 16.84375,16.5 16.84375,16.699219 v 1.375 q 0,0.199218 0.105469,0.304687 0.105468,0.105469 0.308593,0.105469 h 1.824219 q 0.207031,0 0.308594,-0.105469 0.101562,-0.105469 0.101562,-0.304687 z"
       style="fill:#f0f0f0;fill-opacity:1"
       id="path881" />
    <path
       d="M 26.046875,19.5 H 25.03125 v -2.34375 q 0,-0.199219 -0.07031,-0.355469 -0.06641,-0.160156 -0.183593,-0.273437 Q 24.660156,16.414062 24.5,16.355469 q -0.15625,-0.0625 -0.339844,-0.0625 H 22.382812 V 19.5 h -1.015625 v -3.71875 q 0,-0.105469 0.03906,-0.195312 0.03906,-0.09375 0.109375,-0.160157 0.07031,-0.07031 0.164062,-0.109375 0.09375,-0.03906 0.199219,-0.03906 h 2.289063 q 0.191406,0 0.402343,0.04297 0.214844,0.04297 0.421875,0.140625 0.210938,0.09375 0.398438,0.242187 0.191406,0.144531 0.335937,0.355469 0.148438,0.207031 0.234375,0.480468 0.08594,0.273438 0.08594,0.617188 z"
       style="fill:#f0f0f0;fill-opacity:1"
       id="path883" />
    <path
       d="m 31.304687,18.101562 q 0,0.210938 -0.07422,0.457032 -0.07422,0.242187 -0.242188,0.453125 -0.164062,0.207031 -0.433594,0.347656 Q 30.289062,19.5 29.90625,19.5 h -1.832031 q -0.210938,0 -0.457032,-0.07422 -0.242187,-0.07422 -0.453125,-0.238281 -0.207031,-0.167969 -0.347656,-0.433594 -0.140625,-0.269531 -0.140625,-0.652344 0,-0.210937 0.07422,-0.457031 0.07422,-0.246094 0.238281,-0.453125 0.167969,-0.210937 0.433594,-0.351562 0.269531,-0.140625 0.652344,-0.140625 h 1.832031 v 0.96875 h -1.832031 q -0.207032,0 -0.320313,0.128906 -0.113281,0.125 -0.113281,0.3125 0,0.199219 0.128906,0.3125 0.132813,0.109375 0.3125,0.109375 h 1.824219 q 0.207031,0 0.320312,-0.125 0.113282,-0.125 0.113282,-0.3125 v -1.417969 q 0,-0.199219 -0.125,-0.316406 -0.121094,-0.117188 -0.308594,-0.117188 h -2.230469 v -0.964843 h 2.230469 q 0.210937,0 0.453125,0.07422 0.246094,0.07422 0.453125,0.242187 0.210937,0.164063 0.351562,0.433594 0.140625,0.265625 0.140625,0.648437 z"
       style="fill:#f0f0f0;fill-opacity:1"
       id="path885" />
    <path
       d="m 36.269531,19.5 h -2.753906 q -0.210938,0 -0.460938,-0.07422 -0.25,-0.07422 -0.464843,-0.242187 Q 32.378906,19.011719 32.234375,18.742187 32.09375,18.46875 32.09375,18.074219 v -1.375 q 0,-0.144532 0.03125,-0.304688 0.03516,-0.160156 0.105469,-0.316406 0.07031,-0.160156 0.179687,-0.304687 0.113281,-0.144532 0.269531,-0.253907 0.160157,-0.109375 0.367188,-0.175781 0.207031,-0.06641 0.46875,-0.06641 h 2.753906 v 1.015625 h -2.753906 q -0.199219,0 -0.304688,0.101562 -0.101562,0.101563 -0.101562,0.3125 v 1.367188 q 0,0.199218 0.105469,0.304687 0.105468,0.105469 0.308593,0.105469 h 2.746094 z"
       style="fill:#f0f0f0;fill-opacity:1"
       id="path887" />
    <path
       d="m 41.175781,19.5 h -2.753906 q -0.210938,0 -0.460938,-0.07422 -0.25,-0.07422 -0.464843,-0.242187 Q 37.285156,19.011719 37.140625,18.742187 37,18.46875 37,18.074219 v -1.375 q 0,-0.144532 0.03125,-0.304688 0.03516,-0.160156 0.105469,-0.316406 0.07031,-0.160156 0.179687,-0.304687 0.113281,-0.144532 0.269531,-0.253907 0.160157,-0.109375 0.367188,-0.175781 0.207031,-0.06641 0.46875,-0.06641 h 2.753906 v 1.015625 h -2.753906 q -0.199219,0 -0.304688,0.101562 -0.101562,0.101563 -0.101562,0.3125 v 1.367188 q 0,0.199218 0.105469,0.304687 0.105468,0.105469 0.308593,0.105469 h 2.746094 z"
       style="fill:#f0f0f0;fill-opacity:1"
       id="path889" />
    <path
       d="m 43.054687,14.410156 h -1.015625 v -0.917968 h 1.015625 z m 0,5.089844 h -1.015625 v -4.222656 h 1.015625 z"
       style="fill:#f0f0f0;fill-opacity:1"
       id="path891" />
  </g>
</svg>
