<?xml version="1.0" encoding="UTF-8" standalone="no"?>
<svg
   xmlns:dc="http://purl.org/dc/elements/1.1/"
   xmlns:cc="http://creativecommons.org/ns#"
   xmlns:rdf="http://www.w3.org/1999/02/22-rdf-syntax-ns#"
   xmlns:svg="http://www.w3.org/2000/svg"
   xmlns="http://www.w3.org/2000/svg"
   xmlns:sodipodi="http://sodipodi.sourceforge.net/DTD/sodipodi-0.dtd"
   xmlns:inkscape="http://www.inkscape.org/namespaces/inkscape"
   id="SvgjsSvg1006"
   width="45"
   height="380"
   version="1.1"
   sodipodi:docname="Or.svg"
   inkscape:version="0.92.2 5c3e80d, 2017-08-06">
  <metadata
     id="metadata7215">
    <rdf:RDF>
      <cc:Work
         rdf:about="">
        <dc:format>image/svg+xml</dc:format>
        <dc:type
           rdf:resource="http://purl.org/dc/dcmitype/StillImage" />
        <dc:title></dc:title>
      </cc:Work>
    </rdf:RDF>
  </metadata>
  <sodipodi:namedview
     pagecolor="#ffffff"
     bordercolor="#666666"
     borderopacity="1"
     objecttolerance="10"
     gridtolerance="10"
     guidetolerance="10"
     inkscape:pageopacity="0"
     inkscape:pageshadow="2"
     inkscape:window-width="901"
     inkscape:window-height="1009"
     id="namedview7213"
     showgrid="false"
     inkscape:pagecheckerboard="true"
     inkscape:zoom="4.0022244"
     inkscape:cx="-5.2866572"
     inkscape:cy="206.16872"
     inkscape:window-x="663"
     inkscape:window-y="0"
     inkscape:window-maximized="0"
     inkscape:current-layer="SvgjsSvg1006" />
  <defs
     id="SvgjsDefs1007" />
  <rect
     id="SvgjsRect1008"
     width="45"
     height="380"
     fill="#222222" />
  <rect
     id="SvgjsRect1009"
     width="31"
     height="153"
     fill="#91b06f"
     x="7"
     y="33"
     style="fill:#d05c10;fill-opacity:1" />
  <rect
     id="SvgjsRect1010"
     width="31"
     height="153"
     fill="#91b06f"
     x="7"
     y="192"
     style="fill:#d05c10;fill-opacity:1" />
  <g
     transform="translate(-0.05061,0.27005)"
     aria-label="SK"
     style="font-style:normal;font-variant:normal;font-weight:normal;font-stretch:normal;font-size:21.33333397px;line-height:1.25;font-family:Audiowide;-inkscape-font-specification:Audiowide;letter-spacing:0px;word-spacing:0px;fill:#000000;fill-opacity:1;stroke:none"
     id="text4650">
    <path
       inkscape:connector-curvature="0"
       d="m 21.05061,360.80287 q 0,0.80208 -0.208333,1.44791 -0.197917,0.63542 -0.53125,1.125 -0.333333,0.48959 -0.78125,0.83334 -0.447917,0.34375 -0.927083,0.5625 -0.479167,0.21875 -0.979167,0.32291 -0.489583,0.10417 -0.927083,0.10417 H 6.2485266 v -2.70833 H 16.696444 q 0.78125,0 1.208333,-0.45834 0.4375,-0.45833 0.4375,-1.22916 0,-0.375 -0.114583,-0.6875 -0.114584,-0.3125 -0.333334,-0.54167 -0.208333,-0.22917 -0.520833,-0.35417 -0.302083,-0.125 -0.677083,-0.125 h -6.229167 q -0.6562503,0 -1.416667,-0.22916 -0.7604167,-0.23959 -1.4166667,-0.76042 -0.6458333,-0.52083 -1.0833334,-1.36458 -0.4270833,-0.84375 -0.4270833,-2.0625 0,-1.21875 0.4270833,-2.05209 0.4375001,-0.84375 1.0833334,-1.36458 0.65625,-0.53125 1.4166667,-0.76042 0.7604167,-0.23958 1.416667,-0.23958 h 9.21875 v 2.70833 h -9.21875 q -0.7708336,0 -1.2083336,0.46875 -0.4270834,0.46875 -0.4270834,1.23959 0,0.78125 0.4270834,1.23958 0.4375,0.44792 1.2083336,0.44792 h 6.229167 0.02083 q 0.4375,0.0104 0.927083,0.125 0.489584,0.10416 0.96875,0.33333 0.489584,0.22917 0.927084,0.58333 0.4375,0.34375 0.770833,0.83334 0.34375,0.48958 0.541667,1.125 0.197916,0.63541 0.197916,1.4375 z"
       style="fill:#f0f0f0;fill-opacity:1"
       id="path5271" />
    <path
       inkscape:connector-curvature="0"
       d="m 38.977694,365.1987 h -3.84375 l -6.093751,-6.10417 h -1.90625 v -2.72916 h 1.90625 l 6.093751,-6.10417 h 3.84375 l -7.677084,7.46875 z m -12.927084,0 h -2.708333 v -14.9375 h 2.708333 z"
       style="fill:#f0f0f0;fill-opacity:1"
       id="path5273" />
  </g>
  <g
     aria-label="input"
     style="font-style:normal;font-variant:normal;font-weight:normal;font-stretch:normal;font-size:21.33333397px;line-height:1.25;font-family:Audiowide;-inkscape-font-specification:Audiowide;letter-spacing:0px;word-spacing:0px;fill:#000000;fill-opacity:1;stroke:none"
     id="text7787"
     transform="translate(0,8)">
    <path
       d="m 11.538937,65.054657 h -1.015625 v -0.917969 h 1.015625 z m 0,5.089844 h -1.015625 v -4.222657 h 1.015625 z"
       style="font-size:8px;fill:#f0f0f0;fill-opacity:1"
       id="path8202"
       inkscape:connector-curvature="0" />
    <path
       d="m 17.187374,70.144501 h -1.015625 v -2.34375 q 0,-0.199219 -0.07031,-0.355469 -0.06641,-0.160156 -0.183594,-0.273438 -0.117188,-0.113281 -0.277344,-0.171875 -0.15625,-0.0625 -0.339844,-0.0625 h -1.777343 v 3.207032 h -1.015625 v -3.71875 q 0,-0.105469 0.03906,-0.195313 0.03906,-0.09375 0.109375,-0.160156 0.07031,-0.07031 0.164063,-0.109375 0.09375,-0.03906 0.199218,-0.03906 h 2.289063 q 0.191406,0 0.402344,0.04297 0.214843,0.04297 0.421875,0.140625 0.210937,0.09375 0.398437,0.242188 0.191406,0.144531 0.335938,0.355468 0.148437,0.207032 0.234375,0.480469 0.08594,0.273438 0.08594,0.617188 z"
       style="font-size:8px;fill:#f0f0f0;fill-opacity:1"
       id="path8204"
       inkscape:connector-curvature="0" />
    <path
       d="m 22.742062,68.718719 q 0,0.261719 -0.06641,0.472657 -0.06641,0.207031 -0.175781,0.367187 -0.109375,0.15625 -0.253906,0.269531 -0.144531,0.109375 -0.304688,0.179688 -0.15625,0.07031 -0.316406,0.105469 -0.160156,0.03125 -0.304687,0.03125 h -1.832032 v -1.015625 h 1.832032 q 0.203125,0 0.304687,-0.105469 0.101563,-0.105469 0.101563,-0.304688 v -1.367187 q 0,-0.210938 -0.105469,-0.3125 -0.101563,-0.101563 -0.300781,-0.101563 h -1.824219 q -0.207031,0 -0.3125,0.105469 -0.105469,0.101563 -0.105469,0.300781 v 4.121094 h -1.015625 v -4.121094 q 0,-0.261718 0.06641,-0.46875 0.06641,-0.207031 0.175782,-0.363281 0.113281,-0.160156 0.257812,-0.269531 0.144531,-0.113281 0.300781,-0.183594 0.160157,-0.07031 0.320313,-0.101562 0.164062,-0.03516 0.304687,-0.03516 h 1.832032 q 0.261718,0 0.46875,0.06641 0.207031,0.06641 0.363281,0.175781 0.160156,0.109375 0.269531,0.253906 0.113281,0.144531 0.183594,0.304688 0.07031,0.15625 0.101562,0.316406 0.03516,0.160156 0.03516,0.304687 z"
       style="font-size:8px;fill:#f0f0f0;fill-opacity:1"
       id="path8206"
       inkscape:connector-curvature="0" />
    <path
       d="m 28.234249,69.632782 q 0,0.109375 -0.03906,0.203125 -0.03906,0.09375 -0.109375,0.164062 -0.06641,0.06641 -0.160157,0.105469 -0.08984,0.03906 -0.195312,0.03906 H 25.43347 q -0.1875,0 -0.402344,-0.04297 -0.210937,-0.04297 -0.417969,-0.136719 -0.207031,-0.09766 -0.402343,-0.242187 -0.191407,-0.148438 -0.335938,-0.355469 -0.144531,-0.210938 -0.234375,-0.484375 -0.08594,-0.273438 -0.08594,-0.617188 v -2.34375 h 1.015625 v 2.34375 q 0,0.199219 0.06641,0.359375 0.07031,0.15625 0.1875,0.269532 0.117187,0.113281 0.273437,0.175781 0.160157,0.05859 0.34375,0.05859 h 1.777344 v -3.207032 h 1.015625 z"
       style="font-size:8px;fill:#f0f0f0;fill-opacity:1"
       id="path8208"
       inkscape:connector-curvature="0" />
    <path
       d="m 33.03503,66.937469 h -1.773437 v 3.207032 h -1.027344 v -3.207032 h -1.320312 v -1.015625 h 1.320312 v -1.378906 h 1.027344 v 1.378906 h 1.773437 z"
       style="font-size:8px;fill:#f0f0f0;fill-opacity:1"
       id="path8210"
       inkscape:connector-curvature="0" />
  </g>
  <g
     aria-label="input"
     style="font-style:normal;font-variant:normal;font-weight:normal;font-stretch:normal;font-size:21.33333397px;line-height:1.25;font-family:Audiowide;-inkscape-font-specification:Audiowide;letter-spacing:0px;word-spacing:0px;fill:#000000;fill-opacity:1;stroke:none"
     id="text7787-6"
     transform="translate(0,2)">
    <path
       d="m 11.228919,120.92093 h -1.015625 v -0.91797 h 1.015625 z m 0,5.08984 h -1.015625 v -4.22265 h 1.015625 z"
       style="font-size:8px;fill:#f0f0f0;fill-opacity:1"
       id="path8174"
       inkscape:connector-curvature="0" />
    <path
       d="m 16.877357,126.01077 h -1.015625 v -2.34375 q 0,-0.19922 -0.07031,-0.35547 -0.06641,-0.16015 -0.183594,-0.27343 -0.117187,-0.11328 -0.277343,-0.17188 -0.15625,-0.0625 -0.339844,-0.0625 h -1.777344 v 3.20703 h -1.015625 v -3.71875 q 0,-0.10547 0.03906,-0.19531 0.03906,-0.0937 0.109375,-0.16016 0.07031,-0.0703 0.164062,-0.10937 0.09375,-0.0391 0.199219,-0.0391 h 2.289062 q 0.191407,0 0.402344,0.043 0.214844,0.043 0.421875,0.14062 0.210938,0.0937 0.398438,0.24219 0.191406,0.14453 0.335937,0.35547 0.148438,0.20703 0.234375,0.48047 0.08594,0.27343 0.08594,0.61718 z"
       style="font-size:8px;fill:#f0f0f0;fill-opacity:1"
       id="path8176"
       inkscape:connector-curvature="0" />
    <path
       d="m 22.432044,124.58499 q 0,0.26172 -0.06641,0.47266 -0.06641,0.20703 -0.175781,0.36719 -0.109375,0.15625 -0.253907,0.26953 -0.144531,0.10937 -0.304687,0.17968 -0.15625,0.0703 -0.316406,0.10547 -0.160157,0.0312 -0.304688,0.0312 h -1.832031 v -1.01562 h 1.832031 q 0.203125,0 0.304688,-0.10547 0.101562,-0.10547 0.101562,-0.30469 v -1.36719 q 0,-0.21093 -0.105469,-0.3125 -0.101562,-0.10156 -0.300781,-0.10156 H 19.18595 q -0.207031,0 -0.3125,0.10547 -0.105468,0.10156 -0.105468,0.30078 v 4.1211 h -1.015625 v -4.1211 q 0,-0.26172 0.06641,-0.46875 0.06641,-0.20703 0.175781,-0.36328 0.113281,-0.16016 0.257813,-0.26953 0.144531,-0.11328 0.300781,-0.18359 0.160156,-0.0703 0.320312,-0.10157 0.164063,-0.0351 0.304688,-0.0351 h 1.832031 q 0.261719,0 0.46875,0.0664 0.207031,0.0664 0.363281,0.17578 0.160157,0.10938 0.269532,0.25391 0.113281,0.14453 0.183593,0.30469 0.07031,0.15625 0.101563,0.3164 0.03516,0.16016 0.03516,0.30469 z"
       style="font-size:8px;fill:#f0f0f0;fill-opacity:1"
       id="path8178"
       inkscape:connector-curvature="0" />
    <path
       d="m 27.924232,125.49905 q 0,0.10938 -0.03906,0.20313 -0.03906,0.0937 -0.109375,0.16406 -0.06641,0.0664 -0.160156,0.10547 -0.08984,0.0391 -0.195313,0.0391 H 25.12345 q -0.1875,0 -0.402343,-0.043 -0.210938,-0.043 -0.417969,-0.13671 -0.207031,-0.0977 -0.402344,-0.24219 -0.191406,-0.14844 -0.335937,-0.35547 -0.144532,-0.21094 -0.234375,-0.48438 -0.08594,-0.27343 -0.08594,-0.61718 v -2.34375 h 1.015625 v 2.34375 q 0,0.19922 0.06641,0.35937 0.07031,0.15625 0.1875,0.26953 0.117188,0.11328 0.273438,0.17578 0.160156,0.0586 0.34375,0.0586 h 1.777344 v -3.20703 h 1.015625 z"
       style="font-size:8px;fill:#f0f0f0;fill-opacity:1"
       id="path8180"
       inkscape:connector-curvature="0" />
    <path
       d="m 32.725013,122.80374 h -1.773438 v 3.20703 h -1.027343 v -3.20703 h -1.320313 v -1.01562 h 1.320313 v -1.37891 h 1.027343 v 1.37891 h 1.773438 z"
       style="font-size:8px;fill:#f0f0f0;fill-opacity:1"
       id="path8182"
       inkscape:connector-curvature="0" />
  </g>
  <g
     aria-label="output"
     style="font-style:normal;font-variant:normal;font-weight:normal;font-stretch:normal;font-size:21.33333397px;line-height:1.25;font-family:Audiowide;-inkscape-font-specification:Audiowide;letter-spacing:0px;word-spacing:0px;fill:#000000;fill-opacity:1;stroke:none"
     id="text7787-62">
    <path
       d="m 11.292252,179.83429 q 0,0.26172 -0.06641,0.47266 -0.06641,0.20703 -0.175781,0.36718 -0.109375,0.15625 -0.253906,0.26953 -0.144531,0.10938 -0.304688,0.17969 -0.15625,0.0703 -0.320312,0.10547 -0.160156,0.0312 -0.3046877,0.0312 H 8.0344391 q -0.2109375,0 -0.4609375,-0.0742 -0.25,-0.0742 -0.4648438,-0.24219 -0.2109375,-0.17187 -0.3554687,-0.4414 -0.140625,-0.27344 -0.140625,-0.66797 v -1.375 q 0,-0.39063 0.140625,-0.66016 0.1445312,-0.27343 0.3554687,-0.4414 0.2148438,-0.17188 0.4648438,-0.2461 0.25,-0.0742 0.4609375,-0.0742 h 1.8320312 q 0.3906247,0 0.6640627,0.14063 0.273437,0.14062 0.441406,0.35547 0.167969,0.21094 0.242188,0.46094 0.07813,0.25 0.07813,0.46484 z m -1.015625,-1.36719 q 0,-0.21094 -0.105469,-0.3125 -0.105469,-0.10156 -0.3046877,-0.10156 H 8.0422516 q -0.203125,0 -0.3085938,0.10547 -0.1054687,0.10156 -0.1054687,0.30078 v 1.375 q 0,0.19922 0.1054687,0.30469 0.1054688,0.10547 0.3085938,0.10547 h 1.8242187 q 0.2070317,0 0.3085937,-0.10547 0.101563,-0.10547 0.101563,-0.30469 z"
       style="font-size:8px;fill:#f0f0f0;fill-opacity:1"
       id="path8161"
       inkscape:connector-curvature="0" />
    <path
       d="m 16.768814,180.74835 q 0,0.10938 -0.03906,0.20313 -0.03906,0.0937 -0.109375,0.16406 -0.06641,0.0664 -0.160157,0.10547 -0.08984,0.0391 -0.195312,0.0391 h -2.296875 q -0.1875,0 -0.402344,-0.043 -0.210937,-0.043 -0.417969,-0.13672 -0.207031,-0.0976 -0.402343,-0.24218 -0.191407,-0.14844 -0.335938,-0.35547 -0.144531,-0.21094 -0.234375,-0.48438 -0.08594,-0.27344 -0.08594,-0.61719 v -2.34375 h 1.015625 v 2.34375 q 0,0.19922 0.06641,0.35938 0.07031,0.15625 0.1875,0.26953 0.117187,0.11328 0.273437,0.17578 0.160157,0.0586 0.34375,0.0586 h 1.777344 v -3.20704 h 1.015625 z"
       style="font-size:8px;fill:#f0f0f0;fill-opacity:1"
       id="path8163"
       inkscape:connector-curvature="0" />
    <path
       d="m 21.569595,178.05304 h -1.773437 v 3.20703 h -1.027344 v -3.20703 h -1.320312 v -1.01563 h 1.320312 v -1.3789 h 1.027344 v 1.3789 h 1.773437 z"
       style="font-size:8px;fill:#f0f0f0;fill-opacity:1"
       id="path8165"
       inkscape:connector-curvature="0" />
    <path
       d="m 26.886002,179.83429 q 0,0.26172 -0.06641,0.47266 -0.06641,0.20703 -0.175781,0.36718 -0.109375,0.15625 -0.253906,0.26953 -0.144531,0.10938 -0.304688,0.17969 -0.15625,0.0703 -0.316406,0.10547 -0.160156,0.0312 -0.304687,0.0312 h -1.832032 v -1.01562 h 1.832032 q 0.203125,0 0.304687,-0.10547 0.101563,-0.10547 0.101563,-0.30469 v -1.36719 q 0,-0.21094 -0.105469,-0.3125 -0.101563,-0.10156 -0.300781,-0.10156 h -1.824219 q -0.207031,0 -0.3125,0.10547 -0.105469,0.10156 -0.105469,0.30078 v 4.12109 h -1.015625 v -4.12109 q 0,-0.26172 0.06641,-0.46875 0.06641,-0.20703 0.175782,-0.36328 0.113281,-0.16016 0.257812,-0.26953 0.144531,-0.11328 0.300781,-0.1836 0.160157,-0.0703 0.320313,-0.10156 0.164062,-0.0352 0.304687,-0.0352 h 1.832032 q 0.261718,0 0.46875,0.0664 0.207031,0.0664 0.363281,0.17578 0.160156,0.10938 0.269531,0.25391 0.113281,0.14453 0.183594,0.30469 0.07031,0.15625 0.101562,0.3164 0.03516,0.16016 0.03516,0.30469 z"
       style="font-size:8px;fill:#f0f0f0;fill-opacity:1"
       id="path8167"
       inkscape:connector-curvature="0" />
    <path
       d="m 32.378189,180.74835 q 0,0.10938 -0.03906,0.20313 -0.03906,0.0937 -0.109375,0.16406 -0.06641,0.0664 -0.160157,0.10547 -0.08984,0.0391 -0.195312,0.0391 H 29.57741 q -0.1875,0 -0.402344,-0.043 -0.210937,-0.043 -0.417969,-0.13672 -0.207031,-0.0976 -0.402343,-0.24218 -0.191407,-0.14844 -0.335938,-0.35547 -0.144531,-0.21094 -0.234375,-0.48438 -0.08594,-0.27344 -0.08594,-0.61719 v -2.34375 h 1.015625 v 2.34375 q 0,0.19922 0.06641,0.35938 0.07031,0.15625 0.1875,0.26953 0.117187,0.11328 0.273437,0.17578 0.160157,0.0586 0.34375,0.0586 h 1.777344 v -3.20704 h 1.015625 z"
       style="font-size:8px;fill:#f0f0f0;fill-opacity:1"
       id="path8169"
       inkscape:connector-curvature="0" />
    <path
       d="m 37.17897,178.05304 h -1.773437 v 3.20703 h -1.027344 v -3.20703 h -1.320312 v -1.01563 h 1.320312 v -1.3789 h 1.027344 v 1.3789 h 1.773437 z"
       style="font-size:8px;fill:#f0f0f0;fill-opacity:1"
       id="path8171"
       inkscape:connector-curvature="0" />
  </g>
  <g
     aria-label="input"
     style="font-style:normal;font-variant:normal;font-weight:normal;font-stretch:normal;font-size:21.33333397px;line-height:1.25;font-family:Audiowide;-inkscape-font-specification:Audiowide;letter-spacing:0px;word-spacing:0px;fill:#000000;fill-opacity:1;stroke:none"
     id="text7787-9"
     transform="translate(0,8)">
    <path
       d="m 12.127329,223.30756 h -1.015625 v -0.91797 h 1.015625 z m 0,5.08984 h -1.015625 v -4.22266 h 1.015625 z"
       style="font-size:8px;fill:#f0f0f0;fill-opacity:1"
       id="path8150"
       inkscape:connector-curvature="0" />
    <path
       d="m 17.775766,228.3974 h -1.015625 v -2.34375 q 0,-0.19922 -0.07031,-0.35547 -0.06641,-0.16016 -0.183594,-0.27344 -0.117187,-0.11328 -0.277344,-0.17187 -0.15625,-0.0625 -0.339843,-0.0625 h -1.777344 v 3.20703 h -1.015625 v -3.71875 q 0,-0.10547 0.03906,-0.19531 0.03906,-0.0937 0.109375,-0.16016 0.07031,-0.0703 0.164063,-0.10937 0.09375,-0.0391 0.199219,-0.0391 h 2.289062 q 0.191406,0 0.402344,0.043 0.214844,0.043 0.421875,0.14063 0.210937,0.0937 0.398437,0.24218 0.191407,0.14454 0.335938,0.35547 0.148437,0.20703 0.234375,0.48047 0.08594,0.27344 0.08594,0.61719 z"
       style="font-size:8px;fill:#f0f0f0;fill-opacity:1"
       id="path8152"
       inkscape:connector-curvature="0" />
    <path
       d="m 23.330454,226.97162 q 0,0.26172 -0.06641,0.47265 -0.06641,0.20704 -0.175782,0.36719 -0.109375,0.15625 -0.253906,0.26953 -0.144531,0.10938 -0.304687,0.17969 -0.15625,0.0703 -0.316407,0.10547 -0.160156,0.0312 -0.304687,0.0312 h -1.832031 v -1.01563 h 1.832031 q 0.203125,0 0.304687,-0.10546 0.101563,-0.10547 0.101563,-0.30469 v -1.36719 q 0,-0.21094 -0.105469,-0.3125 -0.101562,-0.10156 -0.300781,-0.10156 H 20.08436 q -0.207031,0 -0.3125,0.10547 -0.105469,0.10156 -0.105469,0.30078 v 4.12109 h -1.015625 v -4.12109 q 0,-0.26172 0.06641,-0.46875 0.06641,-0.20703 0.175781,-0.36328 0.113281,-0.16016 0.257812,-0.26953 0.144532,-0.11329 0.300782,-0.1836 0.160156,-0.0703 0.320312,-0.10156 0.164063,-0.0352 0.304688,-0.0352 h 1.832031 q 0.261719,0 0.46875,0.0664 0.207031,0.0664 0.363281,0.17578 0.160156,0.10938 0.269531,0.25391 0.113282,0.14453 0.183594,0.30468 0.07031,0.15625 0.101563,0.31641 0.03516,0.16016 0.03516,0.30469 z"
       style="font-size:8px;fill:#f0f0f0;fill-opacity:1"
       id="path8154"
       inkscape:connector-curvature="0" />
    <path
       d="m 28.822641,227.88568 q 0,0.10938 -0.03906,0.20313 -0.03906,0.0937 -0.109375,0.16406 -0.06641,0.0664 -0.160156,0.10547 -0.08984,0.0391 -0.195313,0.0391 H 26.02186 q -0.1875,0 -0.402344,-0.043 -0.210937,-0.043 -0.417968,-0.13672 -0.207032,-0.0977 -0.402344,-0.24219 -0.191406,-0.14843 -0.335938,-0.35546 -0.144531,-0.21094 -0.234375,-0.48438 -0.08594,-0.27344 -0.08594,-0.61719 v -2.34375 h 1.015625 v 2.34375 q 0,0.19922 0.06641,0.35938 0.07031,0.15625 0.1875,0.26953 0.117188,0.11328 0.273438,0.17578 0.160156,0.0586 0.34375,0.0586 h 1.777343 v -3.20703 h 1.015625 z"
       style="font-size:8px;fill:#f0f0f0;fill-opacity:1"
       id="path8156"
       inkscape:connector-curvature="0" />
    <path
       d="m 33.623423,225.19037 h -1.773438 v 3.20703 h -1.027344 v -3.20703 h -1.320312 v -1.01563 h 1.320312 v -1.3789 h 1.027344 v 1.3789 h 1.773438 z"
       style="font-size:8px;fill:#f0f0f0;fill-opacity:1"
       id="path8158"
       inkscape:connector-curvature="0" />
  </g>
  <g
     aria-label="input"
     style="font-style:normal;font-variant:normal;font-weight:normal;font-stretch:normal;font-size:21.33333397px;line-height:1.25;font-family:Audiowide;-inkscape-font-specification:Audiowide;letter-spacing:0px;word-spacing:0px;fill:#000000;fill-opacity:1;stroke:none"
     id="text7787-6-0"
     transform="translate(0,2)">
    <path
       d="m 11.817312,279.17383 h -1.015625 v -0.91797 h 1.015625 z m 0,5.08984 h -1.015625 v -4.22265 h 1.015625 z"
       style="font-size:8px;fill:#f0f0f0;fill-opacity:1"
       id="path8139"
       inkscape:connector-curvature="0" />
    <path
       d="m 17.46575,284.26367 h -1.015625 v -2.34375 q 0,-0.19922 -0.07031,-0.35547 -0.06641,-0.16015 -0.183594,-0.27343 -0.117187,-0.11329 -0.277343,-0.17188 -0.15625,-0.0625 -0.339844,-0.0625 H 13.80169 v 3.20703 h -1.015625 v -3.71875 q 0,-0.10547 0.03906,-0.19531 0.03906,-0.0937 0.109375,-0.16016 0.07031,-0.0703 0.164062,-0.10937 0.09375,-0.0391 0.199219,-0.0391 h 2.289062 q 0.191407,0 0.402344,0.043 0.214844,0.043 0.421875,0.14063 0.210938,0.0937 0.398438,0.24219 0.191406,0.14453 0.335937,0.35547 0.148438,0.20703 0.234375,0.48046 0.08594,0.27344 0.08594,0.61719 z"
       style="font-size:8px;fill:#f0f0f0;fill-opacity:1"
       id="path8141"
       inkscape:connector-curvature="0" />
    <path
       d="m 23.020437,282.83789 q 0,0.26172 -0.06641,0.47266 -0.06641,0.20703 -0.175781,0.36718 -0.109375,0.15625 -0.253907,0.26954 -0.144531,0.10937 -0.304687,0.17968 -0.15625,0.0703 -0.316406,0.10547 -0.160157,0.0312 -0.304688,0.0312 H 19.766527 V 283.248 h 1.832031 q 0.203125,0 0.304688,-0.10547 0.101562,-0.10547 0.101562,-0.30469 v -1.36719 q 0,-0.21093 -0.105469,-0.3125 -0.101562,-0.10156 -0.300781,-0.10156 h -1.824219 q -0.207031,0 -0.3125,0.10547 -0.105468,0.10156 -0.105468,0.30078 v 4.12109 H 18.34075 v -4.12109 q 0,-0.26172 0.06641,-0.46875 0.06641,-0.20703 0.175781,-0.36328 0.113281,-0.16016 0.257813,-0.26953 0.144531,-0.11328 0.300781,-0.1836 0.160156,-0.0703 0.320312,-0.10156 0.164063,-0.0351 0.304688,-0.0351 h 1.832031 q 0.261719,0 0.46875,0.0664 0.207031,0.0664 0.363281,0.17578 0.160157,0.10938 0.269532,0.25391 0.113281,0.14453 0.183593,0.30469 0.07031,0.15625 0.101563,0.3164 0.03516,0.16016 0.03516,0.30469 z"
       style="font-size:8px;fill:#f0f0f0;fill-opacity:1"
       id="path8143"
       inkscape:connector-curvature="0" />
    <path
       d="m 28.512625,283.75195 q 0,0.10938 -0.03906,0.20313 -0.03906,0.0937 -0.109375,0.16406 -0.06641,0.0664 -0.160156,0.10547 -0.08984,0.0391 -0.195313,0.0391 h -2.296875 q -0.1875,0 -0.402343,-0.043 -0.210938,-0.043 -0.417969,-0.13672 -0.207031,-0.0976 -0.402344,-0.24218 -0.191406,-0.14844 -0.335937,-0.35547 -0.144532,-0.21094 -0.234375,-0.48438 -0.08594,-0.27343 -0.08594,-0.61718 v -2.34375 h 1.015625 v 2.34375 q 0,0.19921 0.06641,0.35937 0.07031,0.15625 0.1875,0.26953 0.117188,0.11328 0.273438,0.17578 0.160156,0.0586 0.34375,0.0586 H 27.497 v -3.20703 h 1.015625 z"
       style="font-size:8px;fill:#f0f0f0;fill-opacity:1"
       id="path8145"
       inkscape:connector-curvature="0" />
    <path
       d="m 33.313406,281.05664 h -1.773438 v 3.20703 h -1.027343 v -3.20703 h -1.320313 v -1.01562 h 1.320313 v -1.37891 h 1.027343 v 1.37891 h 1.773438 z"
       style="font-size:8px;fill:#f0f0f0;fill-opacity:1"
       id="path8147"
       inkscape:connector-curvature="0" />
  </g>
  <g
     aria-label="output"
     style="font-style:normal;font-variant:normal;font-weight:normal;font-stretch:normal;font-size:21.33333397px;line-height:1.25;font-family:Audiowide;-inkscape-font-specification:Audiowide;letter-spacing:0px;word-spacing:0px;fill:#000000;fill-opacity:1;stroke:none"
     id="text7787-62-0">
    <path
       d="m 11.880645,338.08719 q 0,0.26172 -0.06641,0.47265 -0.06641,0.20704 -0.175782,0.36719 -0.109375,0.15625 -0.253906,0.26953 -0.144531,0.10938 -0.304687,0.17969 -0.15625,0.0703 -0.320313,0.10547 -0.160156,0.0312 -0.304687,0.0312 H 8.6228323 q -0.2109375,0 -0.4609375,-0.0742 -0.25,-0.0742 -0.4648438,-0.24219 -0.2109375,-0.17187 -0.3554687,-0.4414 -0.140625,-0.27344 -0.140625,-0.66797 v -1.375 q 0,-0.39063 0.140625,-0.66016 0.1445312,-0.27344 0.3554687,-0.4414 0.2148438,-0.17188 0.4648438,-0.2461 0.25,-0.0742 0.4609375,-0.0742 h 1.8320317 q 0.390625,0 0.664062,0.14063 0.273438,0.14062 0.441406,0.35547 0.167969,0.21093 0.242188,0.46093 0.07813,0.25 0.07813,0.46485 z M 10.86502,336.72 q 0,-0.21094 -0.105469,-0.3125 -0.105469,-0.10156 -0.304687,-0.10156 H 8.6306448 q -0.203125,0 -0.3085938,0.10547 -0.1054687,0.10156 -0.1054687,0.30078 v 1.375 q 0,0.19922 0.1054687,0.30469 0.1054688,0.10546 0.3085938,0.10546 h 1.8242192 q 0.207031,0 0.308593,-0.10546 0.101563,-0.10547 0.101563,-0.30469 z"
       style="font-size:8px;fill:#f0f0f0;fill-opacity:1"
       id="path8126" />
    <path
       d="m 17.357207,339.00125 q 0,0.10938 -0.03906,0.20313 -0.03906,0.0937 -0.109375,0.16406 -0.06641,0.0664 -0.160156,0.10547 -0.08984,0.0391 -0.195313,0.0391 h -2.296875 q -0.1875,0 -0.402344,-0.043 -0.210937,-0.043 -0.417968,-0.13672 -0.207032,-0.0976 -0.402344,-0.24219 -0.191406,-0.14843 -0.335938,-0.35546 -0.144531,-0.21094 -0.234375,-0.48438 -0.08594,-0.27344 -0.08594,-0.61719 v -2.34375 h 1.015625 v 2.34375 q 0,0.19922 0.06641,0.35938 0.07031,0.15625 0.1875,0.26953 0.117188,0.11328 0.273438,0.17578 0.160156,0.0586 0.34375,0.0586 h 1.777343 v -3.20703 h 1.015625 z"
       style="font-size:8px;fill:#f0f0f0;fill-opacity:1"
       id="path8128" />
    <path
       d="m 22.157989,336.30594 h -1.773438 v 3.20703 h -1.027344 v -3.20703 h -1.320312 v -1.01563 h 1.320312 v -1.3789 h 1.027344 v 1.3789 h 1.773438 z"
       style="font-size:8px;fill:#f0f0f0;fill-opacity:1"
       id="path8130" />
    <path
       d="m 27.474395,338.08719 q 0,0.26172 -0.06641,0.47265 -0.06641,0.20704 -0.175782,0.36719 -0.109375,0.15625 -0.253906,0.26953 -0.144531,0.10938 -0.304687,0.17969 -0.15625,0.0703 -0.316407,0.10547 -0.160156,0.0312 -0.304687,0.0312 h -1.832031 v -1.01563 h 1.832031 q 0.203125,0 0.304687,-0.10546 0.101563,-0.10547 0.101563,-0.30469 V 336.72 q 0,-0.21094 -0.105469,-0.3125 -0.101562,-0.10156 -0.300781,-0.10156 h -1.824219 q -0.207031,0 -0.3125,0.10547 -0.105469,0.10156 -0.105469,0.30078 v 4.12109 h -1.015625 v -4.12109 q 0,-0.26172 0.06641,-0.46875 0.06641,-0.20703 0.175781,-0.36328 0.113281,-0.16016 0.257812,-0.26953 0.144532,-0.11329 0.300782,-0.1836 0.160156,-0.0703 0.320312,-0.10156 0.164063,-0.0352 0.304688,-0.0352 h 1.832031 q 0.261719,0 0.46875,0.0664 0.207031,0.0664 0.363281,0.17578 0.160156,0.10938 0.269531,0.25391 0.113282,0.14453 0.183594,0.30468 0.07031,0.15625 0.101563,0.31641 0.03516,0.16016 0.03516,0.30469 z"
       style="font-size:8px;fill:#f0f0f0;fill-opacity:1"
       id="path8132" />
    <path
       d="m 32.966582,339.00125 q 0,0.10938 -0.03906,0.20313 -0.03906,0.0937 -0.109375,0.16406 -0.06641,0.0664 -0.160156,0.10547 -0.08984,0.0391 -0.195313,0.0391 h -2.296875 q -0.1875,0 -0.402344,-0.043 -0.210937,-0.043 -0.417968,-0.13672 -0.207032,-0.0976 -0.402344,-0.24219 -0.191406,-0.14843 -0.335938,-0.35546 -0.144531,-0.21094 -0.234375,-0.48438 -0.08594,-0.27344 -0.08594,-0.61719 v -2.34375 h 1.015625 v 2.34375 q 0,0.19922 0.06641,0.35938 0.07031,0.15625 0.1875,0.26953 0.117188,0.11328 0.273438,0.17578 0.160156,0.0586 0.34375,0.0586 h 1.777343 v -3.20703 h 1.015625 z"
       style="font-size:8px;fill:#f0f0f0;fill-opacity:1"
       id="path8134" />
    <path
       d="m 37.767364,336.30594 h -1.773438 v 3.20703 h -1.027344 v -3.20703 H 33.64627 v -1.01563 h 1.320312 v -1.3789 h 1.027344 v 1.3789 h 1.773438 z"
       style="font-size:8px;fill:#f0f0f0;fill-opacity:1"
       id="path8136" />
  </g>
  <g
     aria-label="Or"
     style="font-style:normal;font-variant:normal;font-weight:normal;font-stretch:normal;font-size:10.66666698px;line-height:1.25;font-family:Audiowide;-inkscape-font-specification:Audiowide;letter-spacing:0px;word-spacing:0px;fill:#000000;fill-opacity:1;stroke:none"
     id="text8386">
    <path
       d="m 23.617775,21.177027 q 0,0.682292 -0.234375,1.255209 -0.234375,0.572916 -0.651041,0.989583 -0.416667,0.416667 -0.989584,0.651042 -0.567708,0.229166 -1.239583,0.229166 h -1.833334 q -0.671875,0 -1.244791,-0.229166 -0.572917,-0.234375 -0.989584,-0.651042 -0.416666,-0.416667 -0.65625,-0.989583 -0.234375,-0.572917 -0.234375,-1.255209 v -1.427083 q 0,-0.677083 0.234375,-1.25 0.239584,-0.578125 0.65625,-0.989583 0.416667,-0.416667 0.989584,-0.651042 0.572916,-0.234375 1.244791,-0.234375 h 1.833334 q 0.671875,0 1.239583,0.234375 0.572917,0.234375 0.989584,0.651042 0.416666,0.411458 0.651041,0.989583 0.234375,0.572917 0.234375,1.25 z m -1.354166,-1.427083 q 0,-0.401042 -0.130209,-0.723958 -0.125,-0.328125 -0.359375,-0.557292 -0.229167,-0.234375 -0.557292,-0.359375 -0.322916,-0.130208 -0.713541,-0.130208 h -1.833334 q -0.395833,0 -0.723958,0.130208 -0.322917,0.125 -0.557292,0.359375 -0.234375,0.229167 -0.364583,0.557292 -0.125,0.322916 -0.125,0.723958 v 1.427083 q 0,0.401042 0.125,0.729167 0.130208,0.322917 0.364583,0.557292 0.234375,0.229166 0.557292,0.359375 0.328125,0.125 0.723958,0.125 h 1.822917 q 0.395833,0 0.71875,-0.125 0.328125,-0.130209 0.5625,-0.359375 0.234375,-0.234375 0.359375,-0.557292 0.130209,-0.328125 0.130209,-0.729167 z"
       style="fill:#f0f0f0;fill-opacity:1"
       id="path8388" />
    <path
       d="m 29.721942,19.921819 h -3.046875 q -0.276042,0 -0.416667,0.140625 -0.140625,0.135417 -0.140625,0.401042 v 3.734375 h -1.354166 v -3.734375 q 0,-0.348959 0.08854,-0.625 0.08854,-0.276042 0.234375,-0.484375 0.151042,-0.213542 0.34375,-0.359375 0.192709,-0.151042 0.401042,-0.244792 0.213542,-0.09375 0.427083,-0.135417 0.21875,-0.04687 0.40625,-0.04687 h 3.057292 z"
       style="fill:#f0f0f0;fill-opacity:1"
       id="path8390" />
  </g>
</svg>
