<?xml version="1.0" encoding="UTF-8" standalone="no"?>
<svg
   xmlns:dc="http://purl.org/dc/elements/1.1/"
   xmlns:cc="http://creativecommons.org/ns#"
   xmlns:rdf="http://www.w3.org/1999/02/22-rdf-syntax-ns#"
   xmlns:svg="http://www.w3.org/2000/svg"
   xmlns="http://www.w3.org/2000/svg"
   xmlns:sodipodi="http://sodipodi.sourceforge.net/DTD/sodipodi-0.dtd"
   xmlns:inkscape="http://www.inkscape.org/namespaces/inkscape"
   id="SvgjsSvg1006"
   width="45"
   height="380"
   version="1.1"
   sodipodi:docname="PrimeClockDivider.svg"
   inkscape:version="0.92.2 5c3e80d, 2017-08-06">
  <metadata
     id="metadata4625">
    <rdf:RDF>
      <cc:Work
         rdf:about="">
        <dc:format>image/svg+xml</dc:format>
        <dc:type
           rdf:resource="http://purl.org/dc/dcmitype/StillImage" />
        <dc:title></dc:title>
      </cc:Work>
    </rdf:RDF>
  </metadata>
  <sodipodi:namedview
     pagecolor="#ffffff"
     bordercolor="#666666"
     borderopacity="1"
     objecttolerance="10000"
     gridtolerance="10000"
     guidetolerance="10000"
     inkscape:pageopacity="0"
     inkscape:pageshadow="2"
     inkscape:window-width="738"
     inkscape:window-height="961"
     id="namedview4623"
     showgrid="false"
     inkscape:zoom="2"
     inkscape:cx="-2.9489049"
     inkscape:cy="197.30866"
     inkscape:window-x="722"
     inkscape:window-y="0"
     inkscape:window-maximized="0"
     inkscape:current-layer="SvgjsSvg1006" />
  <defs
     id="SvgjsDefs1007" />
  <path
     style="fill:#222222"
     d="M 0,0 H 45 V 380 H 0 Z"
     id="SvgjsRect1008" />
  <rect
     id="SvgjsRect1009"
     width="30"
     height="32"
     fill="#91b06f"
     x="7.5"
     y="33" />
  <rect
     id="SvgjsRect1010"
     width="35"
     height="30"
     fill="#5373cd"
     x="0"
     y="70"
     style="fill:#797979;fill-opacity:1" />
  <polygon
     id="SvgjsPolygon1011"
     points="35,70 45,85 35,100"
     fill="#5373cd"
     style="fill:#797979;fill-opacity:1" />
  <rect
     id="SvgjsRect1012"
     width="35"
     height="30"
     fill="#bd7370"
     x="0"
     y="105"
     style="fill:#797979;fill-opacity:1" />
  <polygon
     id="SvgjsPolygon1013"
     points="35,105 45,120 35,135"
     fill="#bd7370"
     style="fill:#797979;fill-opacity:1" />
  <rect
     id="SvgjsRect1014"
     width="35"
     height="30"
     fill="#4d9270"
     x="0"
     y="140"
     style="fill:#797979;fill-opacity:1" />
  <polygon
     id="SvgjsPolygon1015"
     points="35,140 45,155 35,170"
     fill="#4d9270"
     style="fill:#797979;fill-opacity:1" />
  <path
     style="fill:#797979;fill-opacity:1"
     d="m 0,175 h 35 v 30 H 0 Z"
     id="SvgjsRect1016" />
  <polygon
     id="SvgjsPolygon1017"
     points="35,175 45,190 35,205"
     fill="#bd7370"
     style="fill:#797979;fill-opacity:1" />
  <rect
     id="SvgjsRect1018"
     width="35"
     height="30"
     fill="#5373cd"
     x="0"
     y="210"
     style="fill:#797979;fill-opacity:1" />
  <polygon
     id="SvgjsPolygon1019"
     points="35,210 45,225 35,240"
     fill="#5373cd"
     style="fill:#797979;fill-opacity:1" />
  <rect
     id="SvgjsRect1020"
     width="35"
     height="30"
     fill="#4d9270"
     x="0"
     y="245"
     style="fill:#797979;fill-opacity:1" />
  <polygon
     id="SvgjsPolygon1021"
     points="35,245 45,260 35,275"
     fill="#4d9270"
     style="fill:#797979;fill-opacity:1" />
  <rect
     id="SvgjsRect1022"
     width="35"
     height="30"
     fill="#5373cd"
     x="0"
     y="280"
     style="fill:#797979;fill-opacity:1" />
  <polygon
     id="SvgjsPolygon1023"
     points="35,280 45,295 35,310"
     fill="#5373cd"
     style="fill:#797979;fill-opacity:1" />
  <rect
     id="SvgjsRect1024"
     width="35"
     height="30"
     fill="#bd7370"
     x="0"
     y="315"
     style="fill:#797979;fill-opacity:1" />
  <polygon
     id="SvgjsPolygon1025"
     points="35,315 45,330 35,345"
     fill="#bd7370"
     style="fill:#797979;fill-opacity:1" />
  <g
     aria-label="SK"
     style="font-style:normal;font-variant:normal;font-weight:normal;font-stretch:normal;font-size:21.33333397px;line-height:1.25;font-family:Audiowide;-inkscape-font-specification:Audiowide;letter-spacing:0px;word-spacing:0px;fill:#000000;fill-opacity:1;stroke:none"
     id="text4650">
    <path
       d="m 21.05061,360.80287 q 0,0.80208 -0.208333,1.44791 -0.197917,0.63542 -0.53125,1.125 -0.333333,0.48959 -0.78125,0.83334 -0.447917,0.34375 -0.927083,0.5625 -0.479167,0.21875 -0.979167,0.32291 -0.489583,0.10417 -0.927083,0.10417 H 6.2485266 v -2.70833 H 16.696444 q 0.78125,0 1.208333,-0.45834 0.4375,-0.45833 0.4375,-1.22916 0,-0.375 -0.114583,-0.6875 -0.114584,-0.3125 -0.333334,-0.54167 -0.208333,-0.22917 -0.520833,-0.35417 -0.302083,-0.125 -0.677083,-0.125 h -6.229167 q -0.6562503,0 -1.416667,-0.22916 -0.7604167,-0.23959 -1.4166667,-0.76042 -0.6458333,-0.52083 -1.0833334,-1.36458 -0.4270833,-0.84375 -0.4270833,-2.0625 0,-1.21875 0.4270833,-2.05209 0.4375001,-0.84375 1.0833334,-1.36458 0.65625,-0.53125 1.4166667,-0.76042 0.7604167,-0.23958 1.416667,-0.23958 h 9.21875 v 2.70833 h -9.21875 q -0.7708336,0 -1.2083336,0.46875 -0.4270834,0.46875 -0.4270834,1.23959 0,0.78125 0.4270834,1.23958 0.4375,0.44792 1.2083336,0.44792 h 6.229167 0.02083 q 0.4375,0.0104 0.927083,0.125 0.489584,0.10416 0.96875,0.33333 0.489584,0.22917 0.927084,0.58333 0.4375,0.34375 0.770833,0.83334 0.34375,0.48958 0.541667,1.125 0.197916,0.63541 0.197916,1.4375 z"
       style="fill:#f0f0f0;fill-opacity:1"
       id="path5271" />
    <path
       d="m 38.977694,365.1987 h -3.84375 l -6.093751,-6.10417 h -1.90625 v -2.72916 h 1.90625 l 6.093751,-6.10417 h 3.84375 l -7.677084,7.46875 z m -12.927084,0 h -2.708333 v -14.9375 h 2.708333 z"
       style="fill:#f0f0f0;fill-opacity:1"
       id="path5273" />
  </g>
  <g
     aria-label="Divider"
     style="font-style:normal;font-variant:normal;font-weight:normal;font-stretch:normal;font-size:10.66666698px;line-height:1.25;font-family:Audiowide;-inkscape-font-specification:Audiowide;letter-spacing:0px;word-spacing:0px;fill:#000000;fill-opacity:1;stroke:none"
     id="text5205">
    <path
       d="m 9.9474251,27.336536 q 0,0.682292 -0.2395833,1.255209 Q 9.4734667,29.164661 9.0568001,29.581328 8.6401334,29.992786 8.0672167,30.227161 7.4943,30.461536 6.822425,30.461536 H 3.1661749 q -0.1458333,0 -0.2708333,-0.05208 -0.1250001,-0.05208 -0.2187501,-0.140625 -0.088542,-0.09375 -0.140625,-0.21875 -0.052083,-0.125 -0.052083,-0.270833 v -6.104167 q 0,-0.140625 0.052083,-0.265625 0.052083,-0.125 0.140625,-0.21875 0.09375,-0.09375 0.2187501,-0.145833 0.125,-0.05208 0.2708333,-0.05208 H 6.822425 q 0.671875,0 1.2447917,0.234375 0.5729167,0.234375 0.9895834,0.651042 0.4166666,0.411458 0.6510417,0.989583 0.2395833,0.572917 0.2395833,1.25 z m -1.3541667,-1.21875 q 0,-0.395833 -0.1302083,-0.723958 Q 8.33805,25.065703 8.103675,24.836536 7.8693,24.602161 7.541175,24.477161 7.2182583,24.346953 6.822425,24.346953 H 3.8380499 V 29.10737 H 6.822425 q 0.3958333,0 0.71875,-0.125 0.328125,-0.130209 0.5625,-0.359375 0.234375,-0.234375 0.3593751,-0.557292 0.1302083,-0.328125 0.1302083,-0.729167 z"
       style="fill:#f0f0f0;fill-opacity:1"
       id="path5340" />
    <path
       d="M 12.509925,23.675078 H 11.155759 V 22.45112 h 1.354166 z m 0,6.786458 h -1.354166 v -5.630208 h 1.354166 z"
       style="fill:#f0f0f0;fill-opacity:1"
       id="path5342" />
    <path
       d="m 20.520342,24.831328 q -0.229166,0.713542 -0.536458,1.40625 -0.307292,0.692708 -0.708333,1.322917 -0.395834,0.625 -0.890625,1.161458 -0.489584,0.53125 -1.088542,0.921875 -0.59375,0.385417 -1.296875,0.609375 -0.697917,0.21875 -1.515625,0.21875 -0.140625,0 -0.265625,-0.05208 -0.125,-0.05208 -0.21875,-0.140625 -0.09375,-0.09375 -0.145833,-0.213542 -0.05208,-0.125 -0.05208,-0.265625 v -4.96875 h 1.354167 v 4.234375 q 0.494792,0 0.947917,-0.213542 0.458333,-0.213541 0.864583,-0.5625 0.40625,-0.354166 0.75,-0.802083 0.348958,-0.447917 0.619792,-0.916667 0.270833,-0.473958 0.458333,-0.927083 0.192708,-0.453125 0.286458,-0.8125 z"
       style="fill:#f0f0f0;fill-opacity:1"
       id="path5344" />
    <path
       d="M 22.384926,23.675078 H 21.030759 V 22.45112 h 1.354167 z m 0,6.786458 h -1.354167 v -5.630208 h 1.354167 z"
       style="fill:#f0f0f0;fill-opacity:1"
       id="path5346" />
    <path
       d="m 29.853676,28.560495 q 0,0.348958 -0.08854,0.630208 -0.08854,0.276042 -0.234375,0.489583 -0.145833,0.208334 -0.338542,0.359375 -0.192708,0.145834 -0.40625,0.239584 -0.208333,0.09375 -0.427083,0.140625 -0.213542,0.04167 -0.40625,0.04167 h -2.442708 q -0.348959,0 -0.625,-0.08854 -0.276042,-0.08854 -0.489584,-0.234375 -0.208333,-0.151042 -0.359375,-0.34375 -0.145833,-0.192709 -0.239583,-0.401042 -0.09375,-0.213542 -0.140625,-0.427083 -0.04167,-0.21875 -0.04167,-0.40625 v -1.833334 q 0,-0.520833 0.1875,-0.880208 0.192709,-0.364583 0.473959,-0.588542 0.286458,-0.229166 0.619791,-0.328125 0.333334,-0.09896 0.614584,-0.09896 h 2.442708 v 1.354167 h -2.432292 q -0.270833,0 -0.411458,0.140625 -0.140625,0.135416 -0.140625,0.401041 v 1.822917 q 0,0.276042 0.135417,0.416667 0.140625,0.140625 0.40625,0.140625 h 2.442708 q 0.276042,0 0.411458,-0.140625 0.135417,-0.140625 0.135417,-0.40625 V 22.45112 h 1.354167 z"
       style="fill:#f0f0f0;fill-opacity:1"
       id="path5348" />
    <path
       d="m 37.21305,26.695911 q 0,0.28125 -0.09896,0.609375 -0.09896,0.322917 -0.322917,0.604167 -0.21875,0.276042 -0.578125,0.463542 -0.354167,0.1875 -0.864583,0.1875 h -2.442709 v -1.286459 h 2.442709 q 0.276041,0 0.427083,-0.166666 0.151042,-0.171875 0.151042,-0.421875 0,-0.265625 -0.171875,-0.416667 -0.166667,-0.151042 -0.40625,-0.151042 h -2.442709 q -0.276041,0 -0.427083,0.171875 -0.151042,0.166667 -0.151042,0.416667 v 1.890625 q 0,0.270833 0.166667,0.421875 0.171875,0.151042 0.421875,0.151042 h 2.432292 v 1.291666 h -2.442709 q -0.28125,0 -0.609375,-0.09896 -0.322916,-0.09896 -0.604166,-0.317708 -0.276042,-0.223959 -0.463542,-0.578125 -0.1875,-0.359375 -0.1875,-0.869792 v -1.901042 q 0,-0.28125 0.09896,-0.604166 0.09896,-0.328125 0.317709,-0.604167 0.223958,-0.28125 0.578125,-0.46875 0.359375,-0.1875 0.869791,-0.1875 h 2.442709 q 0.28125,0 0.604166,0.09896 0.328125,0.09896 0.604167,0.322917 0.28125,0.21875 0.46875,0.578125 0.1875,0.354167 0.1875,0.864583 z"
       style="fill:#f0f0f0;fill-opacity:1"
       id="path5350" />
    <path
       d="m 43.06201,26.185495 h -3.046875 q -0.276042,0 -0.416667,0.140625 -0.140625,0.135416 -0.140625,0.401041 v 3.734375 h -1.354167 v -3.734375 q 0,-0.348958 0.08854,-0.625 0.08854,-0.276041 0.234375,-0.484375 0.151041,-0.213541 0.34375,-0.359375 0.192708,-0.151041 0.401042,-0.244791 0.213541,-0.09375 0.427083,-0.135417 0.21875,-0.04687 0.40625,-0.04687 h 3.057292 z"
       style="fill:#f0f0f0;fill-opacity:1"
       id="path5352" />
  </g>
  <g
     aria-label="input"
     style="font-style:normal;font-variant:normal;font-weight:normal;font-stretch:normal;font-size:10.66666698px;line-height:1.25;font-family:Audiowide;-inkscape-font-specification:Audiowide;letter-spacing:0px;word-spacing:0px;fill:#000000;fill-opacity:1;stroke:none"
     id="text5209">
    <path
       d="m 12.32415,57.820702 h -1.015625 v -0.917969 h 1.015625 z m 0,5.089843 h -1.015625 v -4.222656 h 1.015625 z"
       style="font-size:8px;fill:#f0f0f0;fill-opacity:1"
       id="path5317" />
    <path
       d="m 17.972588,62.910545 h -1.015625 v -2.34375 q 0,-0.199218 -0.07031,-0.355468 -0.06641,-0.160157 -0.183594,-0.273438 -0.117187,-0.113281 -0.277343,-0.171875 -0.15625,-0.0625 -0.339844,-0.0625 h -1.777344 v 3.207031 H 13.2929 v -3.71875 q 0,-0.105468 0.03906,-0.195312 0.03906,-0.09375 0.109375,-0.160156 0.07031,-0.07031 0.164062,-0.109375 0.09375,-0.03906 0.199219,-0.03906 h 2.289062 q 0.191407,0 0.402344,0.04297 0.214844,0.04297 0.421875,0.140625 0.210938,0.09375 0.398438,0.242187 0.191406,0.144532 0.335937,0.355469 0.148438,0.207031 0.234375,0.480469 0.08594,0.273437 0.08594,0.617187 z"
       style="font-size:8px;fill:#f0f0f0;fill-opacity:1"
       id="path5319" />
    <path
       d="m 23.527275,61.484764 q 0,0.261719 -0.06641,0.472656 -0.06641,0.207032 -0.175781,0.367188 -0.109375,0.15625 -0.253907,0.269531 -0.144531,0.109375 -0.304687,0.179688 -0.15625,0.07031 -0.316406,0.105468 -0.160157,0.03125 -0.304688,0.03125 H 20.273369 V 61.89492 H 22.1054 q 0.203125,0 0.304688,-0.105468 0.101562,-0.105469 0.101562,-0.304688 v -1.367187 q 0,-0.210938 -0.105469,-0.3125 -0.101562,-0.101563 -0.300781,-0.101563 h -1.824219 q -0.207031,0 -0.3125,0.105469 -0.105468,0.101562 -0.105468,0.300781 v 4.121094 h -1.015625 v -4.121094 q 0,-0.261719 0.06641,-0.46875 0.06641,-0.207031 0.175781,-0.363281 0.113281,-0.160156 0.257813,-0.269531 0.144531,-0.113282 0.300781,-0.183594 0.160156,-0.07031 0.320312,-0.101563 0.164063,-0.03516 0.304688,-0.03516 H 22.1054 q 0.261719,0 0.46875,0.06641 0.207031,0.06641 0.363281,0.175782 0.160157,0.109375 0.269532,0.253906 0.113281,0.144531 0.183593,0.304687 0.07031,0.15625 0.101563,0.316407 0.03516,0.160156 0.03516,0.304687 z"
       style="font-size:8px;fill:#f0f0f0;fill-opacity:1"
       id="path5321" />
    <path
       d="m 29.019463,62.398827 q 0,0.109375 -0.03906,0.203125 -0.03906,0.09375 -0.109375,0.164062 -0.06641,0.06641 -0.160156,0.105469 -0.08984,0.03906 -0.195313,0.03906 h -2.296875 q -0.1875,0 -0.402343,-0.04297 -0.210938,-0.04297 -0.417969,-0.136719 -0.207031,-0.09766 -0.402344,-0.242188 -0.191406,-0.148437 -0.335937,-0.355468 -0.144532,-0.210938 -0.234375,-0.484375 -0.08594,-0.273438 -0.08594,-0.617188 v -2.34375 H 25.3554 v 2.34375 q 0,0.199219 0.06641,0.359375 0.07031,0.15625 0.1875,0.269531 0.117188,0.113282 0.273438,0.175782 0.160156,0.05859 0.34375,0.05859 h 1.777344 v -3.207031 h 1.015625 z"
       style="font-size:8px;fill:#f0f0f0;fill-opacity:1"
       id="path5323" />
    <path
       d="m 33.820244,59.703514 h -1.773438 v 3.207031 H 31.019463 V 59.703514 H 29.69915 v -1.015625 h 1.320313 v -1.378906 h 1.027343 v 1.378906 h 1.773438 z"
       style="font-size:8px;fill:#f0f0f0;fill-opacity:1"
       id="path5325" />
  </g>
  <text
     xml:space="preserve"
     style="font-style:normal;font-variant:normal;font-weight:normal;font-stretch:normal;font-size:8px;line-height:1.25;font-family:Audiowide;-inkscape-font-specification:Audiowide;letter-spacing:0px;word-spacing:0px;fill:#000000;fill-opacity:1;stroke:none;"
     x="-15.939865"
     y="113.57655"
     id="text5217"><tspan
       sodipodi:role="line"
       id="tspan5215"
       x="-15.939865"
       y="123.19075" /></text>
  <g
     aria-label="Prime"
     style="font-style:normal;font-variant:normal;font-weight:normal;font-stretch:normal;font-size:5.33333349px;line-height:1.25;font-family:Audiowide;-inkscape-font-specification:Audiowide;letter-spacing:0px;word-spacing:0px;fill:#f0f0f0;fill-opacity:1;stroke:none"
     id="text1405">
    <path
       d="m 14.229167,15.65625 q 0,0.463542 -0.114583,0.828125 -0.114584,0.364583 -0.3125,0.645833 -0.192709,0.276042 -0.447917,0.473959 -0.255208,0.197916 -0.536458,0.322916 -0.276042,0.125 -0.5625,0.182292 -0.28125,0.05729 -0.53125,0.05729 H 8.6614584 V 16.8125 h 3.0625006 q 0.260416,-0.02083 0.46875,-0.104167 0.213541,-0.08854 0.364583,-0.234375 Q 12.708334,16.328125 12.791667,16.125 12.875,15.916667 12.875,15.65625 v -0.614583 q -0.02604,-0.255209 -0.109375,-0.46875 -0.08333,-0.213542 -0.229166,-0.364584 -0.140625,-0.151042 -0.34375,-0.234375 -0.203125,-0.08854 -0.46875,-0.08854 H 8.6718751 q -0.2708334,0 -0.4114584,0.140625 -0.140625,0.140625 -0.140625,0.406251 V 20 H 6.765625 v -5.567708 q 0,-0.520834 0.1875,-0.885417 0.1927084,-0.364584 0.4739584,-0.588542 0.2864583,-0.223958 0.6197917,-0.322917 0.3333333,-0.104166 0.6145833,-0.104166 h 3.0625006 q 0.458333,0 0.822916,0.119791 0.364584,0.114584 0.640625,0.3125 0.28125,0.192709 0.473959,0.447917 0.197916,0.255208 0.322916,0.536458 0.130209,0.276042 0.1875,0.562501 0.05729,0.28125 0.05729,0.53125 z"
       style="font-size:10.66666698px;fill:#f0f0f0;fill-opacity:1"
       id="path1950" />
    <path
       d="m 20.145834,15.723958 h -3.046875 q -0.276042,0 -0.416667,0.140625 Q 16.541667,16 16.541667,16.265625 V 20 h -1.354166 v -3.734375 q 0,-0.348958 0.08854,-0.625 0.08854,-0.276042 0.234375,-0.484375 0.151042,-0.213542 0.34375,-0.359375 0.192709,-0.151042 0.401042,-0.244792 0.213542,-0.09375 0.427083,-0.135416 0.21875,-0.04688 0.40625,-0.04688 h 3.057292 z"
       style="font-size:10.66666698px;fill:#f0f0f0;fill-opacity:1"
       id="path1952" />
    <path
       d="m 22.406251,13.213541 h -1.354167 v -1.223958 h 1.354167 z m 0,6.786459 h -1.354167 v -5.630209 h 1.354167 z"
       style="font-size:10.66666698px;fill:#f0f0f0;fill-opacity:1"
       id="path1954" />
    <path
       d="M 28.723959,20 H 27.369792 V 16.265625 Q 27.369792,16 27.229167,15.864583 27.088542,15.723958 26.8125,15.723958 H 25.052083 V 20 h -1.354166 v -4.958333 q 0,-0.140625 0.05208,-0.260417 0.05208,-0.125 0.145833,-0.213542 0.09375,-0.09375 0.21875,-0.145833 0.125,-0.05208 0.265625,-0.05208 h 2.442709 q 0.28125,0 0.604166,0.09896 0.322917,0.09896 0.614584,0.317708 V 14.369791 H 29.875 q 0.192709,0 0.40625,0.04688 0.213542,0.04167 0.421875,0.135416 0.213542,0.09375 0.40625,0.244792 0.192709,0.145833 0.338542,0.359375 0.145833,0.208333 0.234375,0.484375 0.08854,0.276042 0.08854,0.625 V 20 H 30.416667 V 16.265625 Q 30.416667,16 30.28125,15.864583 30.151042,15.723958 29.875,15.723958 h -1.21875 q 0.06771,0.25 0.06771,0.541667 z"
       style="font-size:10.66666698px;fill:#f0f0f0;fill-opacity:1"
       id="path1956" />
    <path
       d="m 39.067709,16.234375 q 0,0.28125 -0.09896,0.609375 -0.09896,0.322917 -0.322916,0.604167 -0.21875,0.276041 -0.578125,0.463541 -0.354167,0.1875 -0.864584,0.1875 H 34.760417 V 16.8125 h 2.442708 q 0.276042,0 0.427083,-0.166667 0.151042,-0.171875 0.151042,-0.421875 0,-0.265625 -0.171875,-0.416666 -0.166667,-0.151042 -0.40625,-0.151042 h -2.442708 q -0.276042,0 -0.427084,0.171875 -0.151041,0.166667 -0.151041,0.416667 v 1.890625 q 0,0.270833 0.166666,0.421875 0.171875,0.151041 0.421875,0.151041 h 2.432292 V 20 h -2.442708 q -0.28125,0 -0.609375,-0.09896 -0.322917,-0.09896 -0.604167,-0.317709 -0.276042,-0.223958 -0.463542,-0.578125 -0.1875,-0.359375 -0.1875,-0.869791 v -1.901042 q 0,-0.28125 0.09896,-0.604167 0.09896,-0.328125 0.317708,-0.604166 0.223958,-0.28125 0.578125,-0.46875 0.359375,-0.187501 0.869792,-0.187501 h 2.442708 q 0.28125,0 0.604167,0.09896 0.328125,0.09896 0.604167,0.322917 0.28125,0.21875 0.46875,0.578125 0.1875,0.354166 0.1875,0.864583 z"
       style="font-size:10.66666698px;fill:#f0f0f0;fill-opacity:1"
       id="path1958" />
  </g>
</svg>
