<?xml version="1.0" encoding="UTF-8" standalone="no"?>
<svg
   xmlns:dc="http://purl.org/dc/elements/1.1/"
   xmlns:cc="http://creativecommons.org/ns#"
   xmlns:rdf="http://www.w3.org/1999/02/22-rdf-syntax-ns#"
   xmlns:svg="http://www.w3.org/2000/svg"
   xmlns="http://www.w3.org/2000/svg"
   xmlns:sodipodi="http://sodipodi.sourceforge.net/DTD/sodipodi-0.dtd"
   xmlns:inkscape="http://www.inkscape.org/namespaces/inkscape"
   id="SvgjsSvg1006"
   width="60"
   height="380"
   version="1.1"
   sodipodi:docname="RotatingClockDivider.svg"
   inkscape:version="0.92.2 5c3e80d, 2017-08-06">
  <metadata
     id="metadata4625">
    <rdf:RDF>
      <cc:Work
         rdf:about="">
        <dc:format>image/svg+xml</dc:format>
        <dc:type
           rdf:resource="http://purl.org/dc/dcmitype/StillImage" />
        <dc:title />
      </cc:Work>
    </rdf:RDF>
  </metadata>
  <sodipodi:namedview
     pagecolor="#ffffff"
     bordercolor="#666666"
     borderopacity="1"
     objecttolerance="10000"
     gridtolerance="10000"
     guidetolerance="10000"
     inkscape:pageopacity="0"
     inkscape:pageshadow="2"
     inkscape:window-width="738"
     inkscape:window-height="961"
     id="namedview4623"
     showgrid="false"
     inkscape:zoom="4"
     inkscape:cx="34.671875"
     inkscape:cy="97.30866"
     inkscape:window-x="722"
     inkscape:window-y="0"
     inkscape:window-maximized="0"
     inkscape:current-layer="SvgjsSvg1006" />
  <defs
     id="SvgjsDefs1007" />
  <path
     style="fill:#222222"
     d="M 0,0 H 60 V 380 H 0 Z"
     id="SvgjsRect1008" />
  <rect
     id="SvgjsRect1009"
     width="50"
     height="32"
     x="5"
     y="33"
     style="fill:#91b06f;stroke-width:1.18673217" />
  <rect
     id="SvgjsRect1010"
     width="50"
     height="30"
     fill="#5373cd"
     x="0"
     y="70" />
  <polygon
     id="SvgjsPolygon1011"
     points="50,70 60,85 50,100"
     fill="#5373cd" />
  <rect
     id="SvgjsRect1012"
     width="50"
     height="30"
     fill="#bd7370"
     x="0"
     y="105" />
  <polygon
     id="SvgjsPolygon1013"
     points="50,105 60,120 50,135"
     fill="#bd7370" />
  <rect
     id="SvgjsRect1014"
     width="50"
     height="30"
     fill="#4d9270"
     x="0"
     y="140" />
  <polygon
     id="SvgjsPolygon1015"
     points="50,140 60,155 50,170"
     fill="#4d9270" />
  <path
     style="fill:#bd7370"
     d="m 0,175 h 50 v 30 H 0 Z"
     id="SvgjsRect1016" />
  <polygon
     id="SvgjsPolygon1017"
     points="50,175 60,190 50,205"
     fill="#bd7370" />
  <rect
     id="SvgjsRect1018"
     width="50"
     height="30"
     fill="#5373cd"
     x="0"
     y="210" />
  <polygon
     id="SvgjsPolygon1019"
     points="50,210 60,225 50,240"
     fill="#5373cd" />
  <rect
     id="SvgjsRect1020"
     width="50"
     height="30"
     fill="#4d9270"
     x="0"
     y="245" />
  <polygon
     id="SvgjsPolygon1021"
     points="50,245 60,260 50,275"
     fill="#4d9270" />
  <rect
     id="SvgjsRect1022"
     width="50"
     height="30"
     fill="#5373cd"
     x="0"
     y="280" />
  <polygon
     id="SvgjsPolygon1023"
     points="50,280 60,295 50,310"
     fill="#5373cd" />
  <rect
     id="SvgjsRect1024"
     width="50"
     height="30"
     fill="#bd7370"
     x="0"
     y="315" />
  <polygon
     id="SvgjsPolygon1025"
     points="50,315 60,330 50,345"
     fill="#bd7370" />
  <g
     aria-label="SK"
     style="font-style:normal;font-variant:normal;font-weight:normal;font-stretch:normal;font-size:21.33333397px;line-height:1.25;font-family:Audiowide;-inkscape-font-specification:Audiowide;letter-spacing:0px;word-spacing:0px;fill:#000000;fill-opacity:1;stroke:none"
     id="text4650"
     transform="translate(7.25)">
    <path
       d="m 21.05061,360.80287 q 0,0.80208 -0.208333,1.44791 -0.197917,0.63542 -0.53125,1.125 -0.333333,0.48959 -0.78125,0.83334 -0.447917,0.34375 -0.927083,0.5625 -0.479167,0.21875 -0.979167,0.32291 -0.489583,0.10417 -0.927083,0.10417 H 6.2485266 v -2.70833 H 16.696444 q 0.78125,0 1.208333,-0.45834 0.4375,-0.45833 0.4375,-1.22916 0,-0.375 -0.114583,-0.6875 -0.114584,-0.3125 -0.333334,-0.54167 -0.208333,-0.22917 -0.520833,-0.35417 -0.302083,-0.125 -0.677083,-0.125 h -6.229167 q -0.6562503,0 -1.416667,-0.22916 -0.7604167,-0.23959 -1.4166667,-0.76042 -0.6458333,-0.52083 -1.0833334,-1.36458 -0.4270833,-0.84375 -0.4270833,-2.0625 0,-1.21875 0.4270833,-2.05209 0.4375001,-0.84375 1.0833334,-1.36458 0.65625,-0.53125 1.4166667,-0.76042 0.7604167,-0.23958 1.416667,-0.23958 h 9.21875 v 2.70833 h -9.21875 q -0.7708336,0 -1.2083336,0.46875 -0.4270834,0.46875 -0.4270834,1.23959 0,0.78125 0.4270834,1.23958 0.4375,0.44792 1.2083336,0.44792 h 6.229167 0.02083 q 0.4375,0.0104 0.927083,0.125 0.489584,0.10416 0.96875,0.33333 0.489584,0.22917 0.927084,0.58333 0.4375,0.34375 0.770833,0.83334 0.34375,0.48958 0.541667,1.125 0.197916,0.63541 0.197916,1.4375 z"
       style="fill:#f0f0f0;fill-opacity:1"
       id="path5271"
       inkscape:connector-curvature="0" />
    <path
       d="m 38.977694,365.1987 h -3.84375 l -6.093751,-6.10417 h -1.90625 v -2.72916 h 1.90625 l 6.093751,-6.10417 h 3.84375 l -7.677084,7.46875 z m -12.927084,0 h -2.708333 v -14.9375 h 2.708333 z"
       style="fill:#f0f0f0;fill-opacity:1"
       id="path5273"
       inkscape:connector-curvature="0" />
  </g>
  <g
     aria-label="Divider"
     style="font-style:normal;font-variant:normal;font-weight:normal;font-stretch:normal;font-size:10.66666698px;line-height:1.25;font-family:Audiowide;-inkscape-font-specification:Audiowide;letter-spacing:0px;word-spacing:0px;fill:#000000;fill-opacity:1;stroke:none"
     id="text5205"
     transform="translate(6.75)">
    <path
       d="m 9.9474251,27.336536 q 0,0.682292 -0.2395833,1.255209 Q 9.4734667,29.164661 9.0568001,29.581328 8.6401334,29.992786 8.0672167,30.227161 7.4943,30.461536 6.822425,30.461536 H 3.1661749 q -0.1458333,0 -0.2708333,-0.05208 -0.1250001,-0.05208 -0.2187501,-0.140625 -0.088542,-0.09375 -0.140625,-0.21875 -0.052083,-0.125 -0.052083,-0.270833 v -6.104167 q 0,-0.140625 0.052083,-0.265625 0.052083,-0.125 0.140625,-0.21875 0.09375,-0.09375 0.2187501,-0.145833 0.125,-0.05208 0.2708333,-0.05208 H 6.822425 q 0.671875,0 1.2447917,0.234375 0.5729167,0.234375 0.9895834,0.651042 0.4166666,0.411458 0.6510417,0.989583 0.2395833,0.572917 0.2395833,1.25 z m -1.3541667,-1.21875 q 0,-0.395833 -0.1302083,-0.723958 Q 8.33805,25.065703 8.103675,24.836536 7.8693,24.602161 7.541175,24.477161 7.2182583,24.346953 6.822425,24.346953 H 3.8380499 V 29.10737 H 6.822425 q 0.3958333,0 0.71875,-0.125 0.328125,-0.130209 0.5625,-0.359375 0.234375,-0.234375 0.3593751,-0.557292 0.1302083,-0.328125 0.1302083,-0.729167 z"
       style="fill:#f0f0f0;fill-opacity:1"
       id="path5340"
       inkscape:connector-curvature="0" />
    <path
       d="M 12.509925,23.675078 H 11.155759 V 22.45112 h 1.354166 z m 0,6.786458 h -1.354166 v -5.630208 h 1.354166 z"
       style="fill:#f0f0f0;fill-opacity:1"
       id="path5342"
       inkscape:connector-curvature="0" />
    <path
       d="m 20.520342,24.831328 q -0.229166,0.713542 -0.536458,1.40625 -0.307292,0.692708 -0.708333,1.322917 -0.395834,0.625 -0.890625,1.161458 -0.489584,0.53125 -1.088542,0.921875 -0.59375,0.385417 -1.296875,0.609375 -0.697917,0.21875 -1.515625,0.21875 -0.140625,0 -0.265625,-0.05208 -0.125,-0.05208 -0.21875,-0.140625 -0.09375,-0.09375 -0.145833,-0.213542 -0.05208,-0.125 -0.05208,-0.265625 v -4.96875 h 1.354167 v 4.234375 q 0.494792,0 0.947917,-0.213542 0.458333,-0.213541 0.864583,-0.5625 0.40625,-0.354166 0.75,-0.802083 0.348958,-0.447917 0.619792,-0.916667 0.270833,-0.473958 0.458333,-0.927083 0.192708,-0.453125 0.286458,-0.8125 z"
       style="fill:#f0f0f0;fill-opacity:1"
       id="path5344"
       inkscape:connector-curvature="0" />
    <path
       d="M 22.384926,23.675078 H 21.030759 V 22.45112 h 1.354167 z m 0,6.786458 h -1.354167 v -5.630208 h 1.354167 z"
       style="fill:#f0f0f0;fill-opacity:1"
       id="path5346"
       inkscape:connector-curvature="0" />
    <path
       d="m 29.853676,28.560495 q 0,0.348958 -0.08854,0.630208 -0.08854,0.276042 -0.234375,0.489583 -0.145833,0.208334 -0.338542,0.359375 -0.192708,0.145834 -0.40625,0.239584 -0.208333,0.09375 -0.427083,0.140625 -0.213542,0.04167 -0.40625,0.04167 h -2.442708 q -0.348959,0 -0.625,-0.08854 -0.276042,-0.08854 -0.489584,-0.234375 -0.208333,-0.151042 -0.359375,-0.34375 -0.145833,-0.192709 -0.239583,-0.401042 -0.09375,-0.213542 -0.140625,-0.427083 -0.04167,-0.21875 -0.04167,-0.40625 v -1.833334 q 0,-0.520833 0.1875,-0.880208 0.192709,-0.364583 0.473959,-0.588542 0.286458,-0.229166 0.619791,-0.328125 0.333334,-0.09896 0.614584,-0.09896 h 2.442708 v 1.354167 h -2.432292 q -0.270833,0 -0.411458,0.140625 -0.140625,0.135416 -0.140625,0.401041 v 1.822917 q 0,0.276042 0.135417,0.416667 0.140625,0.140625 0.40625,0.140625 h 2.442708 q 0.276042,0 0.411458,-0.140625 0.135417,-0.140625 0.135417,-0.40625 V 22.45112 h 1.354167 z"
       style="fill:#f0f0f0;fill-opacity:1"
       id="path5348"
       inkscape:connector-curvature="0" />
    <path
       d="m 37.21305,26.695911 q 0,0.28125 -0.09896,0.609375 -0.09896,0.322917 -0.322917,0.604167 -0.21875,0.276042 -0.578125,0.463542 -0.354167,0.1875 -0.864583,0.1875 h -2.442709 v -1.286459 h 2.442709 q 0.276041,0 0.427083,-0.166666 0.151042,-0.171875 0.151042,-0.421875 0,-0.265625 -0.171875,-0.416667 -0.166667,-0.151042 -0.40625,-0.151042 h -2.442709 q -0.276041,0 -0.427083,0.171875 -0.151042,0.166667 -0.151042,0.416667 v 1.890625 q 0,0.270833 0.166667,0.421875 0.171875,0.151042 0.421875,0.151042 h 2.432292 v 1.291666 h -2.442709 q -0.28125,0 -0.609375,-0.09896 -0.322916,-0.09896 -0.604166,-0.317708 -0.276042,-0.223959 -0.463542,-0.578125 -0.1875,-0.359375 -0.1875,-0.869792 v -1.901042 q 0,-0.28125 0.09896,-0.604166 0.09896,-0.328125 0.317709,-0.604167 0.223958,-0.28125 0.578125,-0.46875 0.359375,-0.1875 0.869791,-0.1875 h 2.442709 q 0.28125,0 0.604166,0.09896 0.328125,0.09896 0.604167,0.322917 0.28125,0.21875 0.46875,0.578125 0.1875,0.354167 0.1875,0.864583 z"
       style="fill:#f0f0f0;fill-opacity:1"
       id="path5350"
       inkscape:connector-curvature="0" />
    <path
       d="m 43.06201,26.185495 h -3.046875 q -0.276042,0 -0.416667,0.140625 -0.140625,0.135416 -0.140625,0.401041 v 3.734375 h -1.354167 v -3.734375 q 0,-0.348958 0.08854,-0.625 0.08854,-0.276041 0.234375,-0.484375 0.151041,-0.213541 0.34375,-0.359375 0.192708,-0.151041 0.401042,-0.244791 0.213541,-0.09375 0.427083,-0.135417 0.21875,-0.04687 0.40625,-0.04687 h 3.057292 z"
       style="fill:#f0f0f0;fill-opacity:1"
       id="path5352"
       inkscape:connector-curvature="0" />
  </g>
  <text
     xml:space="preserve"
     style="font-style:normal;font-variant:normal;font-weight:normal;font-stretch:normal;font-size:8px;line-height:1.25;font-family:Audiowide;-inkscape-font-specification:Audiowide;letter-spacing:0px;word-spacing:0px;fill:#000000;fill-opacity:1;stroke:none;"
     x="-15.939865"
     y="113.57655"
     id="text5217"><tspan
       sodipodi:role="line"
       id="tspan5215"
       x="-15.939865"
       y="123.19075" /></text>
  <g
     aria-label="/8"
     style="font-style:normal;font-variant:normal;font-weight:normal;font-stretch:normal;font-size:8px;line-height:1.25;font-family:Audiowide;-inkscape-font-specification:Audiowide;letter-spacing:0px;word-spacing:0px;fill:#f0f0f0;fill-opacity:1;stroke:none"
     id="text5241">
    <path
       d="M 4.5605847,326.89844 1.0254284,332.5 h -1.08984371 l 3.53906251,-5.60156 z"
       style="fill:#f0f0f0;fill-opacity:1"
       id="path5276" />
    <path
       d="m 10.271522,331.07422 q 0,0.14453 -0.03516,0.30469 -0.03125,0.16015 -0.105469,0.32031 -0.07031,0.15625 -0.1835936,0.30078 -0.1132812,0.14453 -0.2734375,0.25781 -0.15625,0.10938 -0.3632812,0.17578 Q 9.1035534,332.5 8.8457409,332.5 h -2.296875 q -0.2109375,0 -0.4609375,-0.0742 -0.25,-0.0742 -0.4648437,-0.24219 -0.2109375,-0.17187 -0.3554688,-0.4414 -0.140625,-0.27344 -0.140625,-0.66797 v -0.45313 q 0,-0.14843 0.03125,-0.3125 0.035156,-0.16406 0.1054688,-0.32422 0.074219,-0.16015 0.1875,-0.30468 0.1132812,-0.14453 0.2734375,-0.25 -0.070312,-0.16407 -0.1054688,-0.33203 -0.035156,-0.16797 -0.035156,-0.31641 v -0.45703 q 0,-0.39063 0.140625,-0.66406 0.1445312,-0.27344 0.3554687,-0.44141 0.2148438,-0.16797 0.4648438,-0.24219 0.25,-0.0781 0.4609375,-0.0781 h 1.375 q 0.2617187,0 0.46875,0.0664 0.2109375,0.0664 0.3671875,0.17969 0.1601562,0.10938 0.2695312,0.25391 0.1132813,0.14453 0.1835938,0.30468 0.070312,0.15625 0.1015625,0.32032 0.035156,0.16015 0.035156,0.30078 v 0.45703 q 0,0.38281 -0.1367187,0.66406 0.125,0.082 0.234375,0.19531 0.1093753,0.10938 0.1914063,0.25391 0.08203,0.14453 0.128906,0.32813 0.04687,0.17968 0.04687,0.39843 z m -1.4804686,-2.74219 q 0,-0.20703 -0.1054687,-0.3125 -0.1054688,-0.10547 -0.3046875,-0.10547 H 7.0137097 q -0.2070313,0 -0.3085938,0.10547 -0.097656,0.10547 -0.097656,0.30469 v 0.45703 q 0,0.20312 0.1015625,0.30469 0.1054687,0.10156 0.296875,0.10156 h 1.375 q 0.2070312,0 0.3085937,-0.10156 0.1015625,-0.10547 0.1015625,-0.30469 z m 0.453125,2.28906 q 0,-0.19531 -0.109375,-0.30078 -0.1054687,-0.10937 -0.2890625,-0.10937 h -2.296875 q -0.1875,0 -0.296875,0.11718 -0.109375,0.11719 -0.109375,0.29297 v 0.45313 q 0,0.1875 0.1132813,0.30078 0.1171875,0.10937 0.2929687,0.10937 h 2.296875 q 0.1953125,0 0.296875,-0.11718 0.1015625,-0.11719 0.1015625,-0.29297 z"
       style="fill:#f0f0f0;fill-opacity:1"
       id="path5278" />
  </g>
  <g
     aria-label="/7"
     style="font-style:normal;font-variant:normal;font-weight:normal;font-stretch:normal;font-size:8px;line-height:1.25;font-family:Audiowide;-inkscape-font-specification:Audiowide;letter-spacing:0px;word-spacing:0px;fill:#000000;fill-opacity:1;stroke:none"
     id="text5245">
    <path
       d="M 4.5454196,292.14844 1.0102633,297.75 h -1.08984373 l 3.53906253,-5.60156 z"
       style="fill:#f0f0f0;fill-opacity:1"
       id="path5281" />
    <path
       d="m 9.7485446,292.40625 q 0.066406,0.12109 0.066406,0.25781 0,0.13281 -0.066406,0.25391 L 6.9321383,297.75 H 5.7563571 l 2.6640625,-4.58594 H 5.1313571 v -1.01562 h 4.1757812 q 0.1367188,0 0.2539063,0.0703 0.1210937,0.0664 0.1875,0.1875 z"
       style="fill:#f0f0f0;fill-opacity:1"
       id="path5283" />
  </g>
  <g
     aria-label="/6"
     style="font-style:normal;font-variant:normal;font-weight:normal;font-stretch:normal;font-size:8px;line-height:1.25;font-family:Audiowide;-inkscape-font-specification:Audiowide;letter-spacing:0px;word-spacing:0px;fill:#000000;fill-opacity:1;stroke:none"
     id="text5249">
    <path
       d="m 4.6034779,255.96341 -3.5351563,5.60156 h -1.08984373 l 3.53906253,-5.60156 z"
       style="fill:#f0f0f0;fill-opacity:1"
       id="path5286" />
    <path
       d="m 6.3105091,258.25247 h 2.703125 q 0.2148438,0 0.4609375,0.0781 0.25,0.0742 0.4648438,0.24609 0.2148436,0.16797 0.3554686,0.44141 0.144531,0.27343 0.144531,0.66797 v 0.45312 q 0,0.14453 -0.03516,0.30469 -0.03125,0.16015 -0.105469,0.32031 -0.07031,0.15625 -0.183593,0.30078 -0.109375,0.14453 -0.2695316,0.25781 -0.15625,0.10938 -0.3632813,0.17579 -0.2070312,0.0664 -0.46875,0.0664 H 7.1737904 q -0.1875,0 -0.4023438,-0.043 -0.2109375,-0.043 -0.4179687,-0.13672 -0.2070313,-0.0977 -0.4023438,-0.24218 -0.1914062,-0.14844 -0.3359375,-0.35547 -0.1445312,-0.21094 -0.234375,-0.48438 -0.085937,-0.27343 -0.085937,-0.61718 v -1.83985 q 0,-0.34375 0.085937,-0.61719 0.089844,-0.27343 0.234375,-0.48046 0.1445313,-0.21094 0.3359375,-0.35938 0.1953125,-0.14844 0.4023438,-0.24219 0.2070312,-0.0976 0.4179687,-0.14062 0.2148438,-0.043 0.4023438,-0.043 h 2.546875 v 1.01562 h -2.546875 q -0.1953125,0.0156 -0.3554688,0.082 -0.15625,0.0664 -0.2695312,0.17578 -0.1132813,0.10937 -0.1757813,0.26562 -0.0625,0.15235 -0.0625,0.34375 z m 0,1.02344 v 0.41016 q 0,0.19921 0.066406,0.35937 0.070312,0.15625 0.1875,0.26953 0.1171875,0.11328 0.2734375,0.17578 0.1601562,0.0586 0.34375,0.0586 h 1.8320312 q 0.1953125,0 0.296875,-0.11719 0.1054688,-0.11719 0.1054688,-0.29297 v -0.45312 q 0,-0.19922 -0.1015625,-0.30469 -0.1015625,-0.10547 -0.3085938,-0.10547 z"
       style="fill:#f0f0f0;fill-opacity:1"
       id="path5288" />
  </g>
  <g
     aria-label="/5"
     style="font-style:normal;font-variant:normal;font-weight:normal;font-stretch:normal;font-size:8px;line-height:1.25;font-family:Audiowide;-inkscape-font-specification:Audiowide;letter-spacing:0px;word-spacing:0px;fill:#000000;fill-opacity:1;stroke:none"
     id="text5253">
    <path
       d="m 4.6034779,221.67052 -3.5351563,5.60156 h -1.0898437 l 3.5390625,-5.60156 z"
       style="fill:#f0f0f0;fill-opacity:1"
       id="path5291" />
    <path
       d="m 10.572228,225.8463 q 0,0.14453 -0.03516,0.30469 -0.03125,0.16015 -0.105469,0.32031 -0.07031,0.15625 -0.183594,0.30078 -0.109375,0.14453 -0.2695311,0.25781 -0.15625,0.10938 -0.3632813,0.17578 -0.2070312,0.0664 -0.4648437,0.0664 H 5.4276966 v -1.01563 h 3.7226563 q 0.1914062,0 0.2929687,-0.11718 0.1054688,-0.11719 0.1054688,-0.29297 v -0.45313 q 0,-0.19922 -0.1015625,-0.30468 -0.1015625,-0.10547 -0.3046875,-0.10547 H 6.8534779 q -0.3945313,0 -0.6679688,-0.14063 -0.2695312,-0.14453 -0.4375,-0.35937 -0.1679687,-0.21485 -0.2460937,-0.46485 -0.074219,-0.25 -0.074219,-0.46484 v -1.88281 h 4.6796874 v 1.01562 H 6.4433216 v 0.86719 q 0,0.20312 0.1054688,0.30469 0.1054687,0.10156 0.3046875,0.10156 h 2.296875 q 0.2109375,0 0.4609375,0.0781 0.25,0.0742 0.4609376,0.2461 0.214844,0.16797 0.355469,0.4414 0.144531,0.27344 0.144531,0.66797 z"
       style="fill:#f0f0f0;fill-opacity:1"
       id="path5293" />
  </g>
  <g
     aria-label="/4"
     style="font-style:normal;font-variant:normal;font-weight:normal;font-stretch:normal;font-size:8px;line-height:1.25;font-family:Audiowide;-inkscape-font-specification:Audiowide;letter-spacing:0px;word-spacing:0px;fill:#000000;fill-opacity:1;stroke:none"
     id="text5257">
    <path
       d="M 4.5668662,186.22229 1.03171,191.82385 h -1.08984378 l 3.53906248,-5.60156 z"
       style="fill:#f0f0f0;fill-opacity:1"
       id="path5296" />
    <path
       d="M 10.457491,191.82385 H 9.4340537 v -2.28906 h -3.609375 q -0.109375,0 -0.203125,-0.0391 -0.09375,-0.043 -0.1640625,-0.10938 -0.066406,-0.0703 -0.1054687,-0.16406 -0.039063,-0.0937 -0.039063,-0.19922 v -2.80078 h 1.015625 v 2.28906 h 3.1054687 v -2.28906 h 1.0234373 z"
       style="fill:#f0f0f0;fill-opacity:1"
       id="path5298" />
  </g>
  <g
     aria-label="/3"
     style="font-style:normal;font-variant:normal;font-weight:normal;font-stretch:normal;font-size:8px;line-height:1.25;font-family:Audiowide;-inkscape-font-specification:Audiowide;letter-spacing:0px;word-spacing:0px;fill:#000000;fill-opacity:1;stroke:none"
     id="text5261">
    <path
       d="M 4.633808,151.27344 1.0986517,156.875 H 0.00880796 l 3.53906254,-5.60156 z"
       style="fill:#f0f0f0;fill-opacity:1"
       id="path5302" />
    <path
       d="m 10.165058,155.44922 q 0,0.39453 -0.144531,0.66797 -0.1406253,0.26953 -0.355469,0.4414 -0.2109375,0.16797 -0.4609375,0.24219 -0.25,0.0742 -0.4648438,0.0742 H 5.4814642 v -1.01563 h 3.2578125 q 0.2070313,0 0.3046875,-0.10546 0.1015625,-0.10547 0.1015625,-0.30469 v -0.86328 H 5.4814642 v -1.02344 h 3.6640625 v -0.85547 q 0,-0.41797 -0.40625,-0.41797 H 5.4814642 v -1.01562 h 3.2578125 q 0.2617188,0 0.46875,0.0664 0.2070313,0.0664 0.3632813,0.17969 0.1601562,0.10938 0.2734375,0.25391 0.1132812,0.14453 0.1835935,0.30468 0.07031,0.15625 0.101563,0.32032 0.03516,0.16015 0.03516,0.30078 z"
       style="fill:#f0f0f0;fill-opacity:1"
       id="path5304" />
  </g>
  <g
     aria-label="/2"
     style="font-style:normal;font-variant:normal;font-weight:normal;font-stretch:normal;font-size:8px;line-height:1.25;font-family:Audiowide;-inkscape-font-specification:Audiowide;letter-spacing:0px;word-spacing:0px;fill:#000000;fill-opacity:1;stroke:none"
     id="text5265">
    <path
       d="M 4.508808,116.14844 0.97365171,121.75 h -1.08984375 l 3.53906254,-5.60156 z"
       style="fill:#f0f0f0;fill-opacity:1"
       id="path5307" />
    <path
       d="M 10.313495,121.75 H 5.1689642 v -1.87891 q 0,-0.14453 0.03125,-0.30468 0.035156,-0.16407 0.1054688,-0.32422 0.070312,-0.16016 0.1796875,-0.30469 0.1132812,-0.14453 0.2695312,-0.25391 0.1601563,-0.11328 0.3671875,-0.17968 0.2070313,-0.0664 0.46875,-0.0664 h 2.2890625 q 0.2070313,0 0.3046875,-0.10156 0.1015625,-0.10547 0.1015625,-0.30469 v -0.44922 q 0,-0.20703 -0.1015625,-0.3125 -0.1015625,-0.10547 -0.296875,-0.10547 H 5.6259955 v -1.01562 h 3.2617187 q 0.2578125,0 0.4648438,0.0664 0.2070312,0.0664 0.3632812,0.17969 0.1601563,0.10938 0.2734375,0.25391 0.1132813,0.14453 0.1835933,0.30469 0.07422,0.15625 0.105469,0.32031 0.03516,0.16015 0.03516,0.30078 v 0.45703 q 0,0.39453 -0.144531,0.66797 -0.140625,0.26953 -0.3554685,0.44141 -0.2148438,0.16796 -0.4648438,0.24609 -0.2460937,0.0742 -0.4609375,0.0742 h -2.296875 q -0.125,0 -0.1992187,0.0352 -0.074219,0.0352 -0.1171875,0.0937 -0.039063,0.0586 -0.058594,0.13282 -0.019531,0.0742 -0.03125,0.14843 v 0.86329 h 4.1289058 z"
       style="fill:#f0f0f0;fill-opacity:1"
       id="path5309" />
  </g>
  <g
     aria-label="/1"
     style="font-style:normal;font-variant:normal;font-weight:normal;font-stretch:normal;font-size:8px;line-height:1.25;font-family:Audiowide;-inkscape-font-specification:Audiowide;letter-spacing:0px;word-spacing:0px;fill:#000000;fill-opacity:1;stroke:none"
     id="text5269">
    <path
       d="M 4.633808,81.648437 1.0986517,87.25 H 0.00880796 L 3.5478705,81.648437 Z"
       style="fill:#f0f0f0;fill-opacity:1"
       id="path5312" />
    <path
       d="M 7.1728705,87.25 H 6.1533392 V 82.664062 H 5.2353705 v -1.015625 h 1.9375 z"
       style="fill:#f0f0f0;fill-opacity:1"
       id="path5314" />
  </g>
  <g
     aria-label="rotate"
     style="font-style:normal;font-variant:normal;font-weight:normal;font-stretch:normal;font-size:5.33333349px;line-height:1.25;font-family:Audiowide;-inkscape-font-specification:Audiowide;letter-spacing:0px;word-spacing:0px;fill:#f0f0f0;fill-opacity:1;stroke:none"
     id="text10188"
     transform="translate(6)">
    <path
       d="M 5.5897752,60.764712 H 4.0663376 q -0.1380208,0 -0.2083333,0.07031 -0.070312,0.06771 -0.070312,0.200521 v 1.867188 H 3.1106084 v -1.867188 q 0,-0.174479 0.044271,-0.3125 0.044271,-0.138021 0.1171875,-0.242187 0.075521,-0.106771 0.171875,-0.179688 0.096354,-0.07552 0.2005208,-0.122396 0.1067708,-0.04687 0.2135417,-0.06771 0.109375,-0.02344 0.203125,-0.02344 h 1.5286459 z"
       id="path10748"
       inkscape:connector-curvature="0" />
    <path
       d="m 9.084567,61.952212 q 0,0.174479 -0.044271,0.315104 -0.044271,0.138021 -0.1171875,0.244792 -0.072917,0.104167 -0.1692709,0.179687 -0.096354,0.07292 -0.203125,0.119792 -0.1041666,0.04687 -0.2135416,0.07031 -0.1067709,0.02083 -0.203125,0.02083 H 6.9126919 q -0.140625,0 -0.3072916,-0.04948 -0.1666667,-0.04948 -0.3098959,-0.161459 -0.140625,-0.114583 -0.2369791,-0.29427 -0.09375,-0.182292 -0.09375,-0.445313 v -0.916667 q 0,-0.260416 0.09375,-0.440104 0.096354,-0.182292 0.2369791,-0.294271 0.1432292,-0.114583 0.3098959,-0.164062 0.1666666,-0.04948 0.3072916,-0.04948 h 1.2213543 q 0.2604166,0 0.4427083,0.09375 0.1822917,0.09375 0.2942708,0.236979 0.1119792,0.140625 0.1614584,0.307291 0.052083,0.166667 0.052083,0.309896 z M 8.4074837,61.040754 q 0,-0.140625 -0.070312,-0.208334 -0.070312,-0.06771 -0.203125,-0.06771 H 6.9179003 q -0.1354167,0 -0.2057292,0.07031 -0.070312,0.06771 -0.070312,0.200521 v 0.916667 q 0,0.132812 0.070312,0.203125 0.070312,0.07031 0.2057292,0.07031 h 1.2161459 q 0.1380208,0 0.2057291,-0.07031 0.067708,-0.07031 0.067708,-0.203125 z"
       id="path10750"
       inkscape:connector-curvature="0" />
    <path
       d="m 12.206963,60.764712 h -1.182292 v 2.138021 H 10.339775 V 60.764712 H 9.4595669 v -0.677083 h 0.8802081 v -0.919271 h 0.684896 v 0.919271 h 1.182292 z"
       id="path10752"
       inkscape:connector-curvature="0" />
    <path
       d="m 15.407484,61.970441 q 0,0.140625 -0.04948,0.304688 -0.04948,0.161458 -0.161458,0.302083 -0.109375,0.138021 -0.289063,0.231771 -0.177083,0.09375 -0.432291,0.09375 h -1.221354 q -0.140625,0 -0.304688,-0.04948 -0.161458,-0.04948 -0.302083,-0.158854 -0.138021,-0.11198 -0.231771,-0.289063 -0.09375,-0.179688 -0.09375,-0.434896 0,-0.140625 0.04948,-0.304687 0.04948,-0.164063 0.158854,-0.302084 0.111979,-0.140625 0.289063,-0.234375 0.179687,-0.09375 0.434896,-0.09375 h 1.221354 v 0.645834 h -1.221354 q -0.138021,0 -0.213542,0.08594 -0.07552,0.08333 -0.07552,0.208333 0,0.132813 0.08594,0.208334 0.08854,0.07292 0.208333,0.07292 h 1.216146 q 0.138021,0 0.213541,-0.08333 0.07552,-0.08333 0.07552,-0.208333 V 61.01992 q 0,-0.132812 -0.08333,-0.210937 -0.08073,-0.07813 -0.205729,-0.07813 h -1.486979 v -0.643229 h 1.486979 q 0.140625,0 0.302083,0.04948 0.164063,0.04948 0.302084,0.161458 0.140625,0.109375 0.234375,0.289063 0.09375,0.177083 0.09375,0.432291 z"
       id="path10754"
       inkscape:connector-curvature="0" />
    <path
       d="m 18.540296,60.764712 h -1.182291 v 2.138021 H 16.673109 V 60.764712 H 15.7929 v -0.677083 h 0.880209 v -0.919271 h 0.684896 v 0.919271 h 1.182291 z"
       id="path10756"
       inkscape:connector-curvature="0" />
    <path
       d="m 22.009046,61.01992 q 0,0.140625 -0.04948,0.304688 -0.04948,0.161458 -0.161458,0.302083 -0.109375,0.138021 -0.289063,0.231771 -0.177083,0.09375 -0.432291,0.09375 H 19.8554 v -0.643229 h 1.221355 q 0.13802,0 0.213541,-0.08333 0.07552,-0.08594 0.07552,-0.210937 0,-0.132813 -0.08594,-0.208333 -0.08333,-0.07552 -0.203125,-0.07552 H 19.8554 q -0.13802,0 -0.213541,0.08594 -0.07552,0.08333 -0.07552,0.208334 v 0.945312 q 0,0.135417 0.08333,0.210938 0.08594,0.07552 0.210938,0.07552 h 1.216146 v 0.645834 H 19.8554 q -0.140625,0 -0.304687,-0.04948 -0.161458,-0.04948 -0.302083,-0.158854 -0.138021,-0.11198 -0.231771,-0.289063 -0.09375,-0.179688 -0.09375,-0.434896 V 61.01992 q 0,-0.140625 0.04948,-0.302083 0.04948,-0.164063 0.158854,-0.302083 0.111979,-0.140625 0.289063,-0.234375 0.179687,-0.09375 0.434895,-0.09375 h 1.221355 q 0.140625,0 0.302083,0.04948 0.164062,0.04948 0.302083,0.161458 0.140625,0.109375 0.234375,0.289063 0.09375,0.177083 0.09375,0.432291 z"
       id="path10758"
       inkscape:connector-curvature="0" />
  </g>
  <g
     aria-label="input"
     style="font-style:normal;font-variant:normal;font-weight:normal;font-stretch:normal;font-size:5.33333349px;line-height:1.25;font-family:Audiowide;-inkscape-font-specification:Audiowide;letter-spacing:0px;word-spacing:0px;fill:#f0f0f0;fill-opacity:1;stroke:none"
     id="text10192"
     transform="translate(10)">
    <path
       d="M 26.313733,59.509504 H 25.63665 v -0.61198 h 0.677083 z m 0,3.393229 H 25.63665 v -2.815104 h 0.677083 z"
       id="path10737"
       inkscape:connector-curvature="0" />
    <path
       d="m 30.079359,62.902733 h -0.677084 v -1.5625 q 0,-0.132813 -0.04687,-0.236979 -0.04427,-0.106771 -0.122396,-0.182292 -0.07813,-0.07552 -0.184895,-0.114583 -0.104167,-0.04167 -0.226563,-0.04167 H 27.63665 v 2.138021 h -0.677083 v -2.479167 q 0,-0.07031 0.02604,-0.130208 0.02604,-0.0625 0.07292,-0.106771 0.04687,-0.04687 0.109375,-0.07292 0.0625,-0.02604 0.132813,-0.02604 h 1.526041 q 0.127605,0 0.26823,0.02864 0.143229,0.02865 0.28125,0.09375 0.140625,0.0625 0.265625,0.161459 0.127604,0.09635 0.223958,0.236979 0.09896,0.138021 0.15625,0.320312 0.05729,0.182292 0.05729,0.411459 z"
       id="path10739"
       inkscape:connector-curvature="0" />
    <path
       d="m 33.782484,61.952212 q 0,0.174479 -0.04427,0.315104 -0.04427,0.138021 -0.117188,0.244792 -0.07292,0.104167 -0.16927,0.179687 -0.09635,0.07292 -0.203126,0.119792 -0.104166,0.04687 -0.210937,0.07031 -0.106771,0.02083 -0.203125,0.02083 h -1.221354 v -0.677084 h 1.221354 q 0.135417,0 0.203125,-0.07031 0.06771,-0.07031 0.06771,-0.203125 V 61.04075 q 0,-0.140625 -0.07031,-0.208334 -0.06771,-0.06771 -0.200521,-0.06771 h -1.216146 q -0.138021,0 -0.208333,0.07031 -0.07031,0.06771 -0.07031,0.200521 v 2.747396 H 30.6627 v -2.747396 q 0,-0.174479 0.04427,-0.3125 0.04427,-0.138021 0.117187,-0.242187 0.07552,-0.106771 0.171875,-0.179688 0.09635,-0.07552 0.200521,-0.122396 0.106771,-0.04687 0.213542,-0.06771 0.109375,-0.02344 0.203125,-0.02344 h 1.221354 q 0.174479,0 0.3125,0.04427 0.138021,0.04427 0.242188,0.117188 0.10677,0.07292 0.179687,0.169271 0.07552,0.09635 0.122396,0.203125 0.04687,0.104166 0.06771,0.210937 0.02344,0.106771 0.02344,0.203125 z"
       id="path10741"
       inkscape:connector-curvature="0" />
    <path
       d="m 37.443942,62.561587 q 0,0.07292 -0.02604,0.135417 -0.02604,0.0625 -0.07292,0.109375 -0.04427,0.04427 -0.106771,0.07031 -0.05989,0.02604 -0.130208,0.02604 h -1.53125 q -0.125,0 -0.268229,-0.02865 -0.140625,-0.02865 -0.278646,-0.09115 -0.138021,-0.0651 -0.268229,-0.161458 -0.127604,-0.09896 -0.223959,-0.236979 -0.09635,-0.140625 -0.15625,-0.322917 -0.05729,-0.182292 -0.05729,-0.411458 v -1.5625 h 0.677083 v 1.5625 q 0,0.132812 0.04427,0.239583 0.04687,0.104167 0.125,0.179687 0.07813,0.07552 0.182292,0.117188 0.10677,0.03906 0.229166,0.03906 h 1.184896 v -2.13802 h 0.677084 z"
       id="path10743"
       inkscape:connector-curvature="0" />
    <path
       d="m 40.644462,60.764712 h -1.182291 v 2.138021 h -0.684896 v -2.138021 h -0.880209 v -0.677083 h 0.880209 v -0.919271 h 0.684896 v 0.919271 h 1.182291 z"
       id="path10745"
       inkscape:connector-curvature="0" />
  </g>
  <g
     aria-label="Clock"
     style="font-style:normal;font-variant:normal;font-weight:normal;font-stretch:normal;font-size:5.33333349px;line-height:1.25;font-family:Audiowide;-inkscape-font-specification:Audiowide;letter-spacing:0px;word-spacing:0px;fill:#f0f0f0;fill-opacity:1;stroke:none"
     id="text10767"
     transform="translate(6.5)">
    <path
       d="m 15.605469,22 h -3.664063 q -0.140625,0 -0.304687,-0.03125 -0.160156,-0.03516 -0.320313,-0.105469 -0.15625,-0.07031 -0.300781,-0.179687 -0.144531,-0.113282 -0.257812,-0.269532 -0.109375,-0.160156 -0.175782,-0.367187 -0.06641,-0.210938 -0.06641,-0.472656 v -2.75 q 0,-0.140625 0.03125,-0.300782 0.03516,-0.164062 0.105469,-0.320312 0.07031,-0.160156 0.183594,-0.304688 0.113281,-0.144531 0.269531,-0.253906 0.160156,-0.113281 0.367187,-0.179687 0.207032,-0.06641 0.46875,-0.06641 h 3.664063 v 1.015625 h -3.664063 q -0.199218,0 -0.304687,0.105469 -0.105469,0.105469 -0.105469,0.3125 v 2.742188 q 0,0.195312 0.105469,0.304687 0.109375,0.105469 0.304687,0.105469 h 3.664063 z"
       style="font-size:8px;fill:#f0f0f0;fill-opacity:1"
       id="path10773"
       inkscape:connector-curvature="0" />
    <path
       d="m 18.316406,22 h -0.453125 q -0.21875,0 -0.46875,-0.07422 Q 17.148437,21.85156 16.933594,21.683593 16.71875,21.511719 16.578125,21.242187 16.4375,20.96875 16.4375,20.574219 v -4.582031 h 1.015625 v 4.582031 q 0,0.1875 0.117187,0.300781 0.117188,0.109375 0.292969,0.109375 h 0.453125 z"
       style="font-size:8px;fill:#f0f0f0;fill-opacity:1"
       id="path10775"
       inkscape:connector-curvature="0" />
    <path
       d="m 23.570312,20.574219 q 0,0.261718 -0.06641,0.472656 -0.06641,0.207031 -0.175781,0.367187 -0.109375,0.15625 -0.253906,0.269532 -0.144532,0.109375 -0.304688,0.179687 -0.15625,0.07031 -0.320312,0.105469 Q 22.289062,22 22.144531,22 H 20.3125 q -0.210938,0 -0.460938,-0.07422 -0.25,-0.07422 -0.464843,-0.242187 -0.210938,-0.171875 -0.355469,-0.441407 -0.140625,-0.273437 -0.140625,-0.667968 v -1.375 q 0,-0.390625 0.140625,-0.660157 0.144531,-0.273437 0.355469,-0.441406 0.214843,-0.171875 0.464843,-0.246094 0.25,-0.07422 0.460938,-0.07422 h 1.832031 q 0.390625,0 0.664063,0.140625 0.273437,0.140625 0.441406,0.355468 0.167969,0.210938 0.242187,0.460938 0.07813,0.25 0.07813,0.464844 z m -1.015625,-1.367188 q 0,-0.210937 -0.105468,-0.3125 -0.105469,-0.101562 -0.304688,-0.101562 h -1.824219 q -0.203125,0 -0.308593,0.105468 Q 19.90625,19 19.90625,19.199219 v 1.375 q 0,0.199218 0.105469,0.304687 0.105468,0.105469 0.308593,0.105469 h 1.824219 q 0.207031,0 0.308594,-0.105469 0.101562,-0.105469 0.101562,-0.304687 z"
       style="font-size:8px;fill:#f0f0f0;fill-opacity:1"
       id="path10777"
       inkscape:connector-curvature="0" />
    <path
       d="m 28.519531,22 h -2.753906 q -0.210938,0 -0.460938,-0.07422 -0.25,-0.07422 -0.464843,-0.242187 Q 24.628906,21.511719 24.484375,21.242187 24.34375,20.96875 24.34375,20.574219 v -1.375 q 0,-0.144532 0.03125,-0.304688 0.03516,-0.160156 0.105469,-0.316406 0.07031,-0.160156 0.179687,-0.304688 0.113281,-0.144531 0.269531,-0.253906 0.160157,-0.109375 0.367188,-0.175781 0.207031,-0.06641 0.46875,-0.06641 h 2.753906 v 1.015625 h -2.753906 q -0.199219,0 -0.304688,0.101562 -0.101562,0.101563 -0.101562,0.3125 v 1.367188 q 0,0.199218 0.105469,0.304687 0.105468,0.105469 0.308593,0.105469 h 2.746094 z"
       style="font-size:8px;fill:#f0f0f0;fill-opacity:1"
       id="path10779"
       inkscape:connector-curvature="0" />
    <path
       d="m 34.328125,22 h -1.464844 l -2.046875,-1.976563 q -0.171875,-0.15625 -0.160156,-0.390625 0.0078,-0.109375 0.05469,-0.203125 0.05078,-0.09766 0.136719,-0.164062 l 1.855469,-1.496094 h 1.625 L 31.9375,19.695312 Z m -3.929688,0 h -1.015625 v -6.007812 h 1.015625 z"
       style="font-size:8px;fill:#f0f0f0;fill-opacity:1"
       id="path10781"
       inkscape:connector-curvature="0" />
  </g>
  <g
     aria-label="Rotating"
     style="font-style:normal;font-variant:normal;font-weight:normal;font-stretch:normal;font-size:5.33333349px;line-height:1.25;font-family:Audiowide;-inkscape-font-specification:Audiowide;letter-spacing:0px;word-spacing:0px;fill:#000000;fill-opacity:1;stroke:none"
     id="text10771"
     transform="translate(6.5)">
    <path
       d="m 9.4375,11.03125 q 0,0.347656 -0.085937,0.621094 Q 9.265626,11.925781 9.117188,12.136719 8.9726563,12.34375 8.78125,12.492188 8.5898438,12.640625 8.3789063,12.738281 8.171875,12.832031 7.9570312,12.875 7.7460937,12.917969 7.5585937,12.917969 L 9.6796875,14.75 H 8.109375 L 5.9921875,12.917969 H 5.2617187 v -1.015625 h 2.296875 Q 7.75,11.886719 7.90625,11.824219 8.0664063,11.757813 8.1796875,11.648438 8.296875,11.539063 8.359375,11.386719 q 0.0625,-0.15625 0.0625,-0.355469 v -0.640625 q 0,-0.08594 -0.023437,-0.128906 -0.019531,-0.04687 -0.054687,-0.06641 -0.03125,-0.02344 -0.070312,-0.02734 -0.035156,-0.0039 -0.066406,-0.0039 H 4.8554687 V 14.75 H 3.8398438 V 9.6601563 q 0,-0.1054688 0.039063,-0.1992188 Q 3.9179698,9.3671875 3.9843755,9.296875 4.0546875,9.226563 4.148438,9.1875 4.242188,9.148437 4.351563,9.148437 h 3.8554688 q 0.3398437,0 0.5742187,0.125 Q 9.015625,9.3945313 9.1601563,9.5820313 9.3085938,9.765625 9.3710938,9.9804688 9.4375,10.195313 9.4375,10.382813 Z"
       style="font-size:8px;fill:#f0f0f0;fill-opacity:1"
       id="path10784"
       inkscape:connector-curvature="0" />
    <path
       d="m 14.898438,13.324219 q 0,0.261719 -0.06641,0.472656 -0.06641,0.207031 -0.175781,0.367188 -0.109375,0.15625 -0.253906,0.269531 -0.144531,0.109375 -0.304688,0.179687 -0.15625,0.07031 -0.320312,0.105469 Q 13.617188,14.75 13.472656,14.75 h -1.832031 q -0.210937,0 -0.460937,-0.07422 -0.25,-0.07422 -0.464844,-0.242187 Q 10.503906,14.261719 10.359375,13.992188 10.21875,13.71875 10.21875,13.324219 v -1.375 q 0,-0.390625 0.140625,-0.660156 0.144531,-0.273438 0.355469,-0.441407 0.214844,-0.171875 0.464844,-0.246093 0.25,-0.07422 0.460937,-0.07422 h 1.832031 q 0.390625,0 0.664063,0.140625 0.273437,0.140625 0.441406,0.355469 0.167969,0.210937 0.242188,0.460937 0.07813,0.25 0.07813,0.464844 z m -1.015625,-1.367188 q 0,-0.210937 -0.105469,-0.3125 -0.105469,-0.101562 -0.304688,-0.101562 h -1.824218 q -0.203125,0 -0.308594,0.105469 -0.105469,0.101562 -0.105469,0.300781 v 1.375 q 0,0.199219 0.105469,0.304687 0.105469,0.105469 0.308594,0.105469 h 1.824218 q 0.207032,0 0.308594,-0.105469 0.101563,-0.105468 0.101563,-0.304687 z"
       style="font-size:8px;fill:#f0f0f0;fill-opacity:1"
       id="path10786"
       inkscape:connector-curvature="0" />
    <path
       d="M 19.582031,11.542969 H 17.808594 V 14.75 H 16.78125 V 11.542969 H 15.460938 V 10.527344 H 16.78125 V 9.1484375 h 1.027344 v 1.3789065 h 1.773437 z"
       style="font-size:8px;fill:#f0f0f0;fill-opacity:1"
       id="path10788"
       inkscape:connector-curvature="0" />
    <path
       d="m 24.382812,13.351563 q 0,0.210937 -0.07422,0.457031 -0.07422,0.242187 -0.242188,0.453125 Q 23.902342,14.46875 23.63281,14.609375 23.367187,14.75 22.984375,14.75 h -1.832031 q -0.210938,0 -0.457032,-0.07422 -0.242187,-0.07422 -0.453125,-0.238281 -0.207031,-0.167969 -0.347656,-0.433594 -0.140625,-0.269531 -0.140625,-0.652343 0,-0.210938 0.07422,-0.457032 0.07422,-0.246093 0.238281,-0.453125 0.167969,-0.210937 0.433594,-0.351562 0.269531,-0.140625 0.652344,-0.140625 h 1.832031 v 0.96875 h -1.832031 q -0.207032,0 -0.320313,0.128906 -0.113281,0.125 -0.113281,0.3125 0,0.199219 0.128906,0.3125 0.132813,0.109375 0.3125,0.109375 h 1.824219 q 0.207031,0 0.320312,-0.125 0.113282,-0.125 0.113282,-0.3125 V 11.92578 q 0,-0.199218 -0.125,-0.316406 -0.121094,-0.117187 -0.308594,-0.117187 h -2.230469 v -0.964844 h 2.230469 q 0.210937,0 0.453125,0.07422 0.246094,0.07422 0.453125,0.242187 0.210937,0.164063 0.351562,0.433594 0.140625,0.265625 0.140625,0.648437 z"
       style="font-size:8px;fill:#f0f0f0;fill-opacity:1"
       id="path10790"
       inkscape:connector-curvature="0" />
    <path
       d="M 29.082031,11.542969 H 27.308594 V 14.75 H 26.28125 V 11.542969 H 24.960937 V 10.527344 H 26.28125 V 9.1484375 h 1.027344 v 1.3789065 h 1.773437 z"
       style="font-size:8px;fill:#f0f0f0;fill-opacity:1"
       id="path10792"
       inkscape:connector-curvature="0" />
    <path
       d="M 30.789062,9.6601563 H 29.773437 V 8.7421875 h 1.015625 z m 0,5.0898437 h -1.015625 v -4.222656 h 1.015625 z"
       style="font-size:8px;fill:#f0f0f0;fill-opacity:1"
       id="path10794"
       inkscape:connector-curvature="0" />
    <path
       d="m 36.4375,14.75 h -1.015625 v -2.34375 q 0,-0.199219 -0.07031,-0.355469 -0.06641,-0.160156 -0.183593,-0.273437 -0.117188,-0.113281 -0.277344,-0.171875 -0.15625,-0.0625 -0.339844,-0.0625 H 32.773437 V 14.75 h -1.015625 v -3.71875 q 0,-0.105469 0.03906,-0.195312 0.03906,-0.09375 0.109375,-0.160157 0.07031,-0.07031 0.164062,-0.109375 0.09375,-0.03906 0.199219,-0.03906 h 2.289063 q 0.191406,0 0.402343,0.04297 0.214844,0.04297 0.421875,0.140625 0.210938,0.09375 0.398438,0.242187 0.191406,0.144531 0.335937,0.355469 0.148438,0.207031 0.234375,0.480469 0.08594,0.273437 0.08594,0.617187 z"
       style="font-size:8px;fill:#f0f0f0;fill-opacity:1"
       id="path10796"
       inkscape:connector-curvature="0" />
    <path
       d="m 41.929687,15.15625 q 0,0.261719 -0.06641,0.46875 -0.06641,0.210938 -0.175781,0.367188 -0.109375,0.160156 -0.253906,0.269531 -0.144532,0.113281 -0.304688,0.183593 -0.15625,0.07031 -0.320312,0.101563 -0.160157,0.03516 -0.304688,0.03516 H 38.671871 V 15.56641 h 1.832031 q 0.207031,0 0.308594,-0.105468 0.101562,-0.105469 0.101562,-0.304688 v -3.207031 q 0,-0.199219 -0.101562,-0.300781 -0.101563,-0.105469 -0.308594,-0.105469 h -1.832031 q -0.1875,0 -0.296875,0.117187 -0.109375,0.113282 -0.109375,0.289063 v 1.375 q 0,0.199219 0.105469,0.304687 0.105468,0.105469 0.308593,0.105469 h 1.824219 V 14.75 h -1.832031 q -0.144531,0 -0.304688,-0.03125 -0.160156,-0.03516 -0.320312,-0.105469 -0.15625,-0.07031 -0.300781,-0.179687 Q 37.601562,14.320313 37.492187,14.164063 37.382812,14.003906 37.316406,13.796875 37.25,13.585938 37.25,13.324219 v -1.375 q 0,-0.144531 0.03125,-0.304688 0.03516,-0.160156 0.105469,-0.316406 0.07031,-0.160156 0.179687,-0.304687 0.113281,-0.144532 0.269531,-0.253907 0.160157,-0.109375 0.367188,-0.175781 0.207031,-0.06641 0.46875,-0.06641 h 1.832031 q 0.144531,0 0.304688,0.03516 0.164062,0.03125 0.320312,0.101563 0.160156,0.07031 0.304688,0.183593 0.144531,0.109375 0.253906,0.269532 0.109375,0.15625 0.175781,0.363281 0.06641,0.207031 0.06641,0.46875 z"
       style="font-size:8px;fill:#f0f0f0;fill-opacity:1"
       id="path10798"
       inkscape:connector-curvature="0" />
  </g>
</svg>
