<?xml version="1.0" encoding="UTF-8" standalone="no"?>
<!-- Created with Inkscape (http://www.inkscape.org/) -->

<svg
   xmlns:dc="http://purl.org/dc/elements/1.1/"
   xmlns:cc="http://creativecommons.org/ns#"
   xmlns:rdf="http://www.w3.org/1999/02/22-rdf-syntax-ns#"
   xmlns:svg="http://www.w3.org/2000/svg"
   xmlns="http://www.w3.org/2000/svg"
   xmlns:sodipodi="http://sodipodi.sourceforge.net/DTD/sodipodi-0.dtd"
   xmlns:inkscape="http://www.inkscape.org/namespaces/inkscape"
   width="45"
   height="380"
   viewBox="0 0 11.90625 100.54167"
   version="1.1"
   id="svg8"
   inkscape:version="0.92.2 5c3e80d, 2017-08-06"
   sodipodi:docname="Seq4.svg"
   inkscape:export-filename="E:\Users\Martin\Documents\Rack_Source\rack\plugins\ML_modules\res\TrigBuf.png"
   inkscape:export-xdpi="96"
   inkscape:export-ydpi="96">
  <defs
     id="defs2">
    <inkscape:perspective
       sodipodi:type="inkscape:persp3d"
       inkscape:vp_x="0 : 50.270835 : 1"
       inkscape:vp_y="0 : 1000 : 0"
       inkscape:vp_z="31.75 : 50.270835 : 1"
       inkscape:persp3d-origin="15.875 : 33.51389 : 1"
       id="perspective4742" />
  </defs>
  <sodipodi:namedview
     id="base"
     pagecolor="#ffffff"
     bordercolor="#666666"
     borderopacity="1.0"
     inkscape:pageopacity="0.0"
     inkscape:pageshadow="2"
     inkscape:zoom="4"
     inkscape:cx="-11.90222"
     inkscape:cy="77.991971"
     inkscape:document-units="px"
     inkscape:current-layer="layer1"
     showgrid="true"
     units="px"
     fit-margin-top="0"
     fit-margin-left="0"
     fit-margin-right="0"
     fit-margin-bottom="0"
     showguides="false"
     inkscape:snap-to-guides="false"
     objecttolerance="10"
     inkscape:window-width="1066"
     inkscape:window-height="1006"
     inkscape:window-x="50"
     inkscape:window-y="2"
     inkscape:window-maximized="0"
     gridtolerance="10"
     inkscape:snap-perpendicular="false"
     inkscape:pagecheckerboard="true"
     inkscape:snap-page="true"
     inkscape:snap-text-baseline="true"
     showborder="true"
     guidetolerance="10">
    <inkscape:grid
       type="xygrid"
       id="grid43"
       originx="0"
       originy="100.54167"
       spacingx="0.52916668"
       spacingy="0.52916668"
       dotted="false"
       empspacing="20" />
  </sodipodi:namedview>
  <metadata
     id="metadata5">
    <rdf:RDF>
      <cc:Work
         rdf:about="">
        <dc:format>image/svg+xml</dc:format>
        <dc:type
           rdf:resource="http://purl.org/dc/dcmitype/StillImage" />
        <dc:title></dc:title>
      </cc:Work>
    </rdf:RDF>
  </metadata>
  <g
     inkscape:groupmode="layer"
     id="layer2"
     inkscape:label="Layer 2"
     transform="translate(0.26458305,6.2806193e-6)">
    <g
       aria-label="M"
       style="font-style:normal;font-variant:normal;font-weight:bold;font-stretch:normal;font-size:19.75555611px;line-height:1.25;font-family:Arial;-inkscape-font-specification:'Arial, Bold';font-variant-ligatures:normal;font-variant-caps:normal;font-variant-numeric:normal;font-feature-settings:normal;text-align:start;letter-spacing:0px;word-spacing:0px;writing-mode:lr-tb;text-anchor:start;fill:#000000;fill-opacity:1;stroke:none;stroke-width:0.26458335"
       id="text4720" />
  </g>
  <g
     inkscape:label="Layer 1"
     inkscape:groupmode="layer"
     id="layer1"
     transform="translate(0.26458305,-196.45831)">
    <path
       inkscape:connector-curvature="0"
       style="fill:#222222;stroke-width:0.26458335"
       d="M -0.26458305,196.45831 H 11.641667 V 296.99998 H -0.26458305 Z"
       id="SvgjsRect1008" />
    <rect
       style="fill:#91b06f;stroke-width:0.26458335"
       id="SvgjsRect1009"
       width="7.9375"
       height="8.4666672"
       x="1.7197912"
       y="205.18956" />
    <g
       transform="matrix(0.26458334,0,0,0.26458334,-0.26458305,196.45831)"
       aria-label="SK"
       style="font-style:normal;font-variant:normal;font-weight:normal;font-stretch:normal;font-size:21.33333397px;line-height:1.25;font-family:Audiowide;-inkscape-font-specification:Audiowide;letter-spacing:0px;word-spacing:0px;fill:#000000;fill-opacity:1;stroke:none"
       id="text4650">
      <path
         inkscape:connector-curvature="0"
         d="m 21.05061,360.80287 q 0,0.80208 -0.208333,1.44791 -0.197917,0.63542 -0.53125,1.125 -0.333333,0.48959 -0.78125,0.83334 -0.447917,0.34375 -0.927083,0.5625 -0.479167,0.21875 -0.979167,0.32291 -0.489583,0.10417 -0.927083,0.10417 H 6.2485266 v -2.70833 H 16.696444 q 0.78125,0 1.208333,-0.45834 0.4375,-0.45833 0.4375,-1.22916 0,-0.375 -0.114583,-0.6875 -0.114584,-0.3125 -0.333334,-0.54167 -0.208333,-0.22917 -0.520833,-0.35417 -0.302083,-0.125 -0.677083,-0.125 h -6.229167 q -0.6562503,0 -1.416667,-0.22916 -0.7604167,-0.23959 -1.4166667,-0.76042 -0.6458333,-0.52083 -1.0833334,-1.36458 -0.4270833,-0.84375 -0.4270833,-2.0625 0,-1.21875 0.4270833,-2.05209 0.4375001,-0.84375 1.0833334,-1.36458 0.65625,-0.53125 1.4166667,-0.76042 0.7604167,-0.23958 1.416667,-0.23958 h 9.21875 v 2.70833 h -9.21875 q -0.7708336,0 -1.2083336,0.46875 -0.4270834,0.46875 -0.4270834,1.23959 0,0.78125 0.4270834,1.23958 0.4375,0.44792 1.2083336,0.44792 h 6.229167 0.02083 q 0.4375,0.0104 0.927083,0.125 0.489584,0.10416 0.96875,0.33333 0.489584,0.22917 0.927084,0.58333 0.4375,0.34375 0.770833,0.83334 0.34375,0.48958 0.541667,1.125 0.197916,0.63541 0.197916,1.4375 z"
         style="fill:#f0f0f0;fill-opacity:1"
         id="path5271" />
      <path
         inkscape:connector-curvature="0"
         d="m 38.977694,365.1987 h -3.84375 l -6.093751,-6.10417 h -1.90625 v -2.72916 h 1.90625 l 6.093751,-6.10417 h 3.84375 l -7.677084,7.46875 z m -12.927084,0 h -2.708333 v -14.9375 h 2.708333 z"
         style="fill:#f0f0f0;fill-opacity:1"
         id="path5273" />
    </g>
    <text
       xml:space="preserve"
       style="font-style:normal;font-variant:normal;font-weight:normal;font-stretch:normal;font-size:2.11666679px;line-height:1.25;font-family:Audiowide;-inkscape-font-specification:Audiowide;letter-spacing:0px;word-spacing:0px;fill:#000000;fill-opacity:1;stroke:none;stroke-width:0.26458335"
       x="-4.4820065"
       y="226.50877"
       id="text5217"><tspan
         sodipodi:role="line"
         id="tspan5215"
         x="-4.4820065"
         y="228.4166"
         style="stroke-width:0.26458335" /></text>
    <text
       xml:space="preserve"
       style="font-style:normal;font-variant:normal;font-weight:normal;font-stretch:normal;font-size:2.82222247px;line-height:1.25;font-family:Audiowide;-inkscape-font-specification:Audiowide;letter-spacing:0px;word-spacing:0px;fill:#000000;fill-opacity:1;stroke:none;stroke-width:0.26458335"
       x="-48.963287"
       y="201.3531"
       id="text5627"><tspan
         sodipodi:role="line"
         id="tspan5625"
         x="-48.963287"
         y="201.3531"
         style="font-size:3.52777791px;fill:#f0f0f0;fill-opacity:0;stroke-width:0.26458335">1x8</tspan></text>
    <g
       aria-label="clock"
       style="font-style:normal;font-variant:normal;font-weight:normal;font-stretch:normal;font-size:2.82222247px;line-height:1.25;font-family:Audiowide;-inkscape-font-specification:Audiowide;letter-spacing:0px;word-spacing:0px;fill:#000000;fill-opacity:1;stroke:none;stroke-width:0.26458335"
       id="text8752">
      <path
         d="M 3.5894433,213.25935 H 2.8608056 q -0.055811,0 -0.1219564,-0.0196 -0.066146,-0.0196 -0.1229899,-0.0641 -0.055811,-0.0455 -0.094051,-0.11679 -0.037207,-0.0724 -0.037207,-0.17673 v -0.36381 q 0,-0.0382 0.00827,-0.0806 0.0093,-0.0424 0.027905,-0.0837 0.018603,-0.0424 0.047542,-0.0806 0.029972,-0.0382 0.071314,-0.0672 0.042375,-0.0289 0.097152,-0.0465 0.054777,-0.0176 0.1240235,-0.0176 h 0.7286377 v 0.26872 H 2.8608056 q -0.05271,0 -0.080615,0.0269 -0.026872,0.0269 -0.026872,0.0827 v 0.36174 q 0,0.0527 0.027905,0.0806 0.027905,0.0279 0.081649,0.0279 h 0.7265707 z"
         style="font-size:2.11666679px;fill:#f0f0f0;fill-opacity:1;stroke-width:0.26458335"
         id="path9301"
         inkscape:connector-curvature="0" />
      <path
         d="M 4.3046451,213.25935 H 4.1847558 q -0.057878,0 -0.1240234,-0.0196 -0.065112,-0.0196 -0.1219564,-0.0641 -0.056844,-0.0455 -0.094051,-0.11679 -0.037207,-0.0724 -0.037207,-0.17673 v -1.21233 h 0.2687175 v 1.21233 q 0,0.0496 0.031006,0.0796 0.031006,0.0289 0.077515,0.0289 h 0.1198893 z"
         style="font-size:2.11666679px;fill:#f0f0f0;fill-opacity:1;stroke-width:0.26458335"
         id="path9303"
         inkscape:connector-curvature="0" />
      <path
         d="m 5.6947412,212.88212 q 0,0.0692 -0.01757,0.12505 -0.01757,0.0548 -0.046509,0.0971 -0.028939,0.0413 -0.067179,0.0713 -0.038241,0.0289 -0.080615,0.0475 -0.041341,0.0186 -0.084749,0.0279 -0.042375,0.008 -0.080615,0.008 H 4.8327783 q -0.055811,0 -0.1219564,-0.0196 -0.066146,-0.0196 -0.1229899,-0.0641 -0.055811,-0.0455 -0.094051,-0.11679 -0.037207,-0.0724 -0.037207,-0.17673 v -0.36381 q 0,-0.10335 0.037207,-0.17466 0.038241,-0.0724 0.094051,-0.11679 0.056844,-0.0455 0.1229899,-0.0651 0.066146,-0.0196 0.1219564,-0.0196 h 0.4847249 q 0.1033529,0 0.1756999,0.0372 0.072347,0.0372 0.1167887,0.0941 0.044442,0.0558 0.064079,0.12195 0.020671,0.0661 0.020671,0.12299 z m -0.2687175,-0.36174 q 0,-0.0558 -0.027905,-0.0827 -0.027905,-0.0269 -0.080615,-0.0269 H 4.8348453 q -0.053743,0 -0.081649,0.0279 -0.027905,0.0269 -0.027905,0.0796 v 0.36381 q 0,0.0527 0.027905,0.0806 0.027905,0.0279 0.081649,0.0279 h 0.4826579 q 0.054777,0 0.081649,-0.0279 0.026872,-0.0279 0.026872,-0.0806 z"
         style="font-size:2.11666679px;fill:#f0f0f0;fill-opacity:1;stroke-width:0.26458335"
         id="path9305"
         inkscape:connector-curvature="0" />
      <path
         d="M 7.0042222,213.25935 H 6.2755845 q -0.05581,0 -0.1219564,-0.0196 -0.066146,-0.0196 -0.1229899,-0.0641 -0.055811,-0.0455 -0.094051,-0.11679 -0.037207,-0.0724 -0.037207,-0.17673 v -0.36381 q 0,-0.0382 0.00827,-0.0806 0.0093,-0.0424 0.027905,-0.0837 0.018603,-0.0424 0.047542,-0.0806 0.029972,-0.0382 0.071313,-0.0672 0.042375,-0.0289 0.097152,-0.0465 0.054777,-0.0176 0.1240234,-0.0176 h 0.7286377 v 0.26872 H 6.2755845 q -0.05271,0 -0.080615,0.0269 -0.026872,0.0269 -0.026872,0.0827 v 0.36174 q 0,0.0527 0.027905,0.0806 0.027905,0.0279 0.081649,0.0279 h 0.7265706 z"
         style="font-size:2.11666679px;fill:#f0f0f0;fill-opacity:1;stroke-width:0.26458335"
         id="path9307"
         inkscape:connector-curvature="0" />
      <path
         d="M 8.5410792,213.25935 H 8.1535059 l -0.541569,-0.52296 q -0.045475,-0.0413 -0.042375,-0.10335 0.00207,-0.0289 0.014469,-0.0538 0.013436,-0.0258 0.036173,-0.0434 L 8.11113,212.14 h 0.429948 l -0.6325196,0.50953 z m -1.0397299,0 H 7.2326318 v -1.58956 h 0.2687175 z"
         style="font-size:2.11666679px;fill:#f0f0f0;fill-opacity:1;stroke-width:0.26458335"
         id="path9309"
         inkscape:connector-curvature="0" />
    </g>
    <g
       aria-label="Seq-4"
       inkscape:transform-center-x="44.582293"
       inkscape:transform-center-y="-22.092709"
       style="font-style:normal;font-variant:normal;font-weight:normal;font-stretch:normal;font-size:2.82222247px;line-height:1.25;font-family:Audiowide;-inkscape-font-specification:Audiowide;letter-spacing:0px;word-spacing:0px;fill:#f0f0f0;fill-opacity:1;stroke:none;stroke-width:0.26458335"
       id="text9299">
      <path
         d="m 2.1046166,202.08139 q 0,0.13263 -0.034451,0.23943 -0.032728,0.10508 -0.08785,0.18604 -0.055122,0.081 -0.1291911,0.1378 -0.07407,0.0569 -0.1533067,0.093 -0.079237,0.0362 -0.1619195,0.0534 -0.08096,0.0172 -0.1533068,0.0172 h -1.72771545 v -0.44786 H 1.3845916 q 0.1291911,0 0.1998156,-0.0758 0.072347,-0.0758 0.072347,-0.20326 0,-0.062 -0.018948,-0.11369 -0.018948,-0.0517 -0.055121,-0.0896 -0.034451,-0.0379 -0.086127,-0.0586 -0.049954,-0.0207 -0.1119656,-0.0207 H 0.35450802 q -0.10852052,0 -0.23426651,-0.0379 -0.12574599,-0.0396 -0.2342665,-0.12574 -0.10679796,-0.0861 -0.17914497,-0.22565 -0.0706245,-0.13953 -0.0706245,-0.34107 0,-0.20154 0.0706245,-0.33934 0.072347,-0.13953 0.17914497,-0.22566 0.10852051,-0.0879 0.2342665,-0.12574 0.12574599,-0.0396 0.23426651,-0.0396 H 1.8789628 v 0.44786 H 0.35450802 q -0.12746854,0 -0.19981555,0.0775 -0.07062446,0.0775 -0.07062446,0.20498 0,0.12919 0.07062446,0.20498 0.072347,0.0741 0.19981555,0.0741 h 1.03008358 0.00345 q 0.072347,0.002 0.1533068,0.0207 0.08096,0.0172 0.1601969,0.0551 0.08096,0.0379 0.1533068,0.0965 0.072347,0.0568 0.1274685,0.1378 0.056844,0.081 0.089573,0.18604 0.032728,0.10507 0.032728,0.23771 z"
         style="font-size:3.52777791px;fill:#f0f0f0;fill-opacity:1;stroke-width:0.26458335"
         id="path9312" />
      <path
         d="m 4.4335012,201.5629 q 0,0.093 -0.032728,0.20154 -0.032728,0.1068 -0.106798,0.19982 -0.072347,0.0913 -0.1912028,0.1533 -0.1171332,0.062 -0.2859429,0.062 H 3.0089542 v -0.42547 h 0.8078749 q 0.091295,0 0.1412489,-0.0551 0.049954,-0.0568 0.049954,-0.13952 0,-0.0879 -0.056844,-0.13781 -0.055121,-0.0499 -0.1343587,-0.0499 H 3.0089542 q -0.091295,0 -0.141249,0.0568 -0.049954,0.0551 -0.049954,0.13781 v 0.62528 q 0,0.0896 0.055121,0.13953 0.056844,0.0499 0.1395264,0.0499 h 0.8044298 v 0.42719 H 3.0089542 q -0.093018,0 -0.2015381,-0.0327 -0.106798,-0.0327 -0.1998156,-0.10508 -0.091295,-0.0741 -0.1533067,-0.1912 -0.062012,-0.11886 -0.062012,-0.28767 v -0.62873 q 0,-0.093 0.032729,-0.19981 0.032728,-0.10852 0.1050754,-0.19982 0.074069,-0.093 0.1912028,-0.15503 0.1188558,-0.062 0.2876655,-0.062 h 0.8078749 q 0.093018,0 0.1998155,0.0327 0.1085205,0.0327 0.1998156,0.1068 0.093018,0.0723 0.1550293,0.1912 0.062012,0.11713 0.062012,0.28594 z"
         style="font-size:3.52777791px;fill:#f0f0f0;fill-opacity:1;stroke-width:0.26458335"
         id="path9314" />
      <path
         d="M 6.7641083,203.39052 H 6.3162458 v -1.81728 q 0,-0.0879 -0.044786,-0.13264 -0.044786,-0.0465 -0.1360813,-0.0465 H 5.3275034 q -0.082682,0 -0.1309136,0.0517 -0.048231,0.0499 -0.048231,0.12747 v 0.60633 q 0,0.0878 0.046509,0.13436 0.046509,0.0465 0.1360813,0.0465 h 0.8044298 v 0.44786 H 5.3275034 q -0.093018,0 -0.2032606,-0.0327 -0.1102431,-0.0327 -0.2049832,-0.1068 -0.093018,-0.0758 -0.1567519,-0.19465 -0.062012,-0.12058 -0.062012,-0.29456 v -0.60633 q 0,-0.0637 0.01378,-0.13436 0.015503,-0.0706 0.046509,-0.13953 0.031006,-0.0706 0.079237,-0.13436 0.049954,-0.0637 0.1188558,-0.11196 0.070624,-0.0482 0.1619195,-0.0775 0.091295,-0.0293 0.2067057,-0.0293 h 0.8078749 q 0.063734,0 0.1343588,0.0155 0.072347,0.0138 0.1412489,0.0448 0.070624,0.031 0.1343587,0.081 0.063734,0.0482 0.1119656,0.11885 0.048231,0.0689 0.077515,0.1602 0.029283,0.0913 0.029283,0.20671 z"
         style="font-size:3.52777791px;fill:#f0f0f0;fill-opacity:1;stroke-width:0.26458335"
         id="path9316" />
      <path
         d="M 8.7829341,201.77478 H 7.1671842 v -0.40308 h 1.6157499 z"
         style="font-size:3.52777791px;fill:#f0f0f0;fill-opacity:1;stroke-width:0.26458335"
         id="path9318" />
      <path
         d="m 11.440826,202.8083 h -0.451308 v -1.00941 H 9.3978841 q -0.048231,0 -0.089573,-0.0172 -0.041341,-0.0189 -0.072347,-0.0482 -0.029283,-0.031 -0.046509,-0.0723 -0.017225,-0.0413 -0.017225,-0.0879 v -1.23507 h 0.4478624 v 1.00941 h 1.3694253 v -1.00941 h 0.451308 z"
         style="font-size:3.52777791px;fill:#f0f0f0;fill-opacity:1;stroke-width:0.26458335"
         id="path9320" />
    </g>
    <g
       aria-label="octave"
       style="font-style:normal;font-variant:normal;font-weight:normal;font-stretch:normal;font-size:1.41111124px;line-height:1.25;font-family:Audiowide;-inkscape-font-specification:Audiowide;letter-spacing:0px;word-spacing:0px;fill:#f0f0f0;fill-opacity:1;stroke:none;stroke-width:0.26458335"
       id="text9952"
       transform="translate(0,2.6458335)">
      <path
         d="m 3.1349122,224.40651 q 0,0.0693 -0.01757,0.12506 -0.01757,0.0548 -0.046509,0.0971 -0.028939,0.0413 -0.067179,0.0713 -0.038241,0.0289 -0.080615,0.0475 -0.041341,0.0186 -0.084749,0.0279 -0.042375,0.008 -0.080615,0.008 H 2.2729493 q -0.055811,0 -0.1219564,-0.0196 -0.066146,-0.0196 -0.1229899,-0.0641 -0.055811,-0.0455 -0.094051,-0.11679 -0.037207,-0.0724 -0.037207,-0.17674 v -0.3638 q 0,-0.10335 0.037207,-0.17466 0.038241,-0.0724 0.094051,-0.11679 0.056844,-0.0455 0.1229899,-0.0651 0.066146,-0.0196 0.1219564,-0.0196 h 0.4847249 q 0.1033529,0 0.1756999,0.0372 0.072347,0.0372 0.1167888,0.0941 0.044442,0.0558 0.064079,0.12195 0.020671,0.0661 0.020671,0.12299 z m -0.2687175,-0.36173 q 0,-0.0558 -0.027905,-0.0827 -0.027905,-0.0269 -0.080615,-0.0269 H 2.2750163 q -0.053743,0 -0.081649,0.0279 -0.027905,0.0269 -0.027905,0.0796 v 0.3638 q 0,0.0527 0.027905,0.0806 0.027905,0.0279 0.081649,0.0279 h 0.4826579 q 0.054777,0 0.081649,-0.0279 0.026872,-0.0279 0.026872,-0.0806 z"
         style="font-size:2.11666679px;fill:#f0f0f0;fill-opacity:1;stroke-width:0.26458335"
         id="path9982"
         inkscape:connector-curvature="0" />
      <path
         d="M 4.4443931,224.78375 H 3.7157554 q -0.055811,0 -0.1219564,-0.0196 -0.066146,-0.0196 -0.1229899,-0.0641 -0.055811,-0.0455 -0.094051,-0.11679 -0.037207,-0.0724 -0.037207,-0.17674 v -0.3638 q 0,-0.0382 0.00827,-0.0806 0.0093,-0.0424 0.027905,-0.0837 0.018604,-0.0424 0.047542,-0.0806 0.029972,-0.0382 0.071313,-0.0672 0.042375,-0.0289 0.097152,-0.0465 0.054777,-0.0176 0.1240235,-0.0176 h 0.7286377 v 0.26872 H 3.7157554 q -0.05271,0 -0.080615,0.0269 -0.026872,0.0269 -0.026872,0.0827 v 0.36173 q 0,0.0527 0.027905,0.0806 0.027905,0.0279 0.081649,0.0279 h 0.7265707 z"
         style="font-size:2.11666679px;fill:#f0f0f0;fill-opacity:1;stroke-width:0.26458335"
         id="path9984"
         inkscape:connector-curvature="0" />
      <path
         d="M 5.6846277,223.93523 H 5.2154056 v 0.84852 h -0.271818 v -0.84852 H 4.5942549 v -0.26872 h 0.3493327 v -0.36484 h 0.271818 v 0.36484 h 0.4692221 z"
         style="font-size:2.11666679px;fill:#f0f0f0;fill-opacity:1;stroke-width:0.26458335"
         id="path9986"
         inkscape:connector-curvature="0" />
      <path
         d="m 6.9548342,224.41375 q 0,0.0558 -0.019637,0.12092 -0.019637,0.0641 -0.064079,0.11989 -0.043408,0.0548 -0.1147216,0.092 -0.07028,0.0372 -0.1715658,0.0372 h -0.484725 q -0.05581,0 -0.1209228,-0.0196 -0.064079,-0.0196 -0.1198894,-0.0631 -0.054777,-0.0444 -0.091984,-0.11472 -0.037207,-0.0713 -0.037207,-0.1726 0,-0.0558 0.019637,-0.12092 0.019637,-0.0651 0.063045,-0.11989 0.044442,-0.0558 0.1147216,-0.093 0.071313,-0.0372 0.1725993,-0.0372 h 0.484725 v 0.25632 h -0.484725 q -0.054777,0 -0.084749,0.0341 -0.029972,0.0331 -0.029972,0.0827 0,0.0527 0.034107,0.0827 0.03514,0.0289 0.082682,0.0289 h 0.4826579 q 0.054777,0 0.084749,-0.0331 0.029972,-0.0331 0.029972,-0.0827 v -0.37517 q 0,-0.0527 -0.033073,-0.0837 -0.032039,-0.031 -0.081649,-0.031 H 5.994686 v -0.25528 h 0.5901449 q 0.05581,0 0.1198893,0.0196 0.065112,0.0196 0.1198894,0.0641 0.055811,0.0434 0.093018,0.11473 0.037207,0.0703 0.037207,0.17156 z"
         style="font-size:2.11666679px;fill:#f0f0f0;fill-opacity:1;stroke-width:0.26458335"
         id="path9988"
         inkscape:connector-curvature="0" />
      <path
         d="m 8.5195969,223.66651 q -0.045475,0.14159 -0.1064535,0.27905 -0.060978,0.13746 -0.1405599,0.26252 -0.078548,0.12402 -0.1767334,0.23047 -0.097152,0.10542 -0.2160075,0.18294 -0.1178223,0.0765 -0.2573486,0.12092 -0.1384929,0.0434 -0.3007569,0.0434 -0.027905,0 -0.05271,-0.0103 -0.024805,-0.0103 -0.043408,-0.0279 -0.018603,-0.0186 -0.028939,-0.0424 -0.010335,-0.0248 -0.010335,-0.0527 v -0.98598 h 0.2687175 v 0.84026 q 0.098185,0 0.1881022,-0.0424 0.090951,-0.0424 0.1715658,-0.11162 0.080615,-0.0703 0.1488281,-0.15916 0.069246,-0.0889 0.1229899,-0.1819 0.053743,-0.094 0.090951,-0.18397 0.038241,-0.0899 0.056844,-0.16123 z"
         style="font-size:2.11666679px;fill:#f0f0f0;fill-opacity:1;stroke-width:0.26458335"
         id="path9990"
         inkscape:connector-curvature="0" />
      <path
         d="m 9.8187424,224.03651 q 0,0.0558 -0.019637,0.12092 -0.019637,0.0641 -0.064079,0.11989 -0.043408,0.0548 -0.1147217,0.092 -0.07028,0.0372 -0.1715657,0.0372 H 8.964014 v -0.25528 h 0.484725 q 0.054777,0 0.084749,-0.0331 0.029972,-0.0341 0.029972,-0.0837 0,-0.0527 -0.034106,-0.0827 -0.033073,-0.03 -0.080615,-0.03 H 8.964014 q -0.054777,0 -0.084749,0.0341 -0.029972,0.0331 -0.029972,0.0827 v 0.37517 q 0,0.0537 0.033073,0.0837 0.034107,0.03 0.083716,0.03 h 0.4826579 v 0.25631 h -0.484725 q -0.055811,0 -0.1209229,-0.0196 -0.064079,-0.0196 -0.1198893,-0.0631 -0.054777,-0.0444 -0.091984,-0.11472 -0.037207,-0.0713 -0.037207,-0.1726 v -0.37724 q 0,-0.0558 0.019637,-0.11989 0.019637,-0.0651 0.063045,-0.11989 0.044442,-0.0558 0.1147217,-0.093 0.071314,-0.0372 0.1725993,-0.0372 h 0.484725 q 0.05581,0 0.1198893,0.0196 0.065112,0.0196 0.1198893,0.0641 0.055811,0.0434 0.093018,0.11473 0.037207,0.0703 0.037207,0.17156 z"
         style="font-size:2.11666679px;fill:#f0f0f0;fill-opacity:1;stroke-width:0.26458335"
         id="path9992"
         inkscape:connector-curvature="0" />
    </g>
    <rect
       style="fill:#1dcdf4;fill-opacity:1;stroke-width:0.6062364"
       id="SvgjsRect1009-6"
       width="7.9375"
       height="44.449986"
       x="1.7197912"
       y="229.26665" />
    <g
       aria-label="gate"
       style="font-style:normal;font-variant:normal;font-weight:normal;font-stretch:normal;font-size:1.41111124px;line-height:1.25;font-family:Audiowide;-inkscape-font-specification:Audiowide;letter-spacing:0px;word-spacing:0px;fill:#000000;fill-opacity:1;stroke:none;stroke-width:0.26458335"
       id="text9971"
       transform="translate(0,-0.52916668)">
      <g
         aria-label="gate"
         style="font-style:normal;font-variant:normal;font-weight:normal;font-stretch:normal;font-size:1.41111124px;line-height:1.25;font-family:Audiowide;-inkscape-font-specification:Audiowide;letter-spacing:0px;word-spacing:0px;fill:#000000;fill-opacity:1;stroke:none;stroke-width:0.07000434"
         id="text9997">
        <path
           d="m 4.2519373,287.58246 q 0,0.0692 -0.01757,0.12403 -0.01757,0.0558 -0.046509,0.0971 -0.028939,0.0424 -0.067179,0.0713 -0.038241,0.03 -0.080615,0.0486 -0.041341,0.0186 -0.084749,0.0269 -0.042375,0.009 -0.080615,0.009 h -0.484725 v -0.26872 h 0.484725 q 0.054777,0 0.081649,-0.0279 0.026872,-0.0279 0.026872,-0.0806 v -0.84852 q 0,-0.0527 -0.026872,-0.0796 -0.026872,-0.0279 -0.081649,-0.0279 h -0.484725 q -0.049609,0 -0.078548,0.031 -0.028939,0.03 -0.028939,0.0765 v 0.3638 q 0,0.0527 0.027905,0.0806 0.027905,0.0279 0.081649,0.0279 h 0.4826579 v 0.26872 h -0.484725 q -0.038241,0 -0.080615,-0.008 -0.042375,-0.009 -0.084749,-0.0279 -0.041341,-0.0186 -0.079582,-0.0475 -0.038241,-0.03 -0.067179,-0.0713 -0.028939,-0.0424 -0.046509,-0.0972 -0.01757,-0.0558 -0.01757,-0.12505 v -0.3638 q 0,-0.0383 0.00827,-0.0806 0.0093,-0.0424 0.027905,-0.0837 0.018604,-0.0424 0.047542,-0.0806 0.029972,-0.0382 0.071314,-0.0672 0.042375,-0.0289 0.097152,-0.0465 0.054777,-0.0176 0.1240234,-0.0176 h 0.484725 q 0.038241,0 0.080615,0.009 0.043408,0.008 0.084749,0.0269 0.042375,0.0186 0.080615,0.0486 0.038241,0.0289 0.067179,0.0713 0.028939,0.0414 0.046509,0.0961 0.01757,0.0548 0.01757,0.12403 z"
           style="font-size:2.11666679px;fill:#f0f0f0;fill-opacity:1;stroke-width:0.07000434"
           id="path9999"
           inkscape:connector-curvature="0" />
        <path
           d="m 5.6534023,287.10497 q 0,0.0558 -0.019637,0.12093 -0.019637,0.0641 -0.064079,0.11988 -0.043408,0.0548 -0.1147217,0.092 -0.07028,0.0372 -0.1715658,0.0372 H 4.798674 q -0.05581,0 -0.1209228,-0.0196 -0.064079,-0.0196 -0.1198894,-0.063 -0.054777,-0.0444 -0.091984,-0.11472 -0.037207,-0.0713 -0.037207,-0.1726 0,-0.0558 0.019637,-0.12092 0.019637,-0.0651 0.063045,-0.11989 0.044442,-0.0558 0.1147216,-0.093 0.071313,-0.0372 0.1725993,-0.0372 h 0.484725 v 0.25631 H 4.798674 q -0.054777,0 -0.084749,0.0341 -0.029972,0.0331 -0.029972,0.0827 0,0.0527 0.034106,0.0827 0.03514,0.0289 0.082682,0.0289 h 0.482658 q 0.054777,0 0.084749,-0.0331 0.029972,-0.0331 0.029972,-0.0827 v -0.37518 q 0,-0.0527 -0.033073,-0.0837 -0.032039,-0.031 -0.081649,-0.031 H 4.6932541 V 286.3578 H 5.283399 q 0.055811,0 0.1198893,0.0196 0.065112,0.0196 0.1198894,0.0641 0.055811,0.0434 0.093018,0.11472 0.037207,0.0703 0.037207,0.17156 z"
           style="font-size:2.11666679px;fill:#f0f0f0;fill-opacity:1;stroke-width:0.07000434"
           id="path10001"
           inkscape:connector-curvature="0" />
        <path
           d="m 6.8967375,286.62645 h -0.469222 v 0.84853 H 6.1556974 v -0.84853 H 5.8063647 v -0.26872 h 0.3493327 v -0.36483 h 0.2718181 v 0.36483 h 0.469222 z"
           style="font-size:2.11666679px;fill:#f0f0f0;fill-opacity:1;stroke-width:0.07000434"
           id="path10003"
           inkscape:connector-curvature="0" />
        <path
           d="m 8.2733974,286.72773 q 0,0.0558 -0.019637,0.12093 -0.019637,0.0641 -0.064079,0.11989 -0.043408,0.0548 -0.1147216,0.092 -0.07028,0.0372 -0.1715658,0.0372 H 7.418669 v -0.25528 h 0.484725 q 0.054777,0 0.084749,-0.0331 0.029972,-0.0341 0.029972,-0.0837 0,-0.0527 -0.034107,-0.0827 -0.033073,-0.03 -0.080615,-0.03 H 7.418668 q -0.054777,0 -0.084749,0.0341 -0.029972,0.0331 -0.029972,0.0827 v 0.37517 q 0,0.0538 0.033073,0.0837 0.034106,0.03 0.083716,0.03 h 0.4826579 v 0.25632 h -0.484725 q -0.05581,0 -0.1209228,-0.0196 -0.064079,-0.0196 -0.1198894,-0.063 -0.054777,-0.0444 -0.091984,-0.11472 -0.037207,-0.0713 -0.037207,-0.1726 v -0.37724 q 0,-0.0558 0.019637,-0.11989 0.019637,-0.0651 0.063045,-0.11988 0.044442,-0.0558 0.1147217,-0.093 0.071314,-0.0372 0.1725993,-0.0372 h 0.484725 q 0.05581,0 0.1198893,0.0196 0.065112,0.0196 0.1198893,0.0641 0.055811,0.0434 0.093018,0.11472 0.037207,0.0703 0.037207,0.17156 z"
           style="font-size:2.11666679px;fill:#f0f0f0;fill-opacity:1;stroke-width:0.07000434"
           id="path10005"
           inkscape:connector-curvature="0" />
      </g>
    </g>
  </g>
</svg>
