<?xml version="1.0" encoding="UTF-8" standalone="no"?>
<svg
   xmlns:dc="http://purl.org/dc/elements/1.1/"
   xmlns:cc="http://creativecommons.org/ns#"
   xmlns:rdf="http://www.w3.org/1999/02/22-rdf-syntax-ns#"
   xmlns:svg="http://www.w3.org/2000/svg"
   xmlns="http://www.w3.org/2000/svg"
   xmlns:sodipodi="http://sodipodi.sourceforge.net/DTD/sodipodi-0.dtd"
   xmlns:inkscape="http://www.inkscape.org/namespaces/inkscape"
   id="SvgjsSvg1006"
   width="60"
   height="380"
   version="1.1"
   sodipodi:docname="Seq8.svg"
   inkscape:version="0.92.2 5c3e80d, 2017-08-06">
  <metadata
     id="metadata4625">
    <rdf:RDF>
      <cc:Work
         rdf:about="">
        <dc:format>image/svg+xml</dc:format>
        <dc:type
           rdf:resource="http://purl.org/dc/dcmitype/StillImage" />
        <dc:title></dc:title>
      </cc:Work>
    </rdf:RDF>
  </metadata>
  <sodipodi:namedview
     pagecolor="#ffffff"
     bordercolor="#666666"
     borderopacity="1"
     objecttolerance="10000"
     gridtolerance="10000"
     guidetolerance="10000"
     inkscape:pageopacity="0"
     inkscape:pageshadow="2"
     inkscape:window-width="738"
     inkscape:window-height="961"
     id="namedview4623"
     showgrid="false"
     inkscape:zoom="4"
     inkscape:cx="104.67188"
     inkscape:cy="-192.69134"
     inkscape:window-x="722"
     inkscape:window-y="0"
     inkscape:window-maximized="0"
     inkscape:current-layer="SvgjsSvg1006" />
  <defs
     id="SvgjsDefs1007" />
  <path
     style="fill:#222222"
     d="M 0,0 H 60 V 380 H 0 Z"
     id="SvgjsRect1008" />
  <path
     style="fill:#91b06f;stroke-width:1.18673217"
     d="M 5,33 H 55 V 65 H 5 Z"
     id="SvgjsRect1009" />
  <path
     style="fill:#5373cd"
     d="m 0,70 h 50 v 30 H 0 Z"
     id="SvgjsRect1010" />
  <path
     style="fill:#5373cd"
     d="M 50,70 60,85 50,100 Z"
     id="SvgjsPolygon1011" />
  <path
     style="fill:#5573cd;fill-opacity:1"
     d="m 0,105 h 50 v 30 H 0 Z"
     id="SvgjsRect1012" />
  <path
     style="fill:#5573cd;fill-opacity:1"
     d="m 50,105 10,15 -10,15 z"
     id="SvgjsPolygon1013" />
  <path
     style="fill:#5573cd;fill-opacity:1"
     d="m 0,140 h 50 v 30 H 0 Z"
     id="SvgjsRect1014" />
  <path
     style="fill:#5573cd;fill-opacity:1"
     d="m 50,140 10,15 -10,15 z"
     id="SvgjsPolygon1015" />
  <path
     style="fill:#5573cd;fill-opacity:1"
     d="m 0,175 h 50 v 30 H 0 Z"
     id="SvgjsRect1016" />
  <path
     style="fill:#5573cd;fill-opacity:1"
     d="m 50,175 10,15 -10,15 z"
     id="SvgjsPolygon1017" />
  <path
     style="fill:#5373cd"
     d="m 0,210 h 50 v 30 H 0 Z"
     id="SvgjsRect1018" />
  <path
     style="fill:#5373cd"
     d="m 50,210 10,15 -10,15 z"
     id="SvgjsPolygon1019" />
  <path
     style="fill:#5573cd;fill-opacity:1"
     d="m 0,245 h 50 v 30 H 0 Z"
     id="SvgjsRect1020" />
  <path
     style="fill:#5573cd;fill-opacity:1"
     d="m 50,245 10,15 -10,15 z"
     id="SvgjsPolygon1021" />
  <path
     style="fill:#5373cd"
     d="m 0,280 h 50 v 30 H 0 Z"
     id="SvgjsRect1022" />
  <path
     style="fill:#5373cd"
     d="m 50,280 10,15 -10,15 z"
     id="SvgjsPolygon1023" />
  <path
     style="fill:#5573cd;fill-opacity:1"
     d="m 0,315 h 50 v 30 H 0 Z"
     id="SvgjsRect1024" />
  <path
     style="fill:#5573cd;fill-opacity:1"
     d="m 50,315 10,15 -10,15 z"
     id="SvgjsPolygon1025" />
  <g
     aria-label="SK"
     style="font-style:normal;font-variant:normal;font-weight:normal;font-stretch:normal;font-size:21.33333397px;line-height:1.25;font-family:Audiowide;-inkscape-font-specification:Audiowide;letter-spacing:0px;word-spacing:0px;fill:#000000;fill-opacity:1;stroke:none"
     id="text4650"
     transform="translate(7.25)">
    <path
       d="m 21.05061,360.80287 q 0,0.80208 -0.208333,1.44791 -0.197917,0.63542 -0.53125,1.125 -0.333333,0.48959 -0.78125,0.83334 -0.447917,0.34375 -0.927083,0.5625 -0.479167,0.21875 -0.979167,0.32291 -0.489583,0.10417 -0.927083,0.10417 H 6.2485266 v -2.70833 H 16.696444 q 0.78125,0 1.208333,-0.45834 0.4375,-0.45833 0.4375,-1.22916 0,-0.375 -0.114583,-0.6875 -0.114584,-0.3125 -0.333334,-0.54167 -0.208333,-0.22917 -0.520833,-0.35417 -0.302083,-0.125 -0.677083,-0.125 h -6.229167 q -0.6562503,0 -1.416667,-0.22916 -0.7604167,-0.23959 -1.4166667,-0.76042 -0.6458333,-0.52083 -1.0833334,-1.36458 -0.4270833,-0.84375 -0.4270833,-2.0625 0,-1.21875 0.4270833,-2.05209 0.4375001,-0.84375 1.0833334,-1.36458 0.65625,-0.53125 1.4166667,-0.76042 0.7604167,-0.23958 1.416667,-0.23958 h 9.21875 v 2.70833 h -9.21875 q -0.7708336,0 -1.2083336,0.46875 -0.4270834,0.46875 -0.4270834,1.23959 0,0.78125 0.4270834,1.23958 0.4375,0.44792 1.2083336,0.44792 h 6.229167 0.02083 q 0.4375,0.0104 0.927083,0.125 0.489584,0.10416 0.96875,0.33333 0.489584,0.22917 0.927084,0.58333 0.4375,0.34375 0.770833,0.83334 0.34375,0.48958 0.541667,1.125 0.197916,0.63541 0.197916,1.4375 z"
       style="fill:#f0f0f0;fill-opacity:1"
       id="path5271"
       inkscape:connector-curvature="0" />
    <path
       d="m 38.977694,365.1987 h -3.84375 l -6.093751,-6.10417 h -1.90625 v -2.72916 h 1.90625 l 6.093751,-6.10417 h 3.84375 l -7.677084,7.46875 z m -12.927084,0 h -2.708333 v -14.9375 h 2.708333 z"
       style="fill:#f0f0f0;fill-opacity:1"
       id="path5273"
       inkscape:connector-curvature="0" />
  </g>
  <g
     style="font-style:normal;font-variant:normal;font-weight:normal;font-stretch:normal;font-size:8px;line-height:1.25;font-family:Audiowide;-inkscape-font-specification:Audiowide;letter-spacing:0px;word-spacing:0px;fill:#000000;fill-opacity:1;stroke:none"
     id="text5217" />
  <g
     aria-label="clock"
     style="font-style:normal;font-variant:normal;font-weight:normal;font-stretch:normal;font-size:5.33333349px;line-height:1.25;font-family:Audiowide;-inkscape-font-specification:Audiowide;letter-spacing:0px;word-spacing:0px;fill:#000000;fill-opacity:1;stroke:none"
     id="text924">
    <path
       d="M 11.294271,63 H 9.4583334 Q 9.3177084,63 9.1510417,62.950521 8.984375,62.901042 8.8411459,62.789062 8.7005208,62.674479 8.6041667,62.494792 8.5104167,62.3125 8.5104167,62.049479 v -0.916667 q 0,-0.09635 0.020833,-0.203125 0.023437,-0.10677 0.070312,-0.210937 0.046875,-0.106771 0.1197917,-0.203125 0.075521,-0.09635 0.1796875,-0.169271 0.1067708,-0.07292 0.2447917,-0.117187 0.1380208,-0.04427 0.3125,-0.04427 h 1.8359376 v 0.677083 H 9.4583334 q -0.1328125,0 -0.203125,0.06771 Q 9.1875,60.997396 9.1875,61.138021 v 0.911458 q 0,0.132813 0.070312,0.203125 0.070312,0.07031 0.2057292,0.07031 h 1.8307293 z"
       style="fill:#dcdcdc;fill-opacity:1"
       id="path1065" />
    <path
       d="m 13.096354,63 h -0.302083 q -0.145833,0 -0.3125,-0.04948 -0.164063,-0.04948 -0.307292,-0.161459 Q 12.03125,62.674479 11.9375,62.494792 11.84375,62.3125 11.84375,62.049479 v -3.054687 h 0.677083 v 3.054687 q 0,0.125 0.07813,0.200521 0.07813,0.07292 0.195313,0.07292 h 0.302083 z"
       style="fill:#dcdcdc;fill-opacity:1"
       id="path1067" />
    <path
       d="m 16.598958,62.049479 q 0,0.174479 -0.04427,0.315104 -0.04427,0.138021 -0.117188,0.244792 -0.07292,0.104167 -0.169271,0.179687 -0.09635,0.07292 -0.203125,0.119792 -0.104166,0.04687 -0.213541,0.07031 Q 15.744792,63 15.648438,63 h -1.221355 q -0.140625,0 -0.307291,-0.04948 -0.166667,-0.04948 -0.309896,-0.161459 -0.140625,-0.114583 -0.236979,-0.29427 -0.09375,-0.182292 -0.09375,-0.445313 v -0.916667 q 0,-0.260416 0.09375,-0.440104 0.09635,-0.182291 0.236979,-0.294271 0.143229,-0.114583 0.309896,-0.164062 0.166666,-0.04948 0.307291,-0.04948 h 1.221355 q 0.260416,0 0.442708,0.09375 0.182292,0.09375 0.294271,0.236979 0.111979,0.140625 0.161458,0.307292 0.05208,0.166666 0.05208,0.309895 z m -0.677083,-0.911458 q 0,-0.140625 -0.07031,-0.208334 -0.07031,-0.06771 -0.203125,-0.06771 h -1.216146 q -0.135417,0 -0.205729,0.07031 Q 14.15625,61 14.15625,61.132812 v 0.916667 q 0,0.132813 0.07031,0.203125 0.07031,0.07031 0.205729,0.07031 h 1.216146 q 0.13802,0 0.205729,-0.07031 0.06771,-0.07031 0.06771,-0.203125 z"
       style="fill:#dcdcdc;fill-opacity:1"
       id="path1069" />
    <path
       d="M 19.898438,63 H 18.0625 q -0.140625,0 -0.307291,-0.04948 -0.166667,-0.04948 -0.309896,-0.161459 -0.140625,-0.114583 -0.236979,-0.29427 -0.09375,-0.182292 -0.09375,-0.445313 v -0.916667 q 0,-0.09635 0.02083,-0.203125 0.02344,-0.10677 0.07031,-0.210937 0.04687,-0.106771 0.119792,-0.203125 0.07552,-0.09635 0.179688,-0.169271 0.106771,-0.07292 0.244791,-0.117187 0.138021,-0.04427 0.3125,-0.04427 h 1.835938 v 0.677083 H 18.0625 q -0.132812,0 -0.203125,0.06771 -0.06771,0.06771 -0.06771,0.208334 v 0.911458 q 0,0.132813 0.07031,0.203125 0.07031,0.07031 0.205729,0.07031 h 1.830729 z"
       style="fill:#dcdcdc;fill-opacity:1"
       id="path1071" />
    <path
       d="m 23.770834,63 h -0.976562 l -1.364584,-1.317708 q -0.114583,-0.104167 -0.106771,-0.260417 0.0052,-0.07292 0.03646,-0.135417 0.03385,-0.0651 0.09115,-0.109375 l 1.236979,-0.997396 h 1.083333 l -1.59375,1.283855 z m -2.619792,0 h -0.677083 v -4.005208 h 0.677083 z"
       style="fill:#dcdcdc;fill-opacity:1"
       id="path1073" />
  </g>
  <g
     aria-label="out"
     style="font-style:normal;font-variant:normal;font-weight:normal;font-stretch:normal;font-size:5.33333349px;line-height:1.25;font-family:Audiowide;-inkscape-font-specification:Audiowide;letter-spacing:0px;word-spacing:0px;fill:#000000;fill-opacity:1;stroke:none"
     id="text928"
     transform="translate(2)">
    <path
       d="m 38.880208,62.049479 q 0,0.174479 -0.04427,0.315104 -0.04427,0.138021 -0.117188,0.244792 -0.07292,0.104167 -0.169271,0.179687 -0.09635,0.07292 -0.203125,0.119792 -0.104166,0.04687 -0.213541,0.07031 Q 38.026042,63 37.929688,63 h -1.221355 q -0.140625,0 -0.307291,-0.04948 -0.166667,-0.04948 -0.309896,-0.161459 -0.140625,-0.114583 -0.236979,-0.29427 -0.09375,-0.182292 -0.09375,-0.445313 v -0.916667 q 0,-0.260416 0.09375,-0.440104 0.09635,-0.182291 0.236979,-0.294271 0.143229,-0.114583 0.309896,-0.164062 0.166666,-0.04948 0.307291,-0.04948 h 1.221355 q 0.260416,0 0.442708,0.09375 0.182292,0.09375 0.294271,0.236979 0.111979,0.140625 0.161458,0.307292 0.05208,0.166666 0.05208,0.309895 z m -0.677083,-0.911458 q 0,-0.140625 -0.07031,-0.208334 -0.07031,-0.06771 -0.203125,-0.06771 h -1.216146 q -0.135417,0 -0.205729,0.07031 Q 36.4375,61 36.4375,61.132812 v 0.916667 q 0,0.132813 0.07031,0.203125 0.07031,0.07031 0.205729,0.07031 h 1.216146 q 0.13802,0 0.205729,-0.07031 0.06771,-0.07031 0.06771,-0.203125 z"
       style="fill:#dcdcdc;fill-opacity:1"
       id="path1076"
       inkscape:connector-curvature="0" />
    <path
       d="m 42.53125,62.658854 q 0,0.07292 -0.02604,0.135417 -0.02604,0.0625 -0.07292,0.109375 -0.04427,0.04427 -0.106771,0.07031 Q 42.265625,63 42.195313,63 h -1.53125 q -0.125,0 -0.26823,-0.02865 Q 40.255208,62.9427 40.117188,62.8802 39.979167,62.8151 39.848958,62.718742 39.721354,62.619782 39.625,62.481763 39.52865,62.341138 39.46875,62.158846 39.41146,61.976554 39.41146,61.747388 v -1.5625 h 0.677084 v 1.5625 q 0,0.132812 0.04427,0.239583 0.04687,0.104167 0.125,0.179688 0.07813,0.07552 0.182291,0.117187 0.106771,0.03906 0.229167,0.03906 h 1.184896 v -2.138021 h 0.677083 z"
       style="fill:#dcdcdc;fill-opacity:1"
       id="path1078"
       inkscape:connector-curvature="0" />
    <path
       d="M 45.731771,60.861979 H 44.54948 V 63 h -0.684896 v -2.138021 h -0.880209 v -0.677083 h 0.880209 v -0.919271 h 0.684896 v 0.919271 h 1.182291 z"
       style="fill:#dcdcdc;fill-opacity:1"
       id="path1080"
       inkscape:connector-curvature="0" />
  </g>
  <g
     aria-label="Seq-8"
     style="font-style:normal;font-variant:normal;font-weight:normal;font-stretch:normal;font-size:5.33333349px;line-height:1.25;font-family:Audiowide;-inkscape-font-specification:Audiowide;letter-spacing:0px;word-spacing:0px;fill:#dcdcdc;fill-opacity:1;stroke:none"
     id="text976">
    <path
       d="m 14.695313,19.203125 q 0,0.601562 -0.15625,1.085937 -0.148438,0.476563 -0.398438,0.84375 -0.25,0.367188 -0.585937,0.625 -0.335938,0.257813 -0.695313,0.421875 Q 12.5,22.34375 12.125,22.421875 11.757813,22.5 11.429688,22.5 H 3.59375 v -2.03125 h 7.835938 q 0.585937,0 0.90625,-0.34375 0.328125,-0.34375 0.328125,-0.921875 0,-0.28125 -0.08594,-0.515625 -0.08594,-0.234375 -0.25,-0.40625 -0.15625,-0.171875 -0.390625,-0.265625 -0.226562,-0.09375 -0.507812,-0.09375 H 6.7578125 q -0.4921875,0 -1.0625,-0.171875 Q 5.125,17.570312 4.6328125,17.179687 4.1484375,16.789062 3.8203125,16.15625 3.5,15.523438 3.5,14.609375 q 0,-0.914062 0.3203125,-1.539062 0.328125,-0.632813 0.8125,-1.023438 0.4921875,-0.398437 1.0625,-0.570312 0.5703125,-0.179688 1.0625,-0.179688 h 6.9140625 v 2.03125 H 6.7578125 q -0.578125,0 -0.90625,0.351563 Q 5.53125,14.03125 5.53125,14.609375 q 0,0.585938 0.3203125,0.929688 0.328125,0.335937 0.90625,0.335937 h 4.6718755 0.01563 q 0.328125,0.0078 0.695312,0.09375 0.367188,0.07813 0.726563,0.25 0.367187,0.171875 0.695312,0.4375 0.328125,0.257812 0.578125,0.625 0.257813,0.367187 0.40625,0.84375 0.148438,0.476562 0.148438,1.078125 z"
       style="font-size:16px;fill:#dcdcdc;fill-opacity:1"
       id="path1083" />
    <path
       d="m 25.257812,16.851562 q 0,0.421875 -0.148437,0.914063 -0.148438,0.484375 -0.484375,0.90625 -0.328125,0.414062 -0.867188,0.695312 -0.53125,0.28125 -1.296875,0.28125 H 18.796875 V 17.71875 h 3.664062 q 0.414063,0 0.640625,-0.25 0.226563,-0.257813 0.226563,-0.632813 0,-0.398437 -0.257813,-0.625 -0.25,-0.226562 -0.609375,-0.226562 h -3.664062 q -0.414063,0 -0.640625,0.257812 -0.226563,0.25 -0.226563,0.625 v 2.835938 q 0,0.40625 0.25,0.632812 Q 18.4375,20.5625 18.8125,20.5625 h 3.648437 V 22.5 H 18.796875 Q 18.375,22.5 17.882812,22.351562 17.398437,22.203125 16.976562,21.875 16.5625,21.539062 16.28125,21.007812 16,20.46875 16,19.703125 v -2.851563 q 0,-0.421875 0.148437,-0.906249 0.148438,-0.492188 0.476563,-0.90625 0.335937,-0.421875 0.867187,-0.703125 0.539063,-0.28125 1.304688,-0.28125 h 3.664062 q 0.421875,0 0.90625,0.148437 0.492188,0.148438 0.90625,0.484375 0.421875,0.328125 0.703125,0.867188 0.28125,0.531249 0.28125,1.296874 z"
       style="font-size:16px;fill:#dcdcdc;fill-opacity:1"
       id="path1085" />
    <path
       d="m 35.828125,25.140625 h -2.03125 v -8.242188 q 0,-0.398437 -0.203125,-0.601562 -0.203125,-0.210938 -0.617188,-0.210938 H 29.3125 q -0.375,0 -0.59375,0.234375 Q 28.5,16.546875 28.5,16.898437 v 2.75 q 0,0.398438 0.210937,0.609375 0.210938,0.210938 0.617188,0.210938 h 3.648437 V 22.5 H 29.3125 q -0.421875,0 -0.921875,-0.148438 -0.5,-0.148437 -0.929688,-0.484375 Q 27.039062,21.523437 26.75,20.984375 26.46875,20.4375 26.46875,19.648437 v -2.75 q 0,-0.289062 0.0625,-0.609375 0.07031,-0.320312 0.210937,-0.632812 0.140625,-0.320312 0.359375,-0.609375 0.226563,-0.289062 0.539063,-0.507812 0.320312,-0.21875 0.734375,-0.351563 0.414062,-0.132812 0.9375,-0.132812 h 3.664062 q 0.289063,0 0.609375,0.07031 0.328125,0.0625 0.640625,0.203125 0.320313,0.140625 0.609375,0.367188 0.289063,0.21875 0.507813,0.539062 0.21875,0.3125 0.351562,0.726563 0.132813,0.414062 0.132813,0.937499 z"
       style="font-size:16px;fill:#dcdcdc;fill-opacity:1"
       id="path1087" />
    <path
       d="M 44.984375,17.8125 H 37.65625 v -1.828125 h 7.328125 z"
       style="font-size:16px;fill:#dcdcdc;fill-opacity:1"
       id="path1089" />
    <path
       d="m 57.023437,19.648437 q 0,0.289063 -0.07031,0.609375 -0.0625,0.320313 -0.210938,0.640625 -0.140625,0.3125 -0.367187,0.601563 -0.226563,0.289062 -0.546875,0.515625 -0.3125,0.21875 -0.726563,0.351562 Q 54.6875,22.5 54.171875,22.5 h -4.59375 q -0.421875,0 -0.921875,-0.148438 -0.5,-0.148437 -0.929688,-0.484375 -0.421875,-0.34375 -0.710937,-0.882812 -0.28125,-0.546875 -0.28125,-1.335938 v -0.90625 q 0,-0.296875 0.0625,-0.625 0.07031,-0.328125 0.210937,-0.648437 0.148438,-0.320313 0.375,-0.609375 0.226563,-0.289063 0.546875,-0.5 -0.140625,-0.328125 -0.210937,-0.664062 -0.07031,-0.335938 -0.07031,-0.632813 v -0.914062 q 0,-0.78125 0.28125,-1.328125 0.289063,-0.546875 0.710938,-0.882813 0.429687,-0.335937 0.929687,-0.484375 0.5,-0.15625 0.921875,-0.15625 h 2.75 q 0.523438,0 0.9375,0.132813 0.421875,0.132812 0.734375,0.359375 0.320313,0.21875 0.539063,0.507812 0.226562,0.289063 0.367187,0.609375 0.140625,0.3125 0.203125,0.640625 0.07031,0.320313 0.07031,0.601563 V 15.0625 q 0,0.765625 -0.273438,1.328125 0.25,0.164062 0.46875,0.390625 0.21875,0.21875 0.382813,0.507812 0.164062,0.289063 0.257812,0.65625 0.09375,0.359375 0.09375,0.796875 z M 54.0625,14.164063 q 0,-0.414063 -0.210938,-0.625 -0.210937,-0.210938 -0.609375,-0.210938 h -2.734375 q -0.414062,0 -0.617187,0.210938 Q 49.695312,13.75 49.695312,14.148438 V 15.0625 q 0,0.40625 0.203125,0.609375 0.210938,0.203125 0.59375,0.203125 h 2.75 q 0.414063,0 0.617188,-0.203125 Q 54.0625,15.460938 54.0625,15.0625 Z m 0.90625,4.578124 q 0,-0.390625 -0.21875,-0.601562 -0.210938,-0.21875 -0.578125,-0.21875 h -4.59375 q -0.375,0 -0.59375,0.234375 -0.21875,0.234375 -0.21875,0.585937 v 0.90625 q 0,0.375 0.226562,0.601563 0.234375,0.21875 0.585938,0.21875 h 4.59375 q 0.390625,0 0.59375,-0.234375 Q 54.96875,20 54.96875,19.648437 Z"
       style="font-size:16px;fill:#dcdcdc;fill-opacity:1"
       id="path1091" />
  </g>
</svg>
