<?xml version="1.0" encoding="UTF-8" standalone="no"?>
<!-- Created with Inkscape (http://www.inkscape.org/) -->

<svg
   xmlns:dc="http://purl.org/dc/elements/1.1/"
   xmlns:cc="http://creativecommons.org/ns#"
   xmlns:rdf="http://www.w3.org/1999/02/22-rdf-syntax-ns#"
   xmlns:svg="http://www.w3.org/2000/svg"
   xmlns="http://www.w3.org/2000/svg"
   xmlns:xlink="http://www.w3.org/1999/xlink"
   xmlns:sodipodi="http://sodipodi.sourceforge.net/DTD/sodipodi-0.dtd"
   xmlns:inkscape="http://www.inkscape.org/namespaces/inkscape"
   width="90"
   height="380"
   viewBox="0 0 23.812501 100.54167"
   version="1.1"
   id="svg8"
   inkscape:version="0.91 r13725"
   sodipodi:docname="Rakes.svg">
  <defs
     id="defs2">
    <inkscape:perspective
       id="perspective4197"
       inkscape:persp3d-origin="240 : 126.66667 : 1"
       inkscape:vp_z="480.00001 : 190 : 1"
       inkscape:vp_y="0 : 1000 : 0"
       inkscape:vp_x="0 : 190 : 1"
       sodipodi:type="inkscape:persp3d" />
    <linearGradient
       id="linearGradient4189"
       inkscape:collect="always">
      <stop
         id="stop4191"
         offset="0"
         style="stop-color:#ffffff;stop-opacity:1" />
      <stop
         id="stop4193"
         offset="1"
         style="stop-color:#000000;stop-opacity:0;" />
    </linearGradient>
    <linearGradient
       id="linearGradient5349"
       inkscape:collect="always">
      <stop
         id="stop5351"
         offset="0"
         style="stop-color:#fdfdfd;stop-opacity:1;" />
      <stop
         id="stop5353"
         offset="1"
         style="stop-color:#fdfdfd;stop-opacity:1" />
    </linearGradient>
    <radialGradient
       gradientUnits="userSpaceOnUse"
       gradientTransform="matrix(0.42180436,0,0,0.0267339,-105.98218,272.19192)"
       r="69.826797"
       fy="856.052"
       fx="285.49445"
       cy="856.052"
       cx="285.49445"
       id="radialGradient5357"
       xlink:href="#linearGradient5349"
       inkscape:collect="always" />
    <linearGradient
       gradientUnits="userSpaceOnUse"
       y2="832.53247"
       x2="279.91516"
       y1="830.88361"
       x1="268.96658"
       id="linearGradient4195"
       xlink:href="#linearGradient4189"
       inkscape:collect="always"
       gradientTransform="matrix(0.26458334,0,0,0.26458334,-59.861442,72.341009)" />
    <clipPath
       clipPathUnits="userSpaceOnUse"
       id="clipPath4281">
      <rect
         style="fill:#606060;fill-opacity:1"
         id="rect4283"
         width="90.000008"
         height="35.447765"
         x="173.6577"
         y="34.717056"
         rx="1.3127902"
         ry="1.1877702" />
    </clipPath>
    <clipPath
       clipPathUnits="userSpaceOnUse"
       id="clipPath4285">
      <rect
         style="fill:#606060;fill-opacity:1"
         id="rect4287"
         width="23.812502"
         height="9.3788881"
         x="0"
         y="287.62112"
         rx="0.3473424"
         ry="0.31426421" />
    </clipPath>
    <clipPath
       clipPathUnits="userSpaceOnUse"
       id="clipPath4289">
      <rect
         style="fill:#606060;fill-opacity:1"
         id="rect4291"
         width="23.812502"
         height="9.3788881"
         x="0"
         y="287.62112"
         rx="0.3473424"
         ry="0.31426421" />
    </clipPath>
    <clipPath
       clipPathUnits="userSpaceOnUse"
       id="clipPath4293">
      <rect
         style="fill:#606060;fill-opacity:1"
         id="rect4295"
         width="99.864166"
         height="39.332905"
         x="216.69804"
         y="-26.63768"
         rx="1.4566743"
         ry="1.3179519" />
    </clipPath>
    <clipPath
       clipPathUnits="userSpaceOnUse"
       id="clipPath4297">
      <rect
         style="fill:#606060;fill-opacity:1"
         id="rect4299"
         width="23.812502"
         height="9.3788881"
         x="0"
         y="287.62112"
         rx="0.3473424"
         ry="0.31426421" />
    </clipPath>
    <clipPath
       clipPathUnits="userSpaceOnUse"
       id="clipPath4301">
      <rect
         style="fill:#606060;fill-opacity:1"
         id="rect4303"
         width="23.812502"
         height="9.3788881"
         x="0"
         y="287.62112"
         rx="0.3473424"
         ry="0.31426421" />
    </clipPath>
  </defs>
  <sodipodi:namedview
     id="base"
     pagecolor="#ffffff"
     bordercolor="#666666"
     borderopacity="1.0"
     inkscape:pageopacity="0.0"
     inkscape:pageshadow="2"
     inkscape:zoom="2.6710526"
     inkscape:cx="45"
     inkscape:cy="190"
     inkscape:document-units="mm"
     inkscape:current-layer="layer1"
     showgrid="false"
     units="px"
     inkscape:snap-bbox="true"
     inkscape:snap-page="true"
     inkscape:bbox-nodes="true"
     inkscape:snap-bbox-edge-midpoints="true"
     inkscape:window-width="844"
     inkscape:window-height="1181"
     inkscape:window-x="859"
     inkscape:window-y="44"
     inkscape:window-maximized="0"
     inkscape:showpageshadow="false"
     borderlayer="true"
     inkscape:snap-global="false" />
  <metadata
     id="metadata5">
    <rdf:RDF>
      <cc:Work
         rdf:about="">
        <dc:format>image/svg+xml</dc:format>
        <dc:type
           rdf:resource="http://purl.org/dc/dcmitype/StillImage" />
        <dc:title />
      </cc:Work>
    </rdf:RDF>
  </metadata>
  <g
     inkscape:label="Layer 1"
     inkscape:groupmode="layer"
     id="layer1"
     transform="translate(0,-196.45832)"
     style="display:inline">
    <path
       style="opacity:1;fill:#000000;fill-opacity:1;fill-rule:evenodd;stroke:none;stroke-width:0.48607069;stroke-linecap:butt;stroke-linejoin:round;stroke-miterlimit:4;stroke-dasharray:none;stroke-dashoffset:0;stroke-opacity:1;paint-order:normal"
       d="m 0,196.45831 23.812502,0 0,100.54168 -23.812502,0 z"
       id="rect817"
       inkscape:connector-curvature="0" />
    <path
       style="opacity:1;fill:#4d4d4d;fill-opacity:1;stroke:none;stroke-width:0.26458335;stroke-miterlimit:4;stroke-dasharray:none;stroke-opacity:1"
       d="m 13.865719,274.00462 5.573621,0 c 0.584177,0 1.054469,0.66291 1.054469,1.48633 l 0,11.96873 c 0,0.82344 -0.470292,1.48633 -1.054469,1.48633 l -5.573621,0 c -0.584176,0 -1.054469,-0.66289 -1.054469,-1.48633 l 0,-11.96873 c 0,-0.82342 0.470293,-1.48633 1.054469,-1.48633 z"
       id="rect10365"
       inkscape:connector-curvature="0" />
    <g
       style="font-style:normal;font-weight:normal;font-size:2.64583373px;line-height:125%;font-family:sans-serif;letter-spacing:0px;word-spacing:0px;fill:#ffffff;fill-opacity:1;stroke:none;stroke-width:1px;stroke-linecap:butt;stroke-linejoin:miter;stroke-opacity:1"
       id="text3791"
       transform="translate(6.1046532,-11.75074)">
      <path
         d="m 9.074568,292.41333 q -0.2842205,0 -0.4521689,0.21187 -0.1666565,0.21188 -0.1666565,0.57749 0,0.36432 0.1666565,0.57619 0.1679484,0.21187 0.4521689,0.21187 0.2842204,0 0.449585,-0.21187 0.1666565,-0.21187 0.1666565,-0.57619 0,-0.36561 -0.1666565,-0.57749 -0.1653646,-0.21187 -0.449585,-0.21187 z m 0,-0.21187 q 0.40566,0 0.6485393,0.27259 0.2428792,0.2713 0.2428792,0.72864 0,0.45604 -0.2428792,0.72864 -0.2428793,0.2713 -0.6485393,0.2713 -0.406952,0 -0.6511232,-0.2713 -0.2428793,-0.27131 -0.2428793,-0.72864 0,-0.45734 0.2428793,-0.72864 0.2441712,-0.27259 0.6511232,-0.27259 z"
         id="path4704"
         inkscape:connector-curvature="0" />
      <path
         d="m 10.344516,292.23634 0.262258,0 0,1.17176 q 0,0.31006 0.112397,0.447 0.112396,0.13565 0.364319,0.13565 0.25063,0 0.363027,-0.13565 0.112396,-0.13694 0.112396,-0.447 l 0,-1.17176 0.262258,0 0,1.20406 q 0,0.37724 -0.187327,0.56973 -0.186036,0.1925 -0.550354,0.1925 -0.365611,0 -0.552938,-0.1925 -0.186036,-0.19249 -0.186036,-0.56973 l 0,-1.20406 z"
         id="path4706"
         inkscape:connector-curvature="0" />
      <path
         d="m 12.044671,292.23634 1.631684,0 0,0.21962 -0.684713,0 0,1.7092 -0.262258,0 0,-1.7092 -0.684713,0 0,-0.21962 z"
         id="path4708"
         inkscape:connector-curvature="0" />
    </g>
    <g
       style="font-style:normal;font-weight:normal;font-size:2.64583349px;line-height:125%;font-family:sans-serif;letter-spacing:0px;word-spacing:0px;fill:#ffffff;fill-opacity:1;stroke:none;stroke-width:1px;stroke-linecap:butt;stroke-linejoin:miter;stroke-opacity:1"
       id="text4211"
       transform="matrix(0.9326758,0,0,0.9326758,0.34805296,-17.321773)">
      <path
         d="m 3.068473,249.91131 0.4263306,0 0,-1.47149 -0.4637961,0.093 0,-0.23771 0.4612122,-0.093 0.260966,0 0,1.7092 0.4263306,0 0,0.21963 -1.1110433,0 0,-0.21963 z"
         id="path4233"
         inkscape:connector-curvature="0" />
      <path
         d="m 5.1820392,250.13094 -0.7363892,-1.92883 0.2725932,0 0.6110739,1.62393 0.6123657,-1.62393 0.2713013,0 -0.7350973,1.92883 -0.2958476,0 z"
         id="path4235"
         inkscape:connector-curvature="0" />
      <path
         d="m 6.9054484,248.20211 0.2196248,0 -0.6717936,2.17429 -0.2196249,0 0.6717937,-2.17429 z"
         id="path4237"
         inkscape:connector-curvature="0" />
      <path
         d="m 8.1702293,248.3791 q -0.2842204,0 -0.4521689,0.21188 -0.1666565,0.21187 -0.1666565,0.57748 0,0.36432 0.1666565,0.57619 0.1679485,0.21188 0.4521689,0.21188 0.2842204,0 0.4495849,-0.21188 0.1666566,-0.21187 0.1666566,-0.57619 0,-0.36561 -0.1666566,-0.57748 -0.1653645,-0.21188 -0.4495849,-0.21188 z m 0,-0.21187 q 0.40566,0 0.6485392,0.27259 0.2428793,0.27131 0.2428793,0.72864 0,0.45605 -0.2428793,0.72864 -0.2428792,0.2713 -0.6485392,0.2713 -0.406952,0 -0.6511231,-0.2713 -0.2428793,-0.2713 -0.2428793,-0.72864 0,-0.45733 0.2428793,-0.72864 0.2441711,-0.27259 0.6511231,-0.27259 z"
         id="path4239"
         inkscape:connector-curvature="0" />
      <path
         d="m 10.914248,248.35068 0,0.27518 q -0.131775,-0.12273 -0.281637,-0.18345 -0.14857,-0.0607 -0.316518,-0.0607 -0.3307292,0 -0.5064291,0.20283 -0.1756999,0.20154 -0.1756999,0.58394 0,0.38112 0.1756999,0.58395 0.1756999,0.20153 0.5064291,0.20153 0.167948,0 0.316518,-0.0607 0.149862,-0.0607 0.281637,-0.18345 l 0,0.2726 q -0.136943,0.093 -0.29068,0.13952 -0.152446,0.0465 -0.322978,0.0465 -0.4379578,0 -0.6898804,-0.26742 -0.2519226,-0.26872 -0.2519226,-0.73252 0,-0.46509 0.2519226,-0.73251 0.2519226,-0.26872 0.6898804,-0.26872 0.173116,0 0.325562,0.0465 0.153737,0.0452 0.288096,0.13694 z"
         id="path4241"
         inkscape:connector-curvature="0" />
      <path
         d="m 11.052482,248.20211 1.631684,0 0,0.21963 -0.684713,0 0,1.7092 -0.262258,0 0,-1.7092 -0.684713,0 0,-0.21963 z"
         id="path4243"
         inkscape:connector-curvature="0" />
    </g>
    <path
       style="opacity:1;fill:url(#radialGradient5357);fill-opacity:1;stroke:#8b8b8b;stroke-width:0.39687502;stroke-linejoin:miter;stroke-miterlimit:4;stroke-dasharray:none;stroke-opacity:1"
       d="m 31.483446,294.93321 -17.042828,-0.12503 -14.4172474,0.12503 -0.87873195,-4.06419 c 4.80992545,-1.00484 10.76874265,-1.22865 16.17117335,-1.12513 5.71424,0.1095 9.886121,0.46573 17.046366,1.84449 z"
       id="path5329"
       inkscape:connector-curvature="0"
       sodipodi:nodetypes="ccccacc"
       clip-path="url(#clipPath4301)" />
    <g
       transform="matrix(0.26458334,0,0,0.26458334,-58.459936,293.81811)"
       style="font-style:normal;font-variant:normal;font-weight:normal;font-stretch:normal;font-size:10px;line-height:125%;font-family:'Trajan Pro 3';-inkscape-font-specification:'Trajan Pro 3, ';letter-spacing:0px;word-spacing:0px;fill:#000000;fill-opacity:1;stroke:none;stroke-width:1px;stroke-linecap:butt;stroke-linejoin:miter;stroke-opacity:1"
       id="flowRoot4136" />
    <g
       transform="matrix(0.26458334,0,0,0.26458334,-58.459936,115.92228)"
       style="font-style:normal;font-weight:normal;font-size:10px;line-height:125%;font-family:sans-serif;letter-spacing:0px;word-spacing:0px;fill:#000000;fill-opacity:1;stroke:none;stroke-width:1px;stroke-linecap:butt;stroke-linejoin:miter;stroke-opacity:1"
       id="flowRoot5341" />
    <path
       sodipodi:nodetypes="ccccc"
       inkscape:connector-curvature="0"
       id="rect5381"
       d="M -1.0865176e-6,291.9933 C 10.904412,290.78346 21.545669,291.00362 31.750002,292.11599 l -0.03339,3.29649 -31.7166130865176,0 z"
       style="opacity:1;fill:#000000;fill-opacity:1;stroke:none;stroke-width:1.00699997;stroke-linejoin:miter;stroke-miterlimit:4;stroke-dasharray:none;stroke-opacity:1"
       clip-path="url(#clipPath4297)" />
    <g
       transform="matrix(0.23844891,0,0,0.23844891,-51.671412,293.97285)"
       id="g5348"
       clip-path="url(#clipPath4293)">
      <path
         style="fill:#000000;fill-opacity:1;fill-rule:evenodd;stroke:none;stroke-width:1px;stroke-linecap:butt;stroke-linejoin:miter;stroke-opacity:1"
         d="m 291.23228,-10.52707 6.43066,-3.03395 5.95249,-0.742 4.22115,0.51115 5.88653,2.16005 4.68284,4.36955 z"
         id="path4179"
         inkscape:connector-curvature="0" />
      <g
         inkscape:label="Back"
         id="layer2-0"
         transform="translate(109.83831,-148.57805)">
        <g
           inkscape:label="Back"
           id="layer2-5"
           transform="matrix(0.09824765,0,0,0.06980857,176.35705,132.53479)"
           style="stroke:#ffffff;stroke-opacity:1">
          <g
             id="g2838"
             style="stroke:#ffffff;stroke-opacity:1" />
          <g
             id="g2852"
             style="stroke:#ffffff;stroke-opacity:1">
            <path
               d="m 2.1174,188.81 18.113,36.226 65.551,31.913 90.564,13.8 94.877,-11.213 60.376,-31.913 14.663,-30.188 -14.663,-37.951 0.32345,67.923 -33.099,-64.473 -25.876,96.602 -58.651,-80.214 -40.538,91.427 -40.538,-75.902 -46.576,61.239 -17.098,-92.852 -49.316,62.663 6.0376,-89.702 44.241,27.296 63.574,32.218 79.999,-16.819 86.467,-15.957 31.051,-3.6657 -33.27949,-62.050611 1.366,64.853611 -64.689,-74.392 -20.7,91.427 -69.001,-66.198 -75.902,50.026 15.35717,-82.554584 -59.34617,55.816584 24.151,-56.064 34.501,0 81.077,-37.088 -18.975,69.864 89.702,-24.151 62.101,7.7627 -66.314,-54.334 4.2124,46.571 -70.726,-45.713 66.414,-1.725 -53.476,-15.525 -12.938,16.388 -49.164,-6.9001 -66.414,44.851 -33.333,49.416 9.1828,6.6475 -23.288,52.614 z"
               style="color:#000000;fill:none;stroke:#ffffff;stroke-width:2.89188218;stroke-linejoin:bevel;stroke-miterlimit:4;stroke-dasharray:none;stroke-opacity:1"
               sodipodi:nodetypes="ccccccccccccccccccccccccccccccccccccccccccccccccc"
               id="path3614"
               inkscape:connector-curvature="0" />
            <path
               d="M 133.17,195.51 146.16,114.634 84.75317,79.116604 116.834,34.42 l 28.463,-4.3126 32.776,-5.1751 41.401,6.9001 12.938,10.35 47.438,20.7 18.975,34.501 30.188,30.188 2.8032,31.913"
               style="color:#000000;fill:none;stroke:#ffffff;stroke-width:2.89188218;stroke-linejoin:bevel;stroke-miterlimit:4;stroke-dasharray:none;stroke-opacity:1"
               sodipodi:nodetypes="cccccccccccc"
               id="path3616"
               inkscape:connector-curvature="0" />
            <path
               d="M 329.01,126.71 279.85,62.88 220.08,31.83"
               style="color:#000000;fill:none;stroke:#ffffff;stroke-width:2;stroke-linejoin:bevel;stroke-opacity:1"
               sodipodi:nodetypes="ccc"
               id="path3618"
               inkscape:connector-curvature="0" />
            <path
               d="M 1.9262189,188.1862 16.108581,129.83899"
               style="color:#000000;fill:none;stroke:#ffffff;stroke-width:2;stroke-linejoin:bevel;stroke-opacity:1"
               id="path3620"
               inkscape:connector-curvature="0"
               sodipodi:nodetypes="cc" />
          </g>
        </g>
      </g>
      <path
         style="fill:none;fill-rule:evenodd;stroke:#ffffff;stroke-width:0.2;stroke-linecap:butt;stroke-linejoin:miter;stroke-miterlimit:4;stroke-dasharray:none;stroke-opacity:1"
         d="m 320.18675,-2.24965 -1.66538,-4.93018"
         id="path4177"
         inkscape:connector-curvature="0" />
      <path
         style="opacity:0;fill:#000000;fill-opacity:1;stroke:none;stroke-width:0.2;stroke-miterlimit:4;stroke-dasharray:none;stroke-opacity:1"
         d="m 320.99471,-0.40290931 a 12.102836,4.2211528 0 0 1 -12.10283,4.22115281 12.102836,4.2211528 0 0 1 -12.10284,-4.22115281 12.102836,4.2211528 0 0 1 12.10284,-4.22115279 12.102836,4.2211528 0 0 1 12.10283,4.22115279 z"
         id="path4183" />
    </g>
    <path
       style="opacity:0;fill:url(#linearGradient4195);fill-opacity:1;stroke:none;stroke-width:0.2;stroke-miterlimit:4;stroke-dasharray:none;stroke-opacity:1"
       clip-path="url(#clipPath4289)"
       d="m 14.199453,292.6152 a 2.800842,1.0121423 0 0 1 -2.800842,1.01215 2.800842,1.0121423 0 0 1 -2.800842,-1.01215 2.800842,1.0121423 0 0 1 2.800842,-1.01214 2.800842,1.0121423 0 0 1 2.800842,1.01214 z"
       id="path4187" />
    <path
       sodipodi:nodetypes="cccccccccc"
       inkscape:connector-curvature="0"
       id="path4209"
       d="m 2.826339,292.08697 3.7196502,-1.53131 0.7579386,0.60829 1.1077655,-0.7832 2.2155227,0.29151 0.932852,-0.34981 3.023931,0.97939 -1.041619,0.47818 -9.5034344,0.29152 z"
       style="fill:#000000;fill-opacity:1;fill-rule:evenodd;stroke:none;stroke-width:1px;stroke-linecap:butt;stroke-linejoin:miter;stroke-opacity:1"
       clip-path="url(#clipPath4285)" />
    <g
       id="layer2"
       inkscape:label="Layer 2"
       transform="matrix(0.26458334,0,0,0.26458334,-59.404877,294.76305)" />
    <g
       style="font-style:normal;font-weight:normal;font-size:1.98437524px;line-height:125%;font-family:sans-serif;letter-spacing:0px;word-spacing:0px;fill:#ffffff;fill-opacity:1;stroke:none;stroke-width:1px;stroke-linecap:butt;stroke-linejoin:miter;stroke-opacity:1"
       id="text4305">
      <path
         d="m 2.8350985,295.14013 0,0.16859 q -0.075577,-0.0387 -0.1569672,-0.0581 -0.08139,-0.0194 -0.1685944,-0.0194 -0.1327438,0 -0.1996002,0.0407 -0.065888,0.0407 -0.065888,0.12209 0,0.062 0.047478,0.0979 0.047478,0.0349 0.1908798,0.0669 l 0.061043,0.0136 q 0.1899109,0.0407 0.2693634,0.11531 0.080422,0.0736 0.080422,0.20638 0,0.15115 -0.1201477,0.23933 -0.1191788,0.0882 -0.3284684,0.0882 -0.087204,0 -0.1821594,-0.0174 -0.093987,-0.0165 -0.1986314,-0.0504 l 0,-0.18409 q 0.098831,0.0514 0.1947556,0.0775 0.095924,0.0252 0.1899109,0.0252 0.1259614,0 0.1937867,-0.0426 0.067825,-0.0436 0.067825,-0.12209 0,-0.0727 -0.049416,-0.11142 -0.048447,-0.0388 -0.2141342,-0.0746 l -0.062012,-0.0145 q -0.1656875,-0.0349 -0.2393265,-0.10658 -0.073639,-0.0727 -0.073639,-0.19863 0,-0.15309 0.1085205,-0.23642 0.1085206,-0.0833 0.3081208,-0.0833 0.098831,0 0.1860352,0.0145 0.087204,0.0145 0.1608429,0.0436 z"
         style=""
         id="path4310" />
      <path
         d="m 4.8621068,295.23315 q -0.1434022,0 -0.2267304,0.11239 -0.083328,0.11143 -0.083328,0.30619 0,0.19475 0.082359,0.30715 0.083328,0.11142 0.2276994,0.11142 0.1424331,0 0.2257614,-0.11239 0.083328,-0.1124 0.083328,-0.30618 0,-0.19282 -0.083328,-0.30522 -0.083328,-0.11336 -0.2257614,-0.11336 z m 0,-0.15116 q 0.2325439,0 0.3652878,0.15116 0.1327438,0.15115 0.1327438,0.41858 0,0.26645 -0.1327438,0.41857 -0.1327439,0.15116 -0.3652878,0.15116 -0.233513,0 -0.3662568,-0.15116 -0.1317749,-0.15212 -0.1317749,-0.41857 0,-0.26743 0.1317749,-0.41858 0.1327438,-0.15116 0.3662568,-0.15116 z"
         style=""
         id="path4312" />
      <path
         d="m 6.8997733,295.76509 0,-0.65694 0.1782837,0 0,0.65016 q 0,0.15406 0.060074,0.23157 0.060074,0.0765 0.1802216,0.0765 0.1443711,0 0.2276993,-0.0921 0.084297,-0.092 0.084297,-0.25095 l 0,-0.61528 0.1782837,0 0,1.08521 -0.1782837,0 0,-0.16666 q -0.064919,0.0988 -0.1511536,0.14728 -0.085266,0.0475 -0.1986313,0.0475 -0.1870041,0 -0.2838974,-0.11627 -0.096893,-0.11628 -0.096893,-0.3401 z"
         style=""
         id="path4314" />
      <path
         d="m 9.6176311,294.80003 0,0.30812 0.3672257,0 0,0.13856 -0.3672257,0 0,0.58911 q 0,0.13275 0.035851,0.17054 0.036819,0.0378 0.1482467,0.0378 l 0.1831284,0 0,0.14922 -0.1831284,0 q -0.2063827,0 -0.2848663,-0.0765 -0.078484,-0.0775 -0.078484,-0.28099 l 0,-0.58911 -0.130806,0 0,-0.13856 0.130806,0 0,-0.30812 0.1792526,0 z"
         style=""
         id="path4316" />
      <path
         d="m 12.385873,295.53836 0,0.655 -0.178284,0 0,-0.64919 q 0,-0.15406 -0.06007,-0.2306 -0.06007,-0.0766 -0.180222,-0.0766 -0.144371,0 -0.227699,0.0921 -0.08333,0.092 -0.08333,0.25095 l 0,0.61334 -0.179252,0 0,-1.50766 0.179252,0 0,0.59105 q 0.06395,-0.0979 0.150185,-0.14631 0.0872,-0.0485 0.200569,-0.0485 0.187004,0 0.282929,0.11627 0.09592,0.11531 0.09592,0.3401 z"
         style=""
         id="path4318" />
      <path
         d="m 14.179368,296.03058 0,0.57554 -0.179252,0 0,-1.49797 0.179252,0 0,0.16472 q 0.0562,-0.0969 0.141464,-0.1434 0.08624,-0.0475 0.205414,-0.0475 0.197663,0 0.320717,0.15697 0.124024,0.15697 0.124024,0.41277 0,0.25579 -0.124024,0.41276 -0.123054,0.15697 -0.320717,0.15697 -0.119179,0 -0.205414,-0.0465 -0.08527,-0.0475 -0.141464,-0.14437 z m 0.606552,-0.37885 q 0,-0.1967 -0.08139,-0.30813 -0.08042,-0.11239 -0.221886,-0.11239 -0.141464,0 -0.222854,0.11239 -0.08042,0.11143 -0.08042,0.30813 0,0.19669 0.08042,0.30909 0.08139,0.11142 0.222854,0.11142 0.141465,0 0.221886,-0.11142 0.08139,-0.1124 0.08139,-0.30909 z"
         style=""
         id="path4320" />
      <path
         d="m 16.950518,295.23315 q -0.143402,0 -0.226731,0.11239 -0.08333,0.11143 -0.08333,0.30619 0,0.19475 0.08236,0.30715 0.08333,0.11142 0.227699,0.11142 0.142433,0 0.225761,-0.11239 0.08333,-0.1124 0.08333,-0.30618 0,-0.19282 -0.08333,-0.30522 -0.08333,-0.11336 -0.225761,-0.11336 z m 0,-0.15116 q 0.232544,0 0.365288,0.15116 0.132744,0.15115 0.132744,0.41858 0,0.26645 -0.132744,0.41857 -0.132744,0.15116 -0.365288,0.15116 -0.233513,0 -0.366257,-0.15116 -0.131775,-0.15212 -0.131775,-0.41857 0,-0.26743 0.131775,-0.41858 0.132744,-0.15116 0.366257,-0.15116 z"
         style=""
         id="path4322" />
      <path
         d="m 19.006594,294.6857 0.178284,0 0,1.50766 -0.178284,0 0,-1.50766 z"
         style=""
         id="path4324" />
      <path
         d="m 21.748675,295.60619 0,0.0872 -0.819718,0 q 0.01163,0.1841 0.110459,0.28099 0.0998,0.0959 0.277114,0.0959 0.102707,0 0.198632,-0.0252 0.09689,-0.0252 0.191849,-0.0756 l 0,0.16859 q -0.09593,0.0407 -0.196694,0.062 -0.100769,0.0213 -0.204445,0.0213 -0.259674,0 -0.411796,-0.15116 -0.151154,-0.15115 -0.151154,-0.40888 0,-0.26646 0.143402,-0.42246 0.144371,-0.15697 0.388542,-0.15697 0.218979,0 0.345909,0.14147 0.1279,0.14049 0.1279,0.38273 z m -0.178284,-0.0523 q -0.0019,-0.14631 -0.08236,-0.23351 -0.07945,-0.0872 -0.211228,-0.0872 -0.149216,0 -0.239326,0.0843 -0.08914,0.0843 -0.102707,0.23739 l 0.63562,-9.7e-4 z"
         style=""
         id="path4326" />
    </g>
    <g
       style="font-style:normal;font-variant:normal;font-weight:normal;font-stretch:normal;font-size:3.96875048px;font-family:sans-serif;-inkscape-font-specification:sans-serif;text-align:center;text-anchor:middle;fill:#ffffff;fill-opacity:1;stroke:none;stroke-width:0.52916676;stroke-miterlimit:4;stroke-dasharray:none;stroke-opacity:1"
       id="text4677"
       transform="translate(0.52916672,0.52916675)">
      <path
         d="m 2.0812683,198.64629 q 0.1259613,0.0426 0.2441712,0.18216 0.1201477,0.13952 0.2402954,0.38369 l 0.3972626,0.79065 -0.420517,0 -0.3701325,-0.7422 Q 2.0289459,198.96991 1.8932952,198.87495 1.7595825,198.78 1.5270385,198.78 l -0.4263306,0 0,1.22279 -0.39144905,0 0,-2.89323 0.88366705,0 q 0.4960939,0 0.740265,0.20735 0.2441712,0.20735 0.2441712,0.62593 0,0.27324 -0.1278992,0.45346 -0.1259613,0.18022 -0.3681946,0.24999 z m -0.9805604,-1.21505 0,1.02707 0.492218,0 q 0.2829285,0 0.4263307,-0.12983 0.1453399,-0.13178 0.1453399,-0.38564 0,-0.25386 -0.1453399,-0.38176 -0.1434022,-0.12984 -0.4263307,-0.12984 l -0.492218,0 z"
         style="font-style:normal;font-variant:normal;font-weight:normal;font-stretch:normal;font-family:sans-serif;-inkscape-font-specification:sans-serif;fill:#ffffff;fill-opacity:1;stroke:none;stroke-width:0.52916676;stroke-opacity:1"
         id="path4707"
         inkscape:connector-curvature="0" />
      <path
         d="m 4.3582613,198.91177 q -0.4321442,0 -0.5988008,0.0988 -0.1666565,0.0988 -0.1666565,0.33719 0,0.18991 0.1240235,0.30231 0.1259613,0.11046 0.3410645,0.11046 0.2964935,0 0.4747773,-0.20929 0.1802215,-0.21123 0.1802215,-0.56004 l 0,-0.0795 -0.3546295,0 z m 0.711197,-0.14727 0,1.23829 -0.3565675,0 0,-0.32943 q -0.1220855,0.19766 -0.304245,0.29261 -0.1821594,0.093 -0.4457093,0.093 -0.333313,0 -0.5309754,-0.18603 -0.1957245,-0.18798 -0.1957245,-0.50191 0,-0.36626 0.2441712,-0.55229 0.246109,-0.18604 0.7325135,-0.18604 l 0.4999695,0 0,-0.0349 q 0,-0.24611 -0.1627807,-0.37982 -0.160843,-0.13565 -0.4534608,-0.13565 -0.1860352,0 -0.362381,0.0446 -0.1763459,0.0446 -0.3391266,0.13371 l 0,-0.32944 q 0.1957245,-0.0756 0.3798218,-0.11239 0.1840973,-0.0388 0.3585053,-0.0388 0.4709015,0 0.7034455,0.24417 0.232544,0.24417 0.232544,0.74027 z"
         style="font-style:normal;font-variant:normal;font-weight:normal;font-stretch:normal;font-family:sans-serif;-inkscape-font-specification:sans-serif;fill:#ffffff;fill-opacity:1;stroke:none;stroke-width:0.52916676;stroke-opacity:1"
         id="path4709"
         inkscape:connector-curvature="0" />
      <path
         d="m 5.8039096,196.98747 0.3585053,0 0,1.7809 1.0638887,-0.93599 0.4553986,0 -1.1510927,1.01544 1.1995393,1.15497 -0.4650879,0 -1.102646,-1.06001 0,1.06001 -0.3585053,0 0,-3.01532 z"
         style="font-style:normal;font-variant:normal;font-weight:normal;font-stretch:normal;font-family:sans-serif;-inkscape-font-specification:sans-serif;fill:#ffffff;fill-opacity:1;stroke:none;stroke-width:0.52916676;stroke-opacity:1"
         id="path4711"
         inkscape:connector-curvature="0" />
      <path
         d="m 9.8288579,198.82845 0,0.1744 -1.639435,0 q 0.023254,0.3682 0.2209168,0.56198 0.1996002,0.19185 0.5542298,0.19185 0.2054138,0 0.3972626,-0.0504 0.1937867,-0.0504 0.3836976,-0.15115 l 0,0.33718 q -0.1918488,0.0814 -0.3933869,0.12403 -0.2015381,0.0426 -0.4088898,0.0426 -0.5193482,0 -0.8235933,-0.30231 -0.3023071,-0.3023 -0.3023071,-0.81778 0,-0.53291 0.2868042,-0.84491 0.2887421,-0.31393 0.7770844,-0.31393 0.4379579,0 0.6918184,0.28293 0.2557983,0.28099 0.2557983,0.76546 z M 9.4722905,198.7238 q -0.00388,-0.29262 -0.1647186,-0.46703 -0.1589051,-0.1744 -0.4224549,-0.1744 -0.2984315,0 -0.478653,0.16859 -0.1782837,0.1686 -0.2054139,0.47478 l 1.2712404,-0.002 z"
         style="font-style:normal;font-variant:normal;font-weight:normal;font-stretch:normal;font-family:sans-serif;-inkscape-font-specification:sans-serif;fill:#ffffff;fill-opacity:1;stroke:none;stroke-width:0.52916676;stroke-opacity:1"
         id="path4713"
         inkscape:connector-curvature="0" />
      <path
         d="m 11.789979,197.89633 0,0.33719 q -0.151154,-0.0775 -0.313934,-0.11627 -0.162781,-0.0388 -0.337189,-0.0388 -0.265488,0 -0.399201,0.0814 -0.131775,0.0814 -0.131775,0.24417 0,0.12403 0.09496,0.19573 0.09496,0.0698 0.38176,0.13371 l 0.122085,0.0271 q 0.379822,0.0814 0.538727,0.23061 0.160843,0.14727 0.160843,0.41276 0,0.30231 -0.240295,0.47865 -0.238358,0.17635 -0.656937,0.17635 -0.174408,0 -0.364319,-0.0349 -0.187973,-0.0329 -0.397263,-0.10077 l 0,-0.36819 q 0.197663,0.1027 0.389511,0.15502 0.191849,0.0504 0.379822,0.0504 0.251923,0 0.387574,-0.0853 0.13565,-0.0872 0.13565,-0.24417 0,-0.14534 -0.09883,-0.22285 -0.09689,-0.0775 -0.428268,-0.14922 l -0.124024,-0.0291 q -0.331375,-0.0698 -0.478653,-0.21316 -0.147278,-0.14534 -0.147278,-0.39726 0,-0.30619 0.217041,-0.47284 0.217041,-0.16666 0.616242,-0.16666 0.197662,0 0.37207,0.0291 0.174408,0.0291 0.321686,0.0872 z"
         style="font-style:normal;font-variant:normal;font-weight:normal;font-stretch:normal;font-family:sans-serif;-inkscape-font-specification:sans-serif;fill:#ffffff;fill-opacity:1;stroke:none;stroke-width:0.52916676;stroke-opacity:1"
         id="path4715"
         inkscape:connector-curvature="0" />
    </g>
    <g
       style="font-style:normal;font-variant:normal;font-weight:normal;font-stretch:normal;font-size:1.98437524px;font-family:sans-serif;-inkscape-font-specification:sans-serif;text-align:center;text-anchor:middle;fill:#ffffff;fill-opacity:1;stroke:none;stroke-width:2;stroke-miterlimit:4;stroke-dasharray:none;stroke-opacity:1"
       id="text4681"
       transform="translate(0.52916672,0.52916675)">
      <path
         d="m 1.372861,201.29176 0,0.16859 q -0.075577,-0.0388 -0.1569672,-0.0581 -0.08139,-0.0194 -0.1685944,-0.0194 -0.13274383,0 -0.19960022,0.0407 -0.0658875,0.0407 -0.0658875,0.12209 0,0.062 0.0474777,0.0979 0.0474777,0.0349 0.19087982,0.0668 l 0.061043,0.0136 q 0.1899109,0.0407 0.2693634,0.1153 0.080422,0.0736 0.080422,0.20639 0,0.15115 -0.1201477,0.23932 -0.1191788,0.0882 -0.32846837,0.0882 -0.087204,0 -0.18215944,-0.0174 -0.0939865,-0.0165 -0.19863131,-0.0504 l 0,-0.1841 q 0.0988312,0.0514 0.19475558,0.0775 0.0959244,0.0252 0.18991091,0.0252 0.12596123,0 0.19378663,-0.0426 0.067825,-0.0436 0.067825,-0.12209 0,-0.0727 -0.049416,-0.11143 -0.048447,-0.0387 -0.2141342,-0.0746 l -0.0620117,-0.0145 q -0.16568758,-0.0349 -0.2393265,-0.10658 -0.0736389,-0.0727 -0.0736389,-0.19863 0,-0.15309 0.10852052,-0.23642 0.10852053,-0.0833 0.30812078,-0.0833 0.098831,0 0.1860352,0.0145 0.087204,0.0145 0.1608429,0.0436 z"
         id="path4718"
         inkscape:connector-curvature="0" />
      <path
         d="m 1.8922092,200.95166 0,0.30812 0.3672257,0 0,0.13856 -0.3672257,0 0,0.58911 q 0,0.13274 0.035851,0.17053 0.03682,0.0378 0.1482468,0.0378 l 0.1831284,0 0,0.14922 -0.1831284,0 q -0.2063828,0 -0.2848664,-0.0765 -0.078484,-0.0775 -0.078484,-0.28099 l 0,-0.58911 -0.1308059,0 0,-0.13856 0.1308059,0 0,-0.30812 0.1792527,0 z"
         id="path4720"
         inkscape:connector-curvature="0" />
      <path
         d="m 3.4231237,201.75781 0,0.0872 -0.8197175,0 q 0.011627,0.18409 0.1104584,0.28099 0.0998,0.0959 0.2771149,0.0959 0.1027069,0 0.1986313,-0.0252 0.096893,-0.0252 0.1918488,-0.0756 l 0,0.1686 q -0.095924,0.0407 -0.1966935,0.062 -0.100769,0.0213 -0.2044449,0.0213 -0.2596741,0 -0.4117966,-0.15116 -0.1511536,-0.15115 -0.1511536,-0.40889 0,-0.26646 0.1434021,-0.42245 0.1443711,-0.15697 0.3885423,-0.15697 0.2189789,0 0.3459091,0.14146 0.1278992,0.1405 0.1278992,0.38273 z M 3.24484,201.70549 q -0.00194,-0.14631 -0.082359,-0.23351 -0.079453,-0.0872 -0.2112275,-0.0872 -0.1492157,0 -0.2393265,0.0843 -0.089142,0.0843 -0.1027069,0.23739 l 0.6356202,-9.7e-4 z"
         id="path4722"
         inkscape:connector-curvature="0" />
      <path
         d="m 4.3407036,201.42644 q -0.030037,-0.0174 -0.065888,-0.0252 -0.034882,-0.009 -0.077515,-0.009 -0.1511535,0 -0.2325439,0.0988 -0.080422,0.0979 -0.080422,0.28196 l 0,0.57167 -0.1792526,0 0,-1.08521 0.1792526,0 0,0.1686 q 0.056198,-0.0988 0.1463089,-0.14631 0.090111,-0.0485 0.2189789,-0.0485 0.01841,0 0.040695,0.003 0.022285,0.002 0.049416,0.007 l 9.69e-4,0.18313 z"
         id="path4724"
         inkscape:connector-curvature="0" />
      <path
         d="m 5.4171883,201.75781 0,0.0872 -0.8197175,0 q 0.011627,0.18409 0.1104584,0.28099 0.0998,0.0959 0.2771149,0.0959 0.1027069,0 0.1986313,-0.0252 0.096893,-0.0252 0.1918487,-0.0756 l 0,0.1686 q -0.095924,0.0407 -0.1966934,0.062 -0.1007691,0.0213 -0.2044449,0.0213 -0.2596741,0 -0.4117966,-0.15116 -0.1511536,-0.15115 -0.1511536,-0.40889 0,-0.26646 0.1434021,-0.42245 0.1443711,-0.15697 0.3885422,-0.15697 0.2189789,0 0.3459092,0.14146 0.1278992,0.1405 0.1278992,0.38273 z m -0.1782837,-0.0523 q -0.00194,-0.14631 -0.082359,-0.23351 -0.079453,-0.0872 -0.2112274,-0.0872 -0.1492157,0 -0.2393265,0.0843 -0.089142,0.0843 -0.1027069,0.23739 l 0.6356202,-9.7e-4 z"
         id="path4726"
         inkscape:connector-curvature="0" />
      <path
         d="m 6.1283851,201.38477 q -0.1434021,0 -0.2267304,0.1124 -0.083328,0.11143 -0.083328,0.30618 0,0.19476 0.082359,0.30715 0.083328,0.11143 0.2276993,0.11143 0.1424332,0 0.2257614,-0.11239 0.083328,-0.1124 0.083328,-0.30619 0,-0.19282 -0.083328,-0.30521 -0.083328,-0.11337 -0.2257614,-0.11337 z m 0,-0.15115 q 0.232544,0 0.3652878,0.15115 0.1327439,0.15116 0.1327439,0.41858 0,0.26646 -0.1327439,0.41858 -0.1327438,0.15116 -0.3652878,0.15116 -0.2335129,0 -0.3662567,-0.15116 -0.131775,-0.15212 -0.131775,-0.41858 0,-0.26742 0.131775,-0.41858 0.1327438,-0.15115 0.3662567,-0.15115 z"
         id="path4728"
         inkscape:connector-curvature="0" />
      <path
         d="m 8.1815549,201.42644 q -0.030037,-0.0174 -0.065888,-0.0252 -0.034882,-0.009 -0.077515,-0.009 -0.1511535,0 -0.2325439,0.0988 -0.080421,0.0979 -0.080421,0.28196 l 0,0.57167 -0.1792526,0 0,-1.08521 0.1792526,0 0,0.1686 q 0.056198,-0.0988 0.1463089,-0.14631 0.090111,-0.0485 0.2189789,-0.0485 0.01841,0 0.040695,0.003 0.022285,0.002 0.049416,0.007 l 9.69e-4,0.18313 z"
         id="path4730"
         inkscape:connector-curvature="0" />
      <path
         d="m 9.2580396,201.75781 0,0.0872 -0.8197175,0 q 0.011627,0.18409 0.1104584,0.28099 0.0998,0.0959 0.2771149,0.0959 0.1027069,0 0.1986313,-0.0252 0.096893,-0.0252 0.1918487,-0.0756 l 0,0.1686 q -0.095924,0.0407 -0.1966934,0.062 -0.1007691,0.0213 -0.2044449,0.0213 -0.2596741,0 -0.4117966,-0.15116 -0.1511536,-0.15115 -0.1511536,-0.40889 0,-0.26646 0.1434021,-0.42245 0.1443711,-0.15697 0.3885422,-0.15697 0.2189789,0 0.3459092,0.14146 0.1278992,0.1405 0.1278992,0.38273 z m -0.1782837,-0.0523 q -0.00194,-0.14631 -0.082359,-0.23351 -0.079453,-0.0872 -0.2112274,-0.0872 -0.1492157,0 -0.2393265,0.0843 -0.089142,0.0843 -0.1027069,0.23739 l 0.6356202,-9.7e-4 z"
         id="path4732"
         inkscape:connector-curvature="0" />
      <path
         d="m 10.240538,201.29176 0,0.16859 q -0.07558,-0.0388 -0.156967,-0.0581 -0.08139,-0.0194 -0.1685948,-0.0194 -0.1327439,0 -0.1996003,0.0407 -0.065887,0.0407 -0.065887,0.12209 0,0.062 0.047478,0.0979 0.047478,0.0349 0.1908798,0.0668 l 0.061043,0.0136 q 0.1899113,0.0407 0.2693633,0.1153 0.08042,0.0736 0.08042,0.20639 0,0.15115 -0.120148,0.23932 -0.119179,0.0882 -0.3284685,0.0882 -0.087204,0 -0.1821594,-0.0174 -0.093986,-0.0165 -0.1986313,-0.0504 l 0,-0.1841 q 0.098831,0.0514 0.1947556,0.0775 0.095924,0.0252 0.1899109,0.0252 0.1259613,0 0.1937867,-0.0426 0.06782,-0.0436 0.06782,-0.12209 0,-0.0727 -0.04941,-0.11143 -0.04845,-0.0387 -0.2141346,-0.0746 l -0.062012,-0.0145 q -0.1656876,-0.0349 -0.2393265,-0.10658 -0.073639,-0.0727 -0.073639,-0.19863 0,-0.15309 0.1085206,-0.23642 0.1085205,-0.0833 0.3081207,-0.0833 0.098831,0 0.1860358,0.0145 0.0872,0.0145 0.160843,0.0436 z"
         id="path4734"
         inkscape:connector-curvature="0" />
      <path
         d="m 11.004057,201.38477 q -0.143402,0 -0.22673,0.1124 -0.08333,0.11143 -0.08333,0.30618 0,0.19476 0.08236,0.30715 0.08333,0.11143 0.227699,0.11143 0.142433,0 0.225761,-0.11239 0.08333,-0.1124 0.08333,-0.30619 0,-0.19282 -0.08333,-0.30521 -0.08333,-0.11337 -0.225761,-0.11337 z m 0,-0.15115 q 0.232544,0 0.365288,0.15115 0.132744,0.15116 0.132744,0.41858 0,0.26646 -0.132744,0.41858 -0.132744,0.15116 -0.365288,0.15116 -0.233513,0 -0.366257,-0.15116 -0.131775,-0.15212 -0.131775,-0.41858 0,-0.26742 0.131775,-0.41858 0.132744,-0.15115 0.366257,-0.15115 z"
         id="path4736"
         inkscape:connector-curvature="0" />
      <path
         d="m 12.698721,201.68999 0,0.655 -0.178284,0 0,-0.64919 q 0,-0.15406 -0.06007,-0.23061 -0.06007,-0.0765 -0.180221,-0.0765 -0.144371,0 -0.227699,0.0921 -0.08333,0.0921 -0.08333,0.25095 l 0,0.61334 -0.179252,0 0,-1.08521 0.179252,0 0,0.1686 q 0.06395,-0.0979 0.150185,-0.14631 0.0872,-0.0485 0.200569,-0.0485 0.187004,0 0.282929,0.11627 0.09592,0.1153 0.09592,0.3401 z"
         id="path4738"
         inkscape:connector-curvature="0" />
      <path
         d="m 13.549444,201.79948 q -0.216072,0 -0.2994,0.0494 -0.08333,0.0494 -0.08333,0.1686 0,0.0949 0.06201,0.15115 0.06298,0.0552 0.170533,0.0552 0.148246,0 0.237388,-0.10465 0.09011,-0.10561 0.09011,-0.28002 l 0,-0.0397 -0.177315,0 z m 0.355599,-0.0736 0,0.61915 -0.178284,0 0,-0.16472 q -0.06104,0.0988 -0.152122,0.14631 -0.09108,0.0465 -0.222855,0.0465 -0.166657,0 -0.265488,-0.093 -0.09786,-0.094 -0.09786,-0.25096 0,-0.18312 0.122085,-0.27614 0.123055,-0.093 0.366257,-0.093 l 0.249985,0 0,-0.0174 q 0,-0.12306 -0.08139,-0.18991 -0.08042,-0.0678 -0.226731,-0.0678 -0.09302,0 -0.18119,0.0223 -0.08817,0.0223 -0.169564,0.0668 l 0,-0.16471 q 0.09786,-0.0378 0.189911,-0.0562 0.09205,-0.0194 0.179253,-0.0194 0.235451,0 0.351723,0.12209 0.116272,0.12208 0.116272,0.37013 z"
         id="path4740"
         inkscape:connector-curvature="0" />
      <path
         d="m 14.45346,200.95166 0,0.30812 0.367225,0 0,0.13856 -0.367225,0 0,0.58911 q 0,0.13274 0.03585,0.17053 0.03682,0.0378 0.148247,0.0378 l 0.183128,0 0,0.14922 -0.183128,0 q -0.206383,0 -0.284866,-0.0765 -0.07848,-0.0775 -0.07848,-0.28099 l 0,-0.58911 -0.130806,0 0,-0.13856 0.130806,0 0,-0.30812 0.179253,0 z"
         id="path4742"
         inkscape:connector-curvature="0" />
      <path
         d="m 15.476653,201.38477 q -0.143402,0 -0.22673,0.1124 -0.08333,0.11143 -0.08333,0.30618 0,0.19476 0.08236,0.30715 0.08333,0.11143 0.227699,0.11143 0.142433,0 0.225762,-0.11239 0.08333,-0.1124 0.08333,-0.30619 0,-0.19282 -0.08333,-0.30521 -0.08333,-0.11337 -0.225762,-0.11337 z m 0,-0.15115 q 0.232544,0 0.365288,0.15115 0.132744,0.15116 0.132744,0.41858 0,0.26646 -0.132744,0.41858 -0.132744,0.15116 -0.365288,0.15116 -0.233513,0 -0.366257,-0.15116 -0.131775,-0.15212 -0.131775,-0.41858 0,-0.26742 0.131775,-0.41858 0.132744,-0.15115 0.366257,-0.15115 z"
         id="path4744"
         inkscape:connector-curvature="0" />
      <path
         d="m 16.898078,201.42644 q -0.03004,-0.0174 -0.06589,-0.0252 -0.03488,-0.009 -0.07752,-0.009 -0.151154,0 -0.232544,0.0988 -0.08042,0.0979 -0.08042,0.28196 l 0,0.57167 -0.179252,0 0,-1.08521 0.179252,0 0,0.1686 q 0.0562,-0.0988 0.146309,-0.14631 0.09011,-0.0485 0.218979,-0.0485 0.01841,0 0.0407,0.003 0.02229,0.002 0.04941,0.007 l 9.69e-4,0.18313 z"
         id="path4746"
         inkscape:connector-curvature="0" />
    </g>
    <g
       style="font-style:normal;font-variant:normal;font-weight:normal;font-stretch:normal;font-size:2.64583373px;font-family:sans-serif;-inkscape-font-specification:sans-serif;text-align:center;text-anchor:middle;fill:#ffffff;fill-opacity:1;stroke:none;stroke-width:2;stroke-miterlimit:4;stroke-dasharray:none;stroke-opacity:1"
       id="text4685"
       transform="translate(1.0583334,-2.460714)">
      <path
         d="m 16.533066,218.34627 0,-0.51806 -0.42633,0 0,-0.21446 0.684712,0 0,0.82812 q -0.151153,0.10723 -0.333313,0.16278 -0.182159,0.0543 -0.388865,0.0543 -0.452169,0 -0.707967,-0.26355 -0.254507,-0.26484 -0.254507,-0.73639 0,-0.47284 0.254507,-0.73639 0.255798,-0.26484 0.707967,-0.26484 0.188619,0 0.357859,0.0465 0.170533,0.0465 0.313935,0.13694 l 0,0.27776 q -0.144694,-0.12273 -0.307475,-0.18474 -0.162781,-0.062 -0.342356,-0.062 -0.353984,0 -0.532268,0.19766 -0.176992,0.19766 -0.176992,0.58911 0,0.39016 0.176992,0.58782 0.178284,0.19766 0.532268,0.19766 0.138234,0 0.246755,-0.0232 0.10852,-0.0246 0.195078,-0.0749 z"
         id="path4749"
         inkscape:connector-curvature="0" />
      <path
         d="m 17.914119,216.94971 -0.353984,0.95989 0.70926,0 -0.355276,-0.95989 z m -0.147278,-0.25709 0.295848,0 0.735097,1.92882 -0.271301,0 -0.1757,-0.4948 -0.869456,0 -0.1757,0.4948 -0.275177,0 0.736389,-1.92882 z"
         id="path4751"
         inkscape:connector-curvature="0" />
      <path
         d="m 19.078131,216.69262 0.260966,0 0,1.92882 -0.260966,0 0,-1.92882 z"
         id="path4753"
         inkscape:connector-curvature="0" />
      <path
         d="m 19.858445,216.69262 0.3514,0 0.855245,1.6136 0,-1.6136 0.253215,0 0,1.92882 -0.3514,0 -0.855245,-1.61359 0,1.61359 -0.253215,0 0,-1.92882 z"
         id="path4755"
         inkscape:connector-curvature="0" />
    </g>
    <g
       style="font-style:normal;font-variant:normal;font-weight:normal;font-stretch:normal;font-size:2.64583373px;font-family:sans-serif;-inkscape-font-specification:sans-serif;text-align:center;text-anchor:middle;fill:#ffffff;fill-opacity:1;stroke:none;stroke-width:2;stroke-miterlimit:4;stroke-dasharray:none;stroke-opacity:1"
       id="text4689"
       transform="translate(-2.9048011e-8,-0.52916675)">
      <path
         d="m 7.9077864,204.9982 0,1.49991 0.3152263,0 q 0.3992005,0 0.5839438,-0.18086 0.1860352,-0.18087 0.1860352,-0.57103 0,-0.38757 -0.1860352,-0.56715 -0.1847433,-0.18087 -0.5839438,-0.18087 l -0.3152263,0 z m -0.260966,-0.21445 0.5361431,0 q 0.5606893,0 0.8229473,0.23383 0.2622579,0.23255 0.2622579,0.72864 0,0.49868 -0.2635498,0.73251 -0.2635499,0.23384 -0.8216554,0.23384 l -0.5361431,0 0,-1.92882 z"
         id="path4758"
         inkscape:connector-curvature="0" />
      <path
         d="m 9.6828722,204.78375 1.2195638,0 0,0.21962 -0.9585978,0 0,0.57103 0.9185488,0 0,0.21962 -0.9185488,0 0,0.69893 0.9818528,0 0,0.21962 -1.2428188,0 0,-1.92882 z"
         id="path4760"
         inkscape:connector-curvature="0" />
      <path
         d="m 12.796378,204.93232 0,0.27517 q -0.131775,-0.12273 -0.281637,-0.18345 -0.14857,-0.0607 -0.316518,-0.0607 -0.330729,0 -0.506429,0.20283 -0.1757,0.20154 -0.1757,0.58395 0,0.38111 0.1757,0.58394 0.1757,0.20154 0.506429,0.20154 0.167948,0 0.316518,-0.0607 0.149862,-0.0607 0.281637,-0.18345 l 0,0.27259 q -0.136943,0.093 -0.29068,0.13953 -0.152446,0.0465 -0.322978,0.0465 -0.437958,0 -0.689881,-0.26743 -0.251922,-0.26872 -0.251922,-0.73251 0,-0.46509 0.251922,-0.73252 0.251923,-0.26871 0.689881,-0.26871 0.173116,0 0.325561,0.0465 0.153738,0.0452 0.288097,0.13695 z"
         id="path4762"
         inkscape:connector-curvature="0" />
      <path
         d="m 13.846701,205.04084 -0.353983,0.95989 0.709259,0 -0.355276,-0.95989 z m -0.147278,-0.25709 0.295848,0 0.735097,1.92882 -0.271301,0 -0.1757,-0.4948 -0.869456,0 -0.1757,0.4948 -0.275177,0 0.736389,-1.92882 z"
         id="path4764"
         inkscape:connector-curvature="0" />
      <path
         d="m 14.539166,204.78375 0.280344,0 0.534851,0.79323 0.530976,-0.79323 0.280345,0 -0.682129,1.01027 0,0.91855 -0.262258,0 0,-0.91855 -0.682129,-1.01027 z"
         id="path4766"
         inkscape:connector-curvature="0" />
    </g>
    <g
       style="font-style:normal;font-variant:normal;font-weight:normal;font-stretch:normal;font-size:2.64583373px;font-family:sans-serif;-inkscape-font-specification:sans-serif;text-align:center;text-anchor:middle;fill:#ffffff;fill-opacity:1;stroke:none;stroke-width:2;stroke-miterlimit:4;stroke-dasharray:none;stroke-opacity:1"
       id="text4693"
       transform="translate(4.7625003,5.2916679)">
      <path
         d="m 2.006209,275.23139 0.260966,0 0,1.92883 -0.260966,0 0,-1.92883 z"
         id="path4769"
         inkscape:connector-curvature="0" />
      <path
         d="m 2.7865232,275.23139 0.3513998,0 0.8552451,1.6136 0,-1.6136 0.2532146,0 0,1.92883 -0.3513998,0 -0.8552451,-1.6136 0,1.6136 -0.2532146,0 0,-1.92883 z"
         id="path4771"
         inkscape:connector-curvature="0" />
    </g>
    <g
       style="font-style:normal;font-variant:normal;font-weight:normal;font-stretch:normal;font-size:2.64583373px;font-family:sans-serif;-inkscape-font-specification:sans-serif;text-align:center;text-anchor:middle;fill:#ffffff;fill-opacity:1;stroke:none;stroke-width:2;stroke-miterlimit:4;stroke-dasharray:none;stroke-opacity:1"
       id="text4780"
       transform="translate(1.587501,3.1750007)">
      <path
         d="m 9.7186574,273.06205 0.260966,0 0,1.7092 0.9392196,0 0,0.21963 -1.2001856,0 0,-1.92883 z"
         id="path4789"
         inkscape:connector-curvature="0" />
    </g>
    <g
       style="font-style:normal;font-variant:normal;font-weight:normal;font-stretch:normal;font-size:2.64583373px;font-family:sans-serif;-inkscape-font-specification:sans-serif;text-align:center;text-anchor:middle;fill:#ffffff;fill-opacity:1;stroke:none;stroke-width:2;stroke-miterlimit:4;stroke-dasharray:none;stroke-opacity:1"
       id="text4784"
       transform="translate(1.5875016,1.5875003)">
      <path
         d="m 10.482176,284.21572 q 0.08397,0.0284 0.162781,0.12144 0.0801,0.093 0.160197,0.2558 l 0.264842,0.5271 -0.280345,0 -0.246755,-0.49481 q -0.0956,-0.19378 -0.186035,-0.25709 -0.08914,-0.0633 -0.244171,-0.0633 l -0.2842208,0 0,0.8152 -0.260966,0 0,-1.92883 0.5891118,0 q 0.330729,0 0.49351,0.13824 0.16278,0.13823 0.16278,0.41728 0,0.18216 -0.08527,0.30231 -0.08397,0.12015 -0.245463,0.16666 z m -0.6537068,-0.81003 0,0.68471 0.3281458,0 q 0.188619,0 0.28422,-0.0865 0.09689,-0.0879 0.09689,-0.2571 0,-0.16924 -0.09689,-0.2545 -0.0956,-0.0866 -0.28422,-0.0866 l -0.3281458,0 z"
         id="path4792"
         inkscape:connector-curvature="0" />
    </g>
    <g
       style="font-style:normal;font-variant:normal;font-weight:normal;font-stretch:normal;font-size:2.64583373px;font-family:sans-serif;-inkscape-font-specification:sans-serif;text-align:center;text-anchor:middle;fill:#ffffff;fill-opacity:1;stroke:none;stroke-width:2;stroke-miterlimit:4;stroke-dasharray:none;stroke-opacity:1"
       id="text4794"
       transform="translate(-4.2992146,-1.0583335)">
      <path
         d="m 7.3514468,271.63247 0,1.49991 0.3152263,0 q 0.3992005,0 0.5839437,-0.18087 0.1860352,-0.18087 0.1860352,-0.57103 0,-0.38757 -0.1860352,-0.56715 -0.1847432,-0.18086 -0.5839437,-0.18086 l -0.3152263,0 z m -0.260966,-0.21446 0.536143,0 q 0.5606894,0 0.8229473,0.23384 0.262258,0.23254 0.262258,0.72863 0,0.49868 -0.2635499,0.73252 -0.2635498,0.23383 -0.8216554,0.23383 l -0.536143,0 0,-1.92882 z"
         id="path4803"
         inkscape:connector-curvature="0" />
      <path
         d="m 10.041206,272.44249 q 0.08397,0.0284 0.16278,0.12144 0.0801,0.093 0.160197,0.2558 l 0.264842,0.5271 -0.280345,0 -0.246755,-0.4948 q -0.0956,-0.19379 -0.1860349,-0.25709 -0.089142,-0.0633 -0.2441711,-0.0633 l -0.2842205,0 0,0.81519 -0.260966,0 0,-1.92882 0.5891114,0 q 0.3307291,0 0.4935101,0.13823 0.162781,0.13824 0.162781,0.41729 0,0.18216 -0.08527,0.30231 -0.08398,0.12015 -0.245463,0.16665 z m -0.6537075,-0.81002 0,0.68471 0.3281454,0 q 0.188619,0 0.2842204,-0.0866 0.096894,-0.0879 0.096894,-0.25709 0,-0.16924 -0.096894,-0.25451 -0.095601,-0.0865 -0.2842204,-0.0865 l -0.3281454,0 z"
         id="path4805"
         inkscape:connector-curvature="0" />
      <path
         d="m 10.533424,271.41801 0.280344,0 0.534852,0.79323 0.530975,-0.79323 0.280345,0 -0.682129,1.01027 0,0.91855 -0.262258,0 0,-0.91855 -0.682129,-1.01027 z"
         id="path4807"
         inkscape:connector-curvature="0" />
    </g>
    <g
       style="font-style:normal;font-variant:normal;font-weight:normal;font-stretch:normal;font-size:2.64583373px;font-family:sans-serif;-inkscape-font-specification:sans-serif;text-align:center;text-anchor:middle;fill:#ffffff;fill-opacity:1;stroke:none;stroke-width:2;stroke-miterlimit:4;stroke-dasharray:none;stroke-opacity:1"
       id="text4798"
       transform="translate(-1.6533811,-1.0583335)">
      <path
         inkscape:connector-curvature="0"
         d="m 17.383725,271.41801 0.26355,0 0.40566,1.63039 0.404368,-1.63039 0.293264,0 0.40566,1.63039 0.404368,-1.63039 0.264842,0 -0.484467,1.92882 -0.328145,0 -0.406952,-1.67431 -0.410828,1.67431 -0.328145,0 -0.483175,-1.92882 z"
         id="path4810" />
      <path
         inkscape:connector-curvature="0"
         d="m 20.170377,271.41801 1.219564,0 0,0.21962 -0.958598,0 0,0.57103 0.918549,0 0,0.21962 -0.918549,0 0,0.69893 0.981852,0 0,0.21962 -1.242818,0 0,-1.92882 z"
         id="path4812" />
      <path
         inkscape:connector-curvature="0"
         d="m 21.572101,271.41801 1.631683,0 0,0.21962 -0.684713,0 0,1.7092 -0.262257,0 0,-1.7092 -0.684713,0 0,-0.21962 z"
         id="path4814" />
    </g>
  </g>
</svg>
