<svg id="Layer_1" data-name="Layer 1" xmlns="http://www.w3.org/2000/svg" width="60" height="380" viewBox="0 0 60 380">
  <title>Link</title>
  <rect width="60" height="380" style="fill: #00689a"/>
  <path id="rect6" d="M18.04111,252.17575H41.95889a2.38793,2.38793,0,0,1,2.258,2.4994v38.00121a2.38793,2.38793,0,0,1-2.258,2.4994H18.04111a2.38793,2.38793,0,0,1-2.258-2.4994V254.67515A2.38793,2.38793,0,0,1,18.04111,252.17575Z" style="fill: #fff"/>
  <path id="rect6-2" data-name="rect6" d="M18.04111,298.66127H41.95889a2.38793,2.38793,0,0,1,2.258,2.4994v38.00121a2.38793,2.38793,0,0,1-2.258,2.4994H18.04111a2.38793,2.38793,0,0,1-2.258-2.4994V301.16067A2.38793,2.38793,0,0,1,18.04111,298.66127Z" style="fill: #fff"/>
  <g>
    <g>
      <circle cx="15.8" cy="354.44678" r="5.29999" style="fill: #fff"/>
      <path d="M15.8,354.84677a2.285,2.285,0,0,1-1.2-.8,1.594,1.594,0,0,1-.4-1.2,1.901,1.901,0,0,1,.5-1.3,1.65609,1.65609,0,0,1,1.2-.5,1.61285,1.61285,0,0,1,.9.3,1.34454,1.34454,0,0,1,.6.7,2.95843,2.95843,0,0,1,.2,1h-.7a1.22229,1.22229,0,0,0-.3-.9,1.10088,1.10088,0,0,0-1.9.8.90793.90793,0,0,0,.3.7,1.93375,1.93375,0,0,0,.9.5,9.29492,9.29492,0,0,1,1,.5,1.79371,1.79371,0,0,1,.5.7,2.38816,2.38816,0,0,1,.2.9,1.901,1.901,0,0,1-.5,1.3,1.72763,1.72763,0,0,1-1.3.5,1.92962,1.92962,0,0,1-1-.3,2.33629,2.33629,0,0,1-.7-.7,1.64459,1.64459,0,0,1-.2-1h.7a1.06065,1.06065,0,0,0,1.2,1.2,1.1356,1.1356,0,0,0,.8-.3,1.21662,1.21662,0,0,0,0-1.6C16.6,355.14679,16.2,354.94678,15.8,354.84677Z" style="fill: #00689a"/>
    </g>
    <g>
      <path d="M25.2,351.84677H23.6v5.9h-.7v-5.9H21.3v-.7h3.8Z" style="fill: #fff"/>
      <path d="M28.7,354.64679H26.6v2.3h2.5v.7H25.9v-6.6H29v.7H26.5v2.1h2.1Z" style="fill: #fff"/>
      <path d="M30.5,357.04678h2.4v.7h-3v-6.6h.7Z" style="fill: #fff"/>
      <path d="M34.3,357.04678h2.4v.7h-3v-6.6h.7Z" style="fill: #fff"/>
      <path d="M40.2,356.04678H38.1l-.5,1.7h-.7l1.9-6.6h.6l1.9,6.6h-.7Zm-1.9-.7H40l-.8-3.1Z" style="fill: #fff"/>
      <path d="M43.8,355.04678H42.6v2.7h-.7v-6.6h1.6a1.72763,1.72763,0,0,1,1.3.5,2.06986,2.06986,0,0,1,.5,1.5,2.016,2.016,0,0,1-.3,1.1,2.33691,2.33691,0,0,1-.7.7l1.2,2.8v.1h-.7Zm-1.1-.7h1a1.1356,1.1356,0,0,0,.8-.3,1.5,1.5,0,0,0,0-1.8.98422.98422,0,0,0-.8-.3h-1Z" style="fill: #fff"/>
      <path d="M49.1,354.64679H47v2.3h2.5v.7H46.3v-6.6h3.1v.7H46.9v2.1H49Z" style="fill: #fff"/>
    </g>
  </g>
  <rect x="10.33118" y="18.68498" width="39.33765" height="15.87648" rx="2.28044" ry="2.28044" style="fill: #fff;stroke: #fff;stroke-miterlimit: 10"/>
  <g>
    <path d="M32.63061,23.35321v5.59427H34.551v.94057H31.63128V23.35322Z" style="fill: #00689a"/>
    <path d="M35.73775,23.44124a.61724.61724,0,1,1-.61738.61738.6028.6028,0,0,1,.58786-.61738Q35.723,23.44088,35.73775,23.44124Zm.48,2.32211v4.1247h-.96007V25.76332Z" style="fill: #00689a"/>
    <path d="M37.05265,25.76332h.96007v.38219a1.42081,1.42081,0,0,1,1.117-.48992,1.37941,1.37941,0,0,1,1.215.55838,1.8437,1.8437,0,0,1,.25472,1.14636v2.52772h-.9603V27.59552c0-1.04849-.39186-1.07789-.75431-1.07789-.43112,0-.8721.0588-.8721,1.39141v1.979h-.96006Z" style="fill: #00689a"/>
    <path d="M42.3199,22.7457v4.399l1.34242-1.38135h1.27362l-1.77342,1.7146,1.90085,2.41013h-1.215l-1.35205-1.76354-.17639.17639v1.58715h-.96007V22.7457Z" style="fill: #00689a"/>
    <path d="M22.50038,23.3489a.10689.10689,0,0,0-.09155.09988v.71558a.10886.10886,0,0,0,.09155.1082h6.34888a.10321.10321,0,0,0,.09995-.10636l-.00007-.00184v-.71558a.10121.10121,0,0,0-.09988-.09988Zm0,1.88054a.10689.10689,0,0,0-.09155.09988v.71558a.10886.10886,0,0,0,.09155.1082h6.34888a.10321.10321,0,0,0,.09995-.10636l-.00007-.00184v-.71558a.10121.10121,0,0,0-.09988-.09988Zm0,1.87224a.10689.10689,0,0,0-.09155.09988v.71558a.10886.10886,0,0,0,.09155.1082h6.34888a.10321.10321,0,0,0,.09995-.10636l-.00007-.00184v-.71561a.10121.10121,0,0,0-.09988-.09988Zm0,1.87224a.10689.10689,0,0,0-.09155.09988v.71558a.10886.10886,0,0,0,.09155.1082h6.34888a.10321.10321,0,0,0,.09995-.10636l-.00007-.00184v-.71558a.10121.10121,0,0,0-.09988-.09988Zm-1.01515-5.5251a.10689.10689,0,0,0-.09988-.09155h-.71558a.10886.10886,0,0,0-.1082.09155v6.34888a.1032.1032,0,0,0,.10636.09995l.00184-.00007h.71558a.10121.10121,0,0,0,.09988-.09988Zm-1.88055,0a.10689.10689,0,0,0-.09988-.09155h-.71558a.10886.10886,0,0,0-.1082.09155v6.34888a.1032.1032,0,0,0,.10636.09995l.00123,0,.71619,0a.10121.10121,0,0,0,.09988-.09988Zm-1.87224,0a.10689.10689,0,0,0-.09988-.09155H16.917a.10886.10886,0,0,0-.1082.09155v6.34888a.1032.1032,0,0,0,.10636.09995l.00184-.00007h.71558a.10121.10121,0,0,0,.09988-.09988Zm-1.87224,0a.10689.10689,0,0,0-.09988-.09155h-.71547a.10886.10886,0,0,0-.1082.09155v6.34888a.1032.1032,0,0,0,.10636.09995l.00184-.00007h.71558a.10121.10121,0,0,0,.09988-.09988Z" style="fill: #00689a"/>
  </g>
  <g>
    <path d="M18.43994,68.61035H17.35889v2.48779h-.77734V64.94873h1.72314a1.84129,1.84129,0,0,1,1.36865.4707,1.88532,1.88532,0,0,1,.46436,1.37891,1.91506,1.91506,0,0,1-.251.99463,1.58611,1.58611,0,0,1-.71191.64014l1.19092,2.61426v.05078h-.832Zm-1.08105-.66309h.9375a1.00484,1.00484,0,0,0,.7749-.313,1.18691,1.18691,0,0,0,.28955-.83789q0-1.18506-1.07275-1.18457h-.9292Z" style="fill: #fff"/>
    <path d="M24.12109,68.25586H21.9458v2.1792H24.48v.66309H21.17285V64.94873H24.4375v.66309H21.9458v1.981h2.17529Z" style="fill: #fff"/>
    <path d="M28.1543,69.54395a.94619.94619,0,0,0-.249-.70557,2.55344,2.55344,0,0,0-.89941-.47705,3.90113,3.90113,0,0,1-.99463-.48779,1.73051,1.73051,0,0,1-.51562-.583,1.72967,1.72967,0,0,1,.31689-1.95361,1.75911,1.75911,0,0,1,1.27783-.47266,1.904,1.904,0,0,1,.96289.24121,1.64666,1.64666,0,0,1,.65039.67139,1.99065,1.99065,0,0,1,.228.9458H28.1543a1.29429,1.29429,0,0,0-.27441-.88281.99464.99464,0,0,0-.78955-.3125.97287.97287,0,0,0-.72656.26221,1.00575,1.00575,0,0,0-.25781.73633.8575.8575,0,0,0,.27881.65137,2.47438,2.47438,0,0,0,.86182.46973,2.96794,2.96794,0,0,1,1.29883.73975,1.66534,1.66534,0,0,1,.39063,1.14893,1.55438,1.55438,0,0,1-.48584,1.19727,1.86976,1.86976,0,0,1-1.32178.44971,2.12752,2.12752,0,0,1-.99072-.23437,1.7743,1.7743,0,0,1-.71387-.65869,1.83185,1.83185,0,0,1-.25977-.97363h.77734a1.19266,1.19266,0,0,0,.31885.88672,1.17631,1.17631,0,0,0,.86816.31689,1.0346,1.0346,0,0,0,.76855-.26172A.97548.97548,0,0,0,28.1543,69.54395Z" style="fill: #fff"/>
    <path d="M31.5498,68.03613l1.25879-3.0874h.873l-1.74707,3.856v2.29346h-.77344V68.80469l-1.748-3.856h.87842Z" style="fill: #fff"/>
    <path d="M38.502,71.09814h-.77734L35.2627,66.35938v4.73877h-.77734V64.94873h.77734l2.4707,4.75977V64.94873H38.502Z" style="fill: #fff"/>
    <path d="M43.69727,69.14258a2.27929,2.27929,0,0,1-.55566,1.51416,1.8836,1.8836,0,0,1-1.42578.52588,1.76273,1.76273,0,0,1-1.46973-.70312,3.03652,3.03652,0,0,1-.54492-1.90723V67.45752a2.94533,2.94533,0,0,1,.55957-1.89648,1.8535,1.8535,0,0,1,1.52734-.69678,1.77618,1.77618,0,0,1,1.37891.53223,2.3317,2.3317,0,0,1,.53027,1.52441H42.916a1.9,1.9,0,0,0-.31738-1.07275.99142.99142,0,0,0-.81055-.3208,1.10431,1.10431,0,0,0-.96777.4917,2.55389,2.55389,0,0,0-.33789,1.44238v1.12793a2.69039,2.69039,0,0,0,.31543,1.43164,1.01806,1.01806,0,0,0,.918.49854,1.10982,1.10982,0,0,0,.87012-.2998,1.891,1.891,0,0,0,.33008-1.07715Z" style="fill: #fff"/>
  </g>
  <g>
    <path d="M21.312,129.65967a3.067,3.067,0,0,1-.53662,1.93848,1.82812,1.82812,0,0,1-1.5249.68018,1.85149,1.85149,0,0,1-1.50146-.66113,2.92442,2.92442,0,0,1-.57227-1.86865v-1.15723a3.07176,3.07176,0,0,1,.54492-1.93262,1.819,1.819,0,0,1,1.52051-.69873,1.8407,1.8407,0,0,1,1.51416.66943,3.01821,3.01821,0,0,1,.55566,1.91113Zm-.77295-1.07715a2.63707,2.63707,0,0,0-.31885-1.45068,1.22566,1.22566,0,0,0-1.94287.00635,2.54653,2.54653,0,0,0-.33154,1.41895v1.10254a2.60538,2.60538,0,0,0,.32715,1.436,1.22928,1.22928,0,0,0,1.94092.03809,2.569,2.569,0,0,0,.3252-1.39795Z" style="fill: #fff"/>
    <path d="M25.35791,129.478H23.27979v2.71582h-.77295v-6.14941H25.7085v.66309H23.27979v2.10742h2.07813Z" style="fill: #fff"/>
    <path d="M29.51416,129.478H27.436v2.71582h-.77295v-6.14941h3.20166v.66309H27.436v2.10742h2.07813Z" style="fill: #fff"/>
    <path d="M33.50586,130.63965a.94619.94619,0,0,0-.249-.70557,2.55344,2.55344,0,0,0-.89941-.47705,3.90551,3.90551,0,0,1-.99512-.48779,1.73051,1.73051,0,0,1-.51562-.583,1.72888,1.72888,0,0,1,.31738-1.95361,1.75872,1.75872,0,0,1,1.27734-.47266,1.90268,1.90268,0,0,1,.96289.24121,1.65208,1.65208,0,0,1,.65137.67139,1.98533,1.98533,0,0,1,.22852.9458h-.77832a1.29676,1.29676,0,0,0-.27441-.88281.9957.9957,0,0,0-.79-.3125.97287.97287,0,0,0-.72656.26221,1.00575,1.00575,0,0,0-.25781.73633.85622.85622,0,0,0,.2793.65137,2.46694,2.46694,0,0,0,.86133.46973,2.965,2.965,0,0,1,1.29883.73975,1.66353,1.66353,0,0,1,.3916,1.14893,1.553,1.553,0,0,1-.48633,1.19727,1.871,1.871,0,0,1-1.32227.44971,2.127,2.127,0,0,1-.99023-.23437,1.77562,1.77562,0,0,1-.71436-.65869,1.83185,1.83185,0,0,1-.25977-.97363H31.293a1.19242,1.19242,0,0,0,.31836.88672,1.17707,1.17707,0,0,0,.86816.31689,1.03384,1.03384,0,0,0,.76855-.26172A.97375.97375,0,0,0,33.50586,130.63965Z" style="fill: #fff"/>
    <path d="M38.249,129.35156H36.07324v2.1792h2.53418v.66309H35.30078v-6.14941h3.26465v.66309H36.07324v1.981H38.249Z" style="fill: #fff"/>
    <path d="M43.27539,126.70752H41.65723v5.48633h-.77246v-5.48633H39.27148v-.66309h4.00391Z" style="fill: #fff"/>
  </g>
  <g>
    <path d="M21.499,190.30615a.94619.94619,0,0,0-.249-.70557,2.55343,2.55343,0,0,0-.89941-.47705,3.90113,3.90113,0,0,1-.99463-.48779,1.73051,1.73051,0,0,1-.51562-.583,1.72967,1.72967,0,0,1,.31689-1.95361,1.75911,1.75911,0,0,1,1.27783-.47266,1.904,1.904,0,0,1,.96289.24121,1.64666,1.64666,0,0,1,.65039.67139,1.99065,1.99065,0,0,1,.228.9458H21.499a1.29429,1.29429,0,0,0-.27441-.88281.99464.99464,0,0,0-.78955-.3125.97287.97287,0,0,0-.72656.26221,1.00575,1.00575,0,0,0-.25781.73633.8575.8575,0,0,0,.27881.65137,2.47438,2.47438,0,0,0,.86182.46973,2.96794,2.96794,0,0,1,1.29883.73975,1.66534,1.66534,0,0,1,.39063,1.14893,1.55438,1.55438,0,0,1-.48584,1.19727,1.87,1.87,0,0,1-1.32178.4502,2.12752,2.12752,0,0,1-.99072-.23437,1.77208,1.77208,0,0,1-.71387-.65918,1.83185,1.83185,0,0,1-.25977-.97363h.77734a1.19266,1.19266,0,0,0,.31885.88672,1.17462,1.17462,0,0,0,.86816.31738,1.03658,1.03658,0,0,0,.76855-.26172A.97745.97745,0,0,0,21.499,190.30615Z" style="fill: #fff"/>
    <path d="M24.46875,189.92188l.08008.68848.12256-.6084.98389-4.291h.64648l.95459,4.291.12256.625.08838-.70947.752-4.20654h.77295l-1.2251,6.14941h-.69678l-1.02637-4.48145-.06348-.36328-.063.36328L24.853,191.86035h-.70117l-1.2207-6.14941h.77295Z" style="fill: #fff"/>
    <path d="M30.68994,191.86035H29.917v-6.14941h.77295Z" style="fill: #fff"/>
    <path d="M36.0625,191.86035h-.77734l-2.46191-4.73877v4.73877H32.0459v-6.14941h.77734l2.4707,4.75977v-4.75977h.76855Z" style="fill: #fff"/>
    <path d="M41.249,191.0957l-.13477.16895a2.12305,2.12305,0,0,1-1.707.68066,1.95511,1.95511,0,0,1-1.56445-.66113,2.83185,2.83185,0,0,1-.58105-1.86914v-1.208a3.05176,3.05176,0,0,1,.51758-1.93652,2.18194,2.18194,0,0,1,2.92285-.15625,2.03877,2.03877,0,0,1,.54688,1.39551h-.77246a1.55692,1.55692,0,0,0-.31934-.89746,1.01939,1.01939,0,0,0-.8252-.32275,1.1101,1.1101,0,0,0-.97168.43262,2.48272,2.48272,0,0,0-.32129,1.3833v1.25439a2.43288,2.43288,0,0,0,.35449,1.42578,1.17787,1.17787,0,0,0,1.01855.49658,1.34834,1.34834,0,0,0,.9502-.30322l.11426-.105v-1.4126h-1.124v-.66309H41.249Z" style="fill: #fff"/>
  </g>
  <g>
    <path d="M21.481,337.5127H20.3999V340h-.77734v-6.14941H21.3457a1.84326,1.84326,0,0,1,1.36865.4707,1.88687,1.88687,0,0,1,.46436,1.37891,1.91686,1.91686,0,0,1-.251.99512,1.58509,1.58509,0,0,1-.71191.63965l1.19092,2.61426V340h-.832Zm-1.08105-.66309h.9375a1.00349,1.00349,0,0,0,.7749-.31348,1.18691,1.18691,0,0,0,.28955-.83789q0-1.18506-1.07275-1.18457h-.9292Z" style="fill: #00689a"/>
    <path d="M27.16211,337.1582H24.98682v2.17871H27.521V340H24.21387v-6.14941h3.26465v.66309h-2.4917v1.98145h2.17529Z" style="fill: #00689a"/>
    <path d="M31.19531,338.44629a.94738.94738,0,0,0-.249-.70605,2.54612,2.54612,0,0,0-.89941-.47656,3.90009,3.90009,0,0,1-.99463-.48828,1.72141,1.72141,0,0,1-.51562-.583,1.7289,1.7289,0,0,1,.31689-1.95312,1.75709,1.75709,0,0,1,1.27783-.47266,1.90708,1.90708,0,0,1,.96338.24121,1.64852,1.64852,0,0,1,.65039.6709,1.998,1.998,0,0,1,.22754.94629h-.77734a1.29012,1.29012,0,0,0-.27441-.88281.993.993,0,0,0-.78955-.3125.97264.97264,0,0,0-.72656.26172,1.00652,1.00652,0,0,0-.25781.73633.85676.85676,0,0,0,.27881.65137,2.46646,2.46646,0,0,0,.86182.46973,2.97024,2.97024,0,0,1,1.29932.74023,1.66725,1.66725,0,0,1,.39063,1.14844,1.553,1.553,0,0,1-.48633,1.19727,1.86917,1.86917,0,0,1-1.32178.4502,2.12752,2.12752,0,0,1-.99072-.23437,1.77208,1.77208,0,0,1-.71387-.65918,1.83064,1.83064,0,0,1-.25977-.97363h.77734a1.19266,1.19266,0,0,0,.31885.88672,1.17462,1.17462,0,0,0,.86816.31738,1.03658,1.03658,0,0,0,.76855-.26172A.97626.97626,0,0,0,31.19531,338.44629Z" style="fill: #00689a"/>
    <path d="M35.93848,337.1582h-2.1748v2.17871h2.53418V340H32.99023v-6.14941h3.26465v.66309H33.76367v1.98145h2.1748Z" style="fill: #00689a"/>
    <path d="M40.96582,334.51367H39.34766V340H38.5752v-5.48633H36.96191v-.66309h4.00391Z" style="fill: #00689a"/>
  </g>
  <g>
    <path d="M27.02686,293.52832h-.63379l2.1582-6.67773h.62939Z" style="fill: #00689a"/>
    <path d="M32.792,290.93457h.68359v.6377H32.792V293h-.748v-1.42773H29.72119v-.46l2.28467-4.26172H32.792Zm-2.24316,0h1.49512v-2.92285Z" style="fill: #00689a"/>
  </g>
  <path id="rect6-3" data-name="rect6" d="M18.04111,205.69023H41.95889a2.38793,2.38793,0,0,1,2.258,2.4994v38.00121a2.38793,2.38793,0,0,1-2.258,2.4994H18.04111a2.38793,2.38793,0,0,1-2.258-2.4994V208.18963A2.38793,2.38793,0,0,1,18.04111,205.69023Z" style="fill: #fff"/>
  <g>
    <path d="M27.02686,247.043h-.63379l2.1582-6.67773h.62939Z" style="fill: #00689a"/>
    <path d="M33.40039,246.51465H29.96191v-.56152l1.75293-2.32324a5.15558,5.15558,0,0,0,.55176-.87988,1.76767,1.76767,0,0,0,.15332-.72949,1.28883,1.28883,0,0,0-.22754-.79395.71668.71668,0,0,0-.59961-.30371.8706.8706,0,0,0-.7251.32324,1.47323,1.47323,0,0,0-.25537.93066h-.74756a1.98865,1.98865,0,0,1,.46484-1.37207,1.60106,1.60106,0,0,1,1.26318-.52344,1.51235,1.51235,0,0,1,1.15723.44922,1.67957,1.67957,0,0,1,.42188,1.19727,3.79281,3.79281,0,0,1-.9502,2.1582L30.853,245.877h2.54736Z" style="fill: #00689a"/>
  </g>
  <rect x="5.54492" y="7.21745" width="48.91016" height="365.05208" style="fill: none;stroke: #fff;stroke-miterlimit: 10"/>
  <path d="M18.7454,181.16483a17.79395,17.79395,0,1,1,22.50822,0" style="fill: none;stroke: #fff;stroke-miterlimit: 10"/>
  <path d="M18.7454,120.91092a17.79395,17.79395,0,1,1,22.50822,0" style="fill: none;stroke: #fff;stroke-miterlimit: 10"/>
</svg>
