<?xml version="1.0" encoding="UTF-8" standalone="no"?>
<svg
   xmlns:dc="http://purl.org/dc/elements/1.1/"
   xmlns:cc="http://creativecommons.org/ns#"
   xmlns:rdf="http://www.w3.org/1999/02/22-rdf-syntax-ns#"
   xmlns:svg="http://www.w3.org/2000/svg"
   xmlns="http://www.w3.org/2000/svg"
   xmlns:sodipodi="http://sodipodi.sourceforge.net/DTD/sodipodi-0.dtd"
   xmlns:inkscape="http://www.inkscape.org/namespaces/inkscape"
   id="svg4541"
   version="1.1"
   viewBox="0 0 27.78125 100.54168"
   height="380"
   width="105"
   sodipodi:docname="Distribute4.svg"
   inkscape:version="0.92.1 r15371">
  <sodipodi:namedview
     pagecolor="#ffffff"
     bordercolor="#666666"
     borderopacity="1"
     objecttolerance="10"
     gridtolerance="10"
     guidetolerance="10"
     inkscape:pageopacity="0"
     inkscape:pageshadow="2"
     inkscape:window-width="1920"
     inkscape:window-height="1045"
     id="namedview10"
     showgrid="false"
     units="px"
     inkscape:snap-text-baseline="false"
     inkscape:zoom="5.656854"
     inkscape:cx="13.849435"
     inkscape:cy="372.95231"
     inkscape:window-x="0"
     inkscape:window-y="17"
     inkscape:window-maximized="1"
     inkscape:current-layer="svg4541"
     inkscape:snap-bbox="true"
     inkscape:snap-bbox-edge-midpoints="true"
     inkscape:bbox-nodes="true"
     inkscape:snap-midpoints="true"
     inkscape:snap-smooth-nodes="true"
     inkscape:object-paths="false"
     inkscape:snap-others="true"
     inkscape:snap-nodes="true"
     inkscape:snap-global="true"
     inkscape:snap-object-midpoints="true" />
  <defs
     id="defs4535" />
  <metadata
     id="metadata4538">
    <rdf:RDF>
      <cc:Work
         rdf:about="">
        <dc:format>image/svg+xml</dc:format>
        <dc:type
           rdf:resource="http://purl.org/dc/dcmitype/StillImage" />
        <dc:title></dc:title>
      </cc:Work>
    </rdf:RDF>
  </metadata>
  <rect
     id="rect3743"
     width="27.781252"
     height="100.54167"
     x="0"
     y="1.5804033e-06"
     style="stroke-width:0.26458335;fill:#e6e6e6;fill-opacity:1" />
  <g
     id="g3826"
     style="display:inline">
    <g
       id="text3688"
       style="font-style:normal;font-variant:normal;font-weight:normal;font-stretch:normal;font-size:2.82222247px;line-height:125%;font-family:Courier;-inkscape-font-specification:'Courier, Normal';font-variant-ligatures:normal;font-variant-caps:normal;font-variant-numeric:normal;font-feature-settings:normal;text-align:start;letter-spacing:0px;word-spacing:0px;writing-mode:lr-tb;text-anchor:start;fill:#000000;fill-opacity:1;stroke:none;stroke-width:0.26458335px;stroke-linecap:butt;stroke-linejoin:miter;stroke-opacity:1"
       aria-label="by luckyxxl">
      <path
         inkscape:connector-curvature="0"
         id="path3711"
         style="font-style:normal;font-variant:normal;font-weight:normal;font-stretch:normal;font-size:2.82222247px;font-family:Courier;-inkscape-font-specification:'Courier, Normal';font-variant-ligatures:normal;font-variant-caps:normal;font-variant-numeric:normal;font-feature-settings:normal;text-align:start;writing-mode:lr-tb;text-anchor:start;stroke-width:0.26458335px"
         d="M 9.0514436,4.803625 V 4.9362694 L 9.3110881,4.9221583 V 6.4207584 H 9.0853103 V 6.5534029 H 9.4521992 V 6.3360918 c 0.064911,0.0762 0.2003778,0.2455333 0.4995334,0.2455333 0.3668894,0 0.6208894,-0.3104444 0.6208894,-0.6237111 0,-0.3499556 -0.285045,-0.6293557 -0.6321783,-0.6293557 -0.2060222,0 -0.3668889,0.095956 -0.4826,0.2483556 h -0.00564 V 4.778225 Z m 0.4035779,1.1486445 c 0,-0.2568222 0.2144889,-0.4826 0.4910667,-0.4826 0.2737558,0 0.4741338,0.2257778 0.4741338,0.4854222 0,0.2568223 -0.191912,0.4854223 -0.4713116,0.4854223 -0.2822223,0 -0.4938889,-0.2257778 -0.4938889,-0.4882445 z" />
      <path
         inkscape:connector-curvature="0"
         id="path3713"
         style="font-style:normal;font-variant:normal;font-weight:normal;font-stretch:normal;font-size:2.82222247px;font-family:Courier;-inkscape-font-specification:'Courier, Normal';font-variant-ligatures:normal;font-variant-caps:normal;font-variant-numeric:normal;font-feature-settings:normal;text-align:start;writing-mode:lr-tb;text-anchor:start;stroke-width:0.26458335px"
         d="m 10.797297,5.3398472 v 0.1326445 h 0.172156 l 0.524933,1.0047112 -0.217311,0.3753556 h -0.434623 v 0.1326444 h 0.846667 V 6.8525585 h -0.251178 l 0.790223,-1.3800668 h 0.163689 V 5.3398472 h -0.516467 v 0.1326445 h 0.191911 L 11.57623,6.3304473 11.130319,5.4724917 h 0.194734 V 5.3398472 Z" />
      <path
         inkscape:connector-curvature="0"
         id="path3715"
         style="font-style:normal;font-variant:normal;font-weight:normal;font-stretch:normal;font-size:2.82222247px;font-family:Courier;-inkscape-font-specification:'Courier, Normal';font-variant-ligatures:normal;font-variant-caps:normal;font-variant-numeric:normal;font-feature-settings:normal;text-align:start;writing-mode:lr-tb;text-anchor:start;stroke-width:0.26458335px"
         d="m 14.416003,4.8685361 0.01411,0.1298222 0.460022,-0.033867 V 6.4207584 H 14.39907 v 0.1326445 h 1.123245 V 6.4207584 H 15.031248 V 4.829025 Z" />
      <path
         inkscape:connector-curvature="0"
         id="path3717"
         style="font-style:normal;font-variant:normal;font-weight:normal;font-stretch:normal;font-size:2.82222247px;font-family:Courier;-inkscape-font-specification:'Courier, Normal';font-variant-ligatures:normal;font-variant-caps:normal;font-variant-numeric:normal;font-feature-settings:normal;text-align:start;writing-mode:lr-tb;text-anchor:start;stroke-width:0.26458335px"
         d="m 15.896568,5.3398472 v 0.1326445 h 0.231422 v 0.6152445 c 0,0.2229556 0.07902,0.5051778 0.434622,0.5051778 0.217312,0 0.364067,-0.1241778 0.443089,-0.1947333 v 0.1552222 h 0.369711 V 6.4207584 h -0.2286 V 5.3398472 H 16.76299 v 0.1326445 h 0.242711 v 0.7337778 c -0.1524,0.1693334 -0.299155,0.2455334 -0.454377,0.2455334 -0.282223,0 -0.282223,-0.2906889 -0.282223,-0.3640667 v -0.747889 z" />
      <path
         inkscape:connector-curvature="0"
         id="path3719"
         style="font-style:normal;font-variant:normal;font-weight:normal;font-stretch:normal;font-size:2.82222247px;font-family:Courier;-inkscape-font-specification:'Courier, Normal';font-variant-ligatures:normal;font-variant-caps:normal;font-variant-numeric:normal;font-feature-settings:normal;text-align:start;writing-mode:lr-tb;text-anchor:start;stroke-width:0.26458335px"
         d="m 18.844688,5.3031583 c -0.0085,0.036689 -0.01411,0.067733 -0.01693,0.090311 -0.0028,0.016933 -0.01411,0.062089 -0.02822,0.062089 -0.0028,0 -0.0085,-0.00564 -0.01129,-0.00847 -0.163689,-0.1354667 -0.307622,-0.1495778 -0.414867,-0.1495778 -0.460022,0 -0.674511,0.3443111 -0.674511,0.6462889 0,0.3584223 0.268111,0.6491112 0.663223,0.6491112 0.313266,0 0.564444,-0.1834444 0.6858,-0.2737556 L 18.97451,6.211914 c -0.206022,0.1439333 -0.400756,0.2398889 -0.598311,0.2398889 -0.369711,0 -0.524934,-0.2765778 -0.524934,-0.5108223 0,-0.2427111 0.172156,-0.5023556 0.536223,-0.5023556 0.364066,0 0.409222,0.2144889 0.428977,0.2963334 l 0.01129,0.047978 0.129822,-0.019756 c -0.0056,-0.073378 -0.0085,-0.1326444 -0.0085,-0.1862667 0,-0.098778 0.01693,-0.2032 0.0254,-0.2596444 z" />
      <path
         inkscape:connector-curvature="0"
         id="path3721"
         style="font-style:normal;font-variant:normal;font-weight:normal;font-stretch:normal;font-size:2.82222247px;font-family:Courier;-inkscape-font-specification:'Courier, Normal';font-variant-ligatures:normal;font-variant-caps:normal;font-variant-numeric:normal;font-feature-settings:normal;text-align:start;writing-mode:lr-tb;text-anchor:start;stroke-width:0.26458335px"
         d="m 19.292319,4.8149139 0.01129,0.1326444 0.268111,-0.022578 V 6.4207584 H 19.337474 V 6.5534029 H 19.71283 V 6.0369362 l 0.158044,-0.1213556 c 0.273756,0.254 0.386645,0.3668889 0.502356,0.5051778 H 20.192608 V 6.5534029 H 20.77963 V 6.4207584 h -0.237067 c -0.1016,-0.1298222 -0.335844,-0.3781778 -0.564444,-0.5842 l 0.474133,-0.3640667 h 0.220133 V 5.3398472 h -0.589844 v 0.1326445 h 0.158044 v 0.00564 l -0.527755,0.40076 V 4.778225 Z" />
      <path
         inkscape:connector-curvature="0"
         id="path3723"
         style="font-style:normal;font-variant:normal;font-weight:normal;font-stretch:normal;font-size:2.82222247px;font-family:Courier;-inkscape-font-specification:'Courier, Normal';font-variant-ligatures:normal;font-variant-caps:normal;font-variant-numeric:normal;font-feature-settings:normal;text-align:start;writing-mode:lr-tb;text-anchor:start;stroke-width:0.26458335px"
         d="m 20.950683,5.3398472 v 0.1326445 h 0.172156 l 0.524933,1.0047112 -0.217311,0.3753556 h -0.434622 v 0.1326444 h 0.846666 V 6.8525585 H 21.591328 L 22.38155,5.4724917 h 0.163689 V 5.3398472 h -0.516467 v 0.1326445 h 0.191911 L 21.729617,6.3304473 21.283705,5.4724917 h 0.194734 V 5.3398472 Z" />
      <path
         inkscape:connector-curvature="0"
         id="path3725"
         style="font-style:normal;font-variant:normal;font-weight:normal;font-stretch:normal;font-size:2.82222247px;font-family:Courier;-inkscape-font-specification:'Courier, Normal';font-variant-ligatures:normal;font-variant-caps:normal;font-variant-numeric:normal;font-feature-settings:normal;text-align:start;writing-mode:lr-tb;text-anchor:start;stroke-width:0.26458335px"
         d="m 22.690892,5.3398472 v 0.1326445 h 0.180622 l 0.448734,0.4459111 -0.496711,0.5023556 h -0.174978 v 0.1326445 h 0.555978 V 6.4207584 h -0.197556 l 0.409222,-0.4120444 0.4064,0.4120444 h -0.200377 v 0.1326445 h 0.572911 V 6.4207584 h -0.1778 l -0.508,-0.5023556 0.443089,-0.4459111 h 0.172155 V 5.3398472 h -0.519289 v 0.1326445 h 0.163689 L 23.416203,5.8252695 23.063425,5.4724917 h 0.172156 V 5.3398472 Z" />
      <path
         inkscape:connector-curvature="0"
         id="path3727"
         style="font-style:normal;font-variant:normal;font-weight:normal;font-stretch:normal;font-size:2.82222247px;font-family:Courier;-inkscape-font-specification:'Courier, Normal';font-variant-ligatures:normal;font-variant-caps:normal;font-variant-numeric:normal;font-feature-settings:normal;text-align:start;writing-mode:lr-tb;text-anchor:start;stroke-width:0.26458335px"
         d="m 24.383123,5.3398472 v 0.1326445 h 0.180623 l 0.448733,0.4459111 -0.496711,0.5023556 H 24.34079 v 0.1326445 h 0.555978 V 6.4207584 h -0.197556 l 0.409222,-0.4120444 0.406401,0.4120444 h -0.200378 v 0.1326445 h 0.572911 V 6.4207584 h -0.1778 l -0.508,-0.5023556 0.443089,-0.4459111 h 0.172155 V 5.3398472 h -0.519289 v 0.1326445 h 0.163689 L 25.108434,5.8252695 24.755657,5.4724917 h 0.172155 V 5.3398472 Z" />
      <path
         inkscape:connector-curvature="0"
         id="path3729"
         style="font-style:normal;font-variant:normal;font-weight:normal;font-stretch:normal;font-size:2.82222247px;font-family:Courier;-inkscape-font-specification:'Courier, Normal';font-variant-ligatures:normal;font-variant-caps:normal;font-variant-numeric:normal;font-feature-settings:normal;text-align:start;writing-mode:lr-tb;text-anchor:start;stroke-width:0.26458335px"
         d="m 26.26162,4.8685361 0.01411,0.1298222 0.460023,-0.033867 V 6.4207581 H 26.244686 V 6.5534026 H 27.36793 V 6.4207584 H 26.876865 V 4.829025 Z" />
    </g>
    <g
       aria-label="Distribute4"
       style="font-style:normal;font-variant:normal;font-weight:normal;font-stretch:normal;font-size:3.52777791px;line-height:125%;font-family:'DejaVu Sans';-inkscape-font-specification:'DejaVu Sans, Normal';font-variant-ligatures:normal;font-variant-caps:normal;font-variant-numeric:normal;font-feature-settings:normal;text-align:start;letter-spacing:0px;word-spacing:0px;writing-mode:lr-tb;text-anchor:start;fill:#000000;fill-opacity:1;stroke:none;stroke-width:0.26458335px;stroke-linecap:butt;stroke-linejoin:miter;stroke-opacity:1"
       id="text4562">
      <path
         d="m 1.5979201,1.4350429 v 1.999878 h 0.4203017 q 0.5322673,0 0.7785916,-0.2411567 0.2480469,-0.2411567 0.2480469,-0.7613661 0,-0.5167644 -0.2480469,-0.7561985 Q 2.5504891,1.4350429 2.0182218,1.4350429 Z M 1.2499655,1.1490999 h 0.7148573 q 0.7475858,0 1.097263,0.3117812 0.3496772,0.3100586 0.3496772,0.971517 0,0.6649034 -0.3513998,0.9766846 Q 2.7089635,3.7208638 1.9648228,3.7208638 H 1.2499655 Z"
         style="font-style:normal;font-variant:normal;font-weight:normal;font-stretch:normal;font-size:3.52777791px;font-family:'DejaVu Sans';-inkscape-font-specification:'DejaVu Sans, Normal';font-variant-ligatures:normal;font-variant-caps:normal;font-variant-numeric:normal;font-feature-settings:normal;text-align:start;writing-mode:lr-tb;text-anchor:start;stroke-width:0.26458335px"
         id="path4564"
         inkscape:connector-curvature="0" />
      <path
         d="M 3.9509204,1.7916103 H 4.2678692 V 3.7208638 H 3.9509204 Z m 0,-0.7510309 H 4.2678692 V 1.4419331 H 3.9509204 Z"
         style="font-style:normal;font-variant:normal;font-weight:normal;font-stretch:normal;font-size:3.52777791px;font-family:'DejaVu Sans';-inkscape-font-specification:'DejaVu Sans, Normal';font-variant-ligatures:normal;font-variant-caps:normal;font-variant-numeric:normal;font-feature-settings:normal;text-align:start;writing-mode:lr-tb;text-anchor:start;stroke-width:0.26458335px"
         id="path4566"
         inkscape:connector-curvature="0" />
      <path
         d="M 6.1592266,1.8484544 V 2.1481777 Q 6.0248679,2.0792758 5.8801739,2.0448248 5.7354799,2.0103738 5.5804506,2.0103738 q -0.2359891,0 -0.3548449,0.072347 -0.1171332,0.072347 -0.1171332,0.217041 0,0.110243 0.084405,0.1739773 0.084405,0.062012 0.3393419,0.1188558 L 5.64074,2.6167109 q 0.3376193,0.072347 0.4788682,0.2049832 0.1429715,0.1309136 0.1429715,0.3669026 0,0.2687175 -0.2135959,0.4254694 -0.2118734,0.1567518 -0.5839437,0.1567518 -0.1550293,0 -0.323839,-0.031006 Q 4.9741138,3.7105285 4.7880786,3.6502394 V 3.3229553 q 0.1756999,0.091295 0.3462321,0.1378038 0.1705322,0.044786 0.3376194,0.044786 0.2239312,0 0.3445095,-0.075792 0.1205784,-0.077515 0.1205784,-0.217041 0,-0.1291911 -0.08785,-0.198093 Q 5.7630407,2.9457173 5.468485,2.881983 L 5.3582419,2.8561448 Q 5.0636862,2.7941331 4.9327726,2.6666646 4.801859,2.5374735 4.801859,2.3135423 q 0,-0.2721626 0.1929253,-0.4203017 0.1929254,-0.1481391 0.5477702,-0.1481391 0.1756999,0 0.3307292,0.025838 0.1550293,0.025838 0.2859429,0.077515 z"
         style="font-style:normal;font-variant:normal;font-weight:normal;font-stretch:normal;font-size:3.52777791px;font-family:'DejaVu Sans';-inkscape-font-specification:'DejaVu Sans, Normal';font-variant-ligatures:normal;font-variant-caps:normal;font-variant-numeric:normal;font-feature-settings:normal;text-align:start;writing-mode:lr-tb;text-anchor:start;stroke-width:0.26458335px"
         id="path4568"
         inkscape:connector-curvature="0" />
      <path
         d="M 7.0825124,1.2438401 V 1.7916103 H 7.735358 V 2.0379346 H 7.0825124 v 1.0473091 q 0,0.235989 0.063734,0.3031684 0.065457,0.067179 0.2635498,0.067179 H 7.735358 V 3.7208638 H 7.4097964 q -0.3669026,0 -0.506429,-0.1360813 Q 6.763841,3.4469787 6.763841,3.0852437 V 2.0379346 H 6.5312971 V 1.7916103 H 6.763841 V 1.2438401 Z"
         style="font-style:normal;font-variant:normal;font-weight:normal;font-stretch:normal;font-size:3.52777791px;font-family:'DejaVu Sans';-inkscape-font-specification:'DejaVu Sans, Normal';font-variant-ligatures:normal;font-variant-caps:normal;font-variant-numeric:normal;font-feature-settings:normal;text-align:start;writing-mode:lr-tb;text-anchor:start;stroke-width:0.26458335px"
         id="path4570"
         inkscape:connector-curvature="0" />
      <path
         d="m 9.2718704,2.0878885 q -0.053399,-0.031006 -0.1171332,-0.044786 -0.062012,-0.015503 -0.1378039,-0.015503 -0.2687174,0 -0.4134114,0.1756999 Q 8.4605504,2.3772765 8.4605504,2.7045606 V 3.7208638 H 8.1418791 V 1.7916103 h 0.3186713 v 0.2997233 q 0.099908,-0.1756999 0.2601047,-0.2601047 0.160197,-0.086127 0.3892958,-0.086127 0.032728,0 0.072347,0.00517 0.039619,0.00345 0.08785,0.012058 z"
         style="font-style:normal;font-variant:normal;font-weight:normal;font-stretch:normal;font-size:3.52777791px;font-family:'DejaVu Sans';-inkscape-font-specification:'DejaVu Sans, Normal';font-variant-ligatures:normal;font-variant-caps:normal;font-variant-numeric:normal;font-feature-settings:normal;text-align:start;writing-mode:lr-tb;text-anchor:start;stroke-width:0.26458335px"
         id="path4572"
         inkscape:connector-curvature="0" />
      <path
         d="M 9.6077671,1.7916103 H 9.9247159 V 3.7208638 H 9.6077671 Z m 0,-0.7510309 H 9.9247159 V 1.4419331 H 9.6077671 Z"
         style="font-style:normal;font-variant:normal;font-weight:normal;font-stretch:normal;font-size:3.52777791px;font-family:'DejaVu Sans';-inkscape-font-specification:'DejaVu Sans, Normal';font-variant-ligatures:normal;font-variant-caps:normal;font-variant-numeric:normal;font-feature-settings:normal;text-align:start;writing-mode:lr-tb;text-anchor:start;stroke-width:0.26458335px"
         id="path4574"
         inkscape:connector-curvature="0" />
      <path
         d="m 11.971102,2.7579596 q 0,-0.3496772 -0.144694,-0.5477702 -0.142971,-0.1998156 -0.394463,-0.1998156 -0.251492,0 -0.396186,0.1998156 -0.142971,0.198093 -0.142971,0.5477702 0,0.3496772 0.142971,0.5494927 0.144694,0.198093 0.396186,0.198093 0.251492,0 0.394463,-0.198093 0.144694,-0.1998155 0.144694,-0.5494927 z M 10.892788,2.0844434 q 0.09991,-0.1722548 0.251492,-0.2549371 0.153306,-0.084405 0.36518,-0.084405 0.351399,0 0.570163,0.2790527 0.220486,0.2790528 0.220486,0.7338054 0,0.4547526 -0.220486,0.7338054 -0.218764,0.2790527 -0.570163,0.2790527 -0.211874,0 -0.36518,-0.082682 -0.151585,-0.084405 -0.251492,-0.2566596 v 0.289388 H 10.574116 V 1.0405794 h 0.318672 z"
         style="font-style:normal;font-variant:normal;font-weight:normal;font-stretch:normal;font-size:3.52777791px;font-family:'DejaVu Sans';-inkscape-font-specification:'DejaVu Sans, Normal';font-variant-ligatures:normal;font-variant-caps:normal;font-variant-numeric:normal;font-feature-settings:normal;text-align:start;writing-mode:lr-tb;text-anchor:start;stroke-width:0.26458335px"
         id="path4576"
         inkscape:connector-curvature="0" />
      <path
         d="M 12.792759,2.9594977 V 1.7916103 h 0.316949 v 1.1558296 q 0,0.2738851 0.106798,0.4116889 0.106797,0.1360813 0.320393,0.1360813 0.25666,0 0.404799,-0.1636421 Q 14.09156,3.167926 14.09156,2.8854281 V 1.7916103 h 0.316949 V 3.7208638 H 14.09156 V 3.4245856 q -0.115411,0.1756999 -0.268718,0.2618273 -0.151584,0.084405 -0.353122,0.084405 -0.332452,0 -0.504706,-0.2067057 -0.172255,-0.2067058 -0.172255,-0.6046145 z m 0.797539,-1.2143962 z"
         style="font-style:normal;font-variant:normal;font-weight:normal;font-stretch:normal;font-size:3.52777791px;font-family:'DejaVu Sans';-inkscape-font-specification:'DejaVu Sans, Normal';font-variant-ligatures:normal;font-variant-caps:normal;font-variant-numeric:normal;font-feature-settings:normal;text-align:start;writing-mode:lr-tb;text-anchor:start;stroke-width:0.26458335px"
         id="path4578"
         inkscape:connector-curvature="0" />
      <path
         d="m 15.378302,1.2438401 v 0.5477702 h 0.652846 v 0.2463243 h -0.652846 v 1.0473091 q 0,0.235989 0.06373,0.3031684 0.06546,0.067179 0.26355,0.067179 h 0.325562 v 0.2652723 h -0.325562 q -0.366903,0 -0.506429,-0.1360813 Q 15.059631,3.4469787 15.059631,3.0852437 V 2.0379346 H 14.827087 V 1.7916103 h 0.232544 V 1.2438401 Z"
         style="font-style:normal;font-variant:normal;font-weight:normal;font-stretch:normal;font-size:3.52777791px;font-family:'DejaVu Sans';-inkscape-font-specification:'DejaVu Sans, Normal';font-variant-ligatures:normal;font-variant-caps:normal;font-variant-numeric:normal;font-feature-settings:normal;text-align:start;writing-mode:lr-tb;text-anchor:start;stroke-width:0.26458335px"
         id="path4580"
         inkscape:connector-curvature="0" />
      <path
         d="m 18.099928,2.6769998 v 0.1550294 h -1.457276 q 0.02067,0.327284 0.196371,0.4995388 0.177422,0.1705322 0.492649,0.1705322 0.18259,0 0.353122,-0.044786 0.172255,-0.044786 0.341064,-0.1343587 v 0.2997233 q -0.170532,0.072347 -0.349677,0.1102431 -0.179145,0.037896 -0.363457,0.037896 -0.461643,0 -0.732083,-0.2687175 -0.268718,-0.2687174 -0.268718,-0.7269151 0,-0.4737007 0.254937,-0.7510309 0.25666,-0.2790527 0.690742,-0.2790527 0.389296,0 0.61495,0.251492 0.227376,0.2497694 0.227376,0.6804061 z M 17.782979,2.5839828 Q 17.779579,2.323878 17.636563,2.1688487 17.495314,2.0138194 17.261047,2.0138194 q -0.265272,0 -0.425469,0.1498617 -0.158475,0.1498617 -0.18259,0.4220242 z"
         style="font-style:normal;font-variant:normal;font-weight:normal;font-stretch:normal;font-size:3.52777791px;font-family:'DejaVu Sans';-inkscape-font-specification:'DejaVu Sans, Normal';font-variant-ligatures:normal;font-variant-caps:normal;font-variant-numeric:normal;font-feature-settings:normal;text-align:start;writing-mode:lr-tb;text-anchor:start;stroke-width:0.26458335px"
         id="path4582"
         inkscape:connector-curvature="0" />
      <path
         d="M 19.620938,1.4522684 18.742439,2.825139 h 0.878499 z m -0.09129,-0.3031685 h 0.437528 V 2.825139 h 0.366902 V 3.114527 H 19.967171 V 3.7208638 H 19.620938 V 3.114527 H 18.459941 V 2.7786302 Z"
         style="font-style:normal;font-variant:normal;font-weight:normal;font-stretch:normal;font-size:3.52777791px;font-family:'DejaVu Sans';-inkscape-font-specification:'DejaVu Sans, Normal';font-variant-ligatures:normal;font-variant-caps:normal;font-variant-numeric:normal;font-feature-settings:normal;text-align:start;writing-mode:lr-tb;text-anchor:start;stroke-width:0.26458335px"
         id="path4584"
         inkscape:connector-curvature="0" />
    </g>
  </g>
  <g
     id="g3774"
     style="display:none">
    <path
       inkscape:connector-curvature="0"
       id="path3762"
       d="m 13.971933,13.941478 -9.921875,6.61458"
       style="fill:none;fill-rule:evenodd;stroke:#000000;stroke-width:0.26458335px;stroke-linecap:butt;stroke-linejoin:miter;stroke-opacity:1" />
    <path
       inkscape:connector-curvature="0"
       id="path3764"
       d="m 13.971933,13.941478 -3.307291,6.61458"
       style="fill:none;fill-rule:evenodd;stroke:#000000;stroke-width:0.26458335px;stroke-linecap:butt;stroke-linejoin:miter;stroke-opacity:1" />
    <path
       inkscape:connector-curvature="0"
       id="path3766"
       d="m 13.971933,13.941478 3.307292,6.61458"
       style="fill:none;fill-rule:evenodd;stroke:#000000;stroke-width:0.26458335px;stroke-linecap:butt;stroke-linejoin:miter;stroke-opacity:1" />
    <path
       inkscape:connector-curvature="0"
       id="path3768"
       d="m 13.971933,13.941478 9.921876,6.61458"
       style="fill:none;fill-rule:evenodd;stroke:#000000;stroke-width:0.26458335px;stroke-linecap:butt;stroke-linejoin:miter;stroke-opacity:1" />
  </g>
  <g
     id="g3755"
     style="display:none">
    <path
       style="fill:none;fill-rule:evenodd;stroke:#000000;stroke-width:0.26458335px;stroke-linecap:butt;stroke-linejoin:miter;stroke-opacity:1"
       d="m 17.279225,17.431906 v -3.490118 h 6.665649 v 3.490118"
       id="path3749"
       inkscape:connector-curvature="0"
       sodipodi:nodetypes="cccc" />
    <path
       sodipodi:nodetypes="cccc"
       inkscape:connector-curvature="0"
       id="path3740"
       d="m 4.0499774,17.431809 v -3.490118 h 6.6656486 v 3.490118"
       style="fill:none;fill-rule:evenodd;stroke:#000000;stroke-width:0.26458335px;stroke-linecap:butt;stroke-linejoin:miter;stroke-opacity:1" />
  </g>
  <g
     id="g3889">
    <g
       style="display:inline"
       id="g3862"
       transform="translate(0,68.813952)">
      <path
         style="fill:none;fill-rule:evenodd;stroke:#000000;stroke-width:0.26458335px;stroke-linecap:butt;stroke-linejoin:miter;stroke-opacity:1"
         d="m 17.279225,13.941788 h 6.665649 v 3.490118"
         id="path3854"
         inkscape:connector-curvature="0"
         sodipodi:nodetypes="ccc" />
      <path
         sodipodi:nodetypes="ccc"
         inkscape:connector-curvature="0"
         id="path3856"
         d="M 4.0499774,17.431809 V 13.941691 H 10.715626"
         style="fill:none;fill-rule:evenodd;stroke:#000000;stroke-width:0.26458335px;stroke-linecap:butt;stroke-linejoin:miter;stroke-opacity:1" />
      <path
         inkscape:connector-curvature="0"
         id="path3858"
         d="m 13.971933,13.941478 -3.307291,6.61458"
         style="fill:none;fill-rule:evenodd;stroke:#000000;stroke-width:0.26458335px;stroke-linecap:butt;stroke-linejoin:miter;stroke-opacity:1" />
      <path
         inkscape:connector-curvature="0"
         id="path3860"
         d="m 13.971933,13.941478 3.307292,6.61458"
         style="fill:none;fill-rule:evenodd;stroke:#000000;stroke-width:0.26458335px;stroke-linecap:butt;stroke-linejoin:miter;stroke-opacity:1" />
    </g>
    <g
       style="display:inline"
       id="g3827"
       transform="translate(0,34.418116)">
      <path
         style="fill:none;fill-rule:evenodd;stroke:#000000;stroke-width:0.26458335px;stroke-linecap:butt;stroke-linejoin:miter;stroke-opacity:1"
         d="m 17.279225,13.941788 h 6.665649 v 3.490118"
         id="path3818"
         inkscape:connector-curvature="0"
         sodipodi:nodetypes="ccc" />
      <path
         sodipodi:nodetypes="ccc"
         inkscape:connector-curvature="0"
         id="path3820"
         d="M 4.0499774,17.431809 V 13.941691 H 10.715626"
         style="fill:none;fill-rule:evenodd;stroke:#000000;stroke-width:0.26458335px;stroke-linecap:butt;stroke-linejoin:miter;stroke-opacity:1" />
      <path
         inkscape:connector-curvature="0"
         id="path3822"
         d="m 13.971933,13.941478 -3.307291,6.61458"
         style="fill:none;fill-rule:evenodd;stroke:#000000;stroke-width:0.26458335px;stroke-linecap:butt;stroke-linejoin:miter;stroke-opacity:1" />
      <path
         inkscape:connector-curvature="0"
         id="path3824"
         d="m 13.971933,13.941478 3.307292,6.61458"
         style="fill:none;fill-rule:evenodd;stroke:#000000;stroke-width:0.26458335px;stroke-linecap:butt;stroke-linejoin:miter;stroke-opacity:1" />
    </g>
    <g
       transform="translate(0,51.616034)"
       id="g3837"
       style="display:inline">
      <path
         sodipodi:nodetypes="ccc"
         inkscape:connector-curvature="0"
         id="path3829"
         d="m 17.279225,13.941788 h 6.665649 v 3.490118"
         style="fill:none;fill-rule:evenodd;stroke:#000000;stroke-width:0.26458335px;stroke-linecap:butt;stroke-linejoin:miter;stroke-opacity:1" />
      <path
         style="fill:none;fill-rule:evenodd;stroke:#000000;stroke-width:0.26458335px;stroke-linecap:butt;stroke-linejoin:miter;stroke-opacity:1"
         d="M 4.0499774,17.431809 V 13.941691 H 10.715626"
         id="path3831"
         inkscape:connector-curvature="0"
         sodipodi:nodetypes="ccc" />
      <path
         style="fill:none;fill-rule:evenodd;stroke:#000000;stroke-width:0.26458335px;stroke-linecap:butt;stroke-linejoin:miter;stroke-opacity:1"
         d="m 13.971933,13.941478 -3.307291,6.61458"
         id="path3833"
         inkscape:connector-curvature="0" />
      <path
         style="fill:none;fill-rule:evenodd;stroke:#000000;stroke-width:0.26458335px;stroke-linecap:butt;stroke-linejoin:miter;stroke-opacity:1"
         d="m 13.971933,13.941478 3.307292,6.61458"
         id="path3835"
         inkscape:connector-curvature="0" />
    </g>
    <g
       transform="translate(0,17.220199)"
       id="g3816"
       style="display:inline">
      <path
         sodipodi:nodetypes="ccc"
         inkscape:connector-curvature="0"
         id="path3808"
         d="m 17.279225,13.941788 h 6.665649 v 3.490118"
         style="fill:none;fill-rule:evenodd;stroke:#000000;stroke-width:0.26458335px;stroke-linecap:butt;stroke-linejoin:miter;stroke-opacity:1" />
      <path
         style="fill:none;fill-rule:evenodd;stroke:#000000;stroke-width:0.26458335px;stroke-linecap:butt;stroke-linejoin:miter;stroke-opacity:1"
         d="M 4.0499774,17.431809 V 13.941691 H 10.715626"
         id="path3810"
         inkscape:connector-curvature="0"
         sodipodi:nodetypes="ccc" />
      <path
         style="fill:none;fill-rule:evenodd;stroke:#000000;stroke-width:0.26458335px;stroke-linecap:butt;stroke-linejoin:miter;stroke-opacity:1"
         d="m 13.971933,13.941478 -3.307291,6.61458"
         id="path3812"
         inkscape:connector-curvature="0" />
      <path
         style="fill:none;fill-rule:evenodd;stroke:#000000;stroke-width:0.26458335px;stroke-linecap:butt;stroke-linejoin:miter;stroke-opacity:1"
         d="m 13.971933,13.941478 3.307292,6.61458"
         id="path3814"
         inkscape:connector-curvature="0" />
    </g>
    <g
       transform="translate(0,0.0222807)"
       style="display:inline"
       id="g3799">
      <path
         style="fill:none;fill-rule:evenodd;stroke:#000000;stroke-width:0.26458335px;stroke-linecap:butt;stroke-linejoin:miter;stroke-opacity:1"
         d="m 17.279225,13.941788 h 6.665649 v 3.490118"
         id="path3777"
         inkscape:connector-curvature="0"
         sodipodi:nodetypes="ccc" />
      <path
         sodipodi:nodetypes="ccc"
         inkscape:connector-curvature="0"
         id="path3779"
         d="M 4.0499774,17.431809 V 13.941691 H 10.715626"
         style="fill:none;fill-rule:evenodd;stroke:#000000;stroke-width:0.26458335px;stroke-linecap:butt;stroke-linejoin:miter;stroke-opacity:1" />
      <path
         inkscape:connector-curvature="0"
         id="path3785"
         d="m 13.971933,13.941478 -3.307291,6.61458"
         style="fill:none;fill-rule:evenodd;stroke:#000000;stroke-width:0.26458335px;stroke-linecap:butt;stroke-linejoin:miter;stroke-opacity:1" />
      <path
         inkscape:connector-curvature="0"
         id="path3787"
         d="m 13.971933,13.941478 3.307292,6.61458"
         style="fill:none;fill-rule:evenodd;stroke:#000000;stroke-width:0.26458335px;stroke-linecap:butt;stroke-linejoin:miter;stroke-opacity:1" />
    </g>
  </g>
  <g
     id="layer1"
     inkscape:label="Pins"
     style="display:none">
    <g
       id="g3088"
       transform="matrix(0.27191367,0,0,-0.27191367,-65.704999,518.54402)">
      <path
         inkscape:connector-curvature="0"
         id="path4639"
         style="opacity:1;vector-effect:none;fill:#e7e7e7;fill-opacity:1;fill-rule:nonzero;stroke:#909290;stroke-width:0.97304165;stroke-linecap:butt;stroke-linejoin:miter;stroke-miterlimit:4;stroke-dasharray:none;stroke-dashoffset:0;stroke-opacity:1"
         d="m 293.0229,1844.2559 c -6.335,0 -11.489,5.154 -11.489,11.489 0,6.335 5.154,11.49 11.489,11.49 6.335,0 11.489,-5.155 11.489,-11.49 0,-6.335 -5.154,-11.489 -11.489,-11.489" />
      <path
         inkscape:connector-curvature="0"
         id="path4647"
         style="fill:#e7e7e7;fill-opacity:1;fill-rule:nonzero;stroke:#909290;stroke-width:0.97304165;stroke-miterlimit:4;stroke-dasharray:none;stroke-opacity:1"
         d="m 293.0229,1847.4709 c -4.562,0 -8.274,3.712 -8.274,8.274 0,4.563 3.712,8.275 8.274,8.275 4.562,0 8.274,-3.712 8.274,-8.275 0,-4.562 -3.712,-8.274 -8.274,-8.274" />
      <path
         inkscape:connector-curvature="0"
         id="path4655"
         style="opacity:1;vector-effect:none;fill:#000000;fill-opacity:1;fill-rule:nonzero;stroke:#909290;stroke-width:0.97304165;stroke-linecap:butt;stroke-linejoin:miter;stroke-miterlimit:4;stroke-dasharray:none;stroke-dashoffset:0;stroke-opacity:1"
         d="m 298.1254,1855.7454 c 0,-2.817 -2.285,-5.103 -5.103,-5.103 -2.817,0 -5.102,2.286 -5.102,5.103 0,2.817 2.285,5.103 5.102,5.103 2.818,0 5.103,-2.286 5.103,-5.103" />
    </g>
    <g
       transform="matrix(0.27191367,0,0,-0.27191367,-75.626874,525.1586)"
       id="g3778">
      <path
         d="m 293.0229,1844.2559 c -6.335,0 -11.489,5.154 -11.489,11.489 0,6.335 5.154,11.49 11.489,11.49 6.335,0 11.489,-5.155 11.489,-11.49 0,-6.335 -5.154,-11.489 -11.489,-11.489"
         style="opacity:1;vector-effect:none;fill:#e7e7e7;fill-opacity:1;fill-rule:nonzero;stroke:#909290;stroke-width:0.97304165;stroke-linecap:butt;stroke-linejoin:miter;stroke-miterlimit:4;stroke-dasharray:none;stroke-dashoffset:0;stroke-opacity:1"
         id="path3772"
         inkscape:connector-curvature="0" />
      <path
         d="m 293.0229,1847.4709 c -4.562,0 -8.274,3.712 -8.274,8.274 0,4.563 3.712,8.275 8.274,8.275 4.562,0 8.274,-3.712 8.274,-8.275 0,-4.562 -3.712,-8.274 -8.274,-8.274"
         style="fill:#e7e7e7;fill-opacity:1;fill-rule:nonzero;stroke:#909290;stroke-width:0.97304165;stroke-miterlimit:4;stroke-dasharray:none;stroke-opacity:1"
         id="path3774"
         inkscape:connector-curvature="0" />
      <path
         d="m 298.1254,1855.7454 c 0,-2.817 -2.285,-5.103 -5.103,-5.103 -2.817,0 -5.102,2.286 -5.102,5.103 0,2.817 2.285,5.103 5.102,5.103 2.818,0 5.103,-2.286 5.103,-5.103"
         style="opacity:1;vector-effect:none;fill:#000000;fill-opacity:1;fill-rule:nonzero;stroke:#909290;stroke-width:0.97304165;stroke-linecap:butt;stroke-linejoin:miter;stroke-miterlimit:4;stroke-dasharray:none;stroke-dashoffset:0;stroke-opacity:1"
         id="path3776"
         inkscape:connector-curvature="0" />
    </g>
    <g
       id="g3786"
       transform="matrix(0.27191367,0,0,-0.27191367,-69.01229,525.1586)">
      <path
         inkscape:connector-curvature="0"
         id="path3780"
         style="opacity:1;vector-effect:none;fill:#e7e7e7;fill-opacity:1;fill-rule:nonzero;stroke:#909290;stroke-width:0.97304165;stroke-linecap:butt;stroke-linejoin:miter;stroke-miterlimit:4;stroke-dasharray:none;stroke-dashoffset:0;stroke-opacity:1"
         d="m 293.0229,1844.2559 c -6.335,0 -11.489,5.154 -11.489,11.489 0,6.335 5.154,11.49 11.489,11.49 6.335,0 11.489,-5.155 11.489,-11.49 0,-6.335 -5.154,-11.489 -11.489,-11.489" />
      <path
         inkscape:connector-curvature="0"
         id="path3782"
         style="fill:#e7e7e7;fill-opacity:1;fill-rule:nonzero;stroke:#909290;stroke-width:0.97304165;stroke-miterlimit:4;stroke-dasharray:none;stroke-opacity:1"
         d="m 293.0229,1847.4709 c -4.562,0 -8.274,3.712 -8.274,8.274 0,4.563 3.712,8.275 8.274,8.275 4.562,0 8.274,-3.712 8.274,-8.275 0,-4.562 -3.712,-8.274 -8.274,-8.274" />
      <path
         inkscape:connector-curvature="0"
         id="path3784"
         style="opacity:1;vector-effect:none;fill:#000000;fill-opacity:1;fill-rule:nonzero;stroke:#909290;stroke-width:0.97304165;stroke-linecap:butt;stroke-linejoin:miter;stroke-miterlimit:4;stroke-dasharray:none;stroke-dashoffset:0;stroke-opacity:1"
         d="m 298.1254,1855.7454 c 0,-2.817 -2.285,-5.103 -5.103,-5.103 -2.817,0 -5.102,2.286 -5.102,5.103 0,2.817 2.285,5.103 5.102,5.103 2.818,0 5.103,-2.286 5.103,-5.103" />
    </g>
    <g
       transform="matrix(0.27191367,0,0,-0.27191367,-62.397707,525.1586)"
       id="g3794">
      <path
         d="m 293.0229,1844.2559 c -6.335,0 -11.489,5.154 -11.489,11.489 0,6.335 5.154,11.49 11.489,11.49 6.335,0 11.489,-5.155 11.489,-11.49 0,-6.335 -5.154,-11.489 -11.489,-11.489"
         style="opacity:1;vector-effect:none;fill:#e7e7e7;fill-opacity:1;fill-rule:nonzero;stroke:#909290;stroke-width:0.97304165;stroke-linecap:butt;stroke-linejoin:miter;stroke-miterlimit:4;stroke-dasharray:none;stroke-dashoffset:0;stroke-opacity:1"
         id="path3788"
         inkscape:connector-curvature="0" />
      <path
         d="m 293.0229,1847.4709 c -4.562,0 -8.274,3.712 -8.274,8.274 0,4.563 3.712,8.275 8.274,8.275 4.562,0 8.274,-3.712 8.274,-8.275 0,-4.562 -3.712,-8.274 -8.274,-8.274"
         style="fill:#e7e7e7;fill-opacity:1;fill-rule:nonzero;stroke:#909290;stroke-width:0.97304165;stroke-miterlimit:4;stroke-dasharray:none;stroke-opacity:1"
         id="path3790"
         inkscape:connector-curvature="0" />
      <path
         d="m 298.1254,1855.7454 c 0,-2.817 -2.285,-5.103 -5.103,-5.103 -2.817,0 -5.102,2.286 -5.102,5.103 0,2.817 2.285,5.103 5.102,5.103 2.818,0 5.103,-2.286 5.103,-5.103"
         style="opacity:1;vector-effect:none;fill:#000000;fill-opacity:1;fill-rule:nonzero;stroke:#909290;stroke-width:0.97304165;stroke-linecap:butt;stroke-linejoin:miter;stroke-miterlimit:4;stroke-dasharray:none;stroke-dashoffset:0;stroke-opacity:1"
         id="path3792"
         inkscape:connector-curvature="0" />
    </g>
    <g
       id="g3802"
       transform="matrix(0.27191367,0,0,-0.27191367,-55.783123,525.1586)">
      <path
         inkscape:connector-curvature="0"
         id="path3796"
         style="opacity:1;vector-effect:none;fill:#e7e7e7;fill-opacity:1;fill-rule:nonzero;stroke:#909290;stroke-width:0.97304165;stroke-linecap:butt;stroke-linejoin:miter;stroke-miterlimit:4;stroke-dasharray:none;stroke-dashoffset:0;stroke-opacity:1"
         d="m 293.0229,1844.2559 c -6.335,0 -11.489,5.154 -11.489,11.489 0,6.335 5.154,11.49 11.489,11.49 6.335,0 11.489,-5.155 11.489,-11.49 0,-6.335 -5.154,-11.489 -11.489,-11.489" />
      <path
         inkscape:connector-curvature="0"
         id="path3798"
         style="fill:#e7e7e7;fill-opacity:1;fill-rule:nonzero;stroke:#909290;stroke-width:0.97304165;stroke-miterlimit:4;stroke-dasharray:none;stroke-opacity:1"
         d="m 293.0229,1847.4709 c -4.562,0 -8.274,3.712 -8.274,8.274 0,4.563 3.712,8.275 8.274,8.275 4.562,0 8.274,-3.712 8.274,-8.275 0,-4.562 -3.712,-8.274 -8.274,-8.274" />
      <path
         inkscape:connector-curvature="0"
         id="path3800"
         style="opacity:1;vector-effect:none;fill:#000000;fill-opacity:1;fill-rule:nonzero;stroke:#909290;stroke-width:0.97304165;stroke-linecap:butt;stroke-linejoin:miter;stroke-miterlimit:4;stroke-dasharray:none;stroke-dashoffset:0;stroke-opacity:1"
         d="m 298.1254,1855.7454 c 0,-2.817 -2.285,-5.103 -5.103,-5.103 -2.817,0 -5.102,2.286 -5.102,5.103 0,2.817 2.285,5.103 5.102,5.103 2.818,0 5.103,-2.286 5.103,-5.103" />
    </g>
  </g>
</svg>
