<?xml version="1.0" encoding="UTF-8" standalone="no"?>
<svg
   xmlns:dc="http://purl.org/dc/elements/1.1/"
   xmlns:cc="http://creativecommons.org/ns#"
   xmlns:rdf="http://www.w3.org/1999/02/22-rdf-syntax-ns#"
   xmlns:svg="http://www.w3.org/2000/svg"
   xmlns="http://www.w3.org/2000/svg"
   xmlns:sodipodi="http://sodipodi.sourceforge.net/DTD/sodipodi-0.dtd"
   xmlns:inkscape="http://www.inkscape.org/namespaces/inkscape"
   id="svg4541"
   version="1.1"
   viewBox="0 0 23.8125 100.54168"
   height="380"
   width="90"
   sodipodi:docname="Quantize.svg"
   inkscape:version="0.92.1 r15371">
  <sodipodi:namedview
     pagecolor="#ffffff"
     bordercolor="#666666"
     borderopacity="1"
     objecttolerance="10"
     gridtolerance="10"
     guidetolerance="10"
     inkscape:pageopacity="0"
     inkscape:pageshadow="2"
     inkscape:window-width="1440"
     inkscape:window-height="865"
     id="namedview10"
     showgrid="false"
     units="px"
     inkscape:snap-text-baseline="false"
     inkscape:zoom="5.6568542"
     inkscape:cx="-18.049329"
     inkscape:cy="254.73027"
     inkscape:window-x="0"
     inkscape:window-y="17"
     inkscape:window-maximized="1"
     inkscape:current-layer="g4554"
     inkscape:snap-bbox="true"
     inkscape:snap-bbox-edge-midpoints="true"
     inkscape:bbox-nodes="true"
     inkscape:snap-midpoints="true"
     inkscape:snap-smooth-nodes="true"
     inkscape:object-paths="false"
     inkscape:snap-others="true"
     inkscape:snap-nodes="true"
     inkscape:snap-global="true"
     inkscape:snap-object-midpoints="true" />
  <defs
     id="defs4535" />
  <metadata
     id="metadata4538">
    <rdf:RDF>
      <cc:Work
         rdf:about="">
        <dc:format>image/svg+xml</dc:format>
        <dc:type
           rdf:resource="http://purl.org/dc/dcmitype/StillImage" />
        <dc:title />
      </cc:Work>
    </rdf:RDF>
  </metadata>
  <rect
     id="rect3743"
     width="23.812502"
     height="100.54167"
     x="0"
     y="1.5804033e-06"
     style="fill:#e6e6e6;fill-opacity:1;stroke-width:0.24495658" />
  <g
     id="g3826"
     style="display:inline">
    <g
       id="text3688"
       style="font-style:normal;font-variant:normal;font-weight:normal;font-stretch:normal;font-size:2.82222247px;line-height:125%;font-family:Courier;-inkscape-font-specification:'Courier, Normal';font-variant-ligatures:normal;font-variant-caps:normal;font-variant-numeric:normal;font-feature-settings:normal;text-align:start;letter-spacing:0px;word-spacing:0px;writing-mode:lr-tb;text-anchor:start;fill:#000000;fill-opacity:1;stroke:none;stroke-width:0.26458335px;stroke-linecap:butt;stroke-linejoin:miter;stroke-opacity:1"
       aria-label="by luckyxxl"
       transform="translate(-3.9687974)">
      <path
         inkscape:connector-curvature="0"
         id="path3711"
         style="font-style:normal;font-variant:normal;font-weight:normal;font-stretch:normal;font-size:2.82222247px;font-family:Courier;-inkscape-font-specification:'Courier, Normal';font-variant-ligatures:normal;font-variant-caps:normal;font-variant-numeric:normal;font-feature-settings:normal;text-align:start;writing-mode:lr-tb;text-anchor:start;stroke-width:0.26458335px"
         d="M 9.0514436,4.803625 V 4.9362694 L 9.3110881,4.9221583 V 6.4207584 H 9.0853103 V 6.5534029 H 9.4521992 V 6.3360918 c 0.064911,0.0762 0.2003778,0.2455333 0.4995334,0.2455333 0.3668894,0 0.6208894,-0.3104444 0.6208894,-0.6237111 0,-0.3499556 -0.285045,-0.6293557 -0.6321783,-0.6293557 -0.2060222,0 -0.3668889,0.095956 -0.4826,0.2483556 h -0.00564 V 4.778225 Z m 0.4035779,1.1486445 c 0,-0.2568222 0.2144889,-0.4826 0.4910667,-0.4826 0.2737558,0 0.4741338,0.2257778 0.4741338,0.4854222 0,0.2568223 -0.191912,0.4854223 -0.4713116,0.4854223 -0.2822223,0 -0.4938889,-0.2257778 -0.4938889,-0.4882445 z" />
      <path
         inkscape:connector-curvature="0"
         id="path3713"
         style="font-style:normal;font-variant:normal;font-weight:normal;font-stretch:normal;font-size:2.82222247px;font-family:Courier;-inkscape-font-specification:'Courier, Normal';font-variant-ligatures:normal;font-variant-caps:normal;font-variant-numeric:normal;font-feature-settings:normal;text-align:start;writing-mode:lr-tb;text-anchor:start;stroke-width:0.26458335px"
         d="m 10.797297,5.3398472 v 0.1326445 h 0.172156 l 0.524933,1.0047112 -0.217311,0.3753556 h -0.434623 v 0.1326444 h 0.846667 V 6.8525585 h -0.251178 l 0.790223,-1.3800668 h 0.163689 V 5.3398472 h -0.516467 v 0.1326445 h 0.191911 L 11.57623,6.3304473 11.130319,5.4724917 h 0.194734 V 5.3398472 Z" />
      <path
         inkscape:connector-curvature="0"
         id="path3715"
         style="font-style:normal;font-variant:normal;font-weight:normal;font-stretch:normal;font-size:2.82222247px;font-family:Courier;-inkscape-font-specification:'Courier, Normal';font-variant-ligatures:normal;font-variant-caps:normal;font-variant-numeric:normal;font-feature-settings:normal;text-align:start;writing-mode:lr-tb;text-anchor:start;stroke-width:0.26458335px"
         d="m 14.416003,4.8685361 0.01411,0.1298222 0.460022,-0.033867 V 6.4207584 H 14.39907 v 0.1326445 h 1.123245 V 6.4207584 H 15.031248 V 4.829025 Z" />
      <path
         inkscape:connector-curvature="0"
         id="path3717"
         style="font-style:normal;font-variant:normal;font-weight:normal;font-stretch:normal;font-size:2.82222247px;font-family:Courier;-inkscape-font-specification:'Courier, Normal';font-variant-ligatures:normal;font-variant-caps:normal;font-variant-numeric:normal;font-feature-settings:normal;text-align:start;writing-mode:lr-tb;text-anchor:start;stroke-width:0.26458335px"
         d="m 15.896568,5.3398472 v 0.1326445 h 0.231422 v 0.6152445 c 0,0.2229556 0.07902,0.5051778 0.434622,0.5051778 0.217312,0 0.364067,-0.1241778 0.443089,-0.1947333 v 0.1552222 h 0.369711 V 6.4207584 h -0.2286 V 5.3398472 H 16.76299 v 0.1326445 h 0.242711 v 0.7337778 c -0.1524,0.1693334 -0.299155,0.2455334 -0.454377,0.2455334 -0.282223,0 -0.282223,-0.2906889 -0.282223,-0.3640667 v -0.747889 z" />
      <path
         inkscape:connector-curvature="0"
         id="path3719"
         style="font-style:normal;font-variant:normal;font-weight:normal;font-stretch:normal;font-size:2.82222247px;font-family:Courier;-inkscape-font-specification:'Courier, Normal';font-variant-ligatures:normal;font-variant-caps:normal;font-variant-numeric:normal;font-feature-settings:normal;text-align:start;writing-mode:lr-tb;text-anchor:start;stroke-width:0.26458335px"
         d="m 18.844688,5.3031583 c -0.0085,0.036689 -0.01411,0.067733 -0.01693,0.090311 -0.0028,0.016933 -0.01411,0.062089 -0.02822,0.062089 -0.0028,0 -0.0085,-0.00564 -0.01129,-0.00847 -0.163689,-0.1354667 -0.307622,-0.1495778 -0.414867,-0.1495778 -0.460022,0 -0.674511,0.3443111 -0.674511,0.6462889 0,0.3584223 0.268111,0.6491112 0.663223,0.6491112 0.313266,0 0.564444,-0.1834444 0.6858,-0.2737556 L 18.97451,6.211914 c -0.206022,0.1439333 -0.400756,0.2398889 -0.598311,0.2398889 -0.369711,0 -0.524934,-0.2765778 -0.524934,-0.5108223 0,-0.2427111 0.172156,-0.5023556 0.536223,-0.5023556 0.364066,0 0.409222,0.2144889 0.428977,0.2963334 l 0.01129,0.047978 0.129822,-0.019756 c -0.0056,-0.073378 -0.0085,-0.1326444 -0.0085,-0.1862667 0,-0.098778 0.01693,-0.2032 0.0254,-0.2596444 z" />
      <path
         inkscape:connector-curvature="0"
         id="path3721"
         style="font-style:normal;font-variant:normal;font-weight:normal;font-stretch:normal;font-size:2.82222247px;font-family:Courier;-inkscape-font-specification:'Courier, Normal';font-variant-ligatures:normal;font-variant-caps:normal;font-variant-numeric:normal;font-feature-settings:normal;text-align:start;writing-mode:lr-tb;text-anchor:start;stroke-width:0.26458335px"
         d="m 19.292319,4.8149139 0.01129,0.1326444 0.268111,-0.022578 V 6.4207584 H 19.337474 V 6.5534029 H 19.71283 V 6.0369362 l 0.158044,-0.1213556 c 0.273756,0.254 0.386645,0.3668889 0.502356,0.5051778 H 20.192608 V 6.5534029 H 20.77963 V 6.4207584 h -0.237067 c -0.1016,-0.1298222 -0.335844,-0.3781778 -0.564444,-0.5842 l 0.474133,-0.3640667 h 0.220133 V 5.3398472 h -0.589844 v 0.1326445 h 0.158044 v 0.00564 l -0.527755,0.40076 V 4.778225 Z" />
      <path
         inkscape:connector-curvature="0"
         id="path3723"
         style="font-style:normal;font-variant:normal;font-weight:normal;font-stretch:normal;font-size:2.82222247px;font-family:Courier;-inkscape-font-specification:'Courier, Normal';font-variant-ligatures:normal;font-variant-caps:normal;font-variant-numeric:normal;font-feature-settings:normal;text-align:start;writing-mode:lr-tb;text-anchor:start;stroke-width:0.26458335px"
         d="m 20.950683,5.3398472 v 0.1326445 h 0.172156 l 0.524933,1.0047112 -0.217311,0.3753556 h -0.434622 v 0.1326444 h 0.846666 V 6.8525585 H 21.591328 L 22.38155,5.4724917 h 0.163689 V 5.3398472 h -0.516467 v 0.1326445 h 0.191911 L 21.729617,6.3304473 21.283705,5.4724917 h 0.194734 V 5.3398472 Z" />
      <path
         inkscape:connector-curvature="0"
         id="path3725"
         style="font-style:normal;font-variant:normal;font-weight:normal;font-stretch:normal;font-size:2.82222247px;font-family:Courier;-inkscape-font-specification:'Courier, Normal';font-variant-ligatures:normal;font-variant-caps:normal;font-variant-numeric:normal;font-feature-settings:normal;text-align:start;writing-mode:lr-tb;text-anchor:start;stroke-width:0.26458335px"
         d="m 22.690892,5.3398472 v 0.1326445 h 0.180622 l 0.448734,0.4459111 -0.496711,0.5023556 h -0.174978 v 0.1326445 h 0.555978 V 6.4207584 h -0.197556 l 0.409222,-0.4120444 0.4064,0.4120444 h -0.200377 v 0.1326445 h 0.572911 V 6.4207584 h -0.1778 l -0.508,-0.5023556 0.443089,-0.4459111 h 0.172155 V 5.3398472 h -0.519289 v 0.1326445 h 0.163689 L 23.416203,5.8252695 23.063425,5.4724917 h 0.172156 V 5.3398472 Z" />
      <path
         inkscape:connector-curvature="0"
         id="path3727"
         style="font-style:normal;font-variant:normal;font-weight:normal;font-stretch:normal;font-size:2.82222247px;font-family:Courier;-inkscape-font-specification:'Courier, Normal';font-variant-ligatures:normal;font-variant-caps:normal;font-variant-numeric:normal;font-feature-settings:normal;text-align:start;writing-mode:lr-tb;text-anchor:start;stroke-width:0.26458335px"
         d="m 24.383123,5.3398472 v 0.1326445 h 0.180623 l 0.448733,0.4459111 -0.496711,0.5023556 H 24.34079 v 0.1326445 h 0.555978 V 6.4207584 h -0.197556 l 0.409222,-0.4120444 0.406401,0.4120444 h -0.200378 v 0.1326445 h 0.572911 V 6.4207584 h -0.1778 l -0.508,-0.5023556 0.443089,-0.4459111 h 0.172155 V 5.3398472 h -0.519289 v 0.1326445 h 0.163689 L 25.108434,5.8252695 24.755657,5.4724917 h 0.172155 V 5.3398472 Z" />
      <path
         inkscape:connector-curvature="0"
         id="path3729"
         style="font-style:normal;font-variant:normal;font-weight:normal;font-stretch:normal;font-size:2.82222247px;font-family:Courier;-inkscape-font-specification:'Courier, Normal';font-variant-ligatures:normal;font-variant-caps:normal;font-variant-numeric:normal;font-feature-settings:normal;text-align:start;writing-mode:lr-tb;text-anchor:start;stroke-width:0.26458335px"
         d="m 26.26162,4.8685361 0.01411,0.1298222 0.460023,-0.033867 V 6.4207581 H 26.244686 V 6.5534026 H 27.36793 V 6.4207584 H 26.876865 V 4.829025 Z" />
    </g>
    <g
       aria-label="Quantize"
       style="font-style:normal;font-variant:normal;font-weight:normal;font-stretch:normal;font-size:3.52777791px;line-height:125%;font-family:'DejaVu Sans';-inkscape-font-specification:'DejaVu Sans, Normal';font-variant-ligatures:normal;font-variant-caps:normal;font-variant-numeric:normal;font-feature-settings:normal;text-align:start;letter-spacing:0px;word-spacing:0px;writing-mode:lr-tb;text-anchor:start;fill:#000000;fill-opacity:1;stroke:none;stroke-width:0.26458335px;stroke-linecap:butt;stroke-linejoin:miter;stroke-opacity:1"
       id="text3757">
      <path
         d="m 2.4419686,1.1826897 q -0.3789605,0 -0.6028918,0.2824979 -0.2222086,0.2824978 -0.2222086,0.7699788 0,0.4857585 0.2222086,0.7682564 0.2239313,0.2824978 0.6028918,0.2824978 0.3789605,0 0.5994466,-0.2824978 0.2222087,-0.2824979 0.2222087,-0.7682564 0,-0.487481 -0.2222087,-0.7699788 Q 2.8209291,1.1826897 2.4419686,1.1826897 Z m 0.487481,2.2892661 0.4581977,0.5012614 H 2.9673457 L 2.5866626,3.5615283 q -0.056844,0.00345 -0.08785,0.00517 -0.029283,0.00172 -0.056844,0.00172 -0.5426026,0 -0.8681641,-0.3617351 -0.323839,-0.3634576 -0.323839,-0.971517 0,-0.6097819 0.323839,-0.9715169 0.3255615,-0.3634576 0.8681641,-0.3634576 0.54088,0 0.864719,0.3634576 0.323839,0.361735 0.323839,0.9715169 0,0.4478625 -0.1808676,0.7665338 -0.1791449,0.3186714 -0.5202094,0.4702558 z"
         style="font-style:normal;font-variant:normal;font-weight:normal;font-stretch:normal;font-size:3.52777791px;font-family:'DejaVu Sans';-inkscape-font-specification:'DejaVu Sans, Normal';font-variant-ligatures:normal;font-variant-caps:normal;font-variant-numeric:normal;font-feature-settings:normal;text-align:start;writing-mode:lr-tb;text-anchor:start;stroke-width:0.26458335px"
         id="path3759"
         inkscape:connector-curvature="0" />
      <path
         d="M 4.1283428,2.7570984 V 1.589211 h 0.3169488 v 1.1558296 q 0,0.2738851 0.106798,0.4116889 0.1067979,0.1360813 0.3203939,0.1360813 0.2566596,0 0.4047987,-0.163642 Q 5.4271438,2.9655267 5.4271438,2.6830289 V 1.589211 H 5.7440926 V 3.5184646 H 5.4271438 V 3.2221863 q -0.1154107,0.1756999 -0.2687174,0.2618273 -0.1515842,0.084405 -0.3531223,0.084405 -0.3324517,0 -0.5047065,-0.2067058 Q 4.1283428,3.155007 4.1283428,2.7570984 Z M 4.9258824,1.5427022 Z"
         style="font-style:normal;font-variant:normal;font-weight:normal;font-stretch:normal;font-size:3.52777791px;font-family:'DejaVu Sans';-inkscape-font-specification:'DejaVu Sans, Normal';font-variant-ligatures:normal;font-variant-caps:normal;font-variant-numeric:normal;font-feature-settings:normal;text-align:start;writing-mode:lr-tb;text-anchor:start;stroke-width:0.26458335px"
         id="path3761"
         inkscape:connector-curvature="0" />
      <path
         d="m 7.27716,2.5486701 q -0.3841282,0 -0.5322673,0.08785 -0.1481391,0.08785 -0.1481391,0.2997233 0,0.1688097 0.1102431,0.2687175 0.1119656,0.098185 0.3031684,0.098185 0.2635498,0 0.4220242,-0.1860352 Q 7.5923862,2.9293532 7.5923862,2.6192946 V 2.5486701 Z M 7.909335,2.4177565 V 3.5184646 H 7.5923862 V 3.2256314 q -0.1085205,0.1756999 -0.27044,0.2601048 -0.1619195,0.082682 -0.396186,0.082682 -0.2962782,0 -0.4719781,-0.1653646 Q 6.2798048,3.2359667 6.2798048,2.956914 q 0,-0.3255616 0.217041,-0.4909261 0.2187636,-0.1653646 0.6511231,-0.1653646 h 0.4444173 v -0.031006 q 0,-0.2187636 -0.144694,-0.3376194 Q 7.3047207,1.8114197 7.044616,1.8114197 q -0.1653646,0 -0.3221164,0.039619 -0.1567519,0.039619 -0.3014459,0.1188558 V 1.677061 Q 6.595031,1.609882 6.7586731,1.577153 6.9223151,1.542702 7.0773444,1.542702 q 0.4185791,0 0.6252849,0.2170411 0.2067057,0.217041 0.2067057,0.6580134 z"
         style="font-style:normal;font-variant:normal;font-weight:normal;font-stretch:normal;font-size:3.52777791px;font-family:'DejaVu Sans';-inkscape-font-specification:'DejaVu Sans, Normal';font-variant-ligatures:normal;font-variant-caps:normal;font-variant-numeric:normal;font-feature-settings:normal;text-align:start;writing-mode:lr-tb;text-anchor:start;stroke-width:0.26458335px"
         id="path3763"
         inkscape:connector-curvature="0" />
      <path
         d="M 10.167595,2.3540222 V 3.5184646 H 9.8506467 V 2.3643575 q 0,-0.2738851 -0.106798,-0.4099663 -0.1067979,-0.1360813 -0.3203939,-0.1360813 -0.2566596,0 -0.4047987,0.163642 Q 8.870517,2.145594 8.870517,2.4280918 V 3.5184646 H 8.5518456 V 1.589211 H 8.870517 V 1.8889343 Q 8.9842051,1.714957 9.1375119,1.6288296 q 0.1550293,-0.086127 0.3565674,-0.086127 0.3324517,0 0.502984,0.2067058 0.1705317,0.2049832 0.1705317,0.6046138 z"
         style="font-style:normal;font-variant:normal;font-weight:normal;font-stretch:normal;font-size:3.52777791px;font-family:'DejaVu Sans';-inkscape-font-specification:'DejaVu Sans, Normal';font-variant-ligatures:normal;font-variant-caps:normal;font-variant-numeric:normal;font-feature-settings:normal;text-align:start;writing-mode:lr-tb;text-anchor:start;stroke-width:0.26458335px"
         id="path3765"
         inkscape:connector-curvature="0" />
      <path
         d="M 11.11672,1.0414408 V 1.589211 h 0.652845 V 1.8355354 H 11.11672 v 1.047309 q 0,0.2359891 0.06373,0.3031684 0.06546,0.067179 0.26355,0.067179 h 0.325561 V 3.5184642 H 11.444 q -0.366903,0 -0.506429,-0.1360813 Q 10.798048,3.2445795 10.798048,2.8828444 V 1.8355354 H 10.565505 V 1.589211 h 0.232543 V 1.0414408 Z"
         style="font-style:normal;font-variant:normal;font-weight:normal;font-stretch:normal;font-size:3.52777791px;font-family:'DejaVu Sans';-inkscape-font-specification:'DejaVu Sans, Normal';font-variant-ligatures:normal;font-variant-caps:normal;font-variant-numeric:normal;font-feature-settings:normal;text-align:start;writing-mode:lr-tb;text-anchor:start;stroke-width:0.26458335px"
         id="path3767"
         inkscape:connector-curvature="0" />
      <path
         d="m 12.188144,1.589211 h 0.316949 v 1.9292536 h -0.316949 z m 0,-0.75103082 h 0.316949 V 1.2395338 h -0.316949 z"
         style="font-style:normal;font-variant:normal;font-weight:normal;font-stretch:normal;font-size:3.52777791px;font-family:'DejaVu Sans';-inkscape-font-specification:'DejaVu Sans, Normal';font-variant-ligatures:normal;font-variant-caps:normal;font-variant-numeric:normal;font-feature-settings:normal;text-align:start;writing-mode:lr-tb;text-anchor:start;stroke-width:0.26458335px"
         id="path3769"
         inkscape:connector-curvature="0" />
      <path
         d="m 13.028747,1.589211 h 1.505507 V 1.8785991 L 13.342251,3.26525 h 1.192003 V 3.5184646 H 12.985683 V 3.2290765 l 1.192003,-1.386651 h -1.148939 z"
         style="font-style:normal;font-variant:normal;font-weight:normal;font-stretch:normal;font-size:3.52777791px;font-family:'DejaVu Sans';-inkscape-font-specification:'DejaVu Sans, Normal';font-variant-ligatures:normal;font-variant-caps:normal;font-variant-numeric:normal;font-feature-settings:normal;text-align:start;writing-mode:lr-tb;text-anchor:start;stroke-width:0.26458335px"
         id="path3771"
         inkscape:connector-curvature="0" />
      <path
         d="m 16.670214,2.4746006 v 0.1550293 h -1.457276 q 0.02067,0.3272841 0.196371,0.4995389 0.177422,0.1705322 0.492648,0.1705322 0.182591,0 0.353123,-0.044786 0.172255,-0.044786 0.341064,-0.1343588 v 0.2997233 q -0.170532,0.072347 -0.349677,0.1102431 -0.179145,0.037896 -0.363458,0.037896 -0.461642,0 -0.732082,-0.2687175 -0.268718,-0.2687175 -0.268718,-0.7269152 0,-0.4737006 0.254937,-0.7510308 0.25666,-0.2790528 0.690742,-0.2790528 0.389296,0 0.614949,0.251492 0.227377,0.2497694 0.227377,0.6804063 z M 16.353265,2.381583 Q 16.34982,2.1214783 16.206848,1.966449 16.0656,1.8114197 15.831333,1.8114197 q -0.265272,0 -0.425469,0.1498616 -0.158475,0.1498617 -0.18259,0.4220243 z"
         style="font-style:normal;font-variant:normal;font-weight:normal;font-stretch:normal;font-size:3.52777791px;font-family:'DejaVu Sans';-inkscape-font-specification:'DejaVu Sans, Normal';font-variant-ligatures:normal;font-variant-caps:normal;font-variant-numeric:normal;font-feature-settings:normal;text-align:start;writing-mode:lr-tb;text-anchor:start;stroke-width:0.26458335px"
         id="path3773"
         inkscape:connector-curvature="0" />
    </g>
  </g>
  <rect
     style="fill:#000000;fill-opacity:1;stroke:#969696;stroke-width:0.22538891;stroke-opacity:1"
     id="rect3776"
     width="18.295446"
     height="13.003778"
     x="2.7585278"
     y="10.696029" />
  <g
     aria-label="In"
     style="font-style:normal;font-variant:normal;font-weight:normal;font-stretch:normal;font-size:3.52777791px;line-height:125%;font-family:'DejaVu Sans';-inkscape-font-specification:'DejaVu Sans, Normal';font-variant-ligatures:normal;font-variant-caps:normal;font-variant-numeric:normal;font-feature-settings:normal;text-align:start;letter-spacing:0px;word-spacing:0px;writing-mode:lr-tb;text-anchor:start;display:inline;fill:#000000;fill-opacity:1;stroke:none;stroke-width:0.26458335px;stroke-linecap:butt;stroke-linejoin:miter;stroke-opacity:1"
     id="text4586"
     transform="translate(1.330324,-1.2212238)">
    <path
       d="m 3.7858159,81.830328 h 0.3479546 v 2.571764 H 3.7858159 Z"
       style="font-style:normal;font-variant:normal;font-weight:normal;font-stretch:normal;font-size:3.52777791px;font-family:'DejaVu Sans';-inkscape-font-specification:'DejaVu Sans, Normal';font-variant-ligatures:normal;font-variant-caps:normal;font-variant-numeric:normal;font-feature-settings:normal;text-align:start;writing-mode:lr-tb;text-anchor:start;stroke-width:0.26458335px"
       id="path4613"
       inkscape:connector-curvature="0" />
    <path
       d="m 6.4161464,83.23765 v 1.164442 H 6.0991976 v -1.154107 q 0,-0.273885 -0.106798,-0.409966 -0.1067979,-0.136082 -0.3203939,-0.136082 -0.2566596,0 -0.4047987,0.163642 -0.1481391,0.163642 -0.1481391,0.44614 v 1.090373 H 4.8003965 v -1.929254 h 0.3186714 v 0.299724 q 0.1136881,-0.173978 0.2669949,-0.260105 0.1550293,-0.08613 0.3565674,-0.08613 0.3324517,0 0.5029839,0.206705 0.1705323,0.204984 0.1705323,0.604615 z"
       style="font-style:normal;font-variant:normal;font-weight:normal;font-stretch:normal;font-size:3.52777791px;font-family:'DejaVu Sans';-inkscape-font-specification:'DejaVu Sans, Normal';font-variant-ligatures:normal;font-variant-caps:normal;font-variant-numeric:normal;font-feature-settings:normal;text-align:start;writing-mode:lr-tb;text-anchor:start;stroke-width:0.26458335px"
       id="path4615"
       inkscape:connector-curvature="0" />
  </g>
  <g
     aria-label="Out"
     style="font-style:normal;font-variant:normal;font-weight:normal;font-stretch:normal;font-size:3.52777791px;line-height:125%;font-family:'DejaVu Sans';-inkscape-font-specification:'DejaVu Sans, Normal';font-variant-ligatures:normal;font-variant-caps:normal;font-variant-numeric:normal;font-feature-settings:normal;text-align:start;letter-spacing:0px;word-spacing:0px;writing-mode:lr-tb;text-anchor:start;display:inline;fill:#000000;fill-opacity:1;stroke:none;stroke-width:0.26458335px;stroke-linecap:butt;stroke-linejoin:miter;stroke-opacity:1"
     id="text4586-8"
     transform="translate(-1.7783564,-1.2341368)">
    <path
       d="m 17.191201,82.029276 q -0.378961,0 -0.602892,0.282498 -0.222209,0.282498 -0.222209,0.769979 0,0.485759 0.222209,0.768256 0.223931,0.282498 0.602892,0.282498 0.37896,0 0.599446,-0.282498 0.222209,-0.282497 0.222209,-0.768256 0,-0.487481 -0.222209,-0.769979 -0.220486,-0.282498 -0.599446,-0.282498 z m 0,-0.282497 q 0.54088,0 0.864719,0.363457 0.323839,0.361735 0.323839,0.971517 0,0.60806 -0.323839,0.971517 -0.323839,0.361735 -0.864719,0.361735 -0.542603,0 -0.868164,-0.361735 -0.323839,-0.361735 -0.323839,-0.971517 0,-0.609782 0.323839,-0.971517 0.325561,-0.363457 0.868164,-0.363457 z"
       style="font-style:normal;font-variant:normal;font-weight:normal;font-stretch:normal;font-size:3.52777791px;font-family:'DejaVu Sans';-inkscape-font-specification:'DejaVu Sans, Normal';font-variant-ligatures:normal;font-variant-caps:normal;font-variant-numeric:normal;font-feature-settings:normal;text-align:start;writing-mode:lr-tb;text-anchor:start;stroke-width:0.26458335px"
       id="path4606"
       inkscape:connector-curvature="0" />
    <path
       d="m 18.877575,83.603685 v -1.167887 h 0.316949 v 1.155829 q 0,0.273885 0.106798,0.411689 0.106798,0.136082 0.320394,0.136082 0.256659,0 0.404798,-0.163643 0.149862,-0.163642 0.149862,-0.446139 v -1.093818 h 0.316949 v 1.929253 h -0.316949 v -0.296278 q -0.115411,0.1757 -0.268718,0.261827 -0.151584,0.0844 -0.353122,0.0844 -0.332452,0 -0.504706,-0.206706 -0.172255,-0.206705 -0.172255,-0.604614 z m 0.797539,-1.214396 z"
       style="font-style:normal;font-variant:normal;font-weight:normal;font-stretch:normal;font-size:3.52777791px;font-family:'DejaVu Sans';-inkscape-font-specification:'DejaVu Sans, Normal';font-variant-ligatures:normal;font-variant-caps:normal;font-variant-numeric:normal;font-feature-settings:normal;text-align:start;writing-mode:lr-tb;text-anchor:start;stroke-width:0.26458335px"
       id="path4608"
       inkscape:connector-curvature="0" />
    <path
       d="m 21.463119,81.888028 v 0.54777 h 0.652846 v 0.246324 h -0.652846 v 1.047309 q 0,0.235989 0.06373,0.303169 0.06546,0.06718 0.26355,0.06718 h 0.325562 v 0.265272 h -0.325562 q -0.366903,0 -0.506429,-0.136081 -0.139526,-0.137804 -0.139526,-0.499539 V 82.682123 H 20.9119 v -0.246324 h 0.232544 v -0.54777 z"
       style="font-style:normal;font-variant:normal;font-weight:normal;font-stretch:normal;font-size:3.52777791px;font-family:'DejaVu Sans';-inkscape-font-specification:'DejaVu Sans, Normal';font-variant-ligatures:normal;font-variant-caps:normal;font-variant-numeric:normal;font-feature-settings:normal;text-align:start;writing-mode:lr-tb;text-anchor:start;stroke-width:0.26458335px"
       id="path4610"
       inkscape:connector-curvature="0" />
  </g>
  <g
     transform="translate(-115.08877,1.5960344)"
     id="layer1"
     inkscape:label="Pins"
     style="display:none">
    <g
       id="g3088"
       transform="matrix(0.27191367,0,0,-0.27191367,41.843143,591.03132)">
      <path
         inkscape:connector-curvature="0"
         id="path4639"
         style="opacity:1;vector-effect:none;fill:#e7e7e7;fill-opacity:1;fill-rule:nonzero;stroke:#909290;stroke-width:0.97304165;stroke-linecap:butt;stroke-linejoin:miter;stroke-miterlimit:4;stroke-dasharray:none;stroke-dashoffset:0;stroke-opacity:1"
         d="m 293.0229,1844.2559 c -6.335,0 -11.489,5.154 -11.489,11.489 0,6.335 5.154,11.49 11.489,11.49 6.335,0 11.489,-5.155 11.489,-11.49 0,-6.335 -5.154,-11.489 -11.489,-11.489" />
      <path
         inkscape:connector-curvature="0"
         id="path4647"
         style="fill:#e7e7e7;fill-opacity:1;fill-rule:nonzero;stroke:#909290;stroke-width:0.97304165;stroke-miterlimit:4;stroke-dasharray:none;stroke-opacity:1"
         d="m 293.0229,1847.4709 c -4.562,0 -8.274,3.712 -8.274,8.274 0,4.563 3.712,8.275 8.274,8.275 4.562,0 8.274,-3.712 8.274,-8.275 0,-4.562 -3.712,-8.274 -8.274,-8.274" />
      <path
         inkscape:connector-curvature="0"
         id="path4655"
         style="opacity:1;vector-effect:none;fill:#000000;fill-opacity:1;fill-rule:nonzero;stroke:#909290;stroke-width:0.97304165;stroke-linecap:butt;stroke-linejoin:miter;stroke-miterlimit:4;stroke-dasharray:none;stroke-dashoffset:0;stroke-opacity:1"
         d="m 298.1254,1855.7454 c 0,-2.817 -2.285,-5.103 -5.103,-5.103 -2.817,0 -5.102,2.286 -5.102,5.103 0,2.817 2.285,5.103 5.102,5.103 2.818,0 5.103,-2.286 5.103,-5.103" />
    </g>
    <g
       transform="matrix(0.27191367,0,0,-0.27191367,52.691063,591.03132)"
       id="g4707">
      <path
         d="m 293.0229,1844.2559 c -6.335,0 -11.489,5.154 -11.489,11.489 0,6.335 5.154,11.49 11.489,11.49 6.335,0 11.489,-5.155 11.489,-11.49 0,-6.335 -5.154,-11.489 -11.489,-11.489"
         style="opacity:1;vector-effect:none;fill:#e7e7e7;fill-opacity:1;fill-rule:nonzero;stroke:#909290;stroke-width:0.97304165;stroke-linecap:butt;stroke-linejoin:miter;stroke-miterlimit:4;stroke-dasharray:none;stroke-dashoffset:0;stroke-opacity:1"
         id="path4701"
         inkscape:connector-curvature="0" />
      <path
         d="m 293.0229,1847.4709 c -4.562,0 -8.274,3.712 -8.274,8.274 0,4.563 3.712,8.275 8.274,8.275 4.562,0 8.274,-3.712 8.274,-8.275 0,-4.562 -3.712,-8.274 -8.274,-8.274"
         style="fill:#e7e7e7;fill-opacity:1;fill-rule:nonzero;stroke:#909290;stroke-width:0.97304165;stroke-miterlimit:4;stroke-dasharray:none;stroke-opacity:1"
         id="path4703"
         inkscape:connector-curvature="0" />
      <path
         d="m 298.1254,1855.7454 c 0,-2.817 -2.285,-5.103 -5.103,-5.103 -2.817,0 -5.102,2.286 -5.102,5.103 0,2.817 2.285,5.103 5.102,5.103 2.818,0 5.103,-2.286 5.103,-5.103"
         style="opacity:1;vector-effect:none;fill:#000000;fill-opacity:1;fill-rule:nonzero;stroke:#909290;stroke-width:0.97304165;stroke-linecap:butt;stroke-linejoin:miter;stroke-miterlimit:4;stroke-dasharray:none;stroke-dashoffset:0;stroke-opacity:1"
         id="path4705"
         inkscape:connector-curvature="0" />
    </g>
  </g>
  <g
     id="text4566"
     style="font-style:normal;font-variant:normal;font-weight:200;font-stretch:normal;font-size:3.52777791px;line-height:125%;font-family:'DejaVu Sans';-inkscape-font-specification:'DejaVu Sans, Ultra-Light';font-variant-ligatures:normal;font-variant-caps:normal;font-variant-numeric:normal;font-feature-settings:normal;text-align:start;letter-spacing:0px;word-spacing:0px;writing-mode:lr-tb;text-anchor:start;display:inline;fill:#000000;fill-opacity:1;stroke:none;stroke-width:0.26458335px;stroke-linecap:butt;stroke-linejoin:miter;stroke-opacity:1"
     aria-label="H"
     transform="translate(-3.6650902,1.8012413)">
    <path
       inkscape:connector-curvature="0"
       id="path4573"
       style="font-style:normal;font-variant:normal;font-weight:200;font-stretch:normal;font-size:3.52777791px;font-family:'DejaVu Sans';-inkscape-font-specification:'DejaVu Sans, Ultra-Light';font-variant-ligatures:normal;font-variant-caps:normal;font-variant-numeric:normal;font-feature-settings:normal;text-align:start;writing-mode:lr-tb;text-anchor:start;stroke-width:0.26458335px"
       d="m 16.365091,25.835005 h 0.173977 v 1.129991 h 1.438327 v -1.129991 h 0.173978 v 2.571764 h -0.173978 v -1.302246 h -1.438327 v 1.302246 h -0.173977 z" />
  </g>
  <g
     id="g4586"
     transform="translate(-0.26458335,-2.6458335)"
     style="display:none">
    <g
       transform="translate(0.23116046,2.8140657)"
       aria-label="♯"
       style="font-style:normal;font-variant:normal;font-weight:normal;font-stretch:normal;font-size:3.52777791px;line-height:125%;font-family:'DejaVu Sans';-inkscape-font-specification:'DejaVu Sans, Normal';font-variant-ligatures:normal;font-variant-caps:normal;font-variant-numeric:normal;font-feature-settings:normal;text-align:start;letter-spacing:0px;word-spacing:0px;writing-mode:lr-tb;text-anchor:start;fill:#000000;fill-opacity:1;stroke:none;stroke-width:0.26458335px;stroke-linecap:butt;stroke-linejoin:miter;stroke-opacity:1"
       id="text4522">
      <path
         d="m 4.5540717,25.828115 h 0.079237 l 0.00861,0.0086 v 0.523655 l 0.2049832,-0.103353 0.00517,0.0034 v 0.242879 q -0.00517,0.01206 -0.2101508,0.115411 v 0.642511 l 0.2101508,-0.09474 v 0.232544 q -0.00172,0.0069 -0.2101508,0.122301 v 0.511597 l -0.00861,0.0069 h -0.079237 l -0.00861,-0.0069 v -0.4702 l -0.4960938,0.241157 v 0.596002 l -0.00861,0.0069 h -0.072347 l -0.00861,-0.0069 v -0.552938 l -0.2222086,0.103353 v -0.244602 q 0,-0.01033 0.2222086,-0.113688 v -0.652846 h -0.00345 l -0.2187635,0.09646 V 26.796187 L 3.9597927,26.684221 V 26.18985 l 0.00861,-0.0069 h 0.072347 l 0.00861,0.0069 v 0.451307 L 4.545459,26.410336 v -0.573609 z m -0.5047065,1.073147 v 0.649401 L 4.545459,27.311228 v -0.640787 z"
         style="font-style:normal;font-variant:normal;font-weight:normal;font-stretch:normal;font-size:3.52777791px;font-family:'DejaVu Sans';-inkscape-font-specification:'DejaVu Sans, Normal';font-variant-ligatures:normal;font-variant-caps:normal;font-variant-numeric:normal;font-feature-settings:normal;text-align:start;writing-mode:lr-tb;text-anchor:start;stroke-width:0.26458335px"
         id="path4558"
         inkscape:connector-curvature="0" />
    </g>
    <g
       aria-label="♭"
       style="font-style:normal;font-variant:normal;font-weight:normal;font-stretch:normal;font-size:3.52777791px;line-height:125%;font-family:'DejaVu Sans';-inkscape-font-specification:'DejaVu Sans, Normal';font-variant-ligatures:normal;font-variant-caps:normal;font-variant-numeric:normal;font-feature-settings:normal;text-align:start;letter-spacing:0px;word-spacing:0px;writing-mode:lr-tb;text-anchor:start;fill:#000000;fill-opacity:1;stroke:none;stroke-width:0.26458335px;stroke-linecap:butt;stroke-linejoin:miter;stroke-opacity:1"
       id="text4522-9"
       transform="translate(-9.0817717,5.9890606)">
      <path
         d="m 13.060875,25.817781 h 0.07751 l 0.0086,0.01034 v 1.655368 h 0.0052 q 0.292833,-0.408243 0.542602,-0.408243 0.391018,0.0052 0.425469,0.447862 -0.04995,0.732083 -1.064534,0.883667 l -0.0052,-0.0052 v -2.573486 z m 0.08613,1.850016 v 0.611505 q 0.720025,-0.170533 0.720025,-0.69591 0.0017,-0.02239 0.0017,-0.04306 0,-0.254938 -0.256659,-0.268718 -0.204983,0 -0.465088,0.396186 z"
         style="font-style:normal;font-variant:normal;font-weight:normal;font-stretch:normal;font-size:3.52777791px;font-family:'DejaVu Sans';-inkscape-font-specification:'DejaVu Sans, Normal';font-variant-ligatures:normal;font-variant-caps:normal;font-variant-numeric:normal;font-feature-settings:normal;text-align:start;writing-mode:lr-tb;text-anchor:start;stroke-width:0.26458335px"
         id="path4561"
         inkscape:connector-curvature="0" />
    </g>
  </g>
  <g
     id="g4554"
     style="display:inline"
     transform="matrix(1.1332486,0,0,1.1332486,-0.4935749,-3.8700445)">
    <g
       id="text4511-6"
       style="font-style:normal;font-variant:normal;font-weight:normal;font-stretch:normal;font-size:5.29166698px;line-height:125%;font-family:'Bravura Text';-inkscape-font-specification:'Bravura Text, Normal';font-variant-ligatures:normal;font-variant-caps:normal;font-variant-numeric:normal;font-feature-settings:normal;text-align:start;letter-spacing:0px;word-spacing:0px;writing-mode:lr-tb;text-anchor:start;fill:#000000;fill-opacity:1;stroke:none;stroke-width:0.06941951px;stroke-linecap:butt;stroke-linejoin:miter;stroke-opacity:1"
       aria-label=""
       transform="translate(0,0.12381794)">
      <path
         inkscape:connector-curvature="0"
         id="path4544"
         style="font-style:normal;font-variant:normal;font-weight:normal;font-stretch:normal;font-size:5.29166698px;font-family:'Bravura Text';-inkscape-font-specification:'Bravura Text, Normal';font-variant-ligatures:normal;font-variant-caps:normal;font-variant-numeric:normal;font-feature-settings:normal;text-align:start;writing-mode:lr-tb;text-anchor:start;stroke-width:0.06941951px"
         d="m 4.4132503,27.438026 c -0.021167,0.08467 -0.22225,0.169334 -0.3175001,0.169334 -0.026458,0 -0.047625,-0.01058 -0.052917,-0.02117 -0.010583,-0.01588 -0.010583,-0.111125 -0.010583,-0.211667 0,-0.132291 0,-0.280458 0.010583,-0.312208 0.010583,-0.07408 0.2010833,-0.164042 0.3069167,-0.164042 0.03175,0 0.058208,0.01058 0.0635,0.02646 0.010583,0.02117 0.021167,0.127 0.021167,0.243417 0,0.111125 -0.010583,0.232834 -0.021167,0.269875 z m 0.2963333,-0.687917 c 0.026458,-0.01587 0.047625,-0.04763 0.047625,-0.07408 v -0.301625 c 0,-0.02117 -0.010583,-0.03175 -0.026458,-0.03175 -0.010583,0 -0.015875,0 -0.021167,0.0053 0,0 -0.084667,0.03175 -0.1058333,0.03704 -0.03175,0 -0.0635,-0.02117 -0.0635,-0.05821 v -0.513292 c 0,-0.02646 -0.021167,-0.04763 -0.058208,-0.04763 -0.042333,0 -0.068792,0.02117 -0.068792,0.04763 v 0.550334 c 0,0.04233 -0.015875,0.09525 -0.052917,0.121708 -0.052917,0.03175 -0.1957917,0.08996 -0.2645834,0.105833 -0.042333,0 -0.052917,-0.05292 -0.052917,-0.08467 v -0.508 c 0,-0.02646 -0.03175,-0.04763 -0.058208,-0.04763 -0.042333,0 -0.068792,0.02117 -0.068792,0.04763 v 0.5715 c 0,0.05821 -0.026458,0.100541 -0.052917,0.116416 -0.021167,0.01058 -0.1058333,0.04233 -0.1058333,0.04233 -0.03175,0.01058 -0.052917,0.04233 -0.052917,0.06879 v 0.301625 c 0,0.02646 0.010583,0.03704 0.03175,0.03704 0.00529,0 0.015875,-0.0053 0.021167,-0.0053 0,0 0.0635,-0.02117 0.089958,-0.04233 0.00529,0 0.010583,0 0.015875,0 0.026458,0 0.052917,0.04233 0.052917,0.07408 v 0.418042 c 0,0.04763 -0.021167,0.08467 -0.047625,0.100542 -0.026458,0.0053 -0.111125,0.04233 -0.111125,0.04233 -0.03175,0.01058 -0.052917,0.04233 -0.052917,0.06879 v 0.301625 c 0,0.02646 0.010583,0.03704 0.03175,0.03704 0.00529,0 0.015875,-0.0053 0.021167,-0.0053 0,0 0.058208,-0.02117 0.09525,-0.03704 0.00529,-0.0053 0.010583,-0.0053 0.010583,-0.0053 0.03175,0 0.052917,0.04763 0.052917,0.06879 v 0.523875 c 0,0.02117 0.026458,0.04233 0.052917,0.04233 0.042333,0 0.074083,-0.02117 0.074083,-0.04233 V 28.08361 c 0,-0.05292 0.021167,-0.08467 0.042333,-0.08996 l 0.2592917,-0.105833 c 0.00529,0 0.010583,-0.0053 0.015875,-0.0053 0.03175,0 0.052917,0.05292 0.052917,0.07408 v 0.529166 c 0,0.02646 0.026458,0.04763 0.058208,0.04763 0.047625,0 0.068792,-0.02117 0.068792,-0.04763 v -0.597958 c 0,-0.03704 0.021167,-0.08467 0.047625,-0.100542 0.03175,-0.01058 0.1217083,-0.04233 0.1217083,-0.04233 0.026458,-0.01587 0.047625,-0.04763 0.047625,-0.07408 v -0.301625 c 0,-0.02117 -0.010583,-0.03175 -0.026458,-0.03175 -0.010583,0 -0.015875,0 -0.021167,0.0053 l -0.111125,0.04233 c -0.026458,0 -0.058208,-0.02646 -0.058208,-0.07938 v -0.391584 c 0,-0.03175 0.021167,-0.111125 0.058208,-0.121708 z" />
    </g>
    <g
       id="text4511"
       style="font-style:normal;font-variant:normal;font-weight:normal;font-stretch:normal;font-size:5.29166698px;line-height:125%;font-family:'Bravura Text';-inkscape-font-specification:'Bravura Text, Normal';font-variant-ligatures:normal;font-variant-caps:normal;font-variant-numeric:normal;font-feature-settings:normal;text-align:start;letter-spacing:0px;word-spacing:0px;writing-mode:lr-tb;text-anchor:start;fill:#000000;fill-opacity:1;stroke:none;stroke-width:0.0718756px;stroke-linecap:butt;stroke-linejoin:miter;stroke-opacity:1"
       aria-label=""
       transform="translate(0,0.30985588)">
      <path
         inkscape:connector-curvature="0"
         id="path4547"
         style="font-style:normal;font-variant:normal;font-weight:normal;font-stretch:normal;font-size:5.29166698px;font-family:'Bravura Text';-inkscape-font-specification:'Bravura Text, Normal';font-variant-ligatures:normal;font-variant-caps:normal;font-variant-numeric:normal;font-feature-settings:normal;text-align:start;writing-mode:lr-tb;text-anchor:start;stroke-width:0.0718756px"
         d="m 3.9052502,31.395672 c 0,0 -0.015875,-0.254 -0.015875,-0.423333 0,-0.06879 0.00529,-0.121708 0.010583,-0.137583 0.015875,-0.04763 0.127,-0.142875 0.1852083,-0.174625 0.037042,-0.02117 0.074083,-0.03175 0.111125,-0.03175 0.042333,0 0.079375,0.01587 0.1058334,0.04763 0.042333,0.04763 0.068792,0.116416 0.068792,0.195791 0,0.07937 -0.021167,0.169334 -0.074083,0.254 -0.052917,0.105834 -0.1799167,0.238125 -0.3069167,0.3175 -0.015875,0.01058 -0.026458,0.01587 -0.042333,0.01587 -0.037042,0 -0.042333,-0.04233 -0.042333,-0.0635 z m -0.1481666,0.375709 c 0.010583,0.01587 0.021167,0.02117 0.037042,0.02117 0.010583,0 0.026458,-0.01058 0.026458,-0.01058 0.127,-0.06879 0.2275416,-0.185208 0.333375,-0.254 0.3757083,-0.264583 0.508,-0.523875 0.508,-0.719667 0,-0.238125 -0.1852083,-0.391583 -0.381,-0.402166 -0.03175,0 -0.058208,0 -0.089958,0.01058 -0.047625,0.01058 -0.09525,0.03175 -0.1428751,0.05821 -0.026458,0.02117 -0.074083,0.05821 -0.09525,0.05821 -0.00529,0 -0.010583,0 -0.021167,0 -0.026458,-0.01588 -0.047625,-0.04233 -0.047625,-0.07408 0.00529,-0.09525 0.03175,-1.11125 0.03175,-1.195916 0,-0.04233 -0.037042,-0.06879 -0.079375,-0.06879 -0.058208,0 -0.127,0.04233 -0.1322917,0.116417 0,0 0.015875,2.418291 0.052917,2.460625 z" />
    </g>
  </g>
</svg>
