<?xml version="1.0" encoding="UTF-8" standalone="no"?>
<svg
   xmlns:dc="http://purl.org/dc/elements/1.1/"
   xmlns:cc="http://creativecommons.org/ns#"
   xmlns:rdf="http://www.w3.org/1999/02/22-rdf-syntax-ns#"
   xmlns:svg="http://www.w3.org/2000/svg"
   xmlns="http://www.w3.org/2000/svg"
   id="svg48"
   viewbox="0 0 74.9999999997 379.42913385675"
   height="379.42913385675"
   width="74.9999999997"
   version="1.1">
  <metadata
     id="metadata54">
    <rdf:RDF>
      <cc:Work
         rdf:about="">
        <dc:format>image/svg+xml</dc:format>
        <dc:type
           rdf:resource="http://purl.org/dc/dcmitype/StillImage" />
      </cc:Work>
    </rdf:RDF>
  </metadata>
  <defs
     id="defs52" />
  <rect
     id="rect2"
     stroke-width="1"
     fill="#fff0ff"
     stroke="#990099"
     height="380.01968503784997"
     width="75.0"
     y="0"
     x="0" />
  <g
     id="text4"
     style="font-weight:bold;font-size:12px;font-family:'Proxima Nova';text-anchor:middle;fill:#990099"
     aria-label="HOSTAGE">
    <path
       id="path56"
       style="font-weight:bold;font-size:12px;font-family:'Proxima Nova';text-anchor:middle;fill:#990099"
       d="m 16.412719,26.574802 h 1.716 v -8.004 h -1.716 v 3.144 h -3.78 v -3.144 h -1.704 v 8.004 h 1.704 v -3.36 h 3.78 z" />
    <path
       id="path58"
       style="font-weight:bold;font-size:12px;font-family:'Proxima Nova';text-anchor:middle;fill:#990099"
       d="m 19.310344,22.578802 c 0,2.412 1.764,4.14 4.176,4.14 2.424,0 4.188,-1.728 4.188,-4.14 0,-2.412 -1.764,-4.14 -4.188,-4.14 -2.412,0 -4.176,1.728 -4.176,4.14 z m 6.612,0 c 0,1.488 -0.96,2.628 -2.436,2.628 -1.476,0 -2.424,-1.14 -2.424,-2.628 0,-1.5 0.948,-2.628 2.424,-2.628 1.476,0 2.436,1.128 2.436,2.628 z" />
    <path
       id="path60"
       style="font-weight:bold;font-size:12px;font-family:'Proxima Nova';text-anchor:middle;fill:#990099"
       d="m 28.341844,25.446802 c 0.744,0.756 1.848,1.272 3.384,1.272 2.16,0 3.204,-1.104 3.204,-2.568 0,-1.812 -1.68,-2.208 -3,-2.52 -0.864,-0.204 -1.596,-0.372 -1.596,-0.888 0,-0.48 0.408,-0.804 1.14,-0.804 0.816,0 1.68,0.276 2.328,0.876 l 0.948,-1.248 c -0.792,-0.732 -1.848,-1.116 -3.12,-1.116 -1.884,0 -3.036,1.104 -3.036,2.436 0,1.824 1.68,2.184 2.988,2.484 0.876,0.216 1.62,0.384 1.62,0.972 0,0.456 -0.456,0.888 -1.392,0.888 -1.104,0 -1.98,-0.492 -2.544,-1.08 z" />
    <path
       id="path62"
       style="font-weight:bold;font-size:12px;font-family:'Proxima Nova';text-anchor:middle;fill:#990099"
       d="m 37.831406,26.574802 h 1.716 v -6.504 h 2.328 v -1.5 h -6.384 v 1.5 h 2.34 z" />
    <path
       id="path64"
       style="font-weight:bold;font-size:12px;font-family:'Proxima Nova';text-anchor:middle;fill:#990099"
       d="m 47.714344,26.574802 h 1.944 l -3.084,-8.004 h -2.136 l -3.096,8.004 h 1.944 l 0.504,-1.356 h 3.432 z m -2.208,-6.3 1.248,3.444 h -2.496 z" />
    <path
       id="path66"
       style="font-weight:bold;font-size:12px;font-family:'Proxima Nova';text-anchor:middle;fill:#990099"
       d="m 49.615031,22.578802 c 0,2.52 1.92,4.152 4.26,4.152 1.452,0 2.592,-0.6 3.408,-1.512 v -3.072 h -3.816 v 1.488 h 2.112 v 0.96 c -0.324,0.3 -0.996,0.612 -1.704,0.612 -1.452,0 -2.508,-1.116 -2.508,-2.628 0,-1.512 1.056,-2.628 2.508,-2.628 0.852,0 1.536,0.48 1.896,1.044 l 1.416,-0.768 c -0.6,-0.948 -1.644,-1.788 -3.312,-1.788 -2.34,0 -4.26,1.608 -4.26,4.14 z" />
    <path
       id="path68"
       style="font-weight:bold;font-size:12px;font-family:'Proxima Nova';text-anchor:middle;fill:#990099"
       d="m 58.647469,26.574802 h 5.664 v -1.5 h -3.96 v -1.812 h 3.876 v -1.5 h -3.876 v -1.692 h 3.96 v -1.5 h -5.664 z" />
  </g>
  <g
     id="text6"
     style="font-weight:bold;font-size:12px;font-family:'Proxima Nova';dominant-baseline:hanging;text-anchor:middle;fill:#990099"
     aria-label="DHE">
    <path
       id="path71"
       style="font-weight:bold;font-size:12px;font-family:'Proxima Nova';dominant-baseline:hanging;text-anchor:middle;fill:#990099"
       d="m 26.092781,361.02889 h 3.156 c 2.508,0 4.248,-1.584 4.248,-3.996 0,-2.412 -1.74,-4.008 -4.248,-4.008 h -3.156 z m 1.704,-1.5 v -5.004 h 1.452 c 1.644,0 2.508,1.092 2.508,2.508 0,1.356 -0.924,2.496 -2.508,2.496 z" />
    <path
       id="path73"
       style="font-weight:bold;font-size:12px;font-family:'Proxima Nova';dominant-baseline:hanging;text-anchor:middle;fill:#990099"
       d="m 40.201781,361.02889 h 1.716 v -8.004 h -1.716 v 3.144 h -3.78 v -3.144 h -1.704 v 8.004 h 1.704 v -3.36 h 3.78 z" />
    <path
       id="path75"
       style="font-weight:bold;font-size:12px;font-family:'Proxima Nova';dominant-baseline:hanging;text-anchor:middle;fill:#990099"
       d="m 43.483406,361.02889 h 5.664 v -1.5 h -3.96 v -1.812 h 3.876 v -1.5 h -3.876 v -1.692 h 3.96 v -1.5 h -5.664 z" />
  </g>
  <g
     id="text8"
     style="font-weight:bold;font-size:7px;font-family:'Proxima Nova';text-anchor:middle;fill:#990099"
     aria-label="GATE">
    <path
       id="path78"
       style="font-weight:bold;font-size:7px;font-family:'Proxima Nova';text-anchor:middle;fill:#990099"
       d="m 28.994836,59.160142 c 0,1.47 1.12,2.422 2.485,2.422 0.847,0 1.512,-0.35 1.988,-0.882 v -1.792 h -2.226 v 0.868 h 1.232 v 0.56 c -0.189,0.175 -0.581,0.357 -0.994,0.357 -0.847,0 -1.463,-0.651 -1.463,-1.533 0,-0.882 0.616,-1.533 1.463,-1.533 0.497,0 0.896,0.28 1.106,0.609 l 0.826,-0.448 c -0.35,-0.553 -0.959,-1.043 -1.932,-1.043 -1.365,0 -2.485,0.938 -2.485,2.415 z" />
    <path
       id="path80"
       style="font-weight:bold;font-size:7px;font-family:'Proxima Nova';text-anchor:middle;fill:#990099"
       d="m 37.42907,61.491142 h 1.134 l -1.799,-4.669 h -1.246 l -1.806,4.669 h 1.134 l 0.294,-0.791 h 2.002 z m -1.288,-3.675 0.728,2.009 h -1.456 z" />
    <path
       id="path82"
       style="font-weight:bold;font-size:7px;font-family:'Proxima Nova';text-anchor:middle;fill:#990099"
       d="m 39.621055,61.491142 h 1.001 v -3.794 h 1.358 v -0.875 h -3.724 v 0.875 h 1.365 z" />
    <path
       id="path84"
       style="font-weight:bold;font-size:7px;font-family:'Proxima Nova';text-anchor:middle;fill:#990099"
       d="m 42.617273,61.491142 h 3.304 v -0.875 h -2.31 v -1.057 h 2.261 v -0.875 h -2.261 v -0.987 h 2.31 v -0.875 h -3.304 z" />
  </g>
  <g
     id="text10"
     style="font-weight:bold;font-size:7px;font-family:'Proxima Nova';dominant-baseline:hanging;text-anchor:middle;fill:#990099"
     aria-label="TIMER">
    <path
       id="path87"
       style="font-weight:bold;font-size:7px;font-family:'Proxima Nova';dominant-baseline:hanging;text-anchor:middle;fill:#990099"
       d="m 28.75875,90.570652 h 1.001 v -3.794 h 1.358 v -0.875 h -3.724 v 0.875 h 1.365 z" />
    <path
       id="path89"
       style="font-weight:bold;font-size:7px;font-family:'Proxima Nova';dominant-baseline:hanging;text-anchor:middle;fill:#990099"
       d="m 31.754969,90.570652 h 0.994 v -4.669 h -0.994 z" />
    <path
       id="path91"
       style="font-weight:bold;font-size:7px;font-family:'Proxima Nova';dominant-baseline:hanging;text-anchor:middle;fill:#990099"
       d="m 37.729031,90.570652 h 1.001 v -4.669 h -1.4 l -1.134,2.821 -1.134,-2.821 h -1.393 v 4.669 h 0.994 v -3.269 l 1.316,3.269 h 0.434 l 1.316,-3.269 z" />
    <path
       id="path93"
       style="font-weight:bold;font-size:7px;font-family:'Proxima Nova';dominant-baseline:hanging;text-anchor:middle;fill:#990099"
       d="m 39.657313,90.570652 h 3.303999 v -0.875 h -2.309999 v -1.057 h 2.260999 v -0.875 h -2.260999 v -0.987 h 2.309999 v -0.875 h -3.303999 z" />
    <path
       id="path95"
       style="font-weight:bold;font-size:7px;font-family:'Proxima Nova';dominant-baseline:hanging;text-anchor:middle;fill:#990099"
       d="m 46.384203,90.570652 h 1.141 l -1.05,-1.778 c 0.504,-0.119 1.022,-0.56 1.022,-1.386 0,-0.868 -0.595,-1.505 -1.568,-1.505 h -2.184 v 4.669 h 0.994 v -1.659 h 0.728 z m 0.098,-3.164 c 0,0.392 -0.301,0.63 -0.7,0.63 h -1.043 v -1.26 h 1.043 c 0.399,0 0.7,0.238 0.7,0.63 z" />
  </g>
  <rect
     id="rect12"
     fill="none"
     stroke="none"
     ry="3.0"
     rx="3.0"
     stroke-width="1.033464566925"
     height="39.361548556245"
     width="31.742125984125003"
     y="104.9543963250675"
     x="3.863179133842814" />
  <g
     id="text14"
     style="font-weight:bold;font-size:7px;font-family:'Proxima Nova';text-anchor:middle;fill:#990099"
     aria-label="CV">
    <path
       id="path98"
       style="font-weight:bold;font-size:7px;font-family:'Proxima Nova';text-anchor:middle;fill:#990099"
       d="m 17.672085,113.17455 c 1.029,0 1.617,-0.567 1.953,-1.148 l -0.854,-0.413 c -0.196,0.385 -0.616,0.679 -1.099,0.679 -0.847,0 -1.463,-0.651 -1.463,-1.533 0,-0.882 0.616,-1.533 1.463,-1.533 0.483,0 0.903,0.301 1.099,0.679 l 0.854,-0.42 c -0.329,-0.581 -0.924,-1.141 -1.953,-1.141 -1.4,0 -2.485,0.98 -2.485,2.415 0,1.435 1.085,2.415 2.485,2.415 z" />
    <path
       id="path100"
       style="font-weight:bold;font-size:7px;font-family:'Proxima Nova';text-anchor:middle;fill:#990099"
       d="m 21.505241,113.09055 h 1.246 l 1.799,-4.669 h -1.134 l -1.288,3.591 -1.295,-3.591 h -1.134 z" />
  </g>
  <g
     id="text16"
     style="font-weight:bold;font-size:7px;font-family:'Proxima Nova';text-anchor:middle;fill:#990099"
     aria-label="100">
    <path
       id="path103"
       style="font-weight:bold;font-size:7px;font-family:'Proxima Nova';text-anchor:middle;fill:#990099"
       d="m 50.917227,111.688 h 0.994 v -4.669 h -0.868 l -1.47,1.477 0.567,0.595 0.777,-0.791 z" />
    <path
       id="path105"
       style="font-weight:bold;font-size:7px;font-family:'Proxima Nova';text-anchor:middle;fill:#990099"
       d="m 52.605321,109.357 c 0,1.204 0.595,2.415 1.932,2.415 1.33,0 1.932,-1.211 1.932,-2.415 0,-1.204 -0.602,-2.408 -1.932,-2.408 -1.337,0 -1.932,1.204 -1.932,2.408 z m 2.849,0 c 0,0.861 -0.252,1.533 -0.917,1.533 -0.672,0 -0.924,-0.672 -0.924,-1.533 0,-0.861 0.252,-1.526 0.924,-1.526 0.665,0 0.917,0.665 0.917,1.526 z" />
    <path
       id="path107"
       style="font-weight:bold;font-size:7px;font-family:'Proxima Nova';text-anchor:middle;fill:#990099"
       d="m 56.939305,109.357 c 0,1.204 0.595,2.415 1.932,2.415 1.33,0 1.932,-1.211 1.932,-2.415 0,-1.204 -0.602,-2.408 -1.932,-2.408 -1.337,0 -1.932,1.204 -1.932,2.408 z m 2.849,0 c 0,0.861 -0.252,1.533 -0.917,1.533 -0.672,0 -0.924,-0.672 -0.924,-1.533 0,-0.861 0.252,-1.526 0.924,-1.526 0.665,0 0.917,0.665 0.917,1.526 z" />
  </g>
  <g
     id="text18"
     style="font-weight:bold;font-size:7px;font-family:'Proxima Nova';dominant-baseline:hanging;text-anchor:middle;fill:#990099"
     aria-label="1">
    <path
       id="path110"
       style="font-weight:bold;font-size:7px;font-family:'Proxima Nova';dominant-baseline:hanging;text-anchor:middle;fill:#990099"
       d="m 55.251212,149.62577 h 0.994 v -4.669 h -0.868 l -1.47,1.477 0.567,0.595 0.777,-0.791 z" />
  </g>
  <g
     id="text20"
     style="font-weight:bold;font-size:7px;font-family:'Proxima Nova';dominant-baseline:middle;text-anchor:start;fill:#990099"
     aria-label="10">
    <path
       id="path113"
       style="font-weight:bold;font-size:7px;font-family:'Proxima Nova';dominant-baseline:middle;text-anchor:start;fill:#990099"
       d="m 63.109004,130.13539 h 0.994 v -4.669 h -0.868 l -1.47,1.477 0.567,0.595 0.777,-0.791 z" />
    <path
       id="path115"
       style="font-weight:bold;font-size:7px;font-family:'Proxima Nova';dominant-baseline:middle;text-anchor:start;fill:#990099"
       d="m 64.797097,127.80439 c 0,1.204 0.595,2.415 1.932,2.415 1.33,0 1.932,-1.211 1.932,-2.415 0,-1.204 -0.602,-2.408 -1.932,-2.408 -1.337,0 -1.932,1.204 -1.932,2.408 z m 2.849,0 c 0,0.861 -0.252,1.533 -0.917,1.533 -0.672,0 -0.924,-0.672 -0.924,-1.533 0,-0.861 0.252,-1.526 0.924,-1.526 0.665,0 0.917,0.665 0.917,1.526 z" />
  </g>
  <g
     id="text22"
     style="font-weight:bold;font-size:9px;font-family:'Proxima Nova';text-anchor:middle;fill:#990099"
     aria-label="DURATION">
    <path
       id="path118"
       style="font-weight:bold;font-size:9px;font-family:'Proxima Nova';text-anchor:middle;fill:#990099"
       d="m 15.31275,160.9252 h 2.367 c 1.881,0 3.186,-1.188 3.186,-2.997 0,-1.809 -1.305,-3.006 -3.186,-3.006 h -2.367 z m 1.278,-1.125 v -3.753 h 1.089 c 1.233,0 1.881,0.819 1.881,1.881 0,1.017 -0.693,1.872 -1.881,1.872 z" />
    <path
       id="path120"
       style="font-weight:bold;font-size:9px;font-family:'Proxima Nova';text-anchor:middle;fill:#990099"
       d="m 21.7815,158.5312 c 0,1.476 0.882,2.502 2.709,2.502 1.827,0 2.709,-1.017 2.709,-2.511 v -3.6 h -1.305 v 3.564 c 0,0.837 -0.477,1.413 -1.404,1.413 -0.927,0 -1.413,-0.576 -1.413,-1.413 v -3.564 h -1.296 z" />
    <path
       id="path122"
       style="font-weight:bold;font-size:9px;font-family:'Proxima Nova';text-anchor:middle;fill:#990099"
       d="m 31.766297,160.9252 h 1.467 l -1.35,-2.286 c 0.648,-0.153 1.314,-0.72 1.314,-1.782 0,-1.116 -0.765,-1.935 -2.016,-1.935 h -2.808 v 6.003 h 1.278 v -2.133 h 0.936 z m 0.126,-4.068 c 0,0.504 -0.387,0.81 -0.9,0.81 h -1.341 v -1.62 h 1.341 c 0.513,0 0.9,0.306 0.9,0.81 z" />
    <path
       id="path124"
       style="font-weight:bold;font-size:9px;font-family:'Proxima Nova';text-anchor:middle;fill:#990099"
       d="m 38.2965,160.9252 h 1.458 l -2.313,-6.003 h -1.602 l -2.322,6.003 h 1.458 l 0.378,-1.017 h 2.574 z m -1.656,-4.725 0.936,2.583 h -1.872 z" />
    <path
       id="path126"
       style="font-weight:bold;font-size:9px;font-family:'Proxima Nova';text-anchor:middle;fill:#990099"
       d="m 41.114766,160.9252 h 1.287 v -4.878 h 1.746 v -1.125 h -4.788 v 1.125 h 1.755 z" />
    <path
       id="path128"
       style="font-weight:bold;font-size:9px;font-family:'Proxima Nova';text-anchor:middle;fill:#990099"
       d="m 44.967047,160.9252 h 1.278 v -6.003 h -1.278 z" />
    <path
       id="path130"
       style="font-weight:bold;font-size:9px;font-family:'Proxima Nova';text-anchor:middle;fill:#990099"
       d="m 47.139984,157.9282 c 0,1.809 1.323,3.105 3.132,3.105 1.818,0 3.141,-1.296 3.141,-3.105 0,-1.809 -1.323,-3.105 -3.141,-3.105 -1.809,0 -3.132,1.296 -3.132,3.105 z m 4.959,0 c 0,1.116 -0.72,1.971 -1.827,1.971 -1.107,0 -1.818,-0.855 -1.818,-1.971 0,-1.125 0.711,-1.971 1.818,-1.971 1.107,0 1.827,0.846 1.827,1.971 z" />
    <path
       id="path132"
       style="font-weight:bold;font-size:9px;font-family:'Proxima Nova';text-anchor:middle;fill:#990099"
       d="m 58.458609,160.9252 h 1.233 v -6.003 h -1.278 v 3.771 l -2.781,-3.771 h -1.314 v 6.003 h 1.278 v -3.915 z" />
  </g>
  <rect
     id="rect24"
     fill="#fff0ff"
     stroke="#990099"
     ry="3.0"
     rx="3.0"
     stroke-width="1.033464566925"
     height="39.361548556245"
     width="31.742125984125003"
     y="218.63549868681753"
     x="3.863179133842814" />
  <g
     id="text26"
     style="font-weight:bold;font-size:7px;font-family:'Proxima Nova';text-anchor:middle;fill:#990099"
     aria-label="DEFER">
    <path
       id="path135"
       style="font-weight:bold;font-size:7px;font-family:'Proxima Nova';text-anchor:middle;fill:#990099"
       d="m 9.3476087,226.77165 h 1.8410003 c 1.463,0 2.478,-0.924 2.478,-2.331 0,-1.407 -1.015,-2.338 -2.478,-2.338 H 9.3476087 Z m 0.9940003,-0.875 v -2.919 h 0.847 c 0.959,0 1.463,0.637 1.463,1.463 0,0.791 -0.539,1.456 -1.463,1.456 z" />
    <path
       id="path137"
       style="font-weight:bold;font-size:7px;font-family:'Proxima Nova';text-anchor:middle;fill:#990099"
       d="m 14.378859,226.77165 h 3.304 v -0.875 h -2.31 v -1.057 h 2.261 v -0.875 h -2.261 v -0.987 h 2.31 v -0.875 h -3.304 z" />
    <path
       id="path139"
       style="font-weight:bold;font-size:7px;font-family:'Proxima Nova';text-anchor:middle;fill:#990099"
       d="m 18.466749,226.77165 h 0.994 v -1.932 h 2.261 v -0.875 h -2.261 v -0.987 h 2.31 v -0.875 h -3.304 z" />
    <path
       id="path141"
       style="font-weight:bold;font-size:7px;font-family:'Proxima Nova';text-anchor:middle;fill:#990099"
       d="m 22.458937,226.77165 h 3.304 v -0.875 h -2.31 v -1.057 h 2.261 v -0.875 h -2.261 v -0.987 h 2.31 v -0.875 h -3.304 z" />
    <path
       id="path143"
       style="font-weight:bold;font-size:7px;font-family:'Proxima Nova';text-anchor:middle;fill:#990099"
       d="m 29.185827,226.77165 h 1.141 l -1.05,-1.778 c 0.504,-0.119 1.022,-0.56 1.022,-1.386 0,-0.868 -0.595,-1.505 -1.568,-1.505 h -2.184 v 4.669 h 0.994 v -1.659 h 0.728 z m 0.098,-3.164 c 0,0.392 -0.301,0.63 -0.7,0.63 h -1.043 v -1.26 h 1.043 c 0.399,0 0.7,0.238 0.7,0.63 z" />
  </g>
  <rect
     id="rect28"
     fill="#990099"
     stroke="#990099"
     ry="3.0"
     rx="3.0"
     stroke-width="1.033464566925"
     height="39.361548556245"
     width="31.742125984124996"
     y="218.63549868681753"
     x="39.39469488173219" />
  <g
     id="text30"
     style="font-weight:bold;font-size:7px;font-family:'Proxima Nova';text-anchor:middle;fill:#fff0ff"
     aria-label="ACTIVE">
    <path
       id="path146"
       style="font-weight:bold;font-size:7px;font-family:'Proxima Nova';text-anchor:middle;fill:#fff0ff"
       d="m 46.834477,226.77165 h 1.134 l -1.799,-4.669 h -1.246 l -1.806,4.669 h 1.134 l 0.294,-0.791 h 2.002 z m -1.288,-3.675 0.728,2.009 h -1.456 z" />
    <path
       id="path148"
       style="font-weight:bold;font-size:7px;font-family:'Proxima Nova';text-anchor:middle;fill:#fff0ff"
       d="m 50.428212,226.85565 c 1.029,0 1.617,-0.567 1.953,-1.148 l -0.854,-0.413 c -0.196,0.385 -0.616,0.679 -1.099,0.679 -0.847,0 -1.463,-0.651 -1.463,-1.533 0,-0.882 0.616,-1.533 1.463,-1.533 0.483,0 0.903,0.301 1.099,0.679 l 0.854,-0.42 c -0.329,-0.581 -0.924,-1.141 -1.953,-1.141 -1.4,0 -2.485,0.98 -2.485,2.415 0,1.435 1.085,2.415 2.485,2.415 z" />
    <path
       id="path150"
       style="font-weight:bold;font-size:7px;font-family:'Proxima Nova';text-anchor:middle;fill:#fff0ff"
       d="m 54.057712,226.77165 h 1.001 v -3.794 h 1.358 v -0.875 h -3.724 v 0.875 h 1.365 z" />
    <path
       id="path152"
       style="font-weight:bold;font-size:7px;font-family:'Proxima Nova';text-anchor:middle;fill:#fff0ff"
       d="m 57.05393,226.77165 h 0.994 v -4.669 h -0.994 z" />
    <path
       id="path154"
       style="font-weight:bold;font-size:7px;font-family:'Proxima Nova';text-anchor:middle;fill:#fff0ff"
       d="m 60.276993,226.77165 h 1.246 l 1.799,-4.669 h -1.134 l -1.288,3.591 -1.295,-3.591 h -1.134 z" />
    <path
       id="path156"
       style="font-weight:bold;font-size:7px;font-family:'Proxima Nova';text-anchor:middle;fill:#fff0ff"
       d="m 63.753149,226.77165 h 3.304 v -0.875 h -2.31 v -1.057 h 2.261 v -0.875 h -2.261 v -0.987 h 2.31 v -0.875 h -3.304 z" />
  </g>
  <rect
     id="rect32"
     fill="#fff0ff"
     stroke="#990099"
     ry="3.0"
     rx="3.0"
     stroke-width="1.033464566925"
     height="39.361548556245"
     width="31.742125984125003"
     y="262.9268372693175"
     x="3.863179133842814" />
  <g
     id="text34"
     style="font-weight:bold;font-size:7px;font-family:'Proxima Nova';text-anchor:middle;fill:#990099"
     aria-label="HOLD">
    <path
       id="path159"
       style="font-weight:bold;font-size:7px;font-family:'Proxima Nova';text-anchor:middle;fill:#990099"
       d="m 13.811257,271.06299 h 1.001 v -4.669 h -1.001 v 1.834 h -2.205 v -1.834 h -0.994 v 4.669 h 0.994 v -1.96 h 2.205 z" />
    <path
       id="path161"
       style="font-weight:bold;font-size:7px;font-family:'Proxima Nova';text-anchor:middle;fill:#990099"
       d="m 15.501538,268.73199 c 0,1.407 1.029,2.415 2.436,2.415 1.414,0 2.443,-1.008 2.443,-2.415 0,-1.407 -1.029,-2.415 -2.443,-2.415 -1.407,0 -2.436,1.008 -2.436,2.415 z m 3.857,0 c 0,0.868 -0.56,1.533 -1.421,1.533 -0.861,0 -1.414,-0.665 -1.414,-1.533 0,-0.875 0.553,-1.533 1.414,-1.533 0.861,0 1.421,0.658 1.421,1.533 z" />
    <path
       id="path163"
       style="font-weight:bold;font-size:7px;font-family:'Proxima Nova';text-anchor:middle;fill:#990099"
       d="m 21.084913,271.06299 h 2.968 v -0.875 h -1.974 v -3.794 h -0.994 z" />
    <path
       id="path165"
       style="font-weight:bold;font-size:7px;font-family:'Proxima Nova';text-anchor:middle;fill:#990099"
       d="m 24.748976,271.06299 h 1.841 c 1.463,0 2.478,-0.924 2.478,-2.331 0,-1.407 -1.015,-2.338 -2.478,-2.338 h -1.841 z m 0.994,-0.875 v -2.919 h 0.847 c 0.959,0 1.463,0.637 1.463,1.463 0,0.791 -0.539,1.456 -1.463,1.456 z" />
  </g>
  <rect
     id="rect36"
     fill="#990099"
     stroke="#990099"
     ry="3.0"
     rx="3.0"
     stroke-width="1.033464566925"
     height="39.361548556245"
     width="31.742125984124996"
     y="262.9268372693175"
     x="39.39469488173219" />
  <g
     id="text38"
     style="font-weight:bold;font-size:7px;font-family:'Proxima Nova';text-anchor:middle;fill:#fff0ff"
     aria-label="EOC">
    <path
       id="path168"
       style="font-weight:bold;font-size:7px;font-family:'Proxima Nova';text-anchor:middle;fill:#fff0ff"
       d="m 48.597876,271.06299 h 3.304 v -0.875 h -2.31 v -1.057 h 2.261 v -0.875 h -2.261 v -0.987 h 2.31 v -0.875 h -3.304 z" />
    <path
       id="path170"
       style="font-weight:bold;font-size:7px;font-family:'Proxima Nova';text-anchor:middle;fill:#fff0ff"
       d="m 52.461766,268.73199 c 0,1.407 1.029,2.415 2.436,2.415 1.414,0 2.443,-1.008 2.443,-2.415 0,-1.407 -1.029,-2.415 -2.443,-2.415 -1.407,0 -2.436,1.008 -2.436,2.415 z m 3.857,0 c 0,0.868 -0.56,1.533 -1.421,1.533 -0.861,0 -1.414,-0.665 -1.414,-1.533 0,-0.875 0.553,-1.533 1.414,-1.533 0.861,0 1.421,0.658 1.421,1.533 z" />
    <path
       id="path172"
       style="font-weight:bold;font-size:7px;font-family:'Proxima Nova';text-anchor:middle;fill:#fff0ff"
       d="m 60.306141,271.14699 c 1.029,0 1.617,-0.567 1.953,-1.148 l -0.854,-0.413 c -0.196,0.385 -0.616,0.679 -1.099,0.679 -0.847,0 -1.463,-0.651 -1.463,-1.533 0,-0.882 0.616,-1.533 1.463,-1.533 0.483,0 0.903,0.301 1.099,0.679 l 0.854,-0.42 c -0.329,-0.581 -0.924,-1.141 -1.953,-1.141 -1.4,0 -2.485,0.98 -2.485,2.415 0,1.435 1.085,2.415 2.485,2.415 z" />
  </g>
  <rect
     id="rect40"
     fill="#fff0ff"
     stroke="#990099"
     ry="3.0"
     rx="3.0"
     stroke-width="1.033464566925"
     height="39.361548556245"
     width="31.742125984125003"
     y="307.21817585181753"
     x="3.863179133842814" />
  <g
     id="text42"
     style="font-weight:bold;font-size:7px;font-family:'Proxima Nova';text-anchor:middle;fill:#990099"
     aria-label="IN">
    <path
       id="path175"
       style="font-weight:bold;font-size:7px;font-family:'Proxima Nova';text-anchor:middle;fill:#990099"
       d="m 16.689406,315.35434 h 0.994 v -4.669 h -0.994 z" />
    <path
       id="path177"
       style="font-weight:bold;font-size:7px;font-family:'Proxima Nova';text-anchor:middle;fill:#990099"
       d="m 21.823468,315.35434 h 0.959 v -4.669 h -0.994 v 2.933 l -2.163,-2.933 h -1.022 v 4.669 h 0.994 v -3.045 z" />
  </g>
  <rect
     id="rect44"
     fill="#990099"
     stroke="#990099"
     ry="3.0"
     rx="3.0"
     stroke-width="1.033464566925"
     height="39.361548556245"
     width="31.742125984124996"
     y="307.21817585181753"
     x="39.39469488173219" />
  <g
     id="text46"
     style="font-weight:bold;font-size:7px;font-family:'Proxima Nova';text-anchor:middle;fill:#fff0ff"
     aria-label="OUT">
    <path
       id="path180"
       style="font-weight:bold;font-size:7px;font-family:'Proxima Nova';text-anchor:middle;fill:#fff0ff"
       d="m 48.223485,313.02334 c 0,1.407 1.029,2.415 2.436,2.415 1.414,0 2.443,-1.008 2.443,-2.415 0,-1.407 -1.029,-2.415 -2.443,-2.415 -1.407,0 -2.436,1.008 -2.436,2.415 z m 3.857,0 c 0,0.868 -0.56,1.533 -1.421,1.533 -0.861,0 -1.414,-0.665 -1.414,-1.533 0,-0.875 0.553,-1.533 1.414,-1.533 0.861,0 1.421,0.658 1.421,1.533 z" />
    <path
       id="path182"
       style="font-weight:bold;font-size:7px;font-family:'Proxima Nova';text-anchor:middle;fill:#fff0ff"
       d="m 53.80686,313.49234 c 0,1.148 0.686,1.946 2.107,1.946 1.421,0 2.107,-0.791 2.107,-1.953 v -2.8 h -1.015 v 2.772 c 0,0.651 -0.371,1.099 -1.092,1.099 -0.721,0 -1.099,-0.448 -1.099,-1.099 v -2.772 h -1.008 z" />
    <path
       id="path184"
       style="font-weight:bold;font-size:7px;font-family:'Proxima Nova';text-anchor:middle;fill:#fff0ff"
       d="m 60.011813,315.35434 h 1.001 v -3.794 h 1.358 v -0.875 h -3.724 v 0.875 h 1.365 z" />
  </g>
</svg>
