<?xml version="1.0" encoding="UTF-8" standalone="no"?>
<svg
   xmlns:dc="http://purl.org/dc/elements/1.1/"
   xmlns:cc="http://creativecommons.org/ns#"
   xmlns:rdf="http://www.w3.org/1999/02/22-rdf-syntax-ns#"
   xmlns:svg="http://www.w3.org/2000/svg"
   xmlns="http://www.w3.org/2000/svg"
   id="svg38"
   viewbox="0 0 74.9999999997 379.42913385675"
   height="379.42913385675"
   width="74.9999999997"
   version="1.1">
  <metadata
     id="metadata44">
    <rdf:RDF>
      <cc:Work
         rdf:about="">
        <dc:format>image/svg+xml</dc:format>
        <dc:type
           rdf:resource="http://purl.org/dc/dcmitype/StillImage" />
      </cc:Work>
    </rdf:RDF>
  </metadata>
  <defs
     id="defs42" />
  <rect
     id="rect2"
     stroke-width="1"
     fill="#f0f7ff"
     stroke="#004c99"
     height="380.01968503784997"
     width="75.0"
     y="0"
     x="0" />
  <g
     id="text4"
     style="font-weight:bold;font-size:12px;font-family:'Proxima Nova';text-anchor:middle;fill:#004c99"
     aria-label="UPSTAGE">
    <path
       id="path46"
       style="font-weight:bold;font-size:12px;font-family:'Proxima Nova';text-anchor:middle;fill:#004c99"
       d="m 11.772469,23.382802 c 0,1.968 1.176,3.336 3.612,3.336 2.436,0 3.612,-1.356 3.612,-3.348 v -4.8 h -1.74 v 4.752 c 0,1.116 -0.636,1.884 -1.872,1.884 -1.236,0 -1.884,-0.768 -1.884,-1.884 v -4.752 h -1.728 z" />
    <path
       id="path48"
       style="font-weight:bold;font-size:12px;font-family:'Proxima Nova';text-anchor:middle;fill:#004c99"
       d="m 20.561531,26.574802 h 1.704 v -2.844 h 2.04 c 1.728,0 2.688,-1.188 2.688,-2.58 0,-1.404 -0.948,-2.58 -2.688,-2.58 h -3.744 z m 4.692,-5.424 c 0,0.66 -0.504,1.08 -1.176,1.08 h -1.812 v -2.16 h 1.812 c 0.672,0 1.176,0.408 1.176,1.08 z" />
    <path
       id="path50"
       style="font-weight:bold;font-size:12px;font-family:'Proxima Nova';text-anchor:middle;fill:#004c99"
       d="m 27.498094,25.446802 c 0.744,0.756 1.848,1.272 3.384,1.272 2.16,0 3.204,-1.104 3.204,-2.568 0,-1.812 -1.68,-2.208 -3,-2.52 -0.864,-0.204 -1.596,-0.372 -1.596,-0.888 0,-0.48 0.408,-0.804 1.14,-0.804 0.816,0 1.68,0.276 2.328,0.876 l 0.948,-1.248 c -0.792,-0.732 -1.848,-1.116 -3.12,-1.116 -1.884,0 -3.036,1.104 -3.036,2.436 0,1.824 1.68,2.184 2.988,2.484 0.876,0.216 1.62,0.384 1.62,0.972 0,0.456 -0.456,0.888 -1.392,0.888 -1.104,0 -1.98,-0.492 -2.544,-1.08 z" />
    <path
       id="path52"
       style="font-weight:bold;font-size:12px;font-family:'Proxima Nova';text-anchor:middle;fill:#004c99"
       d="m 36.987656,26.574802 h 1.716 v -6.504 h 2.328 v -1.5 h -6.384 v 1.5 h 2.34 z" />
    <path
       id="path54"
       style="font-weight:bold;font-size:12px;font-family:'Proxima Nova';text-anchor:middle;fill:#004c99"
       d="m 46.870594,26.574802 h 1.944 l -3.084,-8.004 h -2.136 l -3.096,8.004 h 1.944 l 0.504,-1.356 h 3.432 z m -2.208,-6.3 1.248,3.444 h -2.496 z" />
    <path
       id="path56"
       style="font-weight:bold;font-size:12px;font-family:'Proxima Nova';text-anchor:middle;fill:#004c99"
       d="m 48.771281,22.578802 c 0,2.52 1.92,4.152 4.26,4.152 1.452,0 2.592,-0.6 3.408,-1.512 v -3.072 h -3.816 v 1.488 h 2.112 v 0.96 c -0.324,0.3 -0.996,0.612 -1.704,0.612 -1.452,0 -2.508,-1.116 -2.508,-2.628 0,-1.512 1.056,-2.628 2.508,-2.628 0.852,0 1.536,0.48 1.896,1.044 l 1.416,-0.768 c -0.6,-0.948 -1.644,-1.788 -3.312,-1.788 -2.34,0 -4.26,1.608 -4.26,4.14 z" />
    <path
       id="path58"
       style="font-weight:bold;font-size:12px;font-family:'Proxima Nova';text-anchor:middle;fill:#004c99"
       d="m 57.803719,26.574802 h 5.664 v -1.5 h -3.96 v -1.812 h 3.876 v -1.5 h -3.876 v -1.692 h 3.96 v -1.5 h -5.664 z" />
  </g>
  <g
     id="text6"
     style="font-weight:bold;font-size:12px;font-family:'Proxima Nova';dominant-baseline:hanging;text-anchor:middle;fill:#004c99"
     aria-label="DHE">
    <path
       id="path61"
       style="font-weight:bold;font-size:12px;font-family:'Proxima Nova';dominant-baseline:hanging;text-anchor:middle;fill:#004c99"
       d="m 26.092781,361.02889 h 3.156 c 2.508,0 4.248,-1.584 4.248,-3.996 0,-2.412 -1.74,-4.008 -4.248,-4.008 h -3.156 z m 1.704,-1.5 v -5.004 h 1.452 c 1.644,0 2.508,1.092 2.508,2.508 0,1.356 -0.924,2.496 -2.508,2.496 z" />
    <path
       id="path63"
       style="font-weight:bold;font-size:12px;font-family:'Proxima Nova';dominant-baseline:hanging;text-anchor:middle;fill:#004c99"
       d="m 40.201781,361.02889 h 1.716 v -8.004 h -1.716 v 3.144 h -3.78 v -3.144 h -1.704 v 8.004 h 1.704 v -3.36 h 3.78 z" />
    <path
       id="path65"
       style="font-weight:bold;font-size:12px;font-family:'Proxima Nova';dominant-baseline:hanging;text-anchor:middle;fill:#004c99"
       d="m 43.483406,361.02889 h 5.664 v -1.5 h -3.96 v -1.812 h 3.876 v -1.5 h -3.876 v -1.692 h 3.96 v -1.5 h -5.664 z" />
  </g>
  <g
     id="text8"
     style="font-weight:bold;font-size:9px;font-family:'Proxima Nova';text-anchor:middle;fill:#004c99"
     aria-label="LEVEL">
    <path
       id="path68"
       style="font-weight:bold;font-size:9px;font-family:'Proxima Nova';text-anchor:middle;fill:#004c99"
       d="m 25.051031,51.673229 h 3.816 v -1.125 h -2.538 v -4.878 h -1.278 z" />
    <path
       id="path70"
       style="font-weight:bold;font-size:9px;font-family:'Proxima Nova';text-anchor:middle;fill:#004c99"
       d="m 29.761969,51.673229 h 4.248 v -1.125 h -2.97 v -1.359 h 2.907 v -1.125 h -2.907 v -1.269 h 2.97 v -1.125 h -4.248 z" />
    <path
       id="path72"
       style="font-weight:bold;font-size:9px;font-family:'Proxima Nova';text-anchor:middle;fill:#004c99"
       d="m 36.700828,51.673229 h 1.602 l 2.313,-6.003 h -1.458 l -1.656,4.617 -1.665,-4.617 h -1.458 z" />
    <path
       id="path74"
       style="font-weight:bold;font-size:9px;font-family:'Proxima Nova';text-anchor:middle;fill:#004c99"
       d="m 41.170172,51.673229 h 4.248 v -1.125 h -2.97 v -1.359 h 2.907 v -1.125 h -2.907 v -1.269 h 2.97 v -1.125 h -4.248 z" />
    <path
       id="path76"
       style="font-weight:bold;font-size:9px;font-family:'Proxima Nova';text-anchor:middle;fill:#004c99"
       d="m 46.426031,51.673229 h 3.816 v -1.125 h -2.538 v -4.878 h -1.278 z" />
  </g>
  <rect
     id="rect10"
     fill="none"
     stroke="none"
     ry="3.0"
     rx="3.0"
     stroke-width="1.033464566925"
     height="39.361548556245"
     width="31.742125984125003"
     y="104.9543963250675"
     x="3.863188877937305" />
  <g
     id="text12"
     style="font-weight:bold;font-size:7px;font-family:'Proxima Nova';text-anchor:middle;fill:#004c99"
     aria-label="CV">
    <path
       id="path79"
       style="font-weight:bold;font-size:7px;font-family:'Proxima Nova';text-anchor:middle;fill:#004c99"
       d="m 17.672095,113.17455 c 1.029,0 1.617,-0.567 1.953,-1.148 l -0.854,-0.413 c -0.196,0.385 -0.616,0.679 -1.099,0.679 -0.847,0 -1.463,-0.651 -1.463,-1.533 0,-0.882 0.616,-1.533 1.463,-1.533 0.483,0 0.903,0.301 1.099,0.679 l 0.854,-0.42 c -0.329,-0.581 -0.924,-1.141 -1.953,-1.141 -1.4,0 -2.485,0.98 -2.485,2.415 0,1.435 1.085,2.415 2.485,2.415 z" />
    <path
       id="path81"
       style="font-weight:bold;font-size:7px;font-family:'Proxima Nova';text-anchor:middle;fill:#004c99"
       d="m 21.505251,113.09055 h 1.246 l 1.799,-4.669 h -1.134 l -1.288,3.591 -1.295,-3.591 h -1.134 z" />
  </g>
  <g
     id="text14"
     style="font-weight:bold;font-size:7px;font-family:'Proxima Nova';text-anchor:middle;fill:#004c99"
     aria-label="UNI">
    <path
       id="path84"
       style="font-weight:bold;font-size:7px;font-family:'Proxima Nova';text-anchor:middle;fill:#004c99"
       d="m 49.657435,114.25513 c 0,1.148 0.686,1.946 2.107,1.946 1.421,0 2.107,-0.791 2.107,-1.953 v -2.8 h -1.015 v 2.772 c 0,0.651 -0.371,1.099 -1.092,1.099 -0.721,0 -1.099,-0.448 -1.099,-1.099 v -2.772 h -1.008 z" />
    <path
       id="path86"
       style="font-weight:bold;font-size:7px;font-family:'Proxima Nova';text-anchor:middle;fill:#004c99"
       d="m 58.004388,116.11713 h 0.959 v -4.669 h -0.994 v 2.933 l -2.163,-2.933 h -1.022 v 4.669 h 0.994 v -3.045 z" />
    <path
       id="path88"
       style="font-weight:bold;font-size:7px;font-family:'Proxima Nova';text-anchor:middle;fill:#004c99"
       d="m 59.883997,116.11713 h 0.994 v -4.669 h -0.994 z" />
  </g>
  <g
     id="text16"
     style="font-weight:bold;font-size:7px;font-family:'Proxima Nova';dominant-baseline:hanging;text-anchor:middle;fill:#004c99"
     aria-label="BI">
    <path
       id="path91"
       style="font-weight:bold;font-size:7px;font-family:'Proxima Nova';dominant-baseline:hanging;text-anchor:middle;fill:#004c99"
       d="m 52.453333,145.19664 h 2.534 c 0.889,0 1.358,-0.56 1.358,-1.26 0,-0.588 -0.399,-1.071 -0.896,-1.148 0.441,-0.091 0.805,-0.483 0.805,-1.071 0,-0.623 -0.455,-1.19 -1.344,-1.19 h -2.457 z m 0.994,-2.8 v -1.015 h 1.246 c 0.336,0 0.546,0.217 0.546,0.511 0,0.294 -0.21,0.504 -0.546,0.504 z m 0,1.939 v -1.085 h 1.281 c 0.392,0 0.602,0.252 0.602,0.546 0,0.336 -0.224,0.539 -0.602,0.539 z" />
    <path
       id="path93"
       style="font-weight:bold;font-size:7px;font-family:'Proxima Nova';dominant-baseline:hanging;text-anchor:middle;fill:#004c99"
       d="m 57.088099,145.19664 h 0.994 v -4.669 h -0.994 z" />
  </g>
  <g
     id="text18"
     style="font-weight:bold;font-size:7px;font-family:'Proxima Nova';text-anchor:middle;fill:#004c99"
     aria-label="WAIT">
    <path
       id="path96"
       style="font-weight:bold;font-size:7px;font-family:'Proxima Nova';text-anchor:middle;fill:#004c99"
       d="m 15.323868,171.25984 h 1.057 l 1.33,-4.669 h -1.12 l -0.812,3.374 -0.882,-3.374 h -0.777 l -0.889,3.374 -0.819,-3.374 h -1.113 l 1.337,4.669 h 1.057 l 0.812,-3.206 z" />
    <path
       id="path98"
       style="font-weight:bold;font-size:7px;font-family:'Proxima Nova';text-anchor:middle;fill:#004c99"
       d="m 21.085196,171.25984 h 1.134 l -1.799,-4.669 h -1.246 l -1.806,4.669 h 1.134 l 0.294,-0.791 h 2.002 z m -1.288,-3.675 0.728,2.009 h -1.456 z" />
    <path
       id="path100"
       style="font-weight:bold;font-size:7px;font-family:'Proxima Nova';text-anchor:middle;fill:#004c99"
       d="m 22.650353,171.25984 h 0.994 v -4.669 h -0.994 z" />
    <path
       id="path102"
       style="font-weight:bold;font-size:7px;font-family:'Proxima Nova';text-anchor:middle;fill:#004c99"
       d="m 25.642415,171.25984 h 1.001 v -3.794 h 1.358 v -0.875 h -3.724 v 0.875 h 1.365 z" />
  </g>
  <g
     id="text20"
     style="font-weight:bold;font-size:7px;font-family:'Proxima Nova';text-anchor:middle;fill:#004c99"
     aria-label="TRIG">
    <path
       id="path105"
       style="font-weight:bold;font-size:7px;font-family:'Proxima Nova';text-anchor:middle;fill:#004c99"
       d="m 49.040122,171.25984 h 1.001 v -3.794 h 1.358 v -0.875 h -3.724 v 0.875 h 1.365 z" />
    <path
       id="path107"
       style="font-weight:bold;font-size:7px;font-family:'Proxima Nova';text-anchor:middle;fill:#004c99"
       d="m 54.675341,171.25984 h 1.141 l -1.05,-1.778 c 0.504,-0.119 1.022,-0.56 1.022,-1.386 0,-0.868 -0.595,-1.505 -1.568,-1.505 h -2.184 v 4.669 h 0.994 v -1.659 h 0.728 z m 0.098,-3.164 c 0,0.392 -0.301,0.63 -0.7,0.63 h -1.043 v -1.26 h 1.043 c 0.399,0 0.7,0.238 0.7,0.63 z" />
    <path
       id="path109"
       style="font-weight:bold;font-size:7px;font-family:'Proxima Nova';text-anchor:middle;fill:#004c99"
       d="m 56.534388,171.25984 h 0.994 v -4.669 h -0.994 z" />
    <path
       id="path111"
       style="font-weight:bold;font-size:7px;font-family:'Proxima Nova';text-anchor:middle;fill:#004c99"
       d="m 58.22445,168.92884 c 0,1.47 1.12,2.422 2.485,2.422 0.847,0 1.512,-0.35 1.988,-0.882 v -1.792 h -2.226 v 0.868 h 1.232 v 0.56 c -0.189,0.175 -0.581,0.357 -0.994,0.357 -0.847,0 -1.463,-0.651 -1.463,-1.533 0,-0.882 0.616,-1.533 1.463,-1.533 0.497,0 0.896,0.28 1.106,0.609 l 0.826,-0.448 c -0.35,-0.553 -0.959,-1.043 -1.932,-1.043 -1.365,0 -2.485,0.938 -2.485,2.415 z" />
  </g>
  <rect
     id="rect22"
     fill="#f0f7ff"
     stroke="#004c99"
     ry="3.0"
     rx="3.0"
     stroke-width="1.033464566925"
     height="39.361548556245"
     width="31.742125984125003"
     y="218.63549868681753"
     x="3.863188877937305" />
  <g
     id="text24"
     style="font-weight:bold;font-size:7px;font-family:'Proxima Nova';text-anchor:middle;fill:#004c99"
     aria-label="WAIT">
    <path
       id="path114"
       style="font-weight:bold;font-size:7px;font-family:'Proxima Nova';text-anchor:middle;fill:#004c99"
       d="m 15.323868,226.77165 h 1.057 l 1.33,-4.669 h -1.12 l -0.812,3.374 -0.882,-3.374 h -0.777 l -0.889,3.374 -0.819,-3.374 h -1.113 l 1.337,4.669 h 1.057 l 0.812,-3.206 z" />
    <path
       id="path116"
       style="font-weight:bold;font-size:7px;font-family:'Proxima Nova';text-anchor:middle;fill:#004c99"
       d="m 21.085196,226.77165 h 1.134 l -1.799,-4.669 h -1.246 l -1.806,4.669 h 1.134 l 0.294,-0.791 h 2.002 z m -1.288,-3.675 0.728,2.009 h -1.456 z" />
    <path
       id="path118"
       style="font-weight:bold;font-size:7px;font-family:'Proxima Nova';text-anchor:middle;fill:#004c99"
       d="m 22.650353,226.77165 h 0.994 v -4.669 h -0.994 z" />
    <path
       id="path120"
       style="font-weight:bold;font-size:7px;font-family:'Proxima Nova';text-anchor:middle;fill:#004c99"
       d="m 25.642415,226.77165 h 1.001 v -3.794 h 1.358 v -0.875 h -3.724 v 0.875 h 1.365 z" />
  </g>
  <rect
     id="rect26"
     fill="#f0f7ff"
     stroke="#004c99"
     ry="3.0"
     rx="3.0"
     stroke-width="1.033464566925"
     height="39.361548556245"
     width="31.742125984125003"
     y="262.9268372693175"
     x="3.863188877937305" />
  <g
     id="text28"
     style="font-weight:bold;font-size:7px;font-family:'Proxima Nova';text-anchor:middle;fill:#004c99"
     aria-label="TRIG">
    <path
       id="path123"
       style="font-weight:bold;font-size:7px;font-family:'Proxima Nova';text-anchor:middle;fill:#004c99"
       d="m 13.508626,271.06299 h 1.001 v -3.794 h 1.358 v -0.875 h -3.724 v 0.875 h 1.365 z" />
    <path
       id="path125"
       style="font-weight:bold;font-size:7px;font-family:'Proxima Nova';text-anchor:middle;fill:#004c99"
       d="m 19.143845,271.06299 h 1.141 l -1.05,-1.778 c 0.504,-0.119 1.022,-0.56 1.022,-1.386 0,-0.868 -0.595,-1.505 -1.568,-1.505 h -2.184 v 4.669 h 0.994 v -1.659 h 0.728 z m 0.098,-3.164 c 0,0.392 -0.301,0.63 -0.7,0.63 h -1.043 v -1.26 h 1.043 c 0.399,0 0.7,0.238 0.7,0.63 z" />
    <path
       id="path127"
       style="font-weight:bold;font-size:7px;font-family:'Proxima Nova';text-anchor:middle;fill:#004c99"
       d="m 21.002892,271.06299 h 0.994 v -4.669 h -0.994 z" />
    <path
       id="path129"
       style="font-weight:bold;font-size:7px;font-family:'Proxima Nova';text-anchor:middle;fill:#004c99"
       d="m 22.692954,268.73199 c 0,1.47 1.12,2.422 2.485,2.422 0.847,0 1.512,-0.35 1.988,-0.882 v -1.792 h -2.226 v 0.868 h 1.232 v 0.56 c -0.189,0.175 -0.581,0.357 -0.994,0.357 -0.847,0 -1.463,-0.651 -1.463,-1.533 0,-0.882 0.616,-1.533 1.463,-1.533 0.497,0 0.896,0.28 1.106,0.609 l 0.826,-0.448 c -0.35,-0.553 -0.959,-1.043 -1.932,-1.043 -1.365,0 -2.485,0.938 -2.485,2.415 z" />
  </g>
  <rect
     id="rect30"
     fill="#004c99"
     stroke="#004c99"
     ry="3.0"
     rx="3.0"
     stroke-width="1.033464566925"
     height="39.361548556245"
     width="31.74212598412501"
     y="262.9268372693175"
     x="39.394685137637694" />
  <g
     id="text32"
     style="font-weight:bold;font-size:7px;font-family:'Proxima Nova';text-anchor:middle;fill:#f0f7ff"
     aria-label="TRIG">
    <path
       id="path132"
       style="font-weight:bold;font-size:7px;font-family:'Proxima Nova';text-anchor:middle;fill:#f0f7ff"
       d="m 49.040122,271.06299 h 1.001 v -3.794 h 1.358 v -0.875 h -3.724 v 0.875 h 1.365 z" />
    <path
       id="path134"
       style="font-weight:bold;font-size:7px;font-family:'Proxima Nova';text-anchor:middle;fill:#f0f7ff"
       d="m 54.675341,271.06299 h 1.141 l -1.05,-1.778 c 0.504,-0.119 1.022,-0.56 1.022,-1.386 0,-0.868 -0.595,-1.505 -1.568,-1.505 h -2.184 v 4.669 h 0.994 v -1.659 h 0.728 z m 0.098,-3.164 c 0,0.392 -0.301,0.63 -0.7,0.63 h -1.043 v -1.26 h 1.043 c 0.399,0 0.7,0.238 0.7,0.63 z" />
    <path
       id="path136"
       style="font-weight:bold;font-size:7px;font-family:'Proxima Nova';text-anchor:middle;fill:#f0f7ff"
       d="m 56.534388,271.06299 h 0.994 v -4.669 h -0.994 z" />
    <path
       id="path138"
       style="font-weight:bold;font-size:7px;font-family:'Proxima Nova';text-anchor:middle;fill:#f0f7ff"
       d="m 58.22445,268.73199 c 0,1.47 1.12,2.422 2.485,2.422 0.847,0 1.512,-0.35 1.988,-0.882 v -1.792 h -2.226 v 0.868 h 1.232 v 0.56 c -0.189,0.175 -0.581,0.357 -0.994,0.357 -0.847,0 -1.463,-0.651 -1.463,-1.533 0,-0.882 0.616,-1.533 1.463,-1.533 0.497,0 0.896,0.28 1.106,0.609 l 0.826,-0.448 c -0.35,-0.553 -0.959,-1.043 -1.932,-1.043 -1.365,0 -2.485,0.938 -2.485,2.415 z" />
  </g>
  <rect
     id="rect34"
     fill="#004c99"
     stroke="#004c99"
     ry="3.0"
     rx="3.0"
     stroke-width="1.033464566925"
     height="39.361548556245"
     width="31.74212598412501"
     y="307.21817585181753"
     x="39.394685137637694" />
  <g
     id="text36"
     style="font-weight:bold;font-size:7px;font-family:'Proxima Nova';text-anchor:middle;fill:#f0f7ff"
     aria-label="OUT">
    <path
       id="path141"
       style="font-weight:bold;font-size:7px;font-family:'Proxima Nova';text-anchor:middle;fill:#f0f7ff"
       d="m 48.223474,313.02334 c 0,1.407 1.029,2.415 2.436,2.415 1.414,0 2.443,-1.008 2.443,-2.415 0,-1.407 -1.029,-2.415 -2.443,-2.415 -1.407,0 -2.436,1.008 -2.436,2.415 z m 3.857,0 c 0,0.868 -0.56,1.533 -1.421,1.533 -0.861,0 -1.414,-0.665 -1.414,-1.533 0,-0.875 0.553,-1.533 1.414,-1.533 0.861,0 1.421,0.658 1.421,1.533 z" />
    <path
       id="path143"
       style="font-weight:bold;font-size:7px;font-family:'Proxima Nova';text-anchor:middle;fill:#f0f7ff"
       d="m 53.806849,313.49234 c 0,1.148 0.686,1.946 2.107,1.946 1.421,0 2.107,-0.791 2.107,-1.953 v -2.8 h -1.015 v 2.772 c 0,0.651 -0.371,1.099 -1.092,1.099 -0.721,0 -1.099,-0.448 -1.099,-1.099 v -2.772 h -1.008 z" />
    <path
       id="path145"
       style="font-weight:bold;font-size:7px;font-family:'Proxima Nova';text-anchor:middle;fill:#f0f7ff"
       d="m 60.011802,315.35434 h 1.001 v -3.794 h 1.358 v -0.875 h -3.724 v 0.875 h 1.365 z" />
  </g>
</svg>
