<?xml version="1.0" encoding="UTF-8" standalone="no"?>
<!-- Created with Inkscape (http://www.inkscape.org/) -->

<svg
   xmlns:dc="http://purl.org/dc/elements/1.1/"
   xmlns:cc="http://creativecommons.org/ns#"
   xmlns:rdf="http://www.w3.org/1999/02/22-rdf-syntax-ns#"
   xmlns:svg="http://www.w3.org/2000/svg"
   xmlns="http://www.w3.org/2000/svg"
   xmlns:xlink="http://www.w3.org/1999/xlink"
   xmlns:sodipodi="http://sodipodi.sourceforge.net/DTD/sodipodi-0.dtd"
   xmlns:inkscape="http://www.inkscape.org/namespaces/inkscape"
   width="360"
   height="380"
   viewBox="0 0 95.250002 100.54169"
   version="1.1"
   id="svg4541"
   sodipodi:docname="GateSEQ8.svg"
   inkscape:version="0.92.2 5c3e80d, 2017-08-06">
  <defs
     id="defs4535" />
  <sodipodi:namedview
     id="base"
     pagecolor="#ffffff"
     bordercolor="#666666"
     borderopacity="1.0"
     inkscape:pageopacity="0.0"
     inkscape:pageshadow="2"
     inkscape:zoom="1.4"
     inkscape:cx="81.538993"
     inkscape:cy="286.02256"
     inkscape:document-units="mm"
     inkscape:current-layer="g13539"
     showgrid="false"
     fit-margin-top="0"
     fit-margin-left="0"
     fit-margin-right="0"
     fit-margin-bottom="0"
     inkscape:window-width="1280"
     inkscape:window-height="756"
     inkscape:window-x="0"
     inkscape:window-y="18"
     inkscape:window-maximized="0"
     units="px" />
  <metadata
     id="metadata4538">
    <rdf:RDF>
      <cc:Work
         rdf:about="">
        <dc:format>image/svg+xml</dc:format>
        <dc:type
           rdf:resource="http://purl.org/dc/dcmitype/StillImage" />
        <dc:title></dc:title>
      </cc:Work>
    </rdf:RDF>
  </metadata>
  <g
     inkscape:groupmode="layer"
     id="layer2"
     inkscape:label="Layer 2"
     transform="matrix(0.27602379,0,0,0.27602379,86.296881,-8.6313403)"
     style="display:none">
    <image
       sodipodi:absref="/Users/mongo/Documents/code/VCV/Rack-master/plugins/dekstop/res/GateSEQ8.png"
       xlink:href="GateSEQ8.png"
       width="345.07895"
       height="364.25"
       preserveAspectRatio="none"
       id="image4009"
       x="-311.95676"
       y="30.997904" />
  </g>
  <g
     inkscape:label="Layer 1"
     inkscape:groupmode="layer"
     id="layer1"
     transform="translate(36.687896,-107.67835)"
     style="display:inline">
    <g
       transform="matrix(0.27602379,0,0,0.27602379,101.75853,98.968292)"
       id="g13383"
       style="stroke-width:0.80924457">
      <g
         transform="translate(-188.93134,0.28519852)"
         id="g13452"
         style="stroke-width:0.77570349">
        <g
           id="g13539"
           transform="translate(-312.64291,31.270301)"
           style="display:inline;stroke-width:0.74355263">
          <path
             style="fill:#e6e6e6;fill-opacity:1;fill-rule:nonzero;stroke:none;stroke-width:0.77724314"
             d="M -1.9874827e-6,-3.8304622e-5 H 345.07895 V 364.24997 H -1.9874827e-6 Z m 0,0"
             id="path25077"
             inkscape:connector-curvature="0" />
          <path
             style="fill:none;stroke:#000000;stroke-width:0.47927633;stroke-linecap:round;stroke-linejoin:round;stroke-miterlimit:10;stroke-opacity:1"
             d="M 18.0859,127.82422 H 298.7148"
             id="path27449"
             inkscape:connector-curvature="0" />
          <path
             inkscape:connector-curvature="0"
             id="path10966"
             d="m 17.895464,46.540016 c 0.90625,0 1.515625,-0.28125 2.046875,-0.75 0.07813,-0.07813 0.15625,-0.203125 0.15625,-0.359375 0,-0.234375 -0.21875,-0.453125 -0.46875,-0.453125 -0.125,0 -0.21875,0.04687 -0.296875,0.109375 -0.40625,0.34375 -0.8125,0.546875 -1.390625,0.546875 -1.078125,0 -1.859375,-0.890625 -1.859375,-1.984375 v -0.01563 c 0,-1.09375 0.78125,-1.984375 1.859375,-1.984375 0.53125,0 0.9375,0.203125 1.328125,0.515625 0.0625,0.04687 0.15625,0.09375 0.296875,0.09375 0.265625,0 0.484375,-0.21875 0.484375,-0.484375 0,-0.171875 -0.07813,-0.3125 -0.1875,-0.390625 -0.484375,-0.375 -1.0625,-0.640625 -1.921875,-0.640625 -1.703125,0 -2.890625,1.3125 -2.890625,2.90625 v 0.01563 c 0,1.609375 1.21875,2.875 2.84375,2.875 z m 0,0"
             style="fill:#000000;fill-opacity:1;stroke:none;stroke-width:0.74355263" />
          <path
             inkscape:connector-curvature="0"
             id="path10970"
             d="m 21.397783,45.946266 c 0,0.28125 0.21875,0.5 0.5,0.5 h 3.015625 c 0.25,0 0.453125,-0.203125 0.453125,-0.453125 0,-0.25 -0.203125,-0.4375 -0.453125,-0.4375 h -2.53125 v -4.265625 c 0,-0.265625 -0.21875,-0.484375 -0.484375,-0.484375 -0.28125,0 -0.5,0.21875 -0.5,0.484375 z m 0,0"
             style="fill:#000000;fill-opacity:1;stroke:none;stroke-width:0.74355263" />
          <path
             inkscape:connector-curvature="0"
             id="path10962"
             d="m 28.900835,46.540016 c 1.71875,0 2.9375,-1.3125 2.9375,-2.890625 v -0.01563 c 0,-1.578125 -1.203125,-2.890625 -2.921875,-2.890625 -1.71875,0 -2.9375,1.328125 -2.9375,2.90625 v 0.01563 c 0,1.578125 1.203125,2.875 2.921875,2.875 z m 0.01563,-0.90625 c -1.109375,0 -1.90625,-0.90625 -1.90625,-1.984375 v -0.01563 c 0,-1.09375 0.78125,-1.984375 1.890625,-1.984375 1.109375,0 1.90625,0.90625 1.90625,2 v 0.01563 c 0,1.078125 -0.78125,1.96875 -1.890625,1.96875 z m 0,0"
             style="fill:#000000;fill-opacity:1;stroke:none;stroke-width:0.74355263" />
          <path
             inkscape:connector-curvature="0"
             id="path10954"
             d="m 35.77791,46.540016 c 0.90625,0 1.515625,-0.28125 2.046875,-0.75 0.07813,-0.07813 0.15625,-0.203125 0.15625,-0.359375 0,-0.234375 -0.21875,-0.453125 -0.46875,-0.453125 -0.125,0 -0.21875,0.04687 -0.296875,0.109375 -0.40625,0.34375 -0.8125,0.546875 -1.390625,0.546875 -1.078125,0 -1.859375,-0.890625 -1.859375,-1.984375 v -0.01563 c 0,-1.09375 0.78125,-1.984375 1.859375,-1.984375 0.53125,0 0.9375,0.203125 1.328125,0.515625 0.0625,0.04687 0.15625,0.09375 0.296875,0.09375 0.265625,0 0.484375,-0.21875 0.484375,-0.484375 0,-0.171875 -0.07813,-0.3125 -0.1875,-0.390625 -0.484375,-0.375 -1.0625,-0.640625 -1.921875,-0.640625 -1.703125,0 -2.890625,1.3125 -2.890625,2.90625 v 0.01563 c 0,1.609375 1.21875,2.875 2.84375,2.875 z m 0,0"
             style="fill:#000000;fill-opacity:1;stroke:none;stroke-width:0.74355263" />
          <path
             inkscape:connector-curvature="0"
             id="path10958"
             d="m 39.280108,45.993141 c 0,0.28125 0.21875,0.5 0.5,0.5 0.265625,0 0.484375,-0.21875 0.484375,-0.5 v -1.15625 l 0.90625,-0.875 1.8125,2.296875 c 0.09375,0.125 0.21875,0.234375 0.40625,0.234375 0.28125,0 0.5,-0.21875 0.5,-0.484375 0,-0.15625 -0.0625,-0.25 -0.140625,-0.359375 l -1.890625,-2.34375 1.75,-1.671875 c 0.109375,-0.109375 0.171875,-0.21875 0.171875,-0.375 0,-0.234375 -0.171875,-0.453125 -0.453125,-0.453125 -0.171875,0 -0.296875,0.0625 -0.40625,0.1875 l -2.65625,2.671875 v -2.375 c 0,-0.265625 -0.21875,-0.484375 -0.484375,-0.484375 -0.28125,0 -0.5,0.21875 -0.5,0.484375 z m 0,0"
             style="fill:#000000;fill-opacity:1;stroke:none;stroke-width:0.74355263" />
          <path
             inkscape:connector-curvature="0"
             id="path10950"
             d="m 129.28646,46.524391 c 1.17187,0 2,-0.625 2,-1.671875 v -0.01563 c 0,-0.921875 -0.60938,-1.34375 -1.79688,-1.640625 -1.07812,-0.25 -1.34375,-0.453125 -1.34375,-0.875 v -0.01563 c 0,-0.375 0.34375,-0.671875 0.92188,-0.671875 0.4375,0 0.84375,0.15625 1.28125,0.421875 0.0781,0.04687 0.15625,0.07813 0.26562,0.07813 0.25,0 0.45313,-0.203125 0.45313,-0.453125 0,-0.1875 -0.0937,-0.328125 -0.21875,-0.390625 -0.5,-0.34375 -1.0625,-0.53125 -1.76563,-0.53125 -1.10937,0 -1.92187,0.671875 -1.92187,1.625 v 0.01563 c 0,1.03125 0.67188,1.390625 1.875,1.671875 1.03125,0.25 1.26562,0.46875 1.26562,0.859375 v 0.01563 c 0,0.421875 -0.39062,0.703125 -1,0.703125 -0.60937,0 -1.10937,-0.203125 -1.56249,-0.578125 -0.0625,-0.04687 -0.15625,-0.07813 -0.29688,-0.07813 -0.25,0 -0.45312,0.203125 -0.45312,0.453125 0,0.15625 0.0781,0.296875 0.1875,0.375 0.625,0.46875 1.34374,0.703125 2.10937,0.703125 z m 0,0"
             style="fill:#000000;fill-opacity:1;stroke:none;stroke-width:0.74355263" />
          <path
             inkscape:connector-curvature="0"
             id="path10942"
             d="m 133.95674,45.993141 c 0,0.28125 0.21875,0.5 0.5,0.5 0.26562,0 0.5,-0.21875 0.5,-0.5 v -4.234375 h 1.35937 c 0.25,0 0.45313,-0.203125 0.45313,-0.453125 0,-0.25 -0.20313,-0.453125 -0.45313,-0.453125 h -3.71875 c -0.25,0 -0.45312,0.203125 -0.45312,0.453125 0,0.25 0.20312,0.453125 0.45312,0.453125 h 1.35938 z m 0,0"
             style="fill:#000000;fill-opacity:1;stroke:none;stroke-width:0.74355263" />
          <path
             inkscape:connector-curvature="0"
             id="path10946"
             d="m 138.39376,46.446266 h 3.29687 c 0.23438,0 0.4375,-0.1875 0.4375,-0.4375 0,-0.25 -0.20312,-0.4375 -0.4375,-0.4375 h -2.8125 v -1.515625 h 2.40625 c 0.25,0 0.4375,-0.1875 0.4375,-0.421875 0,-0.25 -0.1875,-0.453125 -0.4375,-0.453125 h -2.40625 v -1.453125 h 2.76563 c 0.25,0 0.4375,-0.1875 0.4375,-0.4375 0,-0.25 -0.1875,-0.4375 -0.4375,-0.4375 h -3.25 c -0.28125,0 -0.5,0.203125 -0.5,0.484375 v 4.609375 c 0,0.28125 0.21875,0.5 0.5,0.5 z m 0,0"
             style="fill:#000000;fill-opacity:1;stroke:none;stroke-width:0.74355263" />
          <path
             inkscape:connector-curvature="0"
             id="path10938"
             d="m 143.41939,45.993141 c 0,0.28125 0.21875,0.5 0.5,0.5 0.26562,0 0.48437,-0.21875 0.48437,-0.5 v -1.34375 h 1.10938 c 1.23437,0 2.25,-0.65625 2.25,-1.921875 v -0.01563 c 0,-1.125 -0.82813,-1.859375 -2.14063,-1.859375 h -1.70312 c -0.28125,0 -0.5,0.203125 -0.5,0.484375 z m 0.98437,-2.234375 v -2.015625 h 1.14063 c 0.73437,0 1.21875,0.34375 1.21875,1 v 0.01563 c 0,0.578125 -0.46875,1 -1.21875,1 z m 0,0"
             style="fill:#000000;fill-opacity:1;stroke:none;stroke-width:0.74355263" />
          <path
             inkscape:connector-curvature="0"
             id="path10934"
             d="m 150.92415,46.524391 c 1.17187,0 2,-0.625 2,-1.671875 v -0.01563 c 0,-0.921875 -0.60938,-1.34375 -1.79688,-1.640625 -1.07812,-0.25 -1.34375,-0.453125 -1.34375,-0.875 v -0.01563 c 0,-0.375 0.34375,-0.671875 0.92188,-0.671875 0.4375,0 0.84375,0.15625 1.28125,0.421875 0.0781,0.04687 0.15625,0.07813 0.26562,0.07813 0.25,0 0.45313,-0.203125 0.45313,-0.453125 0,-0.1875 -0.0937,-0.328125 -0.21875,-0.390625 -0.5,-0.34375 -1.0625,-0.53125 -1.76563,-0.53125 -1.10937,0 -1.92187,0.671875 -1.92187,1.625 v 0.01563 c 0,1.03125 0.67187,1.390625 1.875,1.671875 1.03125,0.25 1.26562,0.46875 1.26562,0.859375 v 0.01563 c 0,0.421875 -0.39062,0.703125 -1,0.703125 -0.60937,0 -1.10937,-0.203125 -1.5625,-0.578125 -0.0625,-0.04687 -0.15625,-0.07813 -0.29687,-0.07813 -0.25,0 -0.45313,0.203125 -0.45313,0.453125 0,0.15625 0.0781,0.296875 0.1875,0.375 0.625,0.46875 1.34375,0.703125 2.10938,0.703125 z m 0,0"
             style="fill:#000000;fill-opacity:1;stroke:none;stroke-width:0.74355263" />
          <path
             inkscape:connector-curvature="0"
             id="path10846"
             d="m 59.245318,50.883698 c 0,0.21875 0.1875,0.390625 0.40625,0.390625 0.21875,0 0.40625,-0.171875 0.40625,-0.390625 v -1.234375 h 1 l 1.109375,1.421875 c 0.09375,0.125 0.203125,0.203125 0.390625,0.203125 0.1875,0 0.375,-0.140625 0.375,-0.375 0,-0.125 -0.04687,-0.203125 -0.125,-0.296875 l -0.875,-1.09375 c 0.609375,-0.203125 1.03125,-0.640625 1.03125,-1.359375 v -0.01563 c 0,-0.40625 -0.125,-0.734375 -0.375,-0.984375 -0.28125,-0.28125 -0.734375,-0.453125 -1.3125,-0.453125 h -1.625 c -0.21875,0 -0.40625,0.171875 -0.40625,0.40625 z m 0.8125,-1.9375 v -1.53125 h 1.15625 c 0.59375,0 0.9375,0.265625 0.9375,0.765625 0,0.46875 -0.359375,0.765625 -0.9375,0.765625 z m 0,0"
             style="fill:#000000;fill-opacity:1;stroke:none;stroke-width:0.74355263" />
          <path
             inkscape:connector-curvature="0"
             id="path10850"
             d="m 66.03438,51.321198 c 1.1875,0 1.953125,-0.6875 1.953125,-2.046875 v -2.21875 c 0,-0.21875 -0.171875,-0.390625 -0.390625,-0.390625 -0.234375,0 -0.40625,0.171875 -0.40625,0.390625 v 2.25 c 0,0.84375 -0.4375,1.265625 -1.140625,1.265625 -0.71875,0 -1.15625,-0.453125 -1.15625,-1.296875 v -2.21875 c 0,-0.21875 -0.171875,-0.390625 -0.390625,-0.390625 -0.234375,0 -0.40625,0.171875 -0.40625,0.390625 v 2.25 c 0,1.328125 0.75,2.015625 1.9375,2.015625 z m 0,0"
             style="fill:#000000;fill-opacity:1;stroke:none;stroke-width:0.74355263" />
          <path
             inkscape:connector-curvature="0"
             id="path10842"
             d="m 69.33333,50.883698 c 0,0.21875 0.1875,0.390625 0.40625,0.390625 0.21875,0 0.390625,-0.171875 0.390625,-0.390625 v -2.890625 l 2.34375,3.03125 c 0.109375,0.140625 0.21875,0.25 0.40625,0.25 h 0.03125 c 0.21875,0 0.390625,-0.1875 0.390625,-0.40625 v -3.8125 c 0,-0.21875 -0.171875,-0.390625 -0.390625,-0.390625 -0.21875,0 -0.390625,0.171875 -0.390625,0.390625 v 2.796875 l -2.28125,-2.953125 c -0.109375,-0.140625 -0.21875,-0.234375 -0.40625,-0.234375 h -0.09375 c -0.21875,0 -0.40625,0.1875 -0.40625,0.40625 z m 0,0"
             style="fill:#000000;fill-opacity:1;stroke:none;stroke-width:0.74355263" />
          <path
             inkscape:connector-curvature="0"
             id="path10838"
             d="m 92.362871,50.883698 c 0,0.21875 0.1875,0.390625 0.40625,0.390625 0.21875,0 0.40625,-0.171875 0.40625,-0.390625 v -1.234375 h 1 l 1.109375,1.421875 c 0.09375,0.125 0.203125,0.203125 0.390625,0.203125 0.1875,0 0.375,-0.140625 0.375,-0.375 0,-0.125 -0.04687,-0.203125 -0.125,-0.296875 l -0.875,-1.09375 c 0.609375,-0.203125 1.03125,-0.640625 1.03125,-1.359375 v -0.01563 c 0,-0.40625 -0.125,-0.734375 -0.375,-0.984375 -0.28125,-0.28125 -0.734375,-0.453125 -1.3125,-0.453125 h -1.625 c -0.21875,0 -0.40625,0.171875 -0.40625,0.40625 z m 0.8125,-1.9375 v -1.53125 h 1.15625 c 0.59375,0 0.9375,0.265625 0.9375,0.765625 0,0.46875 -0.359375,0.765625 -0.9375,0.765625 z m 0,0"
             style="fill:#000000;fill-opacity:1;stroke:none;stroke-width:0.74355263" />
          <path
             inkscape:connector-curvature="0"
             id="path10830"
             d="m 97.698076,51.243073 h 2.687504 c 0.1875,0 0.35937,-0.15625 0.35937,-0.359375 0,-0.1875 -0.17187,-0.359375 -0.35937,-0.359375 h -2.281254 v -1.21875 h 1.953124 c 0.1875,0 0.35938,-0.15625 0.35938,-0.34375 0,-0.203125 -0.17188,-0.375 -0.35938,-0.375 h -1.953124 v -1.171875 h 2.250004 c 0.1875,0 0.34375,-0.15625 0.34375,-0.359375 0,-0.203125 -0.15625,-0.359375 -0.34375,-0.359375 h -2.656254 c -0.21875,0 -0.40625,0.171875 -0.40625,0.40625 v 3.734375 c 0,0.234375 0.1875,0.40625 0.40625,0.40625 z m 0,0"
             style="fill:#000000;fill-opacity:1;stroke:none;stroke-width:0.74355263" />
          <path
             inkscape:connector-curvature="0"
             id="path10834"
             d="m 103.43551,51.305573 c 0.96875,0 1.625,-0.5 1.625,-1.359375 v -0.01563 c 0,-0.75 -0.48438,-1.09375 -1.45313,-1.328125 -0.875,-0.203125 -1.07812,-0.359375 -1.07812,-0.71875 0,-0.3125 0.26562,-0.546875 0.73437,-0.546875 0.35938,0 0.70313,0.109375 1.04688,0.34375 0.0625,0.04687 0.125,0.0625 0.20312,0.0625 0.21875,0 0.39063,-0.171875 0.39063,-0.375 0,-0.15625 -0.0937,-0.265625 -0.1875,-0.3125 -0.40625,-0.28125 -0.85938,-0.421875 -1.4375,-0.421875 -0.90625,0 -1.54688,0.53125 -1.54688,1.3125 v 0.01563 c 0,0.84375 0.53125,1.125 1.5,1.359375 0.85938,0.1875 1.03125,0.375 1.03125,0.6875 v 0.01563 c 0,0.34375 -0.3125,0.578125 -0.79687,0.578125 -0.5,0 -0.90625,-0.171875 -1.28125,-0.46875 -0.0469,-0.04687 -0.125,-0.07813 -0.23438,-0.07813 -0.20312,0 -0.375,0.171875 -0.375,0.375 0,0.125 0.0625,0.234375 0.15625,0.3125 0.5,0.375 1.09375,0.5625 1.70313,0.5625 z m 0,0"
             style="fill:#000000;fill-opacity:1;stroke:none;stroke-width:0.74355263" />
          <path
             inkscape:connector-curvature="0"
             id="path10826"
             d="m 106.63168,51.243073 h 2.6875 c 0.1875,0 0.35937,-0.15625 0.35937,-0.359375 0,-0.1875 -0.17187,-0.359375 -0.35937,-0.359375 h -2.28125 v -1.21875 h 1.95312 c 0.1875,0 0.35938,-0.15625 0.35938,-0.34375 0,-0.203125 -0.17188,-0.375 -0.35938,-0.375 h -1.95312 v -1.171875 h 2.25 c 0.1875,0 0.34375,-0.15625 0.34375,-0.359375 0,-0.203125 -0.15625,-0.359375 -0.34375,-0.359375 h -2.65625 c -0.21875,0 -0.40625,0.171875 -0.40625,0.40625 v 3.734375 c 0,0.234375 0.1875,0.40625 0.40625,0.40625 z m 0,0"
             style="fill:#000000;fill-opacity:1;stroke:none;stroke-width:0.74355263" />
          <path
             inkscape:connector-curvature="0"
             id="path10822"
             d="m 111.95955,50.883698 c 0,0.21875 0.1875,0.390625 0.40625,0.390625 0.21875,0 0.40625,-0.171875 0.40625,-0.390625 v -3.453125 h 1.10938 c 0.20312,0 0.35937,-0.171875 0.35937,-0.359375 0,-0.203125 -0.15625,-0.375 -0.35937,-0.375 h -3.03125 c -0.20313,0 -0.35938,0.171875 -0.35938,0.375 0,0.1875 0.15625,0.359375 0.35938,0.359375 h 1.10937 z m 0,0"
             style="fill:#000000;fill-opacity:1;stroke:none;stroke-width:0.74355263" />
          <path
             style="fill:none;stroke:#000000;stroke-width:0.47927633;stroke-linecap:round;stroke-linejoin:round;stroke-miterlimit:10;stroke-opacity:1"
             d="M 29.4218,72.390629 V 111.48438"
             id="path27911"
             inkscape:connector-curvature="0" />
          <path
             style="fill:none;stroke:#000000;stroke-width:0.47927633;stroke-linecap:round;stroke-linejoin:round;stroke-miterlimit:10;stroke-opacity:1"
             d="M 103.125,66.722659 V 105.8125"
             id="path27915"
             inkscape:connector-curvature="0" />
          <path
             style="fill:none;stroke:#000000;stroke-width:0.47927633;stroke-linecap:round;stroke-linejoin:round;stroke-miterlimit:10;stroke-opacity:1"
             d="M 139.9765,66.722659 V 105.8125"
             id="path27923"
             inkscape:connector-curvature="0" />
          <path
             inkscape:connector-curvature="0"
             id="path10818"
             d="m 52.548784,88.45697 h 2.6875 c 0.1875,0 0.359375,-0.15625 0.359375,-0.359375 0,-0.1875 -0.171875,-0.359375 -0.359375,-0.359375 h -2.28125 v -1.21875 h 1.953125 c 0.1875,0 0.359375,-0.15625 0.359375,-0.34375 0,-0.203125 -0.171875,-0.375 -0.359375,-0.375 h -1.953125 v -1.171875 h 2.25 c 0.1875,0 0.34375,-0.15625 0.34375,-0.359375 0,-0.203125 -0.15625,-0.359375 -0.34375,-0.359375 h -2.65625 c -0.21875,0 -0.40625,0.171875 -0.40625,0.40625 v 3.734375 c 0,0.234375 0.1875,0.40625 0.40625,0.40625 z m 0,0"
             style="fill:#000000;fill-opacity:1;stroke:none;stroke-width:0.74355263" />
          <path
             inkscape:connector-curvature="0"
             id="path10814"
             d="m 56.475664,88.11322 c 0,0.234375 0.1875,0.375 0.375,0.375 0.171875,0 0.28125,-0.07813 0.390625,-0.21875 l 1.203125,-1.5625 1.21875,1.59375 c 0.09375,0.125 0.1875,0.1875 0.359375,0.1875 0.234375,0 0.40625,-0.171875 0.40625,-0.390625 0,-0.109375 -0.0625,-0.21875 -0.125,-0.296875 l -1.34375,-1.671875 1.265625,-1.578125 c 0.07813,-0.109375 0.125,-0.1875 0.125,-0.3125 0,-0.21875 -0.1875,-0.359375 -0.359375,-0.359375 -0.171875,0 -0.28125,0.07813 -0.390625,0.21875 l -1.140625,1.484375 -1.140625,-1.515625 c -0.109375,-0.125 -0.203125,-0.1875 -0.375,-0.1875 -0.21875,0 -0.390625,0.171875 -0.390625,0.390625 0,0.109375 0.0625,0.203125 0.125,0.296875 l 1.265625,1.578125 -1.34375,1.671875 c -0.07813,0.09375 -0.125,0.1875 -0.125,0.296875 z m 0,0"
             style="fill:#000000;fill-opacity:1;stroke:none;stroke-width:0.74355263" />
          <path
             inkscape:connector-curvature="0"
             id="path10802"
             d="m 62.704912,88.097595 c 0,0.21875 0.1875,0.390625 0.40625,0.390625 0.21875,0 0.40625,-0.171875 0.40625,-0.390625 V 84.64447 h 1.109375 c 0.203125,0 0.359375,-0.171875 0.359375,-0.359375 0,-0.203125 -0.15625,-0.375 -0.359375,-0.375 h -3.03125 c -0.203125,0 -0.359375,0.171875 -0.359375,0.375 0,0.1875 0.15625,0.359375 0.359375,0.359375 h 1.109375 z m 0,0"
             style="fill:#000000;fill-opacity:1;stroke:none;stroke-width:0.74355263" />
          <path
             inkscape:connector-curvature="0"
             id="path10810"
             d="m 69.8669,88.535095 c 0.734375,0 1.21875,-0.234375 1.640625,-0.609375 0.07813,-0.0625 0.140625,-0.171875 0.140625,-0.28125 0,-0.203125 -0.1875,-0.375 -0.390625,-0.375 -0.09375,0 -0.171875,0.03125 -0.234375,0.09375 -0.328125,0.28125 -0.65625,0.4375 -1.140625,0.4375 -0.859375,0 -1.5,-0.734375 -1.5,-1.625 0,-0.890625 0.640625,-1.609375 1.5,-1.609375 0.4375,0 0.78125,0.15625 1.09375,0.40625 0.04687,0.04687 0.125,0.07813 0.234375,0.07813 0.21875,0 0.40625,-0.171875 0.40625,-0.390625 0,-0.140625 -0.07813,-0.25 -0.15625,-0.3125 -0.40625,-0.3125 -0.859375,-0.515625 -1.5625,-0.515625 -1.375,0 -2.34375,1.0625 -2.34375,2.34375 v 0.01563 c 0,1.3125 0.984375,2.34375 2.3125,2.34375 z m 0,0"
             style="fill:#000000;fill-opacity:1;stroke:none;stroke-width:0.74355263" />
          <path
             inkscape:connector-curvature="0"
             id="path10798"
             d="m 72.742998,88.05072 c 0,0.234375 0.1875,0.40625 0.40625,0.40625 h 2.453125 c 0.203125,0 0.375,-0.15625 0.375,-0.359375 0,-0.203125 -0.171875,-0.375 -0.375,-0.375 H 73.555498 V 84.26947 c 0,-0.21875 -0.1875,-0.390625 -0.40625,-0.390625 -0.21875,0 -0.40625,0.171875 -0.40625,0.390625 z m 0,0"
             style="fill:#000000;fill-opacity:1;stroke:none;stroke-width:0.74355263" />
          <path
             inkscape:connector-curvature="0"
             id="path10794"
             d="m 76.925737,88.097595 c 0,0.21875 0.1875,0.390625 0.40625,0.390625 0.21875,0 0.40625,-0.171875 0.40625,-0.390625 V 87.14447 l 0.734375,-0.703125 1.46875,1.859375 c 0.07813,0.109375 0.171875,0.1875 0.328125,0.1875 0.234375,0 0.40625,-0.171875 0.40625,-0.390625 0,-0.125 -0.04687,-0.203125 -0.109375,-0.28125 l -1.53125,-1.90625 1.40625,-1.359375 c 0.09375,-0.09375 0.15625,-0.1875 0.15625,-0.3125 0,-0.1875 -0.15625,-0.359375 -0.375,-0.359375 -0.140625,0 -0.234375,0.04687 -0.328125,0.140625 l -2.15625,2.171875 V 84.26947 c 0,-0.21875 -0.1875,-0.390625 -0.40625,-0.390625 -0.21875,0 -0.40625,0.171875 -0.40625,0.390625 z m 0,0"
             style="fill:#000000;fill-opacity:1;stroke:none;stroke-width:0.74355263" />
          <text
             id="text4737"
             y="26.654743"
             x="137.89397"
             style="font-style:normal;font-weight:normal;font-size:38.34210587px;line-height:125%;font-family:Sans;letter-spacing:0px;word-spacing:0px;display:none;fill:#000000;fill-opacity:1;stroke:none;stroke-width:0.95855266px;stroke-linecap:butt;stroke-linejoin:miter;stroke-opacity:1"
             xml:space="preserve"><tspan
               style="font-style:normal;font-variant:normal;font-weight:bold;font-stretch:normal;font-size:12.78070164px;font-family:Helvetica;-inkscape-font-specification:'Helvetica Bold';stroke-width:0.95855266px"
               y="26.654743"
               x="137.89397"
               id="tspan4735"
               sodipodi:role="line">GateSEQ-8</tspan></text>
          <g
             aria-label="GateSEQ-8"
             style="font-style:normal;font-weight:normal;font-size:38.34210587px;line-height:125%;font-family:Sans;letter-spacing:0px;word-spacing:0px;fill:#000000;fill-opacity:1;stroke:none;stroke-width:0.95855266px;stroke-linecap:butt;stroke-linejoin:miter;stroke-opacity:1"
             id="text4368"
             transform="translate(0,2.1529548)">
            <path
               d="m 145.05191,18.173844 q -0.21842,-0.942327 -1.06714,-1.316762 -0.47428,-0.205939 -1.05466,-0.205939 -1.11082,0 -1.82849,0.842478 -0.71142,0.836237 -0.71142,2.521193 0,1.697437 0.77383,2.402622 0.77383,0.705186 1.75984,0.705186 0.96729,0 1.58511,-0.555412 0.61782,-0.561652 0.76135,-1.466535 h -2.12804 v -1.535182 h 3.83172 v 4.936296 h -1.27308 l -0.19346,-1.148266 q -0.55541,0.655261 -0.99849,0.923605 -0.76135,0.468044 -1.87217,0.468044 -1.82849,0 -2.99548,-1.266838 -1.21691,-1.273077 -1.21691,-3.482241 0,-2.234127 1.22939,-3.582092 1.22939,-1.347964 3.25134,-1.347964 1.7536,0 2.8145,0.892402 1.06714,0.886162 1.22315,2.215405 z m -2.153,-3.107807 z"
               style="font-style:normal;font-variant:normal;font-weight:bold;font-stretch:normal;font-size:12.78070164px;font-family:Helvetica;-inkscape-font-specification:'Helvetica Bold';stroke-width:0.95855266px"
               id="path4739"
               inkscape:connector-curvature="0" />
            <path
               d="m 152.40955,21.194283 q -0.1685,0.10609 -0.34323,0.174736 -0.1685,0.06241 -0.46805,0.118571 l -0.39939,0.07489 q -0.56166,0.09985 -0.80504,0.243383 -0.41188,0.243382 -0.41188,0.75511 0,0.455562 0.24963,0.661501 0.25586,0.199698 0.61781,0.199698 0.57414,0 1.05466,-0.336991 0.48677,-0.336991 0.50549,-1.229394 z m -1.07962,-0.829996 q 0.493,-0.06241 0.70518,-0.156015 0.38068,-0.162255 0.38068,-0.505487 0,-0.418118 -0.29331,-0.574133 -0.28706,-0.162255 -0.84872,-0.162255 -0.63029,0 -0.8924,0.312029 -0.18722,0.230902 -0.24962,0.624058 h -1.71616 q 0.0562,-0.892403 0.49925,-1.466536 0.70518,-0.898643 2.42134,-0.898643 1.11706,0 1.9845,0.443081 0.86744,0.443081 0.86744,1.672475 v 3.120288 q 0,0.32451 0.0125,0.786313 0.0187,0.349472 0.10609,0.474284 0.0874,0.124811 0.26211,0.205939 v 0.262104 h -1.93458 q -0.0811,-0.205939 -0.11233,-0.386916 -0.0312,-0.180976 -0.0499,-0.411878 -0.36819,0.399397 -0.84871,0.680223 -0.57414,0.330751 -1.29804,0.330751 -0.92361,0 -1.52895,-0.524209 -0.59909,-0.530449 -0.59909,-1.497738 0,-1.254356 0.96729,-1.816008 0.53045,-0.305788 1.56014,-0.436841 z m 0.0936,-2.845704 z"
               style="font-style:normal;font-variant:normal;font-weight:bold;font-stretch:normal;font-size:12.78070164px;font-family:Helvetica;-inkscape-font-specification:'Helvetica Bold';stroke-width:0.95855266px"
               id="path4741"
               inkscape:connector-curvature="0" />
            <path
               d="m 155.07427,19.028803 v -1.266837 h 0.94857 v -1.897135 h 1.75984 v 1.897135 h 1.10459 v 1.266837 h -1.10459 v 3.594572 q 0,0.418119 0.10609,0.524209 0.10609,0.09985 0.64902,0.09985 0.0811,0 0.1685,0 0.0936,-0.0062 0.18098,-0.01248 v 1.329243 l -0.84248,0.0312 q -1.2606,0.04368 -1.7224,-0.436841 -0.29955,-0.305788 -0.29955,-0.942327 v -4.187427 z"
               style="font-style:normal;font-variant:normal;font-weight:bold;font-stretch:normal;font-size:12.78070164px;font-family:Helvetica;-inkscape-font-specification:'Helvetica Bold';stroke-width:0.95855266px"
               id="path4743"
               inkscape:connector-curvature="0" />
            <path
               d="m 162.72522,18.985119 q -0.61782,0 -0.96105,0.386916 -0.33699,0.386916 -0.42436,1.048417 h 2.76458 q -0.0437,-0.705185 -0.4306,-1.067139 -0.38068,-0.368194 -0.94857,-0.368194 z m 0,-1.466536 q 0.84872,0 1.52894,0.31827 0.68023,0.318269 1.12331,1.004733 0.39939,0.605336 0.51796,1.40413 0.0686,0.468043 0.0562,1.347964 h -4.65547 q 0.0374,1.023455 0.64278,1.435333 0.36819,0.255864 0.88616,0.255864 0.54917,0 0.8924,-0.312029 0.18722,-0.168496 0.33075,-0.468044 h 1.81601 q -0.0686,0.605336 -0.6303,1.229394 -0.87368,0.992252 -2.4463,0.992252 -1.29804,0 -2.29029,-0.836237 -0.99226,-0.836238 -0.99226,-2.720892 0,-1.766083 0.89241,-2.70841 0.89864,-0.942328 2.32773,-0.942328 z m 0.12481,0 z"
               style="font-style:normal;font-variant:normal;font-weight:bold;font-stretch:normal;font-size:12.78070164px;font-family:Helvetica;-inkscape-font-specification:'Helvetica Bold';stroke-width:0.95855266px"
               id="path4745"
               inkscape:connector-curvature="0" />
            <path
               d="m 168.69121,21.662327 q 0.0874,0.630298 0.34323,0.942327 0.46805,0.567892 1.60383,0.567892 0.68023,0 1.10459,-0.149774 0.80503,-0.287066 0.80503,-1.067138 0,-0.455562 -0.3994,-0.705186 -0.39939,-0.243382 -1.25435,-0.430599 l -0.97353,-0.218421 q -1.43534,-0.32451 -1.98451,-0.705185 -0.92984,-0.636539 -0.92984,-1.990744 0,-1.235634 0.89864,-2.05315 0.89864,-0.817515 2.63976,-0.817515 1.45406,0 2.47751,0.773831 1.0297,0.767591 1.07962,2.234127 h -1.84721 q -0.0499,-0.829997 -0.7239,-1.179469 -0.44933,-0.230901 -1.11707,-0.230901 -0.74263,0 -1.18571,0.299547 -0.44308,0.299548 -0.44308,0.836238 0,0.493005 0.43684,0.736388 0.28083,0.162255 1.19819,0.380675 l 1.58511,0.380675 q 1.04218,0.249623 1.57262,0.667742 0.82376,0.64902 0.82376,1.878413 0,1.260597 -0.96729,2.096834 -0.96105,0.829997 -2.72089,0.829997 -1.79729,0 -2.82698,-0.817516 -1.0297,-0.823756 -1.0297,-2.259088 z m 1.86594,-6.639974 z"
               style="font-style:normal;font-variant:normal;font-weight:bold;font-stretch:normal;font-size:12.78070164px;font-family:Helvetica;-inkscape-font-specification:'Helvetica Bold';stroke-width:0.95855266px"
               id="path4747"
               inkscape:connector-curvature="0" />
            <path
               d="m 182.6389,16.931969 h -4.86765 v 1.953301 h 4.46826 v 1.597588 h -4.46826 v 2.365178 h 5.09231 v 1.653753 h -6.97072 v -9.19861 h 6.74606 z"
               style="font-style:normal;font-variant:normal;font-weight:bold;font-stretch:normal;font-size:12.78070164px;font-family:Helvetica;-inkscape-font-specification:'Helvetica Bold';stroke-width:0.95855266px"
               id="path4749"
               inkscape:connector-curvature="0" />
            <path
               d="m 188.42392,23.128862 q 0.33075,0 0.63654,-0.08113 0.16849,-0.04368 0.4306,-0.156015 l -0.92985,-0.886162 0.99225,-1.035935 0.92985,0.886161 q 0.21842,-0.449321 0.30579,-0.786312 0.13729,-0.505487 0.13729,-1.179469 0,-1.547663 -0.63654,-2.390141 -0.6303,-0.848719 -1.84721,-0.848719 -1.14203,0 -1.82225,0.811275 -0.68022,0.811275 -0.68022,2.427585 0,1.890895 0.97353,2.70841 0.6303,0.530449 1.51022,0.530449 z m 4.42457,-3.376152 q 0,1.229394 -0.29955,2.05939 -0.24338,0.792554 -0.71767,1.316762 l 1.0609,0.992252 -1.00473,1.048417 -1.11082,-1.048417 q -0.50549,0.305788 -0.87369,0.4306 -0.61781,0.205939 -1.47901,0.205939 -1.79729,0 -2.97052,-1.073379 -1.42285,-1.2918 -1.42285,-3.794271 0,-2.521193 1.4603,-3.812993 1.19195,-1.054657 2.96427,-1.054657 1.78481,0 2.99548,1.117063 1.39789,1.291799 1.39789,3.613294 z"
               style="font-style:normal;font-variant:normal;font-weight:bold;font-stretch:normal;font-size:12.78070164px;font-family:Helvetica;-inkscape-font-specification:'Helvetica Bold';stroke-width:0.95855266px"
               id="path4751"
               inkscape:connector-curvature="0" />
            <path
               d="m 193.62856,20.095942 h 3.58209 v 1.684956 h -3.58209 z"
               style="font-style:normal;font-variant:normal;font-weight:bold;font-stretch:normal;font-size:12.78070164px;font-family:Helvetica;-inkscape-font-specification:'Helvetica Bold';stroke-width:0.95855266px"
               id="path4753"
               inkscape:connector-curvature="0" />
            <path
               d="m 199.78801,21.874506 q 0,0.667742 0.34323,1.035936 0.34947,0.368194 0.96105,0.368194 0.61157,0 0.95481,-0.368194 0.34947,-0.368194 0.34947,-1.035936 0,-0.692704 -0.35571,-1.048417 -0.34948,-0.361953 -0.94857,-0.361953 -0.5991,0 -0.95481,0.361953 -0.34947,0.355713 -0.34947,1.048417 z m -1.84721,0.118571 q 0,-0.76135 0.34323,-1.379167 0.34947,-0.617817 1.01721,-0.929846 -0.65526,-0.436841 -0.85496,-0.942327 -0.19345,-0.511728 -0.19345,-0.954809 0,-0.986011 0.74262,-1.678715 0.74263,-0.698945 2.09684,-0.698945 1.3542,0 2.09683,0.698945 0.74263,0.692704 0.74263,1.678715 0,0.443081 -0.1997,0.954809 -0.19346,0.505486 -0.84872,0.879921 0.66775,0.374435 1.00474,0.992252 0.33699,0.617817 0.33699,1.379167 0,1.142026 -0.84872,1.94706 -0.84248,0.798794 -2.35894,0.798794 -1.51646,0 -2.29653,-0.798794 -0.78007,-0.805034 -0.78007,-1.94706 z m 2.00946,-4.00645 q 0,0.493005 0.29955,0.805034 0.30579,0.312029 0.84248,0.312029 0.54293,0 0.83624,-0.312029 0.29954,-0.312029 0.29954,-0.805034 0,-0.53669 -0.29954,-0.836238 -0.29331,-0.305788 -0.83624,-0.305788 -0.53669,0 -0.84248,0.305788 -0.29955,0.299548 -0.29955,0.836238 z"
               style="font-style:normal;font-variant:normal;font-weight:bold;font-stretch:normal;font-size:12.78070164px;font-family:Helvetica;-inkscape-font-specification:'Helvetica Bold';stroke-width:0.95855266px"
               id="path4755"
               inkscape:connector-curvature="0" />
          </g>
          <g
             aria-label="1  2  3  4  5  6  7  8  9 10 11 12"
             style="font-style:normal;font-weight:normal;font-size:38.34210587px;line-height:125%;font-family:Sans;letter-spacing:0px;word-spacing:0px;display:inline;fill:#000000;fill-opacity:1;stroke:none;stroke-width:0.95855266px;stroke-linecap:butt;stroke-linejoin:miter;stroke-opacity:1"
             id="text4372">
            <path
               d="m 26.983186,138.30388 v -0.6459 q 0.912684,-0.0889 1.273077,-0.29487 0.360394,-0.21062 0.53825,-0.98757 h 0.664622 v 6.6743 h -0.898644 v -4.74596 z"
               style="font-style:normal;font-variant:normal;font-weight:normal;font-stretch:normal;font-size:9.58552647px;font-family:Helvetica;-inkscape-font-specification:Helvetica;letter-spacing:0px;word-spacing:7.28499985px;stroke-width:0.95855266px"
               id="path4700"
               inkscape:connector-curvature="0" />
            <path
               d="m 50.903353,143.04984 q 0.0468,-0.86588 0.355713,-1.5071 0.313589,-0.64122 1.216913,-1.16543 l 0.898643,-0.51953 q 0.603776,-0.35103 0.847158,-0.5991 0.383796,-0.38847 0.383796,-0.88928 0,-0.58505 -0.351033,-0.92672 -0.351032,-0.34636 -0.936086,-0.34636 -0.86588,0 -1.198191,0.65527 -0.177857,0.35103 -0.196578,0.97353 h -0.85652 q 0.01404,-0.87525 0.32295,-1.42754 0.547611,-0.97353 1.933019,-0.97353 1.151387,0 1.680275,0.6225 0.53357,0.6225 0.53357,1.38541 0,0.80503 -0.566333,1.37605 -0.32763,0.33231 -1.174788,0.80503 l -0.64122,0.35571 q -0.458682,0.25275 -0.720786,0.48209 -0.468044,0.4072 -0.589735,0.90332 h 3.660099 v 0.79568 z"
               style="font-style:normal;font-variant:normal;font-weight:normal;font-stretch:normal;font-size:9.58552647px;font-family:Helvetica;-inkscape-font-specification:Helvetica;letter-spacing:0px;word-spacing:7.28499985px;stroke-width:0.95855266px"
               id="path4702"
               inkscape:connector-curvature="0" />
            <path
               d="m 76.9471,143.23237 q -1.18883,0 -1.72708,-0.65058 -0.533569,-0.65526 -0.533569,-1.59135 h 0.879921 q 0.05616,0.65058 0.243383,0.94545 0.32763,0.52889 1.184149,0.52889 0.664622,0 1.067139,-0.35571 0.402517,-0.35571 0.402517,-0.91737 0,-0.6927 -0.425919,-0.96885 -0.421239,-0.27614 -1.174789,-0.27614 -0.08425,0 -0.173176,0.005 -0.08425,0 -0.173176,0.005 v -0.74419 q 0.131052,0.014 0.21998,0.0187 0.08893,0.005 0.191898,0.005 0.472724,0 0.776952,-0.14977 0.533569,-0.26211 0.533569,-0.93609 0,-0.5008 -0.355713,-0.77227 -0.355713,-0.27146 -0.828436,-0.27146 -0.842478,0 -1.165428,0.56165 -0.177857,0.30891 -0.201259,0.87992 h -0.833117 q 0,-0.74887 0.299548,-1.27308 0.514848,-0.93609 1.811327,-0.93609 1.025015,0 1.586667,0.45869 0.561652,0.454 0.561652,1.31988 0,0.61782 -0.332311,1.00161 -0.205939,0.2387 -0.533569,0.37444 0.528889,0.14509 0.823756,0.56165 0.299548,0.41188 0.299548,1.01097 0,0.95949 -0.631858,1.56327 -0.631859,0.60377 -1.792606,0.60377 z"
               style="font-style:normal;font-variant:normal;font-weight:normal;font-stretch:normal;font-size:9.58552647px;font-family:Helvetica;-inkscape-font-specification:Helvetica;letter-spacing:0px;word-spacing:7.28499985px;stroke-width:0.95855266px"
               id="path4704"
               inkscape:connector-curvature="0" />
            <path
               d="m 100.79439,140.67686 v -3.03761 l -2.148321,3.03761 z m 0.014,2.37298 v -1.63816 h -2.939313 v -0.82375 l 3.070363,-4.2592 h 0.71143 v 4.34813 h 0.98757 v 0.73482 h -0.98757 v 1.63816 z"
               style="font-style:normal;font-variant:normal;font-weight:normal;font-stretch:normal;font-size:9.58552647px;font-family:Helvetica;-inkscape-font-specification:Helvetica;letter-spacing:0px;word-spacing:7.28499985px;stroke-width:0.95855266px"
               id="path4706"
               inkscape:connector-curvature="0" />
            <path
               d="m 124.03255,141.34148 q 0.0842,0.72078 0.6693,0.99693 0.29955,0.14041 0.6927,0.14041 0.74887,0 1.10927,-0.4774 0.36039,-0.47741 0.36039,-1.05778 0,-0.70206 -0.4306,-1.08586 -0.42592,-0.3838 -1.02502,-0.3838 -0.43528,0 -0.74886,0.1685 -0.30891,0.1685 -0.52889,0.46804 l -0.73015,-0.0421 0.51017,-3.60861 h 3.48224 v 0.81439 h -2.85039 l -0.2855,1.86281 q 0.23402,-0.17785 0.44464,-0.26678 0.37443,-0.15446 0.86588,-0.15446 0.92204,0 1.56326,0.59442 0.64122,0.59441 0.64122,1.5071 0,0.95013 -0.58973,1.67559 -0.58506,0.72547 -1.87217,0.72547 -0.81908,0 -1.45094,-0.45868 -0.62718,-0.46336 -0.70206,-1.41817 z"
               style="font-style:normal;font-variant:normal;font-weight:normal;font-stretch:normal;font-size:9.58552647px;font-family:Helvetica;-inkscape-font-specification:Helvetica;letter-spacing:0px;word-spacing:7.28499985px;stroke-width:0.95855266px"
               id="path4708"
               inkscape:connector-curvature="0" />
            <path
               d="m 148.13592,136.31937 q 1.1233,0 1.56326,0.58506 0.44464,0.58037 0.44464,1.19819 h -0.83311 q -0.0749,-0.39784 -0.23871,-0.6225 -0.30422,-0.42124 -0.92204,-0.42124 -0.70675,0 -1.1233,0.65526 -0.41656,0.65058 -0.46337,1.86749 0.29019,-0.42591 0.73015,-0.63653 0.40252,-0.18722 0.89864,-0.18722 0.84248,0 1.46966,0.53825 0.62718,0.53825 0.62718,1.60539 0,0.91268 -0.59442,1.61943 -0.59441,0.70206 -1.69431,0.70206 -0.94077,0 -1.62412,-0.71142 -0.68334,-0.71611 -0.68334,-2.40575 0,-1.24967 0.30423,-2.12023 0.58505,-1.66624 2.13896,-1.66624 z m -0.0608,6.15477 q 0.66462,0 0.99225,-0.44464 0.33231,-0.44932 0.33231,-1.05778 0,-0.51484 -0.29486,-0.97821 -0.29487,-0.46804 -1.07182,-0.46804 -0.54293,0 -0.95481,0.36039 -0.4072,0.3604 -0.4072,1.08586 0,0.63654 0.36976,1.07182 0.37443,0.4306 1.03437,0.4306 z"
               style="font-style:normal;font-variant:normal;font-weight:normal;font-stretch:normal;font-size:9.58552647px;font-family:Helvetica;-inkscape-font-specification:Helvetica;letter-spacing:0px;word-spacing:7.28499985px;stroke-width:0.95855266px"
               id="path4710"
               inkscape:connector-curvature="0" />
            <path
               d="m 175.56775,136.45979 v 0.73482 q -0.32295,0.31359 -0.8612,1.09054 -0.53357,0.77696 -0.94545,1.6756 -0.4072,0.87524 -0.61782,1.59603 -0.13573,0.46336 -0.35103,1.49306 h -0.93141 q 0.31827,-1.91898 1.40413,-3.81924 0.64122,-1.11394 1.34797,-1.92366 h -3.70691 v -0.84715 z"
               style="font-style:normal;font-variant:normal;font-weight:normal;font-stretch:normal;font-size:9.58552647px;font-family:Helvetica;-inkscape-font-specification:Helvetica;letter-spacing:0px;word-spacing:7.28499985px;stroke-width:0.95855266px"
               id="path4712"
               inkscape:connector-curvature="0" />
            <path
               d="m 195.64595,139.15572 q 0.55697,0 0.87056,-0.30891 0.31359,-0.31359 0.31359,-0.74419 0,-0.37444 -0.29955,-0.68803 -0.29954,-0.31358 -0.91268,-0.31358 -0.60846,0 -0.87992,0.31358 -0.27147,0.31359 -0.27147,0.73483 0,0.47273 0.35103,0.73951 0.35104,0.26679 0.82844,0.26679 z m 0.0515,3.31842 q 0.58505,0 0.96885,-0.31359 0.38847,-0.31827 0.38847,-0.94544 0,-0.65058 -0.39784,-0.98758 -0.39783,-0.33699 -1.02033,-0.33699 -0.60378,0 -0.98757,0.34636 -0.37912,0.34167 -0.37912,0.95012 0,0.52421 0.34636,0.90801 0.35103,0.37911 1.08118,0.37911 z m -1.19819,-2.99548 q -0.35104,-0.14977 -0.54762,-0.35103 -0.36975,-0.37443 -0.36975,-0.97353 0,-0.74887 0.54293,-1.28712 0.54293,-0.53825 1.53986,-0.53825 0.96417,0 1.51178,0.51017 0.54761,0.50549 0.54761,1.18415 0,0.62718 -0.31827,1.01565 -0.17785,0.21998 -0.55229,0.4306 0.41656,0.1919 0.65526,0.43996 0.44464,0.46805 0.44464,1.21692 0,0.8846 -0.59441,1.50242 -0.59442,0.61313 -1.68028,0.61313 -0.97821,0 -1.65687,-0.52889 -0.67398,-0.53357 -0.67398,-1.54454 0,-0.59441 0.29019,-1.02501 0.29018,-0.43528 0.8612,-0.66463 z"
               style="font-style:normal;font-variant:normal;font-weight:normal;font-stretch:normal;font-size:9.58552647px;font-family:Helvetica;-inkscape-font-specification:Helvetica;letter-spacing:0px;word-spacing:7.28499985px;stroke-width:0.95855266px"
               id="path4714"
               inkscape:connector-curvature="0" />
            <path
               d="m 220.21938,141.43041 q 0.0374,0.69738 0.53825,0.96416 0.25742,0.14042 0.58037,0.14042 0.60378,0 1.0297,-0.50081 0.42591,-0.50549 0.60377,-2.04535 -0.28083,0.44464 -0.69738,0.62718 -0.41188,0.17786 -0.88929,0.17786 -0.96885,0 -1.53518,-0.60378 -0.56165,-0.60378 -0.56165,-1.5539 0,-0.91269 0.55697,-1.60539 0.55697,-0.69271 1.64283,-0.69271 1.46498,0 2.02195,1.31989 0.30891,0.72546 0.30891,1.816 0,1.23096 -0.36976,2.18109 -0.61313,1.58198 -2.07811,1.58198 -0.98289,0 -1.49306,-0.51485 -0.51016,-0.51484 -0.51016,-1.29179 z m 1.27775,-1.37605 q 0.50081,0 0.91269,-0.32763 0.41656,-0.33231 0.41656,-1.15607 0,-0.73951 -0.37444,-1.0999 -0.36975,-0.36507 -0.94544,-0.36507 -0.61782,0 -0.9829,0.41655 -0.36039,0.41188 -0.36039,1.10459 0,0.65526 0.31827,1.04373 0.31827,0.3838 1.01565,0.3838 z"
               style="font-style:normal;font-variant:normal;font-weight:normal;font-stretch:normal;font-size:9.58552647px;font-family:Helvetica;-inkscape-font-specification:Helvetica;letter-spacing:0px;word-spacing:7.28499985px;stroke-width:0.95855266px"
               id="path4716"
               inkscape:connector-curvature="0" />
            <path
               d="m 239.93559,138.30388 v -0.6459 q 0.91269,-0.0889 1.27308,-0.29487 0.36039,-0.21062 0.53825,-0.98757 h 0.66462 v 6.6743 h -0.89864 v -4.74596 z"
               style="font-style:normal;font-variant:normal;font-weight:normal;font-stretch:normal;font-size:9.58552647px;font-family:Helvetica;-inkscape-font-specification:Helvetica;letter-spacing:0px;word-spacing:7.28499985px;stroke-width:0.95855266px"
               id="path4718"
               inkscape:connector-curvature="0" />
            <path
               d="m 246.94688,136.34746 q 1.30116,0 1.88154,1.07181 0.44932,0.82844 0.44932,2.27001 0,1.36669 -0.4072,2.26065 -0.58973,1.28244 -1.92834,1.28244 -1.20755,0 -1.79728,-1.04841 -0.49145,-0.87525 -0.49145,-2.34958 0,-1.14203 0.29487,-1.9611 0.55229,-1.52582 1.99854,-1.52582 z m -0.009,6.11732 q 0.65526,0 1.04374,-0.58037 0.38847,-0.58038 0.38847,-2.16236 0,-1.14203 -0.28082,-1.87686 -0.28083,-0.7395 -1.09054,-0.7395 -0.74419,0 -1.09054,0.70206 -0.34168,0.69738 -0.34168,2.05939 0,1.02502 0.21998,1.64751 0.337,0.95013 1.15139,0.95013 z"
               style="font-style:normal;font-variant:normal;font-weight:normal;font-stretch:normal;font-size:9.58552647px;font-family:Helvetica;-inkscape-font-specification:Helvetica;letter-spacing:0px;word-spacing:7.28499985px;stroke-width:0.95855266px"
               id="path4720"
               inkscape:connector-curvature="0" />
            <path
               d="m 263.97388,138.30388 v -0.6459 q 0.91268,-0.0889 1.27308,-0.29487 0.36039,-0.21062 0.53825,-0.98757 h 0.66462 v 6.6743 h -0.89865 v -4.74596 z"
               style="font-style:normal;font-variant:normal;font-weight:normal;font-stretch:normal;font-size:9.58552647px;font-family:Helvetica;-inkscape-font-specification:Helvetica;letter-spacing:0px;word-spacing:7.28499985px;stroke-width:0.95855266px"
               id="path4722"
               inkscape:connector-curvature="0" />
            <path
               d="m 269.30957,138.30388 v -0.6459 q 0.91269,-0.0889 1.27308,-0.29487 0.36039,-0.21062 0.53825,-0.98757 h 0.66462 v 6.6743 h -0.89864 v -4.74596 z"
               style="font-style:normal;font-variant:normal;font-weight:normal;font-stretch:normal;font-size:9.58552647px;font-family:Helvetica;-inkscape-font-specification:Helvetica;letter-spacing:0px;word-spacing:7.28499985px;stroke-width:0.95855266px"
               id="path4724"
               inkscape:connector-curvature="0" />
            <path
               d="m 288.01215,138.30388 v -0.6459 q 0.91268,-0.0889 1.27307,-0.29487 0.3604,-0.21062 0.53825,-0.98757 h 0.66463 v 6.6743 h -0.89865 v -4.74596 z"
               style="font-style:normal;font-variant:normal;font-weight:normal;font-stretch:normal;font-size:9.58552647px;font-family:Helvetica;-inkscape-font-specification:Helvetica;letter-spacing:0px;word-spacing:7.28499985px;stroke-width:0.95855266px"
               id="path4726"
               inkscape:connector-curvature="0" />
            <path
               d="m 292.73002,143.04984 q 0.0468,-0.86588 0.35572,-1.5071 0.31358,-0.64122 1.21691,-1.16543 l 0.89864,-0.51953 q 0.60378,-0.35103 0.84716,-0.5991 0.3838,-0.38847 0.3838,-0.88928 0,-0.58505 -0.35104,-0.92672 -0.35103,-0.34636 -0.93608,-0.34636 -0.86588,0 -1.19819,0.65527 -0.17786,0.35103 -0.19658,0.97353 h -0.85652 q 0.014,-0.87525 0.32295,-1.42754 0.54761,-0.97353 1.93302,-0.97353 1.15138,0 1.68027,0.6225 0.53357,0.6225 0.53357,1.38541 0,0.80503 -0.56633,1.37605 -0.32763,0.33231 -1.17479,0.80503 l -0.64122,0.35571 q -0.45868,0.25275 -0.72079,0.48209 -0.46804,0.4072 -0.58973,0.90332 h 3.6601 v 0.79568 z"
               style="font-style:normal;font-variant:normal;font-weight:normal;font-stretch:normal;font-size:9.58552647px;font-family:Helvetica;-inkscape-font-specification:Helvetica;letter-spacing:0px;word-spacing:7.28499985px;stroke-width:0.95855266px"
               id="path4728"
               inkscape:connector-curvature="0" />
          </g>
          <text
             id="text4698"
             y="143.04984"
             x="26.065821"
             style="font-style:normal;font-weight:normal;font-size:38.34210587px;line-height:125%;font-family:Sans;letter-spacing:0px;word-spacing:0px;display:none;fill:#000000;fill-opacity:1;stroke:none;stroke-width:0.95855266px;stroke-linecap:butt;stroke-linejoin:miter;stroke-opacity:1"
             xml:space="preserve"><tspan
               dx="0 0.68468046 0 -1.3693609 0 0.68468046 -2.0540414 0 0 -2.0540414 0 0 0 0 0 -2.7387218 0 0 -1.4908585e-10 0 0 -2.7387218 0 0 0.68468046 0 4.7927632 0 0 3.4234023 0 0 3.4234023"
               style="font-style:normal;font-variant:normal;font-weight:normal;font-stretch:normal;font-size:9.58552647px;font-family:Helvetica;-inkscape-font-specification:Helvetica;letter-spacing:0px;word-spacing:7.28499985px;stroke-width:0.95855266px"
               y="143.04984"
               x="26.065821"
               id="tspan4696"
               sodipodi:role="line">1  2  3  4  5  6  7  8  9 10 11 12</tspan></text>
        </g>
      </g>
    </g>
  </g>
</svg>
