<?xml version="1.0" encoding="UTF-8" standalone="no"?>
<!-- Created with Inkscape (http://www.inkscape.org/) -->

<svg
   xmlns:dc="http://purl.org/dc/elements/1.1/"
   xmlns:cc="http://creativecommons.org/ns#"
   xmlns:rdf="http://www.w3.org/1999/02/22-rdf-syntax-ns#"
   xmlns:svg="http://www.w3.org/2000/svg"
   xmlns="http://www.w3.org/2000/svg"
   xmlns:sodipodi="http://sodipodi.sourceforge.net/DTD/sodipodi-0.dtd"
   xmlns:inkscape="http://www.inkscape.org/namespaces/inkscape"
   width="37.556625"
   height="37.556622"
   viewBox="0 0 9.9368575 9.9368564"
   version="1.1"
   id="svg49872"
   inkscape:version="0.92.2 5c3e80d, 2017-08-06"
   sodipodi:docname="as-knob.svg">
  <defs
     id="defs49866">
    <clipPath
       id="clip12">
      <path
         d="m 143,129.75 h 3 V 158 h -3 z m 0,0"
         id="path28860"
         inkscape:connector-curvature="0" />
    </clipPath>
    <clipPath
       id="clip11">
      <path
         d="m 117.39453,129.75 h 54 v 54.00391 h -54 z m 0,0"
         id="path28857"
         inkscape:connector-curvature="0" />
    </clipPath>
    <clipPath
       id="clip150">
      <path
         d="m 176,208.92578 h 2 V 228 h -2 z m 0,0"
         id="path29465"
         inkscape:connector-curvature="0" />
    </clipPath>
    <clipPath
       id="clip149">
      <path
         d="m 159.27734,208.92578 h 36 v 36 h -36 z m 0,0"
         id="path29462"
         inkscape:connector-curvature="0" />
    </clipPath>
    <clipPath
       id="clip142">
      <path
         d="m 110,208.92578 h 3 V 228 h -3 z m 0,0"
         id="path29320"
         inkscape:connector-curvature="0" />
    </clipPath>
    <clipPath
       id="clip141">
      <path
         d="m 93.511719,208.92578 h 36.000001 v 36 H 93.511719 Z m 0,0"
         id="path29317"
         inkscape:connector-curvature="0" />
    </clipPath>
  </defs>
  <sodipodi:namedview
     id="base"
     pagecolor="#ffffff"
     bordercolor="#666666"
     borderopacity="1.0"
     inkscape:pageopacity="0.0"
     inkscape:pageshadow="2"
     inkscape:zoom="9.1593516"
     inkscape:cx="-43.486446"
     inkscape:cy="24.236213"
     inkscape:document-units="mm"
     inkscape:current-layer="g843"
     showgrid="false"
     fit-margin-top="0"
     fit-margin-left="0"
     fit-margin-right="0"
     fit-margin-bottom="0"
     units="px"
     inkscape:window-width="2286"
     inkscape:window-height="1396"
     inkscape:window-x="113"
     inkscape:window-y="324"
     inkscape:window-maximized="0"
     inkscape:snap-global="true"
     inkscape:snap-bbox="true"
     inkscape:snap-bbox-midpoints="true"
     inkscape:snap-object-midpoints="true"
     inkscape:snap-bbox-edge-midpoints="true"
     inkscape:object-paths="true"
     inkscape:pagecheckerboard="false" />
  <metadata
     id="metadata49869">
    <rdf:RDF>
      <cc:Work
         rdf:about="">
        <dc:format>image/svg+xml</dc:format>
        <dc:type
           rdf:resource="http://purl.org/dc/dcmitype/StillImage" />
        <dc:title />
      </cc:Work>
    </rdf:RDF>
  </metadata>
  <g
     inkscape:label="Layer 1"
     inkscape:groupmode="layer"
     id="layer1"
     transform="translate(-73.816227,-78.610433)">
    <g
       id="g843"
       transform="translate(-9.8682824,0.06880406)">
      <path
         d="m 93.402872,83.510057 c 0,2.623283 -2.126915,4.749934 -4.749934,4.749934 -2.623283,0 -4.749934,-2.126651 -4.749934,-4.749934 0,-2.623283 2.126651,-4.749934 4.749934,-4.749934 2.623019,0 4.749934,2.126651 4.749934,4.749934"
         style="fill:#191919;fill-opacity:1;fill-rule:nonzero;stroke:none;stroke-width:0.2345679"
         id="path6445-4"
         inkscape:connector-curvature="0" />
      <path
         sodipodi:type="star"
         style="opacity:1;vector-effect:none;fill:#363636;fill-opacity:1;stroke:#282828;stroke-width:0.40262085;stroke-linecap:round;stroke-linejoin:miter;stroke-miterlimit:4;stroke-dasharray:none;stroke-dashoffset:0;stroke-opacity:1;paint-order:stroke markers fill"
         id="path832"
         sodipodi:sides="12"
         sodipodi:cx="78.782166"
         sodipodi:cy="83.651978"
         sodipodi:r1="4.3352389"
         sodipodi:r2="3.9884198"
         sodipodi:arg1="0.7093546"
         sodipodi:arg2="0.97115399"
         inkscape:flatsided="false"
         inkscape:rounded="0.21"
         inkscape:randomized="0"
         d="m 82.071669,86.47571 c -0.155873,0.181584 -0.841091,0.333804 -1.03865,0.468858 -0.197559,0.135053 -0.588145,0.718265 -0.813927,0.797585 -0.225782,0.07932 -0.895307,-0.131462 -1.133925,-0.113282 -0.238618,0.01818 -0.868481,0.327964 -1.103674,0.283766 -0.235193,-0.0442 -0.709628,-0.561504 -0.925367,-0.665068 -0.21574,-0.103564 -0.916109,-0.150215 -1.097693,-0.306088 -0.181584,-0.155873 -0.333804,-0.841091 -0.468858,-1.03865 -0.135053,-0.197559 -0.718265,-0.588145 -0.797585,-0.813927 -0.07932,-0.225782 0.131462,-0.895307 0.113282,-1.133925 -0.01818,-0.238618 -0.327964,-0.868481 -0.283766,-1.103674 0.0442,-0.235193 0.561504,-0.709628 0.665068,-0.925367 0.103564,-0.21574 0.150215,-0.916109 0.306088,-1.097693 0.155873,-0.181584 0.841091,-0.333804 1.03865,-0.468858 0.197559,-0.135053 0.588145,-0.718265 0.813927,-0.797585 0.225782,-0.07932 0.895307,0.131462 1.133925,0.113282 0.238618,-0.01818 0.868481,-0.327964 1.103674,-0.283766 0.235193,0.0442 0.709628,0.561504 0.925367,0.665068 0.21574,0.103564 0.916109,0.150216 1.097693,0.306088 0.181584,0.155873 0.333804,0.841091 0.468858,1.03865 0.135053,0.197559 0.718265,0.588145 0.797585,0.813927 0.07932,0.225782 -0.131462,0.895307 -0.113282,1.133925 0.01818,0.238618 0.327964,0.868481 0.283766,1.103674 -0.0442,0.235193 -0.561504,0.709628 -0.665068,0.925367 -0.103564,0.21574 -0.150215,0.916109 -0.306088,1.097693 z"
         inkscape:transform-center-x="0.0095337345"
         inkscape:transform-center-y="-0.084518611"
         transform="matrix(0.98939575,-0.1452738,0.14639551,0.99703522,-1.5400757,11.550998)" />
      <path
         inkscape:transform-center-y="-0.072890159"
         inkscape:transform-center-x="0.0095842329"
         d="m 81.572801,86.035762 c -0.132216,0.154024 -0.713436,0.283141 -0.881011,0.397697 -0.167575,0.114557 -0.49888,0.609253 -0.690395,0.676534 -0.191514,0.06728 -0.759424,-0.11151 -0.961826,-0.09609 -0.202403,0.01542 -0.73667,0.278188 -0.936167,0.240698 -0.199497,-0.03749 -0.601925,-0.476282 -0.784922,-0.564128 -0.182996,-0.08785 -0.777068,-0.127417 -0.931093,-0.259633 -0.154024,-0.132216 -0.283141,-0.713436 -0.397697,-0.881011 -0.114557,-0.167575 -0.609253,-0.49888 -0.676534,-0.690395 -0.06728,-0.191514 0.11151,-0.759424 0.09609,-0.961826 -0.01542,-0.202403 -0.278188,-0.73667 -0.240698,-0.936167 0.03749,-0.199497 0.476282,-0.601926 0.564129,-0.784922 0.08785,-0.182996 0.127416,-0.777068 0.259632,-0.931093 0.132216,-0.154024 0.713436,-0.283141 0.881011,-0.397697 0.167575,-0.114557 0.498881,-0.609253 0.690395,-0.676535 0.191514,-0.06728 0.759424,0.111511 0.961827,0.09609 0.202402,-0.01542 0.736669,-0.278188 0.936166,-0.240699 0.199497,0.03749 0.601926,0.476283 0.784922,0.564129 0.182996,0.08785 0.777068,0.127417 0.931093,0.259633 0.154024,0.132216 0.283141,0.713436 0.397698,0.881011 0.114556,0.167575 0.609252,0.49888 0.676534,0.690395 0.06728,0.191514 -0.111511,0.759424 -0.09609,0.961826 0.01542,0.202403 0.278189,0.73667 0.240699,0.936167 -0.03749,0.199497 -0.476283,0.601925 -0.564129,0.784922 -0.08785,0.182996 -0.127417,0.777068 -0.259633,0.931093 z"
         inkscape:randomized="0"
         inkscape:rounded="0.21"
         inkscape:flatsided="false"
         sodipodi:arg2="0.97115399"
         sodipodi:arg1="0.7093546"
         sodipodi:r2="3.3830867"
         sodipodi:r1="3.6772683"
         sodipodi:cy="83.640594"
         sodipodi:cx="78.782555"
         sodipodi:sides="12"
         id="path834"
         style="opacity:1;vector-effect:none;fill:#424242;fill-opacity:1;stroke:#2d2d2d;stroke-width:0.38345429;stroke-linecap:round;stroke-linejoin:miter;stroke-miterlimit:4;stroke-dasharray:none;stroke-dashoffset:0;stroke-opacity:1;paint-order:stroke markers fill"
         sodipodi:type="star"
         transform="matrix(1.0117227,-0.1656356,0.16810723,1.0130407,-5.1136902,11.82785)" />
      <path
         sodipodi:type="star"
         style="opacity:1;vector-effect:none;fill:#565656;fill-opacity:1;stroke:none;stroke-width:0.35700917;stroke-linecap:round;stroke-linejoin:miter;stroke-miterlimit:4;stroke-dasharray:none;stroke-dashoffset:0;stroke-opacity:1;paint-order:stroke markers fill"
         id="path896"
         sodipodi:sides="12"
         sodipodi:cx="78.7827"
         sodipodi:cy="83.636337"
         sodipodi:r1="3.4236636"
         sodipodi:r2="3.1497705"
         sodipodi:arg1="0.7093546"
         sodipodi:arg2="0.97115399"
         inkscape:flatsided="false"
         inkscape:rounded="0.21"
         inkscape:randomized="0"
         d="m 81.380515,85.866321 c -0.123097,0.143402 -0.664233,0.263614 -0.820251,0.37027 -0.156018,0.106656 -0.464475,0.567235 -0.642782,0.629876 -0.178306,0.06264 -0.70705,-0.103819 -0.895493,-0.08946 -0.188444,0.01436 -0.685865,0.259003 -0.871604,0.224098 -0.185738,-0.0349 -0.560413,-0.443435 -0.730789,-0.525223 -0.170376,-0.08179 -0.723478,-0.11863 -0.86688,-0.241727 -0.143402,-0.123097 -0.263614,-0.664233 -0.37027,-0.820251 -0.106656,-0.156019 -0.567235,-0.464475 -0.629877,-0.642782 -0.06264,-0.178307 0.10382,-0.70705 0.08946,-0.895494 -0.01436,-0.188443 -0.259003,-0.685865 -0.224099,-0.871603 0.0349,-0.185739 0.443436,-0.560414 0.525224,-0.730789 0.08179,-0.170376 0.118629,-0.723478 0.241727,-0.86688 0.123097,-0.143402 0.664233,-0.263615 0.820251,-0.37027 0.156018,-0.106656 0.464475,-0.567236 0.642782,-0.629877 0.178306,-0.06264 0.70705,0.10382 0.895494,0.08946 0.188443,-0.01436 0.685864,-0.259002 0.871603,-0.224098 0.185739,0.03491 0.560413,0.443436 0.730789,0.525224 0.170376,0.08179 0.723478,0.118629 0.86688,0.241727 0.143402,0.123097 0.263614,0.664233 0.37027,0.820251 0.106656,0.156018 0.567236,0.464475 0.629877,0.642782 0.06264,0.178306 -0.10382,0.70705 -0.08946,0.895493 0.01436,0.188444 0.259002,0.685865 0.224098,0.871604 -0.0349,0.185738 -0.443436,0.560413 -0.525224,0.730789 -0.08179,0.170376 -0.118629,0.723478 -0.241727,0.86688 z"
         inkscape:transform-center-x="0.0080053118"
         inkscape:transform-center-y="-0.063938355"
         transform="matrix(0.95425249,-0.15002639,0.15244855,0.95470416,0.72417081,15.481505)" />
      <g
         style="fill:#bcbcbc;fill-opacity:1;stroke-width:0.88890123"
         id="g900"
         transform="matrix(0.33444815,0,0,-0.21775211,88.852938,79.100726)">
        <path
           d="M 0,0 C -0.195,0.045 -0.393,0.069 -0.598,0.069 -0.804,0.069 -1.002,0.045 -1.196,0 V -18.157 H 0 Z"
           style="fill:#bcbcbc;fill-opacity:1;fill-rule:evenodd;stroke:none;stroke-width:0.88890123"
           id="path898"
           inkscape:connector-curvature="0" />
      </g>
      <g
         id="g10741">
        <g
           id="g7033">
          <path
             inkscape:connector-curvature="0"
             id="path7027"
             style="fill:#191919;fill-opacity:1;fill-rule:nonzero;stroke:none;stroke-width:0.2345679"
             d="m 76.887535,82.512184 c 0,2.623283 -2.126915,4.749934 -4.749934,4.749934 -2.623283,0 -4.749934,-2.126651 -4.749934,-4.749934 0,-2.623283 2.126651,-4.749934 4.749934,-4.749934 2.623019,0 4.749934,2.126651 4.749934,4.749934" />
          <g
             transform="rotate(-0.4,72.137628,82.512196)"
             id="g7042">
            <path
               inkscape:connector-curvature="0"
               id="path7016"
               d="m 72.045205,78.143326 c -0.285853,0.10456 -0.6721,0.328072 -0.864722,0.373593 -0.18967,0.04482 -0.623248,0.02131 -0.926987,0.05247 a 4.3879734,4.3879734 0 0 0 -0.396681,0.214081 c -0.192679,0.236517 -0.411168,0.610747 -0.552695,0.744388 -0.142741,0.134788 -0.53571,0.332713 -0.781467,0.512818 a 4.3879734,4.3879734 0 0 0 -0.228773,0.372193 c -0.05011,0.300808 -0.05031,0.741541 -0.10634,0.929786 -0.05622,0.188867 -0.298706,0.558916 -0.420469,0.838138 a 4.3879734,4.3879734 0 0 0 -0.01749,0.347007 4.3879734,4.3879734 0 0 0 0.0029,0.07836 c 0.10456,0.286196 0.330946,0.675595 0.377091,0.868921 0.04646,0.194666 0.01844,0.649061 0.05597,0.950774 a 4.3879734,4.3879734 0 0 0 0.194493,0.358903 c 0.232107,0.196837 0.627905,0.423223 0.765377,0.568784 0.138587,0.146744 0.343057,0.561958 0.527507,0.803155 a 4.3879734,4.3879734 0 0 0 0.337215,0.207087 c 0.29828,0.05619 0.759937,0.05265 0.952873,0.110541 0.189428,0.05683 0.561336,0.302711 0.840934,0.424665 a 4.3879734,4.3879734 0 0 0 0.333716,0.01678 4.3879734,4.3879734 0 0 0 0.09234,-0.0035 c 0.285851,-0.10456 0.672099,-0.328074 0.864721,-0.373593 0.189384,-0.04476 0.621759,-0.02161 0.925589,-0.05247 a 4.3879734,4.3879734 0 0 0 0.398079,-0.214781 c 0.19258,-0.236633 0.410567,-0.610141 0.551996,-0.743689 0.142535,-0.134599 0.534761,-0.33293 0.780766,-0.512816 a 4.3879734,4.3879734 0 0 0 0.230173,-0.372195 c 0.05023,-0.300755 0.05027,-0.74143 0.106341,-0.929785 0.05622,-0.188894 0.298737,-0.559612 0.420469,-0.838837 a 4.3879734,4.3879734 0 0 0 0.01749,-0.346307 4.3879734,4.3879734 0 0 0 -0.0029,-0.07906 C 76.418128,82.162544 76.191768,81.773816 76.14563,81.580517 76.09917,81.38585 76.12719,80.931455 76.08966,80.629742 a 4.3879734,4.3879734 0 0 0 -0.194492,-0.3589 C 75.663063,80.074027 75.267266,79.847643 75.129794,79.702081 74.990831,79.554941 74.785033,79.1374 74.600186,78.896826 a 4.3879734,4.3879734 0 0 0 -0.335115,-0.204987 c -0.298199,-0.05632 -0.759821,-0.05331 -0.952873,-0.111245 -0.189539,-0.05687 -0.562014,-0.302149 -0.841634,-0.423965 a 4.3879734,4.3879734 0 0 0 -0.333015,-0.01678 4.3879734,4.3879734 0 0 0 -0.09234,0.0035 z"
               style="opacity:1;vector-effect:none;fill:#363636;fill-opacity:1;stroke:#2d2d2d;stroke-width:0.1984375;stroke-linecap:round;stroke-linejoin:miter;stroke-miterlimit:10;stroke-dasharray:none;stroke-dashoffset:0;stroke-opacity:1;paint-order:markers fill stroke" />
            <path
               style="opacity:1;vector-effect:none;fill:#424242;fill-opacity:1;stroke:#2d2d2d;stroke-width:0.19359629;stroke-linecap:round;stroke-linejoin:miter;stroke-miterlimit:10;stroke-dasharray:none;stroke-dashoffset:0;stroke-opacity:1;paint-order:markers fill stroke"
               d="m 72.056095,78.643376 c -0.252234,0.09226 -0.593055,0.289488 -0.763022,0.329656 -0.167363,0.03955 -0.549949,0.0188 -0.817965,0.0463 a 3.8719064,3.8719064 0 0 0 -0.350028,0.188903 c -0.170018,0.2087 -0.36281,0.538918 -0.487692,0.656842 -0.125953,0.118934 -0.472706,0.293582 -0.689559,0.452505 a 3.8719064,3.8719064 0 0 0 -0.201867,0.328419 c -0.04422,0.265431 -0.04439,0.65433 -0.09383,0.820435 -0.04961,0.166654 -0.263576,0.493182 -0.371018,0.739565 a 3.8719064,3.8719064 0 0 0 -0.01543,0.306196 3.8719064,3.8719064 0 0 0 0.0025,0.06914 c 0.09226,0.252536 0.292024,0.596138 0.332742,0.766727 0.041,0.171772 0.01627,0.572725 0.04939,0.838954 a 3.8719064,3.8719064 0 0 0 0.171619,0.316692 c 0.204809,0.173688 0.554057,0.373449 0.675362,0.501891 0.122288,0.129485 0.30271,0.495866 0.465467,0.708696 a 3.8719064,3.8719064 0 0 0 0.297555,0.182731 c 0.263199,0.04958 0.670561,0.04646 0.840806,0.09754 0.167149,0.05015 0.495318,0.267109 0.742032,0.37472 a 3.8719064,3.8719064 0 0 0 0.294469,0.01481 3.8719064,3.8719064 0 0 0 0.08148,-0.0031 c 0.252232,-0.09226 0.593054,-0.289489 0.763021,-0.329654 0.167111,-0.03949 0.548635,-0.01907 0.816731,-0.0463 a 3.8719064,3.8719064 0 0 0 0.351262,-0.189521 c 0.16993,-0.208803 0.36228,-0.538383 0.487075,-0.656224 0.125772,-0.118769 0.471868,-0.293775 0.688941,-0.452504 a 3.8719064,3.8719064 0 0 0 0.203103,-0.328422 c 0.04432,-0.265383 0.04436,-0.654231 0.09383,-0.820433 0.04961,-0.166678 0.263603,-0.493796 0.371018,-0.740182 a 3.8719064,3.8719064 0 0 0 0.01543,-0.305578 3.8719064,3.8719064 0 0 0 -0.0025,-0.06977 c -0.09229,-0.252534 -0.29203,-0.595543 -0.332742,-0.766109 -0.04099,-0.171772 -0.01627,-0.572726 -0.04939,-0.838954 A 3.8719064,3.8719064 0 0 0 75.453269,80.52064 C 75.248461,80.346973 74.899214,80.147213 74.77791,80.018771 74.65529,79.888936 74.473697,79.520502 74.310589,79.308222 a 3.8719064,3.8719064 0 0 0 -0.295702,-0.180879 c -0.263128,-0.0497 -0.670459,-0.04704 -0.840806,-0.09816 -0.167248,-0.05018 -0.495916,-0.266614 -0.74265,-0.374103 a 3.8719064,3.8719064 0 0 0 -0.29385,-0.01481 3.8719064,3.8719064 0 0 0 -0.08148,0.0031 z"
               id="path7014"
               inkscape:connector-curvature="0" />
            <path
               inkscape:connector-curvature="0"
               id="path6987"
               d="m 72.069375,79.27363 c -0.211143,0.07723 -0.496442,0.242328 -0.638721,0.275952 -0.140098,0.03311 -0.460358,0.01574 -0.684712,0.03876 a 3.2411458,3.2411458 0 0 0 -0.293006,0.15813 c -0.142321,0.174701 -0.303706,0.451124 -0.408244,0.549837 -0.105435,0.09956 -0.395699,0.245756 -0.577225,0.378789 a 3.2411458,3.2411458 0 0 0 -0.168982,0.274918 c -0.03701,0.22219 -0.03716,0.547734 -0.07855,0.68678 -0.04153,0.139505 -0.220637,0.412839 -0.310576,0.619084 a 3.2411458,3.2411458 0 0 0 -0.01292,0.256315 3.2411458,3.2411458 0 0 0 0.0021,0.05788 c 0.07723,0.211395 0.244451,0.499022 0.278536,0.641822 0.03432,0.143789 0.01362,0.479424 0.04134,0.702282 a 3.2411458,3.2411458 0 0 0 0.143661,0.265101 c 0.171444,0.145393 0.463797,0.312611 0.56534,0.420129 0.102367,0.108391 0.253397,0.415086 0.38964,0.593245 a 3.2411458,3.2411458 0 0 0 0.249081,0.152963 c 0.220322,0.0415 0.561322,0.03889 0.703833,0.08165 0.139919,0.04198 0.414627,0.223595 0.62115,0.313676 a 3.2411458,3.2411458 0 0 0 0.246497,0.0124 3.2411458,3.2411458 0 0 0 0.06821,-0.0026 c 0.211142,-0.07723 0.496441,-0.242328 0.63872,-0.275952 0.139888,-0.03306 0.459258,-0.01597 0.68368,-0.03876 a 3.2411458,3.2411458 0 0 0 0.294038,-0.158646 c 0.142248,-0.174786 0.303263,-0.450677 0.407728,-0.549321 0.105283,-0.09942 0.394998,-0.245916 0.576708,-0.378788 a 3.2411458,3.2411458 0 0 0 0.170016,-0.274919 c 0.0371,-0.222151 0.03713,-0.547652 0.07855,-0.686779 0.04153,-0.139525 0.22066,-0.413353 0.310576,-0.619601 a 3.2411458,3.2411458 0 0 0 0.01292,-0.255798 3.2411458,3.2411458 0 0 0 -0.0021,-0.0584 c -0.07726,-0.211394 -0.244456,-0.498525 -0.278536,-0.641304 -0.03432,-0.14379 -0.01362,-0.479425 -0.04134,-0.702283 a 3.2411458,3.2411458 0 0 0 -0.14366,-0.2651 C 74.741682,80.6997 74.44933,80.532482 74.347787,80.424964 74.245143,80.31628 74.093132,80.007867 73.956596,79.830168 a 3.2411458,3.2411458 0 0 0 -0.24753,-0.151412 c -0.220263,-0.0416 -0.561237,-0.03938 -0.703833,-0.08217 -0.140002,-0.04201 -0.415128,-0.223181 -0.621667,-0.313159 a 3.2411458,3.2411458 0 0 0 -0.24598,-0.0124 3.2411458,3.2411458 0 0 0 -0.06821,0.0026 z"
               style="opacity:1;vector-effect:none;fill:#565656;fill-opacity:1;stroke:none;stroke-width:0.7028262;stroke-linecap:round;stroke-linejoin:miter;stroke-miterlimit:10;stroke-dasharray:none;stroke-dashoffset:0;stroke-opacity:1;paint-order:stroke fill markers" />
          </g>
        </g>
        <g
           style="fill:#bcbcbc;fill-opacity:1;stroke-width:0.88890123"
           id="g7037"
           transform="matrix(0.33444815,0,0,-0.21775211,72.36824,78.048818)">
          <path
             d="M 0,0 C -0.195,0.045 -0.393,0.069 -0.598,0.069 -0.804,0.069 -1.002,0.045 -1.196,0 V -18.157 H 0 Z"
             style="fill:#bcbcbc;fill-opacity:1;fill-rule:evenodd;stroke:none;stroke-width:0.88890123"
             id="path7035"
             inkscape:connector-curvature="0" />
        </g>
      </g>
    </g>
  </g>
</svg>
