<?xml version="1.0" encoding="UTF-8" standalone="no"?>
<svg
   xmlns:dc="http://purl.org/dc/elements/1.1/"
   xmlns:cc="http://creativecommons.org/ns#"
   xmlns:rdf="http://www.w3.org/1999/02/22-rdf-syntax-ns#"
   xmlns:svg="http://www.w3.org/2000/svg"
   xmlns="http://www.w3.org/2000/svg"
   xmlns:xlink="http://www.w3.org/1999/xlink"
   xmlns:sodipodi="http://sodipodi.sourceforge.net/DTD/sodipodi-0.dtd"
   xmlns:inkscape="http://www.inkscape.org/namespaces/inkscape"
   id="svg8"
   viewBox="0 0 90 380"
   version="1.1"
   sodipodi:docname="Steps.svg"
   inkscape:version="0.92.2 5c3e80d, 2017-08-06"
   width="90"
   height="380"
   inkscape:label="BG">
  <metadata
     id="metadata39">
    <rdf:RDF>
      <cc:Work
         rdf:about="">
        <dc:format>image/svg+xml</dc:format>
        <dc:type
           rdf:resource="http://purl.org/dc/dcmitype/StillImage" />
        <dc:title>BlankPanel8</dc:title>
      </cc:Work>
    </rdf:RDF>
  </metadata>
  <sodipodi:namedview
     pagecolor="#ffffff"
     bordercolor="#666666"
     borderopacity="1"
     objecttolerance="10"
     gridtolerance="10"
     guidetolerance="10"
     inkscape:pageopacity="0"
     inkscape:pageshadow="2"
     inkscape:window-width="2320"
     inkscape:window-height="1386"
     id="namedview37"
     showgrid="false"
     inkscape:zoom="2.2304838"
     inkscape:cx="96.268743"
     inkscape:cy="163.2383"
     inkscape:window-x="9"
     inkscape:window-y="0"
     inkscape:window-maximized="0"
     inkscape:current-layer="layer1" />
  <defs
     id="defs4">
    <style
       id="style2">.cls-1{fill:#ab2d2d;}.cls-2{fill:#952d2d;}.cls-3{fill:#251e1e;}.cls-4{fill:#fff7d4;}.cls-5{fill:#202020;}</style>
    <linearGradient
       inkscape:collect="always"
       xlink:href="#linearGradient4705"
       id="linearGradient4711"
       x1="64.344543"
       y1="463.90823"
       x2="66.70739"
       y2="86.038933"
       gradientUnits="userSpaceOnUse"
       gradientTransform="matrix(-0.75,0,0,-1,210,464.7757)" />
    <linearGradient
       inkscape:collect="always"
       id="linearGradient4705">
      <stop
         style="stop-color:#44423e;stop-opacity:0.03211009"
         offset="0"
         id="stop4707" />
      <stop
         style="stop-color:#1b1414;stop-opacity:0.50917429"
         offset="1"
         id="stop4709" />
    </linearGradient>
  </defs>
  <title
     id="title6">BlankPanel8</title>
  <g
     inkscape:groupmode="layer"
     id="layer1"
     inkscape:label="bg">
    <g
       id="g166"
       transform="matrix(1.011236,0,0,0.99999999,-119.83145,0)"
       style="display:inline;fill:#44423e;fill-opacity:1">
      <polygon
         points="118.5,29.98 118.5,287.57 207.5,287.57 207.5,272.35 207.5,29.98 "
         style="fill:#44423e;fill-opacity:1"
         id="polygon156" />
      <polygon
         points="207.5,380 207.5,291.45 118.5,291.45 118.5,297.78 118.5,380 "
         style="fill:#44423e;fill-opacity:1"
         id="polygon158" />
      <polygon
         points="207.5,291.45 207.5,287.57 118.5,287.57 118.5,291.45 "
         style="fill:#44423e;fill-opacity:1"
         id="polygon160"
         transform="matrix(1,0,0,1.7442041,0,-215.34345)" />
      <polygon
         points="118.5,0 118.5,26.09 207.5,26.1 207.5,16.51 207.5,0 "
         style="fill:#44423e;fill-opacity:1"
         id="polygon162" />
      <polygon
         points="207.5,29.98 207.5,29.81 207.5,26.1 118.5,26.09 118.5,29.98 "
         style="fill:#44423e;fill-opacity:1"
         id="polygon164"
         transform="matrix(1,0,0,1.8212547,0,-22.815527)" />
    </g>
    <path
       style="display:inline;opacity:1;fill:url(#linearGradient4711);fill-opacity:1;fill-rule:nonzero;stroke:none;stroke-width:0.38938221;stroke-linecap:square;stroke-linejoin:round;stroke-miterlimit:4;stroke-dasharray:none;stroke-dashoffset:0;stroke-opacity:1;paint-order:normal"
       d="M 210,380 H 120 V 0 h 90 z"
       id="rect4703"
       inkscape:connector-curvature="0" />
    <g
       transform="matrix(7.9299111,0,0,7.9299111,-430.58997,-2669.2158)"
       data-name="Layer 2"
       id="g1661"
       style="display:inline;fill:#3c3835;fill-opacity:1">
      <g
         data-name="Layer 1-2"
         id="g1659"
         style="fill:#3c3835;fill-opacity:1">
        <path
           style="fill:#3c3835;fill-opacity:1"
           inkscape:connector-curvature="0"
           d="m 71.31,357 a 0.91,0.91 0 0 0 -0.41,-0.53 0.77,0.77 0 0 0 -0.64,-0.1 0.91,0.91 0 0 0 -0.53,0.41 43.94,43.94 0 0 1 -3.33,5.08 21.5,21.5 0 0 1 -2.08,-6.45 v -0.39 l 2,-2.81 c 0.24,-0.34 1.26,-1.56 -0.78,-2.45 a 3.15,3.15 0 0 0 -2.36,0.07 c -2.32,1 -1.92,4.26 -1.85,4.79 q 0,0.31 0.09,0.62 l -3.78,6.22 c 0,0 0.49,-3.26 0.58,-3.85 A 1.36,1.36 0 0 0 57.1,356 c -1,-0.24 -1.61,0.06 -2.27,2.65 -0.56,2.19 -2.54,7.64 -3.86,7.6 -0.78,0 -0.24,-3.41 0.68,-5.87 1.12,-2.95 3.78,-7 6.78,-8.83 0.69,-0.43 1.6,-1.5 0.66,-2.56 -1.19,-1.34 -2.46,-0.28 -3,0.13 a 14.68,14.68 0 0 0 -3.49,4.35 22.82,22.82 0 0 0 -2.81,6.33 c -1,3.25 -2.07,8.54 0.1,8.74 3,0.27 5.39,-5.56 5.39,-5.56 0,0 -0.13,3.05 1.4,3.13 1.53,0.08 4.51,-5.9 5.36,-7.92 a 22.36,22.36 0 0 0 2.5,5.55 2.87,2.87 0 0 1 0.14,0.39 c -0.34,0.47 -3.77,4.86 -4.77,7.5 a 0.82,0.82 0 0 0 0,0.72 0.79,0.79 0 0 0 0.5,0.42 1.12,1.12 0 0 0 0.74,-0.12 5.53,5.53 0 0 0 0.66,-0.35 c 4.83,-2.78 5.52,-6 5.17,-8.48 a 2.08,2.08 0 0 1 0.26,-0.4 42.2,42.2 0 0 0 3.89,-5.77 0.76,0.76 0 0 0 0.18,-0.65 z"
           class="cls-4"
           id="path1657" />
      </g>
    </g>
    <rect
       style="display:inline;opacity:1;vector-effect:none;fill:#3c3835;fill-opacity:1;stroke:none;stroke-width:0.97368497;stroke-linecap:butt;stroke-linejoin:miter;stroke-miterlimit:4;stroke-dasharray:none;stroke-dashoffset:0;stroke-opacity:1"
       id="rect1759"
       width="90"
       height="20"
       x="8.9652303e-06"
       y="359.99997" />
    <rect
       y="3.0000001e-05"
       x="8.9652303e-06"
       height="20"
       width="90"
       id="rect1806"
       style="display:inline;opacity:1;vector-effect:none;fill:#3c3835;fill-opacity:1;stroke:none;stroke-width:0.97368497;stroke-linecap:butt;stroke-linejoin:miter;stroke-miterlimit:4;stroke-dasharray:none;stroke-dashoffset:0;stroke-opacity:1" />
    <g
       style="display:inline"
       transform="translate(8.0770465e-6,-1.3859664e-5)"
       id="g1614">
      <circle
         r="15.118111"
         cy="359.88181"
         cx="44.999989"
         id="path1686"
         style="opacity:1;vector-effect:none;fill:#3c3835;fill-opacity:1;stroke:none;stroke-width:0.74390346;stroke-linecap:butt;stroke-linejoin:miter;stroke-miterlimit:4;stroke-dasharray:none;stroke-dashoffset:0;stroke-opacity:1" />
      <g
         transform="matrix(0.66602928,0,0,0.66602928,5.0554261,118.9929)"
         data-name="Layer 2"
         id="Layer_2-2"
         style="fill:#fff7d4;fill-opacity:1">
        <g
           data-name="Layer 1-2"
           id="Layer_1-2-6"
           style="fill:#fff7d4;fill-opacity:1">
          <path
             style="fill:#fff7d4;fill-opacity:1"
             inkscape:connector-curvature="0"
             d="m 71.31,357 a 0.91,0.91 0 0 0 -0.41,-0.53 0.77,0.77 0 0 0 -0.64,-0.1 0.91,0.91 0 0 0 -0.53,0.41 43.94,43.94 0 0 1 -3.33,5.08 21.5,21.5 0 0 1 -2.08,-6.45 v -0.39 l 2,-2.81 c 0.24,-0.34 1.26,-1.56 -0.78,-2.45 a 3.15,3.15 0 0 0 -2.36,0.07 c -2.32,1 -1.92,4.26 -1.85,4.79 q 0,0.31 0.09,0.62 l -3.78,6.22 c 0,0 0.49,-3.26 0.58,-3.85 A 1.36,1.36 0 0 0 57.1,356 c -1,-0.24 -1.61,0.06 -2.27,2.65 -0.56,2.19 -2.54,7.64 -3.86,7.6 -0.78,0 -0.24,-3.41 0.68,-5.87 1.12,-2.95 3.78,-7 6.78,-8.83 0.69,-0.43 1.6,-1.5 0.66,-2.56 -1.19,-1.34 -2.46,-0.28 -3,0.13 a 14.68,14.68 0 0 0 -3.49,4.35 22.82,22.82 0 0 0 -2.81,6.33 c -1,3.25 -2.07,8.54 0.1,8.74 3,0.27 5.39,-5.56 5.39,-5.56 0,0 -0.13,3.05 1.4,3.13 1.53,0.08 4.51,-5.9 5.36,-7.92 a 22.36,22.36 0 0 0 2.5,5.55 2.87,2.87 0 0 1 0.14,0.39 c -0.34,0.47 -3.77,4.86 -4.77,7.5 a 0.82,0.82 0 0 0 0,0.72 0.79,0.79 0 0 0 0.5,0.42 1.12,1.12 0 0 0 0.74,-0.12 5.53,5.53 0 0 0 0.66,-0.35 c 4.83,-2.78 5.52,-6 5.17,-8.48 a 2.08,2.08 0 0 1 0.26,-0.4 42.2,42.2 0 0 0 3.89,-5.77 0.76,0.76 0 0 0 0.18,-0.65 z"
             class="cls-4"
             id="path8-4-6" />
        </g>
      </g>
    </g>
    <g
       style="display:inline"
       id="g1660"
       transform="matrix(3.7795276,0,0,3.7795276,-0.06999192,0)">
      <rect
         ry="1.3924577"
         y="0.74168032"
         x="3.5040054"
         height="2.5"
         width="5"
         id="rect861"
         style="opacity:1;vector-effect:none;fill:#251e1e;fill-opacity:1;stroke:none;stroke-width:0.15187515;stroke-linecap:butt;stroke-linejoin:miter;stroke-miterlimit:4;stroke-dasharray:none;stroke-dashoffset:0;stroke-opacity:1" />
      <rect
         style="opacity:1;vector-effect:none;fill:#251e1e;fill-opacity:1;stroke:none;stroke-width:0.15187515;stroke-linecap:butt;stroke-linejoin:miter;stroke-miterlimit:4;stroke-dasharray:none;stroke-dashoffset:0;stroke-opacity:1"
         id="rect863"
         width="5"
         height="2.5"
         x="3.5040054"
         y="97.441681"
         ry="1.3924577" />
      <path
         inkscape:connector-curvature="0"
         id="path1191"
         d="m 16.737997,0.74152337 c -0.771421,0 -1.392163,0.55756003 -1.392163,1.25006003 0,0.6925 0.620742,1.2500501 1.392163,1.2500501 h 2.21537 c 0.771422,0 1.392161,-0.5575501 1.392161,-1.2500501 0,-0.6925 -0.620739,-1.25006003 -1.392161,-1.25006003 z"
         style="opacity:1;vector-effect:none;fill:#251e1e;fill-opacity:1;stroke:none;stroke-width:0.15187515;stroke-linecap:butt;stroke-linejoin:miter;stroke-miterlimit:4;stroke-dasharray:none;stroke-dashoffset:0;stroke-opacity:1" />
      <path
         inkscape:connector-curvature="0"
         id="rect865"
         d="m 16.737997,97.441605 c -0.771421,0 -1.392163,0.557548 -1.392163,1.25005 0,0.692499 0.620742,1.25005 1.392163,1.25005 h 2.21537 c 0.771422,0 1.392161,-0.557551 1.392161,-1.25005 0,-0.692502 -0.620739,-1.25005 -1.392161,-1.25005 z"
         style="opacity:1;vector-effect:none;fill:#251e1e;fill-opacity:1;stroke:none;stroke-width:0.15187515;stroke-linecap:butt;stroke-linejoin:miter;stroke-miterlimit:4;stroke-dasharray:none;stroke-dashoffset:0;stroke-opacity:1" />
    </g>
  </g>
  <g
     inkscape:groupmode="layer"
     id="layer2"
     inkscape:label="text">
    <g
       id="g964"
       transform="translate(118)">
      <g
         id="g974"
         transform="translate(0,26)">
        <path
           inkscape:connector-curvature="0"
           id="path4202"
           style="font-style:normal;font-variant:normal;font-weight:normal;font-stretch:normal;font-size:medium;line-height:125%;font-family:LilyUPC;-inkscape-font-specification:'LilyUPC, Normal';text-align:start;letter-spacing:0px;word-spacing:0px;writing-mode:lr-tb;text-anchor:start;fill:#000000;fill-opacity:1;stroke:none;stroke-width:1px;stroke-linecap:butt;stroke-linejoin:miter;stroke-opacity:1"
           d="m 17.055743,9.53862 q 0,0.0732 -0.542001,0.25268 -0.53833,0.17579 -1.31835,0.1941 -1.81641,0 -2.53785,-0.91919 -0.71777,-0.92285 -0.71777,-2.87476 0.0366,-1.05102 0.32227,-1.7688 0.2893,-0.71777 0.94482,-1.11694 0.65552,-0.39917 1.76514,-0.41382 0.66284,0 1.19018,0.10254 0.53101,0.0989 0.75806,0.16846 l 0.30029,1.18286 q -0.194089,-0.1355 -0.695799,-0.33692 -0.50171,-0.20141 -1.208489,-0.20141 -0.97413,0 -1.30738,0.68115 -0.32959,0.68115 -0.32959,1.70288 0,0.78735 0.0879,1.38794 0.0916,0.60059 0.39551,1.02905 0.30762,0.42847 0.89722,0.46509 0.69214,0 1.153559,-0.12817 0.46143,-0.13184 0.71045,-0.29663 0.22705,-0.14649 0.22705,-0.16114 0,0 -0.004,0 l -0.0915,1.05103 z" />
        <path
           inkscape:connector-curvature="0"
           id="path4204"
           style="font-style:normal;font-variant:normal;font-weight:normal;font-stretch:normal;font-size:medium;line-height:125%;font-family:LilyUPC;-inkscape-font-specification:'LilyUPC, Normal';text-align:start;letter-spacing:0px;word-spacing:0px;writing-mode:lr-tb;text-anchor:start;fill:#000000;fill-opacity:1;stroke:none;stroke-width:1px;stroke-linecap:butt;stroke-linejoin:miter;stroke-opacity:1"
           d="m 19.879222,4.90239 q 0.871591,0 1.391601,0.28198 0.523689,0.28198 0.75074,0.83496 0.227049,0.55298 0.227049,1.40259 0,1.32935 -0.56397,1.94824 -0.56396,0.61524 -1.83838,0.61524 -1.20849,-0.011 -1.78344,-0.6189 -0.57129,-0.60791 -0.57129,-1.92993 0.022,-2.53418 2.38769,-2.53418 z m -0.992429,2.51953 q 0.0256,0.64819 0.0732,0.98511 0.0513,0.33325 0.26734,0.60425 0.21606,0.27099 0.6665,0.27099 0.62988,0 0.79468,-0.47607 0.16479,-0.47974 0.16479,-1.35498 0,-0.8606 -0.16845,-1.35865 -0.1648,-0.5017 -0.79102,-0.5017 -0.64453,0.0183 -0.82763,0.5017 -0.17945,0.47974 -0.17945,1.32935 z" />
        <path
           inkscape:connector-curvature="0"
           id="path4206"
           style="font-style:normal;font-variant:normal;font-weight:normal;font-stretch:normal;font-size:medium;line-height:125%;font-family:LilyUPC;-inkscape-font-specification:'LilyUPC, Normal';text-align:start;letter-spacing:0px;word-spacing:0px;writing-mode:lr-tb;text-anchor:start;fill:#000000;fill-opacity:1;stroke:none;stroke-width:1px;stroke-linecap:butt;stroke-linejoin:miter;stroke-opacity:1"
           d="m 24.119952,8.51689 q 0,0.31128 0.22705,0.51636 0.23071,0.20508 0.56762,0.20508 0.556641,-0.0147 0.79468,-0.26368 0.238041,-0.24902 0.28565,-0.41381 V 4.93169 h 1.051021 V 9.9268 H 25.994952 V 9.46171 q -0.14283,0.12085 -0.6189,0.3003 -0.47607,0.17944 -1.314699,0.17944 -0.62256,-0.022 -0.98877,-0.3772 Q 22.710034,9.20903 22.710034,8.56084 V 4.93169 h 1.409919 z" />
        <path
           inkscape:connector-curvature="0"
           id="path4208"
           style="font-style:normal;font-variant:normal;font-weight:normal;font-stretch:normal;font-size:medium;line-height:125%;font-family:LilyUPC;-inkscape-font-specification:'LilyUPC, Normal';text-align:start;letter-spacing:0px;word-spacing:0px;writing-mode:lr-tb;text-anchor:start;fill:#000000;fill-opacity:1;stroke:none;stroke-width:1px;stroke-linecap:butt;stroke-linejoin:miter;stroke-opacity:1"
           d="M 32.055742,6.08525 V 9.9268 h -1.05103 V 6.26836 q 0,-0.62989 -0.95947,-0.62989 -0.46875,0.0549 -0.673829,0.29297 -0.20142,0.23438 -0.241701,0.38086 v 3.6145 h -1.40991 V 4.93169 h 1.40991 v 0.40649 q 0.0293,-0.0183 0.19776,-0.13184 0.17211,-0.11352 0.48339,-0.20874 0.31495,-0.0952 0.72876,-0.0952 0.78003,0 1.14624,0.35889 0.36988,0.35522 0.36988,0.82397 z" />
        <path
           inkscape:connector-curvature="0"
           id="path4210"
           style="font-style:normal;font-variant:normal;font-weight:normal;font-stretch:normal;font-size:medium;line-height:125%;font-family:LilyUPC;-inkscape-font-specification:'LilyUPC, Normal';text-align:start;letter-spacing:0px;word-spacing:0px;writing-mode:lr-tb;text-anchor:start;fill:#000000;fill-opacity:1;stroke:none;stroke-width:1px;stroke-linecap:butt;stroke-linejoin:miter;stroke-opacity:1"
           d="M 34.769362,5.56157 V 8.4583 q 0,0.43213 0.25635,0.61523 0.1831,0.14649 0.69214,0.14649 V 9.9268 q -0.0439,0.004 -0.157469,0.007 -0.11719,0.007 -0.26368,0.007 -0.96313,0 -1.409911,-0.32959 -0.52734,-0.35889 -0.52734,-1.21582 V 5.56092 h -0.94483 V 4.93104 h 0.94483 V 2.93519 h 1.40991 v 1.99585 h 0.94849 v 0.62988 h -0.94849 z" />
        <path
           inkscape:connector-curvature="0"
           id="path4212"
           style="font-style:normal;font-variant:normal;font-weight:normal;font-stretch:normal;font-size:medium;line-height:125%;font-family:LilyUPC;-inkscape-font-specification:'LilyUPC, Normal';text-align:start;letter-spacing:0px;word-spacing:0px;writing-mode:lr-tb;text-anchor:start;fill:#000000;fill-opacity:1;stroke:none;stroke-width:1px;stroke-linecap:butt;stroke-linejoin:miter;stroke-opacity:1"
           d="m 37.299883,7.67827 q 0.033,0.39551 0.270989,0.99975 0.23804,0.60425 0.86792,0.63355 0.76905,0 1.20484,-0.19409 0.43579,-0.19776 0.56762,-0.32959 l -0.2124,0.86792 q 0,0.0769 -0.43579,0.20507 -0.43579,0.12452 -1.10962,0.12452 -0.26733,0 -0.41748,-0.0147 -1.09131,-0.0806 -1.60034,-0.62622 -0.50537,-0.54932 -0.51636,-1.75782 0,-1.38427 0.57495,-2.0288 0.57862,-0.64454 1.6919,-0.65552 1.33667,0 1.81274,0.70312 0.4065,0.58228 0.4065,1.57471 0,0.18677 -0.011,0.3186 -0.011,0.12818 -0.0183,0.17945 h -3.07617 z m 1.021729,-2.146 q -1.021729,0.033 -1.021729,1.48316 h 2.175289 q 0,-1.48316 -1.15356,-1.48316 z" />
        <path
           inkscape:connector-curvature="0"
           id="path4214"
           style="font-style:normal;font-variant:normal;font-weight:normal;font-stretch:normal;font-size:medium;line-height:125%;font-family:LilyUPC;-inkscape-font-specification:'LilyUPC, Normal';text-align:start;letter-spacing:0px;word-spacing:0px;writing-mode:lr-tb;text-anchor:start;fill:#000000;fill-opacity:1;stroke:none;stroke-width:1px;stroke-linecap:butt;stroke-linejoin:miter;stroke-opacity:1"
           d="M 40.815502,9.9268 V 4.93169 h 1.409912 v 0.61523 q 0.007,-0.007 0.0842,-0.10254 0.0806,-0.0989 0.23804,-0.20508 0.157469,-0.1062 0.428469,-0.20141 0.289299,-0.12085 0.73608,-0.12085 0.34424,0 0.432131,0.0293 l 0.120849,0.72144 q -0.256349,-0.0623 -0.47974,-0.0623 -0.48706,0 -0.80932,0.18311 -0.36255,0.17944 -0.556641,0.49072 -0.194099,0.31128 -0.194099,0.57129 v 3.07617 h -1.409911 z" />
        <path
           inkscape:connector-curvature="0"
           id="path4216"
           style="font-style:normal;font-variant:normal;font-weight:normal;font-stretch:normal;font-size:medium;line-height:125%;font-family:LilyUPC;-inkscape-font-specification:'LilyUPC, Normal';text-align:start;letter-spacing:0px;word-spacing:0px;writing-mode:lr-tb;text-anchor:start;fill:#000000;fill-opacity:1;stroke:none;stroke-width:1px;stroke-linecap:butt;stroke-linejoin:miter;stroke-opacity:1"
           d="m 45.898513,6.14751 q 0,0.2893 0.512701,0.43579 0.51635,0.14282 1.058349,0.27099 0.541989,0.12451 0.9375,0.42481 0.399169,0.29663 0.417479,0.92285 0,0.91553 -0.49439,1.3147 -0.49072,0.39917 -1.42822,0.46875 Q 46.784742,10 46.543042,10 q -0.63721,0 -1.09863,-0.0989 -0.46143,-0.10254 -0.64087,-0.16846 l -0.19409,-0.87158 q 0.16479,0.11352 0.60425,0.28564 0.43945,0.17212 1.05835,0.17945 0.65918,0 0.89355,-0.19776 0.23804,-0.20141 0.24902,-0.62622 0,-0.49072 -0.33325,-0.64819 -0.32959,-0.15747 -1.073,-0.30396 -0.73974,-0.14648 -1.11694,-0.42114 -0.37353,-0.27466 -0.37353,-0.9668 0.0549,-1.20483 1.90429,-1.28906 0.0623,0 0.17212,-0.007 0.10986,-0.007 0.15747,-0.007 0.67017,0 1.08032,0.0952 0.41016,0.0952 0.55664,0.15747 l 0.23804,0.80932 q -0.14282,-0.0915 -0.5603,-0.22338 -0.41748,-0.1355 -1.13159,-0.1355 -0.4834,0 -0.7544,0.11352 -0.27099,0.10987 -0.28198,0.47242 z" />
      </g>
      <path
         d="m 5.6632165,77.7146 q 0,0.061 -0.45166,0.21057 -0.44861,0.14648 -1.09864,0.16174 -1.51367,0 -2.11487,-0.76599 -0.59814,-0.76904 -0.59814,-2.39563 0.0305,-0.87585 0.26855,-1.474 0.24109,-0.59814 0.78736,-0.93079 0.54626,-0.33264 1.47095,-0.34484 0.55236,0 0.99182,0.0854 0.4425,0.0824 0.63171,0.14038 l 0.25024,0.98571 q -0.16174,-0.11291 -0.57983,-0.28076 -0.41809,-0.16784 -1.00708,-0.16784 -0.81177,0 -1.08948,0.56762 -0.27465,0.56763 -0.27465,1.41907 0,0.65613 0.0732,1.15662 0.0763,0.50048 0.32959,0.85754 0.25634,0.35706 0.74768,0.38757 0.57678,0 0.9613,-0.10681 0.38452,-0.10986 0.59204,-0.24719 0.18921,-0.12207 0.18921,-0.13428 0,0 -0.003,0 l -0.0763,0.87586 z"
         style="font-style:normal;font-variant:normal;font-weight:normal;font-stretch:normal;font-size:medium;line-height:125%;font-family:LilyUPC;-inkscape-font-specification:'LilyUPC, Normal';text-align:start;letter-spacing:0px;word-spacing:0px;writing-mode:lr-tb;text-anchor:start;fill:#000000;fill-opacity:1;stroke:none;stroke-width:1px;stroke-linecap:butt;stroke-linejoin:miter;stroke-opacity:1"
         id="path4191"
         inkscape:connector-curvature="0" />
      <path
         d="m 6.1514965,78.03808 v -5.8258 h 1.15051 v 5.8258 z"
         style="font-style:normal;font-variant:normal;font-weight:normal;font-stretch:normal;font-size:medium;line-height:125%;font-family:LilyUPC;-inkscape-font-specification:'LilyUPC, Normal';text-align:start;letter-spacing:0px;word-spacing:0px;writing-mode:lr-tb;text-anchor:start;fill:#000000;fill-opacity:1;stroke:none;stroke-width:1px;stroke-linecap:butt;stroke-linejoin:miter;stroke-opacity:1"
         id="path4193"
         inkscape:connector-curvature="0" />
      <path
         d="m 7.9215165,78.03808 v -5.8258 h 1.16272 v 3.302 l 1.8890295,-1.6388 h 0.97352 l -1.77308,1.48621 1.998911,2.67639 h -1.275641 l -1.4984095,-1.98669 -0.31433,0.28686 v 1.69983 z"
         style="font-style:normal;font-variant:normal;font-weight:normal;font-stretch:normal;font-size:medium;line-height:125%;font-family:LilyUPC;-inkscape-font-specification:'LilyUPC, Normal';text-align:start;letter-spacing:0px;word-spacing:0px;writing-mode:lr-tb;text-anchor:start;fill:#000000;fill-opacity:1;stroke:none;stroke-width:1px;stroke-linecap:butt;stroke-linejoin:miter;stroke-opacity:1"
         id="path4195"
         inkscape:connector-curvature="0" />
      <path
         d="m 16.731936,72.21228 v 5.8258 h -1.324459 v -5.8258 z"
         style="font-style:normal;font-variant:normal;font-weight:normal;font-stretch:normal;font-size:medium;line-height:125%;font-family:LilyUPC;-inkscape-font-specification:'LilyUPC, Normal';text-align:start;letter-spacing:0px;word-spacing:0px;writing-mode:lr-tb;text-anchor:start;fill:#000000;fill-opacity:1;stroke:none;stroke-width:1px;stroke-linecap:butt;stroke-linejoin:miter;stroke-opacity:1"
         id="path4197"
         inkscape:connector-curvature="0" />
      <path
         d="m 20.946415,74.83679 v 3.20129 h -0.87586 v -3.0487 q 0,-0.52491 -0.799559,-0.52491 -0.39062,0.0458 -0.561521,0.24414 -0.16785,0.19532 -0.20142,0.31739 v 3.01208 h -1.174919 v -4.1626 h 1.174919 v 0.33875 q 0.0244,-0.0153 0.1648,-0.10986 0.14343,-0.0946 0.402831,-0.17395 0.26245,-0.0793 0.607299,-0.0793 0.650031,0 0.955201,0.29907 0.308229,0.29602 0.308229,0.68665 z"
         style="font-style:normal;font-variant:normal;font-weight:normal;font-stretch:normal;font-size:medium;line-height:125%;font-family:LilyUPC;-inkscape-font-specification:'LilyUPC, Normal';text-align:start;letter-spacing:0px;word-spacing:0px;writing-mode:lr-tb;text-anchor:start;fill:#000000;fill-opacity:1;stroke:none;stroke-width:1px;stroke-linecap:butt;stroke-linejoin:miter;stroke-opacity:1"
         id="path4199"
         inkscape:connector-curvature="0" />
      <path
         d="m 44.947842,71.98481 q 0.912481,0 1.470951,0.32959 0.55847,0.32654 0.79956,0.97046 0.24109,0.64392 0.24109,1.62659 0,1.01013 -0.265501,1.67236 -0.26551,0.65918 -0.82398,0.97962 -0.555419,0.32043 -1.43432,0.32043 -0.84534,0 -1.38855,-0.31433 -0.54322,-0.31433 -0.80262,-0.97351 -0.2594,-0.65918 -0.2594,-1.68457 0.009,-1.46485 0.613411,-2.19116 0.607301,-0.72632 1.849359,-0.73548 z m -1.089469,2.92664 q 0.0336,1.02234 0.21667,1.58691 0.18311,0.56458 0.860599,0.57373 0.500481,0 0.74462,-0.30212 0.2472,-0.30518 0.31128,-0.75073 0.0671,-0.44861 0.0671,-1.08338 0,-0.65002 -0.058,-1.07727 -0.0549,-0.42724 -0.29602,-0.74157 -0.24109,-0.31739 -0.732419,-0.32044 -0.698861,0 -0.90638,0.57068 -0.207509,0.57068 -0.207509,1.54419 z"
         style="font-style:normal;font-variant:normal;font-weight:normal;font-stretch:normal;font-size:medium;line-height:125%;font-family:LilyUPC;-inkscape-font-specification:'LilyUPC, Normal';text-align:start;letter-spacing:0px;word-spacing:0px;writing-mode:lr-tb;text-anchor:start;fill:#000000;fill-opacity:1;stroke:none;stroke-width:1px;stroke-linecap:butt;stroke-linejoin:miter;stroke-opacity:1"
         id="path4184"
         inkscape:connector-curvature="0" />
      <path
         d="m 49.092132,76.66011 q 0,0.2594 0.18921,0.43029 0.19226,0.1709 0.47302,0.1709 0.46387,-0.0122 0.66223,-0.21972 0.19837,-0.20752 0.23804,-0.34485 v -3.0243 h 0.87585 v 4.1626 h -0.87585 v -0.38757 q -0.11902,0.10071 -0.51575,0.25024 -0.396729,0.14954 -1.095579,0.14954 -0.518799,-0.0183 -0.823971,-0.31433 -0.302129,-0.29602 -0.302129,-0.83618 v -3.0243 h 1.174931 z"
         style="font-style:normal;font-variant:normal;font-weight:normal;font-stretch:normal;font-size:medium;line-height:125%;font-family:LilyUPC;-inkscape-font-specification:'LilyUPC, Normal';text-align:start;letter-spacing:0px;word-spacing:0px;writing-mode:lr-tb;text-anchor:start;fill:#000000;fill-opacity:1;stroke:none;stroke-width:1px;stroke-linecap:butt;stroke-linejoin:miter;stroke-opacity:1"
         id="path4186"
         inkscape:connector-curvature="0" />
      <path
         d="m 53.840662,74.19734 v 2.41394 q 0,0.36011 0.213631,0.51269 0.152591,0.12207 0.57678,0.12207 v 0.58899 q -0.0366,0.003 -0.131231,0.006 -0.0976,0.006 -0.21972,0.006 -0.80261,0 -1.17493,-0.27466 -0.43945,-0.29907 -0.43945,-1.01318 v -2.36206 h -0.78736 v -0.52491 h 0.78736 v -1.6632 h 1.17492 v 1.6632 h 0.79041 v 0.52491 h -0.79041 z"
         style="font-style:normal;font-variant:normal;font-weight:normal;font-stretch:normal;font-size:medium;line-height:125%;font-family:LilyUPC;-inkscape-font-specification:'LilyUPC, Normal';text-align:start;letter-spacing:0px;word-spacing:0px;writing-mode:lr-tb;text-anchor:start;fill:#000000;fill-opacity:1;stroke:none;stroke-width:1px;stroke-linecap:butt;stroke-linejoin:miter;stroke-opacity:1"
         id="path4188"
         inkscape:connector-curvature="0" />
      <path
         d="m 4.6011965,116.45019 1.66321,2.58789 h -1.53808 l -1.78833,-3.14941 h 0.71411 q 0.0275,0 0.13733,0.006 0.10986,0.006 0.18615,0.006 1.04676,0 1.07422,-0.91248 0,-0.48218 -0.24719,-0.76599 -0.24719,-0.28381 -0.65308,-0.28381 h -1.18713 v 5.09948 h -1.32446 v -5.8258 h 2.67639 q 1.95007,0 1.95007,1.68762 -0.0275,0.6897 -0.39673,1.03149 -0.36926,0.3418 -0.81787,0.44556 -0.34179,0.0824 -0.42419,0.0824 -0.0244,0 -0.0244,-0.009 z"
         style="font-style:normal;font-variant:normal;font-weight:normal;font-stretch:normal;font-size:medium;line-height:125%;font-family:LilyUPC;-inkscape-font-specification:'LilyUPC, Normal';text-align:start;letter-spacing:0px;word-spacing:0px;writing-mode:lr-tb;text-anchor:start;fill:#000000;fill-opacity:1;stroke:none;stroke-width:1px;stroke-linecap:butt;stroke-linejoin:miter;stroke-opacity:1"
         id="path4173"
         inkscape:connector-curvature="0" />
      <path
         d="m 7.6651665,117.1643 q 0.0275,0.32959 0.22583,0.83313 0.19836,0.50354 0.72327,0.52796 0.64086,0 1.00402,-0.16175 0.36316,-0.16479 0.4730295,-0.27465 l -0.1770095,0.72326 q 0,0.0641 -0.36315,0.1709 -0.36316,0.10376 -0.92469,0.10376 -0.22278,0 -0.3479,-0.0122 -0.90942,-0.0671 -1.33362,-0.52185 -0.42114,-0.45776 -0.43029,-1.46484 0,-1.15357 0.47912,-1.69067 0.48218,-0.53711 1.40991,-0.54627 1.1139,0 1.51062,0.58594 0.3387495,0.48523 0.3387495,1.31225 0,0.15564 -0.009,0.26551 -0.009,0.10681 -0.0153,0.14953 H 7.6652765 Z m 0.85144,-1.78833 q -0.85144,0.0275 -0.85144,1.23597 h 1.81274 q 0,-1.23597 -0.9613,-1.23597 z"
         style="font-style:normal;font-variant:normal;font-weight:normal;font-stretch:normal;font-size:medium;line-height:125%;font-family:LilyUPC;-inkscape-font-specification:'LilyUPC, Normal';text-align:start;letter-spacing:0px;word-spacing:0px;writing-mode:lr-tb;text-anchor:start;fill:#000000;fill-opacity:1;stroke:none;stroke-width:1px;stroke-linecap:butt;stroke-linejoin:miter;stroke-opacity:1"
         id="path4175"
         inkscape:connector-curvature="0" />
      <path
         d="m 11.632447,115.88867 q 0,0.24109 0.42725,0.36316 0.4303,0.11902 0.88196,0.22583 0.45166,0.10376 0.78125,0.354 0.33264,0.24719 0.3479,0.76904 0,0.76294 -0.41199,1.09559 -0.40893,0.33264 -1.19018,0.39062 -0.0977,0.0122 -0.29908,0.0122 -0.531,0 -0.915521,-0.0824 -0.38453,-0.0855 -0.53406,-0.14038 l -0.16174,-0.72632 q 0.13732,0.0946 0.50354,0.23804 0.36621,0.14343 0.881949,0.14953 0.549321,0 0.744631,-0.16479 0.19837,-0.16785 0.207521,-0.52185 0,-0.40894 -0.277711,-0.54016 -0.274661,-0.13123 -0.89416,-0.2533 -0.61646,-0.12207 -0.93079,-0.35095 -0.31128,-0.22888 -0.31128,-0.80566 0.0458,-1.00403 1.586921,-1.07422 0.0519,0 0.14343,-0.006 0.0915,-0.006 0.13122,-0.006 0.55848,0 0.90027,0.0793 0.3418,0.0793 0.46387,0.13122 l 0.19836,0.67444 q -0.11901,-0.0763 -0.46692,-0.18616 -0.3479,-0.11291 -0.94299,-0.11291 -0.40283,0 -0.62866,0.0946 -0.22583,0.0915 -0.23499,0.39368 z"
         style="font-style:normal;font-variant:normal;font-weight:normal;font-stretch:normal;font-size:medium;line-height:125%;font-family:LilyUPC;-inkscape-font-specification:'LilyUPC, Normal';text-align:start;letter-spacing:0px;word-spacing:0px;writing-mode:lr-tb;text-anchor:start;fill:#000000;fill-opacity:1;stroke:none;stroke-width:1px;stroke-linecap:butt;stroke-linejoin:miter;stroke-opacity:1"
         id="path4177"
         inkscape:connector-curvature="0" />
      <path
         d="m 15.526497,117.1643 q 0.0275,0.32959 0.22583,0.83313 0.19836,0.50354 0.723259,0.52796 0.640869,0 1.00403,-0.16175 0.36316,-0.16479 0.473019,-0.27465 l -0.177,0.72326 q 0,0.0641 -0.36316,0.1709 -0.36316,0.10376 -0.92468,0.10376 -0.22278,0 -0.347899,-0.0122 -0.909421,-0.0671 -1.33362,-0.52185 -0.421139,-0.45776 -0.4303,-1.46484 0,-1.15357 0.479129,-1.69067 0.48218,-0.53711 1.40991,-0.54627 1.113891,0 1.51062,0.58594 0.33875,0.48523 0.33875,1.31225 0,0.15564 -0.009,0.26551 -0.009,0.10681 -0.0153,0.14953 h -2.563469 z m 0.851438,-1.78833 q -0.85144,0.0275 -0.85144,1.23597 h 1.81274 q 0,-1.23597 -0.9613,-1.23597 z"
         style="font-style:normal;font-variant:normal;font-weight:normal;font-stretch:normal;font-size:medium;line-height:125%;font-family:LilyUPC;-inkscape-font-specification:'LilyUPC, Normal';text-align:start;letter-spacing:0px;word-spacing:0px;writing-mode:lr-tb;text-anchor:start;fill:#000000;fill-opacity:1;stroke:none;stroke-width:1px;stroke-linecap:butt;stroke-linejoin:miter;stroke-opacity:1"
         id="path4179"
         inkscape:connector-curvature="0" />
      <path
         d="m 20.204836,115.40039 v 2.41394 q 0,0.36011 0.213619,0.51269 0.15259,0.12207 0.57679,0.12207 v 0.58899 q -0.0366,0.003 -0.13123,0.006 -0.0976,0.006 -0.219729,0.006 -0.802611,0 -1.17492,-0.27466 -0.43945,-0.29907 -0.43945,-1.01318 v -2.36206 h -0.78736 v -0.52491 h 0.78736 v -1.6632 h 1.17492 v 1.6632 h 0.79041 v 0.52491 h -0.79041 z"
         style="font-style:normal;font-variant:normal;font-weight:normal;font-stretch:normal;font-size:medium;line-height:125%;font-family:LilyUPC;-inkscape-font-specification:'LilyUPC, Normal';text-align:start;letter-spacing:0px;word-spacing:0px;writing-mode:lr-tb;text-anchor:start;fill:#000000;fill-opacity:1;stroke:none;stroke-width:1px;stroke-linecap:butt;stroke-linejoin:miter;stroke-opacity:1"
         id="path4181"
         inkscape:connector-curvature="0" />
    </g>
    <g
       transform="translate(-314.18111,-486.15095)"
       id="g1835">
      <path
         inkscape:connector-curvature="0"
         d="m 25,402.55 a 3.68,3.68 0 0 1 -1.33,-0.63 0.84,0.84 0 0 1 -0.26,-0.28 0.88,0.88 0 0 1 0.11,-0.91 0.54,0.54 0 0 1 0.43,-0.23 0.82,0.82 0 0 1 0.26,0 1.62,1.62 0 0 1 0.31,0.15 4,4 0 0 0 1,0.47 4.25,4.25 0 0 0 1.16,0.15 2.29,2.29 0 0 0 1.21,-0.26 0.84,0.84 0 0 0 0.42,-0.76 0.68,0.68 0 0 0 -0.39,-0.6 5,5 0 0 0 -1.39,-0.43 7.66,7.66 0 0 1 -1.78,-0.55 2.31,2.31 0 0 1 -1,-0.8 2.12,2.12 0 0 1 -0.31,-1.16 2.26,2.26 0 0 1 0.44,-1.36 2.9,2.9 0 0 1 1.21,-0.95 4.27,4.27 0 0 1 1.75,-0.34 4.46,4.46 0 0 1 2.81,0.85 1,1 0 0 1 0.26,0.29 0.79,0.79 0 0 1 0.08,0.37 0.81,0.81 0 0 1 -0.19,0.53 0.54,0.54 0 0 1 -0.43,0.23 0.82,0.82 0 0 1 -0.25,0 1.69,1.69 0 0 1 -0.32,-0.16 5.08,5.08 0 0 0 -0.91,-0.47 3,3 0 0 0 -1.05,-0.16 2,2 0 0 0 -1.15,0.28 0.88,0.88 0 0 0 -0.42,0.77 0.7,0.7 0 0 0 0.16,0.47 1.35,1.35 0 0 0 0.54,0.33 8.31,8.31 0 0 0 1.07,0.3 6,6 0 0 1 2.35,0.92 1.87,1.87 0 0 1 0.71,1.55 2.25,2.25 0 0 1 -0.43,1.36 2.75,2.75 0 0 1 -1.2,0.91 4.62,4.62 0 0 1 -1.79,0.32 6.7,6.7 0 0 1 -1.68,-0.2 z"
         transform="translate(319.8,124.29)"
         style="fill:#fff7d4"
         id="path1825" />
      <path
         inkscape:connector-curvature="0"
         d="m 35.31,401.59 a 0.67,0.67 0 0 1 -0.11,1 1.28,1.28 0 0 1 -0.79,0.14 h -0.34 a 2,2 0 0 1 -2.1,-2.2 v -2.38 H 31.5 a 0.9,0.9 0 0 1 -0.6,-0.17 0.62,0.62 0 0 1 -0.2,-0.5 0.63,0.63 0 0 1 0.2,-0.51 0.9,0.9 0 0 1 0.6,-0.17 H 32 v -0.94 a 0.81,0.81 0 0 1 0.25,-0.62 0.94,0.94 0 0 1 0.67,-0.23 0.92,0.92 0 0 1 0.66,0.23 0.82,0.82 0 0 1 0.24,0.62 v 0.94 h 0.84 q 0.82,0 0.82,0.68 a 0.62,0.62 0 0 1 -0.2,0.5 0.92,0.92 0 0 1 -0.61,0.17 h -0.84 v 2.51 a 0.79,0.79 0 0 0 0.17,0.55 0.7,0.7 0 0 0 0.49,0.21 h 0.34 a 0.85,0.85 0 0 1 0.48,0.17 z"
         transform="translate(319.8,124.29)"
         style="fill:#fff7d4"
         id="path1827" />
      <path
         inkscape:connector-curvature="0"
         d="m 41.51,401.1 a 0.77,0.77 0 0 1 0.15,0.49 0.65,0.65 0 0 1 -0.12,0.38 1,1 0 0 1 -0.34,0.29 4.29,4.29 0 0 1 -0.95,0.35 4.05,4.05 0 0 1 -1,0.14 3.57,3.57 0 0 1 -1.67,-0.37 2.6,2.6 0 0 1 -1.1,-1.06 3.29,3.29 0 0 1 -0.38,-1.63 3.33,3.33 0 0 1 0.37,-1.6 2.73,2.73 0 0 1 1,-1.09 2.89,2.89 0 0 1 1.5,-0.39 2.75,2.75 0 0 1 1.41,0.35 2.42,2.42 0 0 1 0.94,1 3.31,3.31 0 0 1 0.34,1.53 0.58,0.58 0 0 1 -0.13,0.4 0.45,0.45 0 0 1 -0.35,0.14 h -3.32 a 1.6,1.6 0 0 0 0.43,1 1.42,1.42 0 0 0 1,0.32 2.14,2.14 0 0 0 0.62,-0.08 6,6 0 0 0 0.61,-0.23 l 0.32,-0.13 a 0.87,0.87 0 0 1 0.28,-0.05 0.47,0.47 0 0 1 0.39,0.24 z m -3.28,-2.9 a 1.56,1.56 0 0 0 -0.37,1 h 2.32 a 1.57,1.57 0 0 0 -0.32,-1 1,1 0 0 0 -0.8,-0.32 1.09,1.09 0 0 0 -0.83,0.32 z"
         transform="translate(319.8,124.29)"
         style="fill:#fff7d4"
         id="path1829" />
      <path
         inkscape:connector-curvature="0"
         d="m 48,397 a 2.6,2.6 0 0 1 0.92,1.09 3.76,3.76 0 0 1 0.33,1.61 3.68,3.68 0 0 1 -0.33,1.6 2.42,2.42 0 0 1 -2.27,1.43 2.38,2.38 0 0 1 -1.09,-0.25 1.8,1.8 0 0 1 -0.75,-0.69 v 2.27 a 0.74,0.74 0 0 1 -0.24,0.58 0.92,0.92 0 0 1 -0.64,0.22 1,1 0 0 1 -0.68,-0.23 0.76,0.76 0 0 1 -0.26,-0.6 v -6.53 a 0.81,0.81 0 0 1 0.25,-0.62 0.91,0.91 0 0 1 0.65,-0.23 0.89,0.89 0 0 1 0.65,0.23 0.82,0.82 0 0 1 0.24,0.62 v 0.1 a 1.83,1.83 0 0 1 0.76,-0.71 2.34,2.34 0 0 1 1.1,-0.26 A 2.41,2.41 0 0 1 48,397 Z m -0.87,4 a 1.9,1.9 0 0 0 0.35,-1.23 2,2 0 0 0 -0.35,-1.27 1.17,1.17 0 0 0 -1,-0.45 1.18,1.18 0 0 0 -1,0.44 2,2 0 0 0 -0.35,1.25 2,2 0 0 0 0.35,1.24 1.18,1.18 0 0 0 1,0.44 1.2,1.2 0 0 0 1,-0.42 z"
         transform="translate(319.8,124.29)"
         style="fill:#fff7d4"
         id="path1831" />
      <path
         inkscape:connector-curvature="0"
         d="m 51.59,402.64 a 2.87,2.87 0 0 1 -0.95,-0.38 0.74,0.74 0 0 1 -0.28,-0.29 0.86,0.86 0 0 1 -0.1,-0.41 0.69,0.69 0 0 1 0.16,-0.46 0.48,0.48 0 0 1 0.38,-0.19 1,1 0 0 1 0.31,0.05 l 0.32,0.13 a 4.34,4.34 0 0 0 0.66,0.25 3,3 0 0 0 0.8,0.09 1.34,1.34 0 0 0 0.65,-0.13 0.4,0.4 0 0 0 0.23,-0.36 0.36,0.36 0 0 0 -0.1,-0.27 0.93,0.93 0 0 0 -0.38,-0.19 q -0.28,-0.08 -0.88,-0.2 a 3.31,3.31 0 0 1 -1.54,-0.61 1.43,1.43 0 0 1 -0.47,-1.14 1.56,1.56 0 0 1 0.33,-1 2.2,2.2 0 0 1 0.91,-0.68 3.27,3.27 0 0 1 1.3,-0.25 3.88,3.88 0 0 1 1,0.13 3.22,3.22 0 0 1 0.88,0.37 0.8,0.8 0 0 1 0.22,1.15 0.48,0.48 0 0 1 -0.38,0.19 1.41,1.41 0 0 1 -0.66,-0.22 3.52,3.52 0 0 0 -0.55,-0.23 1.94,1.94 0 0 0 -0.58,-0.08 1.08,1.08 0 0 0 -0.59,0.14 0.43,0.43 0 0 0 -0.22,0.38 0.42,0.42 0 0 0 0.25,0.38 4,4 0 0 0 1,0.26 5.24,5.24 0 0 1 1.26,0.38 1.52,1.52 0 0 1 0.66,0.56 1.62,1.62 0 0 1 0.2,0.85 1.58,1.58 0 0 1 -0.7,1.36 3.15,3.15 0 0 1 -1.88,0.5 5.94,5.94 0 0 1 -1.26,-0.08 z"
         transform="translate(319.8,124.29)"
         style="fill:#fff7d4"
         id="path1833" />
    </g>
    <g
       transform="translate(-245.22111,-498.0987)"
       id="g2105">
      <path
         inkscape:connector-curvature="0"
         d="m 22.09,433 a 2.08,2.08 0 0 1 -0.75,-0.36 0.47,0.47 0 0 1 -0.15,-0.16 0.46,0.46 0 0 1 0,-0.21 0.46,0.46 0 0 1 0.11,-0.3 0.31,0.31 0 0 1 0.24,-0.13 h 0.15 l 0.17,0.08 a 2.31,2.31 0 0 0 0.59,0.27 2.41,2.41 0 0 0 0.66,0.08 1.3,1.3 0 0 0 0.69,-0.15 0.48,0.48 0 0 0 0.24,-0.43 0.38,0.38 0 0 0 -0.22,-0.34 2.85,2.85 0 0 0 -0.79,-0.25 4.36,4.36 0 0 1 -1,-0.31 1.3,1.3 0 0 1 -0.55,-0.46 1.2,1.2 0 0 1 -0.17,-0.66 1.29,1.29 0 0 1 0.25,-0.77 1.65,1.65 0 0 1 0.69,-0.54 2.43,2.43 0 0 1 1,-0.19 2.53,2.53 0 0 1 1.59,0.48 0.54,0.54 0 0 1 0.15,0.17 0.45,0.45 0 0 1 0,0.21 0.46,0.46 0 0 1 -0.11,0.3 0.31,0.31 0 0 1 -0.24,0.13 H 24.5 l -0.18,-0.09 a 2.85,2.85 0 0 0 -0.51,-0.27 1.71,1.71 0 0 0 -0.59,-0.09 1.16,1.16 0 0 0 -0.65,0.16 0.5,0.5 0 0 0 -0.24,0.44 0.39,0.39 0 0 0 0.09,0.27 0.76,0.76 0 0 0 0.31,0.19 4.57,4.57 0 0 0 0.61,0.17 3.39,3.39 0 0 1 1.33,0.52 1.06,1.06 0 0 1 0.4,0.88 1.28,1.28 0 0 1 -0.24,0.77 1.55,1.55 0 0 1 -0.68,0.52 2.6,2.6 0 0 1 -1,0.18 3.83,3.83 0 0 1 -1.06,-0.11 z"
         transform="translate(319.8,124.29)"
         style="fill:#fff7d4"
         id="path2095" />
      <path
         inkscape:connector-curvature="0"
         d="m 27.62,433 a 0.51,0.51 0 0 1 -0.15,-0.38 v -3.44 h -1.1 c -0.34,0 -0.5,-0.14 -0.5,-0.44 0,-0.3 0.17,-0.43 0.5,-0.43 h 3.26 q 0.5,0 0.5,0.43 c 0,0.29 -0.17,0.44 -0.5,0.44 h -1.1 v 3.44 a 0.51,0.51 0 0 1 -0.14,0.38 0.59,0.59 0 0 1 -0.77,0 z"
         transform="translate(319.8,124.29)"
         style="fill:#fff7d4"
         id="path2097" />
      <path
         inkscape:connector-curvature="0"
         d="m 31.4,433 a 0.5,0.5 0 0 1 -0.13,-0.37 v -3.8 a 0.45,0.45 0 0 1 0.5,-0.5 h 2.41 q 0.5,0 0.5,0.41 c 0,0.28 -0.17,0.42 -0.5,0.42 h -1.87 v 1.12 H 34 q 0.5,0 0.5,0.42 c 0,0.27 -0.17,0.41 -0.5,0.41 h -1.69 v 1.2 h 1.87 q 0.5,0 0.5,0.42 c 0,0.27 -0.17,0.41 -0.5,0.41 H 31.77 A 0.49,0.49 0 0 1 31.4,433 Z"
         transform="translate(319.8,124.29)"
         style="fill:#fff7d4"
         id="path2099" />
      <path
         inkscape:connector-curvature="0"
         d="m 36.13,433 a 0.52,0.52 0 0 1 -0.14,-0.39 v -3.81 a 0.45,0.45 0 0 1 0.5,-0.5 h 1.71 a 1.75,1.75 0 0 1 1.22,0.39 1.61,1.61 0 0 1 0,2.2 1.75,1.75 0 0 1 -1.22,0.39 H 37 v 1.31 a 0.55,0.55 0 0 1 -0.92,0.39 z m 1.92,-2.5 q 0.8,0 0.8,-0.69 0,-0.69 -0.8,-0.69 H 37 v 1.38 z"
         transform="translate(319.8,124.29)"
         style="fill:#fff7d4"
         id="path2101" />
      <path
         inkscape:connector-curvature="0"
         d="m 41.93,433 a 2.09,2.09 0 0 1 -0.75,-0.36 0.48,0.48 0 0 1 -0.15,-0.16 0.45,0.45 0 0 1 0,-0.21 0.46,0.46 0 0 1 0.11,-0.3 0.31,0.31 0 0 1 0.24,-0.13 h 0.15 l 0.17,0.08 a 2.28,2.28 0 0 0 0.59,0.27 2.41,2.41 0 0 0 0.66,0.08 1.3,1.3 0 0 0 0.69,-0.15 0.48,0.48 0 0 0 0.24,-0.43 0.39,0.39 0 0 0 -0.22,-0.34 2.85,2.85 0 0 0 -0.79,-0.25 4.38,4.38 0 0 1 -1,-0.31 1.31,1.31 0 0 1 -0.55,-0.46 1.2,1.2 0 0 1 -0.17,-0.66 1.28,1.28 0 0 1 0.25,-0.77 1.65,1.65 0 0 1 0.69,-0.54 2.43,2.43 0 0 1 1,-0.19 2.53,2.53 0 0 1 1.59,0.48 0.55,0.55 0 0 1 0.15,0.17 0.44,0.44 0 0 1 0,0.21 0.46,0.46 0 0 1 -0.11,0.3 0.31,0.31 0 0 1 -0.24,0.13 h -0.14 l -0.18,-0.09 a 2.81,2.81 0 0 0 -0.51,-0.27 1.72,1.72 0 0 0 -0.6,-0.09 1.16,1.16 0 0 0 -0.65,0.16 0.5,0.5 0 0 0 -0.24,0.44 0.4,0.4 0 0 0 0.09,0.27 0.77,0.77 0 0 0 0.31,0.19 4.53,4.53 0 0 0 0.61,0.17 3.38,3.38 0 0 1 1.33,0.52 1.06,1.06 0 0 1 0.4,0.88 1.27,1.27 0 0 1 -0.24,0.77 A 1.55,1.55 0 0 1 44,433 2.61,2.61 0 0 1 43,433.18 3.84,3.84 0 0 1 41.93,433 Z"
         transform="translate(319.8,124.29)"
         style="fill:#fff7d4"
         id="path2103" />
    </g>
    <g
       id="g3743"
       transform="translate(-126.15609,71.000498)">
      <g
         id="g2081"
         transform="translate(-181.01864,-499.27746)">
        <path
           id="path2075"
           style="fill:#fff7d4"
           transform="translate(319.8,124.29)"
           d="m 53.95,420.88 a 2,2 0 0 1 -0.81,-0.86 3.11,3.11 0 0 1 0,-2.6 2,2 0 0 1 0.81,-0.85 2.73,2.73 0 0 1 2.48,0 2,2 0 0 1 0.81,0.85 3.12,3.12 0 0 1 0,2.6 2,2 0 0 1 -0.81,0.86 2.7,2.7 0 0 1 -2.48,0 z m 2.18,-0.94 a 2.33,2.33 0 0 0 0,-2.43 1.27,1.27 0 0 0 -1.89,0 2.35,2.35 0 0 0 0,2.43 1.26,1.26 0 0 0 1.88,0 z"
           inkscape:connector-curvature="0" />
        <path
           id="path2077"
           style="fill:#fff7d4"
           transform="translate(319.8,124.29)"
           d="m 59.52,420.66 a 2,2 0 0 1 -0.53,-1.52 v -2.33 a 0.49,0.49 0 0 1 0.52,-0.52 0.51,0.51 0 0 1 0.38,0.14 0.52,0.52 0 0 1 0.14,0.38 v 2.37 a 1.28,1.28 0 0 0 0.26,0.87 1.11,1.11 0 0 0 1.52,0 1.27,1.27 0 0 0 0.27,-0.87 v -2.37 a 0.52,0.52 0 0 1 0.14,-0.38 0.51,0.51 0 0 1 0.38,-0.14 0.49,0.49 0 0 1 0.52,0.52 v 2.33 a 2,2 0 0 1 -0.53,1.52 2.52,2.52 0 0 1 -3.07,0 z"
           inkscape:connector-curvature="0" />
        <path
           id="path2079"
           style="fill:#fff7d4"
           transform="translate(319.8,124.29)"
           d="m 66,421 a 0.51,0.51 0 0 1 -0.15,-0.38 v -3.44 h -1.1 c -0.33,0 -0.5,-0.14 -0.5,-0.44 0,-0.3 0.17,-0.43 0.5,-0.43 H 68 q 0.5,0 0.5,0.43 c 0,0.29 -0.17,0.44 -0.5,0.44 h -1.1 v 3.44 a 0.51,0.51 0 0 1 -0.14,0.38 0.59,0.59 0 0 1 -0.77,0 z"
           inkscape:connector-curvature="0" />
      </g>
      <g
         id="g2093"
         transform="translate(-181.01864,-499.27746)">
        <path
           id="path2083"
           style="fill:#fff7d4"
           transform="translate(319.8,124.29)"
           d="M 20.82,420.9 A 2,2 0 0 1 20,420 a 3.12,3.12 0 0 1 0,-2.61 2,2 0 0 1 0.82,-0.85 2.68,2.68 0 0 1 2.77,0.19 0.52,0.52 0 0 1 0.14,0.16 0.46,0.46 0 0 1 0,0.2 0.47,0.47 0 0 1 -0.1,0.3 0.3,0.3 0 0 1 -0.24,0.13 h -0.17 l -0.16,-0.08 a 2.26,2.26 0 0 0 -0.5,-0.25 1.53,1.53 0 0 0 -0.5,-0.08 1.19,1.19 0 0 0 -1,0.41 1.88,1.88 0 0 0 -0.33,1.21 q 0,1.62 1.31,1.62 a 1.44,1.44 0 0 0 0.48,-0.08 3,3 0 0 0 0.52,-0.25 l 0.17,-0.08 h 0.16 a 0.3,0.3 0 0 1 0.24,0.13 0.47,0.47 0 0 1 0.1,0.3 0.44,0.44 0 0 1 0,0.21 0.5,0.5 0 0 1 -0.14,0.16 2.68,2.68 0 0 1 -2.77,0.19 z"
           inkscape:connector-curvature="0" />
        <path
           id="path2085"
           style="fill:#fff7d4"
           transform="translate(319.8,124.29)"
           d="m 25.28,421 a 0.5,0.5 0 0 1 -0.13,-0.37 v -3.81 a 0.52,0.52 0 0 1 0.14,-0.38 0.6,0.6 0 0 1 0.78,0 0.52,0.52 0 0 1 0.14,0.38 v 3.44 h 1.74 q 0.5,0 0.5,0.44 0,0.44 -0.5,0.43 H 25.64 A 0.49,0.49 0 0 1 25.28,421 Z"
           inkscape:connector-curvature="0" />
        <path
           id="path2087"
           style="fill:#fff7d4"
           transform="translate(319.8,124.29)"
           d="m 33.69,420.68 a 0.45,0.45 0 0 1 -0.15,0.33 0.47,0.47 0 0 1 -0.34,0.14 0.53,0.53 0 0 1 -0.39,-0.18 l -2.11,-2.06 v 1.73 a 0.53,0.53 0 1 1 -1.06,0 v -3.81 a 0.52,0.52 0 0 1 0.14,-0.38 0.6,0.6 0 0 1 0.78,0 0.52,0.52 0 0 1 0.14,0.38 v 1.63 l 2.05,-2 a 0.47,0.47 0 0 1 0.34,-0.15 0.46,0.46 0 0 1 0.33,0.14 0.44,0.44 0 0 1 0.14,0.33 0.48,0.48 0 0 1 -0.16,0.35 l -1.62,1.52 1.73,1.69 a 0.48,0.48 0 0 1 0.18,0.34 z"
           inkscape:connector-curvature="0" />
        <path
           id="path2089"
           style="fill:#fff7d4"
           transform="translate(319.8,124.29)"
           d="m 37.67,421 a 0.52,0.52 0 0 1 -0.14,-0.39 v -3.81 a 0.52,0.52 0 0 1 0.14,-0.38 0.6,0.6 0 0 1 0.78,0 0.52,0.52 0 0 1 0.14,0.38 v 3.81 A 0.55,0.55 0 0 1 37.67,421 Z"
           inkscape:connector-curvature="0" />
        <path
           id="path2091"
           style="fill:#fff7d4"
           transform="translate(319.8,124.29)"
           d="m 44.24,416.45 a 0.52,0.52 0 0 1 0.14,0.38 v 3.81 a 0.54,0.54 0 0 1 -0.14,0.38 0.48,0.48 0 0 1 -0.36,0.15 0.49,0.49 0 0 1 -0.39,-0.18 l -2.28,-2.92 v 2.56 a 0.55,0.55 0 0 1 -0.13,0.38 0.46,0.46 0 0 1 -0.36,0.15 0.47,0.47 0 0 1 -0.36,-0.15 0.54,0.54 0 0 1 -0.14,-0.38 v -3.81 a 0.52,0.52 0 0 1 0.14,-0.38 0.48,0.48 0 0 1 0.36,-0.15 0.46,0.46 0 0 1 0.39,0.18 l 2.28,2.9 v -2.55 a 0.53,0.53 0 0 1 0.14,-0.38 0.46,0.46 0 0 1 0.35,-0.15 0.48,0.48 0 0 1 0.36,0.16 z"
           inkscape:connector-curvature="0" />
      </g>
      <g
         id="g920"
         transform="translate(-181.01864,-499.27746)">
        <path
           style="fill:#fff8d5"
           transform="translate(319.8,124.29)"
           d="m 0.19,420.78 a 0.32,0.32 0 0 1 -0.12,0.26 0.45,0.45 0 0 1 -0.29,0.1 0.45,0.45 0 0 1 -0.2,0 0.44,0.44 0 0 1 -0.16,-0.15 l -0.91,-1.36 a 0.88,0.88 0 0 0 -0.28,-0.3 0.81,0.81 0 0 0 -0.4,-0.09 h -0.66 v 1.51 A 0.44,0.44 0 0 1 -3,421 0.41,0.41 0 0 1 -3.31,421.12 0.42,0.42 0 0 1 -3.63,421 0.43,0.43 0 0 1 -3.75,420.68 v -3.95 a 0.41,0.41 0 0 1 0.11,-0.3 0.42,0.42 0 0 1 0.31,-0.11 h 1.68 a 1.84,1.84 0 0 1 1.23,0.36 1.29,1.29 0 0 1 0.42,1 1.32,1.32 0 0 1 -0.32,0.91 1.49,1.49 0 0 1 -0.89,0.45 0.81,0.81 0 0 1 0.34,0.17 1.49,1.49 0 0 1 0.29,0.34 l 0.62,0.93 a 0.43,0.43 0 0 1 0.15,0.3 z M -1,418.34 a 0.69,0.69 0 0 0 0.23,-0.57 0.68,0.68 0 0 0 -0.23,-0.57 1.18,1.18 0 0 0 -0.72,-0.18 h -1.16 v 1.5 h 1.13 a 1.14,1.14 0 0 0 0.76,-0.2 z"
           id="path910"
           inkscape:connector-curvature="0" />
        <path
           style="fill:#fff8d5"
           transform="translate(319.8,124.29)"
           d="m 2.13,421 a 2.15,2.15 0 0 1 -0.75,-0.37 0.37,0.37 0 0 1 -0.15,-0.32 0.38,0.38 0 0 1 0.08,-0.24 0.25,0.25 0 0 1 0.2,-0.11 0.55,0.55 0 0 1 0.28,0.1 2,2 0 0 0 0.61,0.3 2.44,2.44 0 0 0 0.7,0.1 1.38,1.38 0 0 0 0.76,-0.17 0.56,0.56 0 0 0 0.26,-0.5 0.43,0.43 0 0 0 -0.24,-0.4 3.25,3.25 0 0 0 -0.81,-0.27 4.87,4.87 0 0 1 -0.93,-0.28 1.36,1.36 0 0 1 -0.56,-0.43 1.11,1.11 0 0 1 -0.19,-0.67 1.25,1.25 0 0 1 0.24,-0.75 1.55,1.55 0 0 1 0.66,-0.51 2.33,2.33 0 0 1 1,-0.19 2.36,2.36 0 0 1 1.57,0.51 0.51,0.51 0 0 1 0.12,0.15 0.68,0.68 0 0 1 -0.08,0.42 0.25,0.25 0 0 1 -0.2,0.11 H 4.51 l -0.15,-0.07 a 2.28,2.28 0 0 0 -0.54,-0.3 1.83,1.83 0 0 0 -0.64,-0.1 1.25,1.25 0 0 0 -0.72,0.19 0.59,0.59 0 0 0 -0.27,0.52 0.47,0.47 0 0 0 0.24,0.42 2.76,2.76 0 0 0 0.81,0.28 5.39,5.39 0 0 1 1,0.3 1.45,1.45 0 0 1 0.58,0.42 1,1 0 0 1 0.19,0.64 1.22,1.22 0 0 1 -0.24,0.74 1.52,1.52 0 0 1 -0.65,0.5 2.44,2.44 0 0 1 -1,0.18 3.41,3.41 0 0 1 -0.99,-0.2 z"
           id="path914"
           inkscape:connector-curvature="0" />
        <path
           style="fill:#fff8d5"
           transform="translate(319.8,124.29)"
           d="M 8.2,421 A 0.42,0.42 0 0 1 8.09,420.68 V 417 h -1.2 q -0.41,0 -0.41,-0.36 0,-0.36 0.41,-0.36 h 3.25 q 0.41,0 0.41,0.36 0,0.36 -0.41,0.36 H 8.95 v 3.64 A 0.42,0.42 0 0 1 8.51,421.08 0.43,0.43 0 0 1 8.2,421 Z"
           id="path918"
           inkscape:connector-curvature="0" />
      </g>
    </g>
    <path
       inkscape:connector-curvature="0"
       d="m 186.57527,95.89254 a 2,2 0 0 1 -0.81,-0.86 3.11,3.11 0 0 1 0,-2.6 2,2 0 0 1 0.81,-0.85 2.73,2.73 0 0 1 2.48,0 2,2 0 0 1 0.81,0.85 3.12,3.12 0 0 1 0,2.6 2,2 0 0 1 -0.81,0.86 2.7,2.7 0 0 1 -2.48,0 z m 2.18,-0.94 a 2.33,2.33 0 0 0 0,-2.43 1.27,1.27 0 0 0 -1.89,0 2.35,2.35 0 0 0 0,2.43 1.26,1.26 0 0 0 1.88,0 z"
       style="fill:#fff7d4"
       id="path3745" />
    <path
       inkscape:connector-curvature="0"
       d="m 157.90527,96.01254 a 0.5,0.5 0 0 1 -0.13,-0.37 v -3.81 a 0.52,0.52 0 0 1 0.14,-0.38 0.6,0.6 0 0 1 0.78,0 0.52,0.52 0 0 1 0.14,0.38 v 3.44 h 1.74 q 0.5,0 0.5,0.44 0,0.44 -0.5,0.43 h -2.31 a 0.49,0.49 0 0 1 -0.36,-0.13 z"
       style="fill:#fff7d4"
       id="path3755" />
    <path
       inkscape:connector-curvature="0"
       d="m 166.31527,95.69254 a 0.45,0.45 0 0 1 -0.15,0.33 0.47,0.47 0 0 1 -0.34,0.14 0.53,0.53 0 0 1 -0.39,-0.18 l -2.11,-2.06 v 1.73 a 0.53,0.53 0 1 1 -1.06,0 v -3.81 a 0.52,0.52 0 0 1 0.14,-0.38 0.6,0.6 0 0 1 0.78,0 0.52,0.52 0 0 1 0.14,0.38 v 1.63 l 2.05,-2 a 0.47,0.47 0 0 1 0.34,-0.15 0.46,0.46 0 0 1 0.33,0.14 0.44,0.44 0 0 1 0.14,0.33 0.48,0.48 0 0 1 -0.16,0.35 l -1.62,1.52 1.73,1.69 a 0.48,0.48 0 0 1 0.18,0.34 z"
       style="fill:#fff7d4"
       id="path3757" />
    <path
       inkscape:connector-curvature="0"
       d="m 170.29527,96.01254 a 0.52,0.52 0 0 1 -0.14,-0.39 v -3.81 a 0.52,0.52 0 0 1 0.14,-0.38 0.6,0.6 0 0 1 0.78,0 0.52,0.52 0 0 1 0.14,0.38 v 3.81 a 0.55,0.55 0 0 1 -0.92,0.39 z"
       style="fill:#fff7d4"
       id="path3759" />
    <path
       inkscape:connector-curvature="0"
       id="path3765"
       d="m 132.81527,95.79254 a 0.32,0.32 0 0 1 -0.12,0.26 0.45,0.45 0 0 1 -0.29,0.1 0.45,0.45 0 0 1 -0.2,0 0.44,0.44 0 0 1 -0.16,-0.15 l -0.91,-1.36 a 0.88,0.88 0 0 0 -0.28,-0.3 0.81,0.81 0 0 0 -0.4,-0.09 h -0.66 v 1.51 a 0.44,0.44 0 0 1 -0.17,0.25 0.41,0.41 0 0 1 -0.31,0.12 0.42,0.42 0 0 1 -0.32,-0.12 0.43,0.43 0 0 1 -0.12,-0.32 v -3.95 a 0.41,0.41 0 0 1 0.11,-0.3 0.42,0.42 0 0 1 0.31,-0.11 h 1.68 a 1.84,1.84 0 0 1 1.23,0.36 1.29,1.29 0 0 1 0.42,1 1.32,1.32 0 0 1 -0.32,0.91 1.49,1.49 0 0 1 -0.89,0.45 0.81,0.81 0 0 1 0.34,0.17 1.49,1.49 0 0 1 0.29,0.34 l 0.62,0.93 a 0.43,0.43 0 0 1 0.15,0.3 z m -1.19,-2.44 a 0.69,0.69 0 0 0 0.23,-0.57 0.68,0.68 0 0 0 -0.23,-0.57 1.18,1.18 0 0 0 -0.72,-0.18 h -1.16 v 1.5 h 1.13 a 1.14,1.14 0 0 0 0.76,-0.2 z"
       style="fill:#fff8d5" />
    <path
       inkscape:connector-curvature="0"
       id="path3767"
       d="m 134.75527,96.01254 a 2.15,2.15 0 0 1 -0.75,-0.37 0.37,0.37 0 0 1 -0.15,-0.32 0.38,0.38 0 0 1 0.08,-0.24 0.25,0.25 0 0 1 0.2,-0.11 0.55,0.55 0 0 1 0.28,0.1 2,2 0 0 0 0.61,0.3 2.44,2.44 0 0 0 0.7,0.1 1.38,1.38 0 0 0 0.76,-0.17 0.56,0.56 0 0 0 0.26,-0.5 0.43,0.43 0 0 0 -0.24,-0.4 3.25,3.25 0 0 0 -0.81,-0.27 4.87,4.87 0 0 1 -0.93,-0.28 1.36,1.36 0 0 1 -0.56,-0.43 1.11,1.11 0 0 1 -0.19,-0.67 1.25,1.25 0 0 1 0.24,-0.75 1.55,1.55 0 0 1 0.66,-0.51 2.33,2.33 0 0 1 1,-0.19 2.36,2.36 0 0 1 1.57,0.51 0.51,0.51 0 0 1 0.12,0.15 0.68,0.68 0 0 1 -0.08,0.42 0.25,0.25 0 0 1 -0.2,0.11 h -0.19 l -0.15,-0.07 a 2.28,2.28 0 0 0 -0.54,-0.3 1.83,1.83 0 0 0 -0.64,-0.1 1.25,1.25 0 0 0 -0.72,0.19 0.59,0.59 0 0 0 -0.27,0.52 0.47,0.47 0 0 0 0.24,0.42 2.76,2.76 0 0 0 0.81,0.28 5.39,5.39 0 0 1 1,0.3 1.45,1.45 0 0 1 0.58,0.42 1,1 0 0 1 0.19,0.64 1.22,1.22 0 0 1 -0.24,0.74 1.52,1.52 0 0 1 -0.65,0.5 2.44,2.44 0 0 1 -1,0.18 3.41,3.41 0 0 1 -0.99,-0.2 z"
       style="fill:#fff8d5" />
    <path
       inkscape:connector-curvature="0"
       id="path3769"
       d="m 140.82527,96.01254 a 0.42,0.42 0 0 1 -0.11,-0.32 v -3.68 h -1.2 q -0.41,0 -0.41,-0.36 0,-0.36 0.41,-0.36 h 3.25 q 0.41,0 0.41,0.36 0,0.36 -0.41,0.36 h -1.19 v 3.64 a 0.42,0.42 0 0 1 -0.44,0.44 0.43,0.43 0 0 1 -0.31,-0.08 z"
       style="fill:#fff8d5" />
    <g
       id="g3813"
       transform="translate(-18.416238,-46.331502)">
      <path
         id="path3749"
         style="fill:#fff7d4"
         d="m 177.225,106.0124 a 0.51,0.51 0 0 1 -0.15,-0.38 v -3.44 h -1.1 c -0.33,0 -0.5,-0.14 -0.5,-0.44 0,-0.3 0.17,-0.43 0.5,-0.43 h 3.25 q 0.5,0 0.5,0.43 c 0,0.29 -0.17,0.44 -0.5,0.44 h -1.1 v 3.44 a 0.51,0.51 0 0 1 -0.14,0.38 0.59,0.59 0 0 1 -0.77,0 z"
         inkscape:connector-curvature="0" />
      <path
         id="path3753"
         style="fill:#fff7d4"
         d="m 153.44527,105.91254 a 2,2 0 0 1 -0.82,-0.9 3.12,3.12 0 0 1 0,-2.61 2,2 0 0 1 0.82,-0.85 2.68,2.68 0 0 1 2.77,0.19 0.52,0.52 0 0 1 0.14,0.16 0.46,0.46 0 0 1 0,0.2 0.47,0.47 0 0 1 -0.1,0.3 0.3,0.3 0 0 1 -0.24,0.13 h -0.17 l -0.16,-0.08 a 2.26,2.26 0 0 0 -0.5,-0.25 1.53,1.53 0 0 0 -0.5,-0.08 1.19,1.19 0 0 0 -1,0.41 1.88,1.88 0 0 0 -0.33,1.21 q 0,1.62 1.31,1.62 a 1.44,1.44 0 0 0 0.48,-0.08 3,3 0 0 0 0.52,-0.25 l 0.17,-0.08 h 0.16 a 0.3,0.3 0 0 1 0.24,0.13 0.47,0.47 0 0 1 0.1,0.3 0.44,0.44 0 0 1 0,0.21 0.5,0.5 0 0 1 -0.14,0.16 2.68,2.68 0 0 1 -2.77,0.19 z"
         inkscape:connector-curvature="0" />
      <path
         id="path3761"
         style="fill:#fff7d4"
         d="m 173.72819,101.46287 a 0.52,0.52 0 0 1 0.14,0.38 v 3.81 a 0.54,0.54 0 0 1 -0.14,0.38 0.48,0.48 0 0 1 -0.36,0.15 0.49,0.49 0 0 1 -0.39,-0.18 l -2.28,-2.92 v 2.56 a 0.55,0.55 0 0 1 -0.13,0.38 0.46,0.46 0 0 1 -0.36,0.15 0.47,0.47 0 0 1 -0.36,-0.15 0.54,0.54 0 0 1 -0.14,-0.38 v -3.81 a 0.52,0.52 0 0 1 0.14,-0.38 0.48,0.48 0 0 1 0.36,-0.15 0.46,0.46 0 0 1 0.39,0.18 l 2.28,2.9 v -2.55 a 0.53,0.53 0 0 1 0.14,-0.38 0.46,0.46 0 0 1 0.35,-0.15 0.48,0.48 0 0 1 0.36,0.16 z"
         inkscape:connector-curvature="0" />
      <path
         id="path3747"
         style="fill:#fff7d4"
         d="m 164.44138,105.67254 a 2,2 0 0 1 -0.53,-1.52 v -2.33 a 0.49,0.49 0 0 1 0.52,-0.52 0.51,0.51 0 0 1 0.38,0.14 0.52,0.52 0 0 1 0.14,0.38 v 2.37 a 1.28,1.28 0 0 0 0.26,0.87 1.11,1.11 0 0 0 1.52,0 1.27,1.27 0 0 0 0.27,-0.87 v -2.37 a 0.52,0.52 0 0 1 0.14,-0.38 0.51,0.51 0 0 1 0.38,-0.14 0.49,0.49 0 0 1 0.52,0.52 v 2.33 a 2,2 0 0 1 -0.53,1.52 2.52,2.52 0 0 1 -3.07,0 z"
         inkscape:connector-curvature="0" />
      <path
         inkscape:connector-curvature="0"
         d="m 158.92506,105.89254 a 2,2 0 0 1 -0.81,-0.86 3.11,3.11 0 0 1 0,-2.6 2,2 0 0 1 0.81,-0.85 2.73,2.73 0 0 1 2.48,0 2,2 0 0 1 0.81,0.85 3.12,3.12 0 0 1 0,2.6 2,2 0 0 1 -0.81,0.86 2.7,2.7 0 0 1 -2.48,0 z m 2.18,-0.94 a 2.33,2.33 0 0 0 0,-2.43 1.27,1.27 0 0 0 -1.89,0 2.35,2.35 0 0 0 0,2.43 1.26,1.26 0 0 0 1.88,0 z"
         style="fill:#fff7d4"
         id="path3800" />
    </g>
    <g
       transform="translate(-126.15609,171.0005)"
       id="g927">
      <g
         transform="translate(-181.01864,-499.27746)"
         id="g905">
        <path
           inkscape:connector-curvature="0"
           d="m 53.95,420.88 a 2,2 0 0 1 -0.81,-0.86 3.11,3.11 0 0 1 0,-2.6 2,2 0 0 1 0.81,-0.85 2.73,2.73 0 0 1 2.48,0 2,2 0 0 1 0.81,0.85 3.12,3.12 0 0 1 0,2.6 2,2 0 0 1 -0.81,0.86 2.7,2.7 0 0 1 -2.48,0 z m 2.18,-0.94 a 2.33,2.33 0 0 0 0,-2.43 1.27,1.27 0 0 0 -1.89,0 2.35,2.35 0 0 0 0,2.43 1.26,1.26 0 0 0 1.88,0 z"
           transform="translate(319.8,124.29)"
           style="fill:#fff7d4"
           id="path899" />
        <path
           inkscape:connector-curvature="0"
           d="m 59.52,420.66 a 2,2 0 0 1 -0.53,-1.52 v -2.33 a 0.49,0.49 0 0 1 0.52,-0.52 0.51,0.51 0 0 1 0.38,0.14 0.52,0.52 0 0 1 0.14,0.38 v 2.37 a 1.28,1.28 0 0 0 0.26,0.87 1.11,1.11 0 0 0 1.52,0 1.27,1.27 0 0 0 0.27,-0.87 v -2.37 a 0.52,0.52 0 0 1 0.14,-0.38 0.51,0.51 0 0 1 0.38,-0.14 0.49,0.49 0 0 1 0.52,0.52 v 2.33 a 2,2 0 0 1 -0.53,1.52 2.52,2.52 0 0 1 -3.07,0 z"
           transform="translate(319.8,124.29)"
           style="fill:#fff7d4"
           id="path901" />
        <path
           inkscape:connector-curvature="0"
           d="m 66,421 a 0.51,0.51 0 0 1 -0.15,-0.38 v -3.44 h -1.1 c -0.33,0 -0.5,-0.14 -0.5,-0.44 0,-0.3 0.17,-0.43 0.5,-0.43 H 68 q 0.5,0 0.5,0.43 c 0,0.29 -0.17,0.44 -0.5,0.44 h -1.1 v 3.44 a 0.51,0.51 0 0 1 -0.14,0.38 0.59,0.59 0 0 1 -0.77,0 z"
           transform="translate(319.8,124.29)"
           style="fill:#fff7d4"
           id="path903" />
      </g>
      <g
         transform="translate(-181.01864,-499.27746)"
         id="g917">
        <path
           inkscape:connector-curvature="0"
           d="M 20.82,420.9 A 2,2 0 0 1 20,420 a 3.12,3.12 0 0 1 0,-2.61 2,2 0 0 1 0.82,-0.85 2.68,2.68 0 0 1 2.77,0.19 0.52,0.52 0 0 1 0.14,0.16 0.46,0.46 0 0 1 0,0.2 0.47,0.47 0 0 1 -0.1,0.3 0.3,0.3 0 0 1 -0.24,0.13 h -0.17 l -0.16,-0.08 a 2.26,2.26 0 0 0 -0.5,-0.25 1.53,1.53 0 0 0 -0.5,-0.08 1.19,1.19 0 0 0 -1,0.41 1.88,1.88 0 0 0 -0.33,1.21 q 0,1.62 1.31,1.62 a 1.44,1.44 0 0 0 0.48,-0.08 3,3 0 0 0 0.52,-0.25 l 0.17,-0.08 h 0.16 a 0.3,0.3 0 0 1 0.24,0.13 0.47,0.47 0 0 1 0.1,0.3 0.44,0.44 0 0 1 0,0.21 0.5,0.5 0 0 1 -0.14,0.16 2.68,2.68 0 0 1 -2.77,0.19 z"
           transform="translate(319.8,124.29)"
           style="fill:#fff7d4"
           id="path907" />
        <path
           inkscape:connector-curvature="0"
           d="m 25.28,421 a 0.5,0.5 0 0 1 -0.13,-0.37 v -3.81 a 0.52,0.52 0 0 1 0.14,-0.38 0.6,0.6 0 0 1 0.78,0 0.52,0.52 0 0 1 0.14,0.38 v 3.44 h 1.74 q 0.5,0 0.5,0.44 0,0.44 -0.5,0.43 H 25.64 A 0.49,0.49 0 0 1 25.28,421 Z"
           transform="translate(319.8,124.29)"
           style="fill:#fff7d4"
           id="path909" />
        <path
           inkscape:connector-curvature="0"
           d="m 33.69,420.68 a 0.45,0.45 0 0 1 -0.15,0.33 0.47,0.47 0 0 1 -0.34,0.14 0.53,0.53 0 0 1 -0.39,-0.18 l -2.11,-2.06 v 1.73 a 0.53,0.53 0 1 1 -1.06,0 v -3.81 a 0.52,0.52 0 0 1 0.14,-0.38 0.6,0.6 0 0 1 0.78,0 0.52,0.52 0 0 1 0.14,0.38 v 1.63 l 2.05,-2 a 0.47,0.47 0 0 1 0.34,-0.15 0.46,0.46 0 0 1 0.33,0.14 0.44,0.44 0 0 1 0.14,0.33 0.48,0.48 0 0 1 -0.16,0.35 l -1.62,1.52 1.73,1.69 a 0.48,0.48 0 0 1 0.18,0.34 z"
           transform="translate(319.8,124.29)"
           style="fill:#fff7d4"
           id="path911" />
        <path
           inkscape:connector-curvature="0"
           d="m 37.67,421 a 0.52,0.52 0 0 1 -0.14,-0.39 v -3.81 a 0.52,0.52 0 0 1 0.14,-0.38 0.6,0.6 0 0 1 0.78,0 0.52,0.52 0 0 1 0.14,0.38 v 3.81 A 0.55,0.55 0 0 1 37.67,421 Z"
           transform="translate(319.8,124.29)"
           style="fill:#fff7d4"
           id="path913" />
        <path
           inkscape:connector-curvature="0"
           d="m 44.24,416.45 a 0.52,0.52 0 0 1 0.14,0.38 v 3.81 a 0.54,0.54 0 0 1 -0.14,0.38 0.48,0.48 0 0 1 -0.36,0.15 0.49,0.49 0 0 1 -0.39,-0.18 l -2.28,-2.92 v 2.56 a 0.55,0.55 0 0 1 -0.13,0.38 0.46,0.46 0 0 1 -0.36,0.15 0.47,0.47 0 0 1 -0.36,-0.15 0.54,0.54 0 0 1 -0.14,-0.38 v -3.81 a 0.52,0.52 0 0 1 0.14,-0.38 0.48,0.48 0 0 1 0.36,-0.15 0.46,0.46 0 0 1 0.39,0.18 l 2.28,2.9 v -2.55 a 0.53,0.53 0 0 1 0.14,-0.38 0.46,0.46 0 0 1 0.35,-0.15 0.48,0.48 0 0 1 0.36,0.16 z"
           transform="translate(319.8,124.29)"
           style="fill:#fff7d4"
           id="path915" />
      </g>
      <g
         transform="translate(-181.01864,-499.27746)"
         id="g925">
        <path
           inkscape:connector-curvature="0"
           id="path919"
           d="m 0.19,420.78 a 0.32,0.32 0 0 1 -0.12,0.26 0.45,0.45 0 0 1 -0.29,0.1 0.45,0.45 0 0 1 -0.2,0 0.44,0.44 0 0 1 -0.16,-0.15 l -0.91,-1.36 a 0.88,0.88 0 0 0 -0.28,-0.3 0.81,0.81 0 0 0 -0.4,-0.09 h -0.66 v 1.51 A 0.44,0.44 0 0 1 -3,421 0.41,0.41 0 0 1 -3.31,421.12 0.42,0.42 0 0 1 -3.63,421 0.43,0.43 0 0 1 -3.75,420.68 v -3.95 a 0.41,0.41 0 0 1 0.11,-0.3 0.42,0.42 0 0 1 0.31,-0.11 h 1.68 a 1.84,1.84 0 0 1 1.23,0.36 1.29,1.29 0 0 1 0.42,1 1.32,1.32 0 0 1 -0.32,0.91 1.49,1.49 0 0 1 -0.89,0.45 0.81,0.81 0 0 1 0.34,0.17 1.49,1.49 0 0 1 0.29,0.34 l 0.62,0.93 a 0.43,0.43 0 0 1 0.15,0.3 z M -1,418.34 a 0.69,0.69 0 0 0 0.23,-0.57 0.68,0.68 0 0 0 -0.23,-0.57 1.18,1.18 0 0 0 -0.72,-0.18 h -1.16 v 1.5 h 1.13 a 1.14,1.14 0 0 0 0.76,-0.2 z"
           transform="translate(319.8,124.29)"
           style="fill:#fff8d5" />
        <path
           inkscape:connector-curvature="0"
           id="path921"
           d="m 2.13,421 a 2.15,2.15 0 0 1 -0.75,-0.37 0.37,0.37 0 0 1 -0.15,-0.32 0.38,0.38 0 0 1 0.08,-0.24 0.25,0.25 0 0 1 0.2,-0.11 0.55,0.55 0 0 1 0.28,0.1 2,2 0 0 0 0.61,0.3 2.44,2.44 0 0 0 0.7,0.1 1.38,1.38 0 0 0 0.76,-0.17 0.56,0.56 0 0 0 0.26,-0.5 0.43,0.43 0 0 0 -0.24,-0.4 3.25,3.25 0 0 0 -0.81,-0.27 4.87,4.87 0 0 1 -0.93,-0.28 1.36,1.36 0 0 1 -0.56,-0.43 1.11,1.11 0 0 1 -0.19,-0.67 1.25,1.25 0 0 1 0.24,-0.75 1.55,1.55 0 0 1 0.66,-0.51 2.33,2.33 0 0 1 1,-0.19 2.36,2.36 0 0 1 1.57,0.51 0.51,0.51 0 0 1 0.12,0.15 0.68,0.68 0 0 1 -0.08,0.42 0.25,0.25 0 0 1 -0.2,0.11 H 4.51 l -0.15,-0.07 a 2.28,2.28 0 0 0 -0.54,-0.3 1.83,1.83 0 0 0 -0.64,-0.1 1.25,1.25 0 0 0 -0.72,0.19 0.59,0.59 0 0 0 -0.27,0.52 0.47,0.47 0 0 0 0.24,0.42 2.76,2.76 0 0 0 0.81,0.28 5.39,5.39 0 0 1 1,0.3 1.45,1.45 0 0 1 0.58,0.42 1,1 0 0 1 0.19,0.64 1.22,1.22 0 0 1 -0.24,0.74 1.52,1.52 0 0 1 -0.65,0.5 2.44,2.44 0 0 1 -1,0.18 3.41,3.41 0 0 1 -0.99,-0.2 z"
           transform="translate(319.8,124.29)"
           style="fill:#fff8d5" />
        <path
           inkscape:connector-curvature="0"
           id="path923"
           d="M 8.2,421 A 0.42,0.42 0 0 1 8.09,420.68 V 417 h -1.2 q -0.41,0 -0.41,-0.36 0,-0.36 0.41,-0.36 h 3.25 q 0.41,0 0.41,0.36 0,0.36 -0.41,0.36 H 8.95 v 3.64 A 0.42,0.42 0 0 1 8.51,421.08 0.43,0.43 0 0 1 8.2,421 Z"
           transform="translate(319.8,124.29)"
           style="fill:#fff8d5" />
      </g>
    </g>
    <g
       id="g957"
       transform="translate(-126.15609,270.8005)">
      <g
         id="g935"
         transform="translate(-181.01864,-499.27746)">
        <path
           id="path929"
           style="fill:#fff7d4"
           transform="translate(319.8,124.29)"
           d="m 53.95,420.88 a 2,2 0 0 1 -0.81,-0.86 3.11,3.11 0 0 1 0,-2.6 2,2 0 0 1 0.81,-0.85 2.73,2.73 0 0 1 2.48,0 2,2 0 0 1 0.81,0.85 3.12,3.12 0 0 1 0,2.6 2,2 0 0 1 -0.81,0.86 2.7,2.7 0 0 1 -2.48,0 z m 2.18,-0.94 a 2.33,2.33 0 0 0 0,-2.43 1.27,1.27 0 0 0 -1.89,0 2.35,2.35 0 0 0 0,2.43 1.26,1.26 0 0 0 1.88,0 z"
           inkscape:connector-curvature="0" />
        <path
           id="path931"
           style="fill:#fff7d4"
           transform="translate(319.8,124.29)"
           d="m 59.52,420.66 a 2,2 0 0 1 -0.53,-1.52 v -2.33 a 0.49,0.49 0 0 1 0.52,-0.52 0.51,0.51 0 0 1 0.38,0.14 0.52,0.52 0 0 1 0.14,0.38 v 2.37 a 1.28,1.28 0 0 0 0.26,0.87 1.11,1.11 0 0 0 1.52,0 1.27,1.27 0 0 0 0.27,-0.87 v -2.37 a 0.52,0.52 0 0 1 0.14,-0.38 0.51,0.51 0 0 1 0.38,-0.14 0.49,0.49 0 0 1 0.52,0.52 v 2.33 a 2,2 0 0 1 -0.53,1.52 2.52,2.52 0 0 1 -3.07,0 z"
           inkscape:connector-curvature="0" />
        <path
           id="path933"
           style="fill:#fff7d4"
           transform="translate(319.8,124.29)"
           d="m 66,421 a 0.51,0.51 0 0 1 -0.15,-0.38 v -3.44 h -1.1 c -0.33,0 -0.5,-0.14 -0.5,-0.44 0,-0.3 0.17,-0.43 0.5,-0.43 H 68 q 0.5,0 0.5,0.43 c 0,0.29 -0.17,0.44 -0.5,0.44 h -1.1 v 3.44 a 0.51,0.51 0 0 1 -0.14,0.38 0.59,0.59 0 0 1 -0.77,0 z"
           inkscape:connector-curvature="0" />
      </g>
      <g
         id="g947"
         transform="translate(-181.01864,-499.27746)">
        <path
           id="path937"
           style="fill:#fff7d4"
           transform="translate(319.8,124.29)"
           d="M 20.82,420.9 A 2,2 0 0 1 20,420 a 3.12,3.12 0 0 1 0,-2.61 2,2 0 0 1 0.82,-0.85 2.68,2.68 0 0 1 2.77,0.19 0.52,0.52 0 0 1 0.14,0.16 0.46,0.46 0 0 1 0,0.2 0.47,0.47 0 0 1 -0.1,0.3 0.3,0.3 0 0 1 -0.24,0.13 h -0.17 l -0.16,-0.08 a 2.26,2.26 0 0 0 -0.5,-0.25 1.53,1.53 0 0 0 -0.5,-0.08 1.19,1.19 0 0 0 -1,0.41 1.88,1.88 0 0 0 -0.33,1.21 q 0,1.62 1.31,1.62 a 1.44,1.44 0 0 0 0.48,-0.08 3,3 0 0 0 0.52,-0.25 l 0.17,-0.08 h 0.16 a 0.3,0.3 0 0 1 0.24,0.13 0.47,0.47 0 0 1 0.1,0.3 0.44,0.44 0 0 1 0,0.21 0.5,0.5 0 0 1 -0.14,0.16 2.68,2.68 0 0 1 -2.77,0.19 z"
           inkscape:connector-curvature="0" />
        <path
           id="path939"
           style="fill:#fff7d4"
           transform="translate(319.8,124.29)"
           d="m 25.28,421 a 0.5,0.5 0 0 1 -0.13,-0.37 v -3.81 a 0.52,0.52 0 0 1 0.14,-0.38 0.6,0.6 0 0 1 0.78,0 0.52,0.52 0 0 1 0.14,0.38 v 3.44 h 1.74 q 0.5,0 0.5,0.44 0,0.44 -0.5,0.43 H 25.64 A 0.49,0.49 0 0 1 25.28,421 Z"
           inkscape:connector-curvature="0" />
        <path
           id="path941"
           style="fill:#fff7d4"
           transform="translate(319.8,124.29)"
           d="m 33.69,420.68 a 0.45,0.45 0 0 1 -0.15,0.33 0.47,0.47 0 0 1 -0.34,0.14 0.53,0.53 0 0 1 -0.39,-0.18 l -2.11,-2.06 v 1.73 a 0.53,0.53 0 1 1 -1.06,0 v -3.81 a 0.52,0.52 0 0 1 0.14,-0.38 0.6,0.6 0 0 1 0.78,0 0.52,0.52 0 0 1 0.14,0.38 v 1.63 l 2.05,-2 a 0.47,0.47 0 0 1 0.34,-0.15 0.46,0.46 0 0 1 0.33,0.14 0.44,0.44 0 0 1 0.14,0.33 0.48,0.48 0 0 1 -0.16,0.35 l -1.62,1.52 1.73,1.69 a 0.48,0.48 0 0 1 0.18,0.34 z"
           inkscape:connector-curvature="0" />
        <path
           id="path943"
           style="fill:#fff7d4"
           transform="translate(319.8,124.29)"
           d="m 37.67,421 a 0.52,0.52 0 0 1 -0.14,-0.39 v -3.81 a 0.52,0.52 0 0 1 0.14,-0.38 0.6,0.6 0 0 1 0.78,0 0.52,0.52 0 0 1 0.14,0.38 v 3.81 A 0.55,0.55 0 0 1 37.67,421 Z"
           inkscape:connector-curvature="0" />
        <path
           id="path945"
           style="fill:#fff7d4"
           transform="translate(319.8,124.29)"
           d="m 44.24,416.45 a 0.52,0.52 0 0 1 0.14,0.38 v 3.81 a 0.54,0.54 0 0 1 -0.14,0.38 0.48,0.48 0 0 1 -0.36,0.15 0.49,0.49 0 0 1 -0.39,-0.18 l -2.28,-2.92 v 2.56 a 0.55,0.55 0 0 1 -0.13,0.38 0.46,0.46 0 0 1 -0.36,0.15 0.47,0.47 0 0 1 -0.36,-0.15 0.54,0.54 0 0 1 -0.14,-0.38 v -3.81 a 0.52,0.52 0 0 1 0.14,-0.38 0.48,0.48 0 0 1 0.36,-0.15 0.46,0.46 0 0 1 0.39,0.18 l 2.28,2.9 v -2.55 a 0.53,0.53 0 0 1 0.14,-0.38 0.46,0.46 0 0 1 0.35,-0.15 0.48,0.48 0 0 1 0.36,0.16 z"
           inkscape:connector-curvature="0" />
      </g>
      <g
         id="g955"
         transform="translate(-181.01864,-499.27746)">
        <path
           style="fill:#fff8d5"
           transform="translate(319.8,124.29)"
           d="m 0.19,420.78 a 0.32,0.32 0 0 1 -0.12,0.26 0.45,0.45 0 0 1 -0.29,0.1 0.45,0.45 0 0 1 -0.2,0 0.44,0.44 0 0 1 -0.16,-0.15 l -0.91,-1.36 a 0.88,0.88 0 0 0 -0.28,-0.3 0.81,0.81 0 0 0 -0.4,-0.09 h -0.66 v 1.51 A 0.44,0.44 0 0 1 -3,421 0.41,0.41 0 0 1 -3.31,421.12 0.42,0.42 0 0 1 -3.63,421 0.43,0.43 0 0 1 -3.75,420.68 v -3.95 a 0.41,0.41 0 0 1 0.11,-0.3 0.42,0.42 0 0 1 0.31,-0.11 h 1.68 a 1.84,1.84 0 0 1 1.23,0.36 1.29,1.29 0 0 1 0.42,1 1.32,1.32 0 0 1 -0.32,0.91 1.49,1.49 0 0 1 -0.89,0.45 0.81,0.81 0 0 1 0.34,0.17 1.49,1.49 0 0 1 0.29,0.34 l 0.62,0.93 a 0.43,0.43 0 0 1 0.15,0.3 z M -1,418.34 a 0.69,0.69 0 0 0 0.23,-0.57 0.68,0.68 0 0 0 -0.23,-0.57 1.18,1.18 0 0 0 -0.72,-0.18 h -1.16 v 1.5 h 1.13 a 1.14,1.14 0 0 0 0.76,-0.2 z"
           id="path949"
           inkscape:connector-curvature="0" />
        <path
           style="fill:#fff8d5"
           transform="translate(319.8,124.29)"
           d="m 2.13,421 a 2.15,2.15 0 0 1 -0.75,-0.37 0.37,0.37 0 0 1 -0.15,-0.32 0.38,0.38 0 0 1 0.08,-0.24 0.25,0.25 0 0 1 0.2,-0.11 0.55,0.55 0 0 1 0.28,0.1 2,2 0 0 0 0.61,0.3 2.44,2.44 0 0 0 0.7,0.1 1.38,1.38 0 0 0 0.76,-0.17 0.56,0.56 0 0 0 0.26,-0.5 0.43,0.43 0 0 0 -0.24,-0.4 3.25,3.25 0 0 0 -0.81,-0.27 4.87,4.87 0 0 1 -0.93,-0.28 1.36,1.36 0 0 1 -0.56,-0.43 1.11,1.11 0 0 1 -0.19,-0.67 1.25,1.25 0 0 1 0.24,-0.75 1.55,1.55 0 0 1 0.66,-0.51 2.33,2.33 0 0 1 1,-0.19 2.36,2.36 0 0 1 1.57,0.51 0.51,0.51 0 0 1 0.12,0.15 0.68,0.68 0 0 1 -0.08,0.42 0.25,0.25 0 0 1 -0.2,0.11 H 4.51 l -0.15,-0.07 a 2.28,2.28 0 0 0 -0.54,-0.3 1.83,1.83 0 0 0 -0.64,-0.1 1.25,1.25 0 0 0 -0.72,0.19 0.59,0.59 0 0 0 -0.27,0.52 0.47,0.47 0 0 0 0.24,0.42 2.76,2.76 0 0 0 0.81,0.28 5.39,5.39 0 0 1 1,0.3 1.45,1.45 0 0 1 0.58,0.42 1,1 0 0 1 0.19,0.64 1.22,1.22 0 0 1 -0.24,0.74 1.52,1.52 0 0 1 -0.65,0.5 2.44,2.44 0 0 1 -1,0.18 3.41,3.41 0 0 1 -0.99,-0.2 z"
           id="path951"
           inkscape:connector-curvature="0" />
        <path
           style="fill:#fff8d5"
           transform="translate(319.8,124.29)"
           d="M 8.2,421 A 0.42,0.42 0 0 1 8.09,420.68 V 417 h -1.2 q -0.41,0 -0.41,-0.36 0,-0.36 0.41,-0.36 h 3.25 q 0.41,0 0.41,0.36 0,0.36 -0.41,0.36 H 8.95 v 3.64 A 0.42,0.42 0 0 1 8.51,421.08 0.43,0.43 0 0 1 8.2,421 Z"
           id="path953"
           inkscape:connector-curvature="0" />
      </g>
    </g>
  </g>
</svg>
