<?xml version="1.0" encoding="UTF-8" standalone="no"?>
<svg
   xmlns:dc="http://purl.org/dc/elements/1.1/"
   xmlns:cc="http://creativecommons.org/ns#"
   xmlns:rdf="http://www.w3.org/1999/02/22-rdf-syntax-ns#"
   xmlns:svg="http://www.w3.org/2000/svg"
   xmlns="http://www.w3.org/2000/svg"
   xmlns:sodipodi="http://sodipodi.sourceforge.net/DTD/sodipodi-0.dtd"
   xmlns:inkscape="http://www.inkscape.org/namespaces/inkscape"
   version="1.1"
   width="300"
   height="380"
   viewBox="0 0 300 380"
   id="svg178"
   sodipodi:docname="svg_render_tmp.svg"
   inkscape:version="0.92.2 5c3e80d, 2017-08-06">
  <metadata
     id="metadata182">
    <rdf:RDF>
      <cc:Work
         rdf:about="">
        <dc:format>image/svg+xml</dc:format>
        <dc:type
           rdf:resource="http://purl.org/dc/dcmitype/StillImage" />
      </cc:Work>
    </rdf:RDF>
  </metadata>
  <sodipodi:namedview
     pagecolor="#ffffff"
     bordercolor="#666666"
     borderopacity="1"
     objecttolerance="10"
     gridtolerance="10"
     guidetolerance="10"
     inkscape:pageopacity="0"
     inkscape:pageshadow="2"
     inkscape:window-width="468"
     inkscape:window-height="449"
     id="namedview180"
     showgrid="false"
     inkscape:zoom="0.62105263"
     inkscape:cx="150"
     inkscape:cy="190"
     inkscape:window-x="0"
     inkscape:window-y="0"
     inkscape:window-maximized="0"
     inkscape:current-layer="svg178" />
  <style
     id="style2">
    text {
      fill: #333;
      font-family: 'Roboto', sans-serif;
      font-weight: bold;
    }
    text.title {
      font-family: 'Comfortaa', sans-serif;
      font-weight: normal;
    }
    text.brand {
      font-family: 'Audiowide', sans-serif;
      font-weight: bold;
    }
  </style>
  <defs
     id="defs44">
    <symbol
       id="knob"
       viewBox="0 0 38px 38px">
      <g
         transform="translate(19 19)"
         id="g10">
        <polyline
           points="-5,0 5,0"
           stroke-width="1"
           stroke="#00f"
           id="polyline4" />
        <polyline
           points="0,-5 0,5"
           stroke-width="1"
           stroke="#00f"
           id="polyline6" />
        <circle
           cx="0"
           cy="0"
           r="18"
           stroke-width="1"
           stroke="#00f"
           fill="none"
           id="circle8" />
      </g>
    </symbol>
    <symbol
       id="knob-medium"
       viewBox="0 0 26px 26px">
      <g
         transform="translate(13 13)"
         id="g19">
        <polyline
           points="-3,0 3,0"
           stroke-width="1"
           stroke="#00f"
           id="polyline13" />
        <polyline
           points="0,-3 0,3"
           stroke-width="1"
           stroke="#00f"
           id="polyline15" />
        <circle
           cx="0"
           cy="0"
           r="12"
           stroke-width="1"
           stroke="#00f"
           fill="none"
           id="circle17" />
      </g>
    </symbol>
    <symbol
       id="input"
       viewBox="0 0 24px 24px">
      <g
         transform="translate(12 12)"
         id="g26">
        <circle
           cx="0"
           cy="0"
           r="5"
           stroke-width="1"
           stroke="#0f0"
           fill="#0f0"
           id="circle22" />
        <circle
           cx="0"
           cy="0"
           r="10.5"
           stroke-width="3"
           stroke="#0f0"
           fill="none"
           id="circle24" />
      </g>
    </symbol>
    <symbol
       id="output"
       viewBox="0 0 24px 24px">
      <g
         transform="translate(12 12)"
         id="g33">
        <circle
           cx="0"
           cy="0"
           r="5"
           stroke-width="1"
           stroke="#f00"
           fill="#f00"
           id="circle29" />
        <circle
           cx="0"
           cy="0"
           r="10.5"
           stroke-width="3"
           stroke="#f00"
           fill="none"
           id="circle31" />
      </g>
    </symbol>
    <symbol
       id="button-small"
       viewBox="0 0 9px 9px">
      <g
         transform="translate(4.5 4.5)"
         id="g38">
        <circle
           r="4"
           stroke-width="1"
           stroke="#00f"
           fill="#f00"
           id="circle36" />
      </g>
    </symbol>
    <symbol
       id="light"
       viewBox="0 0 1.1px 1.1px">
      <rect
         width="3.2"
         height="3.2"
         fill="#0f0"
         id="rect41" />
    </symbol>
  </defs>
  <path
     style="fill:#dddddd"
     d="M 0,0 H 300 V 380 H 0 Z"
     id="rect46" />
  <path
     style="fill:none;stroke:#e4e4e4;stroke-width:0.5"
     d="M 1,1 H 299 V 379 H 1 V 1"
     id="polyline48" />
  <path
     style="fill:none;stroke:#ebebeb;stroke-width:0.80000001"
     d="m 0.5,0.5 h 299 v 379 H 0.5 V 0.5"
     id="polyline50" />
  <path
     style="fill:none;stroke:#f2f2f2;stroke-width:1"
     d="M 0,0 H 300 V 380 H 0 V 0"
     id="polyline52" />
  <!-- <rect width="80" height="20" fill="#0f0" transform="translate(0 0)" /> -->
  <!-- <rect width="80" height="20" fill="#0f0" transform="translate(220 0)" /> -->
  <g
     aria-label="ADDITATOR"
     style="font-weight:normal;font-size:16px;font-family:Comfortaa, sans-serif;letter-spacing:4px;fill:#333333"
     id="text54">
    <path
       d="m 96.976,18.12 q 0.064,0.112 0.064,0.256 0,0.256 -0.192,0.448 Q 96.672,19 96.416,19 96,19 95.824,18.616 L 94.752,16.024 H 88.56 l -1.072,2.592 Q 87.36,19 86.912,19 q -0.272,0 -0.448,-0.176 -0.16,-0.192 -0.16,-0.448 0,-0.16 0.048,-0.272 L 91.056,6.936 q 0.176,-0.432 0.608,-0.432 0.432,0 0.592,0.432 z M 94.32,14.952 91.664,8.536 89.008,14.952 Z"
       style="font-weight:normal;font-size:16px;font-family:Comfortaa, sans-serif;letter-spacing:4px;fill:#333333"
       id="path287" />
    <path
       d="m 103.474,19 q -0.272,0 -0.448,-0.176 -0.176,-0.176 -0.176,-0.448 V 7.128 q 0,-0.272 0.176,-0.448 0.176,-0.176 0.448,-0.176 h 2.88 q 1.808,0 3.232,0.8 1.424,0.8 2.208,2.224 0.8,1.408 0.8,3.216 0,1.808 -0.8,3.232 -0.784,1.424 -2.208,2.224 -1.424,0.8 -3.232,0.8 z m 2.88,-1.12 q 1.456,0 2.592,-0.656 1.136,-0.672 1.776,-1.84 0.64,-1.168 0.64,-2.64 0,-1.472 -0.64,-2.64 -0.64,-1.168 -1.776,-1.824 -1.136,-0.656 -2.592,-0.656 h -2.256 V 17.88 Z"
       style="font-weight:normal;font-size:16px;font-family:Comfortaa, sans-serif;letter-spacing:4px;fill:#333333"
       id="path289" />
    <path
       d="m 119.7865,19 q -0.272,0 -0.448,-0.176 -0.176,-0.176 -0.176,-0.448 V 7.128 q 0,-0.272 0.176,-0.448 0.176,-0.176 0.448,-0.176 h 2.88 q 1.808,0 3.232,0.8 1.424,0.8 2.208,2.224 0.8,1.408 0.8,3.216 0,1.808 -0.8,3.232 -0.784,1.424 -2.208,2.224 -1.424,0.8 -3.232,0.8 z m 2.88,-1.12 q 1.456,0 2.592,-0.656 1.136,-0.672 1.776,-1.84 0.64,-1.168 0.64,-2.64 0,-1.472 -0.64,-2.64 -0.64,-1.168 -1.776,-1.824 -1.136,-0.656 -2.592,-0.656 h -2.256 V 17.88 Z"
       style="font-weight:normal;font-size:16px;font-family:Comfortaa, sans-serif;letter-spacing:4px;fill:#333333"
       id="path291" />
    <path
       d="m 136.099,19 q -0.256,0 -0.448,-0.176 -0.176,-0.192 -0.176,-0.448 V 7.128 q 0,-0.272 0.176,-0.448 0.192,-0.176 0.448,-0.176 0.272,0 0.448,0.176 0.176,0.176 0.176,0.448 v 11.248 q 0,0.256 -0.176,0.448 Q 136.371,19 136.099,19 Z"
       style="font-weight:normal;font-size:16px;font-family:Comfortaa, sans-serif;letter-spacing:4px;fill:#333333"
       id="path293" />
    <path
       d="m 151.9765,6.504 q 0.256,0 0.416,0.16 0.16,0.16 0.16,0.416 0,0.24 -0.16,0.4 -0.16,0.16 -0.416,0.16 h -3.808 v 10.736 q 0,0.256 -0.176,0.448 -0.176,0.176 -0.448,0.176 -0.256,0 -0.448,-0.176 -0.176,-0.192 -0.176,-0.448 V 7.64 h -3.792 q -0.256,0 -0.416,-0.16 -0.16,-0.16 -0.16,-0.4 0,-0.256 0.16,-0.416 0.16,-0.16 0.416,-0.16 z"
       style="font-weight:normal;font-size:16px;font-family:Comfortaa, sans-serif;letter-spacing:4px;fill:#333333"
       id="path295" />
    <path
       d="m 166.476,18.12 q 0.064,0.112 0.064,0.256 0,0.256 -0.192,0.448 Q 166.172,19 165.916,19 165.5,19 165.324,18.616 l -1.072,-2.592 h -6.192 l -1.072,2.592 Q 156.86,19 156.412,19 q -0.272,0 -0.448,-0.176 -0.16,-0.192 -0.16,-0.448 0,-0.16 0.048,-0.272 l 4.704,-11.168 q 0.176,-0.432 0.608,-0.432 0.432,0 0.592,0.432 z m -2.656,-3.168 -2.656,-6.416 -2.656,6.416 z"
       style="font-weight:normal;font-size:16px;font-family:Comfortaa, sans-serif;letter-spacing:4px;fill:#333333"
       id="path297" />
    <path
       d="m 179.13275,6.504 q 0.256,0 0.416,0.16 0.16,0.16 0.16,0.416 0,0.24 -0.16,0.4 -0.16,0.16 -0.416,0.16 h -3.808 v 10.736 q 0,0.256 -0.176,0.448 -0.176,0.176 -0.448,0.176 -0.256,0 -0.448,-0.176 -0.176,-0.192 -0.176,-0.448 V 7.64 h -3.792 q -0.256,0 -0.416,-0.16 -0.16,-0.16 -0.16,-0.4 0,-0.256 0.16,-0.416 0.16,-0.16 0.416,-0.16 z"
       style="font-weight:normal;font-size:16px;font-family:Comfortaa, sans-serif;letter-spacing:4px;fill:#333333"
       id="path299" />
    <path
       d="m 190.501,19.16 q -1.824,0 -3.28,-0.832 -1.456,-0.832 -2.288,-2.288 -0.816,-1.472 -0.816,-3.296 0,-1.824 0.816,-3.28 0.832,-1.456 2.288,-2.288 1.456,-0.832 3.28,-0.832 1.808,0 3.264,0.832 1.472,0.832 2.288,2.288 0.832,1.456 0.832,3.28 0,1.824 -0.832,3.296 -0.816,1.456 -2.288,2.288 -1.456,0.832 -3.264,0.832 z m 0,-1.184 q 1.456,0 2.624,-0.688 1.184,-0.688 1.856,-1.872 0.672,-1.2 0.672,-2.672 0,-1.456 -0.672,-2.64 -0.672,-1.2 -1.856,-1.888 -1.168,-0.688 -2.624,-0.688 -1.472,0 -2.656,0.688 -1.168,0.688 -1.84,1.888 -0.672,1.184 -0.672,2.64 0,1.472 0.672,2.672 0.672,1.184 1.84,1.872 1.184,0.688 2.656,0.688 z"
       style="font-weight:normal;font-size:16px;font-family:Comfortaa, sans-serif;letter-spacing:4px;fill:#333333"
       id="path301" />
    <path
       d="m 211.283,18.04 q 0.144,0.24 0.144,0.432 0,0.24 -0.176,0.384 -0.176,0.144 -0.464,0.144 -0.192,0 -0.32,-0.08 -0.128,-0.08 -0.224,-0.24 l -2.88,-4.576 h -0.272 -2.368 v 4.272 q 0,0.272 -0.176,0.448 -0.176,0.176 -0.448,0.176 -0.272,0 -0.448,-0.176 -0.176,-0.176 -0.176,-0.448 V 7.128 q 0,-0.272 0.176,-0.448 0.176,-0.176 0.448,-0.176 h 2.992 q 1.168,0 2.08,0.496 0.912,0.48 1.424,1.36 0.528,0.88 0.528,2 0,1.232 -0.672,2.16 -0.656,0.928 -1.792,1.328 z m -4.192,-5.136 q 0.8,0 1.44,-0.32 0.656,-0.336 1.008,-0.912 0.368,-0.576 0.368,-1.312 0,-0.768 -0.368,-1.376 -0.352,-0.608 -0.992,-0.944 -0.64,-0.336 -1.456,-0.336 h -2.368 v 5.2 z"
       style="font-weight:normal;font-size:16px;font-family:Comfortaa, sans-serif;letter-spacing:4px;fill:#333333"
       id="path303" />
  </g>
  <g
     aria-label="BOGAUDIO"
     style="font-weight:bold;font-size:10.66666698px;font-family:Audiowide, sans-serif;letter-spacing:2px;fill:#333333"
     id="text56">
    <path
       d="m 118.23958,372.35937 q 0,0.25 -0.0885,0.53646 -0.0833,0.28646 -0.28125,0.53125 -0.19271,0.24479 -0.50521,0.41146 Q 117.05208,374 116.59896,374 h -5.14063 q -0.14583,0 -0.27083,-0.0521 -0.125,-0.0521 -0.21875,-0.14063 -0.0885,-0.0937 -0.14062,-0.21875 -0.0521,-0.125 -0.0521,-0.27083 v -6.10417 q 0,-0.14062 0.0521,-0.26562 0.0521,-0.125 0.14062,-0.21875 0.0937,-0.0937 0.21875,-0.14584 0.125,-0.0521 0.27083,-0.0521 h 4.53125 q 0.25,0 0.53646,0.0885 0.28646,0.0885 0.53125,0.28646 0.25,0.19271 0.41146,0.50521 0.16667,0.3125 0.16667,0.76562 v 0.25521 q 0,0.35938 -0.11979,0.77604 -0.1198,0.41146 -0.38542,0.78125 0.22917,0.14063 0.42708,0.33854 0.20313,0.19792 0.35417,0.45834 0.15104,0.26041 0.23958,0.58854 0.0885,0.32812 0.0885,0.72396 z m -1.35416,-0.26041 q 0,-0.26563 -0.0833,-0.47396 -0.0833,-0.21354 -0.23437,-0.36458 -0.15104,-0.15105 -0.36458,-0.22917 -0.21355,-0.0833 -0.47917,-0.0833 h -3.05208 v -1.36459 h 2.4427 q 0.26563,0 0.47917,-0.0781 0.21354,-0.0833 0.36458,-0.23438 0.15105,-0.15104 0.22917,-0.35937 0.0833,-0.21354 0.0833,-0.47917 v -0.25521 q 0,-0.29166 -0.28125,-0.29166 h -3.85937 v 4.76041 h 4.46875 q 0.0365,0 0.0885,-0.005 0.0521,-0.005 0.0937,-0.0312 0.0417,-0.026 0.0729,-0.0885 0.0312,-0.0625 0.0312,-0.17187 z"
       style="font-weight:bold;font-size:10.66666698px;font-family:Audiowide, sans-serif;letter-spacing:2px;fill:#333333"
       id="path306" />
    <path
       d="m 129.25,370.97917 q 0,0.68229 -0.23437,1.2552 -0.23438,0.57292 -0.65105,0.98959 -0.41666,0.41666 -0.98958,0.65104 -0.56771,0.22917 -1.23958,0.22917 h -1.83334 q -0.67187,0 -1.24479,-0.22917 -0.57291,-0.23438 -0.98958,-0.65104 -0.41667,-0.41667 -0.65625,-0.98959 -0.23438,-0.57291 -0.23438,-1.2552 v -1.42709 q 0,-0.67708 0.23438,-1.25 0.23958,-0.57812 0.65625,-0.98958 0.41667,-0.41667 0.98958,-0.65104 0.57292,-0.23438 1.24479,-0.23438 h 1.83334 q 0.67187,0 1.23958,0.23438 0.57292,0.23437 0.98958,0.65104 0.41667,0.41146 0.65105,0.98958 0.23437,0.57292 0.23437,1.25 z m -1.35417,-1.42709 q 0,-0.40104 -0.1302,-0.72396 -0.125,-0.32812 -0.35938,-0.55729 -0.22917,-0.23437 -0.55729,-0.35937 -0.32292,-0.13021 -0.71354,-0.13021 h -1.83334 q -0.39583,0 -0.72395,0.13021 -0.32292,0.125 -0.5573,0.35937 -0.23437,0.22917 -0.36458,0.55729 -0.125,0.32292 -0.125,0.72396 v 1.42709 q 0,0.40104 0.125,0.72916 0.13021,0.32292 0.36458,0.55729 0.23438,0.22917 0.5573,0.35938 0.32812,0.125 0.72395,0.125 h 1.82292 q 0.39583,0 0.71875,-0.125 0.32813,-0.13021 0.5625,-0.35938 0.23438,-0.23437 0.35938,-0.55729 0.1302,-0.32812 0.1302,-0.72916 z"
       style="font-weight:bold;font-size:10.66666698px;font-family:Audiowide, sans-serif;letter-spacing:2px;fill:#333333"
       id="path308" />
    <path
       d="m 139.96875,373.31771 q 0,0.14583 -0.0521,0.27083 -0.0521,0.125 -0.14584,0.21875 -0.0885,0.0885 -0.21354,0.14063 -0.125,0.0521 -0.27083,0.0521 h -4.88542 q -0.1875,0 -0.40625,-0.0417 -0.21354,-0.0469 -0.42708,-0.14062 -0.20833,-0.0937 -0.40104,-0.23959 -0.19271,-0.15104 -0.34375,-0.35937 -0.14584,-0.21354 -0.23438,-0.48958 -0.0885,-0.28125 -0.0885,-0.63021 v -3.66667 q 0,-0.1875 0.0417,-0.40104 0.0469,-0.21875 0.14062,-0.42708 0.0937,-0.21355 0.24479,-0.40625 0.15105,-0.19271 0.35938,-0.33855 0.21354,-0.15104 0.48958,-0.23958 0.27604,-0.0885 0.625,-0.0885 h 5.50521 v 1.35417 h -5.50521 q -0.26562,0 -0.40625,0.14062 -0.14062,0.14063 -0.14062,0.41667 v 3.65625 q 0,0.26041 0.14062,0.40625 0.14584,0.14062 0.40625,0.14062 h 4.21354 v -1.69791 h -3.60416 v -1.36459 h 4.27604 q 0.14583,0 0.27083,0.0573 0.125,0.0521 0.21354,0.14584 0.0937,0.0937 0.14584,0.21875 0.0521,0.11979 0.0521,0.26041 z"
       style="font-weight:bold;font-size:10.66666698px;font-family:Audiowide, sans-serif;letter-spacing:2px;fill:#333333"
       id="path310" />
    <path
       d="m 150.71875,374 h -1.35417 v -1.83333 h -4.76041 V 374 H 143.25 v -3.73438 q 0,-0.8177 0.28125,-1.5052 0.28125,-0.6875 0.78125,-1.1823 0.5,-0.49479 1.18229,-0.77083 0.68229,-0.27604 1.48959,-0.27604 h 3.05208 q 0.14062,0 0.26562,0.0521 0.125,0.0521 0.21875,0.14584 0.0937,0.0937 0.14584,0.21875 0.0521,0.125 0.0521,0.26562 z m -6.11458,-3.1875 h 4.76041 v -2.92708 h -2.3802 q -0.0625,0 -0.26563,0.0208 -0.19792,0.0156 -0.46354,0.0885 -0.26042,0.0729 -0.55208,0.22396 -0.29167,0.15104 -0.53646,0.41667 -0.24479,0.26562 -0.40625,0.66666 -0.15625,0.39584 -0.15625,0.96354 z"
       style="font-weight:bold;font-size:10.66666698px;font-family:Audiowide, sans-serif;letter-spacing:2px;fill:#333333"
       id="path312" />
    <path
       d="m 161.60417,373.31771 q 0,0.14583 -0.0521,0.27083 -0.0521,0.125 -0.14583,0.21875 -0.0937,0.0885 -0.21875,0.14063 Q 161.0625,374 160.92188,374 h -3.05209 q -0.43229,0 -0.875,-0.0937 -0.44271,-0.0937 -0.85937,-0.28646 -0.41146,-0.19792 -0.77604,-0.5 -0.36459,-0.30208 -0.64063,-0.71354 -0.27083,-0.41667 -0.42708,-0.94792 -0.15625,-0.53646 -0.15625,-1.19271 v -3.73437 h 1.35416 v 3.73437 q 0,0.57292 0.15625,0.96875 0.16146,0.39584 0.40625,0.66146 0.2448,0.26563 0.53646,0.41667 0.29167,0.15104 0.55209,0.22396 0.26562,0.0729 0.46354,0.0937 0.20312,0.0156 0.26562,0.0156 H 160.25 v -6.11458 h 1.35417 z"
       style="font-weight:bold;font-size:10.66666698px;font-family:Audiowide, sans-serif;letter-spacing:2px;fill:#333333"
       id="path314" />
    <path
       d="m 172.63542,370.875 q 0,0.68229 -0.23958,1.25521 -0.23438,0.57291 -0.65105,0.98958 -0.41666,0.41146 -0.98958,0.64583 Q 170.18229,374 169.51042,374 h -3.65625 q -0.14583,0 -0.27083,-0.0521 -0.125,-0.0521 -0.21875,-0.14063 -0.0885,-0.0937 -0.14063,-0.21875 -0.0521,-0.125 -0.0521,-0.27083 v -6.10417 q 0,-0.14062 0.0521,-0.26562 0.0521,-0.125 0.14063,-0.21875 0.0937,-0.0937 0.21875,-0.14584 0.125,-0.0521 0.27083,-0.0521 h 3.65625 q 0.67187,0 1.24479,0.23437 0.57292,0.23438 0.98958,0.65105 0.41667,0.41145 0.65105,0.98958 0.23958,0.57292 0.23958,1.25 z m -1.35417,-1.21875 q 0,-0.39583 -0.13021,-0.72396 -0.125,-0.32812 -0.35937,-0.55729 -0.23438,-0.23438 -0.5625,-0.35938 -0.32292,-0.1302 -0.71875,-0.1302 h -2.98438 v 4.76041 h 2.98438 q 0.39583,0 0.71875,-0.125 0.32812,-0.13021 0.5625,-0.35937 0.23437,-0.23438 0.35937,-0.55729 0.13021,-0.32813 0.13021,-0.72917 z"
       style="font-weight:bold;font-size:10.66666698px;font-family:Audiowide, sans-serif;letter-spacing:2px;fill:#333333"
       id="path316" />
    <path
       d="m 177.33854,374 h -1.35416 v -7.46875 h 1.35416 z"
       style="font-weight:bold;font-size:10.66666698px;font-family:Audiowide, sans-serif;letter-spacing:2px;fill:#333333"
       id="path318" />
    <path
       d="m 188.77084,370.97917 q 0,0.68229 -0.23438,1.2552 -0.23437,0.57292 -0.65104,0.98959 -0.41667,0.41666 -0.98958,0.65104 -0.56771,0.22917 -1.23959,0.22917 h -1.83333 q -0.67188,0 -1.24479,-0.22917 -0.57292,-0.23438 -0.98959,-0.65104 -0.41666,-0.41667 -0.65625,-0.98959 -0.23437,-0.57291 -0.23437,-1.2552 v -1.42709 q 0,-0.67708 0.23437,-1.25 0.23959,-0.57812 0.65625,-0.98958 0.41667,-0.41667 0.98959,-0.65104 0.57291,-0.23438 1.24479,-0.23438 h 1.83333 q 0.67188,0 1.23959,0.23438 0.57291,0.23437 0.98958,0.65104 0.41667,0.41146 0.65104,0.98958 0.23438,0.57292 0.23438,1.25 z m -1.35417,-1.42709 q 0,-0.40104 -0.13021,-0.72396 -0.125,-0.32812 -0.35937,-0.55729 -0.22917,-0.23437 -0.5573,-0.35937 -0.32291,-0.13021 -0.71354,-0.13021 h -1.83333 q -0.39583,0 -0.72396,0.13021 -0.32292,0.125 -0.55729,0.35937 -0.23438,0.22917 -0.36458,0.55729 -0.125,0.32292 -0.125,0.72396 v 1.42709 q 0,0.40104 0.125,0.72916 0.1302,0.32292 0.36458,0.55729 0.23437,0.22917 0.55729,0.35938 0.32813,0.125 0.72396,0.125 h 1.82292 q 0.39583,0 0.71875,-0.125 0.32812,-0.13021 0.5625,-0.35938 0.23437,-0.23437 0.35937,-0.55729 0.13021,-0.32812 0.13021,-0.72916 z"
       style="font-weight:bold;font-size:10.66666698px;font-family:Audiowide, sans-serif;letter-spacing:2px;fill:#333333"
       id="path320" />
  </g>
  <path
     style="fill:#dddddd"
     d="m 134,369 h 3 v 3 h -3 z"
     id="rect58" />
  <g
     id="g64"
     transform="translate(20,50)">
    <!-- <polyline points="0,19 70,19" stroke="#0f0" stroke-width="1" fill="none" /> -->
    <g
       aria-label="FREQUENCY"
       transform="rotate(-90,32.5,24.5)"
       style="font-weight:bold;font-size:10.66666698px;font-family:Roboto, sans-serif;letter-spacing:2px;fill:#333333"
       id="text62">
      <path
         d="M 5.2395835,-3.0989584 H 2.2395834 V 0 H 0.67708335 V -7.5833336 H 5.6145835 v 1.2656251 H 2.2395834 v 1.9583334 h 3.0000001 z"
         style="font-weight:bold;font-size:10.66666698px;font-family:Roboto, sans-serif;letter-spacing:2px;fill:#333333"
         id="path324" />
      <path
         d="M 11.338542,-2.7760417 H 10.09375 V 0 H 8.5312503 v -7.5833336 h 2.8177087 q 1.34375,0 2.072916,0.5989584 0.729167,0.5989583 0.729167,1.6927084 0,0.7760417 -0.338542,1.296875 -0.333333,0.515625 -1.015625,0.8229167 l 1.640626,3.09895843 V 0 H 12.760417 Z M 10.09375,-4.0416668 h 1.260417 q 0.588542,0 0.911458,-0.296875 0.322917,-0.3020833 0.322917,-0.828125 0,-0.5364584 -0.307292,-0.84375 -0.302083,-0.3072917 -0.932291,-0.3072917 H 10.09375 Z"
         style="font-weight:bold;font-size:10.66666698px;font-family:Roboto, sans-serif;letter-spacing:2px;fill:#333333"
         id="path326" />
      <path
         d="m 21.906251,-3.2864584 h -3 v 2.03125 h 3.520834 V 0 h -5.083334 v -7.5833336 h 5.072917 v 1.2656251 h -3.510417 v 1.8072917 h 3 z"
         style="font-weight:bold;font-size:10.66666698px;font-family:Roboto, sans-serif;letter-spacing:2px;fill:#333333"
         id="path328" />
      <path
         d="m 31.562501,-3.6197918 q 0,1.0625001 -0.34375,1.8489584 -0.34375,0.78125004 -0.953125,1.25520838 L 31.526043,0.47395835 30.531251,1.3541667 28.916668,0.05729167 q -0.276042,0.046875 -0.572917,0.046875 -0.942708,0 -1.682291,-0.45312501 -0.739584,-0.45312502 -1.145834,-1.29166666 -0.40625,-0.8437501 -0.411458,-1.9375001 v -0.375 q 0,-1.1197917 0.401042,-1.9687501 0.40625,-0.8541667 1.140625,-1.3072917 0.739583,-0.4583333 1.6875,-0.4583333 0.947916,0 1.682291,0.4583333 0.739584,0.453125 1.140625,1.3072917 0.40625,0.8489584 0.40625,1.9635417 z m -1.583333,-0.34375 q 0,-1.1927084 -0.427083,-1.8125 -0.427084,-0.6197917 -1.21875,-0.6197917 -0.786459,0 -1.213542,0.6145833 -0.427083,0.609375 -0.432292,1.7916667 v 0.3697917 q 0,1.1614584 0.427084,1.8020834 0.427083,0.640625 1.229166,0.640625 0.786459,0 1.208334,-0.6145833 0.421875,-0.6197917 0.427083,-1.8020834 z"
         style="font-weight:bold;font-size:10.66666698px;font-family:Roboto, sans-serif;letter-spacing:2px;fill:#333333"
         id="path330" />
      <path
         d="m 40.458335,-7.5833336 v 4.9947919 q 0,1.2447917 -0.78125,1.96875001 -0.776042,0.72395836 -2.125,0.72395836 -1.328125,0 -2.109375,-0.70312502 -0.78125,-0.70312505 -0.796875,-1.93229175 v -5.0520835 h 1.5625 v 5.0052085 q 0,0.7447917 0.354166,1.0885417 0.359375,0.3385417 0.989584,0.3385417 1.317708,0 1.338541,-1.3854167 v -5.0468752 z"
         style="font-weight:bold;font-size:10.66666698px;font-family:Roboto, sans-serif;letter-spacing:2px;fill:#333333"
         id="path332" />
      <path
         d="m 48.302083,-3.2864584 h -3 v 2.03125 h 3.520834 V 0 H 43.739583 V -7.5833336 H 48.8125 v 1.2656251 h -3.510417 v 1.8072917 h 3 z"
         style="font-weight:bold;font-size:10.66666698px;font-family:Roboto, sans-serif;letter-spacing:2px;fill:#333333"
         id="path334" />
      <path
         d="m 57.90625,0 h -1.5625 L 53.302083,-4.9895835 V 0 h -1.5625 v -7.5833336 h 1.5625 l 3.046875,5.0000002 v -5.0000002 h 1.557292 z"
         style="font-weight:bold;font-size:10.66666698px;font-family:Roboto, sans-serif;letter-spacing:2px;fill:#333333"
         id="path336" />
      <path
         d="m 67.234376,-2.5260417 q -0.08854,1.2239583 -0.90625,1.92708335 -0.8125,0.70312502 -2.145833,0.70312502 -1.458333,0 -2.296875,-0.9791667 -0.833333,-0.98437507 -0.833333,-2.69791677 v -0.4635417 q 0,-1.09375 0.385416,-1.9270833 0.385417,-0.8333334 1.098959,-1.2760417 0.71875,-0.4479167 1.666666,-0.4479167 1.3125,0 2.114584,0.703125 0.802083,0.703125 0.927083,1.9739584 h -1.5625 q -0.05729,-0.734375 -0.411458,-1.0625 -0.348959,-0.3333334 -1.067709,-0.3333334 -0.78125,0 -1.171875,0.5625 -0.385416,0.5572917 -0.395833,1.7343751 v 0.5729167 q 0,1.2291667 0.369792,1.796875 0.375,0.5677084 1.177083,0.5677084 0.723958,0 1.078125,-0.328125 0.359375,-0.3333334 0.411458,-1.0260417 z"
         style="font-weight:bold;font-size:10.66666698px;font-family:Roboto, sans-serif;letter-spacing:2px;fill:#333333"
         id="path338" />
      <path
         d="m 72.875003,-4.1666668 1.578125,-3.4166668 h 1.708333 l -2.489583,4.8333335 V 0 h -1.588542 v -2.7500001 l -2.489583,-4.8333335 h 1.713541 z"
         style="font-weight:bold;font-size:10.66666698px;font-family:Roboto, sans-serif;letter-spacing:2px;fill:#333333"
         id="path340" />
    </g>
  </g>
  <g
     id="g68"
     transform="translate(100,50)">
    <!-- <polyline points="0,19 68,19" stroke="#0f0" stroke-width="1" fill="none" /> -->
    <g
       aria-label="PARTIALS"
       transform="rotate(-90,29,21)"
       style="font-weight:bold;font-size:10.66666698px;font-family:Roboto, sans-serif;letter-spacing:2px;fill:#333333"
       id="text66">
      <path
         d="M 2.2395834,-2.6718751 V 0 H 0.67708335 V -7.5833336 H 3.6354168 q 0.8541667,0 1.5,0.3125 0.6510417,0.3125001 1,0.8906251 0.3489584,0.5729167 0.3489584,1.3072917 0,1.1145833 -0.765625,1.7604167 -0.7604167,0.640625 -2.1093751,0.640625 z m 0,-1.265625 h 1.3958334 q 0.6197917,0 0.9427083,-0.2916667 0.328125,-0.2916667 0.328125,-0.8333334 0,-0.5572916 -0.328125,-0.9010416 -0.328125,-0.3437501 -0.90625,-0.3541667 H 2.2395834 Z"
         style="font-weight:bold;font-size:10.66666698px;font-family:Roboto, sans-serif;letter-spacing:2px;fill:#333333"
         id="path343" />
      <path
         d="M 12.916667,-1.5625 H 10.177084 L 9.6562502,0 H 7.9947918 l 2.8229172,-7.5833336 h 1.447916 L 15.104167,0 h -1.661458 z m -2.317708,-1.2656251 h 1.895833 l -0.953125,-2.8385417 z"
         style="font-weight:bold;font-size:10.66666698px;font-family:Roboto, sans-serif;letter-spacing:2px;fill:#333333"
         id="path345" />
      <path
         d="M 20.630209,-2.7760417 H 19.385417 V 0 h -1.5625 v -7.5833336 h 2.817709 q 1.34375,0 2.072916,0.5989584 0.729167,0.5989583 0.729167,1.6927084 0,0.7760417 -0.338542,1.296875 -0.333333,0.515625 -1.015625,0.8229167 l 1.640625,3.09895843 V 0 h -1.677083 z m -1.244792,-1.2656251 h 1.260417 q 0.588542,0 0.911458,-0.296875 0.322917,-0.3020833 0.322917,-0.828125 0,-0.5364584 -0.307292,-0.84375 -0.302083,-0.3072917 -0.932291,-0.3072917 h -1.255209 z"
         style="font-weight:bold;font-size:10.66666698px;font-family:Roboto, sans-serif;letter-spacing:2px;fill:#333333"
         id="path347" />
      <path
         d="M 32.093751,-6.3177085 H 29.770834 V 0 h -1.5625 v -6.3177085 h -2.291667 v -1.2656251 h 6.177084 z"
         style="font-weight:bold;font-size:10.66666698px;font-family:Roboto, sans-serif;letter-spacing:2px;fill:#333333"
         id="path349" />
      <path
         d="m 36.651042,0 h -1.5625 v -7.5833336 h 1.5625 z"
         style="font-weight:bold;font-size:10.66666698px;font-family:Roboto, sans-serif;letter-spacing:2px;fill:#333333"
         id="path351" />
      <path
         d="M 44.479169,-1.5625 H 41.739586 L 41.218753,0 h -1.661459 l 2.822917,-7.5833336 h 1.447917 L 46.666669,0 h -1.661458 z m -2.317708,-1.2656251 h 1.895833 l -0.953125,-2.8385417 z"
         style="font-weight:bold;font-size:10.66666698px;font-family:Roboto, sans-serif;letter-spacing:2px;fill:#333333"
         id="path353" />
      <path
         d="m 50.947919,-1.2552084 h 3.317709 V 0 h -4.880209 v -7.5833336 h 1.5625 z"
         style="font-weight:bold;font-size:10.66666698px;font-family:Roboto, sans-serif;letter-spacing:2px;fill:#333333"
         id="path355" />
      <path
         d="m 61.088543,-1.9895834 q 0,-0.4427083 -0.3125,-0.6770833 -0.3125,-0.2395834 -1.125,-0.5000001 -0.8125,-0.265625 -1.286458,-0.5208333 -1.291667,-0.6979167 -1.291667,-1.8802084 0,-0.6145834 0.34375,-1.09375 0.348958,-0.484375 0.994792,-0.7552084 0.651041,-0.2708333 1.458333,-0.2708333 0.8125,0 1.447917,0.296875 0.635416,0.2916667 0.984375,0.828125 0.354166,0.5364584 0.354166,1.21875 h -1.5625 q 0,-0.5208333 -0.328125,-0.8072916 -0.328125,-0.2916667 -0.921875,-0.2916667 -0.572916,0 -0.890625,0.2447916 -0.317708,0.2395834 -0.317708,0.6354167 0,0.3697917 0.369792,0.6197917 0.375,0.25 1.098958,0.46875 1.333333,0.4010417 1.942708,0.9947917 0.609375,0.59375 0.609375,1.4791667 0,0.9843751 -0.744791,1.54687509 -0.744792,0.55729168 -2.005209,0.55729168 -0.875,0 -1.59375,-0.31770834 -0.71875,-0.32291668 -1.098958,-0.88020833 -0.375,-0.5572917 -0.375,-1.2916667 h 1.567708 q 0,1.2552083 1.5,1.2552083 0.557292,0 0.869792,-0.2239583 0.3125,-0.2291667 0.3125,-0.6354167 z"
         style="font-weight:bold;font-size:10.66666698px;font-family:Roboto, sans-serif;letter-spacing:2px;fill:#333333"
         id="path357" />
    </g>
  </g>
  <g
     id="g72"
     transform="translate(180,50)">
    <!-- <polyline points="0,19 68,19" stroke="#0f0" stroke-width="1" fill="none" /> -->
    <g
       aria-label="WIDTH"
       transform="rotate(-90,23.5,15.5)"
       style="font-weight:bold;font-size:10.66666698px;font-family:Roboto, sans-serif;letter-spacing:2px;fill:#333333"
       id="text70">
      <path
         d="M 6.5833335,-2.1875001 7.6041669,-7.5833336 H 9.1614586 L 7.4791669,0 H 5.9062502 L 4.6718751,-5.0729168 3.4375001,0 H 1.8645834 L 0.18229167,-7.5833336 H 1.7395834 l 1.0260417,5.3854169 1.25,-5.3854169 h 1.3229167 z"
         style="font-weight:bold;font-size:10.66666698px;font-family:Roboto, sans-serif;letter-spacing:2px;fill:#333333"
         id="path360" />
      <path
         d="m 13.671876,0 h -1.5625 v -7.5833336 h 1.5625 z"
         style="font-weight:bold;font-size:10.66666698px;font-family:Roboto, sans-serif;letter-spacing:2px;fill:#333333"
         id="path362" />
      <path
         d="m 17.114583,0 v -7.5833336 h 2.333334 q 1,0 1.786458,0.4531251 0.791667,0.4479166 1.234375,1.28125 0.442709,0.828125 0.442709,1.8854167 v 0.3489584 q 0,1.0572917 -0.4375,1.8802083 Q 22.041667,-0.91145836 21.25,-0.45833335 20.458333,-0.00520833 19.463542,0 Z m 1.5625,-6.3177085 v 5.0625001 h 0.755209 q 0.916666,0 1.401041,-0.5989583 0.484375,-0.5989584 0.494792,-1.7135417 v -0.4010417 q 0,-1.1562501 -0.479167,-1.7500001 -0.479166,-0.5989583 -1.401041,-0.5989583 z"
         style="font-weight:bold;font-size:10.66666698px;font-family:Roboto, sans-serif;letter-spacing:2px;fill:#333333"
         id="path364" />
      <path
         d="M 31.322917,-6.3177085 H 29 V 0 h -1.5625 v -6.3177085 h -2.291667 v -1.2656251 h 6.177084 z"
         style="font-weight:bold;font-size:10.66666698px;font-family:Roboto, sans-serif;letter-spacing:2px;fill:#333333"
         id="path366" />
      <path
         d="m 40.390626,0 h -1.5625 V -3.2500001 H 35.781251 V 0 h -1.5625 v -7.5833336 h 1.5625 v 3.0729168 h 3.046875 v -3.0729168 h 1.5625 z"
         style="font-weight:bold;font-size:10.66666698px;font-family:Roboto, sans-serif;letter-spacing:2px;fill:#333333"
         id="path368" />
    </g>
  </g>
  <g
     id="g74"
     transform="translate(230,30)">
    <!-- <polyline points="0,19 68,19" stroke="#0f0" stroke-width="1" fill="none" /> -->
    <!-- <text font-size="8pt" letter-spacing="2px" transform="translate(8 39) rotate(270)">WIDTH</text> -->
  </g>
  <g
     id="g76"
     transform="translate(230,70)">
    <!-- <polyline points="0,19 68,19" stroke="#0f0" stroke-width="1" fill="none" /> -->
    <!-- <text font-size="8pt" letter-spacing="2px" transform="translate(8 39) rotate(270)">WIDTH</text> -->
  </g>
  <g
     id="g82"
     transform="translate(20,130)">
    <!-- <polyline points="0,19 70,19" stroke="#0f0" stroke-width="1" fill="none" /> -->
    <g
       aria-label="GAIN"
       transform="rotate(-90,22,14)"
       style="font-weight:bold;font-size:10.66666698px;font-family:Roboto, sans-serif;letter-spacing:2px;fill:#333333"
       id="text80">
      <path
         d="m 6.6770835,-0.95833336 q -0.421875,0.50520835 -1.1927083,0.78645835 -0.7708334,0.27604168 -1.7083334,0.27604168 -0.9843751,0 -1.7291667,-0.42708335 Q 1.3072917,-0.75520836 0.90104169,-1.5729167 0.50000001,-2.3906251 0.48958335,-3.4947918 v -0.515625 q 0,-1.1354167 0.38020834,-1.9635417 0.38541671,-0.8333334 1.10416671,-1.2708334 0.7239583,-0.4427083 1.6927084,-0.4427083 1.3489583,0 2.109375,0.6458333 0.7604167,0.640625 0.9010417,1.8697917 H 5.1562502 Q 5.0520835,-5.8229168 4.6927085,-6.1250002 4.3385418,-6.4270835 3.7135418,-6.4270835 q -0.796875,0 -1.2135417,0.5989583 -0.4166667,0.5989584 -0.421875,1.7812501 v 0.484375 q 0,1.1927084 0.453125,1.8020834 0.453125,0.609375 1.328125,0.609375 0.8802084,0 1.2552084,-0.375 V -2.8333334 H 3.6927084 v -1.1510417 h 2.9843751 z"
         style="font-weight:bold;font-size:10.66666698px;font-family:Roboto, sans-serif;letter-spacing:2px;fill:#333333"
         id="path371" />
      <path
         d="M 14.229167,-1.5625 H 11.489584 L 10.968751,0 H 9.3072923 l 2.8229167,-7.5833336 h 1.447917 L 16.416668,0 h -1.661459 z m -2.317708,-1.2656251 h 1.895833 l -0.953125,-2.8385417 z"
         style="font-weight:bold;font-size:10.66666698px;font-family:Roboto, sans-serif;letter-spacing:2px;fill:#333333"
         id="path373" />
      <path
         d="m 20.796876,0 h -1.5625 v -7.5833336 h 1.5625 z"
         style="font-weight:bold;font-size:10.66666698px;font-family:Roboto, sans-serif;letter-spacing:2px;fill:#333333"
         id="path375" />
      <path
         d="m 30.40625,0 h -1.5625 L 25.802083,-4.9895835 V 0 h -1.5625 v -7.5833336 h 1.5625 l 3.046875,5.0000002 v -5.0000002 h 1.557292 z"
         style="font-weight:bold;font-size:10.66666698px;font-family:Roboto, sans-serif;letter-spacing:2px;fill:#333333"
         id="path377" />
    </g>
  </g>
  <g
     id="g86"
     transform="translate(100,130)">
    <!-- <polyline points="0,19 70,19" stroke="#0f0" stroke-width="1" fill="none" /> -->
    <g
       aria-label="DECAY"
       transform="rotate(-90,24,16)"
       style="font-weight:bold;font-size:10.66666698px;font-family:Roboto, sans-serif;letter-spacing:2px;fill:#333333"
       id="text84">
      <path
         d="M 0.67708335,0 V -7.5833336 H 3.0104168 q 1,0 1.7864583,0.4531251 0.7916667,0.4479166 1.2343751,1.28125 0.4427083,0.828125 0.4427083,1.8854167 v 0.3489584 q 0,1.0572917 -0.4375,1.8802083 Q 5.6041668,-0.91145836 4.8125001,-0.45833335 4.0208335,-0.00520833 3.0260418,0 Z M 2.2395834,-6.3177085 v 5.0625001 h 0.7552084 q 0.9166666,0 1.4010417,-0.5989583 0.484375,-0.5989584 0.4947916,-1.7135417 v -0.4010417 q 0,-1.1562501 -0.4791666,-1.7500001 -0.4791667,-0.5989583 -1.4010417,-0.5989583 z"
         style="font-weight:bold;font-size:10.66666698px;font-family:Roboto, sans-serif;letter-spacing:2px;fill:#333333"
         id="path380" />
      <path
         d="m 14.177083,-3.2864584 h -3 v 2.03125 h 3.520834 V 0 H 9.6145834 V -7.5833336 H 14.6875 v 1.2656251 h -3.510417 v 1.8072917 h 3 z"
         style="font-weight:bold;font-size:10.66666698px;font-family:Roboto, sans-serif;letter-spacing:2px;fill:#333333"
         id="path382" />
      <path
         d="m 23.567709,-2.5260417 q -0.08854,1.2239583 -0.90625,1.92708335 -0.812501,0.70312502 -2.145834,0.70312502 -1.458333,0 -2.296875,-0.9791667 -0.833333,-0.98437507 -0.833333,-2.69791677 v -0.4635417 q 0,-1.09375 0.385416,-1.9270833 0.385417,-0.8333334 1.098959,-1.2760417 0.71875,-0.4479167 1.666666,-0.4479167 1.3125,0 2.114584,0.703125 0.802083,0.703125 0.927083,1.9739584 h -1.5625 q -0.05729,-0.734375 -0.411458,-1.0625 -0.348959,-0.3333334 -1.067709,-0.3333334 -0.78125,0 -1.171875,0.5625 -0.385416,0.5572917 -0.395833,1.7343751 v 0.5729167 q 0,1.2291667 0.369792,1.796875 0.375,0.5677084 1.177083,0.5677084 0.723958,0 1.078125,-0.328125 0.359375,-0.3333334 0.411458,-1.0260417 z"
         style="font-weight:bold;font-size:10.66666698px;font-family:Roboto, sans-serif;letter-spacing:2px;fill:#333333"
         id="path384" />
      <path
         d="M 30.875001,-1.5625 H 28.135418 L 27.614585,0 h -1.661459 l 2.822917,-7.5833336 H 30.22396 L 33.062501,0 h -1.661458 z m -2.317708,-1.2656251 h 1.895833 l -0.953125,-2.8385417 z"
         style="font-weight:bold;font-size:10.66666698px;font-family:Roboto, sans-serif;letter-spacing:2px;fill:#333333"
         id="path386" />
      <path
         d="m 37.625003,-4.1666668 1.578125,-3.4166668 h 1.708333 l -2.489583,4.8333335 V 0 h -1.588542 v -2.7500001 l -2.489583,-4.8333335 h 1.713541 z"
         style="font-weight:bold;font-size:10.66666698px;font-family:Roboto, sans-serif;letter-spacing:2px;fill:#333333"
         id="path388" />
    </g>
  </g>
  <g
     id="g90"
     transform="translate(180,130)">
    <!-- <polyline points="0,19 68,19" stroke="#0f0" stroke-width="1" fill="none" /> -->
    <g
       aria-label="BALANCE"
       transform="rotate(-90,29,21)"
       style="font-weight:bold;font-size:10.66666698px;font-family:Roboto, sans-serif;letter-spacing:2px;fill:#333333"
       id="text88">
      <path
         d="M 0.67708335,0 V -7.5833336 H 3.3333334 q 1.3802084,0 2.0937501,0.5312501 0.7135417,0.5260416 0.7135417,1.546875 0,0.5572917 -0.2864584,0.984375 -0.2864583,0.421875 -0.796875,0.6197917 0.5833334,0.1458334 0.9166667,0.5885417 0.3385417,0.4427083 0.3385417,1.0833334 0,1.09375 -0.6979167,1.65625002 Q 4.9166668,-0.01041667 3.6250001,0 Z M 2.2395834,-3.3020834 v 2.046875 h 1.3385417 q 0.5520834,0 0.859375,-0.2604166 0.3125,-0.2656251 0.3125,-0.7291667 0,-1.0416667 -1.078125,-1.0572917 z m 0,-1.1041667 h 1.15625 q 1.1822917,-0.020833 1.1822917,-0.9427084 0,-0.515625 -0.3020833,-0.7395833 -0.296875,-0.2291667 -0.9427084,-0.2291667 h -1.09375 z"
         style="font-weight:bold;font-size:10.66666698px;font-family:Roboto, sans-serif;letter-spacing:2px;fill:#333333"
         id="path391" />
      <path
         d="M 13.770833,-1.5625 H 11.03125 L 10.510417,0 H 8.8489583 l 2.8229167,-7.5833336 h 1.447917 L 15.958334,0 h -1.661459 z m -2.317708,-1.2656251 h 1.895833 l -0.953125,-2.8385417 z"
         style="font-weight:bold;font-size:10.66666698px;font-family:Roboto, sans-serif;letter-spacing:2px;fill:#333333"
         id="path393" />
      <path
         d="m 20.239583,-1.2552084 h 3.317709 V 0 h -4.880209 v -7.5833336 h 1.5625 z"
         style="font-weight:bold;font-size:10.66666698px;font-family:Roboto, sans-serif;letter-spacing:2px;fill:#333333"
         id="path395" />
      <path
         d="M 30.833333,-1.5625 H 28.09375 L 27.572917,0 h -1.661459 l 2.822917,-7.5833336 h 1.447917 L 33.020834,0 h -1.661459 z m -2.317708,-1.2656251 h 1.895833 l -0.953125,-2.8385417 z"
         style="font-weight:bold;font-size:10.66666698px;font-family:Roboto, sans-serif;letter-spacing:2px;fill:#333333"
         id="path397" />
      <path
         d="m 41.90625,0 h -1.5625 L 37.302083,-4.9895835 V 0 h -1.5625 v -7.5833336 h 1.5625 l 3.046875,5.0000002 v -5.0000002 h 1.557292 z"
         style="font-weight:bold;font-size:10.66666698px;font-family:Roboto, sans-serif;letter-spacing:2px;fill:#333333"
         id="path399" />
      <path
         d="m 51.234376,-2.5260417 q -0.08854,1.2239583 -0.90625,1.92708335 -0.8125,0.70312502 -2.145833,0.70312502 -1.458333,0 -2.296875,-0.9791667 -0.833333,-0.98437507 -0.833333,-2.69791677 v -0.4635417 q 0,-1.09375 0.385416,-1.9270833 0.385417,-0.8333334 1.098959,-1.2760417 0.71875,-0.4479167 1.666666,-0.4479167 1.3125,0 2.114584,0.703125 0.802083,0.703125 0.927083,1.9739584 h -1.5625 q -0.05729,-0.734375 -0.411458,-1.0625 -0.348959,-0.3333334 -1.067709,-0.3333334 -0.78125,0 -1.171875,0.5625 -0.385416,0.5572917 -0.395833,1.7343751 v 0.5729167 q 0,1.2291667 0.369792,1.796875 0.375,0.5677084 1.177083,0.5677084 0.723958,0 1.078125,-0.328125 0.359375,-0.3333334 0.411458,-1.0260417 z"
         style="font-weight:bold;font-size:10.66666698px;font-family:Roboto, sans-serif;letter-spacing:2px;fill:#333333"
         id="path401" />
      <path
         d="m 58.822919,-3.2864584 h -3 v 2.03125 h 3.520834 V 0 h -5.083334 v -7.5833336 h 5.072917 v 1.2656251 h -3.510417 v 1.8072917 h 3 z"
         style="font-weight:bold;font-size:10.66666698px;font-family:Roboto, sans-serif;letter-spacing:2px;fill:#333333"
         id="path403" />
    </g>
  </g>
  <g
     id="g92"
     transform="translate(230,130)">
    <!-- <polyline points="0,19 68,19" stroke="#0f0" stroke-width="1" fill="none" /> -->
    <!-- <text font-size="8pt" letter-spacing="2px" transform="translate(8 50) rotate(270)">BALANCE</text> -->
  </g>
  <g
     id="g100"
     transform="translate(10,200)">
    <path
       style="fill:#fafafa"
       d="m 5,0 h 20 c 2.77,0 5,2.23 5,5 v 30 c 0,2.77 -2.23,5 -5,5 H 5 C 2.23,40 0,37.77 0,35 V 5 C 0,2.23 2.23,0 5,0 Z"
       id="rect96" />
    <g
       aria-label="PS"
       transform="translate(9,36)"
       style="font-weight:bold;font-size:8px;font-family:Roboto, sans-serif;letter-spacing:1px;fill:#333333"
       id="text98">
      <path
         d="M 1.6796875,-2.0039063 V 0 h -1.171875 v -5.6875 h 2.21875 q 0.640625,0 1.125,0.234375 0.4882812,0.234375 0.75,0.6679688 0.2617187,0.4296875 0.2617187,0.9804687 0,0.8359375 -0.5742187,1.3203125 -0.5703125,0.4804687 -1.5820312,0.4804687 z m 0,-0.9492187 h 1.046875 q 0.4648438,0 0.7070313,-0.21875 0.2460937,-0.21875 0.2460937,-0.625 0,-0.4179687 -0.2460937,-0.6757812 Q 3.1875,-4.7304687 2.7539063,-4.7382812 H 1.6796875 Z"
         style="font-weight:bold;font-size:8px;font-family:Roboto, sans-serif;letter-spacing:1px;fill:#333333"
         id="path407" />
      <path
         d="m 9.6132813,-1.4921875 q 0,-0.3320312 -0.234375,-0.5078125 -0.234375,-0.1796875 -0.84375,-0.375 -0.6093751,-0.1992188 -0.9648438,-0.390625 -0.96875,-0.5234375 -0.96875,-1.4101562 0,-0.4609375 0.2578125,-0.8203125 Q 7.1210937,-5.359375 7.6054687,-5.5625 8.09375,-5.765625 8.6992188,-5.765625 q 0.609375,0 1.0859375,0.2226563 0.4765627,0.21875 0.7382817,0.6210937 0.265625,0.4023438 0.265625,0.9140625 H 9.6171875 q 0,-0.390625 -0.2460937,-0.6054687 -0.2460938,-0.21875 -0.6914063,-0.21875 -0.4296875,0 -0.6679687,0.1835937 -0.2382813,0.1796875 -0.2382813,0.4765625 0,0.2773437 0.2773438,0.4648437 0.28125,0.1875 0.8242187,0.3515625 1,0.3007813 1.457031,0.7460938 0.457032,0.4453125 0.457032,1.109375 0,0.73828125 -0.558594,1.16015625 Q 9.671875,0.078125 8.7265625,0.078125 q -0.65625,0 -1.1953125,-0.23828125 -0.5390625,-0.2421875 -0.8242188,-0.66015625 -0.28125,-0.4179687 -0.28125,-0.96875 h 1.1757813 q 0,0.94140625 1.125,0.94140625 0.4179688,0 0.6523438,-0.16796875 0.234375,-0.171875 0.234375,-0.4765625 z"
         style="font-weight:bold;font-size:8px;font-family:Roboto, sans-serif;letter-spacing:1px;fill:#333333"
         id="path409" />
    </g>
  </g>
  <g
     id="g106"
     transform="translate(50,200)">
    <path
       style="fill:#fafafa"
       d="m 5,0 h 20 c 2.77,0 5,2.23 5,5 v 30 c 0,2.77 -2.23,5 -5,5 H 5 C 2.23,40 0,37.77 0,35 V 5 C 0,2.23 2.23,0 5,0 Z"
       id="rect102" />
    <g
       aria-label="W"
       transform="translate(11.5,36)"
       style="font-weight:bold;font-size:8px;font-family:Roboto, sans-serif;letter-spacing:2px;fill:#333333"
       id="text104">
      <path
         d="M 4.9375,-1.640625 5.703125,-5.6875 H 6.8710937 L 5.609375,0 H 4.4296875 L 3.5039063,-3.8046875 2.578125,0 H 1.3984375 L 0.13671875,-5.6875 H 1.3046875 l 0.7695313,4.0390625 0.9375,-4.0390625 h 0.9921874 z"
         style="font-weight:bold;font-size:8px;font-family:Roboto, sans-serif;letter-spacing:2px;fill:#333333"
         id="path413" />
    </g>
  </g>
  <g
     id="g112"
     transform="translate(90,200)">
    <path
       style="fill:#fafafa"
       d="m 5,0 h 20 c 2.77,0 5,2.23 5,5 v 30 c 0,2.77 -2.23,5 -5,5 H 5 C 2.23,40 0,37.77 0,35 V 5 C 0,2.23 2.23,0 5,0 Z"
       id="rect108" />
    <g
       aria-label="OS"
       transform="translate(9,36)"
       style="font-weight:bold;font-size:8px;font-family:Roboto, sans-serif;letter-spacing:2px;fill:#333333"
       id="text110">
      <path
         d="m 5.1796875,-2.7148438 q 0,0.8398438 -0.296875,1.4726563 -0.296875,0.6328125 -0.8515625,0.9765625 -0.5507812,0.34375 -1.265625,0.34375 -0.7070312,0 -1.2617188,-0.33984375 Q 0.94921875,-0.6015625 0.64453125,-1.2304687 0.33984375,-1.8632812 0.3359375,-2.6835938 v -0.28125 q 0,-0.8398437 0.30078125,-1.4765624 0.3046875,-0.640625 0.85546875,-0.9804688 0.5546875,-0.34375 1.265625,-0.34375 0.7109375,0 1.2617187,0.34375 0.5546875,0.3398438 0.8554688,0.9804688 0.3046875,0.6367187 0.3046875,1.4726562 z m -1.1875,-0.2578125 q 0,-0.8945312 -0.3203125,-1.3593749 -0.3203125,-0.4648438 -0.9140625,-0.4648438 -0.5898437,0 -0.9101563,0.4609375 -0.3203125,0.4570312 -0.3242187,1.34375 v 0.2773437 q 0,0.8710938 0.3203125,1.3515626 0.3203125,0.4804687 0.921875,0.4804687 0.5898438,0 0.90625,-0.4609375 0.3164063,-0.4648437 0.3203125,-1.3515625 z"
         style="font-weight:bold;font-size:8px;font-family:Roboto, sans-serif;letter-spacing:2px;fill:#333333"
         id="path417" />
      <path
         d="m 10.988281,-1.4921875 q 0,-0.3320312 -0.234375,-0.5078125 -0.234375,-0.1796875 -0.8437497,-0.375 -0.609375,-0.1992188 -0.9648438,-0.390625 -0.96875,-0.5234375 -0.96875,-1.4101562 0,-0.4609375 0.2578125,-0.8203125 Q 8.4960938,-5.359375 8.9804688,-5.5625 9.46875,-5.765625 10.074219,-5.765625 q 0.609375,0 1.085937,0.2226563 0.476563,0.21875 0.738282,0.6210937 0.265625,0.4023438 0.265625,0.9140625 h -1.171875 q 0,-0.390625 -0.246094,-0.6054687 -0.246094,-0.21875 -0.691406,-0.21875 -0.429688,0 -0.6679692,0.1835937 -0.2382813,0.1796875 -0.2382813,0.4765625 0,0.2773437 0.2773438,0.4648437 0.28125,0.1875 0.8242187,0.3515625 1,0.3007813 1.457031,0.7460938 0.457032,0.4453125 0.457032,1.109375 0,0.73828125 -0.558594,1.16015625 -0.558594,0.41796875 -1.503906,0.41796875 -0.6562505,0 -1.195313,-0.23828125 -0.5390625,-0.2421875 -0.8242187,-0.66015625 -0.2812501,-0.4179687 -0.2812501,-0.96875 h 1.1757813 q 0,0.94140625 1.1250005,0.94140625 0.417968,0 0.652343,-0.16796875 0.234375,-0.171875 0.234375,-0.4765625 z"
         style="font-weight:bold;font-size:8px;font-family:Roboto, sans-serif;letter-spacing:2px;fill:#333333"
         id="path419" />
    </g>
  </g>
  <g
     id="g118"
     transform="translate(130,200)">
    <path
       style="fill:#fafafa"
       d="m 5,0 h 20 c 2.77,0 5,2.23 5,5 v 30 c 0,2.77 -2.23,5 -5,5 H 5 C 2.23,40 0,37.77 0,35 V 5 C 0,2.23 2.23,0 5,0 Z"
       id="rect114" />
    <g
       aria-label="ES"
       transform="translate(9,36)"
       style="font-weight:bold;font-size:8px;font-family:Roboto, sans-serif;letter-spacing:2px;fill:#333333"
       id="text116">
      <path
         d="m 3.9296875,-2.4648438 h -2.25 v 1.52343755 h 2.640625 V 0 h -3.8125 V -5.6875 H 4.3125 v 0.9492188 H 1.6796875 v 1.3554687 h 2.25 z"
         style="font-weight:bold;font-size:8px;font-family:Roboto, sans-serif;letter-spacing:2px;fill:#333333"
         id="path423" />
      <path
         d="m 9.9570313,-1.4921875 q 0,-0.3320312 -0.234375,-0.5078125 -0.234375,-0.1796875 -0.84375,-0.375 -0.609375,-0.1992188 -0.9648438,-0.390625 -0.96875,-0.5234375 -0.96875,-1.4101562 0,-0.4609375 0.2578125,-0.8203125 Q 7.4648437,-5.359375 7.9492187,-5.5625 8.4375,-5.765625 9.0429688,-5.765625 q 0.609375,0 1.0859372,0.2226563 0.476563,0.21875 0.738282,0.6210937 0.265625,0.4023438 0.265625,0.9140625 H 9.9609375 q 0,-0.390625 -0.2460937,-0.6054687 -0.2460938,-0.21875 -0.6914063,-0.21875 -0.4296875,0 -0.6679687,0.1835937 -0.2382813,0.1796875 -0.2382813,0.4765625 0,0.2773437 0.2773438,0.4648437 0.28125,0.1875 0.8242187,0.3515625 1,0.3007813 1.457031,0.7460938 0.457032,0.4453125 0.457032,1.109375 0,0.73828125 -0.558594,1.16015625 Q 10.015625,0.078125 9.0703125,0.078125 q -0.65625,0 -1.1953125,-0.23828125 -0.5390625,-0.2421875 -0.8242188,-0.66015625 -0.28125,-0.4179687 -0.28125,-0.96875 h 1.1757813 q 0,0.94140625 1.125,0.94140625 0.4179688,0 0.6523438,-0.16796875 0.234375,-0.171875 0.234375,-0.4765625 z"
         style="font-weight:bold;font-size:8px;font-family:Roboto, sans-serif;letter-spacing:2px;fill:#333333"
         id="path425" />
    </g>
  </g>
  <g
     id="g126"
     transform="translate(10,260)">
    <path
       style="fill:#fafafa"
       d="m 5,0 h 20 c 2.77,0 5,2.23 5,5 v 30 c 0,2.77 -2.23,5 -5,5 H 5 C 2.23,40 0,37.77 0,35 V 5 C 0,2.23 2.23,0 5,0 Z"
       id="rect122" />
    <g
       aria-label="G"
       transform="translate(11.5,36)"
       style="font-weight:bold;font-size:8px;font-family:Roboto, sans-serif;letter-spacing:1px;fill:#333333"
       id="text124">
      <path
         d="M 5.0078125,-0.71875 Q 4.6914062,-0.33984375 4.1132812,-0.12890625 3.5351563,0.078125 2.8320313,0.078125 2.09375,0.078125 1.5351562,-0.2421875 0.98046875,-0.56640625 0.67578125,-1.1796875 0.375,-1.7929687 0.3671875,-2.6210938 v -0.3867187 q 0,-0.8515625 0.28515625,-1.4726562 0.2890625,-0.625 0.82812495,-0.953125 Q 2.0234375,-5.765625 2.75,-5.765625 q 1.0117188,0 1.5820312,0.484375 0.5703125,0.4804688 0.6757813,1.4023437 H 3.8671875 Q 3.7890625,-4.3671875 3.5195313,-4.59375 3.2539063,-4.8203125 2.7851563,-4.8203125 2.1875,-4.8203125 1.875,-4.3710937 1.5625,-3.921875 1.5585937,-3.0351563 v 0.3632813 q 0,0.8945313 0.3398438,1.3515625 0.3398438,0.45703125 0.9960938,0.45703125 0.6601562,0 0.9414062,-0.28124995 V -2.125 H 2.7695313 v -0.8632813 h 2.2382812 z"
         style="font-weight:bold;font-size:8px;font-family:Roboto, sans-serif;letter-spacing:1px;fill:#333333"
         id="path429" />
    </g>
  </g>
  <g
     id="g132"
     transform="translate(50,260)">
    <path
       style="fill:#fafafa"
       d="m 5,0 h 20 c 2.77,0 5,2.23 5,5 v 30 c 0,2.77 -2.23,5 -5,5 H 5 C 2.23,40 0,37.77 0,35 V 5 C 0,2.23 2.23,0 5,0 Z"
       id="rect128" />
    <g
       aria-label="D"
       transform="translate(11.5,36)"
       style="font-weight:bold;font-size:8px;font-family:Roboto, sans-serif;letter-spacing:2px;fill:#333333"
       id="text130">
      <path
         d="m 0.5078125,0 v -5.6875 h 1.75 q 0.75,0 1.3398438,0.3398438 0.5937499,0.3359375 0.9257812,0.9609375 0.3320312,0.6210937 0.3320312,1.4140624 v 0.2617188 q 0,0.7929688 -0.328125,1.4101563 Q 4.203125,-0.68359375 3.609375,-0.34375 3.015625,-0.00390625 2.2695313,0 Z m 1.171875,-4.7382812 v 3.79687495 h 0.5664063 q 0.6875,0 1.0507812,-0.44921875 0.3632813,-0.4492187 0.3710938,-1.2851563 v -0.3007812 q 0,-0.8671875 -0.359375,-1.3125 -0.359375,-0.4492187 -1.0507813,-0.4492187 z"
         style="font-weight:bold;font-size:8px;font-family:Roboto, sans-serif;letter-spacing:2px;fill:#333333"
         id="path433" />
    </g>
  </g>
  <g
     id="g138"
     transform="translate(90,260)">
    <path
       style="fill:#fafafa"
       d="m 5,0 h 20 c 2.77,0 5,2.23 5,5 v 30 c 0,2.77 -2.23,5 -5,5 H 5 C 2.23,40 0,37.77 0,35 V 5 C 0,2.23 2.23,0 5,0 Z"
       id="rect134" />
    <g
       aria-label="B"
       transform="translate(11.5,36)"
       style="font-weight:bold;font-size:8px;font-family:Roboto, sans-serif;letter-spacing:2px;fill:#333333"
       id="text136">
      <path
         d="M 0.5078125,0 V -5.6875 H 2.5 q 1.0351563,0 1.5703125,0.3984375 0.5351562,0.3945313 0.5351562,1.1601563 0,0.4179687 -0.2148437,0.7382812 -0.2148438,0.3164062 -0.5976562,0.4648437 0.4374999,0.109375 0.6874999,0.4414063 0.2539063,0.3320312 0.2539063,0.8125 0,0.8203125 -0.5234375,1.2421875 Q 3.6875,-0.0078125 2.71875,0 Z m 1.171875,-2.4765625 v 1.53515625 h 1.0039063 q 0.4140625,0 0.6445312,-0.19531245 0.234375,-0.1992188 0.234375,-0.546875 0,-0.7812501 -0.8085937,-0.7929688 z m 0,-0.828125 H 2.546875 q 0.8867188,-0.015625 0.8867188,-0.7070312 0,-0.3867188 -0.2265625,-0.5546875 Q 2.984375,-4.7382812 2.5,-4.7382812 H 1.6796875 Z"
         style="font-weight:bold;font-size:8px;font-family:Roboto, sans-serif;letter-spacing:2px;fill:#333333"
         id="path437" />
    </g>
  </g>
  <g
     id="g144"
     transform="translate(130,260)">
    <path
       style="fill:#fafafa"
       d="m 5,0 h 20 c 2.77,0 5,2.23 5,5 v 30 c 0,2.77 -2.23,5 -5,5 H 5 C 2.23,40 0,37.77 0,35 V 5 C 0,2.23 2.23,0 5,0 Z"
       id="rect140" />
    <g
       aria-label="F"
       transform="translate(11.5,36)"
       style="font-weight:bold;font-size:8px;font-family:Roboto, sans-serif;letter-spacing:2px;fill:#333333"
       id="text142">
      <path
         d="m 3.9296875,-2.3242188 h -2.25 V 0 h -1.171875 v -5.6875 h 3.703125 v 0.9492188 h -2.53125 v 1.4687499 h 2.25 z"
         style="font-weight:bold;font-size:8px;font-family:Roboto, sans-serif;letter-spacing:2px;fill:#333333"
         id="path441" />
    </g>
  </g>
  <!-- <polyline points="0,0 300,0" stroke="#0f0" stroke-width="1" fill="none" transform="translate(0 339)" /> -->
  <g
     id="g152"
     transform="translate(10,320)">
    <path
       style="fill:#fafafa"
       d="m 5,0 h 20 c 2.77,0 5,2.23 5,5 v 30 c 0,2.77 -2.23,5 -5,5 H 5 C 2.23,40 0,37.77 0,35 V 5 C 0,2.23 2.23,0 5,0 Z"
       id="rect148" />
    <g
       aria-label="V/OCT"
       transform="translate(1,36)"
       style="font-weight:bold;font-size:8px;font-family:Roboto, sans-serif;letter-spacing:1px;fill:#333333"
       id="text150">
      <path
         d="M 2.609375,-1.4101562 3.8984375,-5.6875 H 5.203125 L 3.2226563,0 H 2 L 0.02734375,-5.6875 H 1.328125 Z"
         style="font-weight:bold;font-size:8px;font-family:Roboto, sans-serif;letter-spacing:1px;fill:#333333"
         id="path240" />
      <path
         d="M 7.0234375,0.48828125 H 6.1835937 L 8.2773438,-5.6875 h 0.8398437 z"
         style="font-weight:bold;font-size:8px;font-family:Roboto, sans-serif;letter-spacing:1px;fill:#333333"
         id="path242" />
      <path
         d="m 15.398438,-2.7148438 q 0,0.8398438 -0.296875,1.4726563 -0.296875,0.6328125 -0.851563,0.9765625 -0.550781,0.34375 -1.265625,0.34375 -0.707031,0 -1.261719,-0.33984375 -0.554687,-0.33984375 -0.859375,-0.96874995 -0.304687,-0.6328125 -0.308593,-1.4531251 v -0.28125 q 0,-0.8398437 0.300781,-1.4765624 0.304687,-0.640625 0.855469,-0.9804688 0.554687,-0.34375 1.265625,-0.34375 0.710937,0 1.261718,0.34375 0.554688,0.3398438 0.855469,0.9804688 0.304688,0.6367187 0.304688,1.4726562 z m -1.1875,-0.2578125 q 0,-0.8945312 -0.320313,-1.3593749 -0.320312,-0.4648438 -0.914062,-0.4648438 -0.589844,0 -0.910157,0.4609375 -0.320312,0.4570312 -0.324218,1.34375 v 0.2773437 q 0,0.8710938 0.320312,1.3515626 0.320313,0.4804687 0.921875,0.4804687 0.589844,0 0.90625,-0.4609375 0.316406,-0.4648437 0.320313,-1.3515625 z"
         style="font-weight:bold;font-size:8px;font-family:Roboto, sans-serif;letter-spacing:1px;fill:#333333"
         id="path244" />
      <path
         d="m 21.722656,-1.8945312 q -0.06641,0.9179687 -0.679687,1.44531245 -0.609375,0.52734375 -1.609375,0.52734375 -1.09375,0 -1.722657,-0.734375 -0.625,-0.7382812 -0.625,-2.0234375 v -0.3476563 q 0,-0.8203125 0.289063,-1.4453124 0.289062,-0.625 0.824219,-0.9570313 0.539062,-0.3359375 1.25,-0.3359375 0.984375,0 1.585937,0.5273438 0.601563,0.5273437 0.695313,1.4804687 h -1.171875 q -0.04297,-0.5507812 -0.308594,-0.796875 -0.261719,-0.25 -0.800781,-0.25 -0.585938,0 -0.878907,0.421875 -0.289062,0.4179687 -0.296875,1.3007812 v 0.4296875 q 0,0.9218751 0.277344,1.3476563 0.28125,0.42578125 0.882813,0.42578125 0.542968,0 0.808593,-0.24609375 0.269532,-0.25 0.308594,-0.7695312 z"
         style="font-weight:bold;font-size:8px;font-family:Roboto, sans-serif;letter-spacing:1px;fill:#333333"
         id="path246" />
      <path
         d="M 27.664062,-4.7382812 H 25.921875 V 0 H 24.75 V -4.7382812 H 23.03125 V -5.6875 h 4.632812 z"
         style="font-weight:bold;font-size:8px;font-family:Roboto, sans-serif;letter-spacing:1px;fill:#333333"
         id="path248" />
    </g>
  </g>
  <g
     id="g158"
     transform="translate(50,320)">
    <path
       style="fill:#fafafa"
       d="m 5,0 h 20 c 2.77,0 5,2.23 5,5 v 30 c 0,2.77 -2.23,5 -5,5 H 5 C 2.23,40 0,37.77 0,35 V 5 C 0,2.23 2.23,0 5,0 Z"
       id="rect154" />
    <g
       aria-label="SYNC"
       transform="translate(1,36)"
       style="font-weight:bold;font-size:8px;font-family:Roboto, sans-serif;letter-spacing:2px;fill:#333333"
       id="text156">
      <path
         d="m 3.4570313,-1.4921875 q 0,-0.3320312 -0.234375,-0.5078125 -0.234375,-0.1796875 -0.84375,-0.375 -0.6093751,-0.1992188 -0.9648438,-0.390625 -0.96875,-0.5234375 -0.96875,-1.4101562 0,-0.4609375 0.2578125,-0.8203125 Q 0.96484375,-5.359375 1.4492187,-5.5625 1.9375,-5.765625 2.5429688,-5.765625 q 0.609375,0 1.0859375,0.2226563 0.4765624,0.21875 0.7382812,0.6210937 0.265625,0.4023438 0.265625,0.9140625 h -1.171875 q 0,-0.390625 -0.2460937,-0.6054687 -0.2460938,-0.21875 -0.6914063,-0.21875 -0.4296875,0 -0.6679688,0.1835937 -0.2382812,0.1796875 -0.2382812,0.4765625 0,0.2773437 0.2773437,0.4648437 0.2812501,0.1875 0.8242188,0.3515625 1,0.3007813 1.4570312,0.7460938 0.4570313,0.4453125 0.4570313,1.109375 0,0.73828125 -0.5585938,1.16015625 Q 3.515625,0.078125 2.5703125,0.078125 q -0.65625,0 -1.1953125,-0.23828125 -0.5390625,-0.2421875 -0.82421875,-0.66015625 -0.28125,-0.4179687 -0.28125,-0.96875 H 1.4453125 q 0,0.94140625 1.125,0.94140625 0.4179688,0 0.6523438,-0.16796875 0.234375,-0.171875 0.234375,-0.4765625 z"
         style="font-weight:bold;font-size:8px;font-family:Roboto, sans-serif;letter-spacing:2px;fill:#333333"
         id="path252" />
      <path
         d="m 9.390625,-3.125 1.183594,-2.5625 h 1.28125 l -1.8671877,3.625 V 0 H 8.796875 v -2.0625 l -1.8671875,-3.625 h 1.2851563 z"
         style="font-weight:bold;font-size:8px;font-family:Roboto, sans-serif;letter-spacing:2px;fill:#333333"
         id="path254" />
      <path
         d="M 19.007812,0 H 17.835937 L 15.554688,-3.7421875 V 0 h -1.171875 v -5.6875 h 1.171875 l 2.285156,3.75 v -3.75 h 1.167968 z"
         style="font-weight:bold;font-size:8px;font-family:Roboto, sans-serif;letter-spacing:2px;fill:#333333"
         id="path256" />
      <path
         d="M 26.503906,-1.8945312 Q 26.4375,-0.9765625 25.824219,-0.44921875 25.214844,0.078125 24.214844,0.078125 q -1.09375,0 -1.722657,-0.734375 -0.625,-0.7382812 -0.625,-2.0234375 v -0.3476563 q 0,-0.8203125 0.289063,-1.4453124 0.289062,-0.625 0.824219,-0.9570313 0.539062,-0.3359375 1.25,-0.3359375 0.984375,0 1.585937,0.5273438 0.601563,0.5273437 0.695313,1.4804687 h -1.171875 q -0.04297,-0.5507812 -0.308594,-0.796875 -0.261719,-0.25 -0.800781,-0.25 -0.585938,0 -0.878907,0.421875 -0.289062,0.4179687 -0.296875,1.3007812 v 0.4296875 q 0,0.9218751 0.277344,1.3476563 0.28125,0.42578125 0.882813,0.42578125 0.542968,0 0.808593,-0.24609375 0.269532,-0.25 0.308594,-0.7695312 z"
         style="font-weight:bold;font-size:8px;font-family:Roboto, sans-serif;letter-spacing:2px;fill:#333333"
         id="path258" />
    </g>
  </g>
  <g
     id="g168"
     transform="translate(111,320)">
    <g
       id="g162"
       transform="translate(0,17.5)">
      <g
         aria-label="SIN"
         transform="translate(7,5)"
         style="font-weight:bold;font-size:9.33333302px;font-family:Roboto, sans-serif;letter-spacing:2px;fill:#333333"
         id="text160">
        <path
           d="m 4.033203,-1.7408854 q 0,-0.3873697 -0.2734375,-0.5924479 Q 3.486328,-2.5429687 2.7753905,-2.7708332 2.0644531,-3.0032551 1.6497395,-3.2265624 0.51953123,-3.8372395 0.51953123,-4.8717446 q 0,-0.5377604 0.30078124,-0.9570312 0.30533853,-0.4238282 0.87044273,-0.6608073 0.5696614,-0.2369792 1.2760416,-0.2369792 0.7109374,0 1.266927,0.2597656 0.5559896,0.2552084 0.8613281,0.7246094 0.3098958,0.469401 0.3098958,1.0664062 H 4.0377603 q 0,-0.4557291 -0.2871094,-0.7063802 -0.2871094,-0.2552083 -0.8066406,-0.2552083 -0.501302,0 -0.7792968,0.2141927 -0.2779948,0.2096354 -0.2779948,0.5559896 0,0.3235677 0.3235677,0.5423177 0.328125,0.2187499 0.9615885,0.4101562 1.1666666,0.3509114 1.6998697,0.8704427 0.5332031,0.5195312 0.5332031,1.2942708 0,0.86132806 -0.6516927,1.35351554 -0.6516926,0.48763019 -1.7545572,0.48763019 -0.765625,0 -1.3945312,-0.27799478 Q 0.97526038,-0.46940103 0.6425781,-0.95703122 0.31445311,-1.4446614 0.31445311,-2.0872395 H 1.6861979 q 0,1.09830724 1.3124999,1.09830724 0.4876302,0 0.7610677,-0.19596354 0.2734375,-0.2005208 0.2734375,-0.5559896 z"
           style="font-weight:bold;font-size:9.33333302px;font-family:Roboto, sans-serif;letter-spacing:2px;fill:#333333"
           id="path261" />
        <path
           d="M 9.7884114,0 H 8.4212239 v -6.6354164 h 1.3671875 z"
           style="font-weight:bold;font-size:9.33333302px;font-family:Roboto, sans-serif;letter-spacing:2px;fill:#333333"
           id="path263" />
        <path
           d="M 18.446614,0 H 17.079427 L 14.417968,-4.3658853 V 0 h -1.367187 v -6.6354164 h 1.367187 l 2.666016,4.3749998 v -4.3749998 h 1.36263 z"
           style="font-weight:bold;font-size:9.33333302px;font-family:Roboto, sans-serif;letter-spacing:2px;fill:#333333"
           id="path265" />
      </g>
    </g>
    <g
       id="g166"
       transform="translate(32,17.5)">
      <g
         aria-label="COS"
         transform="translate(7,5)"
         style="font-weight:bold;font-size:9.33333302px;font-family:Roboto, sans-serif;letter-spacing:2px;fill:#333333"
         id="text164">
        <path
           d="m 5.8014321,-2.2102864 q -0.077474,1.0709635 -0.7929687,1.68619788 -0.7109375,0.61523435 -1.8776041,0.61523435 -1.2760417,0 -2.0097656,-0.8567708 Q 0.39192707,-1.6269531 0.39192707,-3.126302 v -0.4055989 q 0,-0.9570312 0.33723957,-1.6861979 0.33723956,-0.7291666 0.96158856,-1.1165364 0.6289062,-0.3919271 1.4583332,-0.3919271 1.1484375,0 1.8502604,0.6152344 0.7018229,0.6152343 0.8111979,1.7272135 H 4.4433592 q -0.05013,-0.6425781 -0.360026,-0.9296875 -0.3053385,-0.2916667 -0.9342448,-0.2916667 -0.6835937,0 -1.0253906,0.4921875 -0.3372395,0.4876302 -0.3463541,1.5175781 v 0.5013021 q 0,1.0755208 0.3235677,1.5722655 0.328125,0.4967448 1.0299479,0.4967448 0.6334635,0 0.9433593,-0.2871094 0.3144531,-0.2916666 0.360026,-0.8977864 z"
           style="font-weight:bold;font-size:9.33333302px;font-family:Roboto, sans-serif;letter-spacing:2px;fill:#333333"
           id="path268" />
        <path
           d="m 14.149739,-3.1673176 q 0,0.9798177 -0.346354,1.7180989 -0.346354,0.73828122 -0.99349,1.13932288 -0.642578,0.40104165 -1.476562,0.40104165 -0.82487,0 -1.4720053,-0.39648436 Q 9.2141924,-0.70182289 8.8587236,-1.4355468 8.5032549,-2.1738281 8.4986976,-3.1308593 v -0.328125 q 0,-0.9798176 0.3509114,-1.7226561 0.3554688,-0.7473959 0.9980469,-1.1438802 0.6471351,-0.4010417 1.4765621,-0.4010417 0.829427,0 1.472005,0.4010417 0.647136,0.3964843 0.998047,1.1438802 0.355469,0.7428385 0.355469,1.7180989 z m -1.385417,-0.3007812 q 0,-1.0436198 -0.373697,-1.5859375 -0.373698,-0.5423177 -1.066407,-0.5423177 -0.688151,0 -1.061849,0.5377604 -0.3736975,0.5332031 -0.3782548,1.5677083 v 0.3235677 q 0,1.016276 0.3736978,1.5768229 0.373698,0.5605468 1.075521,0.5605468 0.688151,0 1.057292,-0.5377604 0.36914,-0.5423177 0.373697,-1.5768228 z"
           style="font-weight:bold;font-size:9.33333302px;font-family:Roboto, sans-serif;letter-spacing:2px;fill:#333333"
           id="path270" />
        <path
           d="m 20.593098,-1.7408854 q 0,-0.3873697 -0.273438,-0.5924479 -0.273437,-0.2096354 -0.984375,-0.4374999 -0.710937,-0.2324219 -1.125651,-0.4557292 -1.130208,-0.6106771 -1.130208,-1.6451822 0,-0.5377604 0.300781,-0.9570312 0.305339,-0.4238282 0.870443,-0.6608073 0.569661,-0.2369792 1.276041,-0.2369792 0.710938,0 1.266927,0.2597656 0.55599,0.2552084 0.861328,0.7246094 0.309896,0.469401 0.309896,1.0664062 h -1.367187 q 0,-0.4557291 -0.28711,-0.7063802 -0.287109,-0.2552083 -0.80664,-0.2552083 -0.501302,0 -0.779297,0.2141927 -0.277995,0.2096354 -0.277995,0.5559896 0,0.3235677 0.323568,0.5423177 0.328125,0.2187499 0.961588,0.4101562 1.166667,0.3509114 1.69987,0.8704427 0.533203,0.5195312 0.533203,1.2942708 0,0.86132806 -0.651692,1.35351554 -0.651693,0.48763019 -1.754558,0.48763019 -0.765625,0 -1.394531,-0.27799478 -0.628906,-0.28255208 -0.961588,-0.77018227 -0.328125,-0.48763018 -0.328125,-1.13020828 h 1.371744 q 0,1.09830724 1.3125,1.09830724 0.487631,0 0.761068,-0.19596354 0.273438,-0.2005208 0.273438,-0.5559896 z"
           style="font-weight:bold;font-size:9.33333302px;font-family:Roboto, sans-serif;letter-spacing:2px;fill:#333333"
           id="path272" />
      </g>
    </g>
  </g>
  <g
     id="g174"
     transform="translate(260,320)">
    <path
       style="fill:#bbbbbb"
       d="m 5,0 h 20 c 2.77,0 5,2.23 5,5 v 30 c 0,2.77 -2.23,5 -5,5 H 5 C 2.23,40 0,37.77 0,35 V 5 C 0,2.23 2.23,0 5,0 Z"
       id="rect170" />
    <g
       aria-label="OUT"
       transform="translate(5,36)"
       style="font-weight:bold;font-size:8px;font-family:Roboto, sans-serif;letter-spacing:2px;fill:#333333"
       id="text172">
      <path
         d="m 5.1796875,-2.7148438 q 0,0.8398438 -0.296875,1.4726563 -0.296875,0.6328125 -0.8515625,0.9765625 -0.5507812,0.34375 -1.265625,0.34375 -0.7070312,0 -1.2617188,-0.33984375 Q 0.94921875,-0.6015625 0.64453125,-1.2304687 0.33984375,-1.8632812 0.3359375,-2.6835938 v -0.28125 q 0,-0.8398437 0.30078125,-1.4765624 0.3046875,-0.640625 0.85546875,-0.9804688 0.5546875,-0.34375 1.265625,-0.34375 0.7109375,0 1.2617187,0.34375 0.5546875,0.3398438 0.8554688,0.9804688 0.3046875,0.6367187 0.3046875,1.4726562 z m -1.1875,-0.2578125 q 0,-0.8945312 -0.3203125,-1.3593749 -0.3203125,-0.4648438 -0.9140625,-0.4648438 -0.5898437,0 -0.9101563,0.4609375 -0.3203125,0.4570312 -0.3242187,1.34375 v 0.2773437 q 0,0.8710938 0.3203125,1.3515626 0.3203125,0.4804687 0.921875,0.4804687 0.5898438,0 0.90625,-0.4609375 0.3164063,-0.4648437 0.3203125,-1.3515625 z"
         style="font-weight:bold;font-size:8px;font-family:Roboto, sans-serif;letter-spacing:2px;fill:#333333"
         id="path276" />
      <path
         d="m 12.34375,-5.6875 v 3.7460938 q 0,0.9335937 -0.585937,1.47656245 -0.582032,0.54296875 -1.59375,0.54296875 -0.9960942,0 -1.5820317,-0.52734375 Q 7.9960937,-0.9765625 7.984375,-1.8984375 V -5.6875 H 9.15625 v 3.7539063 q 0,0.5585937 0.265625,0.8164062 0.2695313,0.25390625 0.742188,0.25390625 0.988281,0 1.003906,-1.03906245 V -5.6875 Z"
         style="font-weight:bold;font-size:8px;font-family:Roboto, sans-serif;letter-spacing:2px;fill:#333333"
         id="path278" />
      <path
         d="M 19.585937,-4.7382812 H 17.84375 V 0 h -1.171875 v -4.7382812 h -1.71875 V -5.6875 h 4.632812 z"
         style="font-weight:bold;font-size:8px;font-family:Roboto, sans-serif;letter-spacing:2px;fill:#333333"
         id="path280" />
    </g>
  </g>
</svg>
