<?xml version="1.0" encoding="UTF-8" standalone="no"?>
<svg
   xmlns:dc="http://purl.org/dc/elements/1.1/"
   xmlns:cc="http://creativecommons.org/ns#"
   xmlns:rdf="http://www.w3.org/1999/02/22-rdf-syntax-ns#"
   xmlns:svg="http://www.w3.org/2000/svg"
   xmlns="http://www.w3.org/2000/svg"
   xmlns:sodipodi="http://sodipodi.sourceforge.net/DTD/sodipodi-0.dtd"
   xmlns:inkscape="http://www.inkscape.org/namespaces/inkscape"
   version="1.1"
   width="300"
   height="380"
   viewBox="0 0 300 380"
   id="svg204"
   sodipodi:docname="svg_render_tmp.svg"
   inkscape:version="0.92.2 5c3e80d, 2017-08-06">
  <metadata
     id="metadata208">
    <rdf:RDF>
      <cc:Work
         rdf:about="">
        <dc:format>image/svg+xml</dc:format>
        <dc:type
           rdf:resource="http://purl.org/dc/dcmitype/StillImage" />
      </cc:Work>
    </rdf:RDF>
  </metadata>
  <sodipodi:namedview
     pagecolor="#ffffff"
     bordercolor="#666666"
     borderopacity="1"
     objecttolerance="10"
     gridtolerance="10"
     guidetolerance="10"
     inkscape:pageopacity="0"
     inkscape:pageshadow="2"
     inkscape:window-width="468"
     inkscape:window-height="449"
     id="namedview206"
     showgrid="false"
     inkscape:zoom="0.62105263"
     inkscape:cx="150"
     inkscape:cy="190"
     inkscape:window-x="0"
     inkscape:window-y="0"
     inkscape:window-maximized="0"
     inkscape:current-layer="svg204" />
  <style
     id="style2">
    text {
      fill: #333;
      font-family: 'Roboto', sans-serif;
      font-weight: bold;
    }
    text.title {
      font-family: 'Comfortaa', sans-serif;
      font-weight: normal;
    }
    text.brand {
      font-family: 'Audiowide', sans-serif;
      font-weight: bold;
    }
  </style>
  <defs
     id="defs72">
    <symbol
       id="knob"
       viewBox="0 0 38px 38px">
      <g
         transform="translate(19 19)"
         id="g10">
        <polyline
           points="-5,0 5,0"
           stroke-width="1"
           stroke="#00f"
           id="polyline4" />
        <polyline
           points="0,-5 0,5"
           stroke-width="1"
           stroke="#00f"
           id="polyline6" />
        <circle
           cx="0"
           cy="0"
           r="18"
           stroke-width="1"
           stroke="#00f"
           fill="none"
           id="circle8" />
      </g>
    </symbol>
    <symbol
       id="knob-medium"
       viewBox="0 0 26px 26px">
      <g
         transform="translate(13 13)"
         id="g19">
        <polyline
           points="-3,0 3,0"
           stroke-width="1"
           stroke="#00f"
           id="polyline13" />
        <polyline
           points="0,-3 0,3"
           stroke-width="1"
           stroke="#00f"
           id="polyline15" />
        <circle
           cx="0"
           cy="0"
           r="12"
           stroke-width="1"
           stroke="#00f"
           fill="none"
           id="circle17" />
      </g>
    </symbol>
    <symbol
       id="knob-smallest"
       viewBox="0 0 16px 16px">
      <g
         transform="translate(8 8)"
         id="g28">
        <polyline
           points="-3,0 3,0"
           stroke-width="1"
           stroke="#00f"
           id="polyline22" />
        <polyline
           points="0,-3 0,3"
           stroke-width="1"
           stroke="#00f"
           id="polyline24" />
        <circle
           r="7.5"
           stroke-width="1"
           stroke="#00f"
           fill="none"
           id="circle26" />
      </g>
    </symbol>
    <symbol
       id="knobguide-phase"
       viewBox="0 0 40px 40px">
      <!-- <rect width="40" height="40" fill="#fafafa" opacity="0.2" /> -->
      <g
         transform="translate(20 20)"
         id="g47">
        <g
           transform="rotate(-240) translate(10 0)"
           id="g31">
          <!-- <polyline points="0,0 3,0" stroke-width="0.3" stroke="#333" /> -->
          <!-- <text font-size="5.0pt" transform="translate(2.5 0) rotate(240) translate(-1.5 2.2)">-</text> -->
        </g>
        <g
           transform="rotate(-90) translate(10 0)"
           id="g35">
          <polyline
             points="0,0 6,0"
             stroke-width="1"
             stroke="#333"
             id="polyline33" />
        </g>
        <g
           transform="rotate(60) translate(10 0)"
           id="g37">
          <!-- <polyline points="0,0 3,0" stroke-width="0.3" stroke="#333" /> -->
          <!-- <text font-size="5.0pt" transform="translate(2.5 0) rotate(-60) translate(-1.9 2.2)">+</text> -->
        </g>
        <path
           d="M 0 -12.5 A 12.5 12.5 0 0 1 12.5 0"
           stroke="#333"
           stroke-width="0.5"
           stroke-linecap="round"
           fill="none"
           transform="rotate(20)"
           id="path39" />
        <path
           d="M 0 -12.5 A 12.5 12.5 0 0 1 12.5 0"
           stroke="#333"
           stroke-width="0.5"
           stroke-linecap="round"
           fill="none"
           transform="rotate(43)"
           id="path41" />
        <path
           d="M 0 -12.5 A 12.5 12.5 0 0 0 -12.5 0"
           stroke="#333"
           stroke-width="0.5"
           stroke-linecap="round"
           fill="none"
           transform="rotate(-20)"
           id="path43" />
        <path
           d="M 0 -12.5 A 12.5 12.5 0 0 0 -12.5 0"
           stroke="#333"
           stroke-width="0.5"
           stroke-linecap="round"
           fill="none"
           transform="rotate(-43)"
           id="path45" />
      </g>
    </symbol>
    <symbol
       id="input"
       viewBox="0 0 24px 24px">
      <g
         transform="translate(12 12)"
         id="g54">
        <circle
           cx="0"
           cy="0"
           r="5"
           stroke-width="1"
           stroke="#0f0"
           fill="#0f0"
           id="circle50" />
        <circle
           cx="0"
           cy="0"
           r="10.5"
           stroke-width="3"
           stroke="#0f0"
           fill="none"
           id="circle52" />
      </g>
    </symbol>
    <symbol
       id="output"
       viewBox="0 0 24px 24px">
      <g
         transform="translate(12 12)"
         id="g61">
        <circle
           cx="0"
           cy="0"
           r="5"
           stroke-width="1"
           stroke="#f00"
           fill="#f00"
           id="circle57" />
        <circle
           cx="0"
           cy="0"
           r="10.5"
           stroke-width="3"
           stroke="#f00"
           fill="none"
           id="circle59" />
      </g>
    </symbol>
    <symbol
       id="button-small"
       viewBox="0 0 9px 9px">
      <g
         transform="translate(4.5 4.5)"
         id="g66">
        <circle
           r="4"
           stroke-width="1"
           stroke="#00f"
           fill="#f00"
           id="circle64" />
      </g>
    </symbol>
    <symbol
       id="light"
       viewBox="0 0 1.1px 1.1px">
      <rect
         width="3.2"
         height="3.2"
         fill="#0f0"
         id="rect69" />
    </symbol>
  </defs>
  <path
     style="fill:#dddddd"
     d="M 0,0 H 300 V 380 H 0 Z"
     id="rect74" />
  <path
     style="fill:none;stroke:#e4e4e4;stroke-width:0.5"
     d="M 1,1 H 299 V 379 H 1 V 1"
     id="polyline76" />
  <path
     style="fill:none;stroke:#ebebeb;stroke-width:0.80000001"
     d="m 0.5,0.5 h 299 v 379 H 0.5 V 0.5"
     id="polyline78" />
  <path
     style="fill:none;stroke:#f2f2f2;stroke-width:1"
     d="M 0,0 H 300 V 380 H 0 V 0"
     id="polyline80" />
  <!-- <rect width="125" height="20" fill="#0f0" transform="translate(0 0)" /> -->
  <!-- <rect width="125" height="20" fill="#0f0" transform="translate(175 0)" /> -->
  <g
     aria-label="8FO"
     style="font-weight:normal;font-size:16px;font-family:Comfortaa, sans-serif;letter-spacing:4px;fill:#333333"
     id="text82">
    <path
       d="m 135.576,11.992 q 0.88,0.464 1.392,1.312 0.512,0.832 0.512,1.888 0,1.088 -0.496,1.968 -0.48,0.88 -1.344,1.392 -0.848,0.512 -1.888,0.512 -1.056,0 -1.92,-0.496 -0.848,-0.512 -1.344,-1.376 -0.48,-0.88 -0.48,-1.952 0,-1.072 0.512,-1.92 0.528,-0.864 1.408,-1.328 -0.592,-0.416 -0.928,-1.056 -0.336,-0.656 -0.336,-1.44 0,-0.848 0.4,-1.536 0.416,-0.704 1.12,-1.088 0.72,-0.4 1.6,-0.4 0.864,0 1.552,0.4 0.704,0.384 1.088,1.072 0.4,0.672 0.4,1.52 0,0.784 -0.336,1.456 -0.336,0.656 -0.912,1.072 z m -3.728,-2.48 q 0,0.832 0.544,1.408 0.544,0.56 1.36,0.56 0.816,0 1.344,-0.576 0.544,-0.592 0.544,-1.456 0,-0.784 -0.544,-1.312 -0.544,-0.528 -1.344,-0.528 -0.816,0 -1.36,0.544 -0.544,0.544 -0.544,1.36 z m 4.384,5.696 q 0,-0.72 -0.336,-1.296 Q 135.576,13.336 135,13 q -0.56,-0.336 -1.248,-0.336 -0.704,0 -1.28,0.352 -0.576,0.336 -0.896,0.928 -0.32,0.592 -0.32,1.328 0,0.736 0.32,1.36 0.336,0.608 0.896,0.96 0.576,0.352 1.28,0.352 0.704,0 1.264,-0.352 0.576,-0.368 0.896,-0.992 0.32,-0.64 0.32,-1.392 z"
       style="font-weight:normal;font-size:16px;font-family:Comfortaa, sans-serif;letter-spacing:4px;fill:#333333"
       id="path437" />
    <path
       d="m 143.732,19 q -0.256,0 -0.448,-0.176 -0.176,-0.192 -0.176,-0.448 V 7.128 q 0,-0.272 0.176,-0.448 0.192,-0.176 0.448,-0.176 h 7.504 q 0.272,0 0.448,0.176 0.176,0.176 0.176,0.432 0,0.256 -0.176,0.432 -0.176,0.16 -0.448,0.16 h -6.88 v 4.416 h 5.008 q 0.272,0 0.448,0.176 0.176,0.16 0.176,0.432 0,0.256 -0.176,0.432 -0.176,0.176 -0.448,0.176 h -5.008 v 5.04 q 0,0.256 -0.176,0.448 Q 144.004,19 143.732,19 Z"
       style="font-weight:normal;font-size:16px;font-family:Comfortaa, sans-serif;letter-spacing:4px;fill:#333333"
       id="path439" />
    <path
       d="m 163.876,19.16 q -1.824,0 -3.28,-0.832 -1.456,-0.832 -2.288,-2.288 -0.816,-1.472 -0.816,-3.296 0,-1.824 0.816,-3.28 0.832,-1.456 2.288,-2.288 1.456,-0.832 3.28,-0.832 1.808,0 3.264,0.832 1.472,0.832 2.288,2.288 0.832,1.456 0.832,3.28 0,1.824 -0.832,3.296 -0.816,1.456 -2.288,2.288 -1.456,0.832 -3.264,0.832 z m 0,-1.184 q 1.456,0 2.624,-0.688 1.184,-0.688 1.856,-1.872 0.672,-1.2 0.672,-2.672 0,-1.456 -0.672,-2.64 -0.672,-1.2 -1.856,-1.888 -1.168,-0.688 -2.624,-0.688 -1.472,0 -2.656,0.688 -1.168,0.688 -1.84,1.888 -0.672,1.184 -0.672,2.64 0,1.472 0.672,2.672 0.672,1.184 1.84,1.872 1.184,0.688 2.656,0.688 z"
       style="font-weight:normal;font-size:16px;font-family:Comfortaa, sans-serif;letter-spacing:4px;fill:#333333"
       id="path441" />
  </g>
  <g
     aria-label="BOGAUDIO"
     style="font-weight:bold;font-size:10.66666698px;font-family:Audiowide, sans-serif;letter-spacing:2px;fill:#333333"
     id="text84">
    <path
       d="m 118.23958,372.35937 q 0,0.25 -0.0885,0.53646 -0.0833,0.28646 -0.28125,0.53125 -0.19271,0.24479 -0.50521,0.41146 Q 117.05208,374 116.59896,374 h -5.14063 q -0.14583,0 -0.27083,-0.0521 -0.125,-0.0521 -0.21875,-0.14063 -0.0885,-0.0937 -0.14062,-0.21875 -0.0521,-0.125 -0.0521,-0.27083 v -6.10417 q 0,-0.14062 0.0521,-0.26562 0.0521,-0.125 0.14062,-0.21875 0.0937,-0.0937 0.21875,-0.14584 0.125,-0.0521 0.27083,-0.0521 h 4.53125 q 0.25,0 0.53646,0.0885 0.28646,0.0885 0.53125,0.28646 0.25,0.19271 0.41146,0.50521 0.16667,0.3125 0.16667,0.76562 v 0.25521 q 0,0.35938 -0.11979,0.77604 -0.1198,0.41146 -0.38542,0.78125 0.22917,0.14063 0.42708,0.33854 0.20313,0.19792 0.35417,0.45834 0.15104,0.26041 0.23958,0.58854 0.0885,0.32812 0.0885,0.72396 z m -1.35416,-0.26041 q 0,-0.26563 -0.0833,-0.47396 -0.0833,-0.21354 -0.23437,-0.36458 -0.15104,-0.15105 -0.36458,-0.22917 -0.21355,-0.0833 -0.47917,-0.0833 h -3.05208 v -1.36459 h 2.4427 q 0.26563,0 0.47917,-0.0781 0.21354,-0.0833 0.36458,-0.23438 0.15105,-0.15104 0.22917,-0.35937 0.0833,-0.21354 0.0833,-0.47917 v -0.25521 q 0,-0.29166 -0.28125,-0.29166 h -3.85937 v 4.76041 h 4.46875 q 0.0365,0 0.0885,-0.005 0.0521,-0.005 0.0937,-0.0312 0.0417,-0.026 0.0729,-0.0885 0.0312,-0.0625 0.0312,-0.17187 z"
       style="font-weight:bold;font-size:10.66666698px;font-family:Audiowide, sans-serif;letter-spacing:2px;fill:#333333"
       id="path444" />
    <path
       d="m 129.25,370.97917 q 0,0.68229 -0.23437,1.2552 -0.23438,0.57292 -0.65105,0.98959 -0.41666,0.41666 -0.98958,0.65104 -0.56771,0.22917 -1.23958,0.22917 h -1.83334 q -0.67187,0 -1.24479,-0.22917 -0.57291,-0.23438 -0.98958,-0.65104 -0.41667,-0.41667 -0.65625,-0.98959 -0.23438,-0.57291 -0.23438,-1.2552 v -1.42709 q 0,-0.67708 0.23438,-1.25 0.23958,-0.57812 0.65625,-0.98958 0.41667,-0.41667 0.98958,-0.65104 0.57292,-0.23438 1.24479,-0.23438 h 1.83334 q 0.67187,0 1.23958,0.23438 0.57292,0.23437 0.98958,0.65104 0.41667,0.41146 0.65105,0.98958 0.23437,0.57292 0.23437,1.25 z m -1.35417,-1.42709 q 0,-0.40104 -0.1302,-0.72396 -0.125,-0.32812 -0.35938,-0.55729 -0.22917,-0.23437 -0.55729,-0.35937 -0.32292,-0.13021 -0.71354,-0.13021 h -1.83334 q -0.39583,0 -0.72395,0.13021 -0.32292,0.125 -0.5573,0.35937 -0.23437,0.22917 -0.36458,0.55729 -0.125,0.32292 -0.125,0.72396 v 1.42709 q 0,0.40104 0.125,0.72916 0.13021,0.32292 0.36458,0.55729 0.23438,0.22917 0.5573,0.35938 0.32812,0.125 0.72395,0.125 h 1.82292 q 0.39583,0 0.71875,-0.125 0.32813,-0.13021 0.5625,-0.35938 0.23438,-0.23437 0.35938,-0.55729 0.1302,-0.32812 0.1302,-0.72916 z"
       style="font-weight:bold;font-size:10.66666698px;font-family:Audiowide, sans-serif;letter-spacing:2px;fill:#333333"
       id="path446" />
    <path
       d="m 139.96875,373.31771 q 0,0.14583 -0.0521,0.27083 -0.0521,0.125 -0.14584,0.21875 -0.0885,0.0885 -0.21354,0.14063 -0.125,0.0521 -0.27083,0.0521 h -4.88542 q -0.1875,0 -0.40625,-0.0417 -0.21354,-0.0469 -0.42708,-0.14062 -0.20833,-0.0937 -0.40104,-0.23959 -0.19271,-0.15104 -0.34375,-0.35937 -0.14584,-0.21354 -0.23438,-0.48958 -0.0885,-0.28125 -0.0885,-0.63021 v -3.66667 q 0,-0.1875 0.0417,-0.40104 0.0469,-0.21875 0.14062,-0.42708 0.0937,-0.21355 0.24479,-0.40625 0.15105,-0.19271 0.35938,-0.33855 0.21354,-0.15104 0.48958,-0.23958 0.27604,-0.0885 0.625,-0.0885 h 5.50521 v 1.35417 h -5.50521 q -0.26562,0 -0.40625,0.14062 -0.14062,0.14063 -0.14062,0.41667 v 3.65625 q 0,0.26041 0.14062,0.40625 0.14584,0.14062 0.40625,0.14062 h 4.21354 v -1.69791 h -3.60416 v -1.36459 h 4.27604 q 0.14583,0 0.27083,0.0573 0.125,0.0521 0.21354,0.14584 0.0937,0.0937 0.14584,0.21875 0.0521,0.11979 0.0521,0.26041 z"
       style="font-weight:bold;font-size:10.66666698px;font-family:Audiowide, sans-serif;letter-spacing:2px;fill:#333333"
       id="path448" />
    <path
       d="m 150.71875,374 h -1.35417 v -1.83333 h -4.76041 V 374 H 143.25 v -3.73438 q 0,-0.8177 0.28125,-1.5052 0.28125,-0.6875 0.78125,-1.1823 0.5,-0.49479 1.18229,-0.77083 0.68229,-0.27604 1.48959,-0.27604 h 3.05208 q 0.14062,0 0.26562,0.0521 0.125,0.0521 0.21875,0.14584 0.0937,0.0937 0.14584,0.21875 0.0521,0.125 0.0521,0.26562 z m -6.11458,-3.1875 h 4.76041 v -2.92708 h -2.3802 q -0.0625,0 -0.26563,0.0208 -0.19792,0.0156 -0.46354,0.0885 -0.26042,0.0729 -0.55208,0.22396 -0.29167,0.15104 -0.53646,0.41667 -0.24479,0.26562 -0.40625,0.66666 -0.15625,0.39584 -0.15625,0.96354 z"
       style="font-weight:bold;font-size:10.66666698px;font-family:Audiowide, sans-serif;letter-spacing:2px;fill:#333333"
       id="path450" />
    <path
       d="m 161.60417,373.31771 q 0,0.14583 -0.0521,0.27083 -0.0521,0.125 -0.14583,0.21875 -0.0937,0.0885 -0.21875,0.14063 Q 161.0625,374 160.92188,374 h -3.05209 q -0.43229,0 -0.875,-0.0937 -0.44271,-0.0937 -0.85937,-0.28646 -0.41146,-0.19792 -0.77604,-0.5 -0.36459,-0.30208 -0.64063,-0.71354 -0.27083,-0.41667 -0.42708,-0.94792 -0.15625,-0.53646 -0.15625,-1.19271 v -3.73437 h 1.35416 v 3.73437 q 0,0.57292 0.15625,0.96875 0.16146,0.39584 0.40625,0.66146 0.2448,0.26563 0.53646,0.41667 0.29167,0.15104 0.55209,0.22396 0.26562,0.0729 0.46354,0.0937 0.20312,0.0156 0.26562,0.0156 H 160.25 v -6.11458 h 1.35417 z"
       style="font-weight:bold;font-size:10.66666698px;font-family:Audiowide, sans-serif;letter-spacing:2px;fill:#333333"
       id="path452" />
    <path
       d="m 172.63542,370.875 q 0,0.68229 -0.23958,1.25521 -0.23438,0.57291 -0.65105,0.98958 -0.41666,0.41146 -0.98958,0.64583 Q 170.18229,374 169.51042,374 h -3.65625 q -0.14583,0 -0.27083,-0.0521 -0.125,-0.0521 -0.21875,-0.14063 -0.0885,-0.0937 -0.14063,-0.21875 -0.0521,-0.125 -0.0521,-0.27083 v -6.10417 q 0,-0.14062 0.0521,-0.26562 0.0521,-0.125 0.14063,-0.21875 0.0937,-0.0937 0.21875,-0.14584 0.125,-0.0521 0.27083,-0.0521 h 3.65625 q 0.67187,0 1.24479,0.23437 0.57292,0.23438 0.98958,0.65105 0.41667,0.41145 0.65105,0.98958 0.23958,0.57292 0.23958,1.25 z m -1.35417,-1.21875 q 0,-0.39583 -0.13021,-0.72396 -0.125,-0.32812 -0.35937,-0.55729 -0.23438,-0.23438 -0.5625,-0.35938 -0.32292,-0.1302 -0.71875,-0.1302 h -2.98438 v 4.76041 h 2.98438 q 0.39583,0 0.71875,-0.125 0.32812,-0.13021 0.5625,-0.35937 0.23437,-0.23438 0.35937,-0.55729 0.13021,-0.32813 0.13021,-0.72917 z"
       style="font-weight:bold;font-size:10.66666698px;font-family:Audiowide, sans-serif;letter-spacing:2px;fill:#333333"
       id="path454" />
    <path
       d="m 177.33854,374 h -1.35416 v -7.46875 h 1.35416 z"
       style="font-weight:bold;font-size:10.66666698px;font-family:Audiowide, sans-serif;letter-spacing:2px;fill:#333333"
       id="path456" />
    <path
       d="m 188.77084,370.97917 q 0,0.68229 -0.23438,1.2552 -0.23437,0.57292 -0.65104,0.98959 -0.41667,0.41666 -0.98958,0.65104 -0.56771,0.22917 -1.23959,0.22917 h -1.83333 q -0.67188,0 -1.24479,-0.22917 -0.57292,-0.23438 -0.98959,-0.65104 -0.41666,-0.41667 -0.65625,-0.98959 -0.23437,-0.57291 -0.23437,-1.2552 v -1.42709 q 0,-0.67708 0.23437,-1.25 0.23959,-0.57812 0.65625,-0.98958 0.41667,-0.41667 0.98959,-0.65104 0.57291,-0.23438 1.24479,-0.23438 h 1.83333 q 0.67188,0 1.23959,0.23438 0.57291,0.23437 0.98958,0.65104 0.41667,0.41146 0.65104,0.98958 0.23438,0.57292 0.23438,1.25 z m -1.35417,-1.42709 q 0,-0.40104 -0.13021,-0.72396 -0.125,-0.32812 -0.35937,-0.55729 -0.22917,-0.23437 -0.5573,-0.35937 -0.32291,-0.13021 -0.71354,-0.13021 h -1.83333 q -0.39583,0 -0.72396,0.13021 -0.32292,0.125 -0.55729,0.35937 -0.23438,0.22917 -0.36458,0.55729 -0.125,0.32292 -0.125,0.72396 v 1.42709 q 0,0.40104 0.125,0.72916 0.1302,0.32292 0.36458,0.55729 0.23437,0.22917 0.55729,0.35938 0.32813,0.125 0.72396,0.125 h 1.82292 q 0.39583,0 0.71875,-0.125 0.32812,-0.13021 0.5625,-0.35938 0.23437,-0.23437 0.35937,-0.55729 0.13021,-0.32812 0.13021,-0.72916 z"
       style="font-weight:bold;font-size:10.66666698px;font-family:Audiowide, sans-serif;letter-spacing:2px;fill:#333333"
       id="path458" />
  </g>
  <path
     style="fill:#dddddd"
     d="m 134,369 h 3 v 3 h -3 z"
     id="rect86" />
  <g
     id="g92"
     transform="translate(20,50)">
    <!-- <polyline points="0,19 70,19" stroke="#0f0" stroke-width="1" fill="none" /> -->
    <g
       aria-label="FREQUENCY"
       transform="rotate(-90,32.5,24.5)"
       style="font-weight:bold;font-size:10.66666698px;font-family:Roboto, sans-serif;letter-spacing:2px;fill:#333333"
       id="text90">
      <path
         d="M 5.2395835,-3.0989584 H 2.2395834 V 0 H 0.67708335 V -7.5833336 H 5.6145835 v 1.2656251 H 2.2395834 v 1.9583334 h 3.0000001 z"
         style="font-weight:bold;font-size:10.66666698px;font-family:Roboto, sans-serif;letter-spacing:2px;fill:#333333"
         id="path462" />
      <path
         d="M 11.338542,-2.7760417 H 10.09375 V 0 H 8.5312503 v -7.5833336 h 2.8177087 q 1.34375,0 2.072916,0.5989584 0.729167,0.5989583 0.729167,1.6927084 0,0.7760417 -0.338542,1.296875 -0.333333,0.515625 -1.015625,0.8229167 l 1.640626,3.09895843 V 0 H 12.760417 Z M 10.09375,-4.0416668 h 1.260417 q 0.588542,0 0.911458,-0.296875 0.322917,-0.3020833 0.322917,-0.828125 0,-0.5364584 -0.307292,-0.84375 -0.302083,-0.3072917 -0.932291,-0.3072917 H 10.09375 Z"
         style="font-weight:bold;font-size:10.66666698px;font-family:Roboto, sans-serif;letter-spacing:2px;fill:#333333"
         id="path464" />
      <path
         d="m 21.906251,-3.2864584 h -3 v 2.03125 h 3.520834 V 0 h -5.083334 v -7.5833336 h 5.072917 v 1.2656251 h -3.510417 v 1.8072917 h 3 z"
         style="font-weight:bold;font-size:10.66666698px;font-family:Roboto, sans-serif;letter-spacing:2px;fill:#333333"
         id="path466" />
      <path
         d="m 31.562501,-3.6197918 q 0,1.0625001 -0.34375,1.8489584 -0.34375,0.78125004 -0.953125,1.25520838 L 31.526043,0.47395835 30.531251,1.3541667 28.916668,0.05729167 q -0.276042,0.046875 -0.572917,0.046875 -0.942708,0 -1.682291,-0.45312501 -0.739584,-0.45312502 -1.145834,-1.29166666 -0.40625,-0.8437501 -0.411458,-1.9375001 v -0.375 q 0,-1.1197917 0.401042,-1.9687501 0.40625,-0.8541667 1.140625,-1.3072917 0.739583,-0.4583333 1.6875,-0.4583333 0.947916,0 1.682291,0.4583333 0.739584,0.453125 1.140625,1.3072917 0.40625,0.8489584 0.40625,1.9635417 z m -1.583333,-0.34375 q 0,-1.1927084 -0.427083,-1.8125 -0.427084,-0.6197917 -1.21875,-0.6197917 -0.786459,0 -1.213542,0.6145833 -0.427083,0.609375 -0.432292,1.7916667 v 0.3697917 q 0,1.1614584 0.427084,1.8020834 0.427083,0.640625 1.229166,0.640625 0.786459,0 1.208334,-0.6145833 0.421875,-0.6197917 0.427083,-1.8020834 z"
         style="font-weight:bold;font-size:10.66666698px;font-family:Roboto, sans-serif;letter-spacing:2px;fill:#333333"
         id="path468" />
      <path
         d="m 40.458335,-7.5833336 v 4.9947919 q 0,1.2447917 -0.78125,1.96875001 -0.776042,0.72395836 -2.125,0.72395836 -1.328125,0 -2.109375,-0.70312502 -0.78125,-0.70312505 -0.796875,-1.93229175 v -5.0520835 h 1.5625 v 5.0052085 q 0,0.7447917 0.354166,1.0885417 0.359375,0.3385417 0.989584,0.3385417 1.317708,0 1.338541,-1.3854167 v -5.0468752 z"
         style="font-weight:bold;font-size:10.66666698px;font-family:Roboto, sans-serif;letter-spacing:2px;fill:#333333"
         id="path470" />
      <path
         d="m 48.302083,-3.2864584 h -3 v 2.03125 h 3.520834 V 0 H 43.739583 V -7.5833336 H 48.8125 v 1.2656251 h -3.510417 v 1.8072917 h 3 z"
         style="font-weight:bold;font-size:10.66666698px;font-family:Roboto, sans-serif;letter-spacing:2px;fill:#333333"
         id="path472" />
      <path
         d="m 57.90625,0 h -1.5625 L 53.302083,-4.9895835 V 0 h -1.5625 v -7.5833336 h 1.5625 l 3.046875,5.0000002 v -5.0000002 h 1.557292 z"
         style="font-weight:bold;font-size:10.66666698px;font-family:Roboto, sans-serif;letter-spacing:2px;fill:#333333"
         id="path474" />
      <path
         d="m 67.234376,-2.5260417 q -0.08854,1.2239583 -0.90625,1.92708335 -0.8125,0.70312502 -2.145833,0.70312502 -1.458333,0 -2.296875,-0.9791667 -0.833333,-0.98437507 -0.833333,-2.69791677 v -0.4635417 q 0,-1.09375 0.385416,-1.9270833 0.385417,-0.8333334 1.098959,-1.2760417 0.71875,-0.4479167 1.666666,-0.4479167 1.3125,0 2.114584,0.703125 0.802083,0.703125 0.927083,1.9739584 h -1.5625 q -0.05729,-0.734375 -0.411458,-1.0625 -0.348959,-0.3333334 -1.067709,-0.3333334 -0.78125,0 -1.171875,0.5625 -0.385416,0.5572917 -0.395833,1.7343751 v 0.5729167 q 0,1.2291667 0.369792,1.796875 0.375,0.5677084 1.177083,0.5677084 0.723958,0 1.078125,-0.328125 0.359375,-0.3333334 0.411458,-1.0260417 z"
         style="font-weight:bold;font-size:10.66666698px;font-family:Roboto, sans-serif;letter-spacing:2px;fill:#333333"
         id="path476" />
      <path
         d="m 72.875003,-4.1666668 1.578125,-3.4166668 h 1.708333 l -2.489583,4.8333335 V 0 h -1.588542 v -2.7500001 l -2.489583,-4.8333335 h 1.713541 z"
         style="font-weight:bold;font-size:10.66666698px;font-family:Roboto, sans-serif;letter-spacing:2px;fill:#333333"
         id="path478" />
    </g>
  </g>
  <g
     id="g96"
     transform="translate(100,50)">
    <!-- <polyline points="0,19 68,19" stroke="#0f0" stroke-width="1" fill="none" /> -->
    <g
       aria-label="WAVE"
       transform="rotate(-90,24,16)"
       style="font-weight:bold;font-size:10.66666698px;font-family:Roboto, sans-serif;letter-spacing:2px;fill:#333333"
       id="text94">
      <path
         d="M 6.5833335,-2.1875001 7.6041669,-7.5833336 H 9.1614586 L 7.4791669,0 H 5.9062502 L 4.6718751,-5.0729168 3.4375001,0 H 1.8645834 L 0.18229167,-7.5833336 H 1.7395834 l 1.0260417,5.3854169 1.25,-5.3854169 h 1.3229167 z"
         style="font-weight:bold;font-size:10.66666698px;font-family:Roboto, sans-serif;letter-spacing:2px;fill:#333333"
         id="path481" />
      <path
         d="M 16.0625,-1.5625 H 13.322917 L 12.802084,0 h -1.661459 l 2.822917,-7.5833336 h 1.447917 L 18.250001,0 h -1.661459 z m -2.317708,-1.2656251 h 1.895833 L 14.6875,-5.6666668 Z"
         style="font-weight:bold;font-size:10.66666698px;font-family:Roboto, sans-serif;letter-spacing:2px;fill:#333333"
         id="path483" />
      <path
         d="m 23.375001,-1.8802084 1.71875,-5.7031252 h 1.739583 L 24.192709,0 h -1.630208 l -2.630209,-7.5833336 h 1.734375 z"
         style="font-weight:bold;font-size:10.66666698px;font-family:Roboto, sans-serif;letter-spacing:2px;fill:#333333"
         id="path485" />
      <path
         d="m 34.114583,-3.2864584 h -3 v 2.03125 h 3.520834 V 0 H 29.552083 V -7.5833336 H 34.625 v 1.2656251 h -3.510417 v 1.8072917 h 3 z"
         style="font-weight:bold;font-size:10.66666698px;font-family:Roboto, sans-serif;letter-spacing:2px;fill:#333333"
         id="path487" />
    </g>
  </g>
  <g
     id="g102"
     transform="translate(35,97.5)">
    <g
       aria-label="SLOW"
       transform="translate(7,5)"
       style="font-weight:bold;font-size:9.33333302px;font-family:Roboto, sans-serif;letter-spacing:2px;fill:#333333"
       id="text100">
      <path
         d="m 4.033203,-1.7408854 q 0,-0.3873697 -0.2734375,-0.5924479 Q 3.486328,-2.5429687 2.7753905,-2.7708332 2.0644531,-3.0032551 1.6497395,-3.2265624 0.51953123,-3.8372395 0.51953123,-4.8717446 q 0,-0.5377604 0.30078124,-0.9570312 0.30533853,-0.4238282 0.87044273,-0.6608073 0.5696614,-0.2369792 1.2760416,-0.2369792 0.7109374,0 1.266927,0.2597656 0.5559896,0.2552084 0.8613281,0.7246094 0.3098958,0.469401 0.3098958,1.0664062 H 4.0377603 q 0,-0.4557291 -0.2871094,-0.7063802 -0.2871094,-0.2552083 -0.8066406,-0.2552083 -0.501302,0 -0.7792968,0.2141927 -0.2779948,0.2096354 -0.2779948,0.5559896 0,0.3235677 0.3235677,0.5423177 0.328125,0.2187499 0.9615885,0.4101562 1.1666666,0.3509114 1.6998697,0.8704427 0.5332031,0.5195312 0.5332031,1.2942708 0,0.86132806 -0.6516927,1.35351554 -0.6516926,0.48763019 -1.7545572,0.48763019 -0.765625,0 -1.3945312,-0.27799478 Q 0.97526038,-0.46940103 0.6425781,-0.95703122 0.31445311,-1.4446614 0.31445311,-2.0872395 H 1.6861979 q 0,1.09830724 1.3124999,1.09830724 0.4876302,0 0.7610677,-0.19596354 0.2734375,-0.2005208 0.2734375,-0.5559896 z"
         style="font-weight:bold;font-size:9.33333302px;font-family:Roboto, sans-serif;letter-spacing:2px;fill:#333333"
         id="path490" />
      <path
         d="M 9.7018228,-1.0983073 H 12.604818 V 0 H 8.3346354 v -6.6354164 h 1.3671874 z"
         style="font-weight:bold;font-size:9.33333302px;font-family:Roboto, sans-serif;letter-spacing:2px;fill:#333333"
         id="path492" />
      <path
         d="m 20.542969,-3.1673176 q 0,0.9798177 -0.346355,1.7180989 -0.346354,0.73828122 -0.993489,1.13932288 -0.642578,0.40104165 -1.476563,0.40104165 -0.824869,0 -1.472005,-0.39648436 -0.647135,-0.39648436 -1.002604,-1.13020827 -0.355469,-0.7382813 -0.360026,-1.6953125 v -0.328125 q 0,-0.9798176 0.350912,-1.7226561 0.355468,-0.7473959 0.998046,-1.1438802 0.647136,-0.4010417 1.476563,-0.4010417 0.829427,0 1.472005,0.4010417 0.647135,0.3964843 0.998047,1.1438802 0.355469,0.7428385 0.355469,1.7180989 z m -1.385417,-0.3007812 q 0,-1.0436198 -0.373698,-1.5859375 -0.373698,-0.5423177 -1.066406,-0.5423177 -0.688151,0 -1.061849,0.5377604 -0.373698,0.5332031 -0.378255,1.5677083 v 0.3235677 q 0,1.016276 0.373698,1.5768229 0.373697,0.5605468 1.07552,0.5605468 0.688151,0 1.057292,-0.5377604 0.369141,-0.5423177 0.373698,-1.5768228 z"
         style="font-weight:bold;font-size:9.33333302px;font-family:Roboto, sans-serif;letter-spacing:2px;fill:#333333"
         id="path494" />
      <path
         d="m 28.713541,-1.9140624 0.89323,-4.721354 h 1.36263 L 29.497396,0 H 28.121094 L 27.041015,-4.4388019 25.960937,0 H 24.584635 L 23.11263,-6.6354164 h 1.36263 l 0.897787,4.7122394 1.09375,-4.7122394 h 1.157552 z"
         style="font-weight:bold;font-size:9.33333302px;font-family:Roboto, sans-serif;letter-spacing:2px;fill:#333333"
         id="path496" />
    </g>
  </g>
  <g
     id="g108"
     transform="translate(20,130)">
    <!-- <polyline points="0,19 70,19" stroke="#0f0" stroke-width="1" fill="none" /> -->
    <g
       aria-label="SAM/PWM"
       transform="rotate(-90,29,21)"
       style="font-weight:bold;font-size:10.66666698px;font-family:Roboto, sans-serif;letter-spacing:2px;fill:#333333"
       id="text106">
      <path
         d="m 4.6093751,-1.9895834 q 0,-0.4427083 -0.3125,-0.6770833 -0.3125,-0.2395834 -1.125,-0.5000001 -0.8125,-0.265625 -1.2864584,-0.5208333 -1.29166668,-0.6979167 -1.29166668,-1.8802084 0,-0.6145834 0.34375001,-1.09375 0.34895837,-0.484375 0.99479167,-0.7552084 0.6510417,-0.2708333 1.4583334,-0.2708333 0.8125,0 1.4479167,0.296875 0.6354167,0.2916667 0.984375,0.828125 0.3541667,0.5364584 0.3541667,1.21875 h -1.5625 q 0,-0.5208333 -0.328125,-0.8072916 -0.328125,-0.2916667 -0.9218751,-0.2916667 -0.5729167,0 -0.890625,0.2447916 -0.3177083,0.2395834 -0.3177083,0.6354167 0,0.3697917 0.3697916,0.6197917 0.3750001,0.25 1.0989584,0.46875 1.3333334,0.4010417 1.9427084,0.9947917 0.609375,0.59375 0.609375,1.4791667 0,0.9843751 -0.7447917,1.54687509 -0.7447917,0.55729168 -2.0052084,0.55729168 -0.875,0 -1.59375,-0.31770834 Q 1.1145834,-0.53645835 0.73437502,-1.09375 0.35937501,-1.6510417 0.35937501,-2.3854167 H 1.9270834 q 0,1.2552083 1.5,1.2552083 0.5572917,0 0.8697917,-0.2239583 0.3125,-0.2291667 0.3125,-0.6354167 z"
         style="font-weight:bold;font-size:10.66666698px;font-family:Roboto, sans-serif;letter-spacing:2px;fill:#333333"
         id="path499" />
      <path
         d="M 13.520833,-1.5625 H 10.78125 L 10.260417,0 H 8.5989583 l 2.8229167,-7.5833336 h 1.447917 L 15.708334,0 h -1.661459 z m -2.317708,-1.2656251 h 1.895833 l -0.953125,-2.8385417 z"
         style="font-weight:bold;font-size:10.66666698px;font-family:Roboto, sans-serif;letter-spacing:2px;fill:#333333"
         id="path501" />
      <path
         d="m 20.46875,-7.5833336 1.947917,5.5000002 1.9375,-5.5000002 H 26.40625 V 0 H 24.838542 V -2.0729167 L 24.994792,-5.6510418 22.947917,0 H 21.875 l -2.041667,-5.6458335 0.15625,3.5729168 V 0 h -1.5625 v -7.5833336 z"
         style="font-weight:bold;font-size:10.66666698px;font-family:Roboto, sans-serif;letter-spacing:2px;fill:#333333"
         id="path503" />
      <path
         d="M 30.156251,0.65104169 H 29.03646 l 2.791666,-8.23437529 h 1.119792 z"
         style="font-weight:bold;font-size:10.66666698px;font-family:Roboto, sans-serif;letter-spacing:2px;fill:#333333"
         id="path505" />
      <path
         d="M 37.322915,-2.6718751 V 0 h -1.5625 v -7.5833336 h 2.958334 q 0.854167,0 1.5,0.3125 0.651042,0.3125001 1,0.8906251 0.348958,0.5729167 0.348958,1.3072917 0,1.1145833 -0.765625,1.7604167 -0.760416,0.640625 -2.109375,0.640625 z m 0,-1.265625 h 1.395834 q 0.619792,0 0.942708,-0.2916667 0.328125,-0.2916667 0.328125,-0.8333334 0,-0.5572916 -0.328125,-0.9010416 -0.328125,-0.3437501 -0.90625,-0.3541667 h -1.432292 z"
         style="font-weight:bold;font-size:10.66666698px;font-family:Roboto, sans-serif;letter-spacing:2px;fill:#333333"
         id="path507" />
      <path
         d="m 50.541666,-2.1875001 1.020833,-5.3958335 h 1.557292 L 51.437499,0 H 49.864582 L 48.630207,-5.0729168 47.395832,0 h -1.572917 l -1.682291,-7.5833336 h 1.557291 l 1.026042,5.3854169 1.25,-5.3854169 h 1.322917 z"
         style="font-weight:bold;font-size:10.66666698px;font-family:Roboto, sans-serif;letter-spacing:2px;fill:#333333"
         id="path509" />
      <path
         d="m 58.010418,-7.5833336 1.947917,5.5000002 1.9375,-5.5000002 h 2.052083 V 0 H 62.38021 V -2.0729167 L 62.53646,-5.6510418 60.489585,0 h -1.072917 l -2.041667,-5.6458335 0.15625,3.5729168 V 0 h -1.5625 v -7.5833336 z"
         style="font-weight:bold;font-size:10.66666698px;font-family:Roboto, sans-serif;letter-spacing:2px;fill:#333333"
         id="path511" />
    </g>
  </g>
  <g
     id="g116"
     transform="translate(10,200)">
    <path
       style="fill:#fafafa"
       d="m 5,0 h 20 c 2.77,0 5,2.23 5,5 v 30 c 0,2.77 -2.23,5 -5,5 H 5 C 2.23,40 0,37.77 0,35 V 5 C 0,2.23 2.23,0 5,0 Z"
       id="rect112" />
    <g
       aria-label="S"
       transform="translate(11.5,36)"
       style="font-weight:bold;font-size:8px;font-family:Roboto, sans-serif;letter-spacing:1px;fill:#333333"
       id="text114">
      <path
         d="m 3.4570313,-1.4921875 q 0,-0.3320312 -0.234375,-0.5078125 -0.234375,-0.1796875 -0.84375,-0.375 -0.6093751,-0.1992188 -0.9648438,-0.390625 -0.96875,-0.5234375 -0.96875,-1.4101562 0,-0.4609375 0.2578125,-0.8203125 Q 0.96484375,-5.359375 1.4492187,-5.5625 1.9375,-5.765625 2.5429688,-5.765625 q 0.609375,0 1.0859375,0.2226563 0.4765624,0.21875 0.7382812,0.6210937 0.265625,0.4023438 0.265625,0.9140625 h -1.171875 q 0,-0.390625 -0.2460937,-0.6054687 -0.2460938,-0.21875 -0.6914063,-0.21875 -0.4296875,0 -0.6679688,0.1835937 -0.2382812,0.1796875 -0.2382812,0.4765625 0,0.2773437 0.2773437,0.4648437 0.2812501,0.1875 0.8242188,0.3515625 1,0.3007813 1.4570312,0.7460938 0.4570313,0.4453125 0.4570313,1.109375 0,0.73828125 -0.5585938,1.16015625 Q 3.515625,0.078125 2.5703125,0.078125 q -0.65625,0 -1.1953125,-0.23828125 -0.5390625,-0.2421875 -0.82421875,-0.66015625 -0.28125,-0.4179687 -0.28125,-0.96875 H 1.4453125 q 0,0.94140625 1.125,0.94140625 0.4179688,0 0.6523438,-0.16796875 0.234375,-0.171875 0.234375,-0.4765625 z"
         style="font-weight:bold;font-size:8px;font-family:Roboto, sans-serif;letter-spacing:1px;fill:#333333"
         id="path515" />
    </g>
  </g>
  <g
     id="g118"
     transform="translate(50,200)">
    <!-- <rect width="30" height="40" rx="5" fill="#fafafa" /> -->
    <!--  -->
    <!-- <text font-size="6pt" letter-spacing="2px" transform="translate(11.5 36)">Y</text> -->
  </g>
  <g
     id="g138"
     transform="translate(183,24)">
    <g
       id="g122" />
    <g
       id="g124"
       transform="translate(0,40)" />
    <g
       id="g126"
       transform="translate(0,80)" />
    <g
       id="g128"
       transform="translate(0,120)" />
    <g
       id="g130"
       transform="translate(0,160)" />
    <g
       id="g132"
       transform="translate(0,200)" />
    <g
       id="g134"
       transform="translate(0,240)" />
    <g
       id="g136"
       transform="translate(0,280)" />
  </g>
  <g
     id="use142"
     transform="rotate(135,104.18629,64.243687)">
    <!-- <rect width="40" height="40" fill="#fafafa" opacity="0.2" /> -->
    <g
       id="g409"
       transform="translate(20,20)">
      <g
         id="g393"
         transform="rotate(120,-5,2.8867513)">
        <!-- <polyline points="0,0 3,0" stroke-width="0.3" stroke="#333" /> -->
        <!-- <text font-size="5.0pt" transform="translate(2.5 0) rotate(240) translate(-1.5 2.2)">-</text> -->
      </g>
      <g
         id="g397"
         transform="rotate(-90,-5,-5)">
        <path
           style="stroke:#333333;stroke-width:1"
           d="M 0,0 H 6"
           id="polyline395" />
      </g>
      <g
         id="g399"
         transform="rotate(60,-5,8.660254)">
        <!-- <polyline points="0,0 3,0" stroke-width="0.3" stroke="#333" /> -->
        <!-- <text font-size="5.0pt" transform="translate(2.5 0) rotate(-60) translate(-1.9 2.2)">+</text> -->
      </g>
      <path
         id="path401"
         transform="rotate(20)"
         d="M 0,-12.5 A 12.5,12.5 0 0 1 12.5,0"
         inkscape:connector-curvature="0"
         style="fill:none;stroke:#333333;stroke-width:0.5;stroke-linecap:round" />
      <path
         id="path403"
         transform="rotate(43)"
         d="M 0,-12.5 A 12.5,12.5 0 0 1 12.5,0"
         inkscape:connector-curvature="0"
         style="fill:none;stroke:#333333;stroke-width:0.5;stroke-linecap:round" />
      <path
         id="path405"
         transform="rotate(-20)"
         d="M 0,-12.5 A 12.5,12.5 0 0 0 -12.5,0"
         inkscape:connector-curvature="0"
         style="fill:none;stroke:#333333;stroke-width:0.5;stroke-linecap:round" />
      <path
         id="path407"
         transform="rotate(-43)"
         d="M 0,-12.5 A 12.5,12.5 0 0 0 -12.5,0"
         inkscape:connector-curvature="0"
         style="fill:none;stroke:#333333;stroke-width:0.5;stroke-linecap:round" />
    </g>
  </g>
  <g
     id="use146"
     transform="rotate(-180,107.5,48)">
    <!-- <rect width="40" height="40" fill="#fafafa" opacity="0.2" /> -->
    <g
       id="g389"
       transform="translate(20,20)">
      <g
         id="g373"
         transform="rotate(120,-5,2.8867513)">
        <!-- <polyline points="0,0 3,0" stroke-width="0.3" stroke="#333" /> -->
        <!-- <text font-size="5.0pt" transform="translate(2.5 0) rotate(240) translate(-1.5 2.2)">-</text> -->
      </g>
      <g
         id="g377"
         transform="rotate(-90,-5,-5)">
        <path
           style="stroke:#333333;stroke-width:1"
           d="M 0,0 H 6"
           id="polyline375" />
      </g>
      <g
         id="g379"
         transform="rotate(60,-5,8.660254)">
        <!-- <polyline points="0,0 3,0" stroke-width="0.3" stroke="#333" /> -->
        <!-- <text font-size="5.0pt" transform="translate(2.5 0) rotate(-60) translate(-1.9 2.2)">+</text> -->
      </g>
      <path
         id="path381"
         transform="rotate(20)"
         d="M 0,-12.5 A 12.5,12.5 0 0 1 12.5,0"
         inkscape:connector-curvature="0"
         style="fill:none;stroke:#333333;stroke-width:0.5;stroke-linecap:round" />
      <path
         id="path383"
         transform="rotate(43)"
         d="M 0,-12.5 A 12.5,12.5 0 0 1 12.5,0"
         inkscape:connector-curvature="0"
         style="fill:none;stroke:#333333;stroke-width:0.5;stroke-linecap:round" />
      <path
         id="path385"
         transform="rotate(-20)"
         d="M 0,-12.5 A 12.5,12.5 0 0 0 -12.5,0"
         inkscape:connector-curvature="0"
         style="fill:none;stroke:#333333;stroke-width:0.5;stroke-linecap:round" />
      <path
         id="path387"
         transform="rotate(-43)"
         d="M 0,-12.5 A 12.5,12.5 0 0 0 -12.5,0"
         inkscape:connector-curvature="0"
         style="fill:none;stroke:#333333;stroke-width:0.5;stroke-linecap:round" />
    </g>
  </g>
  <g
     id="use150"
     transform="rotate(-135,127.38225,31.756313)">
    <!-- <rect width="40" height="40" fill="#fafafa" opacity="0.2" /> -->
    <g
       id="g369"
       transform="translate(20,20)">
      <g
         id="g353"
         transform="rotate(120,-5,2.8867513)">
        <!-- <polyline points="0,0 3,0" stroke-width="0.3" stroke="#333" /> -->
        <!-- <text font-size="5.0pt" transform="translate(2.5 0) rotate(240) translate(-1.5 2.2)">-</text> -->
      </g>
      <g
         id="g357"
         transform="rotate(-90,-5,-5)">
        <path
           style="stroke:#333333;stroke-width:1"
           d="M 0,0 H 6"
           id="polyline355" />
      </g>
      <g
         id="g359"
         transform="rotate(60,-5,8.660254)">
        <!-- <polyline points="0,0 3,0" stroke-width="0.3" stroke="#333" /> -->
        <!-- <text font-size="5.0pt" transform="translate(2.5 0) rotate(-60) translate(-1.9 2.2)">+</text> -->
      </g>
      <path
         id="path361"
         transform="rotate(20)"
         d="M 0,-12.5 A 12.5,12.5 0 0 1 12.5,0"
         inkscape:connector-curvature="0"
         style="fill:none;stroke:#333333;stroke-width:0.5;stroke-linecap:round" />
      <path
         id="path363"
         transform="rotate(43)"
         d="M 0,-12.5 A 12.5,12.5 0 0 1 12.5,0"
         inkscape:connector-curvature="0"
         style="fill:none;stroke:#333333;stroke-width:0.5;stroke-linecap:round" />
      <path
         id="path365"
         transform="rotate(-20)"
         d="M 0,-12.5 A 12.5,12.5 0 0 0 -12.5,0"
         inkscape:connector-curvature="0"
         style="fill:none;stroke:#333333;stroke-width:0.5;stroke-linecap:round" />
      <path
         id="path367"
         transform="rotate(-43)"
         d="M 0,-12.5 A 12.5,12.5 0 0 0 -12.5,0"
         inkscape:connector-curvature="0"
         style="fill:none;stroke:#333333;stroke-width:0.5;stroke-linecap:round" />
    </g>
  </g>
  <g
     id="use154"
     transform="rotate(-90,175.5,0.5)">
    <!-- <rect width="40" height="40" fill="#fafafa" opacity="0.2" /> -->
    <g
       id="g349"
       transform="translate(20,20)">
      <g
         id="g333"
         transform="rotate(120,-5,2.8867513)">
        <!-- <polyline points="0,0 3,0" stroke-width="0.3" stroke="#333" /> -->
        <!-- <text font-size="5.0pt" transform="translate(2.5 0) rotate(240) translate(-1.5 2.2)">-</text> -->
      </g>
      <g
         id="g337"
         transform="rotate(-90,-5,-5)">
        <path
           style="stroke:#333333;stroke-width:1"
           d="M 0,0 H 6"
           id="polyline335" />
      </g>
      <g
         id="g339"
         transform="rotate(60,-5,8.660254)">
        <!-- <polyline points="0,0 3,0" stroke-width="0.3" stroke="#333" /> -->
        <!-- <text font-size="5.0pt" transform="translate(2.5 0) rotate(-60) translate(-1.9 2.2)">+</text> -->
      </g>
      <path
         id="path341"
         transform="rotate(20)"
         d="M 0,-12.5 A 12.5,12.5 0 0 1 12.5,0"
         inkscape:connector-curvature="0"
         style="fill:none;stroke:#333333;stroke-width:0.5;stroke-linecap:round" />
      <path
         id="path343"
         transform="rotate(43)"
         d="M 0,-12.5 A 12.5,12.5 0 0 1 12.5,0"
         inkscape:connector-curvature="0"
         style="fill:none;stroke:#333333;stroke-width:0.5;stroke-linecap:round" />
      <path
         id="path345"
         transform="rotate(-20)"
         d="M 0,-12.5 A 12.5,12.5 0 0 0 -12.5,0"
         inkscape:connector-curvature="0"
         style="fill:none;stroke:#333333;stroke-width:0.5;stroke-linecap:round" />
      <path
         id="path347"
         transform="rotate(-43)"
         d="M 0,-12.5 A 12.5,12.5 0 0 0 -12.5,0"
         inkscape:connector-curvature="0"
         style="fill:none;stroke:#333333;stroke-width:0.5;stroke-linecap:round" />
    </g>
  </g>
  <g
     id="use158"
     transform="rotate(-45,319.95079,-103.24369)">
    <!-- <rect width="40" height="40" fill="#fafafa" opacity="0.2" /> -->
    <g
       id="g329"
       transform="translate(20,20)">
      <g
         id="g313"
         transform="rotate(120,-5,2.8867513)">
        <!-- <polyline points="0,0 3,0" stroke-width="0.3" stroke="#333" /> -->
        <!-- <text font-size="5.0pt" transform="translate(2.5 0) rotate(240) translate(-1.5 2.2)">-</text> -->
      </g>
      <g
         id="g317"
         transform="rotate(-90,-5,-5)">
        <path
           style="stroke:#333333;stroke-width:1"
           d="M 0,0 H 6"
           id="polyline315" />
      </g>
      <g
         id="g319"
         transform="rotate(60,-5,8.660254)">
        <!-- <polyline points="0,0 3,0" stroke-width="0.3" stroke="#333" /> -->
        <!-- <text font-size="5.0pt" transform="translate(2.5 0) rotate(-60) translate(-1.9 2.2)">+</text> -->
      </g>
      <path
         id="path321"
         transform="rotate(20)"
         d="M 0,-12.5 A 12.5,12.5 0 0 1 12.5,0"
         inkscape:connector-curvature="0"
         style="fill:none;stroke:#333333;stroke-width:0.5;stroke-linecap:round" />
      <path
         id="path323"
         transform="rotate(43)"
         d="M 0,-12.5 A 12.5,12.5 0 0 1 12.5,0"
         inkscape:connector-curvature="0"
         style="fill:none;stroke:#333333;stroke-width:0.5;stroke-linecap:round" />
      <path
         id="path325"
         transform="rotate(-20)"
         d="M 0,-12.5 A 12.5,12.5 0 0 0 -12.5,0"
         inkscape:connector-curvature="0"
         style="fill:none;stroke:#333333;stroke-width:0.5;stroke-linecap:round" />
      <path
         id="path327"
         transform="rotate(-43)"
         d="M 0,-12.5 A 12.5,12.5 0 0 0 -12.5,0"
         inkscape:connector-curvature="0"
         style="fill:none;stroke:#333333;stroke-width:0.5;stroke-linecap:round" />
    </g>
  </g>
  <g
     id="use162"
     transform="translate(175,216)">
    <!-- <rect width="40" height="40" fill="#fafafa" opacity="0.2" /> -->
    <g
       id="g309"
       transform="translate(20,20)">
      <g
         id="g293"
         transform="rotate(120,-5,2.8867513)">
        <!-- <polyline points="0,0 3,0" stroke-width="0.3" stroke="#333" /> -->
        <!-- <text font-size="5.0pt" transform="translate(2.5 0) rotate(240) translate(-1.5 2.2)">-</text> -->
      </g>
      <g
         id="g297"
         transform="rotate(-90,-5,-5)">
        <path
           style="stroke:#333333;stroke-width:1"
           d="M 0,0 H 6"
           id="polyline295" />
      </g>
      <g
         id="g299"
         transform="rotate(60,-5,8.660254)">
        <!-- <polyline points="0,0 3,0" stroke-width="0.3" stroke="#333" /> -->
        <!-- <text font-size="5.0pt" transform="translate(2.5 0) rotate(-60) translate(-1.9 2.2)">+</text> -->
      </g>
      <path
         id="path301"
         transform="rotate(20)"
         d="M 0,-12.5 A 12.5,12.5 0 0 1 12.5,0"
         inkscape:connector-curvature="0"
         style="fill:none;stroke:#333333;stroke-width:0.5;stroke-linecap:round" />
      <path
         id="path303"
         transform="rotate(43)"
         d="M 0,-12.5 A 12.5,12.5 0 0 1 12.5,0"
         inkscape:connector-curvature="0"
         style="fill:none;stroke:#333333;stroke-width:0.5;stroke-linecap:round" />
      <path
         id="path305"
         transform="rotate(-20)"
         d="M 0,-12.5 A 12.5,12.5 0 0 0 -12.5,0"
         inkscape:connector-curvature="0"
         style="fill:none;stroke:#333333;stroke-width:0.5;stroke-linecap:round" />
      <path
         id="path307"
         transform="rotate(-43)"
         d="M 0,-12.5 A 12.5,12.5 0 0 0 -12.5,0"
         inkscape:connector-curvature="0"
         style="fill:none;stroke:#333333;stroke-width:0.5;stroke-linecap:round" />
    </g>
  </g>
  <g
     id="use166"
     transform="rotate(45,-201.51934,359.24369)">
    <!-- <rect width="40" height="40" fill="#fafafa" opacity="0.2" /> -->
    <g
       id="g289"
       transform="translate(20,20)">
      <g
         id="g273"
         transform="rotate(120,-5,2.8867513)">
        <!-- <polyline points="0,0 3,0" stroke-width="0.3" stroke="#333" /> -->
        <!-- <text font-size="5.0pt" transform="translate(2.5 0) rotate(240) translate(-1.5 2.2)">-</text> -->
      </g>
      <g
         id="g277"
         transform="rotate(-90,-5,-5)">
        <path
           style="stroke:#333333;stroke-width:1"
           d="M 0,0 H 6"
           id="polyline275" />
      </g>
      <g
         id="g279"
         transform="rotate(60,-5,8.660254)">
        <!-- <polyline points="0,0 3,0" stroke-width="0.3" stroke="#333" /> -->
        <!-- <text font-size="5.0pt" transform="translate(2.5 0) rotate(-60) translate(-1.9 2.2)">+</text> -->
      </g>
      <path
         id="path281"
         transform="rotate(20)"
         d="M 0,-12.5 A 12.5,12.5 0 0 1 12.5,0"
         inkscape:connector-curvature="0"
         style="fill:none;stroke:#333333;stroke-width:0.5;stroke-linecap:round" />
      <path
         id="path283"
         transform="rotate(43)"
         d="M 0,-12.5 A 12.5,12.5 0 0 1 12.5,0"
         inkscape:connector-curvature="0"
         style="fill:none;stroke:#333333;stroke-width:0.5;stroke-linecap:round" />
      <path
         id="path285"
         transform="rotate(-20)"
         d="M 0,-12.5 A 12.5,12.5 0 0 0 -12.5,0"
         inkscape:connector-curvature="0"
         style="fill:none;stroke:#333333;stroke-width:0.5;stroke-linecap:round" />
      <path
         id="path287"
         transform="rotate(-43)"
         d="M 0,-12.5 A 12.5,12.5 0 0 0 -12.5,0"
         inkscape:connector-curvature="0"
         style="fill:none;stroke:#333333;stroke-width:0.5;stroke-linecap:round" />
    </g>
  </g>
  <g
     id="use170"
     transform="rotate(90,-40.5,255.5)">
    <!-- <rect width="40" height="40" fill="#fafafa" opacity="0.2" /> -->
    <g
       id="g269"
       transform="translate(20,20)">
      <g
         id="g253"
         transform="rotate(120,-5,2.8867513)">
        <!-- <polyline points="0,0 3,0" stroke-width="0.3" stroke="#333" /> -->
        <!-- <text font-size="5.0pt" transform="translate(2.5 0) rotate(240) translate(-1.5 2.2)">-</text> -->
      </g>
      <g
         id="g257"
         transform="rotate(-90,-5,-5)">
        <path
           style="stroke:#333333;stroke-width:1"
           d="M 0,0 H 6"
           id="polyline255" />
      </g>
      <g
         id="g259"
         transform="rotate(60,-5,8.660254)">
        <!-- <polyline points="0,0 3,0" stroke-width="0.3" stroke="#333" /> -->
        <!-- <text font-size="5.0pt" transform="translate(2.5 0) rotate(-60) translate(-1.9 2.2)">+</text> -->
      </g>
      <path
         id="path261"
         transform="rotate(20)"
         d="M 0,-12.5 A 12.5,12.5 0 0 1 12.5,0"
         inkscape:connector-curvature="0"
         style="fill:none;stroke:#333333;stroke-width:0.5;stroke-linecap:round" />
      <path
         id="path263"
         transform="rotate(43)"
         d="M 0,-12.5 A 12.5,12.5 0 0 1 12.5,0"
         inkscape:connector-curvature="0"
         style="fill:none;stroke:#333333;stroke-width:0.5;stroke-linecap:round" />
      <path
         id="path265"
         transform="rotate(-20)"
         d="M 0,-12.5 A 12.5,12.5 0 0 0 -12.5,0"
         inkscape:connector-curvature="0"
         style="fill:none;stroke:#333333;stroke-width:0.5;stroke-linecap:round" />
      <path
         id="path267"
         transform="rotate(-43)"
         d="M 0,-12.5 A 12.5,12.5 0 0 0 -12.5,0"
         inkscape:connector-curvature="0"
         style="fill:none;stroke:#333333;stroke-width:0.5;stroke-linecap:round" />
    </g>
  </g>
  <path
     style="fill:#fafafa"
     d="m 225,20 h 20 c 2.77,0 5,2.23 5,5 v 318 c 0,2.77 -2.23,5 -5,5 h -20 c -2.77,0 -5,-2.23 -5,-5 V 25 c 0,-2.77 2.23,-5 5,-5 z"
     id="rect174" />
  <g
     id="g176"
     transform="translate(223,24)" />
  <g
     aria-label="CV"
     style="font-weight:bold;font-size:8px;font-family:Roboto, sans-serif;letter-spacing:2px;fill:#333333"
     id="text178">
    <path
       d="m 232.97266,338.10547 q -0.0664,0.91797 -0.67969,1.44531 -0.60938,0.52734 -1.60938,0.52734 -1.09375,0 -1.72265,-0.73437 -0.625,-0.73828 -0.625,-2.02344 v -0.34765 q 0,-0.82032 0.28906,-1.44532 0.28906,-0.625 0.82422,-0.95703 0.53906,-0.33594 1.25,-0.33594 0.98437,0 1.58594,0.52735 0.60156,0.52734 0.69531,1.48047 h -1.17188 q -0.043,-0.55078 -0.30859,-0.79688 -0.26172,-0.25 -0.80078,-0.25 -0.58594,0 -0.87891,0.42188 -0.28906,0.41797 -0.29687,1.30078 v 0.42969 q 0,0.92187 0.27734,1.34765 0.28125,0.42578 0.88281,0.42578 0.54297,0 0.8086,-0.24609 0.26953,-0.25 0.30859,-0.76953 z"
       style="font-weight:bold;font-size:8px;font-family:Roboto, sans-serif;letter-spacing:2px;fill:#333333"
       id="path527" />
    <path
       d="m 237.84375,338.58984 1.28906,-4.27734 h 1.30469 L 238.45703,340 h -1.22266 l -1.97265,-5.6875 h 1.30078 z"
       style="font-weight:bold;font-size:8px;font-family:Roboto, sans-serif;letter-spacing:2px;fill:#333333"
       id="path529" />
  </g>
  <path
     style="fill:#bbbbbb"
     d="m 265,20 h 20 c 2.77,0 5,2.23 5,5 v 318 c 0,2.77 -2.23,5 -5,5 h -20 c -2.77,0 -5,-2.23 -5,-5 V 25 c 0,-2.77 2.23,-5 5,-5 z"
     id="rect182" />
  <g
     id="g184"
     transform="translate(263,24)" />
  <g
     aria-label="OUT"
     style="font-weight:bold;font-size:8px;font-family:Roboto, sans-serif;letter-spacing:2px;fill:#333333"
     id="text186">
    <path
       d="m 270.17969,337.28516 q 0,0.83984 -0.29688,1.47265 -0.29687,0.63281 -0.85156,0.97656 -0.55078,0.34375 -1.26563,0.34375 -0.70703,0 -1.26171,-0.33984 -0.55469,-0.33984 -0.85938,-0.96875 -0.30469,-0.63281 -0.30859,-1.45312 v -0.28125 q 0,-0.83985 0.30078,-1.47657 0.30469,-0.64062 0.85547,-0.98047 0.55468,-0.34375 1.26562,-0.34375 0.71094,0 1.26172,0.34375 0.55469,0.33985 0.85547,0.98047 0.30469,0.63672 0.30469,1.47266 z m -1.1875,-0.25782 q 0,-0.89453 -0.32032,-1.35937 -0.32031,-0.46485 -0.91406,-0.46485 -0.58984,0 -0.91015,0.46094 -0.32032,0.45703 -0.32422,1.34375 v 0.27735 q 0,0.87109 0.32031,1.35156 0.32031,0.48047 0.92187,0.48047 0.58985,0 0.90625,-0.46094 0.31641,-0.46484 0.32032,-1.35156 z"
       style="font-weight:bold;font-size:8px;font-family:Roboto, sans-serif;letter-spacing:2px;fill:#333333"
       id="path533" />
    <path
       d="m 277.34375,334.3125 v 3.74609 q 0,0.9336 -0.58594,1.47657 -0.58203,0.54296 -1.59375,0.54296 -0.99609,0 -1.58203,-0.52734 -0.58594,-0.52734 -0.59766,-1.44922 v -3.78906 h 1.17188 v 3.75391 q 0,0.55859 0.26562,0.8164 0.26954,0.25391 0.74219,0.25391 0.98828,0 1.00391,-1.03906 v -3.78516 z"
       style="font-weight:bold;font-size:8px;font-family:Roboto, sans-serif;letter-spacing:2px;fill:#333333"
       id="path535" />
    <path
       d="m 284.58594,335.26172 h -1.74219 V 340 h -1.17188 v -4.73828 h -1.71875 v -0.94922 h 4.63282 z"
       style="font-weight:bold;font-size:8px;font-family:Roboto, sans-serif;letter-spacing:2px;fill:#333333"
       id="path537" />
  </g>
  <!-- <polyline points="0,0 300,0" stroke="#0f0" stroke-width="1" fill="none" transform="translate(0 339)" /> -->
  <g
     id="g194"
     transform="translate(10,320)">
    <path
       style="fill:#fafafa"
       d="m 5,0 h 20 c 2.77,0 5,2.23 5,5 v 30 c 0,2.77 -2.23,5 -5,5 H 5 C 2.23,40 0,37.77 0,35 V 5 C 0,2.23 2.23,0 5,0 Z"
       id="rect190" />
    <g
       aria-label="V/OCT"
       transform="translate(1,36)"
       style="font-weight:bold;font-size:8px;font-family:Roboto, sans-serif;letter-spacing:1px;fill:#333333"
       id="text192">
      <path
         d="M 2.609375,-1.4101562 3.8984375,-5.6875 H 5.203125 L 3.2226563,0 H 2 L 0.02734375,-5.6875 H 1.328125 Z"
         style="font-weight:bold;font-size:8px;font-family:Roboto, sans-serif;letter-spacing:1px;fill:#333333"
         id="path414" />
      <path
         d="M 7.0234375,0.48828125 H 6.1835937 L 8.2773438,-5.6875 h 0.8398437 z"
         style="font-weight:bold;font-size:8px;font-family:Roboto, sans-serif;letter-spacing:1px;fill:#333333"
         id="path416" />
      <path
         d="m 15.398438,-2.7148438 q 0,0.8398438 -0.296875,1.4726563 -0.296875,0.6328125 -0.851563,0.9765625 -0.550781,0.34375 -1.265625,0.34375 -0.707031,0 -1.261719,-0.33984375 -0.554687,-0.33984375 -0.859375,-0.96874995 -0.304687,-0.6328125 -0.308593,-1.4531251 v -0.28125 q 0,-0.8398437 0.300781,-1.4765624 0.304687,-0.640625 0.855469,-0.9804688 0.554687,-0.34375 1.265625,-0.34375 0.710937,0 1.261718,0.34375 0.554688,0.3398438 0.855469,0.9804688 0.304688,0.6367187 0.304688,1.4726562 z m -1.1875,-0.2578125 q 0,-0.8945312 -0.320313,-1.3593749 -0.320312,-0.4648438 -0.914062,-0.4648438 -0.589844,0 -0.910157,0.4609375 -0.320312,0.4570312 -0.324218,1.34375 v 0.2773437 q 0,0.8710938 0.320312,1.3515626 0.320313,0.4804687 0.921875,0.4804687 0.589844,0 0.90625,-0.4609375 0.316406,-0.4648437 0.320313,-1.3515625 z"
         style="font-weight:bold;font-size:8px;font-family:Roboto, sans-serif;letter-spacing:1px;fill:#333333"
         id="path418" />
      <path
         d="m 21.722656,-1.8945312 q -0.06641,0.9179687 -0.679687,1.44531245 -0.609375,0.52734375 -1.609375,0.52734375 -1.09375,0 -1.722657,-0.734375 -0.625,-0.7382812 -0.625,-2.0234375 v -0.3476563 q 0,-0.8203125 0.289063,-1.4453124 0.289062,-0.625 0.824219,-0.9570313 0.539062,-0.3359375 1.25,-0.3359375 0.984375,0 1.585937,0.5273438 0.601563,0.5273437 0.695313,1.4804687 h -1.171875 q -0.04297,-0.5507812 -0.308594,-0.796875 -0.261719,-0.25 -0.800781,-0.25 -0.585938,0 -0.878907,0.421875 -0.289062,0.4179687 -0.296875,1.3007812 v 0.4296875 q 0,0.9218751 0.277344,1.3476563 0.28125,0.42578125 0.882813,0.42578125 0.542968,0 0.808593,-0.24609375 0.269532,-0.25 0.308594,-0.7695312 z"
         style="font-weight:bold;font-size:8px;font-family:Roboto, sans-serif;letter-spacing:1px;fill:#333333"
         id="path420" />
      <path
         d="M 27.664062,-4.7382812 H 25.921875 V 0 H 24.75 V -4.7382812 H 23.03125 V -5.6875 h 4.632812 z"
         style="font-weight:bold;font-size:8px;font-family:Roboto, sans-serif;letter-spacing:1px;fill:#333333"
         id="path422" />
    </g>
  </g>
  <g
     id="g200"
     transform="translate(50,320)">
    <path
       style="fill:#fafafa"
       d="m 5,0 h 20 c 2.77,0 5,2.23 5,5 v 30 c 0,2.77 -2.23,5 -5,5 H 5 C 2.23,40 0,37.77 0,35 V 5 C 0,2.23 2.23,0 5,0 Z"
       id="rect196" />
    <g
       aria-label="RST"
       transform="translate(5.5,36)"
       style="font-weight:bold;font-size:8px;font-family:Roboto, sans-serif;letter-spacing:2px;fill:#333333"
       id="text198">
      <path
         d="M 2.6132813,-2.0820313 H 1.6796875 V 0 h -1.171875 v -5.6875 h 2.1132813 q 1.0078125,0 1.5546874,0.4492188 0.546875,0.4492187 0.546875,1.2695312 0,0.5820312 -0.2539062,0.9726562 -0.25,0.3867188 -0.7617187,0.6171875 L 4.9375,-0.0546875 V 0 H 3.6796875 Z M 1.6796875,-3.03125 H 2.625 q 0.4414063,0 0.6835938,-0.2226563 0.2421875,-0.2265625 0.2421875,-0.6210937 0,-0.4023437 -0.2304688,-0.6328125 Q 3.09375,-4.7382812 2.6210938,-4.7382812 H 1.6796875 Z"
         style="font-weight:bold;font-size:8px;font-family:Roboto, sans-serif;letter-spacing:2px;fill:#333333"
         id="path426" />
      <path
         d="m 10.566406,-1.4921875 q 0,-0.3320312 -0.234375,-0.5078125 -0.234375,-0.1796875 -0.8437497,-0.375 -0.609375,-0.1992188 -0.9648438,-0.390625 -0.96875,-0.5234375 -0.96875,-1.4101562 0,-0.4609375 0.2578125,-0.8203125 0.2617188,-0.3632813 0.7460938,-0.5664063 0.4882812,-0.203125 1.09375,-0.203125 0.6093752,0 1.0859372,0.2226563 0.476563,0.21875 0.738282,0.6210937 0.265625,0.4023438 0.265625,0.9140625 h -1.171875 q 0,-0.390625 -0.246094,-0.6054687 -0.246094,-0.21875 -0.6914065,-0.21875 -0.4296875,0 -0.6679687,0.1835937 -0.2382813,0.1796875 -0.2382813,0.4765625 0,0.2773437 0.2773438,0.4648437 0.28125,0.1875 0.8242187,0.3515625 1,0.3007813 1.457031,0.7460938 0.457032,0.4453125 0.457032,1.109375 0,0.73828125 -0.558594,1.16015625 Q 10.625,0.078125 9.6796875,0.078125 q -0.65625,0 -1.1953125,-0.23828125 -0.5390625,-0.2421875 -0.8242188,-0.66015625 -0.28125,-0.4179687 -0.28125,-0.96875 h 1.1757813 q 0,0.94140625 1.125,0.94140625 0.4179685,0 0.6523435,-0.16796875 0.234375,-0.171875 0.234375,-0.4765625 z"
         style="font-weight:bold;font-size:8px;font-family:Roboto, sans-serif;letter-spacing:2px;fill:#333333"
         id="path428" />
      <path
         d="M 18.820312,-4.7382812 H 17.078125 V 0 H 15.90625 V -4.7382812 H 14.1875 V -5.6875 h 4.632812 z"
         style="font-weight:bold;font-size:8px;font-family:Roboto, sans-serif;letter-spacing:2px;fill:#333333"
         id="path430" />
    </g>
  </g>
</svg>
