<?xml version="1.0" encoding="UTF-8" standalone="no"?>
<svg
   xmlns:dc="http://purl.org/dc/elements/1.1/"
   xmlns:cc="http://creativecommons.org/ns#"
   xmlns:rdf="http://www.w3.org/1999/02/22-rdf-syntax-ns#"
   xmlns:svg="http://www.w3.org/2000/svg"
   xmlns="http://www.w3.org/2000/svg"
   xmlns:sodipodi="http://sodipodi.sourceforge.net/DTD/sodipodi-0.dtd"
   xmlns:inkscape="http://www.inkscape.org/namespaces/inkscape"
   version="1.1"
   width="45"
   height="380"
   viewBox="0 0 45 380"
   id="svg146"
   sodipodi:docname="svg_render_tmp.svg"
   inkscape:version="0.92.2 5c3e80d, 2017-08-06">
  <metadata
     id="metadata150">
    <rdf:RDF>
      <cc:Work
         rdf:about="">
        <dc:format>image/svg+xml</dc:format>
        <dc:type
           rdf:resource="http://purl.org/dc/dcmitype/StillImage" />
      </cc:Work>
    </rdf:RDF>
  </metadata>
  <sodipodi:namedview
     pagecolor="#ffffff"
     bordercolor="#666666"
     borderopacity="1"
     objecttolerance="10"
     gridtolerance="10"
     guidetolerance="10"
     inkscape:pageopacity="0"
     inkscape:pageshadow="2"
     inkscape:window-width="468"
     inkscape:window-height="449"
     id="namedview148"
     showgrid="false"
     inkscape:zoom="0.62105263"
     inkscape:cx="22.5"
     inkscape:cy="190"
     inkscape:window-x="0"
     inkscape:window-y="0"
     inkscape:window-maximized="0"
     inkscape:current-layer="svg146" />
  <style
     id="style2">
    text {
      fill: #333;
      font-family: 'Roboto', sans-serif;
      font-weight: bold;
    }
    text.title {
      font-family: 'Comfortaa', sans-serif;
      font-weight: normal;
    }
    text.brand {
      font-family: 'Audiowide', sans-serif;
      font-weight: bold;
    }
  </style>
  <defs
     id="defs74">
    <symbol
       id="knob"
       viewBox="0 0 45px 45px">
      <g
         transform="translate(22.5 22.5)"
         id="g10">
        <polyline
           points="-5,0 5,0"
           stroke-width="1"
           stroke="#00f"
           id="polyline4" />
        <polyline
           points="0,-5 0,5"
           stroke-width="1"
           stroke="#00f"
           id="polyline6" />
        <circle
           cx="0"
           cy="0"
           r="12.5"
           stroke-width="1"
           stroke="#00f"
           fill="none"
           id="circle8" />
      </g>
    </symbol>
    <symbol
       id="knobguide"
       viewBox="0 0 45px 45px">
      <g
         transform="translate(22.5 22.5)"
         id="g57">
        <g
           transform="rotate(-240) translate(15 0)"
           id="g15">
          <text
             font-size="5.0pt"
             transform="translate(3 0) rotate(240) translate(-2.2 2.2)"
             id="text13">0</text>
        </g>
        <g
           transform="rotate(-210) translate(15 0)"
           id="g19">
          <polyline
             points="0,0 2.5,0"
             stroke-width="0.3"
             stroke="#333"
             id="polyline17" />
        </g>
        <g
           transform="rotate(-180) translate(15 0)"
           id="g23">
          <polyline
             points="0,0 2.5,0"
             stroke-width="0.3"
             stroke="#333"
             id="polyline21" />
        </g>
        <g
           transform="rotate(-150) translate(15 0)"
           id="g27">
          <polyline
             points="0,0 2.5,0"
             stroke-width="0.3"
             stroke="#333"
             id="polyline25" />
        </g>
        <g
           transform="rotate(-120) translate(15 0)"
           id="g31">
          <polyline
             points="0,0 2.5,0"
             stroke-width="0.3"
             stroke="#333"
             id="polyline29" />
        </g>
        <g
           transform="rotate(-90) translate(15 0)"
           id="g35">
          <polyline
             points="0,0 2.5,0"
             stroke-width="0.3"
             stroke="#333"
             id="polyline33" />
        </g>
        <g
           transform="rotate(-60) translate(15 0)"
           id="g39">
          <polyline
             points="0,0 2.5,0"
             stroke-width="0.3"
             stroke="#333"
             id="polyline37" />
        </g>
        <g
           transform="rotate(-30) translate(15 0)"
           id="g43">
          <polyline
             points="0,0 2.5,0"
             stroke-width="0.3"
             stroke="#333"
             id="polyline41" />
        </g>
        <g
           transform="rotate(0) translate(15 0)"
           id="g47">
          <polyline
             points="0,0 2.5,0"
             stroke-width="0.3"
             stroke="#333"
             id="polyline45" />
        </g>
        <g
           transform="rotate(30) translate(15 0)"
           id="g51">
          <polyline
             points="0,0 2.5,0"
             stroke-width="0.3"
             stroke="#333"
             id="polyline49" />
        </g>
        <g
           transform="rotate(60) translate(15 0)"
           id="g55">
          <text
             font-size="5.0pt"
             transform="translate(3 0) rotate(-60) translate(-4 2.2)"
             id="text53">10</text>
        </g>
      </g>
    </symbol>
    <symbol
       id="input"
       viewBox="0 0 24px 24px">
      <g
         transform="translate(12 12)"
         id="g64">
        <circle
           cx="0"
           cy="0"
           r="5"
           stroke-width="1"
           stroke="#0f0"
           fill="#0f0"
           id="circle60" />
        <circle
           cx="0"
           cy="0"
           r="10.5"
           stroke-width="3"
           stroke="#0f0"
           fill="none"
           id="circle62" />
      </g>
    </symbol>
    <symbol
       id="output"
       viewBox="0 0 24px 24px">
      <g
         transform="translate(12 12)"
         id="g71">
        <circle
           cx="0"
           cy="0"
           r="5"
           stroke-width="1"
           stroke="#f00"
           fill="#f00"
           id="circle67" />
        <circle
           cx="0"
           cy="0"
           r="10.5"
           stroke-width="3"
           stroke="#f00"
           fill="none"
           id="circle69" />
      </g>
    </symbol>
  </defs>
  <path
     style="fill:#dddddd"
     d="M 0,0 H 45 V 380 H 0 Z"
     id="rect76" />
  <path
     style="fill:none;stroke:#e4e4e4;stroke-width:0.5"
     d="M 1,1 H 44 V 379 H 1 V 1"
     id="polyline78" />
  <path
     style="fill:none;stroke:#ebebeb;stroke-width:0.80000001"
     d="m 0.5,0.5 h 44 v 379 H 0.5 V 0.5"
     id="polyline80" />
  <path
     style="fill:none;stroke:#f2f2f2;stroke-width:1"
     d="M 0,0 H 45 V 380 H 0 V 0"
     id="polyline82" />
  <!-- <polyline points="22.5,0 22.5,380" stroke-width="0.5" stroke="#0f0" /> -->
  <!-- <rect width="45" height="10" fill="#0f0" transform="translate(0 68)" /> -->
  <!-- <rect width="45" height="10" fill="#0f0" transform="translate(0 127)" /> -->
  <!-- <rect width="45" height="10" fill="#0f0" transform="translate(0 177)" /> -->
  <g
     aria-label="VCA"
     transform="rotate(-90)"
     style="font-weight:normal;font-size:9.33333302px;font-family:Comfortaa, sans-serif;letter-spacing:2.5px;fill:#333333"
     id="text84">
    <path
       d="m -369.82133,5.7106669 q 0.14933,0 0.23333,0.093333 0.0933,0.093333 0.0933,0.2333334 0,0.093333 -0.0467,0.2053333 l -2.78134,6.5240001 Q -372.42533,13 -372.64933,13 q -0.12134,0 -0.20534,-0.04667 -0.0747,-0.056 -0.13066,-0.186666 l -2.772,-6.4866668 q -0.056,-0.14 -0.056,-0.2426666 0,-0.1493334 0.0933,-0.2333334 0.10267,-0.093333 0.26133,-0.093333 0.24267,0 0.336,0.2333333 l 2.47334,5.9173328 2.464,-5.8986661 q 0.056,-0.14 0.14,-0.196 0.084,-0.056 0.224,-0.056 z"
       style="font-weight:normal;font-size:9.33333302px;font-family:Comfortaa, sans-serif;letter-spacing:2.5px;fill:#333333"
       id="path274" />
    <path
       d="m -363.07452,13.093333 q -0.98933,0 -1.82,-0.504 -0.83067,-0.504 -1.32533,-1.362666 -0.48534,-0.858667 -0.48534,-1.8760002 0,-1.008 0.48534,-1.8666666 0.48533,-0.8586666 1.316,-1.3626666 0.83066,-0.504 1.82933,-0.504 0.672,0 1.22267,0.196 0.55066,0.196 1.064,0.6253333 0.10266,0.074667 0.10266,0.2146666 0,0.074667 -0.0373,0.14 -0.0373,0.056 -0.10267,0.084 -0.0187,0.065333 -0.084,0.1026667 -0.0653,0.037333 -0.14,0.037333 -0.14,0 -0.23333,-0.084 -0.364,-0.3266666 -0.79333,-0.4759999 -0.42934,-0.1493334 -0.99867,-0.1493334 -0.784,0 -1.456,0.42 -0.672,0.4106667 -1.07333,1.1106666 -0.392,0.7 -0.392,1.512 0,0.8306662 0.392,1.5306662 0.392,0.7 1.064,1.110667 0.672,0.410667 1.46533,0.410667 1.01733,0 1.83867,-0.653334 0.10266,-0.07467 0.20533,-0.07467 0.14,0 0.24267,0.102666 0.10266,0.09333 0.10266,0.252 0,0.149334 -0.10266,0.261334 -0.87734,0.802666 -2.28667,0.802666 z"
       style="font-weight:normal;font-size:9.33333302px;font-family:Comfortaa, sans-serif;letter-spacing:2.5px;fill:#333333"
       id="path276" />
    <path
       d="m -351.18067,12.486667 q 0.0373,0.06533 0.0373,0.149333 0,0.149333 -0.112,0.261333 Q -351.358,13 -351.50733,13 q -0.24267,0 -0.34534,-0.224 l -0.62533,-1.512 h -3.612 l -0.62533,1.512 q -0.0747,0.224 -0.336,0.224 -0.15867,0 -0.26134,-0.102667 -0.0933,-0.112 -0.0933,-0.261333 0,-0.09333 0.028,-0.158667 l 2.744,-6.5146661 q 0.10267,-0.252 0.35467,-0.252 0.252,0 0.34533,0.252 z m -1.54933,-1.848 -1.54933,-3.7426668 -1.54934,3.7426668 z"
       style="font-weight:normal;font-size:9.33333302px;font-family:Comfortaa, sans-serif;letter-spacing:2.5px;fill:#333333"
       id="path278" />
  </g>
  <g
     id="g90"
     transform="rotate(-90,200.5,175.5)">
    <g
       aria-label="BGA"
       style="font-weight:bold;font-size:9.33333302px;font-family:Audiowide, sans-serif;letter-spacing:2px;fill:#333333"
       id="text86">
      <path
         d="m 7.2096352,-1.4355468 q 0,0.21875 -0.077474,0.469401 -0.072917,0.25065103 -0.2460937,0.46484373 -0.1686198,0.2141927 -0.4420573,0.36002603 Q 6.1705727,0 5.7740883,0 H 1.2760416 Q 1.1484375,0 1.0390625,-0.04557292 0.92968747,-0.09114583 0.84765622,-0.16861979 q -0.077474,-0.0820312 -0.12304687,-0.19140624 -0.0455729,-0.109375 -0.0455729,-0.23697916 V -5.9381508 q 0,-0.1230469 0.0455729,-0.2324219 0.0455729,-0.109375 0.12304687,-0.1914062 0.0820313,-0.082031 0.19140628,-0.1276042 0.109375,-0.045573 0.2369791,-0.045573 h 3.9648436 q 0.21875,0 0.4694011,0.077474 0.250651,0.077474 0.4648437,0.2506511 0.21875,0.1686197 0.360026,0.4420572 0.1458334,0.2734375 0.1458334,0.6699219 v 0.2233073 q 0,0.3144531 -0.1048177,0.6790364 -0.1048178,0.360026 -0.3372396,0.6835937 0.2005208,0.1230469 0.3736979,0.296224 0.1777344,0.1731771 0.3098958,0.4010416 0.1321615,0.2278646 0.2096354,0.514974 0.077474,0.2871093 0.077474,0.6334635 z M 6.0247394,-1.6634114 q 0,-0.2324219 -0.072917,-0.4147135 Q 5.878906,-2.2649739 5.7467446,-2.3971353 5.6145831,-2.5292968 5.4277342,-2.5976562 5.2408852,-2.6705728 5.0084634,-2.6705728 H 2.3378905 v -1.1940104 h 2.1373698 q 0.2324218,0 0.4192708,-0.068359 0.1868489,-0.072917 0.3190104,-0.2050781 0.1321614,-0.1321614 0.2005208,-0.3144531 0.072917,-0.186849 0.072917,-0.4192708 v -0.2233073 q 0,-0.2552083 -0.2460938,-0.2552083 h -3.376953 v 4.1653644 h 3.9101561 q 0.031901,0 0.077474,-0.00456 0.045573,-0.00456 0.082031,-0.027344 0.036458,-0.022787 0.063802,-0.077474 0.027344,-0.054687 0.027344,-0.1503906 z"
         style="font-weight:bold;font-size:9.33333302px;font-family:Audiowide, sans-serif;letter-spacing:2px;fill:#333333"
         id="path281" />
      <path
         d="m 16.683594,-0.59700519 q 0,0.12760416 -0.04557,0.23697916 -0.04557,0.109375 -0.127605,0.19140624 -0.07747,0.07747396 -0.186849,0.12304687 Q 16.214192,0 16.086588,0 h -4.274739 q -0.164063,0 -0.355469,-0.03645833 -0.186849,-0.04101563 -0.373698,-0.12304687 -0.182291,-0.0820313 -0.350911,-0.20963541 -0.16862,-0.13216146 -0.300781,-0.31445312 -0.127605,-0.18684895 -0.205079,-0.42838537 -0.07747,-0.2460938 -0.07747,-0.5514323 v -3.2083332 q 0,-0.1640625 0.03646,-0.3509115 0.04101,-0.1914062 0.123047,-0.3736979 0.08203,-0.1868489 0.214192,-0.3554687 0.132162,-0.1686198 0.314453,-0.296224 0.186849,-0.1321614 0.428386,-0.2096354 0.241536,-0.077474 0.546875,-0.077474 h 4.817057 v 1.1848958 h -4.817057 q -0.232422,0 -0.355469,0.1230468 -0.123047,0.1230469 -0.123047,0.3645834 v 3.1992186 q 0,0.2278646 0.123047,0.3554687 0.127604,0.1230469 0.355469,0.1230469 h 3.686849 v -1.485677 h -3.153646 v -1.1940104 h 3.741536 q 0.127604,0 0.236979,0.05013 0.109375,0.045573 0.186849,0.1276042 0.08203,0.082031 0.127605,0.1914062 0.04557,0.1048177 0.04557,0.2278646 z"
         style="font-weight:bold;font-size:9.33333302px;font-family:Audiowide, sans-serif;letter-spacing:2px;fill:#333333"
         id="path283" />
      <path
         d="M 26.339842,0 H 25.154946 V -1.6041666 H 20.989582 V 0 h -1.184896 v -3.267578 q 0,-0.7154948 0.246094,-1.3170573 0.246094,-0.6015624 0.683594,-1.0345051 0.4375,-0.4329427 1.034505,-0.6744792 0.597005,-0.2415364 1.303385,-0.2415364 h 2.670573 q 0.123047,0 0.232422,0.045573 0.109375,0.045573 0.191406,0.1276042 0.08203,0.082031 0.127604,0.1914062 0.04557,0.109375 0.04557,0.2324219 z m -5.35026,-2.7890624 h 4.165364 v -2.5611978 h -2.082682 q -0.05469,0 -0.232422,0.018229 -0.173177,0.013672 -0.405599,0.077474 -0.227864,0.063802 -0.483072,0.1959635 -0.255209,0.1321615 -0.469402,0.3645833 -0.214192,0.2324219 -0.355468,0.5833334 -0.136719,0.3463541 -0.136719,0.8430989 z"
         style="font-weight:bold;font-size:9.33333302px;font-family:Audiowide, sans-serif;letter-spacing:2px;fill:#333333"
         id="path285" />
    </g>
    <path
       transform="translate(11.5,-5)"
       style="fill:#dddddd"
       d="M 0,0 H 3 V 3 H 0 Z"
       id="rect88" />
  </g>
  <g
     aria-label="1"
     style="font-weight:bold;font-size:8px;font-family:Roboto, sans-serif;letter-spacing:2px;fill:#333333"
     id="text94">
    <path
       d="M 8.6289063,25 H 7.5 v -4.351563 l -1.3476563,0.417969 v -0.917969 l 2.3554688,-0.84375 h 0.1210938 z"
       style="font-weight:bold;font-size:8px;font-family:Roboto, sans-serif;letter-spacing:2px;fill:#333333"
       id="path289" />
  </g>
  <g
     id="use96"
     transform="translate(0,19)">
    <g
       id="g270"
       transform="translate(22.5,22.5)">
      <g
         id="g228"
         transform="rotate(120,-7.5,4.330127)">
        <g
           aria-label="0"
           transform="rotate(-120,3.2350853,-1.3309401)"
           style="font-weight:bold;font-size:6.66666651px;font-family:Roboto, sans-serif;fill:#333333"
           id="text226">
          <path
             d="m 3.5123697,-1.9596354 q 0,0.98307292 -0.406901,1.50390624 -0.4069011,0.52083333 -1.1914062,0.52083333 -0.7747396,0 -1.18489585,-0.5110677 -0.41015624,-0.5110677 -0.41992187,-1.46484367 v -0.8723959 q 0,-0.9928385 0.41015624,-1.5071614 0.41341148,-0.5143229 1.18815098,-0.5143229 0.7747396,0 1.1848958,0.5110677 0.4101563,0.5078125 0.4199219,1.4615885 z M 2.5716145,-2.9166666 q 0,-0.5891927 -0.1627604,-0.8561198 -0.1595052,-0.2701823 -0.5013021,-0.2701823 -0.3320312,0 -0.4915364,0.2571615 Q 1.2597656,-3.531901 1.25,-2.9882812 v 1.1523437 q 0,0.5794271 0.15625,0.86263023 0.1595052,0.27994791 0.5078125,0.27994791 0.345052,0 0.4980468,-0.27018228 0.1529948,-0.27018226 0.1595052,-0.82682286 z"
             style="font-weight:bold;font-size:6.66666651px;font-family:Roboto, sans-serif;fill:#333333"
             id="path292" />
        </g>
      </g>
      <g
         id="g232"
         transform="rotate(150,-7.5,2.0096189)">
        <path
           style="stroke:#333333;stroke-width:0.30000001"
           d="M 0,0 H 2.5"
           id="polyline230" />
      </g>
      <g
         id="g236"
         transform="rotate(-180,-7.5,0)">
        <path
           style="stroke:#333333;stroke-width:0.30000001"
           d="M 0,0 H 2.5"
           id="polyline234" />
      </g>
      <g
         id="g240"
         transform="rotate(-150,-7.5,-2.0096189)">
        <path
           style="stroke:#333333;stroke-width:0.30000001"
           d="M 0,0 H 2.5"
           id="polyline238" />
      </g>
      <g
         id="g244"
         transform="rotate(-120,-7.5,-4.330127)">
        <path
           style="stroke:#333333;stroke-width:0.30000001"
           d="M 0,0 H 2.5"
           id="polyline242" />
      </g>
      <g
         id="g248"
         transform="rotate(-90,-7.5,-7.5)">
        <path
           style="stroke:#333333;stroke-width:0.30000001"
           d="M 0,0 H 2.5"
           id="polyline246" />
      </g>
      <g
         id="g252"
         transform="rotate(-60,-7.5,-12.990381)">
        <path
           style="stroke:#333333;stroke-width:0.30000001"
           d="M 0,0 H 2.5"
           id="polyline250" />
      </g>
      <g
         id="g256"
         transform="rotate(-30,-7.5,-27.990381)">
        <path
           style="stroke:#333333;stroke-width:0.30000001"
           d="M 0,0 H 2.5"
           id="polyline254" />
      </g>
      <g
         id="g260"
         transform="translate(15)">
        <path
           style="stroke:#333333;stroke-width:0.30000001"
           d="M 0,0 H 2.5"
           id="polyline258" />
      </g>
      <g
         id="g264"
         transform="rotate(30,-7.5,27.990381)">
        <path
           style="stroke:#333333;stroke-width:0.30000001"
           d="M 0,0 H 2.5"
           id="polyline262" />
      </g>
      <g
         id="g268"
         transform="rotate(60,-7.5,12.990381)">
        <g
           aria-label="10"
           transform="rotate(-60,5.4052559,-0.2339746)"
           style="font-weight:bold;font-size:6.66666651px;font-family:Roboto, sans-serif;fill:#333333"
           id="text266">
          <path
             d="M 2.6074218,0 H 1.6666666 v -3.626302 l -1.12304682,0.3483073 v -0.764974 L 2.5065104,-4.7460936 h 0.1009114 z"
             style="font-weight:bold;font-size:6.66666651px;font-family:Roboto, sans-serif;fill:#333333"
             id="path304" />
          <path
             d="m 7.3404947,-1.9596354 q 0,0.98307292 -0.406901,1.50390624 -0.4069011,0.52083333 -1.1914062,0.52083333 -0.7747396,0 -1.1848959,-0.5110677 -0.4101562,-0.5110677 -0.4199218,-1.46484367 v -0.8723959 q 0,-0.9928385 0.4101562,-1.5071614 0.4134115,-0.5143229 1.188151,-0.5143229 0.7747396,0 1.1848958,0.5110677 0.4101563,0.5078125 0.4199219,1.4615885 z M 6.3997395,-2.9166666 q 0,-0.5891927 -0.1627604,-0.8561198 -0.1595052,-0.2701823 -0.5013021,-0.2701823 -0.3320312,0 -0.4915364,0.2571615 -0.15625,0.2539062 -0.1660156,0.797526 v 1.1523437 q 0,0.5794271 0.15625,0.86263023 0.1595052,0.27994791 0.5078125,0.27994791 0.345052,0 0.4980468,-0.27018228 0.1529948,-0.27018226 0.1595052,-0.82682286 z"
             style="font-weight:bold;font-size:6.66666651px;font-family:Roboto, sans-serif;fill:#333333"
             id="path306" />
        </g>
      </g>
    </g>
  </g>
  <g
     id="g108"
     transform="translate(5.5,63)">
    <path
       transform="translate(0,63)"
       style="fill:#fafafa"
       d="M 0,0 H 34 V 10 H 0 Z"
       id="rect100" />
    <path
       style="fill:#fafafa"
       d="m 5,0 h 24 c 2.77,0 5,2.23 5,5 v 60 c 0,2.77 -2.23,5 -5,5 H 5 C 2.23,70 0,67.77 0,65 V 5 C 0,2.23 2.23,0 5,0 Z"
       id="rect102" />
    <g
       aria-label="CV"
       transform="translate(12.5,35)"
       style="font-weight:bold;font-size:6.66666651px;font-family:Roboto, sans-serif;letter-spacing:2px;fill:#333333"
       id="text104">
      <path
         d="m 4.1438801,-1.578776 q -0.055338,0.76497394 -0.5664062,1.20442705 -0.5078125,0.43945312 -1.3411458,0.43945312 -0.9114583,0 -1.43554687,-0.61197916 Q 0.27994791,-1.1621093 0.27994791,-2.2330729 v -0.2897135 q 0,-0.6835937 0.24088541,-1.2044271 0.24088541,-0.5208333 0.68684898,-0.797526 0.4492187,-0.2799479 1.0416666,-0.2799479 0.8203125,0 1.3216146,0.4394531 0.501302,0.4394531 0.579427,1.233724 H 3.173828 q -0.035807,-0.4589844 -0.2571614,-0.6640625 -0.218099,-0.2083334 -0.6673177,-0.2083334 -0.4882812,0 -0.7324219,0.3515625 -0.2408854,0.3483073 -0.2473958,1.0839844 v 0.3580729 q 0,0.7682291 0.2311198,1.1230468 0.234375,0.35481774 0.7356771,0.35481774 0.4524739,0 0.6738281,-0.20507812 Q 3.1347656,-1.1458333 3.1673176,-1.578776 Z"
         style="font-weight:bold;font-size:6.66666651px;font-family:Roboto, sans-serif;letter-spacing:2px;fill:#333333"
         id="path311" />
      <path
         d="m 8.5364581,-1.1751302 1.0742187,-3.564453 H 10.697916 L 9.0475258,0 H 8.0286456 L 6.3847655,-4.7395832 h 1.0839843 z"
         style="font-weight:bold;font-size:6.66666651px;font-family:Roboto, sans-serif;letter-spacing:2px;fill:#333333"
         id="path313" />
    </g>
    <g
       aria-label="IN"
       transform="translate(12.5,70)"
       style="font-weight:bold;font-size:6.66666651px;font-family:Roboto, sans-serif;letter-spacing:2px;fill:#333333"
       id="text106">
      <path
         d="M 1.4615885,0 H 0.48502603 V -4.7395832 H 1.4615885 Z"
         style="font-weight:bold;font-size:6.66666651px;font-family:Roboto, sans-serif;letter-spacing:2px;fill:#333333"
         id="path316" />
      <path
         d="M 8.2174477,0 H 7.2408852 L 5.3398436,-3.1184895 V 0 H 4.3632811 v -4.7395832 h 0.9765625 l 1.9042968,3.1249999 v -3.1249999 h 0.9733073 z"
         style="font-weight:bold;font-size:6.66666651px;font-family:Roboto, sans-serif;letter-spacing:2px;fill:#333333"
         id="path318" />
    </g>
  </g>
  <g
     id="g116"
     transform="translate(5.5,139)">
    <path
       transform="translate(0,-3)"
       style="fill:#bbbbbb"
       d="M 0,0 H 34 V 10 H 0 Z"
       id="rect110" />
    <path
       style="fill:#bbbbbb"
       d="m 5,0 h 24 c 2.77,0 5,2.23 5,5 v 25 c 0,2.77 -2.23,5 -5,5 H 5 C 2.23,35 0,32.77 0,30 V 5 C 0,2.23 2.23,0 5,0 Z"
       id="rect112" />
    <g
       aria-label="OUT"
       transform="translate(8.3,32)"
       style="font-weight:bold;font-size:6.66666651px;font-family:Roboto, sans-serif;letter-spacing:2px;fill:#333333"
       id="text114">
      <path
         d="m 4.3164061,-2.2623697 q 0,0.6998697 -0.2473958,1.2272135 -0.2473958,0.52734371 -0.7096354,0.81380204 -0.4589843,0.28645833 -1.0546875,0.28645833 -0.5891926,0 -1.0514322,-0.28320312 Q 0.79101561,-0.50130207 0.53710936,-1.0253906 0.28320312,-1.5527343 0.27994791,-2.2363281 v -0.234375 q 0,-0.6998697 0.25065104,-1.2304687 0.25390624,-0.5338541 0.71289065,-0.8170573 0.4622395,-0.2864583 1.0546874,-0.2864583 0.5924479,0 1.0514323,0.2864583 0.4622396,0.2832032 0.7128906,0.8170573 0.2539062,0.530599 0.2539062,1.2272135 z M 3.3268228,-2.4772135 q 0,-0.7454427 -0.266927,-1.1328125 -0.2669271,-0.3873697 -0.7617188,-0.3873697 -0.4915364,0 -0.7584635,0.3841145 -0.2669271,0.3808594 -0.2701823,1.1197917 v 0.2311198 q 0,0.7259114 0.2669271,1.126302 0.2669271,0.40039063 0.7682291,0.40039063 0.4915365,0 0.7552084,-0.38411453 0.2636718,-0.3873698 0.266927,-1.1263021 z"
         style="font-weight:bold;font-size:6.66666651px;font-family:Roboto, sans-serif;letter-spacing:2px;fill:#333333"
         id="path323" />
      <path
         d="m 10.619792,-4.7395832 v 3.1217447 q 0,0.77799477 -0.488282,1.23046872 -0.4850257,0.45247395 -1.3281246,0.45247395 -0.8300781,0 -1.3183594,-0.43945312 Q 6.9967448,-0.81380206 6.9869792,-1.5820312 v -3.157552 h 0.9765624 v 3.1282551 q 0,0.4654948 0.2213542,0.68033854 0.2246094,0.21158854 0.6184896,0.21158854 0.8235677,0 0.8365885,-0.86588538 v -3.1542968 z"
         style="font-weight:bold;font-size:6.66666651px;font-family:Roboto, sans-serif;letter-spacing:2px;fill:#333333"
         id="path325" />
      <path
         d="M 16.988281,-3.9485676 H 15.536458 V 0 h -0.976563 v -3.9485676 h -1.432291 v -0.7910156 h 3.860677 z"
         style="font-weight:bold;font-size:6.66666651px;font-family:Roboto, sans-serif;letter-spacing:2px;fill:#333333"
         id="path327" />
    </g>
  </g>
  <g
     aria-label="2"
     style="font-weight:bold;font-size:8px;font-family:Roboto, sans-serif;letter-spacing:2px;fill:#333333"
     id="text120">
    <path
       d="M 9.7851563,186 H 5.8867187 v -0.77344 l 1.8398438,-1.96094 q 0.3789063,-0.41406 0.5585938,-0.72265 0.1835937,-0.3086 0.1835937,-0.58594 0,-0.37891 -0.1914062,-0.59375 -0.1914063,-0.21875 -0.5468751,-0.21875 -0.3828125,0 -0.6054687,0.26563 -0.21875,0.26171 -0.21875,0.6914 H 5.7734375 q 0,-0.51953 0.2460937,-0.94922 0.25,-0.42968 0.703125,-0.67187 0.453125,-0.2461 1.0273438,-0.2461 0.8789063,0 1.3632813,0.42188 0.4882812,0.42187 0.4882812,1.19141 0,0.42187 -0.21875,0.85937 -0.21875,0.4375 -0.75,1.01953 l -1.2929688,1.36328 h 2.4453126 z"
       style="font-weight:bold;font-size:8px;font-family:Roboto, sans-serif;letter-spacing:2px;fill:#333333"
       id="path330" />
  </g>
  <g
     id="use122"
     transform="translate(0,180)">
    <g
       id="g222"
       transform="translate(22.5,22.5)">
      <g
         id="g180"
         transform="rotate(120,-7.5,4.330127)">
        <g
           aria-label="0"
           transform="rotate(-120,3.2350853,-1.3309401)"
           style="font-weight:bold;font-size:6.66666651px;font-family:Roboto, sans-serif;fill:#333333"
           id="text178">
          <path
             d="m 3.5123697,-1.9596354 q 0,0.98307292 -0.406901,1.50390624 -0.4069011,0.52083333 -1.1914062,0.52083333 -0.7747396,0 -1.18489585,-0.5110677 -0.41015624,-0.5110677 -0.41992187,-1.46484367 v -0.8723959 q 0,-0.9928385 0.41015624,-1.5071614 0.41341148,-0.5143229 1.18815098,-0.5143229 0.7747396,0 1.1848958,0.5110677 0.4101563,0.5078125 0.4199219,1.4615885 z M 2.5716145,-2.9166666 q 0,-0.5891927 -0.1627604,-0.8561198 -0.1595052,-0.2701823 -0.5013021,-0.2701823 -0.3320312,0 -0.4915364,0.2571615 Q 1.2597656,-3.531901 1.25,-2.9882812 v 1.1523437 q 0,0.5794271 0.15625,0.86263023 0.1595052,0.27994791 0.5078125,0.27994791 0.345052,0 0.4980468,-0.27018228 0.1529948,-0.27018226 0.1595052,-0.82682286 z"
             style="font-weight:bold;font-size:6.66666651px;font-family:Roboto, sans-serif;fill:#333333"
             id="path333" />
        </g>
      </g>
      <g
         id="g184"
         transform="rotate(150,-7.5,2.0096189)">
        <path
           style="stroke:#333333;stroke-width:0.30000001"
           d="M 0,0 H 2.5"
           id="polyline182" />
      </g>
      <g
         id="g188"
         transform="rotate(-180,-7.5,0)">
        <path
           style="stroke:#333333;stroke-width:0.30000001"
           d="M 0,0 H 2.5"
           id="polyline186" />
      </g>
      <g
         id="g192"
         transform="rotate(-150,-7.5,-2.0096189)">
        <path
           style="stroke:#333333;stroke-width:0.30000001"
           d="M 0,0 H 2.5"
           id="polyline190" />
      </g>
      <g
         id="g196"
         transform="rotate(-120,-7.5,-4.330127)">
        <path
           style="stroke:#333333;stroke-width:0.30000001"
           d="M 0,0 H 2.5"
           id="polyline194" />
      </g>
      <g
         id="g200"
         transform="rotate(-90,-7.5,-7.5)">
        <path
           style="stroke:#333333;stroke-width:0.30000001"
           d="M 0,0 H 2.5"
           id="polyline198" />
      </g>
      <g
         id="g204"
         transform="rotate(-60,-7.5,-12.990381)">
        <path
           style="stroke:#333333;stroke-width:0.30000001"
           d="M 0,0 H 2.5"
           id="polyline202" />
      </g>
      <g
         id="g208"
         transform="rotate(-30,-7.5,-27.990381)">
        <path
           style="stroke:#333333;stroke-width:0.30000001"
           d="M 0,0 H 2.5"
           id="polyline206" />
      </g>
      <g
         id="g212"
         transform="translate(15)">
        <path
           style="stroke:#333333;stroke-width:0.30000001"
           d="M 0,0 H 2.5"
           id="polyline210" />
      </g>
      <g
         id="g216"
         transform="rotate(30,-7.5,27.990381)">
        <path
           style="stroke:#333333;stroke-width:0.30000001"
           d="M 0,0 H 2.5"
           id="polyline214" />
      </g>
      <g
         id="g220"
         transform="rotate(60,-7.5,12.990381)">
        <g
           aria-label="10"
           transform="rotate(-60,5.4052559,-0.2339746)"
           style="font-weight:bold;font-size:6.66666651px;font-family:Roboto, sans-serif;fill:#333333"
           id="text218">
          <path
             d="M 2.6074218,0 H 1.6666666 v -3.626302 l -1.12304682,0.3483073 v -0.764974 L 2.5065104,-4.7460936 h 0.1009114 z"
             style="font-weight:bold;font-size:6.66666651px;font-family:Roboto, sans-serif;fill:#333333"
             id="path345" />
          <path
             d="m 7.3404947,-1.9596354 q 0,0.98307292 -0.406901,1.50390624 -0.4069011,0.52083333 -1.1914062,0.52083333 -0.7747396,0 -1.1848959,-0.5110677 -0.4101562,-0.5110677 -0.4199218,-1.46484367 v -0.8723959 q 0,-0.9928385 0.4101562,-1.5071614 0.4134115,-0.5143229 1.188151,-0.5143229 0.7747396,0 1.1848958,0.5110677 0.4101563,0.5078125 0.4199219,1.4615885 z M 6.3997395,-2.9166666 q 0,-0.5891927 -0.1627604,-0.8561198 -0.1595052,-0.2701823 -0.5013021,-0.2701823 -0.3320312,0 -0.4915364,0.2571615 -0.15625,0.2539062 -0.1660156,0.797526 v 1.1523437 q 0,0.5794271 0.15625,0.86263023 0.1595052,0.27994791 0.5078125,0.27994791 0.345052,0 0.4980468,-0.27018228 0.1529948,-0.27018226 0.1595052,-0.82682286 z"
             style="font-weight:bold;font-size:6.66666651px;font-family:Roboto, sans-serif;fill:#333333"
             id="path347" />
        </g>
      </g>
    </g>
  </g>
  <g
     id="g134"
     transform="translate(5.5,224)">
    <path
       transform="translate(0,63)"
       style="fill:#fafafa"
       d="M 0,0 H 34 V 10 H 0 Z"
       id="rect126" />
    <path
       style="fill:#fafafa"
       d="m 5,0 h 24 c 2.77,0 5,2.23 5,5 v 60 c 0,2.77 -2.23,5 -5,5 H 5 C 2.23,70 0,67.77 0,65 V 5 C 0,2.23 2.23,0 5,0 Z"
       id="rect128" />
    <g
       aria-label="CV"
       transform="translate(12.5,35)"
       style="font-weight:bold;font-size:6.66666651px;font-family:Roboto, sans-serif;letter-spacing:2px;fill:#333333"
       id="text130">
      <path
         d="m 4.1438801,-1.578776 q -0.055338,0.76497394 -0.5664062,1.20442705 -0.5078125,0.43945312 -1.3411458,0.43945312 -0.9114583,0 -1.43554687,-0.61197916 Q 0.27994791,-1.1621093 0.27994791,-2.2330729 v -0.2897135 q 0,-0.6835937 0.24088541,-1.2044271 0.24088541,-0.5208333 0.68684898,-0.797526 0.4492187,-0.2799479 1.0416666,-0.2799479 0.8203125,0 1.3216146,0.4394531 0.501302,0.4394531 0.579427,1.233724 H 3.173828 q -0.035807,-0.4589844 -0.2571614,-0.6640625 -0.218099,-0.2083334 -0.6673177,-0.2083334 -0.4882812,0 -0.7324219,0.3515625 -0.2408854,0.3483073 -0.2473958,1.0839844 v 0.3580729 q 0,0.7682291 0.2311198,1.1230468 0.234375,0.35481774 0.7356771,0.35481774 0.4524739,0 0.6738281,-0.20507812 Q 3.1347656,-1.1458333 3.1673176,-1.578776 Z"
         style="font-weight:bold;font-size:6.66666651px;font-family:Roboto, sans-serif;letter-spacing:2px;fill:#333333"
         id="path352" />
      <path
         d="m 8.5364581,-1.1751302 1.0742187,-3.564453 H 10.697916 L 9.0475258,0 H 8.0286456 L 6.3847655,-4.7395832 h 1.0839843 z"
         style="font-weight:bold;font-size:6.66666651px;font-family:Roboto, sans-serif;letter-spacing:2px;fill:#333333"
         id="path354" />
    </g>
    <g
       aria-label="IN"
       transform="translate(12.5,70)"
       style="font-weight:bold;font-size:6.66666651px;font-family:Roboto, sans-serif;letter-spacing:2px;fill:#333333"
       id="text132">
      <path
         d="M 1.4615885,0 H 0.48502603 V -4.7395832 H 1.4615885 Z"
         style="font-weight:bold;font-size:6.66666651px;font-family:Roboto, sans-serif;letter-spacing:2px;fill:#333333"
         id="path357" />
      <path
         d="M 8.2174477,0 H 7.2408852 L 5.3398436,-3.1184895 V 0 H 4.3632811 v -4.7395832 h 0.9765625 l 1.9042968,3.1249999 v -3.1249999 h 0.9733073 z"
         style="font-weight:bold;font-size:6.66666651px;font-family:Roboto, sans-serif;letter-spacing:2px;fill:#333333"
         id="path359" />
    </g>
  </g>
  <g
     id="g142"
     transform="translate(5.5,300)">
    <path
       transform="translate(0,-3)"
       style="fill:#bbbbbb"
       d="M 0,0 H 34 V 10 H 0 Z"
       id="rect136" />
    <path
       style="fill:#bbbbbb"
       d="m 5,0 h 24 c 2.77,0 5,2.23 5,5 v 25 c 0,2.77 -2.23,5 -5,5 H 5 C 2.23,35 0,32.77 0,30 V 5 C 0,2.23 2.23,0 5,0 Z"
       id="rect138" />
    <g
       aria-label="OUT"
       transform="translate(8.3,32)"
       style="font-weight:bold;font-size:6.66666651px;font-family:Roboto, sans-serif;letter-spacing:2px;fill:#333333"
       id="text140">
      <path
         d="m 4.3164061,-2.2623697 q 0,0.6998697 -0.2473958,1.2272135 -0.2473958,0.52734371 -0.7096354,0.81380204 -0.4589843,0.28645833 -1.0546875,0.28645833 -0.5891926,0 -1.0514322,-0.28320312 Q 0.79101561,-0.50130207 0.53710936,-1.0253906 0.28320312,-1.5527343 0.27994791,-2.2363281 v -0.234375 q 0,-0.6998697 0.25065104,-1.2304687 0.25390624,-0.5338541 0.71289065,-0.8170573 0.4622395,-0.2864583 1.0546874,-0.2864583 0.5924479,0 1.0514323,0.2864583 0.4622396,0.2832032 0.7128906,0.8170573 0.2539062,0.530599 0.2539062,1.2272135 z M 3.3268228,-2.4772135 q 0,-0.7454427 -0.266927,-1.1328125 -0.2669271,-0.3873697 -0.7617188,-0.3873697 -0.4915364,0 -0.7584635,0.3841145 -0.2669271,0.3808594 -0.2701823,1.1197917 v 0.2311198 q 0,0.7259114 0.2669271,1.126302 0.2669271,0.40039063 0.7682291,0.40039063 0.4915365,0 0.7552084,-0.38411453 0.2636718,-0.3873698 0.266927,-1.1263021 z"
         style="font-weight:bold;font-size:6.66666651px;font-family:Roboto, sans-serif;letter-spacing:2px;fill:#333333"
         id="path364" />
      <path
         d="m 10.619792,-4.7395832 v 3.1217447 q 0,0.77799477 -0.488282,1.23046872 -0.4850257,0.45247395 -1.3281246,0.45247395 -0.8300781,0 -1.3183594,-0.43945312 Q 6.9967448,-0.81380206 6.9869792,-1.5820312 v -3.157552 h 0.9765624 v 3.1282551 q 0,0.4654948 0.2213542,0.68033854 0.2246094,0.21158854 0.6184896,0.21158854 0.8235677,0 0.8365885,-0.86588538 v -3.1542968 z"
         style="font-weight:bold;font-size:6.66666651px;font-family:Roboto, sans-serif;letter-spacing:2px;fill:#333333"
         id="path366" />
      <path
         d="M 16.988281,-3.9485676 H 15.536458 V 0 h -0.976563 v -3.9485676 h -1.432291 v -0.7910156 h 3.860677 z"
         style="font-weight:bold;font-size:6.66666651px;font-family:Roboto, sans-serif;letter-spacing:2px;fill:#333333"
         id="path368" />
    </g>
  </g>
</svg>
