<?xml version="1.0" encoding="UTF-8" standalone="no"?>
<svg
   xmlns:dc="http://purl.org/dc/elements/1.1/"
   xmlns:cc="http://creativecommons.org/ns#"
   xmlns:rdf="http://www.w3.org/1999/02/22-rdf-syntax-ns#"
   xmlns:svg="http://www.w3.org/2000/svg"
   xmlns="http://www.w3.org/2000/svg"
   xmlns:sodipodi="http://sodipodi.sourceforge.net/DTD/sodipodi-0.dtd"
   xmlns:inkscape="http://www.inkscape.org/namespaces/inkscape"
   id="svg8"
   width="120"
   height="380"
   viewBox="0 0 120 380.00001"
   version="1.1"
   sodipodi:docname="Dice.svg"
   inkscape:version="0.92.2 5c3e80d, 2017-08-06">
  <metadata
     id="metadata29">
    <rdf:RDF>
      <cc:Work
         rdf:about="">
        <dc:format>image/svg+xml</dc:format>
        <dc:type
           rdf:resource="http://purl.org/dc/dcmitype/StillImage" />
        <dc:title>BlankPanel1</dc:title>
      </cc:Work>
    </rdf:RDF>
  </metadata>
  <defs
     id="defs27">
    <clipPath
       id="clipPath837"
       clipPathUnits="userSpaceOnUse">
      <path
         inkscape:connector-curvature="0"
         id="path835"
         d="M 0,842 H 595 V 0 H 0 Z" />
    </clipPath>
    <clipPath
       id="clipPath13703"
       clipPathUnits="userSpaceOnUse">
      <path
         inkscape:connector-curvature="0"
         id="path13701"
         d="M 0,1020.448 H 935.433 V 0 H 0 Z" />
    </clipPath>
  </defs>
  <sodipodi:namedview
     pagecolor="#ffffff"
     bordercolor="#666666"
     borderopacity="1"
     objecttolerance="10"
     gridtolerance="10"
     guidetolerance="10"
     inkscape:pageopacity="0"
     inkscape:pageshadow="2"
     inkscape:window-width="1898"
     inkscape:window-height="1026"
     id="namedview25"
     showgrid="false"
     inkscape:zoom="2.1091365"
     inkscape:cx="-55.855674"
     inkscape:cy="205.69915"
     inkscape:window-x="10"
     inkscape:window-y="42"
     inkscape:window-maximized="0"
     inkscape:current-layer="g827"
     showguides="true"
     inkscape:guide-bbox="true"
     inkscape:measure-start="44.8906,373.832"
     inkscape:measure-end="44.8906,362.457" />
  <title
     id="title2">BlankPanel1</title>
  <g
     transform="matrix(1.3333333,0,0,-1.3333333,-826.22953,717.78285)"
     inkscape:label="1"
     id="g827"
     style="opacity:1">
    <g
       id="g831"
       transform="matrix(1.3100849,0,0,0.99991813,-191.38111,0.0440701)">
      <g
         transform="translate(619.08227,-482.18084)"
         inkscape:label="02"
         id="g13693">
        <path
           inkscape:connector-curvature="0"
           id="path13695"
           style="fill:#091942;fill-opacity:1;fill-rule:evenodd;stroke:none;stroke-width:0.22436777"
           d="M 0,735.3352 H 68.666843 V 1020.448 H 0 Z" />
        <path
           style="opacity:1;fill:#e6e6e6;fill-opacity:1;stroke:#000000;stroke-width:0.47412768;stroke-linecap:square;stroke-miterlimit:4;stroke-dasharray:none;stroke-dashoffset:0;stroke-opacity:0.98999999"
           d="M -0.45300759,190.33385 V 0.445719 H 45.063249 90.579506 V 190.33385 380.22199 H 45.063249 -0.45300759 Z"
           id="path26"
           inkscape:connector-curvature="0"
           transform="matrix(0.75000002,0,0,-0.75000002,0.58989299,1020.518)" />
      </g>
    </g>
    <g
       inkscape:groupmode="layer"
       id="layer2"
       inkscape:label="Layer 1"
       style="opacity:0" />
    <g
       aria-label="Burst!"
       transform="scale(1,-1)"
       style="font-style:normal;font-weight:normal;font-size:9px;line-height:125%;font-family:Sans;letter-spacing:0px;word-spacing:0px;fill:#000000;fill-opacity:1;stroke:none;stroke-width:0.75px;stroke-linecap:butt;stroke-linejoin:miter;stroke-opacity:1"
       id="text85" />
    <rect
       style="opacity:1;fill:#000000;fill-opacity:1;stroke:#000000;stroke-width:0.88699555;stroke-linecap:square;stroke-miterlimit:4;stroke-dasharray:none;stroke-dashoffset:0;stroke-opacity:0.98999999"
       id="rect211"
       width="86.192909"
       height="25.394657"
       x="621.57568"
       y="-282.81534"
       transform="scale(1,-1)"
       ry="5.2912083" />
    <g
       aria-label="Dice"
       transform="matrix(1,0,0,-1,0,-3.5258394)"
       style="font-style:normal;font-weight:normal;font-size:9px;line-height:125%;font-family:Sans;letter-spacing:0px;word-spacing:0px;fill:#000000;fill-opacity:1;stroke:none;stroke-width:0.75px;stroke-linecap:butt;stroke-linejoin:miter;stroke-opacity:1"
       id="text826">
      <path
         d="m 653.34015,-528.18018 v -8.53125 h 2.625 q 1.125,0 2.00976,0.50977 0.89063,0.50391 1.38868,1.44141 0.49804,0.93164 0.49804,2.12109 v 0.39258 q 0,1.18945 -0.49218,2.11523 -0.48633,0.92578 -1.37696,1.43555 -0.89062,0.50976 -2.00976,0.51562 z m 1.75781,-7.10742 v 5.69531 h 0.84961 q 1.03125,0 1.57617,-0.67382 0.54492,-0.67383 0.55664,-1.92774 v -0.45117 q 0,-1.30078 -0.53906,-1.96875 -0.53906,-0.67383 -1.57617,-0.67383 z"
         style="font-style:normal;font-variant:normal;font-weight:bold;font-stretch:normal;font-size:12px;font-family:Roboto;-inkscape-font-specification:'Roboto, Bold';font-variant-ligatures:normal;font-variant-caps:normal;font-variant-numeric:normal;font-feature-settings:normal;text-align:start;writing-mode:lr-tb;text-anchor:start;stroke-width:0.75px"
         id="path828"
         inkscape:connector-curvature="0" />
      <path
         d="m 662.82062,-528.18018 h -1.69922 v -6.33984 h 1.69922 z m -1.79883,-7.98046 q 0,-0.38086 0.25195,-0.62696 0.25782,-0.24609 0.69727,-0.24609 0.43359,0 0.6914,0.24609 0.25782,0.2461 0.25782,0.62696 0,0.38671 -0.26367,0.63281 -0.25782,0.24609 -0.68555,0.24609 -0.42774,0 -0.69141,-0.24609 -0.25781,-0.2461 -0.25781,-0.63281 z"
         style="font-style:normal;font-variant:normal;font-weight:bold;font-stretch:normal;font-size:12px;font-family:Roboto;-inkscape-font-specification:'Roboto, Bold';font-variant-ligatures:normal;font-variant-caps:normal;font-variant-numeric:normal;font-feature-settings:normal;text-align:start;writing-mode:lr-tb;text-anchor:start;stroke-width:0.75px"
         id="path830"
         inkscape:connector-curvature="0" />
      <path
         d="m 666.85773,-529.42822 q 0.46875,0 0.76172,-0.25782 0.29296,-0.25781 0.30468,-0.68554 h 1.58789 q -0.006,0.64453 -0.35156,1.18359 -0.3457,0.5332 -0.94922,0.83203 -0.59765,0.29297 -1.32422,0.29297 -1.35937,0 -2.14453,-0.86133 -0.78515,-0.86718 -0.78515,-2.39062 v -0.11133 q 0,-1.46484 0.77929,-2.33789 0.7793,-0.87305 2.13868,-0.87305 1.18945,0 1.90429,0.67969 0.72071,0.67383 0.73242,1.79883 h -1.58789 q -0.0117,-0.49219 -0.30468,-0.79688 -0.29297,-0.31054 -0.77344,-0.31054 -0.5918,0 -0.89649,0.43359 -0.29882,0.42773 -0.29882,1.39453 v 0.17578 q 0,0.97852 0.29882,1.40625 0.29883,0.42774 0.90821,0.42774 z"
         style="font-style:normal;font-variant:normal;font-weight:bold;font-stretch:normal;font-size:12px;font-family:Roboto;-inkscape-font-specification:'Roboto, Bold';font-variant-ligatures:normal;font-variant-caps:normal;font-variant-numeric:normal;font-feature-settings:normal;text-align:start;writing-mode:lr-tb;text-anchor:start;stroke-width:0.75px"
         id="path832"
         inkscape:connector-curvature="0" />
      <path
         d="m 673.39679,-528.06299 q -1.39453,0 -2.27344,-0.85547 -0.87304,-0.85547 -0.87304,-2.27929 v -0.16407 q 0,-0.95507 0.36914,-1.70507 0.36914,-0.75586 1.04296,-1.16016 0.67969,-0.41016 1.54688,-0.41016 1.30078,0 2.04492,0.82032 0.75,0.82031 0.75,2.32617 v 0.6914 h -4.03711 q 0.082,0.6211 0.49219,0.9961 0.41602,0.375 1.04883,0.375 0.97851,0 1.52929,-0.70899 l 0.83204,0.93164 q -0.38086,0.53907 -1.03125,0.84375 -0.65039,0.29883 -1.44141,0.29883 z m -0.19336,-5.20312 q -0.50391,0 -0.82031,0.33984 -0.31055,0.33984 -0.39844,0.97266 h 2.35547 v -0.13477 q -0.0117,-0.5625 -0.30469,-0.86719 -0.29297,-0.31054 -0.83203,-0.31054 z"
         style="font-style:normal;font-variant:normal;font-weight:bold;font-stretch:normal;font-size:12px;font-family:Roboto;-inkscape-font-specification:'Roboto, Bold';font-variant-ligatures:normal;font-variant-caps:normal;font-variant-numeric:normal;font-feature-settings:normal;text-align:start;writing-mode:lr-tb;text-anchor:start;stroke-width:0.75px"
         id="path834"
         inkscape:connector-curvature="0" />
    </g>
    <rect
       ry="5.059772"
       transform="scale(1,-1)"
       y="-342.57288"
       x="621.77124"
       height="56.456612"
       width="85.801796"
       id="rect837"
       style="opacity:1;fill:#808080;fill-opacity:1;stroke:#000000;stroke-width:1.31953263;stroke-linecap:square;stroke-miterlimit:4;stroke-dasharray:none;stroke-dashoffset:0;stroke-opacity:0.98999999" />
  </g>
</svg>
