<?xml version="1.0" encoding="UTF-8" standalone="no"?>
<!-- Created with Inkscape (http://www.inkscape.org/) -->

<svg
   xmlns:dc="http://purl.org/dc/elements/1.1/"
   xmlns:cc="http://creativecommons.org/ns#"
   xmlns:rdf="http://www.w3.org/1999/02/22-rdf-syntax-ns#"
   xmlns:svg="http://www.w3.org/2000/svg"
   xmlns="http://www.w3.org/2000/svg"
   xmlns:sodipodi="http://sodipodi.sourceforge.net/DTD/sodipodi-0.dtd"
   xmlns:inkscape="http://www.inkscape.org/namespaces/inkscape"
   width="120"
   height="380"
   viewBox="0 0 31.75 100.54167"
   version="1.1"
   id="svg8"
   inkscape:version="0.92.2 5c3e80d, 2017-08-06"
   sodipodi:docname="Erwin.svg"
   inkscape:export-filename="E:\Users\Martin\Documents\Rack_Source\rack\plugins\ML_modules\res\Quantum.png"
   inkscape:export-xdpi="96"
   inkscape:export-ydpi="96">
  <defs
     id="defs2">
    <inkscape:perspective
       sodipodi:type="inkscape:persp3d"
       inkscape:vp_x="0 : 50.270835 : 1"
       inkscape:vp_y="0 : 1000 : 0"
       inkscape:vp_z="31.75 : 50.270835 : 1"
       inkscape:persp3d-origin="15.875 : 33.51389 : 1"
       id="perspective4742" />
  </defs>
  <sodipodi:namedview
     id="base"
     pagecolor="#ffffff"
     bordercolor="#666666"
     borderopacity="1.0"
     inkscape:pageopacity="0.0"
     inkscape:pageshadow="2"
     inkscape:zoom="4"
     inkscape:cx="88.570139"
     inkscape:cy="278.72416"
     inkscape:document-units="px"
     inkscape:current-layer="layer1"
     showgrid="true"
     units="px"
     fit-margin-top="0"
     fit-margin-left="0"
     fit-margin-right="0"
     fit-margin-bottom="0"
     showguides="true"
     inkscape:snap-to-guides="false"
     objecttolerance="20"
     inkscape:window-width="1898"
     inkscape:window-height="1026"
     inkscape:window-x="10"
     inkscape:window-y="42"
     inkscape:window-maximized="0"
     gridtolerance="17"
     inkscape:snap-perpendicular="false"
     inkscape:pagecheckerboard="true"
     inkscape:snap-page="false"
     inkscape:snap-text-baseline="true"
     inkscape:object-nodes="false"
     inkscape:snap-global="true">
    <inkscape:grid
       type="xygrid"
       id="grid43"
       originx="-7.3436628e-018"
       originy="100.54167"
       spacingx="0.52916668"
       spacingy="0.52916668"
       dotted="false"
       empspacing="20" />
  </sodipodi:namedview>
  <metadata
     id="metadata5">
    <rdf:RDF>
      <cc:Work
         rdf:about="">
        <dc:format>image/svg+xml</dc:format>
        <dc:type
           rdf:resource="http://purl.org/dc/dcmitype/StillImage" />
        <dc:title />
      </cc:Work>
    </rdf:RDF>
  </metadata>
  <g
     inkscape:label="Layer 1"
     inkscape:groupmode="layer"
     id="layer1"
     transform="translate(0,-196.45832)"
     style="display:inline">
    <rect
       style="opacity:1;fill:#e6e6e6;fill-opacity:1;stroke:#000000;stroke-width:0.26458335;stroke-linecap:square;stroke-miterlimit:4;stroke-dasharray:none;stroke-dashoffset:0;stroke-opacity:0.98999999"
       id="rect973"
       width="31.75"
       height="100.40938"
       x="-7.3436632e-18"
       y="196.45831"
       ry="0" />
    <rect
       style="fill:#808080;fill-opacity:1;stroke:none;stroke-width:0.77891225;stroke-opacity:1"
       id="rect4778"
       width="10.583334"
       height="34.395832"
       x="17.864887"
       y="219.74165"
       ry="1.9254887" />
    <rect
       ry="1.9254887"
       y="255.19583"
       x="17.864887"
       height="34.395832"
       width="10.583334"
       id="rect101"
       style="fill:#3c3c3c;fill-opacity:1;stroke:none;stroke-width:0.77891225;stroke-opacity:1" />
    <rect
       id="rect26-7-3-4-6-26"
       width="12.699998"
       height="27.25215"
       x="3.1749961"
       y="206.77701"
       style="fill:#808080;fill-opacity:1;stroke-width:0.83702594"
       ry="0.94338781" />
    <rect
       id="rect26-7-3-4-6-26-7"
       width="10.583334"
       height="11.641665"
       x="17.991661"
       y="206.77701"
       style="fill:#808080;fill-opacity:1;stroke-width:0.49940801"
       ry="0.97013831" />
    <g
       aria-label="Octave"
       style="font-style:normal;font-weight:normal;font-size:3.17500019px;line-height:125%;font-family:Sans;letter-spacing:0px;word-spacing:0px;fill:#000000;fill-opacity:1;stroke:none;stroke-width:0.26458335px;stroke-linecap:butt;stroke-linejoin:miter;stroke-opacity:1"
       id="text977"
       transform="translate(1.1485025,-0.23386084)">
      <path
         d="m 5.4379111,216.70148 q 0,0.33177 -0.111621,0.57981 -0.1116211,0.2465 -0.3162598,0.37672 -0.2046387,0.13023 -0.4774902,0.13023 -0.2666504,0 -0.4728394,-0.13023 -0.2061889,-0.13177 -0.3209106,-0.37362 -0.1131714,-0.24339 -0.116272,-0.56275 v -0.16278 q 0,-0.32557 0.1131714,-0.57516 0.1131714,-0.2496 0.3193603,-0.38137 0.2077393,-0.13333 0.4743897,-0.13333 0.2713012,0 0.4774902,0.13178 0.2077393,0.13022 0.3193604,0.37982 0.111621,0.24804 0.111621,0.57826 z m -0.2961059,-0.14572 q 0,-0.40153 -0.1612305,-0.61547 -0.1612304,-0.21549 -0.4511352,-0.21549 -0.2821533,0 -0.4449341,0.21549 -0.1612305,0.21394 -0.1658813,0.59531 v 0.16588 q 0,0.38913 0.1627807,0.61237 0.1643311,0.22169 0.4511353,0.22169 0.2883545,0 0.4464843,-0.20929 0.1581299,-0.21084 0.1627808,-0.60306 z"
         style="font-style:normal;font-variant:normal;font-weight:normal;font-stretch:normal;font-size:3.17499995px;font-family:Roboto;-inkscape-font-specification:'Roboto, Normal';font-variant-ligatures:normal;font-variant-caps:normal;font-variant-numeric:normal;font-feature-settings:normal;text-align:start;writing-mode:lr-tb;text-anchor:start;stroke-width:0.26458335px"
         id="path992"
         inkscape:connector-curvature="0" />
      <path
         d="m 6.5122641,217.55414 q 0.153479,0 0.2682007,-0.093 0.1147217,-0.093 0.127124,-0.23255 h 0.2713013 q -0.00775,0.14418 -0.099219,0.2744 -0.091467,0.13023 -0.2449463,0.20774 -0.1519287,0.0775 -0.322461,0.0775 -0.3426147,0 -0.5457031,-0.22789 -0.2015381,-0.22945 -0.2015381,-0.62632 v -0.0481 q 0,-0.24495 0.089917,-0.43563 0.089917,-0.19069 0.2573487,-0.29611 0.1689819,-0.10542 0.3984253,-0.10542 0.2821533,0 0.4681884,0.16898 0.1875855,0.16898 0.1999878,0.43873 h -0.271301 q -0.012402,-0.16278 -0.1240234,-0.26665 -0.1100708,-0.10542 -0.2728515,-0.10542 -0.2185914,0 -0.3395142,0.15813 -0.1193726,0.15658 -0.1193726,0.45424 v 0.0543 q 0,0.28991 0.1193726,0.44648 0.1193726,0.15658 0.3410644,0.15658 z"
         style="font-style:normal;font-variant:normal;font-weight:normal;font-stretch:normal;font-size:3.17499995px;font-family:Roboto;-inkscape-font-specification:'Roboto, Normal';font-variant-ligatures:normal;font-variant-caps:normal;font-variant-numeric:normal;font-feature-settings:normal;text-align:start;writing-mode:lr-tb;text-anchor:start;stroke-width:0.26458335px"
         id="path994"
         inkscape:connector-curvature="0" />
      <path
         d="m 7.8904746,215.67364 v 0.40618 h 0.3131592 v 0.22169 H 7.8904746 v 1.04024 q 0,0.10077 0.041858,0.15193 0.041858,0.0496 0.1426269,0.0496 0.049609,0 0.1364258,-0.0186 v 0.23254 q -0.1131714,0.031 -0.2201416,0.031 -0.1922363,0 -0.2899048,-0.11627 -0.097668,-0.11628 -0.097668,-0.33022 v -1.04024 H 7.2982627 v -0.22169 h 0.3054077 v -0.40618 z"
         style="font-style:normal;font-variant:normal;font-weight:normal;font-stretch:normal;font-size:3.17499995px;font-family:Roboto;-inkscape-font-specification:'Roboto, Normal';font-variant-ligatures:normal;font-variant-caps:normal;font-variant-numeric:normal;font-feature-settings:normal;text-align:start;writing-mode:lr-tb;text-anchor:start;stroke-width:0.26458335px"
         id="path996"
         inkscape:connector-curvature="0" />
      <path
         d="m 9.5725422,217.75723 q -0.024805,-0.0496 -0.040308,-0.17673 -0.1999878,0.20774 -0.4774902,0.20774 -0.2480469,0 -0.4077271,-0.13953 -0.1581298,-0.14107 -0.1581298,-0.35657 0,-0.26199 0.1984374,-0.40617 0.1999878,-0.14573 0.5612061,-0.14573 h 0.2790527 v -0.13177 q 0,-0.15038 -0.089917,-0.23875 -0.089917,-0.0899 -0.2651001,-0.0899 -0.153479,0 -0.2573486,0.0775 -0.1038696,0.0775 -0.1038696,0.18758 H 8.5229939 q 0,-0.12557 0.088367,-0.24184 0.089917,-0.11782 0.2418457,-0.18604 0.153479,-0.0682 0.3364136,-0.0682 0.2899047,0 0.4542358,0.14573 0.164331,0.14417 0.1705322,0.39842 v 0.77205 q 0,0.23099 0.058911,0.36742 v 0.0248 z m -0.4759399,-0.21859 q 0.1348755,0 0.2557983,-0.0698 0.1209229,-0.0698 0.1751831,-0.18139 v -0.34416 H 9.3027912 q -0.5270996,0 -0.5270996,0.30851 0,0.13487 0.089917,0.21084 0.089917,0.076 0.2309937,0.076 z"
         style="font-style:normal;font-variant:normal;font-weight:normal;font-stretch:normal;font-size:3.17499995px;font-family:Roboto;-inkscape-font-specification:'Roboto, Normal';font-variant-ligatures:normal;font-variant-caps:normal;font-variant-numeric:normal;font-feature-settings:normal;text-align:start;writing-mode:lr-tb;text-anchor:start;stroke-width:0.26458335px"
         id="path998"
         inkscape:connector-curvature="0" />
      <path
         d="m 10.795723,217.36811 0.415479,-1.28829 h 0.293005 l -0.601513,1.67741 h -0.218592 l -0.607715,-1.67741 h 0.293006 z"
         style="font-style:normal;font-variant:normal;font-weight:normal;font-stretch:normal;font-size:3.17499995px;font-family:Roboto;-inkscape-font-specification:'Roboto, Normal';font-variant-ligatures:normal;font-variant-caps:normal;font-variant-numeric:normal;font-feature-settings:normal;text-align:start;writing-mode:lr-tb;text-anchor:start;stroke-width:0.26458335px"
         id="path1000"
         inkscape:connector-curvature="0" />
      <path
         d="m 12.476241,217.78824 q -0.341064,0 -0.555005,-0.22324 -0.21394,-0.2248 -0.21394,-0.59997 v -0.0527 q 0,-0.24959 0.09457,-0.44493 0.09612,-0.19689 0.26665,-0.30696 0.172083,-0.11162 0.372071,-0.11162 0.327111,0 0.508496,0.21549 0.181384,0.21549 0.181384,0.61702 v 0.11937 H 11.9941 q 0.0062,0.24805 0.144177,0.40153 0.139527,0.15192 0.353467,0.15192 0.151929,0 0.257349,-0.062 0.10542,-0.062 0.184485,-0.16433 l 0.175183,0.13643 q -0.21084,0.32401 -0.63252,0.32401 z m -0.03566,-1.50379 q -0.173633,0 -0.291456,0.12713 -0.117822,0.12557 -0.145727,0.35347 h 0.840259 v -0.0217 q -0.0124,-0.21859 -0.117823,-0.33796 -0.10542,-0.12093 -0.285253,-0.12093 z"
         style="font-style:normal;font-variant:normal;font-weight:normal;font-stretch:normal;font-size:3.17499995px;font-family:Roboto;-inkscape-font-specification:'Roboto, Normal';font-variant-ligatures:normal;font-variant-caps:normal;font-variant-numeric:normal;font-feature-settings:normal;text-align:start;writing-mode:lr-tb;text-anchor:start;stroke-width:0.26458335px"
         id="path1002"
         inkscape:connector-curvature="0" />
    </g>
    <g
       aria-label="Semi"
       style="font-style:normal;font-weight:normal;font-size:3.17500019px;line-height:125%;font-family:Sans;letter-spacing:0px;word-spacing:0px;fill:#000000;fill-opacity:1;stroke:none;stroke-width:0.26458335px;stroke-linecap:butt;stroke-linejoin:miter;stroke-opacity:1"
       id="text981"
       transform="translate(-4.4436646e-6,-0.23386084)">
      <path
         d="m 20.694339,216.75109 q -0.382923,-0.11007 -0.558106,-0.26975 -0.173633,-0.16123 -0.173633,-0.39687 0,-0.26665 0.21239,-0.44029 0.213941,-0.17518 0.555005,-0.17518 0.232544,0 0.413929,0.0899 0.182934,0.0899 0.282153,0.24804 0.100769,0.15813 0.100769,0.34572 h -0.299207 q 0,-0.20464 -0.130224,-0.32091 -0.130225,-0.11782 -0.36742,-0.11782 -0.220141,0 -0.344165,0.0977 -0.122473,0.0961 -0.122473,0.2682 0,0.13797 0.116272,0.23409 0.117822,0.0946 0.398425,0.17363 0.282154,0.0791 0.440284,0.17519 0.15968,0.0946 0.235644,0.22169 0.07752,0.12712 0.07752,0.2992 0,0.27441 -0.213941,0.44029 -0.21394,0.16433 -0.572058,0.16433 -0.232544,0 -0.434082,-0.0884 -0.201538,-0.0899 -0.311609,-0.24494 -0.10852,-0.15503 -0.10852,-0.35192 h 0.299206 q 0,0.20464 0.150379,0.32401 0.151929,0.11782 0.404626,0.11782 0.235645,0 0.361219,-0.0961 0.125573,-0.0961 0.125573,-0.262 0,-0.16588 -0.116272,-0.25579 -0.116272,-0.0915 -0.421679,-0.17984 z"
         style="font-style:normal;font-variant:normal;font-weight:normal;font-stretch:normal;font-size:3.17499995px;font-family:Roboto;-inkscape-font-specification:'Roboto, Normal';font-variant-ligatures:normal;font-variant-caps:normal;font-variant-numeric:normal;font-feature-settings:normal;text-align:start;writing-mode:lr-tb;text-anchor:start;stroke-width:0.26458335px"
         id="path983"
         inkscape:connector-curvature="0" />
      <path
         d="m 22.565542,217.78824 q -0.341064,0 -0.555005,-0.22324 -0.21394,-0.2248 -0.21394,-0.59997 v -0.0527 q 0,-0.24959 0.09457,-0.44493 0.09612,-0.19689 0.26665,-0.30696 0.172083,-0.11162 0.37207,-0.11162 0.327112,0 0.508497,0.21549 0.181384,0.21549 0.181384,0.61702 v 0.11937 h -1.136365 q 0.0062,0.24805 0.144177,0.40153 0.139527,0.15192 0.353467,0.15192 0.151929,0 0.257349,-0.062 0.10542,-0.062 0.184485,-0.16433 l 0.175183,0.13643 q -0.21084,0.32401 -0.63252,0.32401 z m -0.03566,-1.50379 q -0.173632,0 -0.291455,0.12713 -0.117822,0.12557 -0.145727,0.35347 h 0.840259 v -0.0217 q -0.0124,-0.21859 -0.117823,-0.33796 -0.10542,-0.12093 -0.285254,-0.12093 z"
         style="font-style:normal;font-variant:normal;font-weight:normal;font-stretch:normal;font-size:3.17499995px;font-family:Roboto;-inkscape-font-specification:'Roboto, Normal';font-variant-ligatures:normal;font-variant-caps:normal;font-variant-numeric:normal;font-feature-settings:normal;text-align:start;writing-mode:lr-tb;text-anchor:start;stroke-width:0.26458335px"
         id="path985"
         inkscape:connector-curvature="0" />
      <path
         d="m 23.819729,216.07982 0.0078,0.18603 q 0.184485,-0.21704 0.497644,-0.21704 0.351916,0 0.47904,0.26975 0.08372,-0.12092 0.217041,-0.19534 0.134876,-0.0744 0.31781,-0.0744 0.551905,0 0.561206,0.58446 v 1.12396 h -0.286804 v -1.10691 q 0,-0.17983 -0.08216,-0.2682 -0.08217,-0.0899 -0.275953,-0.0899 -0.15968,0 -0.2651,0.0961 -0.10542,0.0946 -0.122473,0.2558 v 1.11311 h -0.288354 v -1.09916 q 0,-0.36586 -0.358118,-0.36586 -0.282153,0 -0.386023,0.24029 v 1.22473 h -0.286804 v -1.67741 z"
         style="font-style:normal;font-variant:normal;font-weight:normal;font-stretch:normal;font-size:3.17499995px;font-family:Roboto;-inkscape-font-specification:'Roboto, Normal';font-variant-ligatures:normal;font-variant-caps:normal;font-variant-numeric:normal;font-feature-settings:normal;text-align:start;writing-mode:lr-tb;text-anchor:start;stroke-width:0.26458335px"
         id="path987"
         inkscape:connector-curvature="0" />
      <path
         d="m 26.645913,217.75723 h -0.286804 v -1.67741 h 0.286804 z m -0.310058,-2.12235 q 0,-0.0698 0.04186,-0.11782 0.04341,-0.0481 0.127124,-0.0481 0.08372,0 0.127124,0.0481 0.04341,0.0481 0.04341,0.11782 0,0.0698 -0.04341,0.11627 -0.04341,0.0465 -0.127124,0.0465 -0.08372,0 -0.127124,-0.0465 -0.04186,-0.0465 -0.04186,-0.11627 z"
         style="font-style:normal;font-variant:normal;font-weight:normal;font-stretch:normal;font-size:3.17499995px;font-family:Roboto;-inkscape-font-specification:'Roboto, Normal';font-variant-ligatures:normal;font-variant-caps:normal;font-variant-numeric:normal;font-feature-settings:normal;text-align:start;writing-mode:lr-tb;text-anchor:start;stroke-width:0.26458335px"
         id="path989"
         inkscape:connector-curvature="0" />
    </g>
    <g
       aria-label="In"
       style="font-style:normal;font-weight:normal;font-size:3.17500019px;line-height:125%;font-family:Sans;letter-spacing:0px;word-spacing:0px;fill:#000000;fill-opacity:1;stroke:none;stroke-width:0.26458335px;stroke-linecap:butt;stroke-linejoin:miter;stroke-opacity:1"
       id="text840"
       transform="translate(0,0.39400043)">
      <path
         d="m 22.396912,222.25806 h -0.297657 v -2.25723 h 0.297657 z"
         style="font-style:normal;font-variant:normal;font-weight:normal;font-stretch:normal;font-size:3.17499995px;font-family:Roboto;-inkscape-font-specification:'Roboto, Normal';font-variant-ligatures:normal;font-variant-caps:normal;font-variant-numeric:normal;font-feature-settings:normal;text-align:start;writing-mode:lr-tb;text-anchor:start;stroke-width:0.26458335px"
         id="path853"
         inkscape:connector-curvature="0" />
      <path
         d="m 23.165857,220.58064 0.0093,0.21084 q 0.192236,-0.24185 0.502295,-0.24185 0.53175,0 0.536401,0.59997 v 1.10846 h -0.286804 v -1.11001 q -0.0016,-0.18139 -0.08372,-0.2682 -0.08061,-0.0868 -0.252698,-0.0868 -0.139526,0 -0.244946,0.0744 -0.10542,0.0744 -0.164331,0.19534 v 1.19528 H 22.89455 v -1.67742 z"
         style="font-style:normal;font-variant:normal;font-weight:normal;font-stretch:normal;font-size:3.17499995px;font-family:Roboto;-inkscape-font-specification:'Roboto, Normal';font-variant-ligatures:normal;font-variant-caps:normal;font-variant-numeric:normal;font-feature-settings:normal;text-align:start;writing-mode:lr-tb;text-anchor:start;stroke-width:0.26458335px"
         id="path855"
         inkscape:connector-curvature="0" />
    </g>
    <g
       aria-label="Out"
       style="font-style:normal;font-weight:normal;font-size:3.17500019px;line-height:125%;font-family:Sans;letter-spacing:0px;word-spacing:0px;fill:#f2f2f2;fill-opacity:1;stroke:none;stroke-width:0.26458335px;stroke-linecap:butt;stroke-linejoin:miter;stroke-opacity:1"
       id="text844"
       transform="translate(-1.2778931e-6,0.43562234)">
      <path
         d="m 22.634106,256.65604 q 0,0.33177 -0.111621,0.57981 -0.111621,0.2465 -0.31626,0.37672 -0.204638,0.13023 -0.47749,0.13023 -0.26665,0 -0.472839,-0.13023 -0.206189,-0.13177 -0.320911,-0.37362 -0.113171,-0.24339 -0.116272,-0.56275 v -0.16278 q 0,-0.32557 0.113171,-0.57516 0.113172,-0.2496 0.319361,-0.38138 0.207739,-0.13332 0.474389,-0.13332 0.271302,0 0.477491,0.13177 0.207739,0.13023 0.31936,0.37983 0.111621,0.24804 0.111621,0.57826 z M 22.338,256.51031 q 0,-0.40152 -0.16123,-0.61546 -0.161231,-0.21549 -0.451136,-0.21549 -0.282153,0 -0.444934,0.21549 -0.16123,0.21394 -0.165881,0.59531 v 0.16588 q 0,0.38913 0.162781,0.61237 0.164331,0.22169 0.451135,0.22169 0.288354,0 0.446484,-0.20929 0.15813,-0.21084 0.162781,-0.60306 z"
         style="font-style:normal;font-variant:normal;font-weight:normal;font-stretch:normal;font-size:3.17499995px;font-family:Roboto;-inkscape-font-specification:'Roboto, Normal';font-variant-ligatures:normal;font-variant-caps:normal;font-variant-numeric:normal;font-feature-settings:normal;text-align:start;writing-mode:lr-tb;text-anchor:start;fill:#f2f2f2;stroke-width:0.26458335px"
         id="path846"
         inkscape:connector-curvature="0" />
      <path
         d="m 24.071228,257.54591 q -0.167432,0.19689 -0.491443,0.19689 -0.268201,0 -0.409278,-0.15503 -0.139526,-0.15658 -0.141076,-0.46199 v -1.0914 h 0.286804 v 1.08365 q 0,0.38137 0.310059,0.38137 0.328662,0 0.437182,-0.24494 v -1.22008 h 0.286804 v 1.67741 h -0.272851 z"
         style="font-style:normal;font-variant:normal;font-weight:normal;font-stretch:normal;font-size:3.17499995px;font-family:Roboto;-inkscape-font-specification:'Roboto, Normal';font-variant-ligatures:normal;font-variant-caps:normal;font-variant-numeric:normal;font-feature-settings:normal;text-align:start;writing-mode:lr-tb;text-anchor:start;fill:#f2f2f2;stroke-width:0.26458335px"
         id="path848"
         inkscape:connector-curvature="0" />
      <path
         d="m 25.173486,255.6282 v 0.40618 h 0.313159 v 0.22169 h -0.313159 v 1.04024 q 0,0.10077 0.04186,0.15193 0.04186,0.0496 0.142627,0.0496 0.04961,0 0.136425,-0.0186 v 0.23254 q -0.113171,0.031 -0.220141,0.031 -0.192236,0 -0.289905,-0.11627 -0.09767,-0.11628 -0.09767,-0.33022 v -1.04024 h -0.305408 v -0.22169 h 0.305408 v -0.40618 z"
         style="font-style:normal;font-variant:normal;font-weight:normal;font-stretch:normal;font-size:3.17499995px;font-family:Roboto;-inkscape-font-specification:'Roboto, Normal';font-variant-ligatures:normal;font-variant-caps:normal;font-variant-numeric:normal;font-feature-settings:normal;text-align:start;writing-mode:lr-tb;text-anchor:start;fill:#f2f2f2;stroke-width:0.26458335px"
         id="path850"
         inkscape:connector-curvature="0" />
    </g>
  </g>
</svg>
