<?xml version="1.0" encoding="UTF-8" standalone="no"?>
<svg
   xmlns:dc="http://purl.org/dc/elements/1.1/"
   xmlns:cc="http://creativecommons.org/ns#"
   xmlns:rdf="http://www.w3.org/1999/02/22-rdf-syntax-ns#"
   xmlns:svg="http://www.w3.org/2000/svg"
   xmlns="http://www.w3.org/2000/svg"
   xmlns:xlink="http://www.w3.org/1999/xlink"
   xmlns:sodipodi="http://sodipodi.sourceforge.net/DTD/sodipodi-0.dtd"
   xmlns:inkscape="http://www.inkscape.org/namespaces/inkscape"
   id="svg8"
   width="60"
   height="380.00003"
   viewBox="0 0 59.999998 380.00004"
   version="1.1"
   sodipodi:docname="Folder.svg"
   inkscape:version="0.92.2 5c3e80d, 2017-08-06">
  <metadata
     id="metadata29">
    <rdf:RDF>
      <cc:Work
         rdf:about="">
        <dc:format>image/svg+xml</dc:format>
        <dc:type
           rdf:resource="http://purl.org/dc/dcmitype/StillImage" />
        <dc:title>BlankPanel1</dc:title>
      </cc:Work>
    </rdf:RDF>
  </metadata>
  <defs
     id="defs27">
    <clipPath
       id="clipPath837"
       clipPathUnits="userSpaceOnUse">
      <path
         inkscape:connector-curvature="0"
         id="path835"
         d="M 0,842 H 595 V 0 H 0 Z" />
    </clipPath>
    <clipPath
       id="clipPath13703"
       clipPathUnits="userSpaceOnUse">
      <path
         inkscape:connector-curvature="0"
         id="path13701"
         d="M 0,1020.448 H 935.433 V 0 H 0 Z" />
    </clipPath>
  </defs>
  <sodipodi:namedview
     pagecolor="#ffffff"
     bordercolor="#666666"
     borderopacity="1"
     objecttolerance="10"
     gridtolerance="10"
     guidetolerance="10"
     inkscape:pageopacity="0"
     inkscape:pageshadow="2"
     inkscape:window-width="1898"
     inkscape:window-height="1026"
     id="namedview25"
     showgrid="true"
     inkscape:zoom="2.1091365"
     inkscape:cx="-102.60295"
     inkscape:cy="189.57526"
     inkscape:window-x="10"
     inkscape:window-y="42"
     inkscape:window-maximized="0"
     inkscape:current-layer="g827"
     showguides="true"
     inkscape:guide-bbox="true">
    <sodipodi:guide
       position="30,360"
       orientation="1,0"
       id="guide101"
       inkscape:locked="false" />
    <inkscape:grid
       type="xygrid"
       id="grid826" />
    <sodipodi:guide
       position="-269.99999,60.000001"
       orientation="0,1"
       id="guide1007"
       inkscape:locked="false" />
  </sodipodi:namedview>
  <title
     id="title2">BlankPanel1</title>
  <g
     transform="matrix(1.3333333,0,0,-1.3333333,-826.22953,717.78288)"
     inkscape:label="1"
     id="g827"
     style="opacity:1">
    <g
       id="g831"
       transform="matrix(0.65492365,0,0,1.0001085,214.22316,-0.05847256)">
      <g
         transform="translate(619.08227,-482.18084)"
         inkscape:label="02"
         id="g13693">
        <path
           inkscape:connector-curvature="0"
           id="path13695"
           style="fill:#091942;fill-opacity:1;fill-rule:evenodd;stroke:none;stroke-width:0.22436777"
           d="M 0,735.3352 H 68.666843 V 1020.448 H 0 Z" />
        <path
           style="opacity:1;fill:#e6e6e6;fill-opacity:1;stroke:#000000;stroke-width:0.47412768;stroke-linecap:square;stroke-miterlimit:4;stroke-dasharray:none;stroke-dashoffset:0;stroke-opacity:0.98999999"
           d="M -0.45300759,190.33385 V 0.445719 H 45.063249 90.579506 V 190.33385 380.22199 H 45.063249 -0.45300759 Z"
           id="path26"
           inkscape:connector-curvature="0"
           transform="matrix(0.75000002,0,0,-0.75000002,0.58989299,1020.518)" />
      </g>
    </g>
    <g
       inkscape:groupmode="layer"
       id="layer2"
       inkscape:label="Layer 1"
       style="opacity:0">
      <image
         sodipodi:absref="/tmp/seq.png"
         y="-538.26715"
         x="619.08228"
         id="image80"
         xlink:href="file:///tmp/seq.png"
         preserveAspectRatio="none"
         height="290.25"
         width="45"
         transform="scale(1,-1)" />
    </g>
    <flowRoot
       xml:space="preserve"
       id="flowRoot826"
       style="font-style:normal;font-weight:normal;font-size:12px;line-height:125%;font-family:Sans;letter-spacing:0px;word-spacing:0px;fill:#000000;fill-opacity:1;stroke:none;stroke-width:1px;stroke-linecap:butt;stroke-linejoin:miter;stroke-opacity:1"
       transform="matrix(0.75000002,0,0,-0.75000002,619.67216,538.33717)"><flowRegion
         id="flowRegion828"><rect
           id="rect830"
           width="50"
           height="20"
           x="5"
           y="10.000031" /></flowRegion><flowPara
         id="flowPara834">MANIFOLDM</flowPara></flowRoot>    <g
       aria-label="MANI
FOLD"
       transform="scale(1,-1)"
       style="font-style:normal;font-variant:normal;font-weight:bold;font-stretch:normal;font-size:12px;line-height:125%;font-family:Roboto;-inkscape-font-specification:'Roboto, Bold';font-variant-ligatures:normal;font-variant-caps:normal;font-variant-numeric:normal;font-feature-settings:normal;text-align:center;letter-spacing:0px;word-spacing:0px;writing-mode:lr-tb;text-anchor:middle;fill:#000000;fill-opacity:1;stroke:none;stroke-width:0.75px;stroke-linecap:butt;stroke-linejoin:miter;stroke-opacity:1"
       id="text852">
      <path
         d="m 629.98761,-532.86841 2.19141,6.1875 2.17968,-6.1875 h 2.3086 v 8.53125 h -1.76367 v -2.33203 l 0.17578,-4.02539 -2.30274,6.35742 h -1.20703 l -2.29687,-6.35156 0.17578,4.01953 v 2.33203 h -1.75782 v -8.53125 z"
         style="font-style:normal;font-variant:normal;font-weight:bold;font-stretch:normal;font-size:12px;line-height:125%;font-family:Roboto;-inkscape-font-specification:'Roboto, Bold';font-variant-ligatures:normal;font-variant-caps:normal;font-variant-numeric:normal;font-feature-settings:normal;text-align:center;writing-mode:lr-tb;text-anchor:middle;stroke-width:0.75px"
         id="path919" />
      <path
         d="m 643.03058,-526.09497 h -3.08203 l -0.58594,1.75781 h -1.86914 l 3.17578,-8.53125 h 1.62891 l 3.19336,8.53125 h -1.86914 z m -2.60742,-1.42383 h 2.13281 l -1.07227,-3.19336 z"
         style="font-style:normal;font-variant:normal;font-weight:bold;font-stretch:normal;font-size:12px;line-height:125%;font-family:Roboto;-inkscape-font-specification:'Roboto, Bold';font-variant-ligatures:normal;font-variant-caps:normal;font-variant-numeric:normal;font-feature-settings:normal;text-align:center;writing-mode:lr-tb;text-anchor:middle;stroke-width:0.75px"
         id="path921" />
      <path
         d="m 653.23761,-524.33716 h -1.75781 l -3.42188,-5.61328 v 5.61328 h -1.75781 v -8.53125 h 1.75781 l 3.42774,5.625 v -5.625 h 1.75195 z"
         style="font-style:normal;font-variant:normal;font-weight:bold;font-stretch:normal;font-size:12px;line-height:125%;font-family:Roboto;-inkscape-font-specification:'Roboto, Bold';font-variant-ligatures:normal;font-variant-caps:normal;font-variant-numeric:normal;font-feature-settings:normal;text-align:center;writing-mode:lr-tb;text-anchor:middle;stroke-width:0.75px"
         id="path923" />
      <path
         d="m 656.65363,-524.33716 h -1.75782 v -8.53125 h 1.75782 z"
         style="font-style:normal;font-variant:normal;font-weight:bold;font-stretch:normal;font-size:12px;line-height:125%;font-family:Roboto;-inkscape-font-specification:'Roboto, Bold';font-variant-ligatures:normal;font-variant-caps:normal;font-variant-numeric:normal;font-feature-settings:normal;text-align:center;writing-mode:lr-tb;text-anchor:middle;stroke-width:0.75px"
         id="path925" />
      <path
         d="m 633.52667,-516.32349 h -3.375 v 3.48633 h -1.75781 v -8.53125 h 5.55469 v 1.42383 h -3.79688 v 2.20312 h 3.375 z"
         style="font-style:normal;font-variant:normal;font-weight:bold;font-stretch:normal;font-size:12px;line-height:125%;font-family:Roboto;-inkscape-font-specification:'Roboto, Bold';font-variant-ligatures:normal;font-variant-caps:normal;font-variant-numeric:normal;font-feature-settings:normal;text-align:center;writing-mode:lr-tb;text-anchor:middle;stroke-width:0.75px"
         id="path927" />
      <path
         d="m 641.98761,-516.90942 q 0,1.25976 -0.44531,2.20898 -0.44532,0.94922 -1.27735,1.46484 -0.82617,0.51563 -1.89843,0.51563 -1.06055,0 -1.89258,-0.50977 -0.83203,-0.50976 -1.28906,-1.45312 -0.45704,-0.94922 -0.4629,-2.17969 v -0.42187 q 0,-1.25977 0.45118,-2.21485 0.45703,-0.96094 1.2832,-1.4707 0.83203,-0.51563 1.89844,-0.51563 1.0664,0 1.89258,0.51563 0.83203,0.50976 1.2832,1.4707 0.45703,0.95508 0.45703,2.20899 z m -1.78125,-0.38672 q 0,-1.3418 -0.48047,-2.03907 -0.48047,-0.69726 -1.37109,-0.69726 -0.88477,0 -1.36524,0.69141 -0.48047,0.68554 -0.48633,2.01562 v 0.41602 q 0,1.30664 0.48047,2.02734 0.48047,0.7207 1.38282,0.7207 0.88476,0 1.35937,-0.6914 0.47461,-0.69727 0.48047,-2.02735 z"
         style="font-style:normal;font-variant:normal;font-weight:bold;font-stretch:normal;font-size:12px;line-height:125%;font-family:Roboto;-inkscape-font-specification:'Roboto, Bold';font-variant-ligatures:normal;font-variant-caps:normal;font-variant-numeric:normal;font-feature-settings:normal;text-align:center;writing-mode:lr-tb;text-anchor:middle;stroke-width:0.75px"
         id="path929" />
      <path
         d="m 645.03448,-514.24927 h 3.73243 v 1.41211 h -5.49024 v -8.53125 h 1.75781 z"
         style="font-style:normal;font-variant:normal;font-weight:bold;font-stretch:normal;font-size:12px;line-height:125%;font-family:Roboto;-inkscape-font-specification:'Roboto, Bold';font-variant-ligatures:normal;font-variant-caps:normal;font-variant-numeric:normal;font-feature-settings:normal;text-align:center;writing-mode:lr-tb;text-anchor:middle;stroke-width:0.75px"
         id="path931" />
      <path
         d="m 649.76886,-512.83716 v -8.53125 h 2.625 q 1.125,0 2.00977,0.50977 0.89062,0.5039 1.38867,1.4414 0.49804,0.93164 0.49804,2.1211 v 0.39258 q 0,1.18945 -0.49218,2.11523 -0.48633,0.92578 -1.37696,1.43555 -0.89062,0.50976 -2.00976,0.51562 z m 1.75781,-7.10742 v 5.69531 h 0.84961 q 1.03125,0 1.57617,-0.67383 0.54493,-0.67382 0.55664,-1.92773 v -0.45117 q 0,-1.30078 -0.53906,-1.96875 -0.53906,-0.67383 -1.57617,-0.67383 z"
         style="font-style:normal;font-variant:normal;font-weight:bold;font-stretch:normal;font-size:12px;line-height:125%;font-family:Roboto;-inkscape-font-specification:'Roboto, Bold';font-variant-ligatures:normal;font-variant-caps:normal;font-variant-numeric:normal;font-feature-settings:normal;text-align:center;writing-mode:lr-tb;text-anchor:middle;stroke-width:0.75px"
         id="path933" />
    </g>
    <g
       aria-label="Stages"
       transform="scale(1,-1)"
       style="font-style:normal;font-weight:normal;font-size:9px;line-height:125%;font-family:Sans;letter-spacing:0px;word-spacing:0px;fill:#000000;fill-opacity:1;stroke:none;stroke-width:0.75px;stroke-linecap:butt;stroke-linejoin:miter;stroke-opacity:1"
       id="text862">
      <path
         d="m 632.26788,-474.12231 q -0.96484,-0.27735 -1.40625,-0.67969 -0.4375,-0.40625 -0.4375,-1 0,-0.67188 0.53516,-1.10938 0.53906,-0.4414 1.39844,-0.4414 0.58593,0 1.04297,0.22656 0.46093,0.22656 0.71093,0.625 0.25391,0.39844 0.25391,0.87109 h -0.75391 q 0,-0.51562 -0.32812,-0.80859 -0.32813,-0.29688 -0.92578,-0.29688 -0.55469,0 -0.86719,0.2461 -0.30859,0.24219 -0.30859,0.67578 0,0.34766 0.29296,0.58984 0.29688,0.23828 1.00391,0.4375 0.71094,0.19922 1.10938,0.44141 0.40234,0.23828 0.59375,0.55859 0.19531,0.32032 0.19531,0.75391 0,0.69141 -0.53906,1.10937 -0.53907,0.41407 -1.44141,0.41407 -0.58594,0 -1.09375,-0.22266 -0.50781,-0.22656 -0.78516,-0.61719 -0.27343,-0.39062 -0.27343,-0.88672 h 0.7539 q 0,0.51563 0.37891,0.81641 0.38281,0.29688 1.01953,0.29688 0.59375,0 0.91016,-0.24219 0.3164,-0.24219 0.3164,-0.66016 0,-0.41797 -0.29297,-0.64453 -0.29297,-0.23047 -1.0625,-0.45312 z"
         style="font-style:normal;font-variant:normal;font-weight:normal;font-stretch:normal;font-size:8px;font-family:Roboto;-inkscape-font-specification:'Roboto, Normal';font-variant-ligatures:normal;font-variant-caps:normal;font-variant-numeric:normal;font-feature-settings:normal;text-align:start;writing-mode:lr-tb;text-anchor:start;stroke-width:0.75px"
         id="path964" />
      <path
         d="m 636.20929,-476.83716 v 1.02344 h 0.78906 v 0.55859 h -0.78906 v 2.6211 q 0,0.2539 0.10547,0.38281 0.10547,0.125 0.35937,0.125 0.125,0 0.34375,-0.0469 v 0.58594 q -0.28515,0.0781 -0.55468,0.0781 -0.48438,0 -0.73047,-0.29297 -0.2461,-0.29297 -0.2461,-0.83203 v -2.6211 h -0.76953 v -0.55859 h 0.76953 v -1.02344 z"
         style="font-style:normal;font-variant:normal;font-weight:normal;font-stretch:normal;font-size:8px;font-family:Roboto;-inkscape-font-specification:'Roboto, Normal';font-variant-ligatures:normal;font-variant-caps:normal;font-variant-numeric:normal;font-feature-settings:normal;text-align:start;writing-mode:lr-tb;text-anchor:start;stroke-width:0.75px"
         id="path966" />
      <path
         d="m 640.44757,-471.58716 q -0.0625,-0.125 -0.10156,-0.44531 -0.50391,0.52344 -1.20313,0.52344 -0.625,0 -1.02734,-0.35157 -0.39844,-0.35546 -0.39844,-0.89843 0,-0.66016 0.5,-1.02344 0.50391,-0.36719 1.41406,-0.36719 h 0.70313 v -0.33203 q 0,-0.37891 -0.22656,-0.60156 -0.22657,-0.22656 -0.66797,-0.22656 -0.38672,0 -0.64844,0.19531 -0.26172,0.19531 -0.26172,0.47265 h -0.72656 q 0,-0.3164 0.22266,-0.60937 0.22656,-0.29688 0.60937,-0.46875 0.38672,-0.17188 0.84766,-0.17188 0.73047,0 1.14453,0.36719 0.41406,0.36328 0.42969,1.00391 v 1.94531 q 0,0.58203 0.14843,0.92578 v 0.0625 z m -1.19922,-0.55078 q 0.33985,0 0.64453,-0.17578 0.30469,-0.17578 0.44141,-0.45703 v -0.86719 h -0.56641 q -1.32812,0 -1.32812,0.77734 0,0.33985 0.22656,0.53125 0.22656,0.19141 0.58203,0.19141 z"
         style="font-style:normal;font-variant:normal;font-weight:normal;font-stretch:normal;font-size:8px;font-family:Roboto;-inkscape-font-specification:'Roboto, Normal';font-variant-ligatures:normal;font-variant-caps:normal;font-variant-numeric:normal;font-feature-settings:normal;text-align:start;writing-mode:lr-tb;text-anchor:start;stroke-width:0.75px"
         id="path968" />
      <path
         d="m 642.0257,-473.7356 q 0,-0.98828 0.45703,-1.57031 0.45703,-0.58594 1.21093,-0.58594 0.77344,0 1.20704,0.54688 l 0.0351,-0.46875 h 0.66016 v 4.125 q 0,0.82031 -0.48828,1.29297 -0.48438,0.47265 -1.30469,0.47265 -0.45703,0 -0.89453,-0.19531 -0.4375,-0.19531 -0.66797,-0.53515 l 0.375,-0.4336 q 0.46484,0.57422 1.13672,0.57422 0.52734,0 0.82031,-0.29687 0.29688,-0.29688 0.29688,-0.83594 v -0.36328 q -0.4336,0.5 -1.1836,0.5 -0.74219,0 -1.20312,-0.59766 -0.45703,-0.59766 -0.45703,-1.62891 z m 0.72656,0.082 q 0,0.71484 0.29297,1.125 0.29297,0.40625 0.82031,0.40625 0.68359,0 1.00391,-0.6211 v -1.92969 q -0.33204,-0.60546 -0.9961,-0.60546 -0.52734,0 -0.82422,0.41015 -0.29687,0.41016 -0.29687,1.21485 z"
         style="font-style:normal;font-variant:normal;font-weight:normal;font-stretch:normal;font-size:8px;font-family:Roboto;-inkscape-font-specification:'Roboto, Normal';font-variant-ligatures:normal;font-variant-caps:normal;font-variant-numeric:normal;font-feature-settings:normal;text-align:start;writing-mode:lr-tb;text-anchor:start;stroke-width:0.75px"
         id="path970" />
      <path
         d="m 648.43585,-471.50903 q -0.85937,0 -1.39844,-0.5625 -0.53906,-0.56641 -0.53906,-1.51172 v -0.13281 q 0,-0.62891 0.23828,-1.1211 0.24219,-0.49609 0.67188,-0.77344 0.43359,-0.28125 0.9375,-0.28125 0.82422,0 1.28125,0.54297 0.45703,0.54297 0.45703,1.55469 v 0.30078 h -2.86328 q 0.0156,0.625 0.36328,1.01172 0.35156,0.38281 0.89062,0.38281 0.38282,0 0.64844,-0.15625 0.26563,-0.15625 0.46485,-0.41406 l 0.4414,0.34375 q -0.53125,0.81641 -1.59375,0.81641 z m -0.0898,-3.78907 q -0.4375,0 -0.73438,0.32032 -0.29687,0.3164 -0.36718,0.89062 h 2.11718 v -0.0547 q -0.0312,-0.55078 -0.29687,-0.85156 -0.26563,-0.30469 -0.71875,-0.30469 z"
         style="font-style:normal;font-variant:normal;font-weight:normal;font-stretch:normal;font-size:8px;font-family:Roboto;-inkscape-font-specification:'Roboto, Normal';font-variant-ligatures:normal;font-variant-caps:normal;font-variant-numeric:normal;font-feature-settings:normal;text-align:start;writing-mode:lr-tb;text-anchor:start;stroke-width:0.75px"
         id="path972" />
      <path
         d="m 653.37726,-472.70825 q 0,-0.29297 -0.22266,-0.45313 -0.21875,-0.16406 -0.76953,-0.28125 -0.54687,-0.11718 -0.87109,-0.28125 -0.32032,-0.16406 -0.47657,-0.39062 -0.15234,-0.22656 -0.15234,-0.53906 0,-0.51954 0.4375,-0.87891 0.44141,-0.35938 1.125,-0.35938 0.71875,0 1.16406,0.3711 0.44922,0.37109 0.44922,0.94922 h -0.72656 q 0,-0.29688 -0.25391,-0.51172 -0.25,-0.21485 -0.63281,-0.21485 -0.39453,0 -0.61719,0.17188 -0.22265,0.17187 -0.22265,0.44922 0,0.26172 0.20703,0.39453 0.20703,0.13281 0.74609,0.25391 0.54297,0.12109 0.87891,0.28906 0.33594,0.16797 0.49609,0.40625 0.16406,0.23437 0.16406,0.57422 0,0.5664 -0.45312,0.91015 -0.45313,0.33985 -1.17578,0.33985 -0.50781,0 -0.89844,-0.17969 -0.39062,-0.17969 -0.61328,-0.5 -0.21875,-0.32422 -0.21875,-0.69922 h 0.72266 q 0.0195,0.36328 0.28906,0.57813 0.27344,0.21093 0.71875,0.21093 0.41015,0 0.65625,-0.16406 0.25,-0.16797 0.25,-0.44531 z"
         style="font-style:normal;font-variant:normal;font-weight:normal;font-stretch:normal;font-size:8px;font-family:Roboto;-inkscape-font-specification:'Roboto, Normal';font-variant-ligatures:normal;font-variant-caps:normal;font-variant-numeric:normal;font-feature-settings:normal;text-align:start;writing-mode:lr-tb;text-anchor:start;stroke-width:0.75px"
         id="path974" />
    </g>
    <g
       aria-label="Folds"
       transform="scale(1,-1)"
       style="font-style:normal;font-weight:normal;font-size:9px;line-height:125%;font-family:Sans;letter-spacing:0px;word-spacing:0px;fill:#000000;fill-opacity:1;stroke:none;stroke-width:0.75px;stroke-linecap:butt;stroke-linejoin:miter;stroke-opacity:1"
       id="text874">
      <path
         d="m 636.09406,-435.09888 h -2.38672 v 2.51172 h -0.75 v -5.6875 h 3.52343 v 0.61719 h -2.77343 v 1.94531 h 2.38672 z"
         style="font-style:normal;font-variant:normal;font-weight:normal;font-stretch:normal;font-size:8px;font-family:Roboto;-inkscape-font-specification:'Roboto, Normal';font-variant-ligatures:normal;font-variant-caps:normal;font-variant-numeric:normal;font-feature-settings:normal;text-align:start;writing-mode:lr-tb;text-anchor:start;stroke-width:0.75px"
         id="path953" />
      <path
         d="m 636.9964,-434.7395 q 0,-0.6211 0.24219,-1.11719 0.24609,-0.49609 0.67968,-0.76562 0.4375,-0.26954 0.9961,-0.26954 0.86328,0 1.39453,0.59766 0.53516,0.59766 0.53516,1.58984 v 0.0508 q 0,0.61718 -0.23829,1.10937 -0.23437,0.48828 -0.67578,0.76172 -0.4375,0.27344 -1.00781,0.27344 -0.85937,0 -1.39453,-0.59766 -0.53125,-0.59766 -0.53125,-1.58203 z m 0.72656,0.0859 q 0,0.70312 0.32422,1.1289 0.32813,0.42578 0.875,0.42578 0.55078,0 0.875,-0.42968 0.32422,-0.4336 0.32422,-1.21094 0,-0.69531 -0.33203,-1.125 -0.32813,-0.4336 -0.875,-0.4336 -0.53516,0 -0.86328,0.42579 -0.32813,0.42578 -0.32813,1.21875 z"
         style="font-style:normal;font-variant:normal;font-weight:normal;font-stretch:normal;font-size:8px;font-family:Roboto;-inkscape-font-specification:'Roboto, Normal';font-variant-ligatures:normal;font-variant-caps:normal;font-variant-numeric:normal;font-feature-settings:normal;text-align:start;writing-mode:lr-tb;text-anchor:start;stroke-width:0.75px"
         id="path955" />
      <path
         d="m 642.53546,-432.58716 h -0.72265 v -6 h 0.72265 z"
         style="font-style:normal;font-variant:normal;font-weight:normal;font-stretch:normal;font-size:8px;font-family:Roboto;-inkscape-font-specification:'Roboto, Normal';font-variant-ligatures:normal;font-variant-caps:normal;font-variant-numeric:normal;font-feature-settings:normal;text-align:start;writing-mode:lr-tb;text-anchor:start;stroke-width:0.75px"
         id="path957" />
      <path
         d="m 643.51202,-434.7356 q 0,-0.97265 0.46094,-1.5625 0.46094,-0.59375 1.20703,-0.59375 0.74219,0 1.17578,0.50782 v -2.20313 h 0.72266 v 6 h -0.66406 l -0.0352,-0.45312 q -0.43359,0.53125 -1.20703,0.53125 -0.73437,0 -1.19922,-0.60157 -0.46094,-0.60156 -0.46094,-1.57031 z m 0.72266,0.082 q 0,0.71875 0.29688,1.125 0.29687,0.40625 0.82031,0.40625 0.6875,0 1.0039,-0.61719 v -1.94141 q -0.32421,-0.59765 -0.99609,-0.59765 -0.53125,0 -0.82812,0.41015 -0.29688,0.41016 -0.29688,1.21485 z"
         style="font-style:normal;font-variant:normal;font-weight:normal;font-stretch:normal;font-size:8px;font-family:Roboto;-inkscape-font-specification:'Roboto, Normal';font-variant-ligatures:normal;font-variant-caps:normal;font-variant-numeric:normal;font-feature-settings:normal;text-align:start;writing-mode:lr-tb;text-anchor:start;stroke-width:0.75px"
         id="path959" />
      <path
         d="m 650.66437,-433.70825 q 0,-0.29297 -0.22266,-0.45313 -0.21875,-0.16406 -0.76953,-0.28125 -0.54687,-0.11718 -0.87109,-0.28125 -0.32032,-0.16406 -0.47657,-0.39062 -0.15234,-0.22656 -0.15234,-0.53906 0,-0.51954 0.4375,-0.87891 0.44141,-0.35938 1.125,-0.35938 0.71875,0 1.16406,0.3711 0.44922,0.37109 0.44922,0.94922 h -0.72656 q 0,-0.29688 -0.25391,-0.51172 -0.25,-0.21485 -0.63281,-0.21485 -0.39453,0 -0.61719,0.17188 -0.22265,0.17187 -0.22265,0.44922 0,0.26172 0.20703,0.39453 0.20703,0.13281 0.74609,0.25391 0.54297,0.12109 0.87891,0.28906 0.33594,0.16797 0.49609,0.40625 0.16406,0.23437 0.16406,0.57422 0,0.5664 -0.45312,0.91015 -0.45313,0.33985 -1.17578,0.33985 -0.50781,0 -0.89844,-0.17969 -0.39062,-0.17969 -0.61328,-0.5 -0.21875,-0.32422 -0.21875,-0.69922 h 0.72266 q 0.0195,0.36328 0.28906,0.57813 0.27344,0.21093 0.71875,0.21093 0.41015,0 0.65625,-0.16406 0.25,-0.16797 0.25,-0.44531 z"
         style="font-style:normal;font-variant:normal;font-weight:normal;font-stretch:normal;font-size:8px;font-family:Roboto;-inkscape-font-specification:'Roboto, Normal';font-variant-ligatures:normal;font-variant-caps:normal;font-variant-numeric:normal;font-feature-settings:normal;text-align:start;writing-mode:lr-tb;text-anchor:start;stroke-width:0.75px"
         id="path961" />
    </g>
    <g
       aria-label="Symmetry"
       transform="scale(1,-1)"
       style="font-style:normal;font-weight:normal;font-size:9px;line-height:125%;font-family:Sans;letter-spacing:0px;word-spacing:0px;fill:#000000;fill-opacity:1;stroke:none;stroke-width:0.75px;stroke-linecap:butt;stroke-linejoin:miter;stroke-opacity:1"
       id="text878">
      <path
         d="m 626.45343,-373.62231 q -0.96484,-0.27735 -1.40625,-0.67969 -0.4375,-0.40625 -0.4375,-1 0,-0.67188 0.53516,-1.10938 0.53906,-0.4414 1.39843,-0.4414 0.58594,0 1.04297,0.22656 0.46094,0.22656 0.71094,0.625 0.25391,0.39844 0.25391,0.87109 h -0.75391 q 0,-0.51562 -0.32812,-0.80859 -0.32813,-0.29688 -0.92579,-0.29688 -0.55468,0 -0.86718,0.2461 -0.3086,0.24219 -0.3086,0.67578 0,0.34766 0.29297,0.58984 0.29688,0.23828 1.00391,0.4375 0.71094,0.19922 1.10937,0.44141 0.40235,0.23828 0.59375,0.55859 0.19532,0.32032 0.19532,0.75391 0,0.69141 -0.53907,1.10937 -0.53906,0.41407 -1.4414,0.41407 -0.58594,0 -1.09375,-0.22266 -0.50782,-0.22656 -0.78516,-0.61719 -0.27344,-0.39062 -0.27344,-0.88672 h 0.75391 q 0,0.51563 0.37891,0.81641 0.38281,0.29688 1.01953,0.29688 0.59375,0 0.91015,-0.24219 0.31641,-0.24219 0.31641,-0.66016 0,-0.41797 -0.29297,-0.64453 -0.29297,-0.23047 -1.0625,-0.45312 z"
         style="font-style:normal;font-variant:normal;font-weight:normal;font-stretch:normal;font-size:8px;font-family:Roboto;-inkscape-font-specification:'Roboto, Normal';font-variant-ligatures:normal;font-variant-caps:normal;font-variant-numeric:normal;font-feature-settings:normal;text-align:start;writing-mode:lr-tb;text-anchor:start;stroke-width:0.75px"
         id="path936"
         inkscape:connector-curvature="0" />
      <path
         d="m 630.79718,-372.14575 0.98438,-3.16797 h 0.77343 l -1.69922,4.87891 q -0.39453,1.05468 -1.2539,1.05468 l -0.13672,-0.0117 -0.26953,-0.0508 v -0.58593 l 0.19531,0.0156 q 0.36719,0 0.57031,-0.14844 0.20703,-0.14843 0.33985,-0.54297 l 0.16015,-0.42968 -1.50781,-4.17969 h 0.78906 z"
         style="font-style:normal;font-variant:normal;font-weight:normal;font-stretch:normal;font-size:8px;font-family:Roboto;-inkscape-font-specification:'Roboto, Normal';font-variant-ligatures:normal;font-variant-caps:normal;font-variant-numeric:normal;font-feature-settings:normal;text-align:start;writing-mode:lr-tb;text-anchor:start;stroke-width:0.75px"
         id="path938"
         inkscape:connector-curvature="0" />
      <path
         d="m 633.87531,-375.31372 0.0195,0.46875 q 0.46484,-0.54688 1.2539,-0.54688 0.88672,0 1.20703,0.67969 0.21094,-0.30469 0.54688,-0.49219 0.33984,-0.1875 0.80078,-0.1875 1.39063,0 1.41406,1.47266 v 2.83203 h -0.72265 v -2.78906 q 0,-0.45313 -0.20703,-0.67578 -0.20704,-0.22656 -0.69532,-0.22656 -0.40234,0 -0.66797,0.24218 -0.26562,0.23828 -0.30859,0.64453 v 2.80469 h -0.72656 v -2.76953 q 0,-0.92187 -0.90235,-0.92187 -0.71093,0 -0.97265,0.60546 v 3.08594 h -0.72266 v -4.22656 z"
         style="font-style:normal;font-variant:normal;font-weight:normal;font-stretch:normal;font-size:8px;font-family:Roboto;-inkscape-font-specification:'Roboto, Normal';font-variant-ligatures:normal;font-variant-caps:normal;font-variant-numeric:normal;font-feature-settings:normal;text-align:start;writing-mode:lr-tb;text-anchor:start;stroke-width:0.75px"
         id="path940"
         inkscape:connector-curvature="0" />
      <path
         d="m 640.89093,-375.31372 0.0195,0.46875 q 0.46485,-0.54688 1.25391,-0.54688 0.88672,0 1.20703,0.67969 0.21094,-0.30469 0.54687,-0.49219 0.33985,-0.1875 0.80079,-0.1875 1.39062,0 1.41406,1.47266 v 2.83203 h -0.72266 v -2.78906 q 0,-0.45313 -0.20703,-0.67578 -0.20703,-0.22656 -0.69531,-0.22656 -0.40235,0 -0.66797,0.24218 -0.26563,0.23828 -0.30859,0.64453 v 2.80469 h -0.72657 v -2.76953 q 0,-0.92187 -0.90234,-0.92187 -0.71094,0 -0.97266,0.60546 v 3.08594 h -0.72265 v -4.22656 z"
         style="font-style:normal;font-variant:normal;font-weight:normal;font-stretch:normal;font-size:8px;font-family:Roboto;-inkscape-font-specification:'Roboto, Normal';font-variant-ligatures:normal;font-variant-caps:normal;font-variant-numeric:normal;font-feature-settings:normal;text-align:start;writing-mode:lr-tb;text-anchor:start;stroke-width:0.75px"
         id="path942"
         inkscape:connector-curvature="0" />
      <path
         d="m 648.98077,-371.00903 q -0.85937,0 -1.39843,-0.5625 -0.53907,-0.56641 -0.53907,-1.51172 v -0.13281 q 0,-0.62891 0.23829,-1.1211 0.24218,-0.49609 0.67187,-0.77344 0.43359,-0.28125 0.9375,-0.28125 0.82422,0 1.28125,0.54297 0.45703,0.54297 0.45703,1.55469 v 0.30078 h -2.86328 q 0.0156,0.625 0.36328,1.01172 0.35156,0.38281 0.89063,0.38281 0.38281,0 0.64843,-0.15625 0.26563,-0.15625 0.46485,-0.41406 l 0.4414,0.34375 q -0.53125,0.81641 -1.59375,0.81641 z m -0.0898,-3.78907 q -0.4375,0 -0.73437,0.32032 -0.29688,0.3164 -0.36719,0.89062 h 2.11719 v -0.0547 q -0.0312,-0.55078 -0.29688,-0.85156 -0.26562,-0.30469 -0.71875,-0.30469 z"
         style="font-style:normal;font-variant:normal;font-weight:normal;font-stretch:normal;font-size:8px;font-family:Roboto;-inkscape-font-specification:'Roboto, Normal';font-variant-ligatures:normal;font-variant-caps:normal;font-variant-numeric:normal;font-feature-settings:normal;text-align:start;writing-mode:lr-tb;text-anchor:start;stroke-width:0.75px"
         id="path944"
         inkscape:connector-curvature="0" />
      <path
         d="m 652.44171,-376.33716 v 1.02344 h 0.78906 v 0.55859 h -0.78906 v 2.6211 q 0,0.2539 0.10547,0.38281 0.10547,0.125 0.35938,0.125 0.125,0 0.34375,-0.0469 v 0.58594 q -0.28516,0.0781 -0.55469,0.0781 -0.48438,0 -0.73047,-0.29297 -0.24609,-0.29297 -0.24609,-0.83203 v -2.6211 h -0.76954 v -0.55859 h 0.76954 v -1.02344 z"
         style="font-style:normal;font-variant:normal;font-weight:normal;font-stretch:normal;font-size:8px;font-family:Roboto;-inkscape-font-specification:'Roboto, Normal';font-variant-ligatures:normal;font-variant-caps:normal;font-variant-numeric:normal;font-feature-settings:normal;text-align:start;writing-mode:lr-tb;text-anchor:start;stroke-width:0.75px"
         id="path946"
         inkscape:connector-curvature="0" />
      <path
         d="m 656.11359,-374.66528 q -0.16407,-0.0274 -0.35547,-0.0274 -0.71094,0 -0.96485,0.60547 v 3 h -0.72265 v -4.22656 h 0.70312 l 0.0117,0.48828 q 0.35547,-0.56641 1.00781,-0.56641 0.21094,0 0.32032,0.0547 z"
         style="font-style:normal;font-variant:normal;font-weight:normal;font-stretch:normal;font-size:8px;font-family:Roboto;-inkscape-font-specification:'Roboto, Normal';font-variant-ligatures:normal;font-variant-caps:normal;font-variant-numeric:normal;font-feature-settings:normal;text-align:start;writing-mode:lr-tb;text-anchor:start;stroke-width:0.75px"
         id="path948"
         inkscape:connector-curvature="0" />
      <path
         d="m 658.15656,-372.14575 0.98437,-3.16797 h 0.77344 l -1.69922,4.87891 q -0.39453,1.05468 -1.25391,1.05468 l -0.13672,-0.0117 -0.26953,-0.0508 v -0.58593 l 0.19532,0.0156 q 0.36718,0 0.57031,-0.14844 0.20703,-0.14843 0.33984,-0.54297 l 0.16016,-0.42968 -1.50781,-4.17969 h 0.78906 z"
         style="font-style:normal;font-variant:normal;font-weight:normal;font-stretch:normal;font-size:8px;font-family:Roboto;-inkscape-font-specification:'Roboto, Normal';font-variant-ligatures:normal;font-variant-caps:normal;font-variant-numeric:normal;font-feature-settings:normal;text-align:start;writing-mode:lr-tb;text-anchor:start;stroke-width:0.75px"
         id="path950"
         inkscape:connector-curvature="0" />
    </g>
    <g
       aria-label="In"
       transform="matrix(1,0,0,-1,-22.5,43.5)"
       style="font-style:normal;font-weight:normal;font-size:9px;line-height:125%;font-family:Sans;letter-spacing:0px;word-spacing:0px;fill:#000000;fill-opacity:1;stroke:none;stroke-width:0.75px;stroke-linecap:butt;stroke-linejoin:miter;stroke-opacity:1"
       id="text886">
      <path
         d="m 652.25812,-257.43188 h -0.75 v -5.6875 h 0.75 z"
         style="font-style:normal;font-variant:normal;font-weight:normal;font-stretch:normal;font-size:8px;font-family:Roboto;-inkscape-font-specification:'Roboto, Normal';font-variant-ligatures:normal;font-variant-caps:normal;font-variant-numeric:normal;font-feature-settings:normal;text-align:start;writing-mode:lr-tb;text-anchor:start;stroke-width:0.75px"
         id="path1002"
         inkscape:connector-curvature="0" />
      <path
         d="m 654.19562,-261.65845 0.0234,0.53125 q 0.48437,-0.60937 1.26562,-0.60937 1.33984,0 1.35156,1.51172 v 2.79297 h -0.72265 v -2.79688 q -0.004,-0.45703 -0.21094,-0.67578 -0.20313,-0.21875 -0.63672,-0.21875 -0.35156,0 -0.61719,0.1875 -0.26562,0.1875 -0.41406,0.49219 v 3.01172 h -0.72266 v -4.22657 z"
         style="font-style:normal;font-variant:normal;font-weight:normal;font-stretch:normal;font-size:8px;font-family:Roboto;-inkscape-font-specification:'Roboto, Normal';font-variant-ligatures:normal;font-variant-caps:normal;font-variant-numeric:normal;font-feature-settings:normal;text-align:start;writing-mode:lr-tb;text-anchor:start;stroke-width:0.75px"
         id="path1004"
         inkscape:connector-curvature="0" />
    </g>
    <g
       aria-label="Out"
       transform="matrix(1,0,0,-1,19.5,43.5)"
       style="font-style:normal;font-weight:normal;font-size:9px;line-height:125%;font-family:Sans;letter-spacing:0px;word-spacing:0px;fill:#000000;fill-opacity:1;stroke:none;stroke-width:0.75px;stroke-linecap:butt;stroke-linejoin:miter;stroke-opacity:1"
       id="text890">
      <path
         d="m 630.35577,-260.09204 q 0,0.83594 -0.28125,1.46094 -0.28125,0.62109 -0.79687,0.94922 -0.51563,0.32812 -1.20313,0.32812 -0.67187,0 -1.1914,-0.32812 -0.51953,-0.33204 -0.8086,-0.94141 -0.28515,-0.61328 -0.29296,-1.41797 v -0.41016 q 0,-0.82031 0.28515,-1.44921 0.28516,-0.62891 0.80469,-0.96094 0.52344,-0.33594 1.19531,-0.33594 0.6836,0 1.20313,0.33203 0.52343,0.32813 0.80468,0.95703 0.28125,0.625 0.28125,1.45703 z m -0.74609,-0.36719 q 0,-1.01172 -0.40625,-1.55078 -0.40625,-0.54297 -1.13672,-0.54297 -0.71094,0 -1.12109,0.54297 -0.40625,0.53906 -0.41797,1.5 v 0.41797 q 0,0.98047 0.41016,1.54297 0.41406,0.55859 1.13671,0.55859 0.72657,0 1.125,-0.52734 0.39844,-0.53125 0.41016,-1.51953 z"
         style="font-style:normal;font-variant:normal;font-weight:normal;font-stretch:normal;font-size:8px;font-family:Roboto;-inkscape-font-specification:'Roboto, Normal';font-variant-ligatures:normal;font-variant-caps:normal;font-variant-numeric:normal;font-feature-settings:normal;text-align:start;writing-mode:lr-tb;text-anchor:start;fill:#000000;stroke-width:0.75px"
         id="path995"
         inkscape:connector-curvature="0" />
      <path
         d="m 633.97687,-257.84985 q -0.42188,0.49609 -1.23828,0.49609 -0.67578,0 -1.03125,-0.39062 -0.35157,-0.39454 -0.35547,-1.16407 v -2.75 h 0.72265 v 2.73047 q 0,0.96094 0.78125,0.96094 0.82813,0 1.10157,-0.61719 v -3.07422 h 0.72265 v 4.22657 h -0.6875 z"
         style="font-style:normal;font-variant:normal;font-weight:normal;font-stretch:normal;font-size:8px;font-family:Roboto;-inkscape-font-specification:'Roboto, Normal';font-variant-ligatures:normal;font-variant-caps:normal;font-variant-numeric:normal;font-feature-settings:normal;text-align:start;writing-mode:lr-tb;text-anchor:start;fill:#000000;stroke-width:0.75px"
         id="path997"
         inkscape:connector-curvature="0" />
      <path
         d="m 636.75421,-262.68188 v 1.02343 h 0.78906 v 0.5586 h -0.78906 v 2.62109 q 0,0.25391 0.10547,0.38281 0.10547,0.125 0.35938,0.125 0.125,0 0.34375,-0.0469 v 0.58594 q -0.28516,0.0781 -0.55469,0.0781 -0.48438,0 -0.73047,-0.29297 -0.24609,-0.29297 -0.24609,-0.83203 v -2.62109 h -0.76954 v -0.5586 h 0.76954 v -1.02343 z"
         style="font-style:normal;font-variant:normal;font-weight:normal;font-stretch:normal;font-size:8px;font-family:Roboto;-inkscape-font-specification:'Roboto, Normal';font-variant-ligatures:normal;font-variant-caps:normal;font-variant-numeric:normal;font-feature-settings:normal;text-align:start;writing-mode:lr-tb;text-anchor:start;fill:#000000;stroke-width:0.75px"
         id="path999"
         inkscape:connector-curvature="0" />
    </g>
    <g
       aria-label="Folds"
       transform="matrix(1,0,0,-1,0,51.802745)"
       style="font-style:normal;font-weight:normal;font-size:9px;line-height:125%;font-family:Sans;letter-spacing:0px;word-spacing:0px;fill:#000000;fill-opacity:1;stroke:none;stroke-width:0.75px;stroke-linecap:butt;stroke-linejoin:miter;stroke-opacity:1"
       id="text894">
      <path
         d="m 624.61749,-286.9436 h -2.38672 v 2.51172 h -0.75 v -5.6875 h 3.52344 v 0.61718 h -2.77344 v 1.94532 h 2.38672 z"
         style="font-style:normal;font-variant:normal;font-weight:normal;font-stretch:normal;font-size:8px;font-family:Roboto;-inkscape-font-specification:'Roboto, Normal';font-variant-ligatures:normal;font-variant-caps:normal;font-variant-numeric:normal;font-feature-settings:normal;text-align:start;writing-mode:lr-tb;text-anchor:start;stroke-width:0.75px"
         id="path984"
         inkscape:connector-curvature="0" />
      <path
         d="m 625.51984,-286.58423 q 0,-0.62109 0.24218,-1.11719 0.2461,-0.49609 0.67969,-0.76562 0.4375,-0.26953 0.9961,-0.26953 0.86328,0 1.39453,0.59765 0.53515,0.59766 0.53515,1.58985 v 0.0508 q 0,0.61719 -0.23828,1.10937 -0.23437,0.48829 -0.67578,0.76172 -0.4375,0.27344 -1.00781,0.27344 -0.85938,0 -1.39453,-0.59766 -0.53125,-0.59765 -0.53125,-1.58203 z m 0.72656,0.0859 q 0,0.70312 0.32422,1.12891 0.32812,0.42578 0.875,0.42578 0.55078,0 0.875,-0.42969 0.32422,-0.43359 0.32422,-1.21094 0,-0.69531 -0.33203,-1.125 -0.32813,-0.43359 -0.875,-0.43359 -0.53516,0 -0.86329,0.42578 -0.32812,0.42578 -0.32812,1.21875 z"
         style="font-style:normal;font-variant:normal;font-weight:normal;font-stretch:normal;font-size:8px;font-family:Roboto;-inkscape-font-specification:'Roboto, Normal';font-variant-ligatures:normal;font-variant-caps:normal;font-variant-numeric:normal;font-feature-settings:normal;text-align:start;writing-mode:lr-tb;text-anchor:start;stroke-width:0.75px"
         id="path986"
         inkscape:connector-curvature="0" />
      <path
         d="m 631.0589,-284.43188 h -0.72266 v -6 h 0.72266 z"
         style="font-style:normal;font-variant:normal;font-weight:normal;font-stretch:normal;font-size:8px;font-family:Roboto;-inkscape-font-specification:'Roboto, Normal';font-variant-ligatures:normal;font-variant-caps:normal;font-variant-numeric:normal;font-feature-settings:normal;text-align:start;writing-mode:lr-tb;text-anchor:start;stroke-width:0.75px"
         id="path988"
         inkscape:connector-curvature="0" />
      <path
         d="m 632.03546,-286.58032 q 0,-0.97266 0.46094,-1.5625 0.46094,-0.59375 1.20703,-0.59375 0.74219,0 1.17578,0.50781 v -2.20312 h 0.72266 v 6 h -0.66406 l -0.0352,-0.45313 q -0.43359,0.53125 -1.20703,0.53125 -0.73438,0 -1.19922,-0.60156 -0.46094,-0.60156 -0.46094,-1.57031 z m 0.72266,0.082 q 0,0.71875 0.29687,1.125 0.29688,0.40625 0.82032,0.40625 0.6875,0 1.0039,-0.61719 v -1.9414 q -0.32422,-0.59766 -0.99609,-0.59766 -0.53125,0 -0.82813,0.41016 -0.29687,0.41015 -0.29687,1.21484 z"
         style="font-style:normal;font-variant:normal;font-weight:normal;font-stretch:normal;font-size:8px;font-family:Roboto;-inkscape-font-specification:'Roboto, Normal';font-variant-ligatures:normal;font-variant-caps:normal;font-variant-numeric:normal;font-feature-settings:normal;text-align:start;writing-mode:lr-tb;text-anchor:start;stroke-width:0.75px"
         id="path990"
         inkscape:connector-curvature="0" />
      <path
         d="m 639.18781,-285.55298 q 0,-0.29297 -0.22266,-0.45312 -0.21875,-0.16407 -0.76953,-0.28125 -0.54688,-0.11719 -0.8711,-0.28125 -0.32031,-0.16407 -0.47656,-0.39063 -0.15234,-0.22656 -0.15234,-0.53906 0,-0.51953 0.4375,-0.87891 0.4414,-0.35937 1.125,-0.35937 0.71875,0 1.16406,0.37109 0.44922,0.3711 0.44922,0.94922 h -0.72656 q 0,-0.29687 -0.25391,-0.51172 -0.25,-0.21484 -0.63281,-0.21484 -0.39453,0 -0.61719,0.17187 -0.22266,0.17188 -0.22266,0.44922 0,0.26172 0.20704,0.39453 0.20703,0.13282 0.74609,0.25391 0.54297,0.12109 0.87891,0.28906 0.33593,0.16797 0.49609,0.40625 0.16406,0.23438 0.16406,0.57422 0,0.56641 -0.45312,0.91016 -0.45313,0.33984 -1.17578,0.33984 -0.50782,0 -0.89844,-0.17969 -0.39063,-0.17968 -0.61328,-0.5 -0.21875,-0.32422 -0.21875,-0.69922 h 0.72265 q 0.0195,0.36329 0.28907,0.57813 0.27343,0.21094 0.71875,0.21094 0.41015,0 0.65625,-0.16407 0.25,-0.16796 0.25,-0.44531 z"
         style="font-style:normal;font-variant:normal;font-weight:normal;font-stretch:normal;font-size:8px;font-family:Roboto;-inkscape-font-specification:'Roboto, Normal';font-variant-ligatures:normal;font-variant-caps:normal;font-variant-numeric:normal;font-feature-settings:normal;text-align:start;writing-mode:lr-tb;text-anchor:start;stroke-width:0.75px"
         id="path992"
         inkscape:connector-curvature="0" />
    </g>
    <g
       aria-label="Sym"
       transform="matrix(1,0,0,-1,-1.5,51)"
       style="font-style:normal;font-weight:normal;font-size:9px;line-height:125%;font-family:Sans;letter-spacing:0px;word-spacing:0px;fill:#000000;fill-opacity:1;stroke:none;stroke-width:0.75px;stroke-linecap:butt;stroke-linejoin:miter;stroke-opacity:1"
       id="text898">
      <path
         d="m 648.65656,-287.20142 q -0.96485,-0.27734 -1.40625,-0.67968 -0.4375,-0.40625 -0.4375,-1 0,-0.67188 0.53515,-1.10938 0.53906,-0.4414 1.39844,-0.4414 0.58594,0 1.04297,0.22656 0.46094,0.22656 0.71094,0.625 0.2539,0.39844 0.2539,0.87109 h -0.7539 q 0,-0.51562 -0.32813,-0.80859 -0.32812,-0.29688 -0.92578,-0.29688 -0.55469,0 -0.86719,0.2461 -0.30859,0.24218 -0.30859,0.67578 0,0.34765 0.29297,0.58984 0.29687,0.23828 1.0039,0.4375 0.71094,0.19922 1.10938,0.44141 0.40234,0.23828 0.59375,0.55859 0.19531,0.32031 0.19531,0.75391 0,0.6914 -0.53906,1.10937 -0.53906,0.41407 -1.44141,0.41407 -0.58594,0 -1.09375,-0.22266 -0.50781,-0.22656 -0.78515,-0.61719 -0.27344,-0.39062 -0.27344,-0.88672 h 0.7539 q 0,0.51563 0.37891,0.81641 0.38281,0.29687 1.01953,0.29687 0.59375,0 0.91016,-0.24218 0.3164,-0.24219 0.3164,-0.66016 0,-0.41797 -0.29296,-0.64453 -0.29297,-0.23047 -1.0625,-0.45313 z"
         style="font-style:normal;font-variant:normal;font-weight:normal;font-stretch:normal;font-size:8px;font-family:Roboto;-inkscape-font-specification:'Roboto, Normal';font-variant-ligatures:normal;font-variant-caps:normal;font-variant-numeric:normal;font-feature-settings:normal;text-align:start;writing-mode:lr-tb;text-anchor:start;stroke-width:0.75px"
         id="path977"
         inkscape:connector-curvature="0" />
      <path
         d="m 653.00031,-285.72485 0.98437,-3.16797 h 0.77344 l -1.69922,4.8789 q -0.39453,1.05469 -1.25391,1.05469 l -0.13672,-0.0117 -0.26953,-0.0508 v -0.58594 l 0.19532,0.0156 q 0.36718,0 0.57031,-0.14844 0.20703,-0.14844 0.33984,-0.54297 l 0.16016,-0.42968 -1.50781,-4.17969 h 0.78906 z"
         style="font-style:normal;font-variant:normal;font-weight:normal;font-stretch:normal;font-size:8px;font-family:Roboto;-inkscape-font-specification:'Roboto, Normal';font-variant-ligatures:normal;font-variant-caps:normal;font-variant-numeric:normal;font-feature-settings:normal;text-align:start;writing-mode:lr-tb;text-anchor:start;stroke-width:0.75px"
         id="path979"
         inkscape:connector-curvature="0" />
      <path
         d="m 656.07843,-288.89282 0.0195,0.46875 q 0.46485,-0.54688 1.25391,-0.54688 0.88672,0 1.20703,0.67969 0.21094,-0.30469 0.54687,-0.49219 0.33985,-0.1875 0.80079,-0.1875 1.39062,0 1.41406,1.47266 v 2.83203 h -0.72266 v -2.78906 q 0,-0.45313 -0.20703,-0.67578 -0.20703,-0.22657 -0.69531,-0.22657 -0.40235,0 -0.66797,0.24219 -0.26563,0.23828 -0.30859,0.64453 v 2.80469 h -0.72657 v -2.76953 q 0,-0.92188 -0.90234,-0.92188 -0.71094,0 -0.97266,0.60547 v 3.08594 h -0.72265 v -4.22656 z"
         style="font-style:normal;font-variant:normal;font-weight:normal;font-stretch:normal;font-size:8px;font-family:Roboto;-inkscape-font-specification:'Roboto, Normal';font-variant-ligatures:normal;font-variant-caps:normal;font-variant-numeric:normal;font-feature-settings:normal;text-align:start;writing-mode:lr-tb;text-anchor:start;stroke-width:0.75px"
         id="path981"
         inkscape:connector-curvature="0" />
    </g>
  </g>
</svg>
