<?xml version="1.0" encoding="UTF-8" standalone="no"?>
<svg
   xmlns:dc="http://purl.org/dc/elements/1.1/"
   xmlns:cc="http://creativecommons.org/ns#"
   xmlns:rdf="http://www.w3.org/1999/02/22-rdf-syntax-ns#"
   xmlns:svg="http://www.w3.org/2000/svg"
   xmlns="http://www.w3.org/2000/svg"
   xmlns:sodipodi="http://sodipodi.sourceforge.net/DTD/sodipodi-0.dtd"
   xmlns:inkscape="http://www.inkscape.org/namespaces/inkscape"
   id="svg8"
   width="30"
   height="380"
   viewBox="0 0 29.999999 380.00001"
   version="1.1"
   sodipodi:docname="Werner.svg"
   inkscape:version="0.92.2 5c3e80d, 2017-08-06">
  <metadata
     id="metadata29">
    <rdf:RDF>
      <cc:Work
         rdf:about="">
        <dc:format>image/svg+xml</dc:format>
        <dc:type
           rdf:resource="http://purl.org/dc/dcmitype/StillImage" />
        <dc:title>BlankPanel1</dc:title>
      </cc:Work>
    </rdf:RDF>
  </metadata>
  <defs
     id="defs27">
    <clipPath
       id="clipPath837"
       clipPathUnits="userSpaceOnUse">
      <path
         inkscape:connector-curvature="0"
         id="path835"
         d="M 0,842 H 595 V 0 H 0 Z" />
    </clipPath>
    <clipPath
       id="clipPath13703"
       clipPathUnits="userSpaceOnUse">
      <path
         inkscape:connector-curvature="0"
         id="path13701"
         d="M 0,1020.448 H 935.433 V 0 H 0 Z" />
    </clipPath>
  </defs>
  <sodipodi:namedview
     pagecolor="#ffffff"
     bordercolor="#666666"
     borderopacity="1"
     objecttolerance="10"
     gridtolerance="10"
     guidetolerance="10"
     inkscape:pageopacity="0"
     inkscape:pageshadow="2"
     inkscape:window-width="1898"
     inkscape:window-height="1026"
     id="namedview25"
     showgrid="true"
     inkscape:zoom="3.050832"
     inkscape:cx="-76.662245"
     inkscape:cy="263.50152"
     inkscape:window-x="10"
     inkscape:window-y="42"
     inkscape:window-maximized="0"
     inkscape:current-layer="g827"
     showguides="true"
     inkscape:guide-bbox="true"
     inkscape:snap-grids="true"
     inkscape:snap-global="true">
    <inkscape:grid
       type="xygrid"
       id="grid826" />
  </sodipodi:namedview>
  <title
     id="title2">BlankPanel1</title>
  <g
     transform="matrix(1.3333333,0,0,-1.3333333,-826.22953,717.78285)"
     inkscape:label="1"
     id="g827"
     style="opacity:1">
    <g
       id="g831"
       transform="matrix(0.32749997,0,0,0.99903815,416.92274,0.58772246)">
      <g
         transform="translate(619.08227,-482.18084)"
         inkscape:label="02"
         id="g13693">
        <path
           inkscape:connector-curvature="0"
           id="path13695"
           style="fill:#091942;fill-opacity:1;fill-rule:evenodd;stroke:none;stroke-width:0.22436777"
           d="M 0,735.3352 H 68.666843 V 1020.448 H 0 Z" />
        <path
           style="opacity:1;fill:#e6e6e6;fill-opacity:1;stroke:#000000;stroke-width:0.47412768;stroke-linecap:square;stroke-miterlimit:4;stroke-dasharray:none;stroke-dashoffset:0;stroke-opacity:0.98999999"
           d="M -0.45300759,190.33385 V 0.445719 H 45.063249 90.579506 V 190.33385 380.22199 H 45.063249 -0.45300759 Z"
           id="path26"
           inkscape:connector-curvature="0"
           transform="matrix(0.75000002,0,0,-0.75000002,0.58989299,1020.518)" />
      </g>
    </g>
    <g
       inkscape:groupmode="layer"
       id="layer2"
       inkscape:label="Layer 1"
       style="opacity:0" />
    <rect
       style="opacity:1;fill:#3c3c3c;fill-opacity:1;stroke:none;stroke-width:0.39215845;stroke-linecap:square;stroke-linejoin:round;stroke-miterlimit:4;stroke-dasharray:none;stroke-dashoffset:0"
       id="rect27"
       width="22.5"
       height="92.313423"
       x="619.67218"
       y="-353.95505"
       transform="scale(1,-1)"
       ry="2.2476418" />
    <g
       aria-label="Time"
       transform="matrix(1,0,0,-1,-1.6726946e-5,-6)"
       style="font-style:normal;font-variant:normal;font-weight:normal;font-stretch:normal;font-size:13.5px;line-height:125%;font-family:Roboto;-inkscape-font-specification:Roboto;text-align:start;letter-spacing:0px;word-spacing:0px;writing-mode:lr-tb;text-anchor:start;fill:#000000;fill-opacity:1;stroke:none;stroke-width:0.75px;stroke-linecap:butt;stroke-linejoin:miter;stroke-opacity:1"
       id="text829">
      <path
         d="m 626.03107,-503.05994 h -2.05664 v 5.70411 h -0.83936 v -5.70411 h -2.05225 v -0.69433 h 4.94825 z"
         style="font-style:normal;font-variant:normal;font-weight:normal;font-stretch:normal;font-size:9px;font-family:Roboto;-inkscape-font-specification:'Roboto, Normal';font-variant-ligatures:normal;font-variant-caps:normal;font-variant-numeric:normal;font-feature-settings:normal;text-align:start;writing-mode:lr-tb;text-anchor:start;stroke-width:0.75px"
         id="path831"
         inkscape:connector-curvature="0" />
      <path
         d="m 627.74493,-497.35583 h -0.81298 v -4.75489 h 0.81298 z m -0.8789,-6.01612 q 0,-0.19775 0.11865,-0.33398 0.12305,-0.13623 0.36035,-0.13623 0.23731,0 0.36035,0.13623 0.12305,0.13623 0.12305,0.33398 0,0.19776 -0.12305,0.32959 -0.12304,0.13184 -0.36035,0.13184 -0.2373,0 -0.36035,-0.13184 -0.11865,-0.13183 -0.11865,-0.32959 z"
         style="font-style:normal;font-variant:normal;font-weight:normal;font-stretch:normal;font-size:9px;font-family:Roboto;-inkscape-font-specification:'Roboto, Normal';font-variant-ligatures:normal;font-variant-caps:normal;font-variant-numeric:normal;font-feature-settings:normal;text-align:start;writing-mode:lr-tb;text-anchor:start;stroke-width:0.75px"
         id="path833"
         inkscape:connector-curvature="0" />
      <path
         d="m 629.80597,-502.11072 0.022,0.52735 q 0.52295,-0.61524 1.41065,-0.61524 0.99756,0 1.35791,0.76465 0.2373,-0.34277 0.61523,-0.55371 0.38233,-0.21094 0.90088,-0.21094 1.56445,0 1.59082,1.65674 v 3.18604 h -0.81299 v -3.1377 q 0,-0.50977 -0.23291,-0.76025 -0.23291,-0.25489 -0.78222,-0.25489 -0.45264,0 -0.75147,0.27246 -0.29883,0.26807 -0.34717,0.7251 v 3.15528 h -0.81738 v -3.11573 q 0,-1.03711 -1.01514,-1.03711 -0.7998,0 -1.09424,0.68116 v 3.47168 h -0.81298 v -4.75489 z"
         style="font-style:normal;font-variant:normal;font-weight:normal;font-stretch:normal;font-size:9px;font-family:Roboto;-inkscape-font-specification:'Roboto, Normal';font-variant-ligatures:normal;font-variant-caps:normal;font-variant-numeric:normal;font-feature-settings:normal;text-align:start;writing-mode:lr-tb;text-anchor:start;stroke-width:0.75px"
         id="path836"
         inkscape:connector-curvature="0" />
      <path
         d="m 638.90704,-497.26794 q -0.96679,0 -1.57324,-0.63282 -0.60644,-0.6372 -0.60644,-1.70068 v -0.14941 q 0,-0.70752 0.26806,-1.26123 0.27246,-0.55811 0.75586,-0.87012 0.48779,-0.31641 1.05469,-0.31641 0.92725,0 1.44141,0.61084 0.51416,0.61084 0.51416,1.74902 v 0.33838 h -3.2212 q 0.0176,0.70313 0.4087,1.13819 0.3955,0.43066 1.00195,0.43066 0.43066,0 0.72949,-0.17578 0.29883,-0.17578 0.52295,-0.46582 l 0.49658,0.38672 q -0.59765,0.91846 -1.79297,0.91846 z m -0.10107,-4.2627 q -0.49219,0 -0.82617,0.36035 -0.33399,0.35596 -0.41309,1.00196 h 2.38184 v -0.0615 q -0.0352,-0.61963 -0.33399,-0.95801 -0.29883,-0.34277 -0.80859,-0.34277 z"
         style="font-style:normal;font-variant:normal;font-weight:normal;font-stretch:normal;font-size:9px;font-family:Roboto;-inkscape-font-specification:'Roboto, Normal';font-variant-ligatures:normal;font-variant-caps:normal;font-variant-numeric:normal;font-feature-settings:normal;text-align:start;writing-mode:lr-tb;text-anchor:start;stroke-width:0.75px"
         id="path838"
         inkscape:connector-curvature="0" />
    </g>
    <g
       aria-label="Δ"
       transform="matrix(1,0,0,-1,-1.6726946e-5,-15)"
       style="font-style:normal;font-variant:normal;font-weight:normal;font-stretch:normal;font-size:13.5px;line-height:125%;font-family:Sans;-inkscape-font-specification:Sans;text-align:start;letter-spacing:0px;word-spacing:0px;writing-mode:lr-tb;text-anchor:start;fill:#000000;fill-opacity:1;stroke:none;stroke-width:0.75px;stroke-linecap:butt;stroke-linejoin:miter;stroke-opacity:1"
       id="text843">
      <path
         d="m 630.92218,-477.70374 -2.70264,7.42237 h 5.41187 z m -4.50879,8.52979 3.75733,-9.84155 h 1.50952 l 3.75073,9.84155 z"
         id="path849"
         inkscape:connector-curvature="0" />
    </g>
    <rect
       ry="2.2476418"
       transform="scale(1,-1)"
       y="-448.33716"
       x="619.67218"
       height="92.313423"
       width="22.49996"
       id="rect4520"
       style="opacity:1;fill:#808080;fill-opacity:1;stroke:none;stroke-width:0.39215806;stroke-linecap:square;stroke-linejoin:round;stroke-miterlimit:4;stroke-dasharray:none;stroke-dashoffset:0" />
  </g>
</svg>
