<?xml version="1.0" encoding="UTF-8" standalone="no"?>
<svg
   xmlns:dc="http://purl.org/dc/elements/1.1/"
   xmlns:cc="http://creativecommons.org/ns#"
   xmlns:rdf="http://www.w3.org/1999/02/22-rdf-syntax-ns#"
   xmlns:svg="http://www.w3.org/2000/svg"
   xmlns="http://www.w3.org/2000/svg"
   xmlns:xlink="http://www.w3.org/1999/xlink"
   xmlns:sodipodi="http://sodipodi.sourceforge.net/DTD/sodipodi-0.dtd"
   xmlns:inkscape="http://www.inkscape.org/namespaces/inkscape"
   id="svg8"
   version="1.1"
   viewBox="0 0 15.8748 100.5404"
   height="380"
   width="60"
   sodipodi:docname="button_trigger.svg"
   inkscape:version="0.92.2 5c3e80d, 2017-08-06">
  <sodipodi:namedview
     pagecolor="#ffffff"
     bordercolor="#666666"
     borderopacity="1"
     objecttolerance="10"
     gridtolerance="10"
     guidetolerance="10"
     inkscape:pageopacity="0"
     inkscape:pageshadow="2"
     inkscape:window-width="1412"
     inkscape:window-height="855"
     id="namedview7406"
     showgrid="true"
     inkscape:zoom="18.623718"
     inkscape:cx="26.645249"
     inkscape:cy="334.64092"
     inkscape:window-x="167"
     inkscape:window-y="0"
     inkscape:window-maximized="0"
     inkscape:current-layer="svg8"
     showguides="true"
     inkscape:guide-bbox="true"
     inkscape:snap-grids="false"
     inkscape:snap-global="false"
     units="px">
    <inkscape:grid
       type="xygrid"
       id="grid11642" />
  </sodipodi:namedview>
  <defs
     id="defs2" />
  <metadata
     id="metadata5">
    <rdf:RDF>
      <cc:Work
         rdf:about="">
        <dc:format>image/svg+xml</dc:format>
        <dc:type
           rdf:resource="http://purl.org/dc/dcmitype/StillImage" />
        <dc:title></dc:title>
      </cc:Work>
    </rdf:RDF>
  </metadata>
  <g
     id="layer4">
    <rect
       y="-1.4022827e-06"
       x="0"
       height="100.5404"
       width="15.8748"
       id="rect1680"
       style="display:inline;opacity:1;fill:#ffffff;fill-opacity:1;stroke:none;stroke-width:3.43523622;stroke-linejoin:miter;stroke-miterlimit:4;stroke-dasharray:none;stroke-opacity:1" />
  </g>
  <g
     style="display:none"
     transform="translate(0,-196.45833)"
     id="layer1">
    <image
       width="15.8748"
       height="100.5404"
       preserveAspectRatio="none"
       style="image-rendering:optimizeQuality"
       xlink:href="file:///Users/iota/Desktop/Screen%20Shot%202017-10-13%20at%2013.10.51.png"
       id="image1428"
       x="1.3580322e-07"
       y="196.45833" />
  </g>
  <g
     style="display:inline"
     id="layer2">
    <path
       id="path1432"
       d="m 7.9371397,10.962667 c -2.9668446,0 -5.4079883,2.304566 -5.6993221,5.235273 h 1.0686553 c 0.2837184,-2.36192 2.245259,-4.176436 4.6306668,-4.176436 2.3854073,0 4.3474643,1.814516 4.6311833,4.176436 h 1.068655 C 13.345644,13.267231 10.903984,10.962667 7.9371397,10.962667 Z m -5.6993221,6.413481 c 0.291563,2.93047 2.7326471,5.235274 5.6993221,5.235274 2.9666743,0 5.4082753,-2.304804 5.6998383,-5.235274 h -1.068655 c -0.283894,2.361725 -2.245912,4.176437 -4.6311833,4.176437 -2.3852724,0 -4.3467732,-1.814712 -4.6306668,-4.176437 z"
       style="color:#000000;font-style:normal;font-variant:normal;font-weight:normal;font-stretch:normal;font-size:medium;line-height:normal;font-family:sans-serif;font-variant-ligatures:normal;font-variant-position:normal;font-variant-caps:normal;font-variant-numeric:normal;font-variant-alternates:normal;font-feature-settings:normal;text-indent:0;text-align:start;text-decoration:none;text-decoration-line:none;text-decoration-style:solid;text-decoration-color:#000000;letter-spacing:normal;word-spacing:normal;text-transform:none;writing-mode:lr-tb;direction:ltr;text-orientation:mixed;dominant-baseline:auto;baseline-shift:baseline;text-anchor:start;white-space:normal;shape-padding:0;clip-rule:nonzero;display:inline;overflow:visible;visibility:visible;opacity:1;isolation:auto;mix-blend-mode:normal;color-interpolation:sRGB;color-interpolation-filters:linearRGB;solid-color:#000000;solid-opacity:1;vector-effect:none;fill:#000000;fill-opacity:1;fill-rule:nonzero;stroke:none;stroke-width:1.05832005;stroke-linecap:butt;stroke-linejoin:round;stroke-miterlimit:4;stroke-dasharray:none;stroke-dashoffset:0;stroke-opacity:1;color-rendering:auto;image-rendering:auto;shape-rendering:auto;text-rendering:auto;enable-background:accumulate"
       inkscape:connector-curvature="0" />
    <path
       id="path1566"
       d="M 7.9374,21.927265 V 91.147281"
       style="display:inline;opacity:0.95999995;fill:none;fill-rule:evenodd;stroke:#000000;stroke-width:1.06716359;stroke-linecap:butt;stroke-linejoin:miter;stroke-miterlimit:4;stroke-dasharray:none;stroke-opacity:1"
       inkscape:connector-curvature="0" />
  </g>
  <g
     style="display:none"
     id="layer5">
    <text
       id="text3672"
       y="3.384958"
       x="0.88503391"
       style="font-style:normal;font-variant:normal;font-weight:bold;font-stretch:normal;font-size:3.88050675px;line-height:125%;font-family:Tahoma;-inkscape-font-specification:'Tahoma Bold';letter-spacing:0px;word-spacing:0px;display:inline;fill:#000000;fill-opacity:1;stroke:none;stroke-width:0.26458001px;stroke-linecap:butt;stroke-linejoin:miter;stroke-opacity:1"
       xml:space="preserve"><tspan
         style="font-style:normal;font-variant:normal;font-weight:bold;font-stretch:normal;font-size:3.88050675px;font-family:Tahoma;-inkscape-font-specification:'Tahoma Bold';stroke-width:0.26458001px"
         y="3.384958"
         x="0.88503391"
         id="tspan3670">Trigger</tspan></text>
  </g>
  <g
     id="g4284"
     transform="translate(4.5e-8,1.1128166)">
    <g
       transform="translate(0,4.76244)"
       id="text4282"
       style="font-style:normal;font-variant:normal;font-weight:bold;font-stretch:normal;font-size:3.88050675px;line-height:125%;font-family:Tahoma;-inkscape-font-specification:'Tahoma Bold';letter-spacing:0px;word-spacing:0px;display:inline;fill:#000000;fill-opacity:1;stroke:none;stroke-width:0.26458001px;stroke-linecap:butt;stroke-linejoin:miter;stroke-opacity:1"
       aria-label="Trigger">
      <path
         id="path4286"
         style="font-style:normal;font-variant:normal;font-weight:bold;font-stretch:normal;font-size:3.88050675px;font-family:Tahoma;-inkscape-font-specification:'Tahoma Bold';stroke-width:0.26458001px"
         d="M 1.7187365,3.384958 V 1.1017497 H 0.88503391 V 0.56363256 H 3.2610864 V 1.1017497 H 2.4273838 V 3.384958 Z"
         inkscape:connector-curvature="0" />
      <path
         id="path4288"
         style="font-style:normal;font-variant:normal;font-weight:bold;font-stretch:normal;font-size:3.88050675px;font-family:Tahoma;-inkscape-font-specification:'Tahoma Bold';stroke-width:0.26458001px"
         d="m 4.9474394,1.8842933 h -0.054949 q -0.037896,-0.013263 -0.1098971,-0.018948 -0.072002,-0.00758 -0.1591614,-0.00758 -0.1042129,0 -0.2197944,0.030316 -0.1136867,0.030316 -0.2216891,0.072002 V 3.384958 H 3.5187763 V 1.2571216 h 0.6631725 v 0.3050593 q 0.045475,-0.041685 0.1250554,-0.1042128 0.081476,-0.064423 0.1477928,-0.102318 0.072002,-0.04358 0.1667405,-0.073896 0.096634,-0.032211 0.1818987,-0.032211 0.032211,0 0.072002,0.00189 0.03979,0.00189 0.072002,0.00568 z"
         inkscape:connector-curvature="0" />
      <path
         id="path4290"
         style="font-style:normal;font-variant:normal;font-weight:bold;font-stretch:normal;font-size:3.88050675px;font-family:Tahoma;-inkscape-font-specification:'Tahoma Bold';stroke-width:0.26458001px"
         d="M 5.8645124,3.384958 H 5.2013398 V 1.2571216 H 5.8645124 Z M 5.8834602,0.95395697 H 5.182392 V 0.43668239 h 0.7010682 z"
         inkscape:connector-curvature="0" />
      <path
         id="path4292"
         style="font-style:normal;font-variant:normal;font-weight:bold;font-stretch:normal;font-size:3.88050675px;font-family:Tahoma;-inkscape-font-specification:'Tahoma Bold';stroke-width:0.26458001px"
         d="M 7.6474991,2.7142064 V 1.749764 Q 7.5982348,1.7270267 7.5262332,1.7118684 7.4542316,1.6967102 7.38223,1.6967102 q -0.2387421,0 -0.3600079,0.1553719 -0.1193711,0.153477 -0.1193711,0.4301147 0,0.1383189 0.017053,0.2349526 0.018948,0.094739 0.068212,0.1686353 0.047369,0.072002 0.1231606,0.1098972 0.077686,0.036001 0.197057,0.036001 0.089055,0 0.1743196,-0.030317 0.08716,-0.030317 0.1648459,-0.087159 z m 0.6631725,0.4263252 q 0,0.2955855 -0.085265,0.5021163 -0.085265,0.2065309 -0.2330578,0.3221124 -0.1477928,0.1174763 -0.3543236,0.1686353 -0.2065309,0.053054 -0.4585365,0.053054 -0.2122152,0 -0.4035878,-0.028422 Q 6.586423,4.1315008 6.4462094,4.0955 V 3.5630672 h 0.077686 q 0.049264,0.018948 0.1155815,0.041685 0.068212,0.022737 0.1364241,0.041685 0.081475,0.020843 0.1591614,0.034106 0.077686,0.013263 0.1591614,0.013263 0.1686353,0 0.2804272,-0.036001 0.1136868,-0.034106 0.1705301,-0.098529 0.056843,-0.066317 0.079581,-0.1572667 0.022737,-0.089055 0.022737,-0.2254786 v -0.03979 q -0.111792,0.098529 -0.2595847,0.1591614 -0.145898,0.058738 -0.3012698,0.058738 -0.4130618,0 -0.6385404,-0.2690586 -0.2235839,-0.2690586 -0.2235839,-0.8185444 0,-0.2501108 0.068212,-0.4490625 Q 6.3628391,1.6190243 6.4859997,1.4788107 6.603476,1.3442814 6.7702165,1.2722798 6.9369571,1.1983834 7.116961,1.1983834 q 0.162951,0 0.2917959,0.041685 0.128845,0.041685 0.2349526,0.1117919 l 0.024632,-0.094739 h 0.64233 z"
         inkscape:connector-curvature="0" />
      <path
         id="path4294"
         style="font-style:normal;font-variant:normal;font-weight:bold;font-stretch:normal;font-size:3.88050675px;font-family:Tahoma;-inkscape-font-specification:'Tahoma Bold';stroke-width:0.26458001px"
         d="M 10.087974,2.7142064 V 1.749764 Q 10.03871,1.7270267 9.9667082,1.7118684 9.8947066,1.6967102 9.822705,1.6967102 q -0.2387421,0 -0.3600079,0.1553719 -0.1193711,0.153477 -0.1193711,0.4301147 0,0.1383189 0.017053,0.2349526 0.018948,0.094739 0.068212,0.1686353 0.047369,0.072002 0.1231606,0.1098972 0.077686,0.036001 0.197057,0.036001 0.089055,0 0.1743196,-0.030317 0.08716,-0.030317 0.1648458,-0.087159 z m 0.663173,0.4263252 q 0,0.2955855 -0.08526,0.5021163 -0.08526,0.2065309 -0.233058,0.3221124 -0.147793,0.1174763 -0.354324,0.1686353 -0.2065307,0.053054 -0.4585363,0.053054 -0.2122152,0 -0.4035878,-0.028422 Q 9.026898,4.1315008 8.8866844,4.0955 V 3.5630672 h 0.077686 q 0.049264,0.018948 0.1155815,0.041685 0.068212,0.022737 0.1364241,0.041685 0.081475,0.020843 0.1591614,0.034106 0.077686,0.013263 0.1591614,0.013263 0.1686353,0 0.2804272,-0.036001 0.1136867,-0.034106 0.1705301,-0.098529 0.056843,-0.066317 0.079581,-0.1572667 0.02274,-0.089055 0.02274,-0.2254786 v -0.03979 q -0.111789,0.098529 -0.2595817,0.1591614 -0.145898,0.058738 -0.3012698,0.058738 -0.4130618,0 -0.6385405,-0.2690586 Q 8.665,2.8165231 8.665,2.2670373 8.665,2.0169265 8.733212,1.8179748 8.8033141,1.6190243 8.9264747,1.4788107 9.043951,1.3442814 9.2106915,1.2722798 9.377432,1.1983834 9.557436,1.1983834 q 0.162951,0 0.2917959,0.041685 0.128845,0.041685 0.2349521,0.1117919 l 0.02463,-0.094739 h 0.64233 z"
         inkscape:connector-curvature="0" />
      <path
         id="path4296"
         style="font-style:normal;font-variant:normal;font-weight:bold;font-stretch:normal;font-size:3.88050675px;font-family:Tahoma;-inkscape-font-specification:'Tahoma Bold';stroke-width:0.26458001px"
         d="m 12.34655,3.4418014 q -0.602539,0 -0.924652,-0.2880064 -0.320217,-0.2880063 -0.320217,-0.8204391 0,-0.5210642 0.299375,-0.8318079 0.299375,-0.3107437 0.837492,-0.3107437 0.488853,0 0.735174,0.2633742 0.246321,0.2633743 0.246321,0.754122 v 0.2387421 h -1.453295 q 0.0095,0.1477927 0.06253,0.248216 0.05305,0.098529 0.140213,0.1572666 0.08527,0.058738 0.198952,0.085265 0.113687,0.024632 0.248216,0.024632 0.115582,0 0.227374,-0.024632 0.111791,-0.026527 0.204636,-0.068212 0.08147,-0.036001 0.149687,-0.077686 0.07011,-0.041685 0.113687,-0.073896 h 0.07011 V 3.265587 q -0.08148,0.032211 -0.149688,0.060633 -0.06632,0.026527 -0.183793,0.054949 -0.108003,0.028422 -0.223584,0.04358 -0.113687,0.017053 -0.278533,0.017053 z m 0.219795,-1.3945571 q -0.0057,-0.2103205 -0.09853,-0.3202176 -0.09095,-0.1098972 -0.280427,-0.1098972 -0.193268,0 -0.303165,0.1155815 -0.108002,0.1155815 -0.119371,0.3145333 z"
         inkscape:connector-curvature="0" />
      <path
         id="path4298"
         style="font-style:normal;font-variant:normal;font-weight:bold;font-stretch:normal;font-size:3.88050675px;font-family:Tahoma;-inkscape-font-specification:'Tahoma Bold';stroke-width:0.26458001px"
         d="m 14.989766,1.8842933 h -0.05495 q -0.0379,-0.013263 -0.109898,-0.018948 -0.072,-0.00758 -0.159161,-0.00758 -0.104213,0 -0.219794,0.030316 -0.113687,0.030316 -0.221689,0.072002 V 3.384958 H 13.561103 V 1.2571216 h 0.663173 v 0.3050593 q 0.04547,-0.041685 0.125055,-0.1042128 0.08148,-0.064423 0.147793,-0.102318 0.072,-0.04358 0.16674,-0.073896 0.09663,-0.032211 0.181899,-0.032211 0.03221,0 0.072,0.00189 0.03979,0.00189 0.072,0.00568 z"
         inkscape:connector-curvature="0" />
    </g>
  </g>
</svg>
