<?xml version="1.0" encoding="UTF-8" standalone="no"?>
<!-- Created with Inkscape (http://www.inkscape.org/) -->

<svg
   xmlns:dc="http://purl.org/dc/elements/1.1/"
   xmlns:cc="http://creativecommons.org/ns#"
   xmlns:rdf="http://www.w3.org/1999/02/22-rdf-syntax-ns#"
   xmlns:svg="http://www.w3.org/2000/svg"
   xmlns="http://www.w3.org/2000/svg"
   xmlns:xlink="http://www.w3.org/1999/xlink"
   xmlns:sodipodi="http://sodipodi.sourceforge.net/DTD/sodipodi-0.dtd"
   xmlns:inkscape="http://www.inkscape.org/namespaces/inkscape"
   width="150"
   height="379"
   viewBox="0 0 39.687 100.27582"
   version="1.1"
   id="svg8"
   inkscape:version="0.92.2 5c3e80d, 2017-08-06"
   sodipodi:docname="clock_divider.svg">
  <defs
     id="defs2" />
  <sodipodi:namedview
     id="base"
     pagecolor="#ffffff"
     bordercolor="#666666"
     borderopacity="1.0"
     inkscape:pageopacity="0.0"
     inkscape:pageshadow="2"
     inkscape:zoom="4.1570312"
     inkscape:cx="27.610411"
     inkscape:cy="190"
     inkscape:document-units="px"
     inkscape:current-layer="layer3"
     showgrid="true"
     units="px"
     inkscape:window-width="1358"
     inkscape:window-height="839"
     inkscape:window-x="153"
     inkscape:window-y="0"
     inkscape:window-maximized="0"
     inkscape:snap-others="false"
     inkscape:snap-nodes="false"
     inkscape:snap-global="true"
     showguides="true"
     inkscape:snap-grids="true">
    <inkscape:grid
       type="xygrid"
       id="grid11644" />
  </sodipodi:namedview>
  <metadata
     id="metadata5">
    <rdf:RDF>
      <cc:Work
         rdf:about="">
        <dc:format>image/svg+xml</dc:format>
        <dc:type
           rdf:resource="http://purl.org/dc/dcmitype/StillImage" />
        <dc:title></dc:title>
      </cc:Work>
    </rdf:RDF>
  </metadata>
  <g
     inkscape:groupmode="layer"
     id="layer3"
     inkscape:label="Background"
     style="display:inline"
     transform="translate(0,-0.26458)">
    <rect
       style="fill:#ffffff;fill-opacity:1;stroke:none;stroke-width:0.29627898;stroke-miterlimit:4;stroke-dasharray:none;stroke-opacity:1"
       id="rect1271"
       width="39.6875"
       height="100.54167"
       x="0"
       y="0" />
  </g>
  <g
     inkscape:label="Shapes"
     inkscape:groupmode="layer"
     id="layer1"
     transform="translate(0,-196.72291)"
     style="display:inline"
     sodipodi:insensitive="true">
    <path
       style="fill:none;fill-rule:evenodd;stroke:#000000;stroke-width:0.59698057;stroke-linecap:butt;stroke-linejoin:miter;stroke-miterlimit:4;stroke-dasharray:none;stroke-opacity:1"
       d="M 1.3229167,228.08333 H 38.364584"
       id="path4606"
       inkscape:connector-curvature="0" />
    <path
       style="fill:none;fill-rule:evenodd;stroke:#000000;stroke-width:0.21894158;stroke-linecap:butt;stroke-linejoin:miter;stroke-miterlimit:4;stroke-dasharray:none;stroke-opacity:1"
       d="m 9.1281252,232.82593 c 1.7363298,0 1.8520848,0 1.8520848,0"
       id="path4614"
       inkscape:connector-curvature="0" />
    <path
       inkscape:connector-curvature="0"
       id="path4616"
       d="m 9.1281252,240.76704 c 1.7363298,0 1.8520848,0 1.8520848,0"
       style="fill:none;fill-rule:evenodd;stroke:#000000;stroke-width:0.21894158;stroke-linecap:butt;stroke-linejoin:miter;stroke-miterlimit:4;stroke-dasharray:none;stroke-opacity:1" />
    <path
       inkscape:connector-curvature="0"
       id="path4618"
       d="m 9.1281252,248.70813 c 1.7363298,0 1.8520848,0 1.8520848,0"
       style="fill:none;fill-rule:evenodd;stroke:#000000;stroke-width:0.21894158;stroke-linecap:butt;stroke-linejoin:miter;stroke-miterlimit:4;stroke-dasharray:none;stroke-opacity:1" />
    <path
       style="fill:none;fill-rule:evenodd;stroke:#000000;stroke-width:0.21894158;stroke-linecap:butt;stroke-linejoin:miter;stroke-miterlimit:4;stroke-dasharray:none;stroke-opacity:1"
       d="m 9.1281252,256.64924 c 1.7363298,0 1.8520848,0 1.8520848,0"
       id="path4620"
       inkscape:connector-curvature="0" />
    <path
       inkscape:connector-curvature="0"
       id="path4622"
       d="m 9.1281252,264.59034 c 1.7363298,0 1.8520848,0 1.8520848,0"
       style="fill:none;fill-rule:evenodd;stroke:#000000;stroke-width:0.21894158;stroke-linecap:butt;stroke-linejoin:miter;stroke-miterlimit:4;stroke-dasharray:none;stroke-opacity:1" />
    <path
       style="fill:none;fill-rule:evenodd;stroke:#000000;stroke-width:0.21894158;stroke-linecap:butt;stroke-linejoin:miter;stroke-miterlimit:4;stroke-dasharray:none;stroke-opacity:1"
       d="m 9.1281252,272.53145 c 1.7363298,0 1.8520848,0 1.8520848,0"
       id="path4624"
       inkscape:connector-curvature="0" />
    <path
       style="fill:none;fill-rule:evenodd;stroke:#000000;stroke-width:0.21894158;stroke-linecap:butt;stroke-linejoin:miter;stroke-miterlimit:4;stroke-dasharray:none;stroke-opacity:1"
       d="m 9.1281252,280.47254 c 1.7363298,0 1.8520848,0 1.8520848,0"
       id="path4626"
       inkscape:connector-curvature="0" />
    <path
       inkscape:connector-curvature="0"
       id="path4628"
       d="m 9.1281252,288.41365 c 1.7363298,0 1.8520848,0 1.8520848,0"
       style="fill:none;fill-rule:evenodd;stroke:#000000;stroke-width:0.21894158;stroke-linecap:butt;stroke-linejoin:miter;stroke-miterlimit:4;stroke-dasharray:none;stroke-opacity:1" />
    <path
       style="display:inline;fill:none;fill-rule:evenodd;stroke:#000000;stroke-width:0.79374999;stroke-linecap:butt;stroke-linejoin:miter;stroke-miterlimit:4;stroke-dasharray:none;stroke-opacity:1"
       d="m 11.413072,211.58078 c 0,0 -3.694019,0 -3.694019,4.33647"
       id="path2069"
       inkscape:connector-curvature="0" />
    <path
       inkscape:connector-curvature="0"
       id="path2071"
       d="m 11.413072,223.98704 c 0,0 -3.694019,0 -3.694019,-4.33646"
       style="display:inline;fill:none;fill-rule:evenodd;stroke:#000000;stroke-width:0.79374999;stroke-linecap:butt;stroke-linejoin:miter;stroke-miterlimit:4;stroke-dasharray:none;stroke-opacity:1" />
    <path
       inkscape:connector-curvature="0"
       id="path2073"
       d="m 28.171346,211.58078 c 0,0 3.694025,0 3.694025,4.33647"
       style="display:inline;fill:none;fill-rule:evenodd;stroke:#000000;stroke-width:0.79374999;stroke-linecap:butt;stroke-linejoin:miter;stroke-miterlimit:4;stroke-dasharray:none;stroke-opacity:1" />
    <path
       style="display:inline;fill:none;fill-rule:evenodd;stroke:#000000;stroke-width:0.79374999;stroke-linecap:butt;stroke-linejoin:miter;stroke-miterlimit:4;stroke-dasharray:none;stroke-opacity:1"
       d="m 28.171346,223.98704 c 0,0 3.694025,0 3.694025,-4.33646"
       id="path2075"
       inkscape:connector-curvature="0" />
    <path
       inkscape:connector-curvature="0"
       id="path945"
       d="m 14.234584,232.82593 c 1.73633,0 1.852085,0 1.852085,0"
       style="fill:none;fill-rule:evenodd;stroke:#000000;stroke-width:0.21894158;stroke-linecap:butt;stroke-linejoin:miter;stroke-miterlimit:4;stroke-dasharray:none;stroke-opacity:1" />
    <path
       style="fill:none;fill-rule:evenodd;stroke:#000000;stroke-width:0.21894158;stroke-linecap:butt;stroke-linejoin:miter;stroke-miterlimit:4;stroke-dasharray:none;stroke-opacity:1"
       d="m 14.234584,240.76704 c 1.73633,0 1.852085,0 1.852085,0"
       id="path947"
       inkscape:connector-curvature="0" />
    <path
       style="fill:none;fill-rule:evenodd;stroke:#000000;stroke-width:0.21894158;stroke-linecap:butt;stroke-linejoin:miter;stroke-miterlimit:4;stroke-dasharray:none;stroke-opacity:1"
       d="m 14.234584,248.70813 c 1.73633,0 1.852085,0 1.852085,0"
       id="path949"
       inkscape:connector-curvature="0" />
    <path
       inkscape:connector-curvature="0"
       id="path951"
       d="m 14.234584,256.64924 c 1.73633,0 1.852085,0 1.852085,0"
       style="fill:none;fill-rule:evenodd;stroke:#000000;stroke-width:0.21894158;stroke-linecap:butt;stroke-linejoin:miter;stroke-miterlimit:4;stroke-dasharray:none;stroke-opacity:1" />
    <path
       style="fill:none;fill-rule:evenodd;stroke:#000000;stroke-width:0.21894158;stroke-linecap:butt;stroke-linejoin:miter;stroke-miterlimit:4;stroke-dasharray:none;stroke-opacity:1"
       d="m 14.234584,264.59034 c 1.73633,0 1.852085,0 1.852085,0"
       id="path953"
       inkscape:connector-curvature="0" />
    <path
       inkscape:connector-curvature="0"
       id="path955"
       d="m 14.234584,272.53145 c 1.73633,0 1.852085,0 1.852085,0"
       style="fill:none;fill-rule:evenodd;stroke:#000000;stroke-width:0.21894158;stroke-linecap:butt;stroke-linejoin:miter;stroke-miterlimit:4;stroke-dasharray:none;stroke-opacity:1" />
    <path
       inkscape:connector-curvature="0"
       id="path957"
       d="m 14.234584,280.47254 c 1.73633,0 1.852085,0 1.852085,0"
       style="fill:none;fill-rule:evenodd;stroke:#000000;stroke-width:0.21894158;stroke-linecap:butt;stroke-linejoin:miter;stroke-miterlimit:4;stroke-dasharray:none;stroke-opacity:1" />
    <path
       style="fill:none;fill-rule:evenodd;stroke:#000000;stroke-width:0.21894158;stroke-linecap:butt;stroke-linejoin:miter;stroke-miterlimit:4;stroke-dasharray:none;stroke-opacity:1"
       d="m 14.234584,288.41365 c 1.73633,0 1.852085,0 1.852085,0"
       id="path959"
       inkscape:connector-curvature="0" />
    <path
       style="fill:none;fill-rule:evenodd;stroke:#000000;stroke-width:0.19586785;stroke-linecap:butt;stroke-linejoin:miter;stroke-miterlimit:4;stroke-dasharray:none;stroke-opacity:1"
       d="m 22.463125,232.8144 c 1.389063,0 1.481667,0 1.481667,0"
       id="path961"
       inkscape:connector-curvature="0" />
    <path
       inkscape:connector-curvature="0"
       id="path963"
       d="m 22.463125,240.7588 c 1.389063,0 1.481667,0 1.481667,0"
       style="fill:none;fill-rule:evenodd;stroke:#000000;stroke-width:0.19586785;stroke-linecap:butt;stroke-linejoin:miter;stroke-miterlimit:4;stroke-dasharray:none;stroke-opacity:1" />
    <path
       inkscape:connector-curvature="0"
       id="path965"
       d="m 22.463125,248.70318 c 1.389063,0 1.481667,0 1.481667,0"
       style="fill:none;fill-rule:evenodd;stroke:#000000;stroke-width:0.19586785;stroke-linecap:butt;stroke-linejoin:miter;stroke-miterlimit:4;stroke-dasharray:none;stroke-opacity:1" />
    <path
       style="fill:none;fill-rule:evenodd;stroke:#000000;stroke-width:0.19586785;stroke-linecap:butt;stroke-linejoin:miter;stroke-miterlimit:4;stroke-dasharray:none;stroke-opacity:1"
       d="m 22.463125,256.6476 c 1.389063,0 1.481667,0 1.481667,0"
       id="path967"
       inkscape:connector-curvature="0" />
    <path
       inkscape:connector-curvature="0"
       id="path969"
       d="m 22.463125,264.59198 c 1.389063,0 1.481667,0 1.481667,0"
       style="fill:none;fill-rule:evenodd;stroke:#000000;stroke-width:0.19586785;stroke-linecap:butt;stroke-linejoin:miter;stroke-miterlimit:4;stroke-dasharray:none;stroke-opacity:1" />
    <path
       style="fill:none;fill-rule:evenodd;stroke:#000000;stroke-width:0.19586785;stroke-linecap:butt;stroke-linejoin:miter;stroke-miterlimit:4;stroke-dasharray:none;stroke-opacity:1"
       d="m 22.463125,272.5364 c 1.389063,0 1.481667,0 1.481667,0"
       id="path971"
       inkscape:connector-curvature="0" />
    <path
       style="fill:none;fill-rule:evenodd;stroke:#000000;stroke-width:0.19586785;stroke-linecap:butt;stroke-linejoin:miter;stroke-miterlimit:4;stroke-dasharray:none;stroke-opacity:1"
       d="m 22.463125,280.48078 c 1.389063,0 1.481667,0 1.481667,0"
       id="path973"
       inkscape:connector-curvature="0" />
    <path
       inkscape:connector-curvature="0"
       id="path975"
       d="m 22.463125,288.42518 c 1.389063,0 1.481667,0 1.481667,0"
       style="fill:none;fill-rule:evenodd;stroke:#000000;stroke-width:0.19586785;stroke-linecap:butt;stroke-linejoin:miter;stroke-miterlimit:4;stroke-dasharray:none;stroke-opacity:1" />
  </g>
  <g
     style="display:inline"
     inkscape:label="Texts copy"
     id="g875"
     inkscape:groupmode="layer"
     sodipodi:insensitive="true"
     transform="translate(0,-0.26458)">
    <g
       aria-label="Clock Divider"
       style="font-style:normal;font-variant:normal;font-weight:bold;font-stretch:normal;font-size:3.17499995px;line-height:125%;font-family:Tahoma;-inkscape-font-specification:'Tahoma Bold';letter-spacing:0px;word-spacing:0px;fill:#000000;fill-opacity:1;stroke:none;stroke-width:0.26458335px;stroke-linecap:butt;stroke-linejoin:miter;stroke-opacity:1"
       id="text865"
       transform="translate(3.9687503,5.0837197)">
      <path
         d="m 4.495763,4.1751294 q -0.6347588,0 -1.0080349,-0.3827501 Q 3.114452,3.4077344 3.114452,2.7123418 q 0,-0.6707601 0.3732761,-1.0686686 0.3751709,-0.3998033 1.0099297,-0.3998033 0.1686375,0 0.3031684,0.018948 0.134531,0.018948 0.2576932,0.053055 0.096635,0.028422 0.2103231,0.077687 0.1136881,0.049265 0.1837958,0.085266 V 2.1514803 H 5.3806358 Q 5.3294761,2.106005 5.2517892,2.0434765 5.1741023,1.9790532 5.0755726,1.9184196 4.9770429,1.8577859 4.8576703,1.8161002 4.7401926,1.7725198 4.611346,1.7725198 q -0.153479,0 -0.2823256,0.049265 -0.1269518,0.04737 -0.2425347,0.1667427 -0.106109,0.1080037 -0.1743219,0.2917996 -0.066318,0.1837958 -0.066318,0.4339097 0,0.2633776 0.070108,0.4433838 0.070108,0.1781115 0.1837959,0.28801 0.1098985,0.106109 0.2444295,0.153479 0.1364258,0.04737 0.2709568,0.04737 0.1402154,0 0.2671671,-0.045475 0.1269518,-0.04737 0.2141127,-0.1042141 0.09474,-0.058739 0.1667427,-0.1193726 0.072002,-0.060634 0.1250569,-0.1080037 h 0.064423 V 3.9325947 Q 5.3749514,3.9685959 5.2726321,4.015966 5.1703127,4.0614413 5.062309,4.0936529 4.9296728,4.1334437 4.8140899,4.1542866 4.6985069,4.1751294 4.495763,4.1751294 Z"
         style="font-style:normal;font-variant:normal;font-weight:bold;font-stretch:normal;font-size:3.88055563px;font-family:Tahoma;-inkscape-font-specification:'Tahoma Bold';stroke-width:0.26458335px"
         id="path899"
         inkscape:connector-curvature="0" />
      <path
         d="M 6.4966745,4.1201801 H 5.8334936 V 1.1718674 h 0.6631809 z"
         style="font-style:normal;font-variant:normal;font-weight:bold;font-stretch:normal;font-size:3.88055563px;font-family:Tahoma;-inkscape-font-specification:'Tahoma Bold';stroke-width:0.26458335px"
         id="path901"
         inkscape:connector-curvature="0" />
      <path
         d="m 9.0508685,3.0571959 q 0,0.5248603 -0.28801,0.8280287 -0.2861152,0.3012736 -0.8109755,0.3012736 -0.5210707,0 -0.8109755,-0.3012736 -0.2880099,-0.3031684 -0.2880099,-0.8280287 0,-0.5305447 0.2880099,-0.8299235 0.2899048,-0.3012736 0.8109755,-0.3012736 0.5229655,0 0.8109755,0.3031684 0.28801,0.3012736 0.28801,0.8280287 z m -0.6802341,0.00379 q 0,-0.1894803 -0.032212,-0.3145372 Q 8.3081059,2.6194965 8.2531566,2.5437044 8.1944178,2.4641227 8.1205205,2.4338059 8.0466232,2.4015942 7.951883,2.4015942 q -0.089056,0 -0.1610582,0.028422 -0.072002,0.026527 -0.1326362,0.1042141 -0.056844,0.073897 -0.09095,0.2027439 -0.034106,0.1288465 -0.034106,0.3240112 0,0.1951647 0.032212,0.316432 0.032212,0.1193726 0.083371,0.1913751 0.053055,0.073897 0.1326362,0.1080037 0.079582,0.034107 0.1762166,0.034107 0.079582,0 0.1610583,-0.034107 0.083371,-0.034106 0.1326361,-0.1023193 0.058739,-0.081476 0.089056,-0.1951647 0.030317,-0.1155829 0.030317,-0.3183268 z"
         style="font-style:normal;font-variant:normal;font-weight:bold;font-stretch:normal;font-size:3.88055563px;font-family:Tahoma;-inkscape-font-specification:'Tahoma Bold';stroke-width:0.26458335px"
         id="path903"
         inkscape:connector-curvature="0" />
      <path
         d="m 10.447338,4.1770242 q -0.263377,0 -0.4831746,-0.066318 Q 9.7462611,4.044388 9.5852029,3.9060674 9.4260395,3.7677469 9.3369838,3.5593186 9.2479281,3.3489955 9.2479281,3.0647751 q 0,-0.3050632 0.096635,-0.5191759 Q 9.4411979,2.3314865 9.6060457,2.1931659 9.7652092,2.0605298 9.9793218,1.9980013 10.195329,1.933578 10.42839,1.933578 q 0.176217,0 0.352433,0.041686 0.176217,0.039791 0.354328,0.1288466 V 2.672551 h -0.08527 q -0.03979,-0.037896 -0.09853,-0.083371 -0.05685,-0.045475 -0.125057,-0.083371 -0.072,-0.039791 -0.162953,-0.066318 -0.09095,-0.028422 -0.202744,-0.028422 -0.253904,0 -0.394119,0.1781115 -0.1383208,0.1762166 -0.1383208,0.4755954 0,0.3202216 0.1477948,0.4774903 0.149689,0.1572686 0.396014,0.1572686 0.125056,0 0.219797,-0.028422 0.09474,-0.028422 0.162953,-0.068213 0.06632,-0.039791 0.113688,-0.081476 0.04737,-0.04358 0.08148,-0.077687 h 0.08527 v 0.5684408 q -0.05684,0.024632 -0.132636,0.056844 -0.0739,0.032212 -0.151584,0.053054 -0.09663,0.026527 -0.181901,0.039791 -0.08337,0.015158 -0.221692,0.015158 z"
         style="font-style:normal;font-variant:normal;font-weight:bold;font-stretch:normal;font-size:3.88055563px;font-family:Tahoma;-inkscape-font-specification:'Tahoma Bold';stroke-width:0.26458335px"
         id="path905"
         inkscape:connector-curvature="0" />
      <path
         d="M 13.579446,4.1201801 H 12.791208 L 12.215188,3.1936217 12.112869,3.3319423 V 4.1201801 H 11.449688 V 1.1718674 h 0.663181 v 1.6522678 l 0.629074,-0.8318183 h 0.782554 L 12.77984,2.9094013 Z"
         style="font-style:normal;font-variant:normal;font-weight:bold;font-stretch:normal;font-size:3.88055563px;font-family:Tahoma;-inkscape-font-specification:'Tahoma Bold';stroke-width:0.26458335px"
         id="path907"
         inkscape:connector-curvature="0" />
      <path
         d="m 17.48653,2.7123418 q 0,0.394119 -0.172427,0.7067614 -0.172428,0.3107476 -0.435805,0.4774902 -0.219797,0.1421102 -0.479385,0.1837959 -0.257693,0.039791 -0.549493,0.039791 h -0.882978 v -2.821361 h 0.875399 q 0.297484,0 0.557072,0.037896 0.259588,0.037896 0.486964,0.1837958 0.278536,0.1781115 0.439594,0.4812799 0.161059,0.3012736 0.161059,0.7105508 z m -0.727605,-0.00568 q 0,-0.278536 -0.09664,-0.4755954 -0.09474,-0.1989543 -0.293694,-0.3107476 -0.144005,-0.079582 -0.303168,-0.087161 -0.157269,-0.00758 -0.377066,-0.00758 h -0.01326 v 1.765956 h 0.01326 q 0.238745,0 0.401698,-0.00758 0.164848,-0.00947 0.312642,-0.1023193 0.174322,-0.1098986 0.265273,-0.3031684 0.09095,-0.1932699 0.09095,-0.4718059 z"
         style="font-style:normal;font-variant:normal;font-weight:bold;font-stretch:normal;font-size:3.88055563px;font-family:Tahoma;-inkscape-font-specification:'Tahoma Bold';stroke-width:0.26458335px"
         id="path909"
         inkscape:connector-curvature="0" />
      <path
         d="M 18.532461,4.1201801 H 17.86928 V 1.9923169 h 0.663181 z m 0.01895,-2.4310316 H 17.850332 V 1.1718674 h 0.701077 z"
         style="font-style:normal;font-variant:normal;font-weight:bold;font-stretch:normal;font-size:3.88055563px;font-family:Tahoma;-inkscape-font-specification:'Tahoma Bold';stroke-width:0.26458335px"
         id="path911"
         inkscape:connector-curvature="0" />
      <path
         d="M 21.035495,1.9923169 20.271889,4.1201801 H 19.548075 L 18.790154,1.9923169 h 0.697287 l 0.435804,1.4078383 0.430121,-1.4078383 z"
         style="font-style:normal;font-variant:normal;font-weight:bold;font-stretch:normal;font-size:3.88055563px;font-family:Tahoma;-inkscape-font-specification:'Tahoma Bold';stroke-width:0.26458335px"
         id="path913"
         inkscape:connector-curvature="0" />
      <path
         d="M 21.950685,4.1201801 H 21.287504 V 1.9923169 h 0.663181 z m 0.01895,-2.4310316 H 21.268556 V 1.1718674 h 0.701077 z"
         style="font-style:normal;font-variant:normal;font-weight:bold;font-stretch:normal;font-size:3.88055563px;font-family:Tahoma;-inkscape-font-specification:'Tahoma Bold';stroke-width:0.26458335px"
         id="path915"
         inkscape:connector-curvature="0" />
      <path
         d="M 24.396874,4.1201801 H 23.733693 V 3.8984882 q -0.06442,0.053055 -0.147795,0.1136882 -0.08148,0.060634 -0.144005,0.09095 -0.07958,0.037896 -0.157268,0.056844 -0.07769,0.018948 -0.185691,0.018948 -0.363802,0 -0.57602,-0.3012736 -0.212218,-0.3012736 -0.212218,-0.8052911 0,-0.278536 0.072,-0.4831746 0.072,-0.2046387 0.198954,-0.3562229 0.115583,-0.1383206 0.280431,-0.2179023 0.164848,-0.081477 0.348643,-0.081477 0.166743,0 0.272852,0.036001 0.108004,0.034107 0.250114,0.1080038 V 1.1718674 h 0.663181 z M 23.733693,3.5327913 V 2.4887551 q -0.04926,-0.024632 -0.128847,-0.039791 -0.07958,-0.017053 -0.136425,-0.017053 -0.238746,0 -0.360013,0.1667426 -0.119372,0.1667426 -0.119372,0.4661214 0,0.3145372 0.09474,0.4547526 0.09663,0.1402154 0.310747,0.1402154 0.08716,0 0.176217,-0.034106 0.08906,-0.034107 0.162953,-0.092846 z"
         style="font-style:normal;font-variant:normal;font-weight:bold;font-stretch:normal;font-size:3.88055563px;font-family:Tahoma;-inkscape-font-specification:'Tahoma Bold';stroke-width:0.26458335px"
         id="path917"
         inkscape:connector-curvature="0" />
      <path
         d="m 25.992298,4.1770242 q -0.602547,0 -0.924664,-0.28801 -0.320221,-0.28801 -0.320221,-0.8204495 0,-0.5210707 0.299378,-0.8318183 0.299379,-0.3107476 0.837503,-0.3107476 0.488859,0 0.735184,0.2633775 0.246324,0.2633776 0.246324,0.7541314 v 0.2387452 h -1.453314 q 0.0095,0.1477946 0.06253,0.2482191 0.05305,0.09853 0.140215,0.1572686 0.08527,0.058739 0.198954,0.085266 0.113689,0.024632 0.24822,0.024632 0.115583,0 0.227376,-0.024632 0.111793,-0.026527 0.204639,-0.068213 0.08148,-0.036001 0.149689,-0.077687 0.07011,-0.041686 0.113688,-0.073897 h 0.07011 v 0.547598 q -0.08148,0.032212 -0.14969,0.060634 -0.06632,0.026527 -0.183795,0.054949 -0.108004,0.028422 -0.223587,0.043581 -0.113688,0.017053 -0.278536,0.017053 z m 0.219797,-1.3945747 q -0.0057,-0.2103231 -0.09853,-0.3202216 -0.09095,-0.1098986 -0.280431,-0.1098986 -0.193269,0 -0.303168,0.115583 -0.108004,0.115583 -0.119373,0.3145372 z"
         style="font-style:normal;font-variant:normal;font-weight:bold;font-stretch:normal;font-size:3.88055563px;font-family:Tahoma;-inkscape-font-specification:'Tahoma Bold';stroke-width:0.26458335px"
         id="path919"
         inkscape:connector-curvature="0" />
      <path
         d="m 28.635548,2.6194965 h -0.05495 q -0.0379,-0.013264 -0.109898,-0.018948 -0.072,-0.00758 -0.159164,-0.00758 -0.104214,0 -0.219797,0.030317 -0.113688,0.030317 -0.221692,0.072002 v 1.4248926 h -0.66318 V 1.9923169 h 0.663181 v 0.3050632 q 0.04548,-0.041686 0.125057,-0.1042142 0.08148,-0.064423 0.147795,-0.1023193 0.072,-0.043581 0.166742,-0.073897 0.09663,-0.032212 0.181902,-0.032212 0.03221,0 0.072,0.00189 0.03979,0.00189 0.072,0.00568 z"
         style="font-style:normal;font-variant:normal;font-weight:bold;font-stretch:normal;font-size:3.88055563px;font-family:Tahoma;-inkscape-font-specification:'Tahoma Bold';stroke-width:0.26458335px"
         id="path921"
         inkscape:connector-curvature="0" />
    </g>
    <g
       aria-label="Reset"
       style="font-style:normal;font-variant:normal;font-weight:normal;font-stretch:normal;font-size:2.82222223px;line-height:125%;font-family:Tahoma;-inkscape-font-specification:Tahoma;letter-spacing:0px;word-spacing:0px;fill:#000000;fill-opacity:1;stroke:none;stroke-width:0.26458335px;stroke-linecap:butt;stroke-linejoin:miter;stroke-opacity:1"
       id="text869"
       transform="translate(2.9104167,7.7087908)">
      <path
         d="M 3.3083253,14.297359 H 3.0427084 L 2.5548828,13.68551 H 2.3213054 v 0.611849 H 2.1166667 v -1.538924 h 0.396875 q 0.1322917,0 0.2211751,0.01447 0.089917,0.01447 0.1705323,0.06718 0.080615,0.05168 0.127124,0.133325 0.047542,0.08165 0.047542,0.202572 0,0.169499 -0.085783,0.283187 -0.085783,0.113688 -0.2335774,0.168465 z M 2.865975,13.191484 q 0,-0.06718 -0.023771,-0.118856 -0.023771,-0.05271 -0.07338,-0.08578 -0.043408,-0.02894 -0.1012858,-0.04031 -0.057878,-0.0124 -0.1436605,-0.0124 H 2.3213054 v 0.580843 h 0.1798339 q 0.08785,0 0.1581299,-0.0155 0.07028,-0.0155 0.1198894,-0.06408 0.044442,-0.04341 0.065112,-0.103353 0.021704,-0.05994 0.021704,-0.14056 z"
         style="font-style:normal;font-variant:normal;font-weight:normal;font-stretch:normal;font-size:2.11666679px;font-family:Tahoma;-inkscape-font-specification:Tahoma;stroke-width:0.26458335px"
         id="path888"
         inkscape:connector-curvature="0" />
      <path
         d="m 3.8798667,14.324231 q -0.2759522,0 -0.4289145,-0.155029 -0.1519287,-0.156063 -0.1519287,-0.44235 0,-0.282154 0.1477946,-0.448552 0.1477946,-0.167431 0.3865398,-0.167431 0.107487,0 0.1901693,0.03101 0.082682,0.03101 0.144694,0.09715 0.062012,0.06615 0.095085,0.162264 0.033073,0.09509 0.033073,0.233578 V 13.74029 H 3.4964275 q 0,0.201539 0.1012858,0.307992 0.1012858,0.106454 0.2800863,0.106454 0.064079,0 0.125057,-0.01447 0.062012,-0.01447 0.1116211,-0.03721 0.05271,-0.02377 0.088883,-0.04547 0.036174,-0.02274 0.059945,-0.04238 h 0.011369 v 0.211874 q -0.034106,0.01343 -0.084749,0.03411 -0.050643,0.01964 -0.090951,0.03101 -0.056844,0.0155 -0.1033528,0.02377 -0.045475,0.0083 -0.1157552,0.0083 z M 4.107243,13.591459 q -0.00207,-0.07855 -0.018604,-0.135392 -0.016536,-0.05684 -0.047542,-0.09612 -0.034106,-0.04341 -0.08785,-0.06615 -0.05271,-0.02274 -0.1312581,-0.02274 -0.077515,0 -0.1322917,0.02377 -0.053743,0.02274 -0.098185,0.06718 -0.043408,0.04547 -0.066146,0.101286 -0.022738,0.05478 -0.028939,0.128157 z"
         style="font-style:normal;font-variant:normal;font-weight:normal;font-stretch:normal;font-size:2.11666679px;font-family:Tahoma;-inkscape-font-specification:Tahoma;stroke-width:0.26458335px"
         id="path890"
         inkscape:connector-curvature="0" />
      <path
         d="m 4.8069418,14.325265 q -0.1157552,0 -0.217041,-0.03101 -0.1002523,-0.03101 -0.1663981,-0.06615 V 14.01003 h 0.010335 q 0.024805,0.01964 0.057878,0.04341 0.034106,0.02377 0.089917,0.04961 0.049609,0.02274 0.1085205,0.04031 0.059945,0.01757 0.1240234,0.01757 0.046509,0 0.099219,-0.01034 0.05271,-0.01137 0.078548,-0.02791 0.036174,-0.02377 0.051676,-0.05064 0.016536,-0.02687 0.016536,-0.08062 0,-0.06925 -0.038241,-0.104386 -0.037207,-0.03514 -0.1333252,-0.05891 -0.037207,-0.0093 -0.097152,-0.0217 -0.059945,-0.0124 -0.1105876,-0.02687 -0.1322916,-0.03824 -0.1922363,-0.117823 -0.059945,-0.08061 -0.059945,-0.194303 0,-0.156063 0.1178223,-0.254248 0.1178223,-0.09819 0.3131592,-0.09819 0.096118,0 0.1932699,0.02377 0.097152,0.02377 0.1632975,0.05994 v 0.20774 h -0.010335 q -0.074414,-0.05891 -0.1663981,-0.09302 -0.09095,-0.03411 -0.1839681,-0.03411 -0.096118,0 -0.162264,0.04031 -0.066146,0.04031 -0.066146,0.121957 0,0.07235 0.039274,0.10852 0.039274,0.03514 0.1260905,0.05788 0.043408,0.01137 0.096118,0.02274 0.053744,0.01034 0.1126546,0.02481 0.1281576,0.03204 0.1922364,0.106454 0.065112,0.07441 0.065112,0.202571 0,0.07441 -0.029972,0.141594 -0.028939,0.06615 -0.085783,0.113688 -0.062012,0.05168 -0.1405599,0.07855 -0.077515,0.02687 -0.195337,0.02687 z"
         style="font-style:normal;font-variant:normal;font-weight:normal;font-stretch:normal;font-size:2.11666679px;font-family:Tahoma;-inkscape-font-specification:Tahoma;stroke-width:0.26458335px"
         id="path892"
         inkscape:connector-curvature="0" />
      <path
         d="m 5.9427901,14.324231 q -0.2759522,0 -0.4289144,-0.155029 -0.1519287,-0.156063 -0.1519287,-0.44235 0,-0.282154 0.1477946,-0.448552 0.1477946,-0.167431 0.3865397,-0.167431 0.107487,0 0.1901693,0.03101 0.082682,0.03101 0.144694,0.09715 0.062012,0.06615 0.095085,0.162264 0.033073,0.09509 0.033073,0.233578 V 13.74029 H 5.5593509 q 0,0.201539 0.1012859,0.307992 0.1012858,0.106454 0.2800862,0.106454 0.064079,0 0.125057,-0.01447 0.062012,-0.01447 0.1116211,-0.03721 0.05271,-0.02377 0.088883,-0.04547 0.036174,-0.02274 0.059945,-0.04238 h 0.011369 v 0.211874 q -0.034107,0.01343 -0.084749,0.03411 -0.050643,0.01964 -0.09095,0.03101 -0.056844,0.0155 -0.1033529,0.02377 -0.045475,0.0083 -0.1157552,0.0083 z m 0.2273763,-0.732772 q -0.00207,-0.07855 -0.018604,-0.135392 -0.016536,-0.05684 -0.047542,-0.09612 -0.034107,-0.04341 -0.08785,-0.06615 -0.05271,-0.02274 -0.1312581,-0.02274 -0.077515,0 -0.1322917,0.02377 -0.053743,0.02274 -0.098185,0.06718 -0.043408,0.04547 -0.066146,0.101286 -0.022738,0.05478 -0.028939,0.128157 z"
         style="font-style:normal;font-variant:normal;font-weight:normal;font-stretch:normal;font-size:2.11666679px;font-family:Tahoma;-inkscape-font-specification:Tahoma;stroke-width:0.26458335px"
         id="path894"
         inkscape:connector-curvature="0" />
      <path
         d="m 6.9070723,14.320097 q -0.1591634,0 -0.2480469,-0.08992 Q 6.570142,14.13923 6.570142,13.943893 V 13.304138 H 6.4388838 v -0.16123 H 6.570142 v -0.331763 h 0.1943033 v 0.331763 h 0.357601 v 0.16123 h -0.357601 v 0.548804 q 0,0.08785 0.0031,0.135392 0.0031,0.04754 0.023771,0.08888 0.01757,0.03617 0.056844,0.05478 0.039274,0.01757 0.1064534,0.01757 0.047542,0 0.091984,-0.01344 0.044442,-0.01447 0.064079,-0.02377 h 0.011369 v 0.174666 q -0.054777,0.0155 -0.1116211,0.02377 -0.055811,0.0093 -0.1033529,0.0093 z"
         style="font-style:normal;font-variant:normal;font-weight:normal;font-stretch:normal;font-size:2.11666679px;font-family:Tahoma;-inkscape-font-specification:Tahoma;stroke-width:0.26458335px"
         id="path896"
         inkscape:connector-curvature="0" />
    </g>
    <g
       aria-label="Clock"
       style="font-style:normal;font-variant:normal;font-weight:normal;font-stretch:normal;font-size:2.82222223px;line-height:125%;font-family:Tahoma;-inkscape-font-specification:Tahoma;letter-spacing:0px;word-spacing:0px;fill:#000000;fill-opacity:1;stroke:none;stroke-width:0.26458335px;stroke-linecap:butt;stroke-linejoin:miter;stroke-opacity:1"
       id="text873"
       transform="translate(27.257158,0.33301308)">
      <path
         d="m 2.7181804,21.733601 q -0.1508952,0 -0.2780192,-0.05064 -0.1260905,-0.05064 -0.2180746,-0.150895 -0.091984,-0.100252 -0.142627,-0.250114 -0.050643,-0.149861 -0.050643,-0.344165 0,-0.19327 0.048576,-0.33693 0.049609,-0.143661 0.1436605,-0.250114 0.091984,-0.103353 0.2180745,-0.157096 0.1260905,-0.05478 0.2821534,-0.05478 0.077515,0 0.144694,0.01137 0.068213,0.01137 0.1260905,0.02894 0.049609,0.0155 0.1012858,0.03927 0.05271,0.02274 0.1033529,0.05064 v 0.247014 h -0.016536 q -0.026872,-0.02481 -0.069246,-0.05994 -0.042375,-0.03514 -0.1033529,-0.06925 -0.058911,-0.03204 -0.1281575,-0.05271 -0.069246,-0.02067 -0.160197,-0.02067 -0.098185,0 -0.1860352,0.04031 -0.08785,0.04031 -0.1539957,0.118855 -0.065112,0.07855 -0.1012859,0.197404 -0.036174,0.118856 -0.036174,0.267684 0,0.15813 0.038241,0.272852 0.038241,0.113688 0.1043864,0.192236 0.064079,0.07648 0.1508952,0.115755 0.086816,0.03824 0.1839681,0.03824 0.088883,0 0.1643311,-0.0217 0.075448,-0.0217 0.1343587,-0.05478 0.056844,-0.03204 0.098185,-0.06511 0.041341,-0.03411 0.065112,-0.05788 h 0.015503 v 0.243913 q -0.050643,0.02377 -0.096118,0.04547 -0.044442,0.0217 -0.1085205,0.04237 -0.067179,0.0217 -0.125057,0.03307 -0.056844,0.01137 -0.1488281,0.01137 z"
         style="font-style:normal;font-variant:normal;font-weight:normal;font-stretch:normal;font-size:2.11666679px;font-family:Tahoma;-inkscape-font-specification:Tahoma;stroke-width:0.26458335px"
         id="path877"
         inkscape:connector-curvature="0" />
      <path
         d="M 3.5729086,21.705696 H 3.3786052 v -1.608171 h 0.1943034 z"
         style="font-style:normal;font-variant:normal;font-weight:normal;font-stretch:normal;font-size:2.11666679px;font-family:Tahoma;-inkscape-font-specification:Tahoma;stroke-width:0.26458335px"
         id="path879"
         inkscape:connector-curvature="0" />
      <path
         d="m 4.8079754,21.128987 q 0,0.291455 -0.1405599,0.450619 -0.1405599,0.158129 -0.3741374,0.158129 -0.2408122,0 -0.379305,-0.163297 -0.1374594,-0.164331 -0.1374594,-0.445451 0,-0.289388 0.1415935,-0.449585 0.1426269,-0.160197 0.3751709,-0.160197 0.2335775,0 0.3741374,0.160197 0.1405599,0.159164 0.1405599,0.449585 z m -0.2005046,0 q 0,-0.224276 -0.081649,-0.332796 -0.081649,-0.109554 -0.232544,-0.109554 -0.1519287,0 -0.234611,0.109554 -0.081649,0.10852 -0.081649,0.332796 0,0.217041 0.081649,0.329696 0.082682,0.111621 0.234611,0.111621 0.1498617,0 0.2315104,-0.109554 0.082682,-0.110588 0.082683,-0.331763 z"
         style="font-style:normal;font-variant:normal;font-weight:normal;font-stretch:normal;font-size:2.11666679px;font-family:Tahoma;-inkscape-font-specification:Tahoma;stroke-width:0.26458335px"
         id="path881"
         inkscape:connector-curvature="0" />
      <path
         d="m 5.4663331,21.731534 q -0.1188558,0 -0.2180745,-0.03617 -0.099219,-0.03721 -0.1705322,-0.111621 -0.071314,-0.07441 -0.1105876,-0.187069 -0.039274,-0.113688 -0.039274,-0.26665 0,-0.151929 0.040308,-0.262517 0.041341,-0.110587 0.1095541,-0.186035 0.068213,-0.07545 0.1694987,-0.115755 0.1023193,-0.04134 0.219108,-0.04134 0.095085,0 0.1829346,0.02687 0.088883,0.02687 0.1581299,0.06201 v 0.218075 h -0.011369 q -0.020671,-0.01757 -0.053744,-0.04031 -0.032039,-0.02274 -0.078548,-0.04651 -0.040308,-0.02067 -0.095085,-0.03617 -0.054777,-0.0155 -0.1054199,-0.0155 -0.1508952,0 -0.2428793,0.114722 -0.09095,0.113688 -0.09095,0.322461 0,0.204638 0.08785,0.31936 0.088883,0.113688 0.2459799,0.113688 0.095085,0 0.1808675,-0.03927 0.085783,-0.03927 0.1519287,-0.101286 h 0.011369 v 0.218075 q -0.028939,0.01344 -0.072347,0.03307 -0.043408,0.0186 -0.078548,0.02791 -0.049609,0.01447 -0.088883,0.0217 -0.039274,0.0083 -0.1012859,0.0083 z"
         style="font-style:normal;font-variant:normal;font-weight:normal;font-stretch:normal;font-size:2.11666679px;font-family:Tahoma;-inkscape-font-specification:Tahoma;stroke-width:0.26458335px"
         id="path883"
         inkscape:connector-curvature="0" />
      <path
         d="M 6.940145,21.705696 H 6.6848634 l -0.4309815,-0.557072 -0.076481,0.07441 v 0.482658 H 5.9830974 v -1.608171 h 0.1943034 v 0.941545 l 0.4568197,-0.487825 h 0.2418457 l -0.4743896,0.482657 z"
         style="font-style:normal;font-variant:normal;font-weight:normal;font-stretch:normal;font-size:2.11666679px;font-family:Tahoma;-inkscape-font-specification:Tahoma;stroke-width:0.26458335px"
         id="path885"
         inkscape:connector-curvature="0" />
    </g>
    <g
       aria-label="IN"
       style="font-style:normal;font-variant:normal;font-weight:bold;font-stretch:normal;font-size:1.41111112px;line-height:125%;font-family:sans-serif;-inkscape-font-specification:'sans-serif Bold';letter-spacing:0px;word-spacing:0px;fill:#000000;fill-opacity:1;stroke:none;stroke-width:0.26458335px;stroke-linecap:butt;stroke-linejoin:miter;stroke-opacity:1"
       id="text2079"
       transform="translate(3.4108426,0.3936998)">
      <path
         d="m 15.789854,14.353111 h 0.265272 v 1.028706 h -0.265272 z"
         style="font-style:normal;font-variant:normal;font-weight:bold;font-stretch:normal;font-size:1.41111112px;font-family:sans-serif;-inkscape-font-specification:'sans-serif Bold';stroke-width:0.26458335px"
         id="path2124"
         inkscape:connector-curvature="0" />
      <path
         d="m 16.316265,14.353111 h 0.296278 l 0.374137,0.705556 v -0.705556 h 0.251492 v 1.028706 h -0.296278 l -0.374137,-0.705556 v 0.705556 h -0.251492 z"
         style="font-style:normal;font-variant:normal;font-weight:bold;font-stretch:normal;font-size:1.41111112px;font-family:sans-serif;-inkscape-font-specification:'sans-serif Bold';stroke-width:0.26458335px"
         id="path2126"
         inkscape:connector-curvature="0" />
    </g>
    <g
       aria-label="OUT"
       style="font-style:normal;font-variant:normal;font-weight:bold;font-stretch:normal;font-size:2.11666679px;line-height:125%;font-family:sans-serif;-inkscape-font-specification:'sans-serif Bold';letter-spacing:0px;word-spacing:0px;fill:#000000;fill-opacity:1;stroke:none;stroke-width:0.26458335px;stroke-linecap:butt;stroke-linejoin:miter;stroke-opacity:1"
       id="text2087"
       transform="translate(3.4108426,0.3936998)">
      <path
         d="m 15.428119,26.77708 q -0.121267,0 -0.188102,0.08957 -0.06683,0.08957 -0.06683,0.252181 0,0.16192 0.06683,0.251492 0.06683,0.08957 0.188102,0.08957 0.121956,0 0.188791,-0.08957 0.06683,-0.08957 0.06683,-0.251492 0,-0.162608 -0.06683,-0.252181 -0.06684,-0.08957 -0.188791,-0.08957 z m 0,-0.192236 q 0.248047,0 0.388607,0.141937 0.14056,0.141938 0.14056,0.392052 0,0.249425 -0.14056,0.391363 -0.14056,0.141938 -0.388607,0.141938 -0.247358,0 -0.388607,-0.141938 -0.14056,-0.141938 -0.14056,-0.391363 0,-0.250114 0.14056,-0.392052 0.141249,-0.141937 0.388607,-0.141937 z"
         style="font-style:normal;font-variant:normal;font-weight:bold;font-stretch:normal;font-size:1.41111112px;font-family:sans-serif;-inkscape-font-specification:'sans-serif Bold';stroke-width:0.26458335px"
         id="path2117"
         inkscape:connector-curvature="0" />
      <path
         d="m 16.157101,26.603447 h 0.265273 v 0.616672 q 0,0.127469 0.04134,0.18259 0.04203,0.05443 0.136425,0.05443 0.09509,0 0.136426,-0.05443 0.04203,-0.05512 0.04203,-0.18259 v -0.616672 h 0.265273 v 0.616672 q 0,0.218419 -0.109554,0.325217 -0.109554,0.106798 -0.334175,0.106798 -0.223931,0 -0.333485,-0.106798 Q 16.1571,27.438538 16.1571,27.220119 Z"
         style="font-style:normal;font-variant:normal;font-weight:bold;font-stretch:normal;font-size:1.41111112px;font-family:sans-serif;-inkscape-font-specification:'sans-serif Bold';stroke-width:0.26458335px"
         id="path2119"
         inkscape:connector-curvature="0" />
      <path
         d="m 17.180983,26.603447 h 0.948091 v 0.200505 h -0.341065 v 0.828201 h -0.265272 v -0.828201 h -0.341754 z"
         style="font-style:normal;font-variant:normal;font-weight:bold;font-stretch:normal;font-size:1.41111112px;font-family:sans-serif;-inkscape-font-specification:'sans-serif Bold';stroke-width:0.26458335px"
         id="path2121"
         inkscape:connector-curvature="0" />
    </g>
  </g>
  <g
     inkscape:groupmode="layer"
     id="layer7"
     inkscape:label="image_pattern"
     style="display:none;opacity:0.3"
     sodipodi:insensitive="true"
     transform="translate(0,-0.26458)">
    <image
       sodipodi:absref="/Users/iota/Desktop/clock_divider_template.png"
       y="-3.4195964e-06"
       x="0"
       id="image942"
       xlink:href="file:///Users/iota/Desktop/clock_divider_template.png"
       style="image-rendering:optimizeQuality"
       preserveAspectRatio="none"
       height="100.54167"
       width="39.6875" />
  </g>
</svg>
