<?xml version="1.0" encoding="UTF-8" standalone="no"?>
<!-- Created with Inkscape (http://www.inkscape.org/) -->

<svg
   xmlns:dc="http://purl.org/dc/elements/1.1/"
   xmlns:cc="http://creativecommons.org/ns#"
   xmlns:rdf="http://www.w3.org/1999/02/22-rdf-syntax-ns#"
   xmlns:svg="http://www.w3.org/2000/svg"
   xmlns="http://www.w3.org/2000/svg"
   xmlns:xlink="http://www.w3.org/1999/xlink"
   xmlns:sodipodi="http://sodipodi.sourceforge.net/DTD/sodipodi-0.dtd"
   xmlns:inkscape="http://www.inkscape.org/namespaces/inkscape"
   width="90"
   height="380"
   viewBox="0 0 23.812501 100.54167"
   version="1.1"
   id="svg8"
   sodipodi:docname="clock.svg"
   inkscape:version="0.92.2 5c3e80d, 2017-08-06">
  <defs
     id="defs2" />
  <sodipodi:namedview
     id="base"
     pagecolor="#ffffff"
     bordercolor="#666666"
     borderopacity="1.0"
     inkscape:pageopacity="0.0"
     inkscape:pageshadow="2"
     inkscape:zoom="1.6789474"
     inkscape:cx="-3.5423197"
     inkscape:cy="213.82445"
     inkscape:document-units="px"
     inkscape:current-layer="layer1"
     showgrid="true"
     inkscape:window-width="1440"
     inkscape:window-height="851"
     inkscape:window-x="0"
     inkscape:window-y="1"
     inkscape:window-maximized="1"
     units="px"
     inkscape:snap-to-guides="false"
     inkscape:snap-grids="false">
    <inkscape:grid
       type="xygrid"
       id="grid3458" />
  </sodipodi:namedview>
  <metadata
     id="metadata5">
    <rdf:RDF>
      <cc:Work
         rdf:about="">
        <dc:format>image/svg+xml</dc:format>
        <dc:type
           rdf:resource="http://purl.org/dc/dcmitype/StillImage" />
        <dc:title></dc:title>
      </cc:Work>
    </rdf:RDF>
  </metadata>
  <g
     inkscape:label="Layer 1"
     inkscape:groupmode="layer"
     id="layer1"
     transform="translate(0,-196.45833)"
     style="display:inline">
    <rect
       style="fill:#ffffff;fill-opacity:1;stroke:#000000;stroke-width:0.06911054;stroke-linecap:butt;stroke-linejoin:round;stroke-miterlimit:4;stroke-dasharray:none;stroke-opacity:1"
       id="rect2041"
       width="23.743391"
       height="100.47256"
       x="0.034555271"
       y="196.49287" />
    <g
       aria-label="Clock"
       transform="matrix(0.26458333,0,0,0.26458333,-5.3656495,183.69024)"
       style="font-style:normal;font-weight:normal;font-size:40px;line-height:125%;font-family:sans-serif;letter-spacing:0px;word-spacing:0px;fill:#000000;fill-opacity:1;stroke:none;stroke-width:1px;stroke-linecap:butt;stroke-linejoin:miter;stroke-opacity:1"
       id="flowRoot3446">
      <path
         d="m 50.723958,82.871745 q -2.399088,0 -3.809895,-1.446615 -1.410808,-1.453776 -1.410808,-4.082031 0,-2.535156 1.410808,-4.039063 1.417968,-1.511067 3.817057,-1.511067 0.63737,0 1.145833,0.07161 0.508464,0.07162 0.973959,0.200521 0.365234,0.107422 0.794922,0.29362 0.429687,0.186198 0.694661,0.322265 v 2.542318 H 54.06836 Q 53.875,75.051428 53.58138,74.8151 q -0.293619,-0.24349 -0.666015,-0.472656 -0.372396,-0.229167 -0.823568,-0.386719 -0.44401,-0.164714 -0.93099,-0.164714 -0.580078,0 -1.067057,0.186198 -0.479818,0.179037 -0.916667,0.630209 -0.401041,0.408203 -0.658854,1.102864 -0.250651,0.694662 -0.250651,1.639974 0,0.995443 0.264974,1.675782 0.264974,0.673177 0.694662,1.088541 0.415364,0.401042 0.923828,0.580078 0.515625,0.179037 1.024088,0.179037 0.529948,0 1.009766,-0.171875 0.479818,-0.179037 0.809245,-0.39388 0.358073,-0.222006 0.630208,-0.451172 0.272136,-0.229167 0.472656,-0.408203 h 0.24349 v 2.50651 q -0.29362,0.136068 -0.680339,0.315104 -0.386718,0.171875 -0.794921,0.29362 -0.501303,0.150391 -0.938152,0.229167 -0.436848,0.07878 -1.203125,0.07878 z"
         style="font-style:normal;font-variant:normal;font-weight:bold;font-stretch:normal;font-size:14.66666698px;font-family:Tahoma;-inkscape-font-specification:'Tahoma Bold'"
         id="path3460"
         inkscape:connector-curvature="0" />
      <path
         d="m 58.286458,82.664062 h -2.50651 V 71.520833 h 2.50651 z"
         style="font-style:normal;font-variant:normal;font-weight:bold;font-stretch:normal;font-size:14.66666698px;font-family:Tahoma;-inkscape-font-specification:'Tahoma Bold'"
         id="path3462"
         inkscape:connector-curvature="0" />
      <path
         d="m 67.940105,78.646484 q 0,1.983724 -1.088542,3.129558 -1.08138,1.138672 -3.065104,1.138672 -1.969401,0 -3.065104,-1.138672 -1.088542,-1.145834 -1.088542,-3.129558 0,-2.005208 1.088542,-3.136719 1.095703,-1.138671 3.065104,-1.138671 1.976562,0 3.065104,1.145833 1.088542,1.138672 1.088542,3.129557 z m -2.570964,0.01432 q 0,-0.716146 -0.121745,-1.188802 -0.114583,-0.479818 -0.322265,-0.766276 -0.222006,-0.300781 -0.501302,-0.415365 -0.279297,-0.121744 -0.63737,-0.121744 -0.336589,0 -0.608724,0.107422 -0.272136,0.10026 -0.501302,0.39388 -0.214844,0.279297 -0.34375,0.766276 -0.128907,0.486979 -0.128907,1.224609 0,0.73763 0.121745,1.195964 0.121745,0.451172 0.315104,0.723307 0.200521,0.279297 0.501302,0.408203 0.300782,0.128906 0.666016,0.128906 0.300781,0 0.608724,-0.128906 0.315104,-0.128906 0.501302,-0.386719 0.222005,-0.307942 0.336589,-0.73763 0.114583,-0.436849 0.114583,-1.203125 z"
         style="font-style:normal;font-variant:normal;font-weight:bold;font-stretch:normal;font-size:14.66666698px;font-family:Tahoma;-inkscape-font-specification:'Tahoma Bold'"
         id="path3464"
         inkscape:connector-curvature="0" />
      <path
         d="m 73.218099,82.878906 q -0.995443,0 -1.826172,-0.250651 -0.823568,-0.250651 -1.432292,-0.773437 -0.601562,-0.522787 -0.938151,-1.310547 -0.336588,-0.794922 -0.336588,-1.869141 0,-1.152995 0.365234,-1.96224 0.365235,-0.809244 0.988281,-1.332031 0.601563,-0.501302 1.410808,-0.73763 0.816406,-0.24349 1.697265,-0.24349 0.666016,0 1.332032,0.157552 0.666015,0.150391 1.339192,0.48698 v 2.148437 h -0.322265 q -0.150391,-0.143229 -0.372396,-0.315104 -0.214844,-0.171875 -0.472656,-0.315104 -0.272136,-0.150391 -0.615886,-0.250651 -0.34375,-0.107422 -0.766276,-0.107422 -0.959635,0 -1.489583,0.673177 -0.522787,0.666016 -0.522787,1.797526 0,1.210287 0.558594,1.804688 0.565755,0.594401 1.496745,0.594401 0.472656,0 0.830729,-0.107422 0.358073,-0.107422 0.615886,-0.257813 0.250651,-0.15039 0.429687,-0.307942 0.179037,-0.164714 0.307943,-0.29362 h 0.322265 v 2.148437 q -0.214843,0.0931 -0.501302,0.214844 -0.279296,0.121745 -0.572916,0.200521 -0.365235,0.10026 -0.6875,0.150391 -0.315104,0.05729 -0.837891,0.05729 z"
         style="font-style:normal;font-variant:normal;font-weight:bold;font-stretch:normal;font-size:14.66666698px;font-family:Tahoma;-inkscape-font-specification:'Tahoma Bold'"
         id="path3466"
         inkscape:connector-curvature="0" />
      <path
         d="m 85.05599,82.664062 h -2.979167 l -2.177083,-3.501953 -0.386719,0.522787 v 2.979166 H 77.00651 V 71.520833 h 2.506511 v 6.244792 l 2.377604,-3.14388 h 2.957682 l -2.814453,3.466146 z"
         style="font-style:normal;font-variant:normal;font-weight:bold;font-stretch:normal;font-size:14.66666698px;font-family:Tahoma;-inkscape-font-specification:'Tahoma Bold'"
         id="path3468"
         inkscape:connector-curvature="0" />
    </g>
    <g
       aria-label="reset"
       style="font-style:normal;font-variant:normal;font-weight:normal;font-stretch:normal;font-size:2.82222223px;line-height:125%;font-family:Tahoma;-inkscape-font-specification:Tahoma;letter-spacing:0px;word-spacing:0px;fill:#000000;fill-opacity:1;stroke:none;stroke-width:0.26458335px;stroke-linecap:butt;stroke-linejoin:miter;stroke-opacity:1"
       id="text3473">
      <path
         d="m 8.0615328,220.20842 h -0.01378 q -0.028939,-0.008 -0.062012,-0.01 -0.031695,-0.003 -0.07717,-0.003 -0.1047309,0 -0.2080838,0.0455 -0.1033529,0.0455 -0.1956814,0.13505 v 1.09278 H 7.2457342 v -1.53927 h 0.2590712 v 0.22876 q 0.1419379,-0.12541 0.2466688,-0.17639 0.106109,-0.0524 0.2053277,-0.0524 0.039963,0 0.059256,0.003 0.020671,0.001 0.045475,0.006 z"
         style="font-style:normal;font-variant:normal;font-weight:normal;font-stretch:normal;font-size:2.82222223px;font-family:Tahoma;-inkscape-font-specification:Tahoma;stroke-width:0.26458335px"
         id="path3479" />
      <path
         d="m 8.9228067,221.50516 q -0.3679362,0 -0.5718859,-0.20671 -0.2025716,-0.20808 -0.2025716,-0.5898 0,-0.3762 0.1970595,-0.59807 0.1970595,-0.22324 0.5153863,-0.22324 0.1433159,0 0.253559,0.0413 0.1102431,0.0413 0.1929254,0.12954 0.082682,0.0882 0.1267795,0.21635 0.044097,0.12678 0.044097,0.31144 v 0.14056 H 8.4115545 q 0,0.26871 0.1350478,0.41065 0.1350477,0.14194 0.3734483,0.14194 0.085438,0 0.1667426,-0.0193 0.082682,-0.0193 0.1488282,-0.0496 0.07028,-0.0317 0.1185113,-0.0606 0.048231,-0.0303 0.079926,-0.0565 h 0.015158 v 0.28249 q -0.045475,0.0179 -0.1129991,0.0455 -0.067524,0.0262 -0.1212674,0.0413 -0.075792,0.0207 -0.1378038,0.0317 -0.060634,0.011 -0.1543403,0.011 z m 0.3031684,-0.97703 q -0.00276,-0.10473 -0.024805,-0.18052 -0.022049,-0.0758 -0.06339,-0.12816 -0.045475,-0.0579 -0.1171333,-0.0882 -0.07028,-0.0303 -0.1750108,-0.0303 -0.1033529,0 -0.1763889,0.0317 -0.071658,0.0303 -0.1309137,0.0896 -0.057878,0.0606 -0.088194,0.13504 -0.030317,0.073 -0.038585,0.17088 z"
         style="font-style:normal;font-variant:normal;font-weight:normal;font-stretch:normal;font-size:2.82222223px;font-family:Tahoma;-inkscape-font-specification:Tahoma;stroke-width:0.26458335px"
         id="path3481" />
      <path
         d="m 10.158907,221.50654 q -0.15434,0 -0.2893881,-0.0413 -0.1336697,-0.0414 -0.2218641,-0.0882 v -0.29076 h 0.01378 q 0.033073,0.0262 0.07717,0.0579 0.045475,0.0317 0.1198893,0.0661 0.066146,0.0303 0.1446944,0.0537 0.07993,0.0234 0.165364,0.0234 0.06201,0 0.132292,-0.0138 0.07028,-0.0152 0.104731,-0.0372 0.04823,-0.0317 0.0689,-0.0675 0.02205,-0.0358 0.02205,-0.10749 0,-0.0923 -0.05099,-0.13918 -0.04961,-0.0468 -0.177767,-0.0785 -0.04961,-0.0124 -0.129536,-0.0289 -0.07993,-0.0165 -0.1474497,-0.0358 -0.1763889,-0.051 -0.2563151,-0.15709 -0.079926,-0.10749 -0.079926,-0.25907 0,-0.20809 0.1570963,-0.339 0.1570964,-0.13092 0.4175457,-0.13092 0.128157,0 0.257693,0.0317 0.129536,0.0317 0.21773,0.0799 v 0.27698 h -0.01378 q -0.09922,-0.0786 -0.221864,-0.12402 -0.121268,-0.0455 -0.245291,-0.0455 -0.128158,0 -0.216352,0.0537 -0.088195,0.0537 -0.088195,0.1626 0,0.0965 0.052365,0.1447 0.052365,0.0469 0.1681202,0.0772 0.05788,0.0152 0.128158,0.0303 0.07166,0.0138 0.150206,0.0331 0.170877,0.0427 0.256315,0.14194 0.08682,0.0992 0.08682,0.27009 0,0.0992 -0.03996,0.18879 -0.03859,0.0882 -0.114378,0.15159 -0.08268,0.0689 -0.187413,0.10473 -0.103353,0.0358 -0.260449,0.0358 z"
         style="font-style:normal;font-variant:normal;font-weight:normal;font-stretch:normal;font-size:2.82222223px;font-family:Tahoma;-inkscape-font-specification:Tahoma;stroke-width:0.26458335px"
         id="path3483" />
      <path
         d="m 11.673371,221.50516 q -0.367936,0 -0.571886,-0.20671 -0.202571,-0.20808 -0.202571,-0.5898 0,-0.3762 0.197059,-0.59807 0.197059,-0.22324 0.515386,-0.22324 0.143316,0 0.253559,0.0413 0.110243,0.0413 0.192926,0.12954 0.08268,0.0882 0.126779,0.21635 0.0441,0.12678 0.0441,0.31144 v 0.14056 h -1.066601 q 0,0.26871 0.135048,0.41065 0.135047,0.14194 0.373448,0.14194 0.08544,0 0.166743,-0.0193 0.08268,-0.0193 0.148828,-0.0496 0.07028,-0.0317 0.118511,-0.0606 0.04823,-0.0303 0.07993,-0.0565 h 0.01516 v 0.28249 q -0.04548,0.0179 -0.113,0.0455 -0.06752,0.0262 -0.121267,0.0413 -0.07579,0.0207 -0.137804,0.0317 -0.06063,0.011 -0.15434,0.011 z m 0.303168,-0.97703 q -0.0028,-0.10473 -0.0248,-0.18052 -0.02205,-0.0758 -0.06339,-0.12816 -0.04547,-0.0579 -0.117133,-0.0882 -0.07028,-0.0303 -0.175011,-0.0303 -0.103353,0 -0.176389,0.0317 -0.07166,0.0303 -0.130914,0.0896 -0.05788,0.0606 -0.08819,0.13504 -0.03032,0.073 -0.03858,0.17088 z"
         style="font-style:normal;font-variant:normal;font-weight:normal;font-stretch:normal;font-size:2.82222223px;font-family:Tahoma;-inkscape-font-specification:Tahoma;stroke-width:0.26458335px"
         id="path3485" />
      <path
         d="m 12.959081,221.49965 q -0.212218,0 -0.33073,-0.11989 -0.118511,-0.12127 -0.118511,-0.38172 v -0.853 h -0.175011 v -0.21498 h 0.175011 v -0.44235 h 0.259071 v 0.44235 h 0.476802 v 0.21498 h -0.476802 v 0.73173 q 0,0.11714 0.0041,0.18053 0.0041,0.0634 0.03169,0.11851 0.02343,0.0482 0.07579,0.073 0.05237,0.0234 0.141938,0.0234 0.06339,0 0.122646,-0.0179 0.05926,-0.0193 0.08544,-0.0317 h 0.01516 v 0.23289 q -0.07304,0.0207 -0.148829,0.0317 -0.07441,0.0124 -0.137803,0.0124 z"
         style="font-style:normal;font-variant:normal;font-weight:normal;font-stretch:normal;font-size:2.82222223px;font-family:Tahoma;-inkscape-font-specification:Tahoma;stroke-width:0.26458335px"
         id="path3487" />
    </g>
    <g
       aria-label="outputs"
       style="font-style:normal;font-variant:normal;font-weight:normal;font-stretch:normal;font-size:2.82222223px;line-height:125%;font-family:Tahoma;-inkscape-font-specification:Tahoma;letter-spacing:0px;word-spacing:0px;fill:#000000;fill-opacity:1;stroke:none;stroke-width:0.26458335px;stroke-linecap:butt;stroke-linejoin:miter;stroke-opacity:1"
       id="text3477">
      <path
         d="m 8.6527024,237.49357 q 0,0.3886 -0.1874132,0.60082 -0.1874132,0.21084 -0.4988498,0.21084 -0.3210829,0 -0.5057401,-0.21773 -0.183279,-0.21911 -0.183279,-0.59393 0,-0.38585 0.1887912,-0.59945 0.1901693,-0.2136 0.5002279,-0.2136 0.3114366,0 0.4988498,0.2136 0.1874132,0.21222 0.1874132,0.59945 z m -0.2673394,0 q 0,-0.29904 -0.108865,-0.44373 -0.1088651,-0.14607 -0.3100586,-0.14607 -0.2025716,0 -0.3128147,0.14607 -0.108865,0.14469 -0.108865,0.44373 0,0.28938 0.108865,0.43959 0.1102431,0.14883 0.3128147,0.14883 0.1998155,0 0.3086805,-0.14607 0.1102431,-0.14745 0.1102431,-0.44235 z"
         style="font-style:normal;font-variant:normal;font-weight:normal;font-stretch:normal;font-size:2.82222223px;font-family:Tahoma;-inkscape-font-specification:Tahoma;stroke-width:0.26458335px"
         id="path3490" />
      <path
         d="M 10.117557,238.26251 H 9.8584858 v -0.17087 q -0.1198894,0.10473 -0.2273763,0.15985 -0.107487,0.0537 -0.2397787,0.0537 -0.1005968,0 -0.1901692,-0.0331 -0.088195,-0.0331 -0.1543403,-0.10473 -0.066146,-0.0717 -0.1033529,-0.18053 -0.035829,-0.10886 -0.035829,-0.26458 v -0.99908 h 0.2590712 v 0.87644 q 0,0.12264 0.00827,0.20395 0.00965,0.0799 0.041341,0.14056 0.031695,0.0593 0.085438,0.0868 0.055122,0.0276 0.1570964,0.0276 0.095085,0 0.2025716,-0.0537 0.107487,-0.0537 0.1970595,-0.13229 v -1.14929 h 0.2590712 z"
         style="font-style:normal;font-variant:normal;font-weight:normal;font-stretch:normal;font-size:2.82222223px;font-family:Tahoma;-inkscape-font-specification:Tahoma;stroke-width:0.26458335px"
         id="path3492" />
      <path
         d="m 10.960916,238.29283 q -0.212217,0 -0.330729,-0.11989 -0.118511,-0.12127 -0.118511,-0.38172 v -0.853 h -0.175011 v -0.21498 h 0.175011 v -0.44235 h 0.259071 v 0.44235 h 0.476801 v 0.21498 h -0.476801 v 0.73174 q 0,0.11713 0.0041,0.18052 0.0041,0.0634 0.03169,0.11851 0.02343,0.0482 0.07579,0.073 0.05237,0.0234 0.141938,0.0234 0.06339,0 0.122646,-0.0179 0.05925,-0.0193 0.08544,-0.0317 h 0.01516 v 0.23289 q -0.07304,0.0207 -0.148828,0.0317 -0.07441,0.0124 -0.137804,0.0124 z"
         style="font-style:normal;font-variant:normal;font-weight:normal;font-stretch:normal;font-size:2.82222223px;font-family:Tahoma;-inkscape-font-specification:Tahoma;stroke-width:0.26458335px"
         id="path3494" />
      <path
         d="m 12.728939,237.45223 q 0,0.38447 -0.184657,0.61322 -0.183279,0.22738 -0.464399,0.22738 -0.114377,0 -0.202571,-0.0262 -0.0882,-0.0262 -0.180523,-0.0813 v 0.64492 h -0.259072 v -2.10702 h 0.259072 v 0.16123 q 0.09646,-0.0868 0.213596,-0.14469 0.118511,-0.0593 0.257693,-0.0593 0.264583,0 0.412033,0.20947 0.148828,0.20946 0.148828,0.56224 z m -0.267339,0.0289 q 0,-0.2632 -0.08406,-0.40789 -0.08406,-0.14608 -0.272851,-0.14608 -0.110243,0 -0.213596,0.0496 -0.101975,0.0482 -0.194303,0.1254 v 0.8723 q 0.101974,0.0496 0.173632,0.0675 0.07304,0.0179 0.166743,0.0179 0.201194,0 0.312815,-0.14745 0.111621,-0.14745 0.111621,-0.43133 z"
         style="font-style:normal;font-variant:normal;font-weight:normal;font-stretch:normal;font-size:2.82222223px;font-family:Tahoma;-inkscape-font-specification:Tahoma;stroke-width:0.26458335px"
         id="path3496" />
      <path
         d="m 14.19655,238.26251 h -0.259071 v -0.17087 q -0.119889,0.10473 -0.227376,0.15985 -0.107487,0.0537 -0.239779,0.0537 -0.100597,0 -0.190169,-0.0331 -0.0882,-0.0331 -0.154341,-0.10473 -0.06615,-0.0717 -0.103353,-0.18053 -0.03583,-0.10886 -0.03583,-0.26458 v -0.99908 h 0.259072 v 0.87644 q 0,0.12264 0.0083,0.20395 0.0096,0.0799 0.04134,0.14056 0.03169,0.0593 0.08544,0.0868 0.05512,0.0276 0.157097,0.0276 0.09508,0 0.202571,-0.0537 0.107487,-0.0537 0.19706,-0.13229 v -1.14929 h 0.259071 z"
         style="font-style:normal;font-variant:normal;font-weight:normal;font-stretch:normal;font-size:2.82222223px;font-family:Tahoma;-inkscape-font-specification:Tahoma;stroke-width:0.26458335px"
         id="path3498" />
      <path
         d="m 15.039909,238.29283 q -0.212218,0 -0.330729,-0.11989 -0.118511,-0.12127 -0.118511,-0.38172 v -0.853 h -0.175011 v -0.21498 h 0.175011 v -0.44235 h 0.259071 v 0.44235 h 0.476801 v 0.21498 H 14.84974 v 0.73174 q 0,0.11713 0.0041,0.18052 0.0041,0.0634 0.0317,0.11851 0.02343,0.0482 0.07579,0.073 0.05237,0.0234 0.141938,0.0234 0.06339,0 0.122645,-0.0179 0.05926,-0.0193 0.08544,-0.0317 h 0.01516 v 0.23289 q -0.07304,0.0207 -0.148828,0.0317 -0.07441,0.0124 -0.137804,0.0124 z"
         style="font-style:normal;font-variant:normal;font-weight:normal;font-stretch:normal;font-size:2.82222223px;font-family:Tahoma;-inkscape-font-specification:Tahoma;stroke-width:0.26458335px"
         id="path3500" />
      <path
         d="m 15.932878,238.29972 q -0.15434,0 -0.289388,-0.0413 -0.133669,-0.0413 -0.221864,-0.0882 v -0.29076 h 0.01378 q 0.03307,0.0262 0.07717,0.0579 0.04547,0.0317 0.119889,0.0661 0.06615,0.0303 0.144694,0.0537 0.07993,0.0234 0.165365,0.0234 0.06201,0 0.132291,-0.0138 0.07028,-0.0152 0.104731,-0.0372 0.04823,-0.0317 0.0689,-0.0675 0.02205,-0.0358 0.02205,-0.10749 0,-0.0923 -0.05099,-0.13918 -0.04961,-0.0469 -0.177767,-0.0786 -0.04961,-0.0124 -0.129535,-0.0289 -0.07993,-0.0165 -0.14745,-0.0358 -0.176389,-0.051 -0.256315,-0.1571 -0.07993,-0.10749 -0.07993,-0.25907 0,-0.20809 0.157097,-0.339 0.157096,-0.13091 0.417545,-0.13091 0.128158,0 0.257693,0.0317 0.129536,0.0317 0.21773,0.0799 v 0.27698 h -0.01378 q -0.09922,-0.0785 -0.221864,-0.12402 -0.121267,-0.0455 -0.245291,-0.0455 -0.128157,0 -0.216352,0.0538 -0.08819,0.0537 -0.08819,0.16261 0,0.0965 0.05236,0.14469 0.05237,0.0469 0.168121,0.0772 0.05788,0.0152 0.128157,0.0303 0.07166,0.0138 0.150206,0.0331 0.170877,0.0427 0.256316,0.14194 0.08682,0.0992 0.08682,0.27009 0,0.0992 -0.03996,0.1888 -0.03859,0.0882 -0.114377,0.15158 -0.08268,0.0689 -0.187414,0.10473 -0.103352,0.0358 -0.260449,0.0358 z"
         style="font-style:normal;font-variant:normal;font-weight:normal;font-stretch:normal;font-size:2.82222223px;font-family:Tahoma;-inkscape-font-specification:Tahoma;stroke-width:0.26458335px"
         id="path3502" />
    </g>
  </g>
  <g
     inkscape:groupmode="layer"
     id="layer2"
     inkscape:label="image"
     style="display:none;opacity:0.11000001"
     transform="translate(0,-279.45833)"
     sodipodi:insensitive="true">
    <image
       sodipodi:absref="/Users/iota/Desktop/clock.png"
       y="279.45834"
       x="0"
       id="image1429"
       xlink:href="file:///Users/iota/Desktop/clock.png"
       preserveAspectRatio="none"
       height="100.54167"
       width="23.8125" />
  </g>
</svg>
