<?xml version="1.0" encoding="UTF-8" standalone="no"?>
<!-- Created with Inkscape (http://www.inkscape.org/) -->

<svg
   xmlns:dc="http://purl.org/dc/elements/1.1/"
   xmlns:cc="http://creativecommons.org/ns#"
   xmlns:rdf="http://www.w3.org/1999/02/22-rdf-syntax-ns#"
   xmlns:svg="http://www.w3.org/2000/svg"
   xmlns="http://www.w3.org/2000/svg"
   xmlns:sodipodi="http://sodipodi.sourceforge.net/DTD/sodipodi-0.dtd"
   xmlns:inkscape="http://www.inkscape.org/namespaces/inkscape"
   width="36"
   height="36"
   viewBox="0 0 9.525 9.525"
   version="1.1"
   id="svg1271"
   sodipodi:docname="n_KnobGrey.svg"
   inkscape:version="0.92.2 5c3e80d, 2017-08-06">
  <defs
     id="defs1265" />
  <sodipodi:namedview
     id="base"
     pagecolor="#ffffff"
     bordercolor="#666666"
     borderopacity="1.0"
     inkscape:pageopacity="0.0"
     inkscape:pageshadow="2"
     inkscape:zoom="12.636287"
     inkscape:cx="32.656916"
     inkscape:cy="27.459529"
     inkscape:document-units="px"
     inkscape:current-layer="layer1"
     showgrid="false"
     units="px"
     inkscape:window-width="2560"
     inkscape:window-height="1392"
     inkscape:window-x="91"
     inkscape:window-y="79"
     inkscape:window-maximized="0" />
  <metadata
     id="metadata1268">
    <rdf:RDF>
      <cc:Work
         rdf:about="">
        <dc:format>image/svg+xml</dc:format>
        <dc:type
           rdf:resource="http://purl.org/dc/dcmitype/StillImage" />
        <dc:title></dc:title>
      </cc:Work>
    </rdf:RDF>
  </metadata>
  <g
     inkscape:label="Layer 1"
     inkscape:groupmode="layer"
     id="layer1"
     transform="translate(0,-287.47499)">
    <g
       transform="matrix(0.17638889,0,0,0.17638889,-4.8618086,256.63023)"
       id="g1707">
      <path
         inkscape:connector-curvature="0"
         style="fill:#161616;fill-opacity:1"
         d="m 81.563009,201.86792 a 27,27 0 0 1 -27,27 27,27 0 0 1 -27,-27 27,27 0 0 1 27,-27 27,27 0 0 1 27,27"
         data-name="path6445"
         id="path1671" />
      <path
         id="path1673"
         data-name="path6445"
         d="m 74.793009,201.86792 a 20,20 0 0 1 -20,20 20,20 0 0 1 -20,-20 20,20 0 0 1 20,-20 20,20 0 0 1 20,20"
         style="fill:#ffffff;fill-opacity:1;stroke-width:0.74074072"
         inkscape:connector-curvature="0" />
      <g
         id="g1685"
         transform="translate(26.563009,0.71791917)">
        <path
           inkscape:connector-curvature="0"
           id="path1675"
           style="fill:#d5d5d5;stroke:none"
           transform="translate(152.86,29.42)"
           d="m -124.86,152.51 a 19.21,19.21 0 0 0 -18.21,13.13 h 36.42 a 19.21,19.21 0 0 0 -18.21,-13.13 z" />
        <path
           transform="translate(152.86,29.42)"
           inkscape:connector-curvature="0"
           id="path1677"
           style="fill:#e3e3e5;stroke:none"
           d="m -143.07,165.64 c -0.09,0.28 -0.19,0.55 -0.27,0.83 h 37 c -0.08,-0.28 -0.18,-0.55 -0.27,-0.83 z" />
        <path
           transform="translate(152.86,29.42)"
           inkscape:connector-curvature="0"
           id="path1679"
           style="fill:#9d9d9d"
           d="m -143.34,166.47 a 19.21,19.21 0 0 0 -0.74,5.26 19.22,19.22 0 0 0 19.22,19.22 19.22,19.22 0 0 0 19.22,-19.22 19.21,19.21 0 0 0 -0.74,-5.26 z" />
        <g
           data-name="g6451"
           id="g1683">
          <path
             inkscape:connector-curvature="0"
             style="fill:#202020"
             transform="translate(152.86,29.42)"
             d="m -123.86,152.5 a 5.91,5.91 0 0 0 -1,-0.09 5.88,5.88 0 0 0 -1,0.09 v 10.88 h 2 z"
             data-name="path6453"
             id="path1681" />
        </g>
      </g>
      <path
         inkscape:connector-curvature="0"
         id="path1687"
         style="fill:#454545;fill-opacity:1"
         d="m 54.563009,182.64792 a 19.22,19.22 0 0 1 19.22,19.22 19.22,19.22 0 0 1 -19.22,19.22 19.22,19.22 0 0 1 -19.22,-19.22 19.22,19.22 0 0 1 19.22,-19.22 m 0,-1.65 a 20.89,20.89 0 0 0 -20.87,20.87 20.89,20.89 0 0 0 20.87,20.87 20.89,20.89 0 0 0 20.86,-20.87 20.89,20.89 0 0 0 -20.87,-20.87 z" />
      <g
         id="g1705"
         style="fill:#2d2d2d;fill-opacity:1;stroke:none;stroke-opacity:1"
         transform="translate(26.563009,0.71792343)">
        <path
           d="m -133.75,153.41 -2.21,-2.27 a 23.49,23.49 0 0 0 -9.49,9.5 l 2.21,2.26 a 21.92,21.92 0 0 1 9.49,-9.49 z"
           transform="translate(152.86,29.42)"
           style="fill:#2d2d2d;fill-opacity:1;stroke:none;stroke-opacity:1"
           id="path1689"
           inkscape:connector-curvature="0" />
        <path
           d="m -116,190 2.2,2.28 a 23.49,23.49 0 0 0 9.5,-9.49 l -2.2,-2.29 a 21.92,21.92 0 0 1 -9.5,9.5 z"
           transform="translate(152.86,29.42)"
           style="fill:#2d2d2d;fill-opacity:1;stroke:none;stroke-opacity:1"
           id="path1691"
           inkscape:connector-curvature="0" />
        <path
           d="m -143.25,180.55 -2.19,2.29 a 23.49,23.49 0 0 0 9.5,9.49 l 2.2,-2.29 a 21.92,21.92 0 0 1 -9.51,-9.49 z"
           transform="translate(152.86,29.42)"
           style="fill:#2d2d2d;fill-opacity:1;stroke:none;stroke-opacity:1"
           id="path1693"
           inkscape:connector-curvature="0" />
        <path
           d="m -106.48,162.9 2.22,-2.26 a 23.49,23.49 0 0 0 -9.49,-9.5 l -2.25,2.26 a 21.92,21.92 0 0 1 9.52,9.5 z"
           transform="translate(152.86,29.42)"
           style="fill:#2d2d2d;fill-opacity:1;stroke:none;stroke-opacity:1"
           id="path1695"
           inkscape:connector-curvature="0" />
        <path
           d="m -124.87,192 a 21.81,21.81 0 0 1 -6.7,-1.05 v 3.21 a 23.38,23.38 0 0 0 6.71,1 23.38,23.38 0 0 0 6.71,-1 v -3.22 a 21.81,21.81 0 0 1 -6.72,1.06 z"
           transform="translate(152.86,29.42)"
           style="fill:#2d2d2d;fill-opacity:1;stroke:none;stroke-opacity:1"
           id="path1697"
           inkscape:connector-curvature="0" />
        <path
           d="m -124.87,151.48 a 21.81,21.81 0 0 1 6.73,1.06 v -3.22 a 23.38,23.38 0 0 0 -6.71,-1 23.38,23.38 0 0 0 -6.71,1 v 3.21 a 21.81,21.81 0 0 1 6.69,-1.05 z"
           transform="translate(152.86,29.42)"
           style="fill:#2d2d2d;fill-opacity:1;stroke:none;stroke-opacity:1"
           id="path1699"
           inkscape:connector-curvature="0" />
        <path
           d="m -104.63,171.73 a 21.81,21.81 0 0 1 -1.06,6.73 h 3.23 a 23.38,23.38 0 0 0 1,-6.73 23.38,23.38 0 0 0 -1,-6.7 h -3.22 a 21.81,21.81 0 0 1 1.05,6.7 z"
           transform="translate(152.86,29.42)"
           style="fill:#2d2d2d;fill-opacity:1;stroke:none;stroke-opacity:1"
           id="path1701"
           inkscape:connector-curvature="0" />
        <path
           d="m -145.12,171.72 a 21.81,21.81 0 0 1 1.05,-6.7 h -3.2 a 23.38,23.38 0 0 0 -1,6.7 23.38,23.38 0 0 0 1,6.73 h 3.2 a 21.81,21.81 0 0 1 -1.05,-6.73 z"
           transform="translate(152.86,29.42)"
           style="fill:#2d2d2d;fill-opacity:1;stroke:none;stroke-opacity:1"
           id="path1703"
           inkscape:connector-curvature="0" />
      </g>
    </g>
  </g>
</svg>
