<?xml version="1.0" encoding="UTF-8" standalone="no"?>
<!-- Created with Inkscape (http://www.inkscape.org/) -->

<svg
   xmlns:dc="http://purl.org/dc/elements/1.1/"
   xmlns:cc="http://creativecommons.org/ns#"
   xmlns:rdf="http://www.w3.org/1999/02/22-rdf-syntax-ns#"
   xmlns:svg="http://www.w3.org/2000/svg"
   xmlns="http://www.w3.org/2000/svg"
   xmlns:sodipodi="http://sodipodi.sourceforge.net/DTD/sodipodi-0.dtd"
   xmlns:inkscape="http://www.inkscape.org/namespaces/inkscape"
   width="14"
   height="20.641106"
   viewBox="0 0 3.7041666 5.4612927"
   version="1.1"
   id="svg56722"
   inkscape:version="0.92.2 5c3e80d, 2017-08-06"
   sodipodi:docname="n_CKSS_1.svg">
  <defs
     id="defs56716" />
  <sodipodi:namedview
     id="base"
     pagecolor="#ffffff"
     bordercolor="#666666"
     borderopacity="1.0"
     inkscape:pageopacity="0.0"
     inkscape:pageshadow="2"
     inkscape:zoom="3.959798"
     inkscape:cx="-8.6346693"
     inkscape:cy="5.2452202"
     inkscape:document-units="mm"
     inkscape:current-layer="layer1"
     showgrid="false"
     fit-margin-top="0"
     fit-margin-left="0"
     fit-margin-right="0"
     fit-margin-bottom="0"
     inkscape:window-width="1600"
     inkscape:window-height="882"
     inkscape:window-x="0"
     inkscape:window-y="18"
     inkscape:window-maximized="0"
     units="px" />
  <metadata
     id="metadata56719">
    <rdf:RDF>
      <cc:Work
         rdf:about="">
        <dc:format>image/svg+xml</dc:format>
        <dc:type
           rdf:resource="http://purl.org/dc/dcmitype/StillImage" />
        <dc:title />
      </cc:Work>
    </rdf:RDF>
  </metadata>
  <g
     inkscape:label="Layer 1"
     inkscape:groupmode="layer"
     id="layer1"
     transform="translate(-30.16787,-65.374457)">
    <g
       id="g1867"
       transform="matrix(-0.26458333,0,0,-0.26458333,92.612142,129.41964)">
      <path
         inkscape:connector-curvature="0"
         id="path1859"
         d="M 69.17,193.51 A 1.48,1.48 0 0 1 70.65,192 h 11 a 1.48,1.48 0 0 1 1.48,1.48 v 17.69 a 1.48,1.48 0 0 1 -1.48,1.47 h -11 a 1.48,1.48 0 0 1 -1.48,-1.47 z"
         transform="translate(152.86,29.42)" />
      <g
         id="g1865">
        <g
           id="g1863">
          <path
             inkscape:connector-curvature="0"
             id="path1861"
             d="m 71.36,193.37 a 0.89,0.89 0 0 0 -0.88,0.88 v 0 16.36 a 0.89,0.89 0 0 0 0.88,0.89 H 81 a 0.89,0.89 0 0 0 0.88,-0.89 v 0 -16.35 A 0.89,0.89 0 0 0 81,193.38 h -9.64 z"
             transform="translate(152.86,29.42)"
             style="fill:#202020" />
        </g>
      </g>
    </g>
    <g
       data-name="g5795"
       id="g1873"
       transform="matrix(-0.26458333,0,0,-0.26458333,92.612142,129.41964)">
      <g
         data-name="g5797"
         id="g1871">
        <path
           style="fill:#3c3c3c;fill-opacity:1;stroke:#505050;stroke-width:0.25px"
           transform="translate(152.86,29.42)"
           d="m 71.36,203.62 a 0.89,0.89 0 0 0 -0.88,0.88 v 0 5.89 a 0.89,0.89 0 0 0 0.88,0.89 H 81 a 0.89,0.89 0 0 0 0.88,-0.89 v 0 -5.89 A 0.89,0.89 0 0 0 81,203.62 Z"
           data-name="path5805"
           id="path1869"
           inkscape:connector-curvature="0" />
      </g>
    </g>
    <rect
       style="fill:#9d9d9d;stroke-width:0.26458332;fill-opacity:1"
       ry="0.044979166"
       rx="0.044979166"
       height="0.52916664"
       width="3.0771041"
       y="-67.004433"
       x="-33.554497"
       id="rect1875"
       transform="scale(-1)" />
  </g>
</svg>
