<?xml version="1.0" encoding="UTF-8" standalone="no"?>
<!-- Created with Inkscape (http://www.inkscape.org/) -->

<svg
   xmlns:dc="http://purl.org/dc/elements/1.1/"
   xmlns:cc="http://creativecommons.org/ns#"
   xmlns:rdf="http://www.w3.org/1999/02/22-rdf-syntax-ns#"
   xmlns:svg="http://www.w3.org/2000/svg"
   xmlns="http://www.w3.org/2000/svg"
   xmlns:sodipodi="http://sodipodi.sourceforge.net/DTD/sodipodi-0.dtd"
   xmlns:inkscape="http://www.inkscape.org/namespaces/inkscape"
   width="380"
   height="380"
   viewBox="0 0 100.54167 100.54167"
   version="1.1"
   id="svg8"
   inkscape:version="0.92.2 (5c3e80d, 2017-08-06)"
   sodipodi:docname="LuciCell.svg">
  <defs
     id="defs2" />
  <sodipodi:namedview
     id="base"
     pagecolor="#ffffff"
     bordercolor="#666666"
     borderopacity="1.0"
     inkscape:pageopacity="0.0"
     inkscape:pageshadow="2"
     inkscape:zoom="1.5"
     inkscape:cx="104.23809"
     inkscape:cy="194.28572"
     inkscape:document-units="mm"
     inkscape:current-layer="layer1"
     showgrid="false"
     inkscape:window-width="1712"
     inkscape:window-height="980"
     inkscape:window-x="130"
     inkscape:window-y="83"
     inkscape:window-maximized="0"
     units="px" />
  <metadata
     id="metadata5">
    <rdf:RDF>
      <cc:Work
         rdf:about="">
        <dc:format>image/svg+xml</dc:format>
        <dc:type
           rdf:resource="http://purl.org/dc/dcmitype/StillImage" />
        <dc:title />
      </cc:Work>
    </rdf:RDF>
  </metadata>
  <g
     inkscape:label="Capa 1"
     inkscape:groupmode="layer"
     id="layer1"
     transform="translate(0,-196.45833)">
    <path
       style="fill:#000023;fill-opacity:1;stroke-width:0.06989738"
       d="M 0.22678578,196.50872 H 100.49127 V 296.94956 H 0.22678578 Z"
       id="rect815"
       inkscape:connector-curvature="0" />
    <g
       aria-label="audio"
       style="font-style:normal;font-weight:normal;font-size:10.58333301999999954px;line-height:1.25;font-family:sans-serif;letter-spacing:0px;word-spacing:0px;fill:#000000;fill-opacity:1;stroke:#0046ff;stroke-width:0.26458332;stroke-opacity:1"
       id="text929">
      <path
         d="m 8.5368691,199.12251 q -0.12065,0.0508 -0.244475,0.0667 -0.123825,0.0159 -0.24765,0.0254 -0.219075,0.0159 -0.3429,0.0984 -0.12065,0.0825 -0.12065,0.25083 0,0.0762 0.028575,0.13335 0.03175,0.054 0.079375,0.0921 0.0508,0.0349 0.1143,0.054 0.066675,0.0159 0.13335,0.0159 0.1143,0 0.22225,-0.0286 0.10795,-0.0286 0.1905,-0.0857 0.085725,-0.0603 0.136525,-0.14922 0.0508,-0.0921 0.0508,-0.2159 z m -0.320675,-0.0952 q 0.053975,-0.006 0.127,-0.0191 0.0762,-0.0127 0.123825,-0.0349 0.047625,-0.0222 0.05715,-0.073 0.0127,-0.054 0.0127,-0.0984 0,-0.14605 -0.09525,-0.23813 -0.092075,-0.0952 -0.314325,-0.0952 -0.098425,0 -0.180975,0.019 -0.08255,0.0159 -0.14605,0.0603 -0.060325,0.0413 -0.1016,0.1143 -0.0381,0.0699 -0.0508,0.1778 h -0.193675 q 0.00953,-0.14605 0.066675,-0.24765 0.05715,-0.10478 0.14605,-0.16828 0.092075,-0.0667 0.20955,-0.0953 0.12065,-0.0317 0.254,-0.0317 0.123825,0 0.231775,0.0286 0.111125,0.0254 0.1905,0.0857 0.08255,0.0572 0.127,0.15558 0.047625,0.0984 0.047625,0.2413 v 0.89535 q 0,0.11112 0.0381,0.14287 0.041275,0.0286 0.161925,-0.0159 v 0.14922 q -0.022225,0.006 -0.066675,0.019 -0.041275,0.0127 -0.08255,0.0127 -0.04445,0 -0.085725,-0.01 -0.047625,-0.006 -0.0762,-0.0286 -0.028575,-0.0254 -0.047625,-0.0572 -0.015875,-0.0349 -0.022225,-0.073 -0.00635,-0.0413 -0.00635,-0.0857 -0.12065,0.13335 -0.276225,0.2032 -0.155575,0.0699 -0.33655,0.0699 -0.10795,0 -0.20955,-0.0286 -0.098425,-0.0286 -0.174625,-0.0889 -0.0762,-0.0603 -0.12065,-0.14605 -0.04445,-0.0889 -0.04445,-0.20955 0,-0.4191 0.574675,-0.4953 z"
         style="font-style:normal;font-variant:normal;font-weight:300;font-stretch:normal;font-size:3.17499995000000013px;font-family:Helvetica;-inkscape-font-specification:'Helvetica, Light';font-variant-ligatures:normal;font-variant-caps:normal;font-variant-numeric:normal;font-feature-settings:normal;text-align:start;writing-mode:lr-tb;text-anchor:start;stroke:#0046ff;stroke-width:0.26458332;stroke-opacity:1"
         id="path998" />
      <path
         d="m 10.342303,198.34146 h 0.1905 v 1.64465 h -0.1905 v -0.2286 q -0.0381,0.0445 -0.08573,0.0921 -0.04763,0.0476 -0.111125,0.0889 -0.06033,0.0381 -0.142875,0.0635 -0.08255,0.0286 -0.1904999,0.0286 -0.1651,0 -0.276225,-0.0445 -0.111125,-0.0476 -0.180975,-0.13017 -0.066675,-0.0825 -0.098425,-0.1905 -0.028575,-0.11113 -0.028575,-0.2413 v -1.08268 h 0.1905 v 1.0795 q 0,0.21273 0.098425,0.32703 0.098425,0.11112 0.32385,0.11112 0.117475,0 0.2095499,-0.0444 0.09525,-0.0476 0.15875,-0.13017 0.0635,-0.0825 0.09843,-0.19685 0.03492,-0.1143 0.03492,-0.25083 z"
         style="font-style:normal;font-variant:normal;font-weight:300;font-stretch:normal;font-size:3.17499995000000013px;font-family:Helvetica;-inkscape-font-specification:'Helvetica, Light';font-variant-ligatures:normal;font-variant-caps:normal;font-variant-numeric:normal;font-feature-settings:normal;text-align:start;writing-mode:lr-tb;text-anchor:start;stroke:#0046ff;stroke-width:0.26458332;stroke-opacity:1"
         id="path1000" />
      <path
         d="m 12.265212,199.15744 q 0,-0.1397 -0.0381,-0.26353 -0.0381,-0.127 -0.111125,-0.21907 -0.06985,-0.0952 -0.174625,-0.14923 -0.1016,-0.0572 -0.231775,-0.0572 -0.149225,0 -0.257175,0.0603 -0.10795,0.0572 -0.1778,0.15875 -0.06985,0.1016 -0.1016,0.23812 -0.03175,0.13335 -0.0254,0.28893 0,0.15557 0.04127,0.27622 0.04445,0.11748 0.12065,0.20003 0.0762,0.0825 0.1778,0.127 0.1016,0.0413 0.22225,0.0413 0.13335,0 0.238125,-0.054 0.104775,-0.054 0.174625,-0.14605 0.06985,-0.0952 0.104775,-0.22225 0.0381,-0.13018 0.0381,-0.2794 z m 0,-1.45733 h 0.1905 v 2.286 h -0.1905 v -0.28892 h -0.0063 q -0.04128,0.0825 -0.10795,0.14605 -0.0635,0.0603 -0.142875,0.1016 -0.0762,0.0413 -0.15875,0.0635 -0.08255,0.0222 -0.161925,0.0222 -0.200025,0 -0.339725,-0.0667 -0.1397,-0.0667 -0.231775,-0.18098 -0.0889,-0.11747 -0.130175,-0.27622 -0.04128,-0.15875 -0.04128,-0.33973 0,-0.17145 0.04445,-0.3302 0.04445,-0.15875 0.13335,-0.27622 0.09208,-0.12065 0.2286,-0.1905 0.1397,-0.073 0.327025,-0.073 0.174625,0 0.333375,0.0794 0.161925,0.0762 0.254,0.2286 z"
         style="font-style:normal;font-variant:normal;font-weight:300;font-stretch:normal;font-size:3.17499995000000013px;font-family:Helvetica;-inkscape-font-specification:'Helvetica, Light';font-variant-ligatures:normal;font-variant-caps:normal;font-variant-numeric:normal;font-feature-settings:normal;text-align:start;writing-mode:lr-tb;text-anchor:start;stroke:#0046ff;stroke-width:0.26458332;stroke-opacity:1"
         id="path1002" />
      <path
         d="m 12.964754,199.98611 v -1.64465 h 0.1905 v 1.64465 z m -0.0095,-2.00342 v -0.28258 h 0.20955 v 0.28258 z"
         style="font-style:normal;font-variant:normal;font-weight:300;font-stretch:normal;font-size:3.17499995000000013px;font-family:Helvetica;-inkscape-font-specification:'Helvetica, Light';font-variant-ligatures:normal;font-variant-caps:normal;font-variant-numeric:normal;font-feature-settings:normal;text-align:start;writing-mode:lr-tb;text-anchor:start;stroke:#0046ff;stroke-width:0.26458332;stroke-opacity:1"
         id="path1004" />
      <path
         d="m 14.297162,200.03056 q -0.15875,-0.003 -0.29845,-0.0572 -0.136525,-0.054 -0.2413,-0.16192 -0.1016,-0.10795 -0.161925,-0.26988 -0.06033,-0.16192 -0.06033,-0.37782 0,-0.18098 0.04763,-0.33655 0.04763,-0.15875 0.142875,-0.27623 0.09525,-0.11747 0.238125,-0.18415 0.142875,-0.0699 0.333375,-0.0699 0.193675,0 0.33655,0.0699 0.142875,0.0667 0.238125,0.18415 0.09525,0.1143 0.1397,0.27305 0.04763,0.15875 0.04763,0.33973 0,0.19685 -0.05398,0.3556 -0.05397,0.15875 -0.155575,0.27305 -0.09843,0.1143 -0.2413,0.1778 -0.1397,0.0603 -0.31115,0.0603 z m 0.5588,-0.86677 q 0,-0.14605 -0.03175,-0.27305 -0.03175,-0.127 -0.09842,-0.21908 -0.06668,-0.0952 -0.17145,-0.14922 -0.104775,-0.054 -0.257175,-0.054 -0.149225,0 -0.257175,0.0603 -0.104775,0.0572 -0.17145,0.15557 -0.06668,0.0952 -0.09843,0.22225 -0.03175,0.12383 -0.03175,0.25718 0,0.1524 0.03492,0.28257 0.0381,0.127 0.10795,0.21908 0.06985,0.0921 0.174625,0.14287 0.104775,0.0508 0.2413,0.0508 0.149225,0 0.254,-0.0571 0.10795,-0.0603 0.174625,-0.15875 0.06668,-0.0984 0.09842,-0.22225 0.03175,-0.12382 0.03175,-0.25717 z"
         style="font-style:normal;font-variant:normal;font-weight:300;font-stretch:normal;font-size:3.17499995000000013px;font-family:Helvetica;-inkscape-font-specification:'Helvetica, Light';font-variant-ligatures:normal;font-variant-caps:normal;font-variant-numeric:normal;font-feature-settings:normal;text-align:start;writing-mode:lr-tb;text-anchor:start;stroke:#0046ff;stroke-width:0.26458332;stroke-opacity:1"
         id="path1006" />
    </g>
    <g
       aria-label="influence"
       style="font-style:normal;font-weight:normal;font-size:10.58333301999999954px;line-height:1.25;font-family:sans-serif;letter-spacing:0px;word-spacing:0px;fill:#000000;fill-opacity:1;stroke:#0046ff;stroke-width:0.26458332;stroke-opacity:1"
       id="text933">
      <path
         d="m 78.044673,199.98611 v -1.64465 h 0.1905 v 1.64465 z m -0.0095,-2.00342 v -0.28258 h 0.20955 v 0.28258 z"
         style="font-style:normal;font-variant:normal;font-weight:300;font-stretch:normal;font-size:3.17499995000000013px;font-family:Helvetica;-inkscape-font-specification:'Helvetica, Light';font-variant-ligatures:normal;font-variant-caps:normal;font-variant-numeric:normal;font-feature-settings:normal;text-align:start;writing-mode:lr-tb;text-anchor:start;stroke:#0046ff;stroke-width:0.26458332;stroke-opacity:1"
         id="path981" />
      <path
         d="m 78.913532,199.98611 h -0.1905 v -1.64465 h 0.1905 v 0.2286 q 0.1143,-0.12065 0.23495,-0.19685 0.123825,-0.0762 0.295275,-0.0762 0.1524,0 0.282575,0.054 0.130175,0.0508 0.219075,0.18097 0.06032,0.0889 0.06985,0.18415 0.0127,0.0921 0.0127,0.19368 v 1.07632 h -0.1905 v -1.07315 q 0,-0.22225 -0.09843,-0.33337 -0.09842,-0.11113 -0.327025,-0.11113 -0.0889,0 -0.161925,0.0286 -0.07303,0.0254 -0.13335,0.0699 -0.05715,0.0445 -0.09843,0.1016 -0.04127,0.0572 -0.0635,0.12065 -0.02858,0.0794 -0.03493,0.1524 -0.0063,0.073 -0.0063,0.15875 z"
         style="font-style:normal;font-variant:normal;font-weight:300;font-stretch:normal;font-size:3.17499995000000013px;font-family:Helvetica;-inkscape-font-specification:'Helvetica, Light';font-variant-ligatures:normal;font-variant-caps:normal;font-variant-numeric:normal;font-feature-settings:normal;text-align:start;writing-mode:lr-tb;text-anchor:start;stroke:#0046ff;stroke-width:0.26458332;stroke-opacity:1"
         id="path983" />
      <path
         d="m 80.303041,198.50021 v -0.15875 h 0.250825 v -0.26035 q 0,-0.19685 0.07937,-0.31115 0.07937,-0.1143 0.269875,-0.1143 0.04445,0 0.08255,0.003 0.0381,0.003 0.0762,0.01 v 0.17463 q -0.0635,-0.0159 -0.1143,-0.0159 -0.07303,0 -0.1143,0.0286 -0.04127,0.0254 -0.06032,0.0699 -0.01905,0.0444 -0.0254,0.1016 -0.0032,0.054 -0.0032,0.11112 v 0.2032 h 0.31115 v 0.15875 h -0.31115 v 1.4859 h -0.1905 v -1.4859 z m 1.139825,1.4859 v -2.286 h 0.1905 v 2.286 z"
         style="font-style:normal;font-variant:normal;font-weight:300;font-stretch:normal;font-size:3.17499995000000013px;font-family:Helvetica;-inkscape-font-specification:'Helvetica, Light';font-variant-ligatures:normal;font-variant-caps:normal;font-variant-numeric:normal;font-feature-settings:normal;text-align:start;writing-mode:lr-tb;text-anchor:start;stroke:#0046ff;stroke-width:0.26458332;stroke-opacity:1"
         id="path985" />
      <path
         d="m 83.192291,198.34146 h 0.1905 v 1.64465 h -0.1905 v -0.2286 q -0.0381,0.0445 -0.08572,0.0921 -0.04762,0.0476 -0.111125,0.0889 -0.06033,0.0381 -0.142875,0.0635 -0.08255,0.0286 -0.1905,0.0286 -0.1651,0 -0.276225,-0.0445 -0.111125,-0.0476 -0.180975,-0.13017 -0.06667,-0.0825 -0.09842,-0.1905 -0.02858,-0.11113 -0.02858,-0.2413 v -1.08268 h 0.1905 v 1.0795 q 0,0.21273 0.09843,0.32703 0.09842,0.11112 0.32385,0.11112 0.117475,0 0.20955,-0.0444 0.09525,-0.0476 0.15875,-0.13017 0.0635,-0.0825 0.09842,-0.19685 0.03493,-0.1143 0.03493,-0.25083 z"
         style="font-style:normal;font-variant:normal;font-weight:300;font-stretch:normal;font-size:3.17499995000000013px;font-family:Helvetica;-inkscape-font-specification:'Helvetica, Light';font-variant-ligatures:normal;font-variant-caps:normal;font-variant-numeric:normal;font-feature-settings:normal;text-align:start;writing-mode:lr-tb;text-anchor:start;stroke:#0046ff;stroke-width:0.26458332;stroke-opacity:1"
         id="path987" />
      <path
         d="m 85.035825,199.04949 q 0,-0.12065 -0.03493,-0.22543 -0.03175,-0.10795 -0.09843,-0.18415 -0.0635,-0.0794 -0.161925,-0.12382 -0.09843,-0.0476 -0.225425,-0.0476 -0.127,0 -0.225425,0.0476 -0.09525,0.0476 -0.1651,0.127 -0.06668,0.0794 -0.10795,0.18415 -0.04127,0.10477 -0.05397,0.22225 z m -1.07315,0.15875 q 0,0.13335 0.03493,0.254 0.03493,0.11747 0.1016,0.20637 0.06985,0.0857 0.174625,0.1397 0.104775,0.0508 0.2413,0.0508 0.187325,0 0.320675,-0.0984 0.13335,-0.0984 0.1778,-0.2794 h 0.212725 q -0.03493,0.11747 -0.09208,0.21907 -0.05715,0.0984 -0.142875,0.17463 -0.08573,0.073 -0.2032,0.1143 -0.117475,0.0413 -0.27305,0.0413 -0.19685,0 -0.339725,-0.0667 -0.142875,-0.0667 -0.23495,-0.18098 -0.09207,-0.11747 -0.136525,-0.27305 -0.04445,-0.15875 -0.04445,-0.33972 0,-0.18098 0.0508,-0.33973 0.05397,-0.15875 0.149225,-0.27622 0.09842,-0.12065 0.238125,-0.18733 0.1397,-0.0699 0.3175,-0.0699 0.339725,0 0.5334,0.23495 0.193675,0.23178 0.1905,0.67628 z"
         style="font-style:normal;font-variant:normal;font-weight:300;font-stretch:normal;font-size:3.17499995000000013px;font-family:Helvetica;-inkscape-font-specification:'Helvetica, Light';font-variant-ligatures:normal;font-variant-caps:normal;font-variant-numeric:normal;font-feature-settings:normal;text-align:start;writing-mode:lr-tb;text-anchor:start;stroke:#0046ff;stroke-width:0.26458332;stroke-opacity:1"
         id="path989" />
      <path
         d="m 85.803034,199.98611 h -0.1905 v -1.64465 h 0.1905 v 0.2286 q 0.1143,-0.12065 0.23495,-0.19685 0.123825,-0.0762 0.295275,-0.0762 0.1524,0 0.282575,0.054 0.130175,0.0508 0.219075,0.18097 0.06033,0.0889 0.06985,0.18415 0.0127,0.0921 0.0127,0.19368 v 1.07632 h -0.1905 v -1.07315 q 0,-0.22225 -0.09842,-0.33337 -0.09843,-0.11113 -0.327025,-0.11113 -0.0889,0 -0.161925,0.0286 -0.07303,0.0254 -0.13335,0.0699 -0.05715,0.0445 -0.09843,0.1016 -0.04127,0.0572 -0.0635,0.12065 -0.02857,0.0794 -0.03493,0.1524 -0.0063,0.073 -0.0063,0.15875 z"
         style="font-style:normal;font-variant:normal;font-weight:300;font-stretch:normal;font-size:3.17499995000000013px;font-family:Helvetica;-inkscape-font-specification:'Helvetica, Light';font-variant-ligatures:normal;font-variant-caps:normal;font-variant-numeric:normal;font-feature-settings:normal;text-align:start;writing-mode:lr-tb;text-anchor:start;stroke:#0046ff;stroke-width:0.26458332;stroke-opacity:1"
         id="path991" />
      <path
         d="m 88.545093,198.85899 q -0.0508,-0.18415 -0.174625,-0.28575 -0.123825,-0.10478 -0.314325,-0.10478 -0.14605,0 -0.250825,0.0603 -0.104775,0.0603 -0.17145,0.16192 -0.06668,0.0984 -0.09843,0.22543 -0.03175,0.12382 -0.03175,0.25082 0,0.13018 0.02858,0.254 0.03175,0.12383 0.09842,0.22225 0.06668,0.0984 0.17145,0.15875 0.104775,0.0571 0.254,0.0571 0.212725,0 0.339725,-0.11747 0.130175,-0.11748 0.1651,-0.32385 h 0.2032 q -0.0254,0.13652 -0.08255,0.25082 -0.05397,0.11113 -0.142875,0.19368 -0.08572,0.0794 -0.206375,0.12382 -0.12065,0.0445 -0.276225,0.0445 -0.19685,0 -0.339725,-0.0667 -0.142875,-0.0667 -0.23495,-0.18098 -0.09208,-0.11747 -0.136525,-0.27622 -0.04445,-0.15875 -0.04445,-0.33973 0,-0.17145 0.04762,-0.32702 0.0508,-0.15875 0.14605,-0.2794 0.09525,-0.12065 0.23495,-0.1905 0.142875,-0.073 0.327025,-0.073 0.28575,0 0.460375,0.13653 0.1778,0.13652 0.22225,0.42545 z"
         style="font-style:normal;font-variant:normal;font-weight:300;font-stretch:normal;font-size:3.17499995000000013px;font-family:Helvetica;-inkscape-font-specification:'Helvetica, Light';font-variant-ligatures:normal;font-variant-caps:normal;font-variant-numeric:normal;font-feature-settings:normal;text-align:start;writing-mode:lr-tb;text-anchor:start;stroke:#0046ff;stroke-width:0.26458332;stroke-opacity:1"
         id="path993" />
      <path
         d="m 90.337827,199.04949 q 0,-0.12065 -0.03493,-0.22543 -0.03175,-0.10795 -0.09843,-0.18415 -0.0635,-0.0794 -0.161925,-0.12382 -0.09843,-0.0476 -0.225425,-0.0476 -0.127,0 -0.225425,0.0476 -0.09525,0.0476 -0.1651,0.127 -0.06668,0.0794 -0.10795,0.18415 -0.04127,0.10477 -0.05397,0.22225 z m -1.07315,0.15875 q 0,0.13335 0.03492,0.254 0.03493,0.11747 0.1016,0.20637 0.06985,0.0857 0.174625,0.1397 0.104775,0.0508 0.2413,0.0508 0.187325,0 0.320675,-0.0984 0.13335,-0.0984 0.1778,-0.2794 h 0.212725 q -0.03493,0.11747 -0.09208,0.21907 -0.05715,0.0984 -0.142875,0.17463 -0.08573,0.073 -0.2032,0.1143 -0.117475,0.0413 -0.27305,0.0413 -0.19685,0 -0.339725,-0.0667 -0.142875,-0.0667 -0.23495,-0.18098 -0.09207,-0.11747 -0.136525,-0.27305 -0.04445,-0.15875 -0.04445,-0.33972 0,-0.18098 0.0508,-0.33973 0.05397,-0.15875 0.149225,-0.27622 0.09843,-0.12065 0.238125,-0.18733 0.1397,-0.0699 0.3175,-0.0699 0.339725,0 0.5334,0.23495 0.193675,0.23178 0.1905,0.67628 z"
         style="font-style:normal;font-variant:normal;font-weight:300;font-stretch:normal;font-size:3.17499995000000013px;font-family:Helvetica;-inkscape-font-specification:'Helvetica, Light';font-variant-ligatures:normal;font-variant-caps:normal;font-variant-numeric:normal;font-feature-settings:normal;text-align:start;writing-mode:lr-tb;text-anchor:start;stroke:#0046ff;stroke-width:0.26458332;stroke-opacity:1"
         id="path995" />
    </g>
    <g
       aria-label="frequency"
       style="font-style:normal;font-weight:normal;font-size:10.58333301999999954px;line-height:1.25;font-family:sans-serif;letter-spacing:0px;word-spacing:0px;fill:#000000;fill-opacity:1;stroke:#0046ff;stroke-width:0.26458332;stroke-opacity:1"
       id="text937">
      <path
         d="m 8.5301672,293.57382 v -0.15875 h 0.244475 v -0.26035 q 0,-0.19685 0.079375,-0.31115 0.079375,-0.1143 0.269875,-0.1143 0.04445,0 0.08255,0.003 0.0381,0.003 0.0762,0.01 v 0.17463 q -0.0635,-0.0159 -0.1143,-0.0159 -0.073025,0 -0.1143,0.0286 -0.041275,0.0254 -0.060325,0.0698 -0.01905,0.0445 -0.0254,0.1016 -0.00317,0.054 -0.00317,0.11112 v 0.2032 h 0.3175 v 0.15875 h -0.3175 v 1.4859 h -0.1905 v -1.4859 z"
         style="font-style:normal;font-variant:normal;font-weight:300;font-stretch:normal;font-size:3.17499995000000013px;font-family:Helvetica;-inkscape-font-specification:'Helvetica, Light';font-variant-ligatures:normal;font-variant-caps:normal;font-variant-numeric:normal;font-feature-settings:normal;text-align:start;writing-mode:lr-tb;text-anchor:start;stroke:#0046ff;stroke-width:0.26458332;stroke-opacity:1"
         id="path962" />
      <path
         d="m 9.7758586,295.05972 h -0.1905 v -1.64465 h 0.1905 v 0.30798 h 0.00635 q 0.079375,-0.19685 0.2032,-0.27305 0.1270004,-0.0794 0.3333754,-0.0794 v 0.20638 q -0.161925,-0.003 -0.2667,0.0508 -0.1047754,0.054 -0.1682754,0.14605 -0.060325,0.0921 -0.085725,0.21907 -0.022225,0.12383 -0.022225,0.26035 z"
         style="font-style:normal;font-variant:normal;font-weight:300;font-stretch:normal;font-size:3.17499995000000013px;font-family:Helvetica;-inkscape-font-specification:'Helvetica, Light';font-variant-ligatures:normal;font-variant-caps:normal;font-variant-numeric:normal;font-feature-settings:normal;text-align:start;writing-mode:lr-tb;text-anchor:start;stroke:#0046ff;stroke-width:0.26458332;stroke-opacity:1"
         id="path964" />
      <path
         d="m 11.764847,294.1231 q 0,-0.12065 -0.03492,-0.22543 -0.03175,-0.10795 -0.09843,-0.18415 -0.0635,-0.0794 -0.161925,-0.12382 -0.09842,-0.0476 -0.225425,-0.0476 -0.127,0 -0.225425,0.0476 -0.09525,0.0476 -0.1651,0.127 -0.06668,0.0794 -0.10795,0.18415 -0.04128,0.10477 -0.05398,0.22225 z m -1.07315,0.15875 q 0,0.13335 0.03493,0.254 0.03492,0.11747 0.1016,0.20637 0.06985,0.0857 0.174625,0.1397 0.104775,0.0508 0.2413,0.0508 0.187325,0 0.320675,-0.0984 0.13335,-0.0984 0.1778,-0.2794 h 0.212725 q -0.03492,0.11747 -0.09207,0.21907 -0.05715,0.0984 -0.142875,0.17463 -0.08573,0.073 -0.2032,0.1143 -0.117475,0.0413 -0.27305,0.0413 -0.19685,0 -0.339725,-0.0667 -0.142875,-0.0667 -0.23495,-0.18098 -0.09208,-0.11747 -0.136525,-0.27305 -0.04445,-0.15875 -0.04445,-0.33972 0,-0.18098 0.0508,-0.33973 0.05398,-0.15875 0.149225,-0.27622 0.09842,-0.12065 0.238125,-0.18733 0.1397,-0.0699 0.3175,-0.0699 0.339725,0 0.5334,0.23495 0.193675,0.23178 0.1905,0.67628 z"
         style="font-style:normal;font-variant:normal;font-weight:300;font-stretch:normal;font-size:3.17499995000000013px;font-family:Helvetica;-inkscape-font-specification:'Helvetica, Light';font-variant-ligatures:normal;font-variant-caps:normal;font-variant-numeric:normal;font-feature-settings:normal;text-align:start;writing-mode:lr-tb;text-anchor:start;stroke:#0046ff;stroke-width:0.26458332;stroke-opacity:1"
         id="path966" />
      <path
         d="m 13.611556,294.23105 q 0,-0.1397 -0.0381,-0.26353 -0.0381,-0.127 -0.111125,-0.21907 -0.06985,-0.0952 -0.174625,-0.14923 -0.1016,-0.0571 -0.231775,-0.0571 -0.149225,0 -0.257175,0.0603 -0.10795,0.0572 -0.1778,0.15875 -0.06985,0.1016 -0.1016,0.23812 -0.03175,0.13335 -0.0254,0.28893 0,0.15557 0.04127,0.27622 0.04445,0.11748 0.12065,0.20003 0.0762,0.0825 0.1778,0.127 0.1016,0.0413 0.22225,0.0413 0.13335,0 0.238125,-0.054 0.104775,-0.054 0.174625,-0.14605 0.06985,-0.0953 0.104775,-0.22225 0.0381,-0.13018 0.0381,-0.2794 z m 0,-0.81598 h 0.1905 v 2.29235 h -0.1905 v -0.91122 q -0.09207,0.1524 -0.254,0.23177 -0.15875,0.0762 -0.333375,0.0762 -0.187325,0 -0.327025,-0.0699 -0.136525,-0.073 -0.2286,-0.1905 -0.0889,-0.12065 -0.13335,-0.2794 -0.04445,-0.15875 -0.04445,-0.3302 0,-0.18097 0.04128,-0.33972 0.04127,-0.15875 0.130175,-0.27305 0.09207,-0.11748 0.231775,-0.18415 0.1397,-0.0667 0.339725,-0.0667 0.07937,0 0.161925,0.0222 0.08255,0.0222 0.15875,0.0635 0.07938,0.0413 0.142875,0.10477 0.06668,0.0635 0.10795,0.14288 h 0.0063 z"
         style="font-style:normal;font-variant:normal;font-weight:300;font-stretch:normal;font-size:3.17499995000000013px;font-family:Helvetica;-inkscape-font-specification:'Helvetica, Light';font-variant-ligatures:normal;font-variant-caps:normal;font-variant-numeric:normal;font-feature-settings:normal;text-align:start;writing-mode:lr-tb;text-anchor:start;stroke:#0046ff;stroke-width:0.26458332;stroke-opacity:1"
         id="path968" />
      <path
         d="m 15.396948,293.41507 h 0.1905 v 1.64465 h -0.1905 v -0.2286 q -0.0381,0.0444 -0.08573,0.0921 -0.04763,0.0476 -0.111125,0.0889 -0.06033,0.0381 -0.142875,0.0635 -0.08255,0.0286 -0.1905,0.0286 -0.1651,0 -0.276225,-0.0444 -0.111125,-0.0476 -0.180975,-0.13017 -0.06668,-0.0826 -0.09843,-0.1905 -0.02858,-0.11113 -0.02858,-0.2413 v -1.08268 h 0.1905 v 1.0795 q 0,0.21273 0.09843,0.32703 0.09843,0.11112 0.32385,0.11112 0.117475,0 0.20955,-0.0445 0.09525,-0.0476 0.15875,-0.13017 0.0635,-0.0826 0.09843,-0.19685 0.03492,-0.1143 0.03492,-0.25083 z"
         style="font-style:normal;font-variant:normal;font-weight:300;font-stretch:normal;font-size:3.17499995000000013px;font-family:Helvetica;-inkscape-font-specification:'Helvetica, Light';font-variant-ligatures:normal;font-variant-caps:normal;font-variant-numeric:normal;font-feature-settings:normal;text-align:start;writing-mode:lr-tb;text-anchor:start;stroke:#0046ff;stroke-width:0.26458332;stroke-opacity:1"
         id="path970" />
      <path
         d="m 17.240482,294.1231 q 0,-0.12065 -0.03493,-0.22543 -0.03175,-0.10795 -0.09842,-0.18415 -0.0635,-0.0794 -0.161925,-0.12382 -0.09842,-0.0476 -0.225425,-0.0476 -0.127,0 -0.225425,0.0476 -0.09525,0.0476 -0.1651,0.127 -0.06668,0.0794 -0.10795,0.18415 -0.04127,0.10477 -0.05398,0.22225 z m -1.07315,0.15875 q 0,0.13335 0.03493,0.254 0.03493,0.11747 0.1016,0.20637 0.06985,0.0857 0.174625,0.1397 0.104775,0.0508 0.2413,0.0508 0.187325,0 0.320675,-0.0984 0.13335,-0.0984 0.1778,-0.2794 h 0.212725 q -0.03493,0.11747 -0.09208,0.21907 -0.05715,0.0984 -0.142875,0.17463 -0.08573,0.073 -0.2032,0.1143 -0.117475,0.0413 -0.27305,0.0413 -0.19685,0 -0.339725,-0.0667 -0.142875,-0.0667 -0.23495,-0.18098 -0.09207,-0.11747 -0.136525,-0.27305 -0.04445,-0.15875 -0.04445,-0.33972 0,-0.18098 0.0508,-0.33973 0.05397,-0.15875 0.149225,-0.27622 0.09842,-0.12065 0.238125,-0.18733 0.1397,-0.0699 0.3175,-0.0699 0.339725,0 0.5334,0.23495 0.193675,0.23178 0.1905,0.67628 z"
         style="font-style:normal;font-variant:normal;font-weight:300;font-stretch:normal;font-size:3.17499995000000013px;font-family:Helvetica;-inkscape-font-specification:'Helvetica, Light';font-variant-ligatures:normal;font-variant-caps:normal;font-variant-numeric:normal;font-feature-settings:normal;text-align:start;writing-mode:lr-tb;text-anchor:start;stroke:#0046ff;stroke-width:0.26458332;stroke-opacity:1"
         id="path972" />
      <path
         d="m 18.007691,295.05972 h -0.1905 v -1.64465 h 0.1905 v 0.2286 q 0.1143,-0.12065 0.23495,-0.19685 0.123825,-0.0762 0.295275,-0.0762 0.1524,0 0.282575,0.054 0.130175,0.0508 0.219075,0.18097 0.06032,0.0889 0.06985,0.18415 0.0127,0.0921 0.0127,0.19368 v 1.07632 h -0.1905 v -1.07315 q 0,-0.22225 -0.09843,-0.33337 -0.09842,-0.11113 -0.327025,-0.11113 -0.0889,0 -0.161925,0.0286 -0.07303,0.0254 -0.13335,0.0698 -0.05715,0.0445 -0.09842,0.1016 -0.04128,0.0571 -0.0635,0.12065 -0.02858,0.0794 -0.03493,0.1524 -0.0063,0.073 -0.0063,0.15875 z"
         style="font-style:normal;font-variant:normal;font-weight:300;font-stretch:normal;font-size:3.17499995000000013px;font-family:Helvetica;-inkscape-font-specification:'Helvetica, Light';font-variant-ligatures:normal;font-variant-caps:normal;font-variant-numeric:normal;font-feature-settings:normal;text-align:start;writing-mode:lr-tb;text-anchor:start;stroke:#0046ff;stroke-width:0.26458332;stroke-opacity:1"
         id="path974" />
      <path
         d="m 20.74975,293.9326 q -0.0508,-0.18415 -0.174625,-0.28575 -0.123825,-0.10478 -0.314325,-0.10478 -0.14605,0 -0.250825,0.0603 -0.104775,0.0603 -0.17145,0.16192 -0.06668,0.0984 -0.09842,0.22543 -0.03175,0.12382 -0.03175,0.25082 0,0.13018 0.02858,0.254 0.03175,0.12383 0.09842,0.22225 0.06668,0.0984 0.17145,0.15875 0.104775,0.0572 0.254,0.0572 0.212725,0 0.339725,-0.11747 0.130175,-0.11748 0.1651,-0.32385 h 0.2032 q -0.0254,0.13652 -0.08255,0.25082 -0.05398,0.11113 -0.142875,0.19368 -0.08573,0.0794 -0.206375,0.12382 -0.12065,0.0444 -0.276225,0.0444 -0.19685,0 -0.339725,-0.0667 -0.142875,-0.0667 -0.23495,-0.18098 -0.09208,-0.11747 -0.136525,-0.27622 -0.04445,-0.15875 -0.04445,-0.33973 0,-0.17145 0.04763,-0.32702 0.0508,-0.15875 0.14605,-0.2794 0.09525,-0.12065 0.23495,-0.1905 0.142875,-0.073 0.327025,-0.073 0.28575,0 0.460375,0.13653 0.1778,0.13652 0.22225,0.42545 z"
         style="font-style:normal;font-variant:normal;font-weight:300;font-stretch:normal;font-size:3.17499995000000013px;font-family:Helvetica;-inkscape-font-specification:'Helvetica, Light';font-variant-ligatures:normal;font-variant-caps:normal;font-variant-numeric:normal;font-feature-settings:normal;text-align:start;writing-mode:lr-tb;text-anchor:start;stroke:#0046ff;stroke-width:0.26458332;stroke-opacity:1"
         id="path976" />
      <path
         d="m 21.339159,295.5074 q 0.0381,0.006 0.0762,0.0127 0.04128,0.006 0.08255,0.006 0.07937,0 0.130175,-0.0508 0.0508,-0.0508 0.08255,-0.12383 0.03493,-0.0698 0.05715,-0.14922 0.02223,-0.0762 0.0508,-0.13018 l -0.638175,-1.65735 h 0.212725 l 0.52705,1.41288 0.52705,-1.41288 h 0.206375 l -0.612775,1.62243 q -0.05715,0.15557 -0.111125,0.2794 -0.0508,0.12382 -0.111125,0.20955 -0.05715,0.0889 -0.130175,0.13335 -0.06985,0.0476 -0.168275,0.0476 -0.0508,0 -0.09842,-0.006 -0.04445,-0.006 -0.08255,-0.0159 z"
         style="font-style:normal;font-variant:normal;font-weight:300;font-stretch:normal;font-size:3.17499995000000013px;font-family:Helvetica;-inkscape-font-specification:'Helvetica, Light';font-variant-ligatures:normal;font-variant-caps:normal;font-variant-numeric:normal;font-feature-settings:normal;text-align:start;writing-mode:lr-tb;text-anchor:start;stroke:#0046ff;stroke-width:0.26458332;stroke-opacity:1"
         id="path978" />
    </g>
    <g
       aria-label="randomize"
       style="font-style:normal;font-weight:normal;font-size:10.58333301999999954px;line-height:1.25;font-family:sans-serif;letter-spacing:0px;word-spacing:0px;fill:#000000;fill-opacity:1;stroke:#0046ff;stroke-width:0.26458332;stroke-opacity:1"
       id="text941">
      <path
         d="m 77.815731,294.70694 h -0.169334 v -1.46191 h 0.169334 v 0.27375 h 0.0056 q 0.07056,-0.17497 0.180622,-0.24271 0.112889,-0.0706 0.296334,-0.0706 v 0.18344 q -0.143934,-0.003 -0.237067,0.0452 -0.09313,0.048 -0.149578,0.12982 -0.05362,0.0818 -0.0762,0.19473 -0.01976,0.11007 -0.01976,0.23143 z"
         style="font-style:normal;font-variant:normal;font-weight:300;font-stretch:normal;font-size:2.82222222999999994px;font-family:Helvetica;-inkscape-font-specification:'Helvetica, Light';font-variant-ligatures:normal;font-variant-caps:normal;font-variant-numeric:normal;font-feature-settings:normal;text-align:start;writing-mode:lr-tb;text-anchor:start;stroke:#0046ff;stroke-width:0.26458332;stroke-opacity:1"
         id="path943" />
      <path
         d="m 79.53173,293.9393 q -0.107245,0.0451 -0.217311,0.0593 -0.110067,0.0141 -0.220134,0.0226 -0.194733,0.0141 -0.3048,0.0875 -0.107244,0.0734 -0.107244,0.22295 0,0.0677 0.0254,0.11854 0.02822,0.048 0.07055,0.0818 0.04516,0.031 0.1016,0.048 0.05927,0.0141 0.118534,0.0141 0.1016,0 0.197555,-0.0254 0.09596,-0.0254 0.169334,-0.0762 0.0762,-0.0536 0.121355,-0.13264 0.04516,-0.0818 0.04516,-0.19191 z m -0.285045,-0.0847 q 0.04798,-0.006 0.112889,-0.0169 0.06773,-0.0113 0.110067,-0.031 0.04233,-0.0197 0.0508,-0.0649 0.01129,-0.048 0.01129,-0.0875 0,-0.12982 -0.08467,-0.21167 -0.08184,-0.0847 -0.2794,-0.0847 -0.08749,0 -0.160867,0.0169 -0.07338,0.0141 -0.129822,0.0536 -0.05362,0.0367 -0.09031,0.1016 -0.03387,0.0621 -0.04516,0.15805 h -0.172156 q 0.0085,-0.12982 0.05927,-0.22014 0.0508,-0.0931 0.129822,-0.14957 0.08184,-0.0593 0.186267,-0.0847 0.107244,-0.0282 0.225777,-0.0282 0.110067,0 0.206023,0.0254 0.09878,0.0226 0.169333,0.0762 0.07338,0.0508 0.112889,0.13829 0.04233,0.0875 0.04233,0.21449 v 0.79586 q 0,0.0988 0.03387,0.127 0.03669,0.0254 0.143933,-0.0141 v 0.13265 q -0.01975,0.006 -0.05927,0.0169 -0.03669,0.0113 -0.07338,0.0113 -0.03951,0 -0.0762,-0.008 -0.04233,-0.006 -0.06773,-0.0254 -0.0254,-0.0226 -0.04233,-0.0508 -0.01411,-0.031 -0.01976,-0.0649 -0.0056,-0.0367 -0.0056,-0.0762 -0.107244,0.11853 -0.245533,0.18062 -0.138289,0.0621 -0.299156,0.0621 -0.09596,0 -0.186267,-0.0254 -0.08749,-0.0254 -0.155222,-0.079 -0.06773,-0.0536 -0.107244,-0.12982 -0.03951,-0.079 -0.03951,-0.18627 0,-0.37253 0.510822,-0.44027 z"
         style="font-style:normal;font-variant:normal;font-weight:300;font-stretch:normal;font-size:2.82222222999999994px;font-family:Helvetica;-inkscape-font-specification:'Helvetica, Light';font-variant-ligatures:normal;font-variant-caps:normal;font-variant-numeric:normal;font-feature-settings:normal;text-align:start;writing-mode:lr-tb;text-anchor:start;stroke:#0046ff;stroke-width:0.26458332;stroke-opacity:1"
         id="path945" />
      <path
         d="M 80.315293,294.70694 H 80.14596 v -1.46191 h 0.169333 v 0.2032 q 0.1016,-0.10725 0.208845,-0.17498 0.110066,-0.0677 0.262466,-0.0677 0.135467,0 0.251178,0.048 0.115711,0.0452 0.194734,0.16086 0.05362,0.079 0.06209,0.16369 0.01129,0.0818 0.01129,0.17216 v 0.95673 H 81.13656 v -0.95391 q 0,-0.19756 -0.08749,-0.29633 -0.08749,-0.0988 -0.290689,-0.0988 -0.07902,0 -0.143933,0.0254 -0.06491,0.0226 -0.118533,0.0621 -0.0508,0.0395 -0.08749,0.0903 -0.03669,0.0508 -0.05644,0.10724 -0.0254,0.0706 -0.03104,0.13547 -0.0056,0.0649 -0.0056,0.14111 z"
         style="font-style:normal;font-variant:normal;font-weight:300;font-stretch:normal;font-size:2.82222222999999994px;font-family:Helvetica;-inkscape-font-specification:'Helvetica, Light';font-variant-ligatures:normal;font-variant-caps:normal;font-variant-numeric:normal;font-feature-settings:normal;text-align:start;writing-mode:lr-tb;text-anchor:start;stroke:#0046ff;stroke-width:0.26458332;stroke-opacity:1"
         id="path947" />
      <path
         d="m 82.845812,293.97034 q 0,-0.12418 -0.03387,-0.23424 -0.03387,-0.11289 -0.09878,-0.19474 -0.06209,-0.0847 -0.155222,-0.13264 -0.09031,-0.0508 -0.206023,-0.0508 -0.132644,0 -0.2286,0.0536 -0.09596,0.0508 -0.158044,0.14111 -0.06209,0.0903 -0.09031,0.21167 -0.02822,0.11853 -0.02258,0.25682 0,0.13829 0.03669,0.24553 0.03951,0.10443 0.107244,0.1778 0.06773,0.0734 0.158045,0.11289 0.09031,0.0367 0.197555,0.0367 0.118534,0 0.211667,-0.048 0.09313,-0.048 0.155222,-0.12982 0.06209,-0.0847 0.09313,-0.19755 0.03387,-0.11572 0.03387,-0.24836 z m 0,-1.2954 h 0.169334 v 2.032 h -0.169334 v -0.25682 h -0.0056 q -0.03669,0.0734 -0.09596,0.12982 -0.05644,0.0536 -0.127,0.0903 -0.06773,0.0367 -0.141111,0.0564 -0.07338,0.0197 -0.143933,0.0197 -0.1778,0 -0.301978,-0.0593 -0.124178,-0.0593 -0.206022,-0.16086 -0.07902,-0.10442 -0.115711,-0.24554 -0.03669,-0.14111 -0.03669,-0.30197 0,-0.1524 0.03951,-0.29351 0.03951,-0.14112 0.118533,-0.24554 0.08185,-0.10724 0.2032,-0.16933 0.124178,-0.0649 0.290689,-0.0649 0.155222,0 0.296333,0.0706 0.143934,0.0677 0.225778,0.2032 z"
         style="font-style:normal;font-variant:normal;font-weight:300;font-stretch:normal;font-size:2.82222222999999994px;font-family:Helvetica;-inkscape-font-specification:'Helvetica, Light';font-variant-ligatures:normal;font-variant-caps:normal;font-variant-numeric:normal;font-feature-settings:normal;text-align:start;writing-mode:lr-tb;text-anchor:start;stroke:#0046ff;stroke-width:0.26458332;stroke-opacity:1"
         id="path949" />
      <path
         d="m 84.023605,294.74645 q -0.141111,-0.003 -0.265289,-0.0508 -0.121356,-0.048 -0.214489,-0.14393 -0.09031,-0.096 -0.143933,-0.23989 -0.05362,-0.14393 -0.05362,-0.33585 0,-0.16086 0.04233,-0.29915 0.04233,-0.14111 0.127,-0.24553 0.08467,-0.10443 0.211666,-0.16369 0.127,-0.0621 0.296334,-0.0621 0.172155,0 0.299155,0.0621 0.127,0.0593 0.211667,0.16369 0.08467,0.1016 0.124178,0.24271 0.04233,0.14111 0.04233,0.30197 0,0.17498 -0.04798,0.31609 -0.04798,0.14111 -0.138289,0.24271 -0.08749,0.1016 -0.214488,0.15805 -0.124178,0.0536 -0.276578,0.0536 z m 0.496711,-0.77047 q 0,-0.12982 -0.02822,-0.24271 -0.02822,-0.11289 -0.08749,-0.19473 -0.05927,-0.0847 -0.1524,-0.13264 -0.09313,-0.048 -0.2286,-0.048 -0.132645,0 -0.2286,0.0536 -0.09313,0.0508 -0.1524,0.13829 -0.05927,0.0847 -0.08749,0.19755 -0.02822,0.11007 -0.02822,0.2286 0,0.13547 0.03104,0.25118 0.03387,0.11289 0.09596,0.19474 0.06209,0.0818 0.155222,0.127 0.09313,0.0451 0.214489,0.0451 0.132644,0 0.225778,-0.0508 0.09596,-0.0536 0.155222,-0.14111 0.05927,-0.0875 0.08749,-0.19756 0.02822,-0.11006 0.02822,-0.2286 z"
         style="font-style:normal;font-variant:normal;font-weight:300;font-stretch:normal;font-size:2.82222222999999994px;font-family:Helvetica;-inkscape-font-specification:'Helvetica, Light';font-variant-ligatures:normal;font-variant-caps:normal;font-variant-numeric:normal;font-feature-settings:normal;text-align:start;writing-mode:lr-tb;text-anchor:start;stroke:#0046ff;stroke-width:0.26458332;stroke-opacity:1"
         id="path951" />
      <path
         d="m 85.159946,294.70694 h -0.169333 v -1.46191 h 0.169333 v 0.22013 h 0.0056 q 0.06491,-0.127 0.186267,-0.19191 0.121355,-0.0677 0.265288,-0.0677 0.1016,0 0.172156,0.0226 0.07056,0.0226 0.118533,0.0621 0.0508,0.0367 0.08185,0.0875 0.03387,0.0508 0.05644,0.11007 0.07338,-0.14393 0.194734,-0.21167 0.124177,-0.0706 0.282222,-0.0706 0.149578,0 0.237066,0.0508 0.09031,0.048 0.138289,0.12982 0.04798,0.079 0.06209,0.18344 0.01693,0.10443 0.01693,0.21449 v 0.92287 h -0.169334 v -1.01036 q 0,-0.15804 -0.06773,-0.24835 -0.06491,-0.0903 -0.245533,-0.0903 -0.09313,0 -0.180623,0.0423 -0.08467,0.0395 -0.149577,0.12418 -0.02822,0.0367 -0.04798,0.0875 -0.01693,0.048 -0.02822,0.1016 -0.01129,0.0536 -0.01693,0.10724 -0.0028,0.0536 -0.0028,0.0988 v 0.7874 h -0.169333 v -1.01036 q 0,-0.15804 -0.06773,-0.24835 -0.06491,-0.0903 -0.245533,-0.0903 -0.09313,0 -0.180622,0.0423 -0.08467,0.0395 -0.149578,0.12418 -0.02822,0.0367 -0.04798,0.0875 -0.01693,0.048 -0.02822,0.1016 -0.01129,0.0536 -0.01693,0.10724 -0.0028,0.0536 -0.0028,0.0988 z"
         style="font-style:normal;font-variant:normal;font-weight:300;font-stretch:normal;font-size:2.82222222999999994px;font-family:Helvetica;-inkscape-font-specification:'Helvetica, Light';font-variant-ligatures:normal;font-variant-caps:normal;font-variant-numeric:normal;font-feature-settings:normal;text-align:start;writing-mode:lr-tb;text-anchor:start;stroke:#0046ff;stroke-width:0.26458332;stroke-opacity:1"
         id="path953" />
      <path
         d="m 87.386768,294.70694 v -1.46191 h 0.169333 v 1.46191 z m -0.0085,-1.78082 v -0.25118 h 0.186267 v 0.25118 z"
         style="font-style:normal;font-variant:normal;font-weight:300;font-stretch:normal;font-size:2.82222222999999994px;font-family:Helvetica;-inkscape-font-specification:'Helvetica, Light';font-variant-ligatures:normal;font-variant-caps:normal;font-variant-numeric:normal;font-feature-settings:normal;text-align:start;writing-mode:lr-tb;text-anchor:start;stroke:#0046ff;stroke-width:0.26458332;stroke-opacity:1"
         id="path955" />
      <path
         d="m 87.879687,294.70694 v -0.14958 l 0.970844,-1.17122 h -0.905933 v -0.14111 h 1.123244 v 0.14958 l -0.970844,1.17122 h 1.007533 v 0.14111 z"
         style="font-style:normal;font-variant:normal;font-weight:300;font-stretch:normal;font-size:2.82222222999999994px;font-family:Helvetica;-inkscape-font-specification:'Helvetica, Light';font-variant-ligatures:normal;font-variant-caps:normal;font-variant-numeric:normal;font-feature-settings:normal;text-align:start;writing-mode:lr-tb;text-anchor:start;stroke:#0046ff;stroke-width:0.26458332;stroke-opacity:1"
         id="path957" />
      <path
         d="m 90.459198,293.87438 q 0,-0.10724 -0.03105,-0.20037 -0.02822,-0.096 -0.08749,-0.16369 -0.05644,-0.0706 -0.143933,-0.11007 -0.08749,-0.0423 -0.200378,-0.0423 -0.112889,0 -0.200378,0.0423 -0.08467,0.0423 -0.146755,0.11289 -0.05927,0.0706 -0.09596,0.16369 -0.03669,0.0931 -0.04798,0.19755 z m -0.953912,0.14112 q 0,0.11853 0.03105,0.22577 0.03104,0.10443 0.09031,0.18345 0.06209,0.0762 0.155222,0.12418 0.09313,0.0451 0.214489,0.0451 0.166511,0 0.285045,-0.0875 0.118533,-0.0875 0.158044,-0.24835 h 0.189089 q -0.03104,0.10442 -0.08185,0.19473 -0.0508,0.0875 -0.127,0.15522 -0.0762,0.0649 -0.180622,0.1016 -0.104422,0.0367 -0.242711,0.0367 -0.174978,0 -0.301978,-0.0593 -0.127,-0.0593 -0.208844,-0.16086 -0.08185,-0.10442 -0.121356,-0.24271 -0.03951,-0.14111 -0.03951,-0.30198 0,-0.16087 0.04516,-0.30198 0.04798,-0.14111 0.132644,-0.24553 0.08749,-0.10725 0.211667,-0.16651 0.124178,-0.0621 0.282222,-0.0621 0.301978,0 0.474133,0.20884 0.172156,0.20602 0.169334,0.60114 z"
         style="font-style:normal;font-variant:normal;font-weight:300;font-stretch:normal;font-size:2.82222222999999994px;font-family:Helvetica;-inkscape-font-specification:'Helvetica, Light';font-variant-ligatures:normal;font-variant-caps:normal;font-variant-numeric:normal;font-feature-settings:normal;text-align:start;writing-mode:lr-tb;text-anchor:start;stroke:#0046ff;stroke-width:0.26458332;stroke-opacity:1"
         id="path959" />
    </g>
  </g>
</svg>
