<?xml version="1.0" encoding="UTF-8" standalone="no"?>
<!-- Created with Inkscape (http://www.inkscape.org/) -->

<svg
   xmlns:dc="http://purl.org/dc/elements/1.1/"
   xmlns:cc="http://creativecommons.org/ns#"
   xmlns:rdf="http://www.w3.org/1999/02/22-rdf-syntax-ns#"
   xmlns:svg="http://www.w3.org/2000/svg"
   xmlns="http://www.w3.org/2000/svg"
   xmlns:sodipodi="http://sodipodi.sourceforge.net/DTD/sodipodi-0.dtd"
   xmlns:inkscape="http://www.inkscape.org/namespaces/inkscape"
   width="380"
   height="380"
   viewBox="0 0 100.54167 100.54167"
   version="1.1"
   id="svg8"
   inkscape:version="0.92.2 (5c3e80d, 2017-08-06)"
   sodipodi:docname="LuciControlFREQ.svg">
  <defs
     id="defs2" />
  <sodipodi:namedview
     id="base"
     pagecolor="#ffffff"
     bordercolor="#666666"
     borderopacity="1.0"
     inkscape:pageopacity="0.0"
     inkscape:pageshadow="2"
     inkscape:zoom="1.51"
     inkscape:cx="21.265009"
     inkscape:cy="202.39087"
     inkscape:document-units="mm"
     inkscape:current-layer="layer1"
     showgrid="false"
     inkscape:window-width="1712"
     inkscape:window-height="980"
     inkscape:window-x="130"
     inkscape:window-y="61"
     inkscape:window-maximized="0"
     units="px" />
  <metadata
     id="metadata5">
    <rdf:RDF>
      <cc:Work
         rdf:about="">
        <dc:format>image/svg+xml</dc:format>
        <dc:type
           rdf:resource="http://purl.org/dc/dcmitype/StillImage" />
        <dc:title></dc:title>
      </cc:Work>
    </rdf:RDF>
  </metadata>
  <g
     inkscape:label="Capa 1"
     inkscape:groupmode="layer"
     id="layer1"
     transform="translate(0,-196.45833)">
    <path
       style="fill:#000023;fill-opacity:1;stroke-width:0.06989738"
       d="M 0.22678578,196.50872 H 100.49127 V 296.94956 H 0.22678578 Z"
       id="rect815"
       inkscape:connector-curvature="0" />
    <g
       aria-label="Frequency"
       style="font-style:normal;font-weight:normal;font-size:10.58333302px;line-height:1.25;font-family:sans-serif;letter-spacing:0px;word-spacing:0px;fill:#000000;fill-opacity:1;stroke:none;stroke-width:0.26458332"
       id="text3605">
      <path
         d="m 22.348202,199.96599 h -3.775825 v 1.52687 h 3.500217 v 1.5875 h -3.500217 v 3.50573 h -2.105642 v -8.2076 h 5.881467 z"
         style="font-style:normal;font-variant:normal;font-weight:bold;font-stretch:normal;font-size:11.28888893px;font-family:sans-serif;-inkscape-font-specification:'sans-serif, Bold';font-variant-ligatures:normal;font-variant-caps:normal;font-variant-numeric:normal;font-feature-settings:normal;text-align:start;writing-mode:lr-tb;text-anchor:start;fill:#00ffff;fill-opacity:1;stroke-width:0.26458332"
         id="path3607" />
      <path
         d="m 28.185572,202.28661 h -0.176389 q -0.12678,-0.0441 -0.407899,-0.0661 -0.28112,-0.0221 -0.468533,-0.0221 -0.424436,0 -0.749653,0.0551 -0.325217,0.0551 -0.700044,0.18741 v 4.14514 h -1.984375 v -6.19015 h 1.984375 v 0.90951 q 0.655947,-0.56224 1.141016,-0.74414 0.485069,-0.18742 0.892969,-0.18742 0.104731,0 0.237022,0.006 0.132292,0.006 0.231511,0.0165 z"
         style="font-style:normal;font-variant:normal;font-weight:bold;font-stretch:normal;font-size:11.28888893px;font-family:sans-serif;-inkscape-font-specification:'sans-serif, Bold';font-variant-ligatures:normal;font-variant-caps:normal;font-variant-numeric:normal;font-feature-settings:normal;text-align:start;writing-mode:lr-tb;text-anchor:start;fill:#00ffff;fill-opacity:1;stroke-width:0.26458332"
         id="path3609" />
      <path
         d="m 35.417516,203.85757 h -4.542014 q 0.0441,0.72761 0.551216,1.11346 0.51263,0.38585 1.504817,0.38585 0.628386,0 1.218186,-0.226 0.589801,-0.226 0.931554,-0.48507 h 0.220486 v 1.59301 q -0.672483,0.2701 -1.267795,0.39137 -0.595313,0.12126 -1.317405,0.12126 -1.863107,0 -2.855295,-0.83784 -0.992187,-0.83785 -0.992187,-2.38676 0,-1.53238 0.937066,-2.42535 0.942578,-0.89848 2.579687,-0.89848 1.51033,0 2.271007,0.76619 0.760677,0.76067 0.760677,2.19383 z m -1.97335,-1.16306 q -0.01654,-0.62287 -0.308681,-0.93707 -0.292144,-0.31419 -0.909505,-0.31419 -0.573264,0 -0.942578,0.29766 -0.369315,0.29765 -0.413412,0.9536 z"
         style="font-style:normal;font-variant:normal;font-weight:bold;font-stretch:normal;font-size:11.28888893px;font-family:sans-serif;-inkscape-font-specification:'sans-serif, Bold';font-variant-ligatures:normal;font-variant-caps:normal;font-variant-numeric:normal;font-feature-settings:normal;text-align:start;writing-mode:lr-tb;text-anchor:start;fill:#00ffff;fill-opacity:1;stroke-width:0.26458332"
         id="path3611" />
      <path
         d="m 42.836874,208.8571 h -1.984375 v -2.87735 q -0.48507,0.39137 -0.94809,0.58429 -0.463021,0.19293 -1.041797,0.19293 -1.135504,0 -1.813499,-0.87092 -0.672482,-0.87092 -0.672482,-2.34818 0,-0.78824 0.225998,-1.39458 0.23151,-0.61184 0.628385,-1.0473 0.374827,-0.41342 0.909506,-0.63941 0.534679,-0.23151 1.069357,-0.23151 0.523655,0 0.876433,0.12126 0.35829,0.11576 0.755165,0.32522 l 0.07166,-0.27561 h 1.923741 z m -1.984375,-3.97978 v -3.03719 q -0.209462,-0.0882 -0.440972,-0.12678 -0.231511,-0.0386 -0.424436,-0.0386 -0.782726,0 -1.174089,0.49058 -0.391363,0.48507 -0.391363,1.35048 0,0.90951 0.314193,1.32292 0.314193,0.4079 1.008724,0.4079 0.270096,0 0.573264,-0.0992 0.303168,-0.10473 0.534679,-0.2701 z"
         style="font-style:normal;font-variant:normal;font-weight:bold;font-stretch:normal;font-size:11.28888893px;font-family:sans-serif;-inkscape-font-specification:'sans-serif, Bold';font-variant-ligatures:normal;font-variant-caps:normal;font-variant-numeric:normal;font-feature-settings:normal;text-align:start;writing-mode:lr-tb;text-anchor:start;fill:#00ffff;fill-opacity:1;stroke-width:0.26458332"
         id="path3613" />
      <path
         d="m 50.879104,206.58609 h -1.984375 v -0.68351 q -0.551215,0.41893 -1.008724,0.63941 -0.457509,0.21498 -1.091406,0.21498 -1.025261,0 -1.581988,-0.5898 -0.551215,-0.5898 -0.551215,-1.74184 v -4.02939 h 1.995399 v 3.07027 q 0,0.46853 0.02756,0.78273 0.03307,0.30868 0.143316,0.51263 0.104731,0.20395 0.314192,0.29765 0.214974,0.0937 0.595313,0.0937 0.253559,0 0.56224,-0.0937 0.30868,-0.0937 0.595312,-0.2756 v -4.38768 h 1.984375 z"
         style="font-style:normal;font-variant:normal;font-weight:bold;font-stretch:normal;font-size:11.28888893px;font-family:sans-serif;-inkscape-font-specification:'sans-serif, Bold';font-variant-ligatures:normal;font-variant-caps:normal;font-variant-numeric:normal;font-feature-settings:normal;text-align:start;writing-mode:lr-tb;text-anchor:start;fill:#00ffff;fill-opacity:1;stroke-width:0.26458332"
         id="path3615" />
      <path
         d="m 58.855189,203.85757 h -4.542014 q 0.0441,0.72761 0.551215,1.11346 0.512631,0.38585 1.504818,0.38585 0.628385,0 1.218186,-0.226 0.5898,-0.226 0.931554,-0.48507 h 0.220486 v 1.59301 q -0.672483,0.2701 -1.267795,0.39137 -0.595313,0.12126 -1.317405,0.12126 -1.863108,0 -2.855295,-0.83784 -0.992188,-0.83785 -0.992188,-2.38676 0,-1.53238 0.937066,-2.42535 0.942579,-0.89848 2.579688,-0.89848 1.51033,0 2.271007,0.76619 0.760677,0.76067 0.760677,2.19383 z m -1.973351,-1.16306 q -0.01654,-0.62287 -0.30868,-0.93707 -0.292144,-0.31419 -0.909506,-0.31419 -0.573263,0 -0.942578,0.29766 -0.369314,0.29765 -0.413411,0.9536 z"
         style="font-style:normal;font-variant:normal;font-weight:bold;font-stretch:normal;font-size:11.28888893px;font-family:sans-serif;-inkscape-font-specification:'sans-serif, Bold';font-variant-ligatures:normal;font-variant-caps:normal;font-variant-numeric:normal;font-feature-settings:normal;text-align:start;writing-mode:lr-tb;text-anchor:start;fill:#00ffff;fill-opacity:1;stroke-width:0.26458332"
         id="path3617" />
      <path
         d="m 66.472985,206.58609 h -1.995399 v -3.07027 q 0,-0.37483 -0.03858,-0.74414 -0.03859,-0.37483 -0.132292,-0.55121 -0.110243,-0.20395 -0.325217,-0.29766 -0.209462,-0.0937 -0.5898,-0.0937 -0.270096,0 -0.551216,0.0882 -0.275607,0.0882 -0.600824,0.28112 v 4.38767 h -1.984375 v -6.19015 h 1.984375 v 0.68351 q 0.529166,-0.41341 1.014236,-0.6339 0.490581,-0.22048 1.085894,-0.22048 1.003212,0 1.565451,0.58428 0.567752,0.58429 0.567752,1.74736 z"
         style="font-style:normal;font-variant:normal;font-weight:bold;font-stretch:normal;font-size:11.28888893px;font-family:sans-serif;-inkscape-font-specification:'sans-serif, Bold';font-variant-ligatures:normal;font-variant-caps:normal;font-variant-numeric:normal;font-feature-settings:normal;text-align:start;writing-mode:lr-tb;text-anchor:start;fill:#00ffff;fill-opacity:1;stroke-width:0.26458332"
         id="path3619" />
      <path
         d="m 71.527627,206.75145 q -0.810287,0 -1.482769,-0.19292 -0.666971,-0.19293 -1.163064,-0.59531 -0.490582,-0.40239 -0.760678,-1.01424 -0.270095,-0.61185 -0.270095,-1.43316 0,-0.86541 0.286632,-1.49379 0.292144,-0.62839 0.810286,-1.0418 0.501606,-0.39136 1.157552,-0.57326 0.655947,-0.1819 1.361502,-0.1819 0.633898,0 1.168577,0.1378 0.534678,0.1378 0.997699,0.35829 v 1.69223 h -0.28112 q -0.115755,-0.0992 -0.281119,-0.23151 -0.159853,-0.13229 -0.396875,-0.25907 -0.225999,-0.12127 -0.496094,-0.19844 -0.270096,-0.0827 -0.628385,-0.0827 -0.79375,0 -1.223698,0.50712 -0.424436,0.5016 -0.424436,1.36701 0,0.89297 0.43546,1.35599 0.440972,0.46302 1.245746,0.46302 0.374827,0 0.672483,-0.0827 0.303168,-0.0882 0.501606,-0.20395 0.187413,-0.11024 0.330729,-0.23151 0.143316,-0.12127 0.264583,-0.23702 h 0.28112 v 1.69223 q -0.468533,0.22048 -0.981163,0.34726 -0.507118,0.13229 -1.124479,0.13229 z"
         style="font-style:normal;font-variant:normal;font-weight:bold;font-stretch:normal;font-size:11.28888893px;font-family:sans-serif;-inkscape-font-specification:'sans-serif, Bold';font-variant-ligatures:normal;font-variant-caps:normal;font-variant-numeric:normal;font-feature-settings:normal;text-align:start;writing-mode:lr-tb;text-anchor:start;fill:#00ffff;fill-opacity:1;stroke-width:0.26458332"
         id="path3621" />
      <path
         d="m 77.734314,204.39777 1.411111,-4.00183 h 2.039496 l -3.439583,8.46116 h -2.149739 l 0.981163,-2.31511 -2.408811,-6.14605 h 2.083594 z"
         style="font-style:normal;font-variant:normal;font-weight:bold;font-stretch:normal;font-size:11.28888893px;font-family:sans-serif;-inkscape-font-specification:'sans-serif, Bold';font-variant-ligatures:normal;font-variant-caps:normal;font-variant-numeric:normal;font-feature-settings:normal;text-align:start;writing-mode:lr-tb;text-anchor:start;fill:#00ffff;fill-opacity:1;stroke-width:0.26458332"
         id="path3623" />
    </g>
  </g>
</svg>
