<?xml version="1.0" encoding="UTF-8" standalone="no"?>
<!-- Created with Inkscape (http://www.inkscape.org/) -->

<svg
   xmlns:dc="http://purl.org/dc/elements/1.1/"
   xmlns:cc="http://creativecommons.org/ns#"
   xmlns:rdf="http://www.w3.org/1999/02/22-rdf-syntax-ns#"
   xmlns:svg="http://www.w3.org/2000/svg"
   xmlns="http://www.w3.org/2000/svg"
   xmlns:sodipodi="http://sodipodi.sourceforge.net/DTD/sodipodi-0.dtd"
   xmlns:inkscape="http://www.inkscape.org/namespaces/inkscape"
   width="380"
   height="380"
   viewBox="0 0 100.54167 100.54167"
   version="1.1"
   id="svg8"
   inkscape:version="0.92.2 (5c3e80d, 2017-08-06)"
   sodipodi:docname="LuciControlINFcoarse.svg">
  <defs
     id="defs2" />
  <sodipodi:namedview
     id="base"
     pagecolor="#ffffff"
     bordercolor="#666666"
     borderopacity="1.0"
     inkscape:pageopacity="0.0"
     inkscape:pageshadow="2"
     inkscape:zoom="1.51"
     inkscape:cx="21.265009"
     inkscape:cy="202.39087"
     inkscape:document-units="mm"
     inkscape:current-layer="layer1"
     showgrid="false"
     inkscape:window-width="1712"
     inkscape:window-height="980"
     inkscape:window-x="130"
     inkscape:window-y="39"
     inkscape:window-maximized="0"
     units="px" />
  <metadata
     id="metadata5">
    <rdf:RDF>
      <cc:Work
         rdf:about="">
        <dc:format>image/svg+xml</dc:format>
        <dc:type
           rdf:resource="http://purl.org/dc/dcmitype/StillImage" />
        <dc:title />
      </cc:Work>
    </rdf:RDF>
  </metadata>
  <g
     inkscape:label="Capa 1"
     inkscape:groupmode="layer"
     id="layer1"
     transform="translate(0,-196.45833)">
    <path
       style="fill:#000023;fill-opacity:1;stroke-width:0.06989738"
       d="M 0.22678578,196.50872 H 100.49127 V 296.94956 H 0.22678578 Z"
       id="rect815"
       inkscape:connector-curvature="0" />
    <g
       aria-label="Influence"
       style="font-style:normal;font-weight:normal;font-size:10.58333302px;line-height:1.25;font-family:sans-serif;letter-spacing:0px;word-spacing:0px;fill:#000000;fill-opacity:1;stroke:none;stroke-width:0.26458332"
       id="text3647">
      <path
         d="m 25.452365,206.58609 h -4.806597 v -1.45521 h 1.344966 v -5.29718 h -1.344966 v -1.45521 h 4.806597 v 1.45521 H 24.1074 v 5.29718 h 1.344965 z"
         style="font-style:normal;font-variant:normal;font-weight:bold;font-stretch:normal;font-size:11.28888893px;font-family:sans-serif;-inkscape-font-specification:'sans-serif, Bold';font-variant-ligatures:normal;font-variant-caps:normal;font-variant-numeric:normal;font-feature-settings:normal;text-align:start;writing-mode:lr-tb;text-anchor:start;fill:#00ffff;fill-opacity:1;stroke-width:0.26458332"
         id="path3649" />
      <path
         d="M 33.296159,206.58609 H 31.30076 v -3.07027 q 0,-0.37483 -0.03859,-0.74414 -0.03859,-0.37483 -0.132292,-0.55121 -0.110243,-0.20395 -0.325217,-0.29766 -0.209462,-0.0937 -0.5898,-0.0937 -0.270096,0 -0.551216,0.0882 -0.275607,0.0882 -0.600824,0.28112 v 4.38767 h -1.984375 v -6.19015 h 1.984375 v 0.68351 q 0.529166,-0.41341 1.014236,-0.6339 0.490581,-0.22048 1.085894,-0.22048 1.003212,0 1.565451,0.58428 0.567752,0.58429 0.567752,1.74736 z"
         style="font-style:normal;font-variant:normal;font-weight:bold;font-stretch:normal;font-size:11.28888893px;font-family:sans-serif;-inkscape-font-specification:'sans-serif, Bold';font-variant-ligatures:normal;font-variant-caps:normal;font-variant-numeric:normal;font-feature-settings:normal;text-align:start;writing-mode:lr-tb;text-anchor:start;fill:#00ffff;fill-opacity:1;stroke-width:0.26458332"
         id="path3651" />
      <path
         d="m 39.13904,199.46439 h -0.148828 q -0.132292,-0.0386 -0.347266,-0.0882 -0.209461,-0.0496 -0.451996,-0.0496 -0.584288,0 -0.79375,0.20947 -0.20395,0.20946 -0.20395,0.81028 v 0.0496 h 1.532379 v 1.34497 h -1.466233 v 4.84518 h -1.984375 v -4.84518 H 34.42615 v -1.34497 h 0.848871 v -0.17087 q 0,-1.13551 0.600825,-1.70326 0.606337,-0.56775 1.830034,-0.56775 0.440973,0 0.799263,0.0331 0.35829,0.0276 0.633897,0.0772 z"
         style="font-style:normal;font-variant:normal;font-weight:bold;font-stretch:normal;font-size:11.28888893px;font-family:sans-serif;-inkscape-font-specification:'sans-serif, Bold';font-variant-ligatures:normal;font-variant-caps:normal;font-variant-numeric:normal;font-feature-settings:normal;text-align:start;writing-mode:lr-tb;text-anchor:start;fill:#00ffff;fill-opacity:1;stroke-width:0.26458332"
         id="path3653" />
      <path
         d="m 41.873069,206.58609 h -1.984375 v -8.57691 h 1.984375 z"
         style="font-style:normal;font-variant:normal;font-weight:bold;font-stretch:normal;font-size:11.28888893px;font-family:sans-serif;-inkscape-font-specification:'sans-serif, Bold';font-variant-ligatures:normal;font-variant-caps:normal;font-variant-numeric:normal;font-feature-settings:normal;text-align:start;writing-mode:lr-tb;text-anchor:start;fill:#00ffff;fill-opacity:1;stroke-width:0.26458332"
         id="path3655" />
      <path
         d="m 49.9153,206.58609 h -1.984375 v -0.68351 q -0.551215,0.41893 -1.008724,0.63941 -0.457509,0.21498 -1.091406,0.21498 -1.025261,0 -1.581988,-0.5898 -0.551216,-0.5898 -0.551216,-1.74184 v -4.02939 h 1.9954 v 3.07027 q 0,0.46853 0.02756,0.78273 0.03307,0.30868 0.143316,0.51263 0.10473,0.20395 0.314192,0.29765 0.214974,0.0937 0.595313,0.0937 0.253559,0 0.562239,-0.0937 0.308681,-0.0937 0.595313,-0.2756 v -4.38768 H 49.9153 Z"
         style="font-style:normal;font-variant:normal;font-weight:bold;font-stretch:normal;font-size:11.28888893px;font-family:sans-serif;-inkscape-font-specification:'sans-serif, Bold';font-variant-ligatures:normal;font-variant-caps:normal;font-variant-numeric:normal;font-feature-settings:normal;text-align:start;writing-mode:lr-tb;text-anchor:start;fill:#00ffff;fill-opacity:1;stroke-width:0.26458332"
         id="path3657" />
      <path
         d="m 57.891385,203.85757 h -4.542014 q 0.0441,0.72761 0.551215,1.11346 0.51263,0.38585 1.504818,0.38585 0.628385,0 1.218186,-0.226 0.5898,-0.226 0.931553,-0.48507 h 0.220486 v 1.59301 q -0.672482,0.2701 -1.267795,0.39137 -0.595312,0.12126 -1.317404,0.12126 -1.863108,0 -2.855295,-0.83784 -0.992188,-0.83785 -0.992188,-2.38676 0,-1.53238 0.937066,-2.42535 0.942578,-0.89848 2.579688,-0.89848 1.51033,0 2.271007,0.76619 0.760677,0.76067 0.760677,2.19383 z m -1.973351,-1.16306 q -0.01654,-0.62287 -0.308681,-0.93707 -0.292144,-0.31419 -0.909505,-0.31419 -0.573264,0 -0.942578,0.29766 -0.369314,0.29765 -0.413411,0.9536 z"
         style="font-style:normal;font-variant:normal;font-weight:bold;font-stretch:normal;font-size:11.28888893px;font-family:sans-serif;-inkscape-font-specification:'sans-serif, Bold';font-variant-ligatures:normal;font-variant-caps:normal;font-variant-numeric:normal;font-feature-settings:normal;text-align:start;writing-mode:lr-tb;text-anchor:start;fill:#00ffff;fill-opacity:1;stroke-width:0.26458332"
         id="path3659" />
      <path
         d="m 65.509179,206.58609 h -1.9954 v -3.07027 q 0,-0.37483 -0.03858,-0.74414 -0.03859,-0.37483 -0.132291,-0.55121 -0.110243,-0.20395 -0.325217,-0.29766 -0.209462,-0.0937 -0.589801,-0.0937 -0.270095,0 -0.551215,0.0882 -0.275608,0.0882 -0.600825,0.28112 v 4.38767 H 59.29147 v -6.19015 h 1.984375 v 0.68351 q 0.529167,-0.41341 1.014237,-0.6339 0.490581,-0.22048 1.085894,-0.22048 1.003211,0 1.565451,0.58428 0.567752,0.58429 0.567752,1.74736 z"
         style="font-style:normal;font-variant:normal;font-weight:bold;font-stretch:normal;font-size:11.28888893px;font-family:sans-serif;-inkscape-font-specification:'sans-serif, Bold';font-variant-ligatures:normal;font-variant-caps:normal;font-variant-numeric:normal;font-feature-settings:normal;text-align:start;writing-mode:lr-tb;text-anchor:start;fill:#00ffff;fill-opacity:1;stroke-width:0.26458332"
         id="path3661" />
      <path
         d="m 70.563825,206.75145 q -0.810287,0 -1.48277,-0.19292 -0.66697,-0.19293 -1.163064,-0.59531 -0.490581,-0.40239 -0.760677,-1.01424 -0.270095,-0.61185 -0.270095,-1.43316 0,-0.86541 0.286632,-1.49379 0.292144,-0.62839 0.810286,-1.0418 0.501606,-0.39136 1.157552,-0.57326 0.655946,-0.1819 1.361502,-0.1819 0.633897,0 1.168576,0.1378 0.534679,0.1378 0.9977,0.35829 v 1.69223 h -0.28112 q -0.115755,-0.0992 -0.28112,-0.23151 -0.159852,-0.13229 -0.396875,-0.25907 -0.225998,-0.12127 -0.496093,-0.19844 -0.270096,-0.0827 -0.628386,-0.0827 -0.79375,0 -1.223698,0.50712 -0.424436,0.5016 -0.424436,1.36701 0,0.89297 0.435461,1.35599 0.440972,0.46302 1.245746,0.46302 0.374826,0 0.672483,-0.0827 0.303168,-0.0882 0.501606,-0.20395 0.187413,-0.11024 0.330729,-0.23151 0.143316,-0.12127 0.264583,-0.23702 h 0.28112 v 1.69223 q -0.468533,0.22048 -0.981163,0.34726 -0.507118,0.13229 -1.124479,0.13229 z"
         style="font-style:normal;font-variant:normal;font-weight:bold;font-stretch:normal;font-size:11.28888893px;font-family:sans-serif;-inkscape-font-specification:'sans-serif, Bold';font-variant-ligatures:normal;font-variant-caps:normal;font-variant-numeric:normal;font-feature-settings:normal;text-align:start;writing-mode:lr-tb;text-anchor:start;fill:#00ffff;fill-opacity:1;stroke-width:0.26458332"
         id="path3663" />
      <path
         d="m 80.072287,203.85757 h -4.542014 q 0.0441,0.72761 0.551216,1.11346 0.51263,0.38585 1.504817,0.38585 0.628386,0 1.218186,-0.226 0.5898,-0.226 0.931554,-0.48507 h 0.220486 v 1.59301 q -0.672483,0.2701 -1.267795,0.39137 -0.595313,0.12126 -1.317405,0.12126 -1.863107,0 -2.855295,-0.83784 -0.992187,-0.83785 -0.992187,-2.38676 0,-1.53238 0.937066,-2.42535 0.942578,-0.89848 2.579687,-0.89848 1.51033,0 2.271007,0.76619 0.760677,0.76067 0.760677,2.19383 z m -1.973351,-1.16306 q -0.01654,-0.62287 -0.30868,-0.93707 -0.292144,-0.31419 -0.909505,-0.31419 -0.573264,0 -0.942578,0.29766 -0.369315,0.29765 -0.413412,0.9536 z"
         style="font-style:normal;font-variant:normal;font-weight:bold;font-stretch:normal;font-size:11.28888893px;font-family:sans-serif;-inkscape-font-specification:'sans-serif, Bold';font-variant-ligatures:normal;font-variant-caps:normal;font-variant-numeric:normal;font-feature-settings:normal;text-align:start;writing-mode:lr-tb;text-anchor:start;fill:#00ffff;fill-opacity:1;stroke-width:0.26458332"
         id="path3665" />
    </g>
    <g
       aria-label="min"
       style="font-style:normal;font-weight:normal;font-size:10.58333302px;line-height:1.25;font-family:sans-serif;letter-spacing:0px;word-spacing:0px;fill:#000000;fill-opacity:1;stroke:none;stroke-width:0.26458332"
       id="text957"
       transform="translate(2.1166667,-2.1166667)">
      <path
         d="m 11.07541,294.40329 h -0.971517 v -3.28662 q 0,-0.37207 -0.03617,-0.7183 -0.03101,-0.34624 -0.1395262,-0.55294 -0.1188557,-0.22221 -0.3410644,-0.3359 -0.2222086,-0.11369 -0.6407877,-0.11369 -0.4082438,0 -0.8164876,0.20671 -0.4082438,0.20154 -0.8164877,0.51676 0.015503,0.11886 0.025838,0.27906 0.010335,0.15503 0.010335,0.31005 v 3.69487 H 6.3780221 v -3.28662 q 0,-0.38241 -0.036174,-0.72347 -0.031006,-0.34623 -0.1395264,-0.55294 -0.1188558,-0.22221 -0.3410645,-0.33073 -0.2222086,-0.11369 -0.6407877,-0.11369 -0.3979085,0 -0.8009847,0.19637 -0.3979085,0.19637 -0.795817,0.50127 v 4.30981 H 2.6521514 v -5.77226 h 0.9715169 v 0.64079 q 0.4547526,-0.37724 0.9043375,-0.58911 0.4547526,-0.21187 0.9663493,-0.21187 0.5891113,0 0.9973551,0.24804 0.4134114,0.24805 0.6149495,0.6873 0.5891113,-0.49609 1.0748698,-0.71314 0.4857584,-0.2222 1.0386962,-0.2222 0.9508463,0 1.4004313,0.57877 0.454753,0.57361 0.454753,1.60714 z"
         style="fill:#00ffff;fill-opacity:1;stroke-width:0.26458332"
         id="path970"
         inkscape:connector-curvature="0" />
      <path
         d="M 13.989961,287.66468 H 12.89442 v -1.00769 h 1.095541 z m -0.06201,6.73861 h -0.971517 v -5.77226 h 0.971517 z"
         style="fill:#00ffff;fill-opacity:1;stroke-width:0.26458332"
         id="path972"
         inkscape:connector-curvature="0" />
      <path
         d="m 20.687226,294.40329 h -0.971517 v -3.28662 q 0,-0.39791 -0.04651,-0.74414 -0.04651,-0.3514 -0.170532,-0.54777 -0.129191,-0.21704 -0.37207,-0.3204 -0.242879,-0.10852 -0.630453,-0.10852 -0.397908,0 -0.83199,0.19637 -0.434082,0.19637 -0.831991,0.50127 v 4.30981 h -0.971517 v -5.77226 h 0.971517 v 0.64079 q 0.454753,-0.37724 0.940511,-0.58911 0.485759,-0.21187 0.997356,-0.21187 0.935343,0 1.426269,0.56327 0.490926,0.56327 0.490926,1.62264 z"
         style="fill:#00ffff;fill-opacity:1;stroke-width:0.26458332"
         id="path974"
         inkscape:connector-curvature="0" />
    </g>
    <g
       aria-label="max"
       style="font-style:normal;font-weight:normal;font-size:10.58333302px;line-height:1.25;font-family:sans-serif;letter-spacing:0px;word-spacing:0px;fill:#000000;fill-opacity:1;stroke:none;stroke-width:0.26458332"
       id="text961"
       transform="translate(-2.1166667,-2.6458334)">
      <path
         d="m 85.687957,294.40329 h -0.971516 v -3.28662 q 0,-0.37207 -0.03617,-0.7183 -0.03101,-0.34624 -0.139526,-0.55294 -0.118856,-0.22221 -0.341065,-0.3359 -0.222208,-0.11369 -0.640787,-0.11369 -0.408244,0 -0.816488,0.20671 -0.408244,0.20154 -0.816488,0.51676 0.0155,0.11886 0.02584,0.27906 0.01033,0.15503 0.01033,0.31005 v 3.69487 H 80.99057 v -3.28662 q 0,-0.38241 -0.03617,-0.72347 -0.03101,-0.34623 -0.139526,-0.55294 -0.118856,-0.22221 -0.341064,-0.33073 -0.222209,-0.11369 -0.640788,-0.11369 -0.397909,0 -0.800985,0.19637 -0.397908,0.19637 -0.795817,0.50127 v 4.30981 h -0.971517 v -5.77226 h 0.971517 v 0.64079 q 0.454753,-0.37724 0.904338,-0.58911 0.454752,-0.21187 0.966349,-0.21187 0.589111,0 0.997355,0.24804 0.413412,0.24805 0.61495,0.6873 0.589111,-0.49609 1.074869,-0.71314 0.485759,-0.2222 1.038697,-0.2222 0.950846,0 1.400431,0.57877 0.454752,0.57361 0.454752,1.60714 z"
         style="fill:#00ffff;fill-opacity:1;stroke-width:0.26458332"
         id="path963"
         inkscape:connector-curvature="0" />
      <path
         d="M 92.044159,294.40329 H 91.07781 v -0.61495 q -0.129192,0.0879 -0.3514,0.24805 -0.217041,0.15503 -0.423747,0.24804 -0.242879,0.11886 -0.558105,0.19637 -0.315227,0.0827 -0.738973,0.0827 -0.780314,0 -1.322917,-0.51677 -0.542603,-0.51676 -0.542603,-1.31775 0,-0.65629 0.279053,-1.05936 0.284221,-0.40825 0.806153,-0.64079 0.527099,-0.23255 1.266072,-0.31523 0.738973,-0.0827 1.586467,-0.12402 v -0.14986 q 0,-0.33073 -0.118856,-0.54777 -0.113688,-0.21704 -0.330729,-0.34107 -0.206706,-0.11885 -0.496094,-0.16019 -0.289388,-0.0413 -0.604614,-0.0413 -0.382406,0 -0.852662,0.10336 -0.470255,0.0982 -0.971516,0.28939 h -0.05168 v -0.98702 q 0.284221,-0.0775 0.821655,-0.17054 0.537435,-0.093 1.059367,-0.093 0.609782,0 1.059367,0.10335 0.454753,0.0982 0.785482,0.34106 0.325561,0.23772 0.496094,0.61495 0.170532,0.37724 0.170532,0.93535 z m -0.966349,-1.4211 v -1.60714 q -0.444418,0.0258 -1.049032,0.0775 -0.599447,0.0517 -0.950846,0.14986 -0.418579,0.11885 -0.676962,0.37207 -0.258382,0.24804 -0.258382,0.68729 0,0.4961 0.299724,0.74931 0.299723,0.24805 0.914672,0.24805 0.511597,0 0.935344,-0.19637 0.423747,-0.20154 0.785482,-0.48059 z"
         style="fill:#00ffff;fill-opacity:1;stroke-width:0.26458332"
         id="path965"
         inkscape:connector-curvature="0" />
      <path
         d="m 98.922291,294.40329 h -1.224732 l -1.638143,-2.21692 -1.648478,2.21692 h -1.131714 l 2.253093,-2.87838 -2.232422,-2.89388 h 1.224731 l 1.627808,2.18075 1.632975,-2.18075 h 1.136882 l -2.268596,2.84221 z"
         style="fill:#00ffff;fill-opacity:1;stroke-width:0.26458332"
         id="path967"
         inkscape:connector-curvature="0" />
    </g>
  </g>
</svg>
